<svg width="128" height="64" viewBox="0 0 128 64" fill="none" xmlns="http://www.w3.org/2000/svg">
<rect width="128" height="64" rx="6" fill="white"/>
<path d="M23.1077 47.6349L122 47.6139L6 16.3652C11.0432 20.2743 15.8356 21.7742 21.7803 25.2618C22.9806 25.9656 24.6573 26.8863 26.2312 27.9297C29.5672 30.1369 32.8937 32.9268 33.4258 35.681C33.7568 37.4056 33.7133 38.4769 32.9956 40.1336C31.8092 42.8965 29.2075 45.0854 26.6955 46.135L23.1077 47.6349Z" fill="#E42229"/>
<path d="M50.3384 28.5028L50.8558 32.9154H48.0424L50.3384 28.5028ZM47.6618 19.7909L35.6626 41.6274H42.3364L42.8607 40.603H44.0497L45.0705 38.6389H51.2243L51.7329 41.6326L58.4015 41.6274L58.2264 40.6091H60.0416L56.3363 18.966H49.3472L48.8986 19.7909H47.6618Z" fill="#1D1D1B"/>
<path d="M68.2877 20.5792L68.2215 20.6141L67.9227 20.7639L67.6292 20.9207L67.3348 21.0897L67.0482 21.2691L66.759 21.452L66.4742 21.6497L66.192 21.8544L65.9228 22.073L65.7242 22.2281L65.5378 22.3901L65.3602 22.5556L65.1738 22.7228L64.9961 22.9005L64.8184 23.0782L64.6424 23.262L64.47 23.458L64.2949 23.6522L64.1303 23.8543L63.9596 24.0598L63.7941 24.2776L63.6381 24.4971L63.4761 24.7244L63.3263 24.9544L63.1756 25.1896L63.0276 25.4334L62.8865 25.686L62.7453 25.9386L62.6112 26.2025L62.4806 26.476L62.3534 26.7522L62.2306 27.0344L62.1121 27.3236L61.9937 27.6171L61.8891 27.9185L61.7846 28.2303L61.6818 28.5439L61.5817 28.8679L61.4946 29.2023L61.4083 29.542L61.3291 29.8835L61.2585 30.2502L61.1853 30.6125L61.1279 30.9818L61.0869 31.3503L61.0399 31.717L61.0077 32.0793L60.985 32.4443L60.9711 32.8058L60.9641 33.1707L60.9711 33.5305L60.985 33.8902L61.0024 34.2456L61.0373 34.594L61.0756 34.9424L61.1261 35.2847L61.1827 35.6279L61.2515 35.9658L61.3291 36.2977L61.4162 36.6217L61.5129 36.9422L61.6209 37.2549L61.7323 37.5641L61.8613 37.8629L61.9937 38.1503L62.14 38.4369L62.2924 38.7148L62.4579 38.983L62.6382 39.2435L62.8229 39.4961L63.0215 39.733L63.2331 39.9603L63.4422 40.179L63.6042 40.327L63.7705 40.4664L63.9386 40.5979L64.1146 40.7286L64.2879 40.8531L64.4769 40.9716L64.659 41.0883L64.8506 41.1972L65.0457 41.3L65.2461 41.3958L65.449 41.489L65.6615 41.5761L65.8749 41.6597L66.0779 41.7346L66.2991 41.8078L66.5238 41.8783L66.7547 41.9332L66.9864 41.9924L67.2215 42.0447L67.4584 42.09L67.7023 42.1309L67.948 42.1719L68.2049 42.2067L68.4558 42.2311L68.7136 42.252L68.9749 42.2746L69.2467 42.2929H69.5062L69.7841 42.3069H70.0637L70.3485 42.2982L70.6333 42.2929L71.0749 42.2659L71.5174 42.225L71.9503 42.1727L72.3823 42.0969L72.8135 42.0081L73.2368 41.9105L73.6444 41.7895L74.059 41.6527L74.4641 41.5099L74.863 41.3496L75.2576 41.1754L75.6356 40.9838L76.018 40.7782L76.3847 40.5596L76.7496 40.3323L77.0998 40.0953L77.4482 39.8375L77.7809 39.5623L78.1023 39.2888L78.4211 38.997L78.7216 38.6939L78.7626 38.6416L79.057 38.409L79.3775 38.139L79.6876 37.8429L79.9863 37.5485L80.2729 37.2366L80.5482 36.9196L80.8147 36.5869L81.0725 36.2385L81.3138 35.8857L81.5463 35.526L81.7719 35.1514L81.981 34.7647L82.17 34.3753L82.3477 33.979L82.8424 32.7683H76.6286L76.4213 33.1751L76.3847 33.25L76.3481 33.3258L76.3071 33.4007L76.2662 33.4738L76.2253 33.5487L76.1817 33.6167L76.1364 33.6925L76.0972 33.7648L76.0502 33.8353L76.004 33.8972L75.9544 33.979L75.9091 34.04L75.8716 34.1097L75.8176 34.1733L75.7767 34.2386L75.6983 34.3414L75.626 34.4372L75.5511 34.5347L75.4736 34.6236L75.3891 34.7124L75.3098 34.7969L75.2227 34.8814L75.1295 34.9607L75.0407 35.0391L74.9536 35.1114L74.8543 35.181L74.7559 35.2507L74.6583 35.316L74.5581 35.377L74.4484 35.4389L74.3439 35.4963L74.2306 35.5486L74.1183 35.6035L73.9998 35.647L73.8787 35.6923L73.7585 35.7333L73.6314 35.7742L73.5051 35.8038L73.3709 35.8387L73.2438 35.8648L73.1027 35.8857L72.9589 35.9083L72.8152 35.9266L72.6672 35.9406L72.5147 35.9475L72.3666 35.9519L72.2073 35.9589L71.9703 35.9475L71.7561 35.9336L71.554 35.8944L71.3667 35.8509L71.1916 35.7968L71.0253 35.7333L70.8746 35.6531L70.7291 35.5643L70.5924 35.4624L70.46 35.3526L70.3485 35.2368L70.2257 35.1L70.1185 34.9476L70.0184 34.7908L69.9252 34.6192L69.8337 34.4232L69.7614 34.2273L69.6787 34.0069L69.6177 33.7804L69.5585 33.5444L69.5036 33.2892L69.4601 33.0253L69.4261 32.7422L69.3939 32.4574L69.3695 32.1568L69.3555 31.8494L69.3529 31.5262V31.1935L69.3642 30.8538L69.3782 30.501L69.3965 30.1413L69.4261 29.779L69.4714 29.4166L69.5193 29.0769L69.5837 28.7381L69.6586 28.4071L69.7492 28.0892L69.8477 27.7747L69.9609 27.4742L70.0802 27.1755L70.21 26.8907L70.3494 26.6172L70.4974 26.3489L70.6516 26.0937L70.8171 25.8498L70.9887 25.6146L71.1638 25.3899L71.3467 25.1782L71.5305 24.9822L71.7291 24.7932L71.8406 24.6887L71.952 24.6426L72.1637 24.565L72.3693 24.5102L72.5696 24.4605L72.7673 24.4257L72.9703 24.4082L73.1663 24.4013H73.2891L73.4058 24.4082L73.5303 24.417L73.6427 24.4335L73.749 24.4492L73.8535 24.4788L73.9615 24.5041L74.0617 24.5311L74.1618 24.5659L74.262 24.599L74.3508 24.6426L74.444 24.6905L74.5329 24.741L74.6217 24.7932L74.7088 24.8499L74.7968 24.9161L74.8795 24.9753L74.9614 25.0432L75.045 25.1164L75.1269 25.1913L75.2027 25.274L75.2863 25.3629L75.3647 25.4517L75.4466 25.5423L75.5215 25.6381L75.592 25.7383L75.6713 25.8498L75.7401 25.9595L75.815 26.0728L75.8856 26.1851L75.964 26.3036L76.0249 26.422L76.0293 26.4281L76.0337 26.4369L76.0502 26.4647L76.1547 26.7522H82.3634L82.2937 25.8088H83.541L83.4774 24.8246L83.4338 24.4701L83.3886 24.1165L83.3206 23.775L83.2335 23.4397L83.1447 23.1174L83.0358 22.8003L82.9104 22.4903L82.778 22.1915L82.6282 21.9006L82.4661 21.6218L82.2928 21.3562L82.1134 21.0966L81.9078 20.8501L81.6918 20.6132L81.474 20.3833L81.2363 20.169L80.9924 19.966L80.7311 19.7744L80.4619 19.595L80.1797 19.4312L79.8992 19.2762L79.5944 19.1325L79.293 19.0027L78.9716 18.8868L78.6554 18.7841L78.3157 18.6909L77.9725 18.6133L77.6215 18.5437L77.2661 18.4905L76.8951 18.4522L76.5214 18.4226L76.2523 18.4174L75.9953 18.4156H75.7331L75.4596 18.4226L75.1931 18.4313L74.9153 18.4487L74.6374 18.4679L74.3578 18.4905L74.0773 18.5228L73.7925 18.5567L73.5051 18.6003L73.2185 18.6473L72.925 18.6996L72.6332 18.764L72.3423 18.825L72.0522 18.9051L71.7517 18.987L71.4582 19.0715L71.1638 19.1717L70.8676 19.2692L70.5715 19.3859L70.2806 19.5079L69.9888 19.6385L69.697 19.7683L69.4078 19.9138L69.1186 20.0784L68.8312 20.2395L68.549 20.4155L68.2877 20.5792V20.5792Z" fill="#1D1D1B"/>
<path d="M90.4089 20.5565L90.3148 20.6018L90.0831 20.729L89.8549 20.8527L89.6198 20.9894L89.4037 21.1349L89.1877 21.2829L88.9665 21.4336L88.7113 21.6287L88.4674 21.843L88.2374 22.073L88.0057 22.3125L87.7941 22.5651L87.5955 22.8316L87.4065 23.1051L87.2314 23.3943L87.0668 23.6835L86.917 23.9866L86.7846 24.2984L86.6592 24.6155L86.559 24.9343L86.4701 25.2618L86.4005 25.5971L86.3482 25.9316L86.3177 26.2687L86.3003 26.6058L86.302 26.9428L86.3273 27.2869L86.3726 27.624L86.4457 27.9637L86.539 28.2947L86.6522 28.6196L86.7959 28.9479L86.9623 29.2598L87.1609 29.5646L87.3725 29.8634L87.6164 30.1456L87.8864 30.4243L88.1878 30.6769L88.5092 30.9156L88.5684 30.9565L88.6277 30.9974L88.6886 31.034L88.7592 31.0706L88.8324 31.1072L88.9055 31.1412L88.983 31.1821L89.0597 31.2274L89.1468 31.2683L89.24 31.3119L89.3332 31.3502L89.4334 31.3981L89.5361 31.4391L89.6363 31.4913L89.7495 31.5401L89.8628 31.5871L89.9777 31.6376L90.0918 31.6899L90.2225 31.7422L90.3427 31.7944L90.4742 31.8493L90.6092 31.8972L90.739 31.9564L90.8801 32.0113L91.0169 32.061L91.1606 32.1202L91.3034 32.1777L91.4445 32.2317L91.5926 32.2935L91.7433 32.351L91.8957 32.4094L92.0525 32.4712L92.2076 32.5235L92.3609 32.5844L92.5063 32.6402L92.6587 32.6942L92.8094 32.7421L92.9619 32.797L93.1125 32.8518L93.2606 32.9041L93.4087 32.9538L93.5568 33.0043L93.6979 33.0565L93.8477 33.1044L93.9914 33.1567L94.1308 33.2072L94.2701 33.2551L94.4104 33.3091L94.5515 33.357L94.6882 33.4076L94.8206 33.4555L94.9548 33.5077L95.0915 33.5574L95.2143 33.6096L95.3397 33.6697L95.4652 33.7194L95.588 33.7743L95.7117 33.8291L95.8249 33.8901L95.9416 33.9476L96.0549 34.0068L96.162 34.0634L96.2665 34.1244L96.3649 34.1845L96.4381 34.2368L96.493 34.2821L96.5496 34.3326L96.5931 34.3822L96.6315 34.4371L96.6663 34.492L96.6951 34.5556L96.7229 34.6148L96.743 34.6784L96.7586 34.7446L96.77 34.8177L96.7752 34.8874V34.9702L96.77 35.0451L96.7639 35.12L96.7569 35.2019L96.736 35.2846L96.702 35.3735L96.6654 35.4693L96.6245 35.5668L96.5696 35.674L96.5243 35.7471L96.4198 35.7811L96.2325 35.829L96.0461 35.8699L95.8528 35.9109L95.6498 35.9457L95.4512 35.9745L95.2492 35.9997L95.0506 36.0198L94.8572 36.0363L94.6682 36.0407H94.4922L94.3198 36.0363L94.1665 36.0224L94.0167 36.0067L93.8686 35.9788L93.7318 35.9518L93.5977 35.9196L93.4671 35.8839L93.3312 35.8421L93.2171 35.7924L93.0943 35.7419L92.9775 35.6809L92.8756 35.6191L92.7711 35.5625L92.6727 35.4893L92.5751 35.4144L92.4854 35.3386L92.3948 35.2567L92.3173 35.1731L92.238 35.0843L92.1692 34.9902L92.1013 34.8944L92.0351 34.7899L91.9759 34.6853L91.921 34.5721L91.8687 34.4554L91.8208 34.3343L91.7799 34.2141L91.7503 34.0817L91.7137 33.9476L91.6937 33.8082L91.6727 33.6645L91.6571 33.5147L91.6501 33.3623L91.6292 32.601H85.5164L85.4293 33.3779L85.4119 33.5739H84.0008L83.9172 34.3578L83.8963 34.5939L83.8806 34.8238L83.8667 35.0538L83.8623 35.2707V35.4893L83.8667 35.7053L83.878 35.9083L83.8832 36.1112L83.9059 36.3089L83.9311 36.4979L83.9607 36.687L83.9947 36.8716L84.0356 37.0519L84.0792 37.227L84.1227 37.3934L84.1794 37.5641L84.229 37.7261L84.2926 37.8855L84.364 38.0379L84.4337 38.1903L84.5095 38.3367L84.594 38.4778L84.6732 38.6232L84.7603 38.7582L84.8561 38.8898L84.9467 39.0222L85.0469 39.1476L85.1471 39.2748L85.2498 39.3915L85.3518 39.5117L85.4685 39.6301L85.6279 39.7895L85.796 39.9463L85.965 40.097L86.1479 40.2338L86.3273 40.3705L86.5163 40.4933L86.7053 40.624L86.903 40.7398L87.0964 40.847L87.295 40.9515L87.5023 41.0447L87.7113 41.1448L87.9256 41.2267L88.1381 41.3112L88.3559 41.3861L88.5754 41.4549L88.7932 41.5272L89.024 41.5891L89.2496 41.6526L89.4813 41.7049L89.7121 41.7554L89.9385 41.8007L90.172 41.846L90.4089 41.8896L90.6458 41.9261L90.8827 41.961L91.1188 41.9923L91.3653 42.0193L91.6005 42.0455L91.8478 42.0699L92.0917 42.0855L92.3243 42.1108L92.502 42.1178L92.6814 42.1291L92.8643 42.1308H93.231L93.4226 42.1221L93.616 42.1152L93.8137 42.1082L94.0167 42.0855L94.2196 42.0699L94.4243 42.0446L94.6273 42.0193L94.8363 41.9923L95.0506 41.9558L95.2579 41.9192L95.4739 41.8782L95.6908 41.8347L95.905 41.7824L96.1254 41.7302L96.3493 41.6736L96.5696 41.6126L96.7822 41.5481L97.0069 41.4819L97.2255 41.4122L97.4398 41.3382L97.6584 41.2546L97.8753 41.1701L98.0896 41.0786L98.3056 40.9881L98.5268 40.8879L98.7402 40.7851L98.9458 40.678L99.0912 40.5987L99.2437 40.5186L99.3848 40.4384L99.5311 40.3496L99.6705 40.266L99.8133 40.1728L99.9544 40.077L100.091 39.9785L100.231 39.8853L100.362 39.7869L100.494 39.685L100.62 39.5848L100.752 39.469L100.884 39.3662L101.005 39.2495L101.128 39.1406L101.244 39.0222L101.365 38.9089L101.387 38.8854L101.426 38.8584L101.554 38.7582L101.686 38.6555L101.811 38.5527L101.933 38.4482L102.06 38.3367L102.184 38.2339L102.303 38.118L102.419 38.0066L102.531 37.8898L102.649 37.7696L102.758 37.6512L102.868 37.5275L102.971 37.4003L103.071 37.2792L103.174 37.1451L103.271 37.0197L103.36 36.8855L103.456 36.7514L103.538 36.6147L103.627 36.4823L103.71 36.3368L103.786 36.2001L103.856 36.0589L103.938 35.8926L104.018 35.7532L104.08 35.6121L104.146 35.4684L104.209 35.3325L104.255 35.1731L104.315 35.0041L104.363 34.8177L104.431 34.5808L104.485 34.3413L104.535 34.0974L104.58 33.8518L104.624 33.6035L104.656 33.3509L104.676 33.0931L104.685 32.8336V32.3048L104.663 32.0401L104.624 31.7692L104.565 31.5044L104.501 31.2291L104.41 30.9652L104.303 30.6961L104.182 30.4348L104.03 30.17L103.868 29.9148L103.675 29.6639L103.469 29.4157L103.237 29.1674L102.978 28.9323L102.704 28.7058L102.403 28.4776L102.075 28.2659L101.724 28.0516L101.353 27.8487L100.953 27.6484L100.52 27.4594L100.064 27.2747L99.5747 27.097L99.4876 27.07L99.4057 27.0439L99.3168 27.0151L99.2297 26.9881L99.1339 26.9603L99.039 26.9333L98.9458 26.9063L98.8413 26.8766L98.7402 26.8531L98.634 26.8218L98.5294 26.7991L98.4153 26.7695L98.3056 26.7416L98.1923 26.7103L98.08 26.6824L97.9668 26.6458L97.8448 26.6171L97.7316 26.5875L97.5992 26.5526L97.3718 26.489L97.2534 26.4568L97.1323 26.4211L97.0165 26.3863L96.8954 26.3497L96.77 26.314L96.6628 26.2843L96.5383 26.2452L96.425 26.2016L96.3118 26.1676L96.1916 26.1223L96.0714 26.0858L95.946 26.0335L95.8066 25.9899L95.6821 25.9446L95.554 25.8967L95.4286 25.8488L95.3154 25.8079L95.2013 25.767L95.0985 25.7191L94.9957 25.6755L94.9069 25.6372L94.8206 25.5962L94.7527 25.5553L94.6882 25.5144L94.6316 25.4778L94.5933 25.4412L94.5541 25.4116L94.5018 25.3506L94.4426 25.2888L94.3973 25.2252L94.3468 25.1607L94.3102 25.091L94.2806 25.0292L94.2536 24.9604L94.2327 24.8994L94.21 24.8236L94.2031 24.7557L94.1917 24.6878V24.6146L94.1987 24.5458L94.2031 24.4691L94.224 24.389L94.2466 24.3089L94.2902 24.1956L94.2971 24.1747H94.3102L94.5192 24.1199L94.737 24.0841L94.9591 24.058L95.1899 24.0406H95.4199L95.6725 24.0537L95.9094 24.0798L96.155 24.1199L96.3902 24.1773L96.6062 24.2523L96.8135 24.3394L97.0121 24.4326L97.1915 24.551L97.3579 24.6756L97.4973 24.8236L97.6218 24.9804L97.7359 25.159L97.83 25.3506L97.9067 25.571L97.9572 25.8192L98.0573 26.6624H103.986L104.039 25.9586L104.047 25.7966L104.057 25.7583H105.109L105.16 25.0562L105.173 24.9012L105.189 24.74L105.191 24.578L105.198 24.4003V23.6826L105.189 23.491L105.164 23.3028L105.153 23.1086L105.118 22.9152L105.089 22.7219L105.046 22.5233L105 22.3256L104.941 22.127L104.877 21.9292L104.8 21.7333L104.72 21.539L104.624 21.3439L104.521 21.1523L104.405 20.965L104.269 20.7812L104.129 20.6009L103.979 20.4215L103.816 20.2499L103.64 20.0931L103.453 19.9311L103.244 19.7813L103.027 19.6419L102.8 19.5078L102.656 19.4303L102.52 19.3615L102.376 19.2935L102.242 19.2256L102.098 19.1777L101.961 19.1115L101.825 19.0636L101.685 19.0131L101.542 18.966L101.403 18.9199L101.262 18.8789L101.122 18.838L100.982 18.8031L100.841 18.777L100.706 18.7404L100.565 18.7143L100.424 18.6882L100.28 18.6559L100.141 18.6377L100.001 18.6124L99.8612 18.5993L99.7158 18.5784L99.5834 18.5645L99.4396 18.5505L99.2985 18.5305L99.1618 18.5218L99.0137 18.5035L98.877 18.4965L98.7341 18.4809L98.5921 18.4739L98.4467 18.4669L98.303 18.4513L98.0417 18.4391L97.7769 18.426L97.5156 18.4216H97.249L96.9842 18.4303L96.7229 18.4391L96.4608 18.4556L96.196 18.4756L95.9364 18.5035L95.6768 18.5305L95.4129 18.5697L95.1516 18.6133L94.8912 18.6559L94.6386 18.7082L94.386 18.7631L94.1308 18.8241L93.8799 18.8929L93.6291 18.9721L93.3791 19.0505L93.1326 19.1315L92.8913 19.2256L92.6431 19.3162L92.4079 19.419L92.1692 19.5217L91.9367 19.6376L91.705 19.7508L91.4768 19.8789L91.2512 20.0069L91.0334 20.1367L90.8139 20.2778L90.5936 20.4215L90.4089 20.5556V20.5565Z" fill="#1D1D1B"/>
<path d="M52.8738 33.5069L51.5865 24.8385L47.0763 33.5078L52.8738 33.5069ZM59.3403 40.0221H53.8964L53.4087 37.0789L53.3999 37.0519H45.2315L43.6942 40.0221H38.4097L49.6981 19.561H55.8388L59.3403 40.0221ZM76.4942 19.0096C80.298 19.2265 82.7325 21.5216 82.9171 25.2261H77.8669C77.8669 25.2261 77.8643 25.2122 77.86 25.2C77.0691 23.7933 76.0918 22.9022 74.5414 22.9022C72.0973 22.9022 69.195 25.6581 68.8423 29.7267C68.4852 33.7969 69.2909 36.5502 72.2062 36.5502C74.0606 36.5502 75.4019 35.7924 76.2582 34.5852C76.5134 34.2133 76.7755 33.7996 76.9942 33.3571H81.9686C80.338 37.5641 76.4567 40.3409 72.0354 40.5047C69.1219 40.6092 66.913 40.0012 65.4235 38.5823C63.3183 36.5877 62.7146 32.6899 63.523 29.0098C64.3025 25.4674 65.9444 23.1853 67.8127 21.6654C70.5504 19.4469 73.8759 18.9216 76.4933 19.0096H76.4942ZM99.8184 25.1616C99.7139 23.3037 98.2035 22.586 96.7202 22.566C95.3396 22.5355 94.0052 23.1165 93.6864 24.1234C93.4774 24.7888 93.6934 25.3898 94.1481 25.841C94.486 26.1781 95.1619 26.3898 95.8814 26.6467C97.1391 27.0979 98.6199 27.4054 99.3855 27.6658C104.539 29.4601 104.437 32.2735 103.797 34.6601C103.665 35.1522 103.574 35.3256 103.339 35.7811C102.625 37.1791 101.36 38.3411 99.8985 39.1128C97.8229 40.2042 95.3692 40.5892 93.7247 40.4664C91.231 40.2747 88.8714 39.7669 87.3706 38.186C86.3063 37.072 85.7532 35.7123 86.0397 33.202H91.0559C91.0559 35.1618 92.2562 36.4387 94.1054 36.6217C95.0487 36.7096 96.4807 36.4867 97.2829 36.093C97.9022 35.7925 98.4561 34.9746 98.5929 34.3457C98.7244 33.7194 98.5284 33.0705 97.9457 32.7038C96.7637 31.9591 95.1698 31.5506 93.6159 30.9496C92.0141 30.3277 90.6587 29.7537 90.2677 29.4784C87.0971 27.253 88.2931 22.8526 90.7319 21.06C92.8224 19.5157 95.5774 18.8737 98.2689 19.0505C99.7775 19.1507 101.162 19.2875 102.512 20.0322C104.765 21.2734 104.686 23.6156 104.563 25.1625H99.8184V25.1616Z" fill="white"/>
</svg>
