<svg xmlns="http://www.w3.org/2000/svg" width="128" height="64" fill="none"><rect width="128" height="64" fill="#fff" rx="6"/><path fill="#E42229" d="M23.108 47.635 122 47.614 6 16.365c5.043 3.91 9.836 5.41 15.78 8.897 1.2.704 2.877 1.624 4.451 2.668 3.336 2.207 6.663 4.997 7.195 7.751.33 1.725.287 2.796-.43 4.453-1.187 2.763-3.789 4.951-6.3 6.001l-3.588 1.5Z"/><path fill="#1D1D1B" d="m50.338 28.503.518 4.412h-2.814l2.296-4.412Zm-2.676-8.712-12 21.836h6.674l.525-1.024h1.189l1.02-1.964h6.154l.509 2.994 6.669-.006-.176-1.018h1.816l-3.706-21.643h-6.989l-.448.825h-1.237ZM68.288 20.58l-.066.034-.3.15-.293.157-.294.169-.287.18-.289.182-.285.198-.282.204-.27.219-.198.155-.186.162-.178.166-.186.167-.178.178-.178.177-.176.184-.172.196-.175.194-.165.202-.17.206-.166.218-.156.22-.162.226-.15.23-.15.236-.148.243-.142.253-.14.253-.135.264-.13.273-.128.276-.122.282-.119.29-.118.293-.105.302-.104.311-.103.314-.1.324-.087.334-.087.34-.079.341-.07.367-.074.363-.057.369-.041.368-.047.367-.032.362-.023.365-.014.362-.007.365.007.36.014.36.017.355.035.348.039.348.05.343.057.343.069.338.077.332.087.324.097.32.108.313.111.31.13.298.132.287.146.287.152.278.166.268.18.26.185.253.199.237.211.227.21.219.161.148.166.14.169.13.176.132.173.124.189.119.182.116.192.11.195.102.2.096.203.093.213.087.213.084.203.075.221.073.225.07.23.055.232.06.236.052.236.045.244.04.246.042.257.035.25.024.259.021.26.023.273.018h.26l.277.014h.28l.285-.009.284-.005.442-.027.442-.041.433-.052.432-.076.431-.089.424-.098.407-.12.415-.137.405-.143.399-.16.395-.175.378-.191.382-.206.367-.218.365-.228.35-.237.348-.258.333-.275.321-.273.32-.292.3-.303.04-.052.295-.233.32-.27.31-.296.3-.295.286-.311.275-.317.267-.333.258-.349.24-.352.233-.36.226-.375.209-.386.189-.39.178-.396.494-1.21H76.63l-.208.406-.036.075-.037.076-.04.075-.042.073-.04.075-.044.068-.046.076-.039.072-.047.07-.046.062-.05.082-.045.061-.037.07-.054.063-.041.066-.079.102-.072.096-.075.098-.077.089-.085.088-.08.085-.086.084-.094.08-.088.078-.087.072-.1.07-.098.07-.098.065-.1.061-.11.062-.104.057-.113.053-.113.054-.118.044-.121.045-.12.041-.128.041-.126.03-.134.035-.127.026-.141.02-.144.023-.144.019-.148.014-.152.006-.148.005-.16.007-.237-.012-.214-.013-.202-.04-.187-.043-.175-.054-.167-.064-.15-.08-.146-.089-.137-.102-.132-.11-.111-.115-.123-.137-.108-.152-.1-.157-.093-.172-.091-.196-.073-.196-.082-.22-.061-.227-.06-.236-.054-.255-.044-.264-.034-.283-.032-.285-.025-.3-.013-.308-.003-.323v-.332l.011-.34.014-.353.019-.36.03-.362.044-.362.048-.34.065-.339.075-.33.09-.319.099-.314.113-.3.12-.3.129-.284.14-.274.147-.268.155-.255.165-.244.172-.235.175-.225.183-.212.184-.196.198-.189.112-.104.111-.046.212-.078.205-.055.2-.05.198-.034.203-.018.196-.007h.123l.117.007.124.009.113.016.106.016.105.03.108.025.1.027.1.035.1.033.089.044.093.047.089.051.089.052.087.057.088.066.082.06.082.067.084.073.082.075.076.083.083.089.079.089.082.09.075.096.07.1.08.112.068.11.075.113.07.112.079.119.06.118.005.006.005.009.016.028.105.287h6.208l-.07-.943h1.248l-.064-.984-.043-.355-.045-.354-.068-.341-.087-.335-.09-.323-.108-.317-.126-.31-.132-.298-.15-.291-.162-.28-.173-.265-.18-.26-.205-.246-.216-.237-.218-.23-.238-.214-.244-.203-.26-.192-.27-.179-.282-.164-.28-.155-.306-.143-.301-.13-.321-.116-.317-.103-.34-.093-.343-.078-.35-.07-.356-.052-.37-.039-.375-.03-.269-.005-.257-.001h-.262l-.273.007-.267.008-.278.018-.278.019-.28.023-.28.032-.284.034-.288.043-.286.047-.294.053-.292.064-.29.061-.29.08-.301.082-.294.085-.294.1-.296.097-.296.117-.291.122-.292.13-.292.13-.29.146-.288.164-.288.162-.282.176-.261.163ZM90.409 20.556l-.094.046-.232.127-.228.124-.235.136-.216.146-.216.148-.222.15-.255.196-.244.214-.23.23-.231.24-.212.252-.198.267-.19.273-.175.29-.164.288-.15.304-.132.311-.126.318-.1.318-.089.328-.07.335-.052.335-.03.337-.018.337.002.337.025.344.046.337.073.34.093.33.113.326.144.328.166.312.199.305.212.298.243.283.27.278.302.253.321.239.06.04.059.041.06.037.071.037.073.036.074.034.077.041.077.045.087.041.093.044.093.038.1.048.103.041.1.052.114.05.113.046.115.05.114.053.13.052.12.052.132.055.135.048.13.06.141.054.137.05.144.06.142.057.142.054.148.062.15.057.153.058.156.062.156.053.153.06.145.056.153.054.15.048.153.055.15.055.149.052.148.05.148.05.14.053.15.047.144.053.14.05.14.048.14.054.14.048.137.05.133.049.134.052.136.05.123.052.126.06.125.05.123.054.124.055.113.061.117.058.113.059.107.056.104.061.099.06.073.053.055.045.057.05.043.05.038.055.035.055.03.064.027.059.02.063.016.067.011.073.005.07v.082l-.005.075-.006.075-.007.082-.021.083-.034.089-.037.095-.04.098-.055.107-.046.073-.104.034-.188.048-.186.04-.193.042-.203.035-.199.029-.202.025-.198.02-.194.016-.189.005h-.176l-.172-.005-.153-.014-.15-.015-.148-.028-.137-.027-.134-.032-.13-.036-.137-.042-.114-.05-.123-.05-.116-.061-.102-.062-.105-.056-.098-.074-.098-.075-.09-.075-.09-.082-.078-.084-.079-.089-.069-.094-.068-.096-.066-.104-.06-.105-.054-.113-.052-.117-.048-.12-.041-.12-.03-.133-.036-.134-.02-.14-.021-.144-.016-.15-.007-.152-.02-.761h-6.114l-.087.777-.017.196H84l-.084.784-.02.236-.016.23-.014.23-.005.217v.218l.005.216.011.203.005.203.023.198.025.189.03.189.034.185.04.18.044.175.044.166.056.171.05.162.064.16.071.152.07.152.076.147.084.14.08.146.086.135.096.132.09.132.1.126.101.127.103.117.102.12.117.118.159.16.168.156.169.151.183.137.18.136.188.123.19.131.197.116.193.107.199.105.207.093.21.1.214.082.212.084.218.075.22.069.217.072.231.062.226.064.231.052.231.05.227.046.233.045.237.044.237.036.237.035.236.031.246.027.236.026.247.025.244.016.232.025.178.007.18.011.182.002h.367l.192-.009.193-.007.198-.007.203-.022.203-.016.204-.025.203-.026.21-.027.214-.036.207-.037.216-.04.217-.044.214-.053.22-.052.224-.056.22-.061.213-.065.225-.066.218-.07.215-.074.218-.083.217-.085.215-.091.216-.09.22-.101.214-.103.206-.107.145-.08.153-.08.14-.08.147-.088.14-.084.142-.093.141-.096.137-.099.14-.093.131-.098.132-.102.126-.1.132-.116.132-.103.121-.117.123-.108.116-.119.121-.113.022-.024.039-.027.128-.1.132-.102.125-.103.122-.105.127-.111.124-.103.119-.116.116-.111.112-.117.118-.12.109-.119.11-.123.103-.128.1-.12.103-.135.097-.125.089-.135.096-.134.082-.136.089-.133.083-.145.076-.137.07-.141.082-.166.08-.14.062-.14.066-.145.063-.136.046-.159.06-.169.048-.186.068-.237.054-.24.05-.244.045-.245.044-.248.032-.253.02-.258.009-.26v-.528l-.022-.265-.039-.27-.059-.266-.064-.275-.091-.264-.107-.269-.121-.261-.152-.265-.162-.255-.193-.251-.206-.248-.232-.249-.259-.235-.274-.226-.301-.228-.328-.212-.351-.214-.371-.203-.4-.2-.433-.19-.456-.184-.49-.178-.086-.027-.082-.026-.09-.029-.086-.027-.096-.028-.095-.027-.093-.027-.105-.03-.1-.023-.107-.031-.105-.023-.114-.03-.11-.027-.113-.032-.112-.028-.113-.036-.122-.029-.113-.03-.133-.034-.227-.064-.119-.032-.12-.036-.117-.035-.12-.036-.126-.036-.107-.03-.125-.039-.113-.043-.113-.034-.12-.046-.12-.036-.126-.052-.14-.044-.124-.045-.128-.048-.125-.048-.114-.041-.114-.041-.102-.048-.103-.044-.09-.038-.085-.04-.068-.042-.065-.04-.056-.037-.039-.037-.039-.03-.052-.06-.06-.062-.045-.064-.05-.064-.037-.07-.03-.062-.026-.069-.021-.06-.023-.076-.007-.068-.011-.068v-.073l.007-.07.004-.076.021-.08.023-.08.043-.113.007-.021h.013l.21-.055.217-.036.222-.026.23-.017h.23l.254.013.236.026.246.04.235.057.216.075.208.087.198.094.18.118.166.125.14.148.124.156.114.179.094.192.077.22.05.248.1.843h5.929l.053-.703.008-.162.01-.039h1.052l.051-.702.013-.155.016-.161.002-.162.007-.178v-.717l-.009-.192-.025-.188-.011-.194-.035-.194-.029-.193-.043-.199-.046-.197-.059-.199-.064-.198-.077-.196-.08-.194-.096-.195-.103-.192-.116-.187-.136-.184-.14-.18-.15-.18-.163-.171-.176-.157-.187-.162-.209-.15-.217-.14-.227-.133-.144-.078-.136-.069-.144-.067-.134-.068-.144-.048-.137-.067-.136-.047-.14-.05-.143-.048-.139-.046-.141-.041-.14-.041-.14-.035-.141-.026-.135-.037-.141-.026-.141-.026-.144-.032-.139-.018-.14-.026-.14-.013-.145-.02-.133-.015-.143-.014-.141-.02-.137-.008-.148-.018-.137-.008-.143-.015-.142-.007-.145-.007-.144-.016-.261-.012-.265-.013-.261-.004h-.267l-.265.008-.261.01-.262.016-.265.02-.26.027-.26.027-.263.04-.261.043-.26.043-.253.052-.253.055-.255.061-.251.069-.25.08-.25.078-.247.08-.242.095-.248.09-.235.103-.239.103-.232.116-.232.113-.228.128-.226.128-.218.13-.22.14-.22.145-.184.134Z"/><path fill="#fff" d="m52.874 33.507-1.288-8.668-4.51 8.669 5.798-.001Zm6.466 6.515h-5.444l-.487-2.943-.01-.027h-8.168l-1.537 2.97H38.41l11.288-20.461h6.14l3.502 20.461ZM76.494 19.01c3.804.216 6.239 2.512 6.423 6.216h-5.05l-.007-.026c-.79-1.407-1.768-2.298-3.319-2.298-2.444 0-5.346 2.756-5.699 6.825-.357 4.07.449 6.823 3.364 6.823 1.855 0 3.196-.758 4.052-1.965.255-.372.517-.785.736-1.228h4.975c-1.631 4.207-5.512 6.984-9.934 7.148-2.913.104-5.122-.504-6.611-1.923-2.106-1.994-2.71-5.892-1.901-9.572.78-3.543 2.421-5.825 4.29-7.345 2.737-2.218 6.063-2.743 8.68-2.655h.001Zm23.324 6.152c-.104-1.858-1.614-2.576-3.098-2.596-1.38-.03-2.715.55-3.034 1.557-.209.666.007 1.267.462 1.718.338.337 1.014.549 1.733.806 1.258.45 2.739.758 3.504 1.019 5.154 1.794 5.052 4.607 4.412 6.994-.132.492-.223.666-.458 1.121-.714 1.398-1.979 2.56-3.44 3.332-2.076 1.091-4.53 1.476-6.174 1.353-2.494-.191-4.854-.7-6.354-2.28-1.065-1.114-1.618-2.474-1.331-4.984h5.016c0 1.96 1.2 3.237 3.05 3.42.943.088 2.375-.135 3.177-.529.62-.3 1.173-1.118 1.31-1.747.131-.627-.065-1.275-.647-1.642-1.182-.745-2.776-1.153-4.33-1.754-1.602-.622-2.957-1.196-3.348-1.472-3.17-2.225-1.975-6.625.464-8.418 2.09-1.544 4.845-2.186 7.537-2.01 1.508.1 2.893.238 4.243.982 2.253 1.241 2.174 3.584 2.051 5.13h-4.745Z"/></svg>