<svg xmlns="http://www.w3.org/2000/svg" width="128" height="64" fill="none"><rect width="128" height="64" fill="#fff" rx="6"/><path fill="#E12626" d="M25.98 26.021c-.683-.692-1.426-1.215-2.23-1.56a6.439 6.439 0 0 0-2.581-.525c-1.992 0-3.682.76-5.078 2.278-1.393 1.52-2.089 3.47-2.091 5.847 0 2.294.718 4.215 2.157 5.755 1.439 1.545 3.144 2.32 5.116 2.32a6.25 6.25 0 0 0 2.448-.473c.754-.317 1.505-.832 2.254-1.553v1.632h3.852V24.339H25.98v1.682Zm-1.02 9.303c-.792.848-1.79 1.266-2.992 1.269-1.165-.001-2.147-.432-2.941-1.294-.797-.86-1.195-1.96-1.195-3.291 0-1.328.393-2.411 1.175-3.259.784-.847 1.766-1.266 2.95-1.266 1.214 0 2.216.416 3.008 1.246.791.835 1.048 1.784 1.045 3.126 0 1.373-.256 2.624-1.05 3.47m26.956-9.304c-.682-.692-1.428-1.215-2.228-1.56a6.463 6.463 0 0 0-2.586-.525c-1.986 0-3.681.76-5.075 2.278-1.393 1.52-2.088 3.47-2.09 5.847-.003 2.294.715 4.215 2.156 5.755 1.44 1.545 3.144 2.32 5.119 2.32a6.226 6.226 0 0 0 2.443-.473c.754-.317 1.505-.832 2.254-1.553v1.632h3.852V24.339h-3.845v1.682Zm-1.02 9.303c-.792.848-1.791 1.266-2.99 1.269-1.166-.001-2.148-.432-2.945-1.294-.797-.86-1.195-1.96-1.193-3.291.003-1.328.39-2.411 1.175-3.259.784-.847 1.766-1.266 2.951-1.266 1.21 0 2.213.416 3.007 1.246.792.835 1.046 1.784 1.043 3.126 0 1.373-.254 2.624-1.048 3.47m28.043-10.61c-.827-.51-1.784-.764-2.875-.764a6.046 6.046 0 0 0-2.913.713c-.889.474-1.637 1.167-2.251 2.083-.467-.916-1.086-1.611-1.855-2.086-.774-.477-1.637-.715-2.596-.718-.95 0-1.825.18-2.63.543-.803.36-1.534.906-2.192 1.64v-1.787h-3.854l-.005 15.403h3.852l.002-6.834c.003-1.477.132-2.56.391-3.248.262-.687.652-1.22 1.175-1.604a2.924 2.924 0 0 1 1.748-.57c.574 0 1.066.152 1.472.454.406.302.708.761.911 1.378.203.616.305 1.611.305 2.989l-.008 7.435h3.857v-6.927c.005-1.47.132-2.536.386-3.198.256-.665.647-1.182 1.17-1.56a2.97 2.97 0 0 1 1.779-.564c.867 0 1.514.31 1.95.924.437.619.653 1.799.653 3.537l-.005 7.788h3.852l.005-9.021c0-1.85-.18-3.187-.54-4.007-.36-.822-.955-1.49-1.784-2m15.77 10.488c-1.03 1.026-2.263 1.538-3.697 1.538-1.203-.001-2.185-.332-2.961-.987-.774-.655-1.249-1.538-1.429-2.65l12.358.008.015-.733c0-2.538-.753-4.578-2.266-6.128-1.51-1.546-3.474-2.32-5.89-2.322-2.273 0-4.166.774-5.67 2.33-1.51 1.55-2.264 3.501-2.264 5.851-.003 2.296.753 4.202 2.26 5.727 1.508 1.528 3.467 2.29 5.868 2.29 1.547 0 2.882-.275 4.011-.828 1.125-.55 2.091-1.406 2.898-2.558l-3.232-1.538Zm-6.496-7.08c.81-.596 1.751-.893 2.822-.89.992 0 1.86.264 2.604.794.75.533 1.25 1.22 1.504 2.068l-8.34-.005c.43-.939.903-1.596 1.41-1.966m19.91 3.468 5.207-7.255h-4.392l-3.015 4.2-3.025-4.2h-4.46l5.26 7.299-5.817 8.107h4.393l3.621-5.05 3.641 5.05H114l-5.877-8.15Zm-69.024-7.727c-.713 0-1.335.135-1.855.396-.513.257-1.101.726-1.764 1.414v-1.335h-3.677v15.403h3.852l-.002-8.011c0-2.936.812-4.408 2.776-4.408.34 0 .688.074 1.038.206a19.413 19.413 0 0 1 2.18-2.97c-.881-.45-1.731-.695-2.548-.695"/></svg>