<svg xmlns="http://www.w3.org/2000/svg" width="128" height="64" fill="none"><rect width="128" height="64" fill="#FFF200" rx="6"/><path fill="#000" d="M14 39.929h2.244c.552 0 .994.147 1.251.441.221.22.331.478.331.81 0 .551-.294.846-.625 1.03.552.22.92.552.92 1.177 0 .883-.736 1.325-1.803 1.325h-2.281v-4.783H14Zm2.023 1.95c.479 0 .773-.148.773-.515 0-.332-.257-.516-.699-.516H15.03v1.03h.993Zm.295 1.95c.478 0 .736-.184.736-.516 0-.33-.258-.515-.773-.515h-1.25v1.067h1.287v-.037ZM20.144 42.835l-1.84-2.943h1.252l1.14 1.95 1.177-1.95h1.215l-1.84 2.906v1.913h-1.067v-1.876h-.037ZM25.81 39.929h1.067v3.863h2.392v.956H25.81v-4.82ZM31.734 39.892h.956l2.06 4.856h-1.103l-.442-1.067h-2.06l-.442 1.067h-1.066l2.097-4.856Zm1.103 2.833-.625-1.582-.626 1.582h1.251ZM37.584 39.929h1.986c1.14 0 1.84.699 1.84 1.655 0 1.104-.883 1.693-1.95 1.693h-.81v1.434h-1.066V39.93Zm1.913 2.428c.515 0 .846-.331.846-.736 0-.478-.331-.736-.846-.736h-.81v1.472h.81ZM41.998 42.357c0-1.398 1.068-2.502 2.576-2.502s2.575 1.104 2.575 2.502c0 1.361-1.067 2.502-2.575 2.502-1.508-.037-2.575-1.14-2.575-2.502Zm4.01 0c0-.846-.625-1.545-1.47-1.545-.847 0-1.436.662-1.436 1.508s.626 1.508 1.472 1.508c.846.037 1.435-.662 1.435-1.471ZM47.701 44.05l.626-.737c.441.368.883.59 1.435.59.441 0 .699-.185.699-.442 0-.258-.184-.405-.957-.626-.956-.257-1.619-.515-1.619-1.472 0-.883.7-1.471 1.693-1.471.699 0 1.287.22 1.803.625l-.552.81c-.442-.295-.846-.479-1.251-.479-.405 0-.626.184-.626.405 0 .331.221.405 1.03.626.994.257 1.546.625 1.546 1.434 0 .957-.736 1.509-1.766 1.509a3.122 3.122 0 0 1-2.06-.773ZM53.477 40.885h-1.471v-.993h4.01v.993h-1.471v3.863h-1.068v-3.863ZM56.826 39.929h3.642v.956h-2.575v.994h2.28v.956h-2.28v1.03h2.612v.957h-3.68v-4.893ZM66.208 44.27c-.405.331-.847.552-1.398.552-.92 0-1.62-.552-1.62-1.398 0-.626.332-1.067.957-1.325-.22-.33-.33-.625-.33-.956 0-.663.514-1.288 1.47-1.288.81 0 1.362.552 1.362 1.214 0 .662-.405 1.03-1.03 1.251l.625.626c.148-.258.332-.516.479-.847l.772.442c-.184.33-.404.699-.625 1.03l.699.699-.773.552-.588-.552Zm-.59-.589-.919-.956c-.331.184-.441.404-.441.625 0 .331.294.552.662.552.257.037.478-.074.699-.22Zm.075-2.538c0-.295-.184-.479-.442-.479-.294 0-.478.184-.478.479 0 .22.073.368.294.588.405-.11.626-.294.626-.588ZM70.07 44.05l.626-.737c.442.368.883.59 1.435.59.441 0 .699-.185.699-.442 0-.258-.184-.405-.957-.626-.956-.257-1.619-.515-1.619-1.472 0-.883.7-1.471 1.693-1.471.699 0 1.288.22 1.803.625l-.552.81c-.442-.295-.846-.479-1.251-.479-.405 0-.626.184-.626.405 0 .331.221.405 1.03.626.994.257 1.546.625 1.546 1.434 0 .957-.736 1.509-1.766 1.509a3.122 3.122 0 0 1-2.06-.773ZM74.265 39.929h1.14l.994 3.274 1.067-3.274h.92l1.067 3.274.993-3.274h1.104l-1.656 4.856h-.846l-1.104-3.164-1.104 3.164h-.92l-1.655-4.856ZM82.433 39.929H83.5v4.82h-1.067v-4.82ZM84.383 44.05l.625-.737c.442.368.883.59 1.435.59.441 0 .699-.185.699-.442 0-.258-.184-.405-.957-.626-.956-.257-1.618-.515-1.618-1.472 0-.883.699-1.471 1.692-1.471.699 0 1.288.22 1.803.625l-.552.81c-.442-.295-.846-.479-1.251-.479-.405 0-.626.184-.626.405 0 .331.221.405 1.03.626.994.257 1.546.625 1.546 1.434 0 .957-.736 1.509-1.766 1.509a3.122 3.122 0 0 1-2.06-.773ZM88.724 44.05l.626-.737c.441.368.883.59 1.434.59.442 0 .7-.185.7-.442 0-.258-.184-.405-.957-.626-.957-.257-1.619-.515-1.619-1.472 0-.883.7-1.471 1.692-1.471.7 0 1.288.22 1.803.625l-.552.81c-.441-.295-.846-.479-1.25-.479-.405 0-.626.184-.626.405 0 .331.22.405 1.03.626.994.257 1.546.625 1.546 1.434 0 .957-.736 1.509-1.767 1.509a3.122 3.122 0 0 1-2.06-.773ZM95.567 39.929h1.987c1.14 0 1.84.699 1.84 1.655 0 1.104-.883 1.693-1.95 1.693h-.81v1.434h-1.067V39.93Zm1.914 2.428c.515 0 .846-.331.846-.736 0-.478-.331-.736-.846-.736h-.81v1.472h.81ZM99.946 42.357c0-1.398 1.067-2.502 2.575-2.502 1.508 0 2.575 1.104 2.575 2.502 0 1.361-1.067 2.502-2.575 2.502-1.508 0-2.575-1.14-2.575-2.502Zm4.047 0c0-.846-.626-1.545-1.472-1.545s-1.435.662-1.435 1.508.626 1.508 1.472 1.508c.846.037 1.435-.662 1.435-1.471ZM105.685 44.05l.626-.737c.441.368.883.59 1.434.59.442 0 .699-.185.699-.442 0-.258-.184-.405-.956-.626-.957-.257-1.619-.515-1.619-1.472 0-.883.699-1.471 1.692-1.471.699 0 1.288.22 1.803.625l-.552.81c-.441-.295-.846-.479-1.251-.479-.404 0-.625.184-.625.405 0 .331.221.405 1.03.626.994.257 1.545.625 1.545 1.434 0 .957-.735 1.509-1.766 1.509-.735 0-1.508-.258-2.06-.773ZM111.461 40.885h-1.471v-.993H114v.993h-1.472v3.863h-1.067v-3.863ZM29.305 31.908l2.282-2.723c1.434 1.14 3.053 1.766 4.782 1.766 1.104 0 1.693-.367 1.693-.993v-.037c0-.625-.478-.956-2.465-1.398-3.128-.699-5.556-1.582-5.556-4.636v-.036c0-2.723 2.171-4.71 5.703-4.71 2.502 0 4.452.663 6.034 1.95l-2.024 2.87c-1.361-.957-2.796-1.435-4.12-1.435-.994 0-1.472.405-1.472.957v.037c0 .662.515.956 2.539 1.434 3.384.736 5.481 1.84 5.481 4.563v.036c0 3.017-2.354 4.783-5.923 4.783-2.686 0-5.15-.81-6.954-2.428ZM44.61 19.399h11.81v3.458h-7.799v2.208h7.064v3.2h-7.064v2.319h7.873v3.458h-11.92V19.399h.037ZM59.438 19.399h3.79l6.07 7.763v-7.763h4.047v14.68h-3.569l-6.29-8.058v8.058h-4.048v-14.68ZM76.62 19.399h5.665c5.262 0 8.279 3.017 8.279 7.248v.037c0 4.23-3.09 7.395-8.389 7.395h-5.592v-14.68h.037Zm5.74 11.074c2.427 0 4.046-1.361 4.046-3.716v-.037c0-2.354-1.619-3.716-4.047-3.716h-1.656v7.47h1.656ZM92.918 19.399h4.084v14.68h-4.084v-14.68ZM20.806 19.141c-4.12 0-6.806 2.06-6.806 6.733v8.205h4.084v-3.937h5.372v3.937h4.083V25.8c0-4.562-2.612-6.659-6.733-6.659Zm-2.722 7.8v-1.177c0-2.024 1.067-2.98 2.686-2.98s2.686.993 2.686 3.09v1.067h-5.372ZM107.267 19.141c-4.121 0-6.806 2.06-6.806 6.733v8.205h4.084v-3.937h5.371v3.937H114V25.8c-.037-4.562-2.612-6.659-6.733-6.659Zm-2.722 7.8v-1.177c0-2.024 1.067-2.98 2.685-2.98 1.619 0 2.686.993 2.686 3.09v1.067h-5.371Z"/></svg>