<svg xmlns="http://www.w3.org/2000/svg" xmlns:xlink="http://www.w3.org/1999/xlink" viewBox="0 0 323.13 120.41"><defs><style>.a{fill:none;}.b{fill:url(#a);}.c{fill:url(#b);}.d{fill:#575756;}</style><linearGradient id="a" x1="-1035.88" y1="151.81" x2="-1034.52" y2="151.81" gradientTransform="translate(91008.78 -85720.22) rotate(-35) scale(119.43)" gradientUnits="userSpaceOnUse"><stop offset="0" stop-color="#a21007"/><stop offset="0.24" stop-color="#b90d11"/><stop offset="0.56" stop-color="#d0091b"/><stop offset="0.75" stop-color="#d9081f"/><stop offset="1" stop-color="#d9081f"/></linearGradient><linearGradient id="b" x1="-1029.74" y1="173.32" x2="-1028.38" y2="173.32" gradientTransform="translate(29813.68 -29209.79) rotate(-35) scale(39.95)" xlink:href="#a"/></defs><rect class="a" width="323.13" height="120.41"/><path class="b" d="M205,5.22h0L172.46,15c-12.67,27.63-42.21,55.81-65.9,63s-32.8-9.39-20-37L73.89,44.82C68,57.62,65,68.92,65,78.18V79c.14,20.42,14.43,30,39.35,22.33C140.73,90.43,185.78,47.28,205,5.22Z"/><path class="c" d="M136.1,26.06l0,0L92.27,39.24c-6.53,14.16-1.91,22.6,10.21,18.92S129.69,40.07,136.1,26.06Z"/><path class="d" d="M191.79,103.77a19,19,0,0,1-3.27-.41v7.76h-5.58V85.66a23.41,23.41,0,0,1,8.17-1.36c7.21,0,11,3.68,11,9.8,0,5.72-3.54,9.67-10.34,9.67M191.11,88a6.26,6.26,0,0,0-2.59.41V99.82a10,10,0,0,0,2.59.41c3.54,0,5.31-2.45,5.31-6.13S194.65,88,191.11,88m24,16.06c-6.4,0-10.08-4.22-10.08-9.94s3.54-9.8,10.08-9.8,10.07,4.22,10.07,9.8S221.47,104,215.07,104m0-16.06c-3,0-4.5,2.31-4.5,6.12s1.5,6,4.5,6,4.49-2.17,4.49-6S218.06,88,215.07,88M234.4,104a20.7,20.7,0,0,1-7.22-1.36L229,99a14.35,14.35,0,0,0,5.18,1.23c2,0,3.4-.82,3.4-2s-1.5-2-3.4-2.59c-2.86-.82-6.4-2-6.4-5.72,0-3.26,3-5.58,8.17-5.58a15.48,15.48,0,0,1,6.8,1.36l-1.77,3.27a10.85,10.85,0,0,0-4.35-1.09c-1.91,0-3.13.82-3.13,1.91,0,1.49,1.49,2,3.4,2.58,2.86,1,6.53,1.91,6.53,5.72s-3.13,6-9,6m20.28-.13c-4.35,0-6.26-2-6.26-6V88.25h-2.86V84.71h2.86V80.49L254,79.13v5.58h4.22v3.54H254v9.26c0,1.49,1.09,2,2.59,2a6.1,6.1,0,0,0,1.63-.27v3.94a8.56,8.56,0,0,1-3.54.69M179.4,94.1c0,6.13-4,9.81-11,9.81a23.46,23.46,0,0,1-8.17-1.37V77h5.58v7.76a10.45,10.45,0,0,1,3.14-.41c6.8,0,10.48,4,10.48,9.8m-5.72,0c0-3.54-1.77-6.12-5.31-6.12a6.3,6.3,0,0,0-2.59.41V99.82a7,7,0,0,0,2.59.41c3.4-.14,5.31-2.31,5.31-6.13"/></svg>