<svg xmlns="http://www.w3.org/2000/svg" xmlns:xlink="http://www.w3.org/1999/xlink" viewBox="0 0 320 120"><defs><style>.a{fill:none;}.b{fill:url(#a);}.c{fill:url(#b);}.d{fill:#575756;}</style><linearGradient id="a" x1="-1037.44" y1="151.61" x2="-1036.08" y2="151.61" gradientTransform="translate(91174.32 -85807.54) rotate(-35) scale(119.43)" gradientUnits="userSpaceOnUse"><stop offset="0" stop-color="#a21007"/><stop offset="0.24" stop-color="#b90d11"/><stop offset="0.56" stop-color="#d0091b"/><stop offset="0.75" stop-color="#d9081f"/><stop offset="1" stop-color="#d9081f"/></linearGradient><linearGradient id="b" x1="-1031.3" y1="173.11" x2="-1029.94" y2="173.11" gradientTransform="translate(29868 -29239.13) rotate(-35) scale(39.95)" xlink:href="#a"/></defs><rect class="a" width="320" height="120"/><path class="b" d="M203.42,5V5l-32.52,9.8c-12.66,27.64-42.2,55.82-65.89,63s-32.81-9.39-20-37L72.33,44.62C66.47,57.41,63.48,68.71,63.48,78v.82c.13,20.42,14.43,29.95,39.34,22.32C139.17,90.22,184.22,47.08,203.42,5Z"/><path class="c" d="M134.53,25.85h0L90.71,39C84.17,53.19,88.8,61.63,100.92,58S128.13,39.87,134.53,25.85Z"/><path class="d" d="M190.22,103.56a20,20,0,0,1-3.26-.4v7.76h-5.59V85.46a23.5,23.5,0,0,1,8.17-1.36c7.22,0,11,3.67,11,9.8,0,5.72-3.54,9.66-10.35,9.66m-.68-15.79a6.38,6.38,0,0,0-2.58.41V99.62a10.48,10.48,0,0,0,2.58.4c3.54,0,5.31-2.45,5.31-6.12s-1.77-6.13-5.31-6.13m24,16.07c-6.4,0-10.07-4.22-10.07-9.94s3.54-9.8,10.07-9.8,10.08,4.22,10.08,9.8-3.68,9.94-10.08,9.94m0-16.07c-3,0-4.49,2.32-4.49,6.13s1.5,6,4.49,6,4.5-2.18,4.5-6-1.5-6.13-4.5-6.13m19.33,16.07a20.59,20.59,0,0,1-7.21-1.36l1.77-3.68a14.56,14.56,0,0,0,5.17,1.22c2,0,3.41-.81,3.41-2s-1.5-2-3.41-2.58c-2.86-.82-6.4-2.05-6.4-5.72,0-3.27,3-5.58,8.17-5.58a15.42,15.42,0,0,1,6.81,1.36l-1.77,3.27A10.73,10.73,0,0,0,235,87.64c-1.9,0-3.13.81-3.13,1.9,0,1.5,1.5,2,3.4,2.59,2.86,1,6.54,1.9,6.54,5.72s-3.13,6-9,6m20.29-.14c-4.36,0-6.26-2-6.26-6V88H244V84.5h2.86V80.28l5.58-1.36V84.5h4.22V88h-4.22V97.3c0,1.5,1.09,2,2.58,2a5.74,5.74,0,0,0,1.64-.27v4a8.61,8.61,0,0,1-3.54.68m-75.29-9.8c0,6.12-3.94,9.8-11,9.8a23.41,23.41,0,0,1-8.17-1.36V76.75h5.58V84.5a10.36,10.36,0,0,1,3.13-.4c6.81,0,10.48,3.94,10.48,9.8m-5.71,0c0-3.54-1.77-6.13-5.31-6.13a6.43,6.43,0,0,0-2.59.41V99.62a6.9,6.9,0,0,0,2.59.4c3.4-.13,5.31-2.31,5.31-6.12"/></svg>