<svg xmlns="http://www.w3.org/2000/svg" width="128" height="64" fill="none"><rect width="128" height="64" fill="#fff" rx="6"/><path fill="#7BC144" fill-rule="evenodd" d="M81.163 28.785h3.604v-3.56h-3.604v3.56Zm0 16.747h3.604V30.18h-3.604v15.352Zm28.34-3.212c-2.679 0-3.222-.977-3.222-4.567 0-3.591.543-4.694 3.222-4.694 3.095 0 3.925.852 3.925 4.694s-.83 4.567-3.925 4.567Zm4.243-12.14v1.21c-1.211-1.07-3.189-1.48-4.848-1.48-5.36 0-6.22 3.181-6.22 7.843 0 3.685.351 7.78 6.252 7.78 1.499 0 3.349-.348 4.465-1.356 0 .788.033 1.897-.062 2.684-.193 1.448-1.692 2.078-3.765 2.078-2.01 0-2.646-.56-2.646-1.662h-3.925c0 3.906 3.54 4.686 6.666 4.686 2.872 0 6.636-.755 7.21-4.41.127-.85.127-2.241.127-3.659V30.18h-3.254Zm-19.016-.27c-2.2 0-3.604.693-4.498 1.48v-1.21h-3.126v15.352h3.604v-7.15c0-2.676-.286-5.323 3.605-5.323 3.127 0 2.84 1.418 2.84 4.379v8.094h3.605v-8.378c0-3.338.255-7.244-6.03-7.244Zm-20.335 0c-1.82 0-3.255.567-4.276 1.639v-1.37h-3.125v15.353h3.604v-6.677c0-1.197-.064-2.897.352-4 .382-1.039 1.307-1.826 2.806-1.826 1.5 0 2.095.314 2.095 1.732h3.583c0-3.37-1.69-4.851-5.04-4.851ZM58.268 42.572c-3.095 0-3.988-.85-3.988-4.693 0-3.844.893-4.693 3.988-4.693 2.68 0 3.253 1.102 3.253 4.693 0 3.59-.574 4.693-3.253 4.693Zm.797-12.662c-1.69 0-3.541.19-4.721 1.387v-6.082h-3.605v20.317h3.253v-1.228c.957.85 2.426 1.48 4.499 1.48 6.22 0 6.634-4.157 6.634-7.905 0-4.662-.733-7.969-6.06-7.969Z" clip-rule="evenodd"/><path fill="#C1C1C1" fill-rule="evenodd" d="M21.23 38.205c-4.64 0-8.443-3.534-8.803-8.025H11c.371 9.311 8.13 16.748 17.652 16.748 6.255 0 11.75-3.21 14.888-8.052a17.205 17.205 0 0 0 2.764-8.696h-16.27c-.36 4.49-4.162 8.025-8.803 8.025Z" clip-rule="evenodd"/><path fill="#7BC144" fill-rule="evenodd" d="M12.427 28.784c.36-4.49 4.162-8.025 8.804-8.025 4.64 0 8.443 3.534 8.803 8.025h16.27c-.372-9.311-8.131-16.747-17.652-16.747-9.522 0-17.28 7.436-17.652 16.747h1.427Z" clip-rule="evenodd"/></svg>