<svg xmlns="http://www.w3.org/2000/svg" width="128" height="64" fill="none"><rect width="128" height="64" fill="#fff" rx="6"/><path fill="#414042" fill-rule="evenodd" d="M104.122 39.045c-1.786 0-2.712-.89-2.712-2.599v-6.028h5.42V27h-5.42v-5.687h-4.157V36.72c0 4.547 2.576 6.018 6.561 6.018.994 0 2.093-.098 3.193-.273v-3.824c-.857.273-1.888.403-2.885.403M74.872 39.092c-.514 0-1.305-.036-1.99-.17v-8.138c.652-.307 1.51-.48 2.54-.48 2.506 0 4.188 1.54 4.188 4.24 0 2.906-1.82 4.548-4.738 4.548Zm.893-12.409c-1.064 0-2.198.134-2.885.478v-7.045h-4.119v21.778c1.82.48 4.19.717 6.25.717 5.286 0 8.79-2.802 8.79-7.93 0-4.854-3.263-7.997-8.036-7.997Zm16.33-.115c-4.036 0-6.647 1.49-6.647 6.098v9.7h4.21V32.94c0-1.732.94-2.631 2.749-2.631 1.01 0 2.053.133 2.924.41v-3.875a20.859 20.859 0 0 0-3.237-.277Z" clip-rule="evenodd"/><path fill="url(#a)" d="M46.033 29.744a.636.636 0 0 1-.601-.011l-.976-.58a.638.638 0 0 1-.207-.222l-.01-.017a.646.646 0 0 1-.1-.307l-.026-1.137a.635.635 0 0 1 .29-.524l11.723-6.83-16.451-8.966c-.181-.101-.42-.15-.66-.15-.239 0-.478.05-.66.15l-16.45 8.966 18.429 10.729c.17.093.3.315.3.515v15.651c0 .197-.14.423-.312.515l-.992.55a.642.642 0 0 1-.297.068h-.019a.643.643 0 0 1-.316-.068l-.995-.55a.635.635 0 0 1-.307-.515V33.06a.392.392 0 0 0-.166-.274l-16.237-9.452v18.514c0 .414.292.925.65 1.134l16.723 9.863c.178.105.414.157.65.156.235 0 .47-.05.649-.156l16.725-9.863c.356-.211.648-.72.647-1.134V23.333l-11.004 6.411Z"/><defs><linearGradient id="a" x1="21.166" x2="39.415" y1="46.642" y2="31.33" gradientUnits="userSpaceOnUse"><stop stop-color="#A90034"/><stop offset=".272" stop-color="#B03"/><stop offset=".723" stop-color="#D30032"/><stop offset="1" stop-color="#DC0032"/></linearGradient></defs></svg>