<svg xmlns="http://www.w3.org/2000/svg" viewBox="0 0 323.13 120.41"><defs><style>.a{fill:none;}.b{fill:#ffcd33;fill-rule:evenodd;}.c{fill:#1f357a;}</style></defs><rect class="a" width="323.13" height="120.41"/><path class="b" d="M8,42a1.44,1.44,0,0,0-1.44,1.43A40.12,40.12,0,0,0,44,81.94c.9.06,1.8,0,2.71,0a41.23,41.23,0,0,0,8.66-1.11A19.57,19.57,0,0,0,70.79,61.66a17.43,17.43,0,0,0-.1-1.93A18.67,18.67,0,0,0,70,56.29a19.77,19.77,0,0,0-38,0A19.68,19.68,0,0,0,43.17,69a10.62,10.62,0,0,1-2.89-7.3A10.78,10.78,0,1,1,51.05,72.38,21.56,21.56,0,0,1,31.4,59.73a21.27,21.27,0,0,1-1.22-3.44,21.63,21.63,0,0,1,.62-12.7l.12-.31a1.5,1.5,0,0,0,0-.22A1.07,1.07,0,0,0,29.87,42H8"/><path class="b" d="M80.53,43.07A30.35,30.35,0,0,1,71,73.93a36.27,36.27,0,0,1-5.7,3.85c4.9-4.6,7.29-10,7.29-16.12a21.53,21.53,0,0,0-.67-5.37,21.65,21.65,0,0,0-.68-12.87,1,1,0,0,1-.06-.36A1.07,1.07,0,0,1,72.25,42h6.89a1.48,1.48,0,0,1,1.39,1.08"/><path class="c" d="M93.24,63.61c0,9.3,5.49,14.54,14.1,14.54a15.65,15.65,0,0,0,9.5-2.78V70.16h-2.79a8.19,8.19,0,0,1-6.22,2.5c-4.31,0-6.56-2.78-6.56-9.34,0-6.06,2.58-9,6.93-9a7.62,7.62,0,0,1,5.36,1.89h3V50.79a16,16,0,0,0-8.6-2c-8.85,0-14.75,5.49-14.75,14.87m19.87-20-3.77,4.1h-5l-3.61-4.1V42h4l2.3,1.56L109.3,42h3.81v1.56"/><path class="c" d="M125.52,68.61c.37,3.64,2.08,4.58,5.07,4.58a9.31,9.31,0,0,0,5.49-1.59h2.3V76a16.8,16.8,0,0,1-8.93,2.13c-7.5,0-11.39-4.18-11.39-11s4.51-11.26,11-11.26c6.72,0,10.16,3.56,10.16,10.85,0,.86-.08,1.64-.08,1.89Zm0-3.85h6.71c-.12-3.32-1.22-4.38-3.19-4.38-1.68,0-3.11.85-3.52,4.38"/><path class="c" d="M141.11,76.35V71.52h2.5a7.77,7.77,0,0,0,5,1.59c2,0,3.2-.45,3.2-1.55s-.74-1.52-3.73-1.93c-4.58-.57-7.17-2.17-7.17-6.68,0-4.71,3.69-7,9.1-7a15.9,15.9,0,0,1,7.29,1.43V62.1H155a8.56,8.56,0,0,0-4.76-1.31c-2,0-2.82.52-2.82,1.55s.94,1.35,3.68,1.68c5,.61,7.46,2.13,7.46,6.72s-3,7.33-9.63,7.33a15.93,15.93,0,0,1-7.78-1.72"/><path class="c" d="M167.87,64.22l6.72-8h6.14V58l-5.94,6.75L181.55,76v1.77h-6.92l-5-8.41-1.76,1.93v6.48H160.5V49.11h4.67c2.25,0,2.7.57,2.7,3.85V64.22"/><path class="c" d="M195.11,75.73c-1.52,1.69-3.53,2.34-6.19,2.34-3.81,0-6.84-2.17-6.84-6.43,0-4.55,3.48-6.72,8.48-6.72a19.91,19.91,0,0,1,4.14.41V63.86c0-1.88-1-2.75-3.65-2.75a9.25,9.25,0,0,0-5.12,1.43h-2.21V57.59a22,22,0,0,1,8.77-1.72c6.43,0,9.58,2.13,9.58,7.45V77.78h-4c-1.72,0-2.54-.61-2.95-2m-.41-7a15.59,15.59,0,0,0-2.42-.2c-2,0-3.19.77-3.19,2.58a2.42,2.42,0,0,0,2.74,2.62,4.51,4.51,0,0,0,2.87-1.19Zm-4.38-14V53.45L191.67,49h7.08v1.77l-4.13,4h-4.3"/><path class="c" d="M222.17,76.06v8.36h-7.38V56.19h5.13c1.1,0,1.76.42,2.05,2.34a9.23,9.23,0,0,1,6.63-2.66c4.09,0,8.15,2.66,8.15,10.53,0,8.23-4.5,11.18-9.3,11.18a8.3,8.3,0,0,1-5.28-1.52m0-14V72a5,5,0,0,0,3,.86c2.25,0,4.14-1,4.14-5.78s-1.81-5.69-4-5.69a8.89,8.89,0,0,0-3.11.69"/><path class="c" d="M238.38,67.09c0-6.92,5-11.22,11.52-11.22s11.46,4.3,11.46,11.22-5,11-11.46,11-11.52-4.14-11.52-11m15.53.08c0-4.3-1.64-6.26-4-6.26s-4.06,2-4.06,6.26,1.64,6.11,4.06,6.11,4-1.85,4-6.11"/><path class="c" d="M262.91,76.35V71.52h2.5a7.8,7.8,0,0,0,5,1.59c2,0,3.19-.45,3.19-1.55s-.73-1.52-3.72-1.93c-4.59-.57-7.17-2.17-7.17-6.68,0-4.71,3.69-7,9.09-7a15.84,15.84,0,0,1,7.29,1.43V62.1h-2.33A8.52,8.52,0,0,0,272,60.79c-2.06,0-2.83.52-2.83,1.55s.94,1.35,3.69,1.68c5,.61,7.45,2.13,7.45,6.72s-3,7.33-9.62,7.33a16,16,0,0,1-7.79-1.72m14.92-25.81-3.77,4.26h-5l-3.6-4.26V49h4l2.29,1.73L274,49h3.82v1.56"/><path class="c" d="M281.3,56.19h2.33V50.71H291v5.48h4V61h-4v9.83c0,1.93.73,2.54,2.66,2.54h1.43v4.26a14.73,14.73,0,0,1-4.22.57c-4.42,0-7.25-1.55-7.25-6.26V61H281.3V56.19"/><path class="c" d="M309.6,75.73c-1.52,1.69-3.52,2.34-6.19,2.34-3.8,0-6.84-2.17-6.84-6.43,0-4.55,3.49-6.72,8.48-6.72a19.91,19.91,0,0,1,4.14.41V63.86c0-1.88-1-2.75-3.65-2.75a9.25,9.25,0,0,0-5.12,1.43h-2.21V57.59A22,22,0,0,1,307,55.87c6.43,0,9.58,2.13,9.58,7.45V77.78h-4c-1.72,0-2.54-.61-2.95-2m-.41-3.15V68.77a15.49,15.49,0,0,0-2.42-.2c-2,0-3.19.77-3.19,2.58a2.43,2.43,0,0,0,2.74,2.62,4.51,4.51,0,0,0,2.87-1.19"/></svg>