<svg xmlns="http://www.w3.org/2000/svg" width="128" height="64" fill="none"><rect width="128" height="64" fill="#fff" rx="6"/><path fill="url(#a)" d="M20.737 30.685h-.315l-.551-.32a.154.154 0 0 1-.158-.159v-.877c0-.16 0-.16.158-.32l6.62-4.145-9.616-5.342h-.63L6.55 24.865l10.876 6.378c.157 0 .157.16.157.32v9.248c0 .16 0 .16-.157.319l-.552.319h-.315l-.551-.32c-.158 0-.158-.158-.158-.318v-8.213a.156.156 0 0 0-.158-.16L6 26.779v11.003c.037.264.146.513.315.718l9.772 5.82c.158 0 .158.159.316.159.157 0 .315 0 .315-.16l9.772-5.82a.878.878 0 0 0 .315-.718V26.778l-6.068 3.907Z"/><path fill="#3C3C3B" d="M90.64 41.21h-2.518V28.85a12.098 12.098 0 0 1 3.936-.877c3.016 0 5.122 1.901 5.122 4.624 0 3.091-1.867 4.864-5.122 4.864V35.47a2.382 2.382 0 0 0 1.854-.762c.47-.599.708-1.348.668-2.109a2.33 2.33 0 0 0-2.522-2.551 2.01 2.01 0 0 0-1.418.319v10.843Zm-52.092-3.19a4.626 4.626 0 0 1-4.808-4.863 4.627 4.627 0 0 1 4.808-4.864 3.84 3.84 0 0 1 2.522.558v2.391a3.254 3.254 0 0 0-2.286-.876 2.33 2.33 0 0 0-2.521 2.551 2.333 2.333 0 0 0 2.521 2.552 6.998 6.998 0 0 0 1.38-.183h.013a4.87 4.87 0 0 1 .893-.133v2.313l-.23.07-.052.017-.075.023a7.351 7.351 0 0 1-2.165.444Zm81.485-.24c-2.615 0-3.94-1.26-3.94-3.747v-9.17h2.521v3.43h3.153v1.994h-3.153v3.746c0 .899.649 1.436 1.731 1.436a2.814 2.814 0 0 0 1.655-.32v2.313a5.012 5.012 0 0 1-1.967.318Zm-8.748 0a5.589 5.589 0 0 1-2.71-.797h.187v-2.312a4.303 4.303 0 0 0 2.837 1.117.994.994 0 0 0 1.104-.878c0-.34-.385-.577-1.418-.877-2.016-.326-2.837-1.158-2.837-2.87a2.614 2.614 0 0 1 .955-2.187 3.942 3.942 0 0 1 2.433-.687 4.316 4.316 0 0 1 2.522.559v2.315a4.401 4.401 0 0 0-2.522-.877c-.742 0-1.103.287-1.103.877 0 .292.182.54 1.103.877a4.455 4.455 0 0 1 2.433.897 2.479 2.479 0 0 1 .719 1.973c.004 2.117-1.91 2.87-3.703 2.87Zm-8.512-.079a4.626 4.626 0 0 1-4.807-4.863 4.808 4.808 0 0 1 9.615 0 4.631 4.631 0 0 1-1.329 3.492 4.627 4.627 0 0 1-3.476 1.371h-.003Zm0-7.415c-1.495 0-2.285.883-2.285 2.552a2.32 2.32 0 0 0 1.352 2.344c.294.133.611.204.933.207 1.496 0 2.286-.882 2.286-2.551.002-1.622-.83-2.552-2.283-2.552h-.003Zm-20.33 7.415a4.627 4.627 0 0 1-4.806-4.863 4.808 4.808 0 1 1 9.614 0 4.627 4.627 0 0 1-4.808 4.863Zm0-7.415c-1.494 0-2.284.883-2.284 2.552a2.322 2.322 0 0 0 2.284 2.551c1.496 0 2.285-.882 2.285-2.551a2.369 2.369 0 0 0-2.285-2.552Zm-19.859 7.415a4.626 4.626 0 0 1-4.808-4.863 4.627 4.627 0 0 1 4.808-4.864 4.627 4.627 0 0 1 4.808 4.864 4.627 4.627 0 0 1-4.808 4.863Zm0-7.415c-1.495 0-2.285.883-2.285 2.552a2.323 2.323 0 0 0 2.285 2.551c1.495 0 2.285-.882 2.285-2.551 0-1.622-.832-2.552-2.285-2.552Zm8.197 7.177h-2.208v-8.612a10.446 10.446 0 0 1 4.259-.877 4.302 4.302 0 0 1 2.916.798 3.686 3.686 0 0 1 1.024 2.95v5.74H74.25v-5.74c0-.899-.647-1.436-1.73-1.436a3.22 3.22 0 0 0-1.732.319v6.857l-.007.001Zm-16.156 0h-2.523v-5.74a3.628 3.628 0 0 1 1.113-2.95 4.304 4.304 0 0 1 2.825-.798c.29.011.58.058.859.14.387.11.787.172 1.19.182v2.308a3.53 3.53 0 0 0-1.731-.319c-1.265 0-1.732.39-1.732 1.436v5.74l-.001.001Zm-6.144 0v-5.74c0-.899-.648-1.436-1.731-1.436a3.22 3.22 0 0 0-1.731.318v6.858h-2.53V23.987h2.836v4.306c.296-.015.59-.058.878-.13h.024a6.998 6.998 0 0 1 1.38-.182 3.419 3.419 0 0 1 3.39 3.748v5.74l-2.516-.006Z"/><defs><linearGradient id="a" x1="5.917" x2="27.097" y1="32.025" y2="32.025" gradientUnits="userSpaceOnUse"><stop stop-color="#006CAF"/><stop offset=".332" stop-color="#0081C5"/><stop offset=".733" stop-color="#0095DA"/><stop offset="1" stop-color="#009CE1"/></linearGradient></defs></svg>