<svg xmlns="http://www.w3.org/2000/svg" xmlns:xlink="http://www.w3.org/1999/xlink" viewBox="0 0 320 120"><defs><style>.a{fill:none;}.b{fill:url(#a);}.c{fill:#3c3c3b;}</style><linearGradient id="a" x1="266.79" y1="315.83" x2="332.23" y2="275.21" gradientTransform="translate(-261 -235.91)" gradientUnits="userSpaceOnUse"><stop offset="0" stop-color="#ec6608"/><stop offset="0.17" stop-color="#ed6c07"/><stop offset="0.39" stop-color="#ef7a07"/><stop offset="0.64" stop-color="#f39107"/><stop offset="0.9" stop-color="#f9af06"/><stop offset="1" stop-color="#fbba07"/></linearGradient></defs><rect class="a" width="320" height="120"/><path class="b" d="M52.25,55.74a1.21,1.21,0,0,1-1.14,0l-1.84-1.09a1.13,1.13,0,0,1-.39-.42h0a1.08,1.08,0,0,1-.19-.58V51.51a1.19,1.19,0,0,1,.54-1L71.28,37.58l-31-16.92A2.6,2.6,0,0,0,39,20.38a2.72,2.72,0,0,0-1.25.28l-31,16.91L41.5,57.82a1.23,1.23,0,0,1,.57,1V88.33a1.19,1.19,0,0,1-.59,1l-1.87,1a1.21,1.21,0,0,1-.56.13h0a1.12,1.12,0,0,1-.6-.13l-1.88-1a1.2,1.2,0,0,1-.58-1V62a.74.74,0,0,0-.31-.51L5,43.65V78.58a2.71,2.71,0,0,0,1.23,2.14L37.78,99.33a2.31,2.31,0,0,0,1.23.29,2.44,2.44,0,0,0,1.22-.29L71.79,80.72A2.78,2.78,0,0,0,73,78.58V43.65Z"/><path class="c" d="M117.39,52.23a14.65,14.65,0,0,0-8.11-2.11c-8.69,0-15,5.94-15,14.95s5.89,14.83,15.08,14.83a15.72,15.72,0,0,0,8.31-2.11V70.57a11.55,11.55,0,0,1-7.22,2.56c-5.17,0-8.44-3.33-8.44-8.18,0-5.11,3.39-8.05,8.12-8.05a10.84,10.84,0,0,1,7.28,2.62V52.23Z"/><path class="c" d="M164.35,72.72h0c-2.8-.23-4.25-1.86-4.25-4.77V37.81h-7.65V68.45c0,8.35,4.68,11.08,11.93,11.12V72.72Z"/><path class="c" d="M134.54,50.12c-8.51,0-14.9,6-14.9,14.88s6.39,14.9,14.9,14.9,15-6,15-14.9S143,50.12,134.54,50.12Zm0,23.14c-4.16,0-7.16-3.14-7.16-8.25s3-8.24,7.16-8.24,7.16,3.14,7.16,8.24S138.69,73.26,134.54,73.26Z"/><path class="c" d="M180.33,77.28a18,18,0,0,0,9.26,2.3c6.64,0,11.31-2.81,11.31-9,0-5.11-2.49-7.92-9.84-9.27-2.69-.64-3.71-1.4-3.71-2.87S188.44,56,191,56a14,14,0,0,1,8.11,2.76V51.91a15.93,15.93,0,0,0-8.37-2.11c-6.13,0-10.86,2.87-10.86,9.14,0,5.18,2.68,7.73,9.13,8.89,3.13.64,4.35,1.34,4.35,3.07s-1.6,2.49-4,2.49a16.52,16.52,0,0,1-9.07-3.19v7.08Z"/><polygon class="c" points="167.89 79.26 175.58 79.26 175.58 76.81 175.58 50.69 167.89 50.69 167.89 79.26"/><path class="c" d="M171.74,39.3a3.85,3.85,0,1,0,3.84,3.86v0a3.84,3.84,0,0,0-3.84-3.84"/><path class="c" d="M300.05,50.12c-8.5,0-14.89,6-14.89,14.88s6.39,14.9,14.89,14.9S315,73.89,315,65,308.54,50.12,300.05,50.12Zm0,23.14c-4.15,0-7.16-3.14-7.16-8.25s3-8.24,7.16-8.24,7.16,3.14,7.16,8.24S304.2,73.26,300.05,73.26Z"/><path class="c" d="M203.47,77.28a18,18,0,0,0,9.26,2.3c6.66,0,11.31-2.81,11.31-9,0-5.11-2.48-7.92-9.84-9.27-2.68-.64-3.7-1.4-3.7-2.87S211.58,56,214.15,56a14.05,14.05,0,0,1,8.11,2.76V51.91a16,16,0,0,0-8.38-2.11c-6.12,0-10.86,2.87-10.86,9.14,0,5.18,2.69,7.73,9.13,8.89,3.14.64,4.35,1.34,4.35,3.07s-1.6,2.49-3.95,2.49a16.52,16.52,0,0,1-9.08-3.19Z"/><polygon class="c" points="227.34 79.26 235.03 79.26 235.03 76.81 235.03 50.69 227.34 50.69 227.34 79.26"/><path class="c" d="M231.18,39.3A3.85,3.85,0,1,0,235,43.18v0a3.84,3.84,0,0,0-3.84-3.84h0"/><path class="c" d="M274.28,61.44c0-3-1.33-4.54-4.34-4.54a12.87,12.87,0,0,0-5.36,1.1,7.77,7.77,0,0,1,.57,2.94V79.25h-7.72V61.44c0-3-1.41-4.54-4.35-4.54a16.19,16.19,0,0,0-4.79.7V79.25h-7.66V52.64a36.91,36.91,0,0,1,12.84-2.49,12.71,12.71,0,0,1,7.86,2.23A22,22,0,0,1,271,50.15c6.78,0,11,2.62,11,11V79.26h-7.73V61.44Z"/></svg>