<svg xmlns="http://www.w3.org/2000/svg" width="128" height="64" fill="none"><rect width="128" height="64" fill="#fff" rx="6"/><path fill="url(#a)" d="M23.68 30.406a.452.452 0 0 1-.426 0l-.688-.408a.422.422 0 0 1-.146-.157.405.405 0 0 1-.072-.217v-.801a.445.445 0 0 1 .203-.374l8.25-4.839-11.6-6.33a.974.974 0 0 0-.478-.106 1.018 1.018 0 0 0-.468.105l-11.6 6.328 13.003 7.577a.461.461 0 0 1 .213.374v11.043a.445.445 0 0 1-.22.374l-.7.374a.452.452 0 0 1-.21.049.42.42 0 0 1-.224-.049l-.704-.374a.45.45 0 0 1-.217-.374v-9.853a.28.28 0 0 0-.116-.19L6 25.881v13.07a1.014 1.014 0 0 0 .46.801l11.806 6.964c.14.078.3.116.46.108a.911.911 0 0 0 .457-.108l11.81-6.964a1.04 1.04 0 0 0 .452-.8V25.881l-7.764 4.524Z"/><path fill="#3C3C3B" d="M48.056 29.092a5.483 5.483 0 0 0-3.035-.79c-3.252 0-5.613 2.224-5.613 5.595 0 3.372 2.204 5.55 5.643 5.55a5.881 5.881 0 0 0 3.11-.79v-2.702a4.322 4.322 0 0 1-2.702.958c-1.935 0-3.159-1.246-3.159-3.06 0-1.913 1.269-3.013 3.039-3.013.998-.02 1.968.33 2.724.98v-2.728h-.007ZM65.628 36.76c-1.048-.086-1.59-.696-1.59-1.785V23.696h-2.863v11.466c0 3.124 1.751 4.146 4.464 4.16V36.76h-.011ZM54.473 28.303c-3.184 0-5.575 2.245-5.575 5.568 0 3.323 2.39 5.575 5.575 5.575 3.184 0 5.613-2.245 5.613-5.575s-2.447-5.568-5.613-5.568Zm0 8.659c-1.557 0-2.68-1.175-2.68-3.087 0-1.913 1.123-3.084 2.68-3.084 1.557 0 2.68 1.175 2.68 3.084 0 1.908-1.127 3.087-2.68 3.087ZM71.607 38.466a6.735 6.735 0 0 0 3.465.86c2.485 0 4.233-1.05 4.233-3.367 0-1.912-.932-2.964-3.683-3.469-1.006-.24-1.388-.524-1.388-1.074s.408-.913 1.366-.913a5.24 5.24 0 0 1 3.035 1.033v-2.563a5.962 5.962 0 0 0-3.132-.79c-2.294 0-4.064 1.074-4.064 3.42 0 1.939 1.003 2.893 3.416 3.327 1.172.24 1.628.501 1.628 1.149 0 .647-.599.931-1.497.931a6.181 6.181 0 0 1-3.394-1.193v2.649h.015ZM66.952 39.207h2.878V28.516h-2.878v10.69ZM68.393 24.254a1.44 1.44 0 1 0 1.328.895 1.436 1.436 0 0 0-1.328-.887M116.406 28.303c-3.181 0-5.572 2.245-5.572 5.568 0 3.323 2.391 5.575 5.572 5.575 3.18 0 5.594-2.249 5.594-5.575 0-3.327-2.417-5.568-5.594-5.568Zm0 8.659c-1.553 0-2.679-1.175-2.679-3.087 0-1.913 1.122-3.084 2.679-3.084 1.556 0 2.679 1.175 2.679 3.084 0 1.908-1.126 3.087-2.679 3.087ZM80.266 38.466a6.735 6.735 0 0 0 3.465.86c2.492 0 4.232-1.05 4.232-3.367 0-1.912-.928-2.964-3.682-3.469-1.003-.24-1.384-.524-1.384-1.074s.404-.913 1.366-.913a5.257 5.257 0 0 1 3.034 1.033v-2.563a5.988 5.988 0 0 0-3.135-.79c-2.29 0-4.064 1.074-4.064 3.42 0 1.939 1.007 2.893 3.416 3.327 1.175.24 1.628.501 1.628 1.149 0 .647-.599.931-1.478.931a6.182 6.182 0 0 1-3.398-1.193v2.649ZM89.198 39.207h2.878V28.516h-2.878v10.69ZM90.635 24.254a1.442 1.442 0 1 0 1.43 1.452 1.437 1.437 0 0 0-1.437-1.437M106.763 32.539c0-1.123-.498-1.7-1.624-1.7a4.816 4.816 0 0 0-2.006.413c.142.349.214.723.213 1.1v6.851h-2.888V32.54c0-1.123-.528-1.7-1.628-1.7a6.056 6.056 0 0 0-1.793.263v8.101h-2.866v-9.957a13.81 13.81 0 0 1 4.805-.932 4.757 4.757 0 0 1 2.941.835 8.23 8.23 0 0 1 3.618-.835c2.537 0 4.117.98 4.117 4.116v6.777h-2.893v-6.668h.004Z"/><defs><linearGradient id="a" x1="6.296" x2="30.783" y1="39.454" y2="24.254" gradientUnits="userSpaceOnUse"><stop stop-color="#EC6608"/><stop offset=".17" stop-color="#ED6C07"/><stop offset=".39" stop-color="#EF7A07"/><stop offset=".64" stop-color="#F39107"/><stop offset=".9" stop-color="#F9AF06"/><stop offset="1" stop-color="#FBBA07"/></linearGradient></defs></svg>