<svg xmlns="http://www.w3.org/2000/svg" xmlns:xlink="http://www.w3.org/1999/xlink" viewBox="0 0 323.13 120.41"><defs><style>.a{fill:none;}.b{fill:url(#a);}.c{fill:#3c3c3b;}</style><linearGradient id="a" x1="7.35" y1="41.87" x2="72.8" y2="82.5" gradientTransform="matrix(1, 0, 0, -1, 0, 122)" gradientUnits="userSpaceOnUse"><stop offset="0" stop-color="#ec6608"/><stop offset="0.17" stop-color="#ed6c07"/><stop offset="0.39" stop-color="#ef7a07"/><stop offset="0.64" stop-color="#f39107"/><stop offset="0.9" stop-color="#f9af06"/><stop offset="1" stop-color="#fbba07"/></linearGradient></defs><rect class="a" width="323.13" height="120.41"/><path class="b" d="M53.81,56a1.22,1.22,0,0,1-1.13,0l-1.84-1.1a1.25,1.25,0,0,1-.4-.42l0,0a1.12,1.12,0,0,1-.18-.58l-.05-2.15a1.21,1.21,0,0,1,.54-1L72.85,37.79l-31-16.93a2.8,2.8,0,0,0-1.25-.28,2.7,2.7,0,0,0-1.24.28l-31,16.92L43.06,58a1.21,1.21,0,0,1,.57,1V88.53a1.2,1.2,0,0,1-.59,1l-1.87,1a1.25,1.25,0,0,1-.56.13h0a1.18,1.18,0,0,1-.6-.13l-1.88-1a1.23,1.23,0,0,1-.58-1V62.2a.76.76,0,0,0-.31-.52L6.56,43.85V78.79a2.78,2.78,0,0,0,1.23,2.14L39.35,99.54a2.42,2.42,0,0,0,1.22.29,2.6,2.6,0,0,0,1.23-.29L73.35,80.93a2.75,2.75,0,0,0,1.23-2.14V43.85Z"/><path class="c" d="M119,52.43a14.6,14.6,0,0,0-8.11-2.1c-8.69,0-15,5.94-15,15s5.88,14.82,15.08,14.82a15.92,15.92,0,0,0,8.31-2.1V70.78A11.6,11.6,0,0,1,112,73.33c-5.17,0-8.44-3.32-8.44-8.18,0-5.1,3.39-8,8.13-8A10.83,10.83,0,0,1,119,59.73v-7.3Z"/><path class="c" d="M165.91,72.93h0c-2.8-.24-4.25-1.86-4.25-4.77V38H154V68.65c0,8.36,4.68,11.09,11.93,11.13V72.93Z"/><path class="c" d="M136.1,50.33c-8.5,0-14.89,6-14.89,14.88S127.6,80.1,136.1,80.1s15-6,15-14.89S144.6,50.33,136.1,50.33Zm0,23.13c-4.15,0-7.15-3.13-7.15-8.24S132,57,136.1,57s7.16,3.13,7.16,8.24S140.26,73.46,136.1,73.46Z"/><path class="c" d="M181.89,77.48a18.07,18.07,0,0,0,9.26,2.31c6.64,0,11.31-2.82,11.31-9,0-5.11-2.49-7.93-9.84-9.27-2.68-.64-3.7-1.41-3.7-2.88s1.08-2.42,3.64-2.42A14,14,0,0,1,200.67,59V52.11a16,16,0,0,0-8.38-2.1c-6.12,0-10.86,2.87-10.86,9.14,0,5.17,2.69,7.73,9.13,8.89,3.14.63,4.35,1.33,4.35,3.06s-1.6,2.49-3.95,2.49a16.49,16.49,0,0,1-9.08-3.19v7.08Z"/><polygon class="c" points="169.46 79.47 177.15 79.47 177.15 77.02 177.15 50.9 169.46 50.9 169.46 79.47"/><path class="c" d="M173.3,39.5a3.85,3.85,0,1,0,3.85,3.85,3.84,3.84,0,0,0-3.85-3.85"/><path class="c" d="M301.61,50.33c-8.49,0-14.89,6-14.89,14.88s6.39,14.89,14.89,14.89,14.95-6,14.95-14.89S310.11,50.33,301.61,50.33Zm0,23.13c-4.15,0-7.15-3.13-7.15-8.24s3-8.24,7.15-8.24,7.16,3.13,7.16,8.24S305.77,73.46,301.61,73.46Z"/><path class="c" d="M205,77.48a18.07,18.07,0,0,0,9.26,2.31c6.65,0,11.31-2.82,11.31-9,0-5.11-2.49-7.93-9.84-9.27-2.69-.64-3.71-1.41-3.71-2.88s1.09-2.42,3.65-2.42A14,14,0,0,1,223.82,59V52.11a16,16,0,0,0-8.37-2.1c-6.13,0-10.86,2.87-10.86,9.14,0,5.17,2.68,7.73,9.13,8.89,3.13.63,4.35,1.33,4.35,3.06s-1.6,2.49-4,2.49A16.43,16.43,0,0,1,205,70.4v7.08Z"/><polygon class="c" points="228.9 79.47 236.59 79.47 236.59 77.02 236.59 50.9 228.9 50.9 228.9 79.47"/><path class="c" d="M232.75,39.5a3.85,3.85,0,1,0,3.84,3.85,3.85,3.85,0,0,0-3.84-3.85"/><path class="c" d="M275.85,61.65c0-3-1.34-4.54-4.34-4.54a13,13,0,0,0-5.36,1.08,7.77,7.77,0,0,1,.57,2.94V79.46H259V61.65c0-3-1.4-4.54-4.34-4.54a16,16,0,0,0-4.79.7V79.46H242.2V52.84A36.94,36.94,0,0,1,255,50.35a12.7,12.7,0,0,1,7.86,2.24,22.14,22.14,0,0,1,9.65-2.24c6.77,0,11,2.62,11,11V79.47h-7.73V61.65Z"/></svg>