<svg xmlns="http://www.w3.org/2000/svg" viewBox="0 0 323.13 120.41"><defs><style>.a{fill:none;}.b{fill:#ffcd00;}.c{fill:#193c6b;}</style></defs><rect class="a" width="323.13" height="120.41"/><rect class="b" x="71.56" y="5.21" width="180" height="110" rx="9"/><path class="c" d="M156,82.71a5.62,5.62,0,1,0,5.61-5.63A5.62,5.62,0,0,0,156,82.71m39-16.88A32.55,32.55,0,0,1,162.69,94h-1.13a11.25,11.25,0,1,1,10.52-7.32,26.36,26.36,0,0,0,6.31-3.37s0-.38,0-.56a16.84,16.84,0,1,0-16.84,16.87,39.29,39.29,0,0,0,38.9-33.75Zm-55.83,0H122.67a39.4,39.4,0,0,0,19.87,28.84,22.46,22.46,0,0,1-3.43-12Zm67.36-5.63a44.91,44.91,0,1,1-89.81,0h28.06v7.62A22.44,22.44,0,0,1,183.6,78.36a26.91,26.91,0,0,0,6-16.66V60.2Z"/><path class="c" d="M161.56,42.53h-2.8V32.08a5.63,5.63,0,0,0-2.89,10.45h-7.26a11.3,11.3,0,0,1,.32-10.27,5.37,5.37,0,0,0-1.4-.18,5.63,5.63,0,0,0-2.89,10.45h-7.26a11.27,11.27,0,0,1,10.15-16.08A11.13,11.13,0,0,1,153.14,28a11.17,11.17,0,0,1,8.42-1.15,11.33,11.33,0,0,1,2.81-.36A11.1,11.1,0,0,1,170,28a11.23,11.23,0,0,1,16.85,9.75,11.31,11.31,0,0,1-1.08,4.82h-7.26a5.63,5.63,0,0,0-2.89-10.45,5.51,5.51,0,0,0-1.41.18,11.14,11.14,0,0,1,1.41,5.45,11.31,11.31,0,0,1-1.08,4.82h-7.26a5.63,5.63,0,0,0-2.89-10.45V42.53Z"/><path class="c" d="M137.38,47.43a3.4,3.4,0,1,1,3.4,3.4,3.4,3.4,0,0,1-3.4-3.4"/><path class="c" d="M179,47.43a3.39,3.39,0,1,1,3.39,3.4,3.4,3.4,0,0,1-3.39-3.4"/><path class="c" d="M168.57,47.43a3.39,3.39,0,1,1,3.39,3.4,3.4,3.4,0,0,1-3.39-3.4"/><path class="c" d="M158.17,47.43a3.4,3.4,0,1,1,3.4,3.4,3.4,3.4,0,0,1-3.4-3.4"/><path class="c" d="M147.78,47.43a3.39,3.39,0,1,1,3.39,3.4,3.4,3.4,0,0,1-3.39-3.4"/><path class="c" d="M144.72,52.71H178.4v5.62H144.72Z"/><path class="c" d="M160.63,20.28V19h-1.87V17.08h1.87V15.21h1.87v1.87h1.87V19H162.5v1.33a2.81,2.81,0,1,1-1.87,0"/></svg>