<svg xmlns="http://www.w3.org/2000/svg" viewBox="0 0 320 120"><defs><style>.a{fill:none;}.b{fill:#ffcd00;}.c{fill:#193c6b;}</style></defs><rect class="a" width="320" height="120"/><rect class="b" x="70" y="5" width="180" height="110" rx="9"/><path class="c" d="M154.39,82.5A5.61,5.61,0,1,0,160,76.87a5.61,5.61,0,0,0-5.61,5.63h0m39-16.87a32.55,32.55,0,0,1-32.25,28.12H160a11.25,11.25,0,1,1,11.23-11.27v0a11.3,11.3,0,0,1-.71,3.94,27.55,27.55,0,0,0,6.31-3.37V82.5A16.84,16.84,0,1,0,160,99.38a39.3,39.3,0,0,0,38.89-33.76Zm-55.82,0H121.11A39.4,39.4,0,0,0,141,94.46a22.34,22.34,0,0,1-3.43-12ZM204.91,60a44.91,44.91,0,0,1-89.82,0h28.07v7.62A22.44,22.44,0,0,1,182,78.15a27,27,0,0,0,6-16.66V60Z"/><path class="c" d="M160,42.32h-2.81V31.87a5.63,5.63,0,0,0-2.89,10.45h-7.25a11.28,11.28,0,0,1,.32-10.27,5.54,5.54,0,0,0-1.4-.18,5.63,5.63,0,0,0-2.9,10.45h-7.25a11.24,11.24,0,0,1,15.76-14.57A11.3,11.3,0,0,1,160,26.6a11.3,11.3,0,0,1,8.42,1.15,11.25,11.25,0,0,1,15.76,14.57h-7.25A5.63,5.63,0,0,0,174,31.87a5.54,5.54,0,0,0-1.4.18,11.31,11.31,0,0,1,.4,10.27h-7.3a5.63,5.63,0,0,0-2.9-10.45V42.32Z"/><path class="c" d="M135.82,47.23a3.39,3.39,0,1,1,3.39,3.39h0a3.41,3.41,0,0,1-3.39-3.39"/><path class="c" d="M177.4,47.23a3.39,3.39,0,1,1,3.39,3.39h0a3.41,3.41,0,0,1-3.39-3.39"/><path class="c" d="M167,47.23a3.4,3.4,0,1,1,3.41,3.39h0A3.41,3.41,0,0,1,167,47.23"/><path class="c" d="M156.61,47.23A3.39,3.39,0,1,1,160,50.62h0a3.41,3.41,0,0,1-3.39-3.39"/><path class="c" d="M146.21,47.23a3.4,3.4,0,1,1,3.41,3.39h0a3.41,3.41,0,0,1-3.4-3.39"/><path class="c" d="M143.16,52.5h33.68v5.63H143.16Z"/><path class="c" d="M159.06,20.08V18.75h-1.87V16.87h1.87V15h1.88v1.87h1.87v1.88h-1.87v1.33a2.81,2.81,0,1,1-1.88,0"/></svg>