<svg xmlns="http://www.w3.org/2000/svg" viewBox="0 0 323.13 120.41"><defs><style>.a{fill:none;}.b{fill:#ffcd00;}.c{fill:#193c6b;}</style></defs><rect class="a" width="323.13" height="120.41"/><rect class="b" x="11.56" y="20.21" width="300" height="80" rx="9"/><path class="c" d="M70.06,76.52a4.08,4.08,0,1,0,4.07-4.08,4.09,4.09,0,0,0-4.07,4.08M98.34,64.28A23.58,23.58,0,0,1,75,84.68h-.82a8.17,8.17,0,1,1,7.63-5.3,19.39,19.39,0,0,0,4.58-2.45s0-.27,0-.41A12.22,12.22,0,1,0,74.13,88.76a28.48,28.48,0,0,0,28.21-24.48Zm-40.49,0H45.93A28.55,28.55,0,0,0,60.34,85.2a16.25,16.25,0,0,1-2.49-8.68ZM106.7,60.2a32.57,32.57,0,1,1-65.14,0H61.92v5.53a16.28,16.28,0,0,1,28.2,7.64,19.51,19.51,0,0,0,4.37-12.08V60.2Z"/><path class="c" d="M74.13,47.38h-2V39.81A4.08,4.08,0,0,0,70,47.38H64.74A8.24,8.24,0,0,1,65,39.93a4.17,4.17,0,0,0-1-.12,4.07,4.07,0,0,0-2.1,7.57H56.6a8,8,0,0,1-.79-3.49A8.15,8.15,0,0,1,64,35.73,8,8,0,0,1,68,36.82a8,8,0,0,1,4.07-1.09,8.49,8.49,0,0,1,2,.25,8.57,8.57,0,0,1,2-.25,8,8,0,0,1,4.07,1.09,8,8,0,0,1,4.07-1.09,8.15,8.15,0,0,1,7.36,11.65H86.41a4.08,4.08,0,0,0-2.1-7.57,4.31,4.31,0,0,0-1,.12,8.2,8.2,0,0,1,.24,7.45H78.27a4.08,4.08,0,0,0-2.1-7.57v7.57Z"/><path class="c" d="M56.6,50.94a2.46,2.46,0,1,1,2.46,2.47,2.46,2.46,0,0,1-2.46-2.47"/><path class="c" d="M86.75,50.94a2.46,2.46,0,1,1,2.46,2.47,2.46,2.46,0,0,1-2.46-2.47"/><path class="c" d="M79.21,50.94a2.46,2.46,0,1,1,2.46,2.47,2.46,2.46,0,0,1-2.46-2.47"/><path class="c" d="M71.67,50.94a2.46,2.46,0,1,1,2.47,2.47,2.47,2.47,0,0,1-2.47-2.47"/><path class="c" d="M64.14,50.94a2.46,2.46,0,1,1,2.46,2.47,2.46,2.46,0,0,1-2.46-2.47"/><path class="c" d="M61.92,54.77H86.35v4.08H61.92Z"/><path class="c" d="M73.46,31.25v-1H72.1V28.93h1.36V27.57h1.35v1.36h1.36v1.36H74.81v1a2,2,0,1,1-1.35,0"/><path class="c" d="M146.1,68.63c-3.73,2.23-8.26,4-11.85,4.15-3.87.19-8.13-.49-9.33-4.37-1.76-5.7,1.75-13,6.32-15.4,6.32-3.38,11.57-1.55,13.38.3l1.32-6.81a23.46,23.46,0,0,0-7.72-1.68c-9.54,0-14.13,4.66-17,8.52-3.22,4.35-7.52,15.29.47,22.86,2.38,2.25,6.73,3.64,10.86,3.35a25.42,25.42,0,0,0,14.29-5,8.09,8.09,0,0,0,.65,1.16c1.67,2.39,4.7,3.6,9.08,3.6,7.29,0,12.1-2.86,13.57-11.1l.47-2.74a8.67,8.67,0,0,0,.15-.87A19,19,0,0,0,171,62c0-6.21-3.8-8.92-10.55-8.92-7.21,0-11.9,2.82-13.53,11,4-2.59,7.83-5.25,12.87-5.25,2.8,0,3.65,1.12,3.65,3.2a13.56,13.56,0,0,1-.23,2.49c0,.08,0,.17,0,.26l-.51,2.7c-.89,4.4-2.09,5.95-5.51,5.95-2.59,0-3.56-.89-3.56-3.13a16.84,16.84,0,0,1,.23-2.82c.1-.55.79-3.76.79-3.76s-4.71,2.63-8.47,4.88"/><path class="c" d="M191.18,53.13a13.35,13.35,0,0,0-8.74,2.7l.35-2h-7L171.34,78.6H179l3.21-18a29.9,29.9,0,0,1,7.9-1.12Z"/><path class="c" d="M208.85,53.13a13.43,13.43,0,0,0-8.74,2.7l.39-2h-7L189.05,78.6h7.62l3.21-18a29.76,29.76,0,0,1,7.89-1.12Z"/><path class="c" d="M272.82,58.22c1.9,0,4.88.19,8,.5l.77-4.59a37.14,37.14,0,0,0-8.89-1c-5.8,0-11.41,1.23-11.41,7.79,0,3.62,2.05,5.78,5.84,7.27l1.86.74c2.66,1.12,3.25,1.5,3.25,2.7,0,2.11-2,2.54-4.41,2.54-3.68,0-5.15-.31-8.4-.46l-.77,4.54a40.12,40.12,0,0,0,8.74,1c7.08,0,12.46-2.11,12.46-8.59,0-3.46-1.75-5.39-6.08-7.09l-2.09-.8c-2.05-.85-2.86-1.28-2.86-2.31,0-2.12,2.21-2.2,4-2.2"/><path class="c" d="M250.43,64.85l-.54,2.69c-.85,4.39-2,5.93-5.45,5.93-2.6,0-3.6-.88-3.6-3.12a12.87,12.87,0,0,1,.27-2.81l.54-2.69c.81-4.4,2.09-5.94,5.41-5.94,2.79,0,3.6,1.12,3.6,3.2a13.27,13.27,0,0,1-.23,2.74m-2.71-11.72c-7.23,0-11.91,2.81-13.5,11l-.5,2.39a17.32,17.32,0,0,0-.31,3.81c0,5.94,3.6,8.91,10.44,8.91,7.31,0,12.11-2.86,13.58-11.07l.46-2.73a22.6,22.6,0,0,0,.35-3.43c0-6.2-3.79-8.9-10.52-8.9"/><path class="c" d="M224.17,64.11h-8.94l.12-.34c.46-2.7,1.59-5.24,5.3-5.24,2.94,0,3.79,1.46,3.79,3.31a15.81,15.81,0,0,1-.27,2.27m-2.83-11c-7.23,0-12.37,3-13.84,11.72l-.19,1.31a23.44,23.44,0,0,0-.47,4.16c0,6.27,3.83,8.93,11,8.93a47.11,47.11,0,0,0,10.1-1.07l.81-5c-4.68.3-6.84.42-9.43.42-4,0-5.11-1-5.11-3a16.16,16.16,0,0,1,.31-2.36h16.36a30.29,30.29,0,0,0,.73-6c0-5.39-2.94-9.09-10.25-9.09"/></svg>