<svg xmlns="http://www.w3.org/2000/svg" viewBox="0 0 320 120"><defs><style>.a{fill:none;}.b{fill:#ffcd00;}.c{fill:#193c6b;}</style></defs><rect class="a" width="320" height="120"/><rect class="b" x="10" y="20" width="300" height="80" rx="9"/><path class="c" d="M68.5,76.32a4.07,4.07,0,1,0,4.07-4.08,4.08,4.08,0,0,0-4.07,4.08M96.77,64.08a23.6,23.6,0,0,1-23.39,20.4h-.81a8.16,8.16,0,1,1,8.14-8.16,8.24,8.24,0,0,1-.51,2.86,20.14,20.14,0,0,0,4.58-2.45v-.41A12.22,12.22,0,1,0,72.57,88.56a28.5,28.5,0,0,0,28.21-24.48Zm-40.49,0H44.36A28.64,28.64,0,0,0,58.77,85a16.36,16.36,0,0,1-2.49-8.68ZM105.14,60A32.57,32.57,0,1,1,40,60H60.35v5.52a16.28,16.28,0,0,1,28.2,7.65,19.63,19.63,0,0,0,4.38-12.09V60Z"/><path class="c" d="M72.57,47.18h-2V39.6a4.08,4.08,0,0,0-2.09,7.58H63.17a8.2,8.2,0,0,1,.24-7.45,4.32,4.32,0,0,0-1-.13,4.09,4.09,0,0,0-2.1,7.58H55A8.15,8.15,0,0,1,66.46,36.61a8.14,8.14,0,0,1,4.07-1.09,8,8,0,0,1,2,.26,8,8,0,0,1,2-.26,8.15,8.15,0,0,1,4.08,1.09,8.14,8.14,0,0,1,12.21,7.07,8.19,8.19,0,0,1-.78,3.5H84.85a4.09,4.09,0,0,0-2.1-7.58,4.32,4.32,0,0,0-1,.13A8.15,8.15,0,0,1,82,47.18H76.7a4.08,4.08,0,0,0-2.1-7.58v7.58Z"/><path class="c" d="M55,50.74a2.46,2.46,0,1,1,2.46,2.46A2.47,2.47,0,0,1,55,50.74"/><path class="c" d="M85.19,50.74a2.46,2.46,0,1,1,2.46,2.46,2.47,2.47,0,0,1-2.46-2.46"/><path class="c" d="M77.65,50.74a2.46,2.46,0,1,1,2.46,2.46,2.47,2.47,0,0,1-2.46-2.46"/><path class="c" d="M70.11,50.74a2.46,2.46,0,1,1,2.46,2.46,2.47,2.47,0,0,1-2.46-2.46"/><path class="c" d="M62.57,50.74A2.46,2.46,0,1,1,65,53.2a2.47,2.47,0,0,1-2.46-2.46"/><path class="c" d="M60.36,54.56H84.78v4.08H60.36Z"/><path class="c" d="M71.89,31.05v-1H70.53V28.72h1.36V27.36h1.36v1.36h1.36v1.36H73.25v1a2,2,0,1,1-1.36,0"/><path class="c" d="M144.54,68.42c-3.73,2.23-8.27,4-11.86,4.16-3.87.19-8.13-.5-9.32-4.38-1.76-5.7,1.75-13,6.31-15.4,6.33-3.37,11.58-1.55,13.38.3l1.32-6.8a23.41,23.41,0,0,0-7.71-1.68c-9.55,0-14.14,4.65-17,8.52-3.22,4.34-7.52,15.29.48,22.85,2.38,2.26,6.73,3.64,10.85,3.36a25.47,25.47,0,0,0,14.29-5,7.74,7.74,0,0,0,.66,1.16Q148.42,79,155,79.05c7.29,0,12.1-2.86,13.57-11.09l.47-2.74c0-.26.1-.56.15-.88a18.84,18.84,0,0,0,.19-2.56c0-6.22-3.8-8.92-10.54-8.92-7.22,0-11.91,2.82-13.54,11,4-2.59,7.84-5.26,12.88-5.26,2.79,0,3.64,1.12,3.64,3.21a13.24,13.24,0,0,1-.22,2.48c0,.09,0,.17-.05.26l-.5,2.71c-.9,4.4-2.1,5.94-5.51,5.94-2.6,0-3.57-.88-3.57-3.12a16.84,16.84,0,0,1,.23-2.82c.1-.55.79-3.76.79-3.76s-4.7,2.63-8.46,4.87"/><path class="c" d="M189.61,52.93a13.41,13.41,0,0,0-8.74,2.69l.35-2h-7l-4.41,24.81h7.62l3.21-18a29.82,29.82,0,0,1,7.89-1.12Z"/><path class="c" d="M207.29,52.93a13.46,13.46,0,0,0-8.74,2.69l.38-2h-7l-4.41,24.81h7.61l3.21-18a29.88,29.88,0,0,1,7.89-1.12Z"/><path class="c" d="M271.26,58c1.89,0,4.87.19,8,.5l.77-4.58a37.23,37.23,0,0,0-8.9-1c-5.8,0-11.41,1.23-11.41,7.78,0,3.62,2.05,5.78,5.84,7.28l1.86.73c2.67,1.12,3.25,1.51,3.25,2.7,0,2.12-2,2.54-4.41,2.54-3.67,0-5.14-.3-8.39-.45l-.78,4.54a40.88,40.88,0,0,0,8.75,1c7.07,0,12.45-2.12,12.45-8.59,0-3.47-1.74-5.39-6.07-7.09l-2.09-.81c-2.05-.84-2.86-1.27-2.86-2.31,0-2.12,2.2-2.2,4-2.2"/><path class="c" d="M248.87,64.64l-.55,2.7c-.85,4.39-2,5.93-5.45,5.93-2.59,0-3.6-.89-3.6-3.12a12.82,12.82,0,0,1,.27-2.81l.55-2.7c.81-4.39,2.08-5.93,5.41-5.93,2.79,0,3.6,1.11,3.6,3.2a13.13,13.13,0,0,1-.23,2.73m-2.71-11.71c-7.24,0-11.91,2.81-13.5,11l-.5,2.39a17.27,17.27,0,0,0-.31,3.81c0,5.93,3.59,8.9,10.44,8.9,7.31,0,12.11-2.85,13.58-11.06l.46-2.73a24.11,24.11,0,0,0,.35-3.43c0-6.21-3.79-8.9-10.52-8.9"/><path class="c" d="M222.6,63.91h-8.93l.12-.35c.46-2.7,1.58-5.24,5.3-5.24,2.94,0,3.78,1.47,3.78,3.31a14.6,14.6,0,0,1-.27,2.28m-2.82-11c-7.23,0-12.38,3-13.84,11.71l-.2,1.31a24.44,24.44,0,0,0-.46,4.16c0,6.28,3.82,8.94,11,8.94A47,47,0,0,0,226.36,78l.81-5c-4.68.31-6.85.43-9.44.43-4,0-5.1-1-5.1-3a15.7,15.7,0,0,1,.3-2.35H229.3a30.29,30.29,0,0,0,.73-6c0-5.4-2.94-9.09-10.25-9.09"/></svg>