<svg xmlns="http://www.w3.org/2000/svg" viewBox="0 0 323.13 120.41"><defs><style>.a{fill:none;}.b{fill:#df0024;}</style></defs><rect class="a" width="323.13" height="120.41"/><path class="b" d="M148.23,99.57a69.74,69.74,0,0,1-19.59,3.13c-22.1,0-33.74-13.59-33.74-34s11.64-34,33.74-34a69.74,69.74,0,0,1,19.59,3.14l-2.65,13.6c-6-1.83-9.93-2.61-14.69-2.61-11.38,0-16.14,8.37-16.14,19.87s4.76,19.88,16.14,19.88c4.76,0,8.73-.78,14.69-2.61Z"/><path class="b" d="M176.85,50.14V83.22c0,4.45,3.05,5.76,6,5.76a30,30,0,0,0,5.69-.53v13.21a104.36,104.36,0,0,1-13.63,1c-13.76,0-16.94-7.33-16.94-17.66V27.49l18.92-9.78V36H188.5V50.14Z"/><path class="b" d="M216.59,50.14V83.22c0,4.45,3,5.76,5.95,5.76a29.84,29.84,0,0,0,5.69-.53v13.21a104.1,104.1,0,0,1-13.63,1c-13.76,0-16.93-7.33-16.93-17.66V27.49l18.92-9.78V36h11.64V50.14Z"/></svg>