<svg xmlns="http://www.w3.org/2000/svg" viewBox="0 0 323.13 120.41"><defs><style>.a{fill:none;}.b{fill:#df0024;}</style></defs><rect class="a" width="323.13" height="120.41"/><path class="b" d="M145.87,106.51a81.71,81.71,0,0,1-23,3.69c-26,0-39.7-16-39.7-40,0-23.84,13.7-40,39.7-40a81.71,81.71,0,0,1,23,3.7l-3.11,16c-7-2.16-11.68-3.08-17.28-3.08-13.39,0-19,9.85-19,23.38s5.61,23.39,19,23.39c5.6,0,10.27-.92,17.28-3.08Z"/><path class="b" d="M179.55,48.36V87.28c0,5.23,3.58,6.77,7,6.77a35.09,35.09,0,0,0,6.69-.61V109a121.87,121.87,0,0,1-16,1.24c-16.19,0-19.92-8.62-19.92-20.77V21.71l22.26-11.5V31.74h13.7V48.36Z"/><path class="b" d="M226.3,48.36V87.28c0,5.23,3.58,6.77,7,6.77a35.09,35.09,0,0,0,6.69-.61V109a121.87,121.87,0,0,1-16,1.24c-16.19,0-19.92-8.62-19.92-20.77V21.71l22.26-11.5V31.74H240V48.36Z"/></svg>