<svg xmlns="http://www.w3.org/2000/svg" viewBox="0 0 320 120"><defs><style>.a{fill:none;}.b{fill:#df0024;}</style></defs><rect class="a" width="320" height="120"/><path class="b" d="M146.66,99.36a69.93,69.93,0,0,1-19.58,3.14c-22.1,0-33.75-13.6-33.75-34s11.65-34,33.75-34a69.93,69.93,0,0,1,19.58,3.14L144,51.24c-5.95-1.83-9.92-2.62-14.68-2.62C118,48.62,113.18,57,113.18,68.5S118,88.38,129.33,88.38c4.76,0,8.73-.79,14.68-2.62Z"/><path class="b" d="M175.29,49.93V83c0,4.44,3,5.75,6,5.75a30.19,30.19,0,0,0,5.69-.52v13.2a102,102,0,0,1-13.63,1c-13.76,0-16.94-7.32-16.94-17.65V27.28l18.93-9.78V35.81H187V49.93Z"/><path class="b" d="M215,49.93V83c0,4.44,3,5.75,6,5.75a30.19,30.19,0,0,0,5.69-.52v13.2a102,102,0,0,1-13.63,1c-13.76,0-16.94-7.32-16.94-17.65V27.28L215,17.5V35.81h11.65V49.93Z"/></svg>