<svg xmlns="http://www.w3.org/2000/svg" viewBox="0 0 320 120"><defs><style>.a{fill:none;}.b{fill:#fc0;}.c{fill:#231f20;fill-rule:evenodd;}</style></defs><rect class="a" width="320" height="120"/><rect class="b" x="10" y="20" width="300" height="80" rx="9"/><path class="c" d="M264.59,73.41c-19.76,0-27.47-17.27-26.42-30.29L244,41.28a23.26,23.26,0,0,0,2.89,15.23,16,16,0,0,1,12.6-18.72,16.46,16.46,0,0,1,3.36-.29c8.92,0,16.31,6.52,16.27,15.86a49.4,49.4,0,0,0,2.4-12.8L295,43.9C293.88,59.62,282.08,73.41,264.59,73.41Zm19.28,9.09-7.62-7.71h7.54l7.63,7.71Zm-10.19,0L266,74.79h7.57l7.63,7.71Zm-17,0h-7.55l7.62-7.71h7.56Zm-17.74,0,7.63-7.71h7.55l-7.62,7.71Zm24-39.52A10.72,10.72,0,1,0,273.64,53.7,10.72,10.72,0,0,0,262.91,43h0"/><path class="c" d="M222.72,75c-3.4,0-5.28-2.1-5.28-5.41V61.1h-3.22V57.92h3.22V54.57l4.36-1.39v4.74h3.85V61.1H221.8v7.81c0,1.42.37,2.74,2,2.74a4.16,4.16,0,0,0,2-.43l.11,3.42A10.9,10.9,0,0,1,222.72,75Zm-17,0a19.67,19.67,0,0,1-4.94-.73l.26-3.55a9.55,9.55,0,0,0,4.26,1.09c1.11,0,2.89-.41,2.89-2,0-3.27-7.57-1-7.57-7.07,0-3.62,3.15-5.21,6.57-5.21a19.87,19.87,0,0,1,4.73.63l-.28,3.29a10.63,10.63,0,0,0-3.86-.73c-1.16,0-2.57.43-2.57,1.87,0,2.65,7.57,1,7.57,7,0,3.93-3.47,5.47-7,5.47Zm-15.68,0c-5.53,0-8.75-3.86-8.75-8.68,0-5.53,3.86-8.88,8.75-8.88a8.43,8.43,0,0,1,8.77,8.88c0,4.82-3.21,8.68-8.77,8.68ZM172.6,66h-1.93v8.6h-4.54V52h5.78c4.94,0,9.45,1.43,9.45,6.84S177.51,66,172.63,66Zm-22.78,5.79a11.24,11.24,0,0,0,5.55-1.69v3.55A11.49,11.49,0,0,1,149.59,75c-5.51,0-8.73-3.19-8.73-8.68,0-4.82,2.57-8.84,7.77-8.84,6.2,0,8,4.26,8,10.12H145c.2,2.69,2.07,4.21,4.77,4.21Zm-11,2.81h-4.34V65.7c0-2,0-4.82-2.84-4.82-3.15,0-3.85,3.41-3.85,5.55v8.18h-4.35V50.28h4.35v9.9h0a6.26,6.26,0,0,1,5.27-2.66c4,0,5.68,2.81,5.68,6.58Zm-22,.4c-5.49,0-8.25-3.75-8.25-8.83,0-4.82,2.9-8.68,8.1-8.68a14.65,14.65,0,0,1,4.22.55l-.4,3.45a6.4,6.4,0,0,0-2.89-.62c-2.71,0-4.43,2.14-4.43,5.3s1.47,5.44,4.52,5.44a8.82,8.82,0,0,0,3.35-.78l.12,3.59a13.85,13.85,0,0,1-4.34.57ZM99.89,75A19.67,19.67,0,0,1,95,74.31l.25-3.55a9.62,9.62,0,0,0,4.3,1.09c1.1,0,2.89-.41,2.89-2,0-3.27-7.56-1-7.56-7.07,0-3.62,3.15-5.21,6.56-5.21a20,20,0,0,1,4.74.63l-.29,3.29a10.48,10.48,0,0,0-3.91-.73c-1.16,0-2.55.43-2.55,1.87,0,2.65,7.56,1,7.56,7,0,3.93-3.47,5.47-7,5.47ZM89.63,75c-3.41,0-5.3-2.1-5.3-5.41V61.1H81.11V57.92h3.2V54.57l4.36-1.39v4.74h3.85V61.1H88.67v7.81c0,1.42.38,2.74,2,2.74a4,4,0,0,0,2-.43l.14,3.42A11.15,11.15,0,0,1,89.63,75Zm-10.47-.4H75V72.38h-.07A7,7,0,0,1,69.45,75c-4,0-5.68-2.8-5.68-6.56V57.88h4.37v8.94c0,2.05,0,4.81,2.82,4.81,3.14,0,3.86-3.41,3.86-5.55V57.92h4.36ZM55,71.85a11.31,11.31,0,0,0,5.56-1.69v3.55A11.53,11.53,0,0,1,54.79,75c-5.52,0-8.73-3.19-8.73-8.68,0-4.82,2.57-8.84,7.71-8.84,6.21,0,8,4.26,8,10.12H50.16c.19,2.69,2.08,4.21,4.82,4.21ZM31.27,74.64H25.05V52h6.2c7,0,13.08,2.33,13.08,11.34S38.2,74.64,31.25,74.64ZM54.09,60.71c-2.44,0-3.67,1.7-3.86,3.93h7.4C57.5,62.53,56.53,60.71,54.09,60.71Zm-22-5.16H29.6V71.07h2.52a7.42,7.42,0,0,0,7.48-7.35c0-.12,0-.24,0-.37a7.39,7.39,0,0,0-7-7.79A4,4,0,0,0,32.12,55.55Zm140.14,0h-1.59v6.91h1.59c2.29,0,4.33-.72,4.33-3.38S174.61,55.55,172.26,55.55Zm17.79,5.36c-2.83,0-4.2,2.46-4.2,5,0,2.75.89,5.78,4.2,5.78s4.22-3,4.22-5.78C194.27,63.32,192.91,60.91,190.05,60.91Zm-41.14-.2c-2.43,0-3.66,1.7-3.85,3.93h7.4c-.12-2.11-1.1-3.93-3.54-3.93"/></svg>