<svg xmlns="http://www.w3.org/2000/svg" viewBox="0 0 320 120"><defs><style>.a{fill:none;}.b{fill:#fc0;}.c{fill:#231f20;fill-rule:evenodd;}</style></defs><rect class="a" width="320" height="120"/><rect class="b" x="10" y="20" width="300" height="80" rx="9"/><path class="c" d="M268.5,73.91C248,73.9,240,56,241.09,42.49l6-1.91c-1,7.69,1.39,13.25,3,15.8a16.55,16.55,0,0,1,16.55-19.72c9.26,0,16.92,6.76,16.88,16.45a51.18,51.18,0,0,0,2.49-13.28L300,43.3C298.89,59.61,286.65,73.91,268.5,73.91Zm20,9.43-7.9-8h7.82l7.91,8Zm-10.57,0-7.92-8h7.85l7.91,8Zm-17.64,0h-7.84l7.91-8h7.84l-7.91,8Zm-18.41,0,7.92-8h7.83l-7.91,8Zm24.88-41a11.12,11.12,0,1,0,11.13,11.12,11.12,11.12,0,0,0-11.13-11.12"/><path class="c" d="M225.07,75.6c-3.53,0-5.48-2.18-5.48-5.61V61.14h-3.34v-3.3h3.34V54.37l4.52-1.44v4.91h4v3.3h-4v8.1c0,1.48.39,2.85,2.12,2.85a4.34,4.34,0,0,0,2.06-.45l.12,3.55a11.45,11.45,0,0,1-3.34.41Zm-17.63,0a20.57,20.57,0,0,1-5.12-.75l.26-3.69A9.89,9.89,0,0,0,207,72.29c1.16,0,3-.42,3-2.12,0-3.4-7.85-1.07-7.85-7.34,0-3.75,3.27-5.4,6.82-5.4a20.78,20.78,0,0,1,4.9.65l-.29,3.41a11,11,0,0,0-4-.75c-1.21,0-2.67.44-2.67,1.94,0,2.75,7.85,1,7.85,7.25,0,4.07-3.6,5.67-7.28,5.67Zm-16.27,0c-5.73,0-9.07-4-9.07-9,0-5.74,4-9.21,9.07-9.21s9.1,3.47,9.1,9.21c0,5-3.33,9-9.1,9Zm-18.1-9.33h-2v8.92h-4.71V51.68h6c5.12,0,9.8,1.48,9.8,7.1s-4,7.49-9.06,7.49Zm-23.63,6a11.72,11.72,0,0,0,5.76-1.75v3.68a11.88,11.88,0,0,1-6,1.38c-5.72,0-9.06-3.31-9.06-9,0-5,2.67-9.17,8.06-9.17,6.44,0,8.26,4.42,8.26,10.5h-12c.21,2.79,2.15,4.36,4.95,4.36ZM138,75.19h-4.51V65.91c0-2.11,0-5-2.94-5-3.27,0-4,3.54-4,5.76v8.49h-4.51V49.92h4.51V60.19h.06a6.48,6.48,0,0,1,5.46-2.76c4.12,0,5.9,2.91,5.9,6.82Zm-22.8.41c-5.7,0-8.56-3.89-8.56-9.16,0-5,3-9,8.4-9a15.22,15.22,0,0,1,4.38.57L119,61.59a6.62,6.62,0,0,0-3-.65c-2.81,0-4.59,2.22-4.59,5.5s1.52,5.65,4.69,5.65a9.19,9.19,0,0,0,3.47-.81L119.7,75a14.47,14.47,0,0,1-4.51.59Zm-17.56,0a20.57,20.57,0,0,1-5.12-.75l.26-3.69a9.93,9.93,0,0,0,4.46,1.13c1.14,0,3-.42,3-2.12,0-3.4-7.85-1.07-7.85-7.34,0-3.75,3.27-5.4,6.81-5.4a21,21,0,0,1,4.92.65l-.31,3.41a10.94,10.94,0,0,0-4.05-.75c-1.2,0-2.65.44-2.65,1.94,0,2.75,7.85,1,7.85,7.25,0,4.07-3.6,5.67-7.28,5.67ZM87,75.6c-3.54,0-5.5-2.18-5.5-5.61V61.14H78.16v-3.3h3.32V54.37L86,52.93v4.91h4v3.3H86v8.1c0,1.48.4,2.85,2.12,2.85a4.27,4.27,0,0,0,2.05-.45l.15,3.55A11.57,11.57,0,0,1,87,75.6Zm-10.86-.41H71.83V72.84h-.07a7.24,7.24,0,0,1-5.7,2.76c-4.1,0-5.89-2.9-5.89-6.8v-11H64.7v9.27c0,2.13,0,5,2.93,5,3.26,0,4-3.54,4-5.76V57.84h4.53Zm-25.05-2.9a11.76,11.76,0,0,0,5.77-1.75v3.68a11.93,11.93,0,0,1-6,1.38c-5.73,0-9.06-3.31-9.06-9,0-5,2.66-9.17,8-9.17,6.44,0,8.25,4.42,8.25,10.5h-12c.2,2.79,2.16,4.36,5,4.36Zm-24.63,2.9H20V51.68h6.44C33.64,51.68,40,54.1,40,63.44S33.64,75.19,26.44,75.19ZM50.13,60.74c-2.53,0-3.81,1.76-4,4.07H53.8C53.67,62.62,52.66,60.74,50.13,60.74ZM27.34,55.38H24.72v16.1h2.62a7.69,7.69,0,0,0,7.75-8A7.68,7.68,0,0,0,27.34,55.38Zm145.38,0h-1.65v7.17h1.65c2.37,0,4.49-.75,4.49-3.5S175.16,55.38,172.72,55.38Zm18.45,5.56c-2.93,0-4.35,2.56-4.35,5.17,0,2.85.92,6,4.35,6s4.38-3.09,4.38-6C195.55,63.44,194.14,60.94,191.17,60.94Zm-42.67-.2c-2.53,0-3.8,1.76-4,4.07h7.68c-.13-2.19-1.14-4.07-3.67-4.07"/></svg>