<svg xmlns="http://www.w3.org/2000/svg" viewBox="0 0 323.13 120.41"><defs><style>.a{fill:none;}.b{fill:#fc0;}</style></defs><rect class="a" width="323.13" height="120.41"/><rect class="b" x="71.56" y="5.21" width="180" height="110" rx="9"/><path d="M126.06,86.48,112.5,100.21h13.43l13.56-13.73Zm4.55,13.73H144L157.6,86.48H144.17Zm81.51-68.64L188.3,25.64c-.33,6.76-2,16.42-4.28,22.76.07-16.62-13.06-28.21-28.92-28.19-17.64,0-31.73,15.12-28.38,33.79-2.81-4.36-6.9-13.88-5.22-27.08l-10.33,3.29C109.34,53.4,122.94,84,158.14,84,189.25,84,210.22,59.53,212.12,31.57Zm-57,36.48A19.07,19.07,0,1,1,174.21,49h0a19.06,19.06,0,0,1-19.06,19.06Zm23.68,18.43,13.56,13.72h13.42L192.25,86.48Zm-18.12,0,13.56,13.72H187.7L174.14,86.48Z"/></svg>