<svg xmlns="http://www.w3.org/2000/svg" viewBox="0 0 323.13 120.41"><defs><style>.a{fill:#fc0;}.b{fill:#231f20;fill-rule:evenodd;}.c{fill:none;}</style></defs><rect class="a" x="11.56" y="20.21" width="300" height="80" rx="9"/><path class="b" d="M270.06,74.12c-20.53,0-28.48-17.88-27.41-31.43l6-1.9a23.87,23.87,0,0,0,3,15.79,16.56,16.56,0,0,1,16.56-19.72c9.25,0,16.91,6.77,16.88,16.46A51.25,51.25,0,0,0,287.65,40l13.91,3.46C300.46,59.81,288.21,74.12,270.06,74.12Zm20,9.43-7.9-8H290l7.91,8Zm-10.56,0-7.92-8h7.84l7.91,8Zm-17.64,0H254l7.91-8h7.84l-7.9,8Zm-18.42,0,7.92-8h7.83l-7.91,8Zm24.89-41a11.12,11.12,0,1,0,11.13,11.12,11.12,11.12,0,0,0-11.13-11.12"/><path class="b" d="M226.64,75.8c-3.54,0-5.49-2.18-5.49-5.61V61.34h-3.34V58.05h3.34V54.58l4.52-1.45v4.92h4v3.29h-4v8.11c0,1.48.4,2.84,2.12,2.84a4.19,4.19,0,0,0,2.06-.45L230,75.4a11.88,11.88,0,0,1-3.34.4ZM209,75.8a20.43,20.43,0,0,1-5.12-.74l.26-3.7a9.77,9.77,0,0,0,4.44,1.14c1.16,0,3-.42,3-2.12,0-3.4-7.85-1.08-7.85-7.35,0-3.74,3.27-5.39,6.82-5.39a20.36,20.36,0,0,1,4.91.65l-.3,3.4a10.88,10.88,0,0,0-4-.75c-1.21,0-2.67.45-2.67,1.94,0,2.75,7.85,1,7.85,7.26,0,4.07-3.59,5.66-7.27,5.66Zm-16.27,0c-5.74,0-9.07-4-9.07-9,0-5.73,3.94-9.2,9.07-9.2s9.1,3.47,9.1,9.2c0,5-3.34,9-9.1,9Zm-18.1-9.33h-2V75.4h-4.71V51.88h6c5.12,0,9.81,1.48,9.81,7.1s-4,7.49-9.06,7.49ZM151,72.5a11.78,11.78,0,0,0,5.76-1.75v3.67a11.8,11.8,0,0,1-6,1.38c-5.72,0-9.06-3.3-9.06-9,0-5,2.66-9.17,8.06-9.17,6.44,0,8.25,4.42,8.25,10.49h-12c.2,2.8,2.15,4.37,4.95,4.37Zm-11.46,2.9H135V66.12c0-2.12,0-5-2.93-5-3.27,0-4,3.54-4,5.77V75.4h-4.51V50.12h4.51V60.39h.07a6.45,6.45,0,0,1,5.45-2.75c4.12,0,5.9,2.91,5.9,6.81Zm-22.8.4c-5.7,0-8.55-3.88-8.55-9.16,0-5,3-9,8.39-9a15.5,15.5,0,0,1,4.38.56l-.41,3.59a6.79,6.79,0,0,0-3.06-.65c-2.81,0-4.59,2.23-4.59,5.5s1.52,5.65,4.69,5.65a9.09,9.09,0,0,0,3.47-.81l.2,3.74a14.91,14.91,0,0,1-4.52.58Zm-17.55,0a20.43,20.43,0,0,1-5.12-.74l.26-3.7a9.81,9.81,0,0,0,4.45,1.14c1.15,0,3-.42,3-2.12,0-3.4-7.85-1.08-7.85-7.35,0-3.74,3.27-5.39,6.82-5.39a20.51,20.51,0,0,1,4.91.65l-.31,3.4a10.88,10.88,0,0,0-4-.75c-1.2,0-2.66.45-2.66,1.94,0,2.75,7.85,1,7.85,7.26,0,4.07-3.6,5.66-7.27,5.66Zm-10.65,0c-3.55,0-5.5-2.18-5.5-5.61V61.34H79.72V58.05h3.33V54.58l4.52-1.45v4.92h4v3.29h-4v8.11c0,1.48.41,2.84,2.13,2.84a4.15,4.15,0,0,0,2-.45l.14,3.56a11.93,11.93,0,0,1-3.34.4Zm-10.87-.4H73.39V73h-.06a7.26,7.26,0,0,1-5.7,2.76c-4.1,0-5.89-2.89-5.89-6.8v-11h4.52v9.26c0,2.14,0,5,2.93,5,3.26,0,4-3.53,4-5.76V58.05h4.52ZM52.63,72.5a11.72,11.72,0,0,0,5.77-1.75v3.67a11.82,11.82,0,0,1-6,1.38c-5.72,0-9.06-3.3-9.06-9,0-5,2.67-9.17,8.05-9.17,6.44,0,8.26,4.42,8.26,10.49h-12c.21,2.8,2.17,4.37,5,4.37ZM28,75.4H21.56V51.88H28c7.2,0,13.58,2.43,13.58,11.77S35.2,75.4,28,75.4ZM51.69,60.94c-2.53,0-3.8,1.77-4,4.08h7.69C55.23,62.82,54.22,60.94,51.69,60.94ZM28.91,55.59H26.29v16.1h2.62a7.69,7.69,0,0,0,7.75-8A7.68,7.68,0,0,0,28.91,55.59Zm145.38,0h-1.65v7.17h1.65c2.37,0,4.49-.76,4.49-3.51S176.72,55.59,174.29,55.59Zm18.45,5.55c-2.94,0-4.36,2.56-4.36,5.17,0,2.86.92,6,4.36,6s4.37-3.09,4.37-6C197.11,63.65,195.7,61.14,192.74,61.14Zm-42.67-.2c-2.53,0-3.81,1.77-4,4.08h7.67c-.12-2.2-1.13-4.08-3.66-4.08"/><rect class="c" width="323.13" height="120.41"/></svg>