<svg xmlns="http://www.w3.org/2000/svg" viewBox="0 0 320 120"><defs><style>.a{fill:none;}.b{fill:#fc0;}.c{fill:#d40511;}</style></defs><rect class="a" width="320" height="120"/><rect class="b" x="10" y="20" width="300" height="80" rx="9"/><polygon class="c" points="32.73 70.7 67.16 70.7 65.27 73.26 32.73 73.26 32.73 70.7 32.73 70.7"/><polygon class="c" points="32.73 65.95 70.64 65.95 68.76 68.51 32.73 68.51 32.73 65.95 32.73 65.95"/><polygon class="c" points="32.73 75.45 63.66 75.45 61.78 77.99 32.73 77.99 32.73 75.45 32.73 75.45"/><polygon class="c" points="287.27 73.26 252.98 73.26 254.86 70.71 287.27 70.71 287.27 73.26 287.27 73.26"/><polygon class="c" points="287.27 77.99 249.5 78 251.37 75.45 287.27 75.45 287.27 77.99 287.27 77.99"/><polygon class="c" points="258.36 65.95 287.27 65.95 287.27 68.51 256.47 68.52 258.36 65.95 258.36 65.95"/><path class="c" d="M66.07,78,82.44,55.8h20.27c2.24,0,2.21.85,1.12,2.34l-4.14,5.62c-.57.78-1.62,2.19,1.82,2.19h27.13c-2.28,3.14-9.55,12-22.74,12Z"/><path class="c" d="M159.62,66l-8.86,12H127.39l8.86-12Z"/><path class="c" d="M193.41,66l-8.86,12H161.19l8.86-12Z"/><path class="c" d="M201,66l-2.54,3.46c-2.93,4-.34,8.58,9.24,8.58h37.51l8.86-12Z"/><path class="c" d="M77.49,42l-8.14,11h44.33c2.24,0,2.21.85,1.12,2.33s-3,4.13-4.11,5.66c-.57.78-1.61,2.19,1.82,2.19h18.13L136,56c3.33-4.54.29-13.92-11.62-13.92Z"/><polygon class="c" points="195.42 63.23 138.26 63.23 153.89 42 177.25 42 168.29 54.17 178.72 54.17 187.68 42 211.04 42 195.42 63.23 195.42 63.23"/><path class="c" d="M243.39,42,227.76,63.23H203S218.64,42,218.65,42Z"/></svg>