<svg xmlns="http://www.w3.org/2000/svg" viewBox="0 0 323.13 120.41"><defs><style>.a{fill:none;}.b{fill:#fc0;}.c{fill:#d40511;}</style></defs><rect class="a" width="323.13" height="120.41"/><rect class="b" x="11.56" y="20.21" width="300" height="80" rx="9"/><polygon class="c" points="21.56 71.98 59.43 71.98 57.36 74.79 21.56 74.79 21.56 71.98 21.56 71.98"/><polygon class="c" points="21.56 66.75 63.28 66.75 61.2 69.57 21.56 69.57 21.56 66.75 21.56 66.75"/><polygon class="c" points="21.56 77.2 55.59 77.2 53.53 80 21.56 80 21.56 77.2 21.56 77.2"/><polygon class="c" points="301.56 74.79 263.85 74.79 265.91 71.98 301.56 71.98 301.56 74.79 301.56 74.79"/><polygon class="c" points="301.56 80 260.01 80 262.07 77.2 301.56 77.2 301.56 80 301.56 80"/><polygon class="c" points="269.76 66.75 301.56 66.75 301.56 69.57 267.69 69.57 269.76 66.75 269.76 66.75"/><path class="c" d="M58.24,80l18-24.41h22.3c2.46,0,2.43.93,1.22,2.57s-3.3,4.5-4.55,6.18c-.63.86-1.77,2.42,2,2.42h29.87c-2.49,3.4-10.55,13.24-25,13.24Z"/><path class="c" d="M161.14,66.75,151.4,80H125.7l9.74-13.24Z"/><path class="c" d="M198.31,66.76,188.56,80H162.87s9.74-13.24,9.75-13.24Z"/><path class="c" d="M206.67,66.76l-2.79,3.8C200.65,74.92,203.51,80,214,80H255.3l9.75-13.24Z"/><path class="c" d="M70.81,40.41l-9,12.15h48.75c2.47,0,2.44.94,1.23,2.57s-3.27,4.54-4.51,6.22c-.64.85-1.78,2.41,2,2.41h19.94s3.21-4.38,5.9-8c3.67-5,.32-15.32-12.78-15.32Z"/><polygon class="c" points="200.52 63.76 137.65 63.76 154.84 40.41 180.54 40.41 170.69 53.8 182.16 53.8 192.01 40.41 217.71 40.41 200.52 63.76 200.52 63.76"/><path class="c" d="M253.29,40.41,236.1,63.76H208.88s17.19-23.35,17.2-23.35Z"/></svg>