<svg xmlns="http://www.w3.org/2000/svg" width="128" height="64" fill="none"><rect width="128" height="64" fill="#FC0" rx="6"/><path fill="#D40511" d="M6 36.867h15.69l-.86 1.167H6v-1.167ZM6 34.702h17.276l-.856 1.167H6v-1.167ZM6 39.032h14.096l-.857 1.157H6v-1.157ZM122 38.034h-15.627l.857-1.162H122v1.162ZM122 40.19l-17.213.004.853-1.162H122v1.157ZM108.825 34.702H122v1.167l-14.036.005.861-1.172ZM21.194 40.194l7.46-10.117h9.238c1.02 0 1.007.387.51 1.066l-1.887 2.561c-.26.356-.738.998.83.998h12.364c-1.04 1.431-4.353 5.47-10.364 5.47l-18.151.022ZM63.827 34.725l-4.038 5.469H49.14l4.038-5.469h10.65ZM79.225 34.725l-4.037 5.469H64.542l4.038-5.469h10.645ZM82.685 34.725l-1.158 1.577c-1.335 1.823-.155 3.91 4.211 3.91h17.094l4.038-5.469-24.185-.018Z"/><path fill="#D40511" d="m26.398 23.788-3.71 5.013h20.203c1.02 0 1.007.387.51 1.062-.497.674-1.367 1.882-1.873 2.58-.26.355-.734.997.83.997h8.262l2.443-3.272c1.517-2.069.132-6.344-5.296-6.344l-21.369-.036ZM80.142 33.463h-26.05l7.123-9.675h10.646l-4.083 5.546h4.753l4.083-5.546H87.26l-7.118 9.675ZM102.003 23.788l-7.123 9.675H83.596s7.128-9.675 7.132-9.675h11.275Z"/></svg>