<svg xmlns="http://www.w3.org/2000/svg" viewBox="0 0 320 120"><defs><style>.a{fill:none;}.b{fill:#fc0;}.c{fill:#d40511;}</style></defs><rect class="a" width="320" height="120"/><rect class="b" x="10" y="20" width="300" height="80" rx="9"/><polygon class="c" points="20 71.77 57.87 71.77 55.8 74.59 20 74.59 20 71.77 20 71.77"/><polygon class="c" points="20 66.55 61.71 66.55 59.64 69.36 20 69.36 20 66.55 20 66.55"/><polygon class="c" points="20 77 54.02 77 51.96 79.79 20 79.79 20 77 20 77"/><polygon class="c" points="300 74.59 262.28 74.59 264.35 71.78 300 71.78 300 74.59 300 74.59"/><polygon class="c" points="300 79.79 258.45 79.8 260.51 77 300 77 300 79.79 300 79.79"/><polygon class="c" points="268.19 66.55 300 66.55 300 69.36 266.12 69.37 268.19 66.55 268.19 66.55"/><path class="c" d="M56.68,79.79l18-24.41h22.3c2.47,0,2.43.94,1.23,2.57l-4.55,6.19c-.63.85-1.78,2.41,2,2.41H125.5C123,70,115,79.79,100.49,79.79Z"/><path class="c" d="M159.58,66.55l-9.74,13.24H124.13s9.74-13.24,9.75-13.24Z"/><path class="c" d="M196.75,66.55,187,79.79H161.31l9.74-13.24Z"/><path class="c" d="M205.11,66.55l-2.79,3.8c-3.23,4.36-.38,9.44,10.16,9.44h41.26l9.75-13.24Z"/><path class="c" d="M69.24,40.2,60.29,52.36h48.76c2.46,0,2.43.93,1.23,2.56s-3.27,4.54-4.52,6.22c-.63.86-1.77,2.41,2,2.41h19.94l5.91-8c3.66-5,.32-15.32-12.78-15.32Z"/><polygon class="c" points="198.96 63.55 136.09 63.55 153.28 40.2 178.97 40.2 169.12 53.59 180.59 53.59 190.45 40.2 216.14 40.2 198.96 63.55 198.96 63.55"/><path class="c" d="M251.73,40.2,234.54,63.55H207.31S224.5,40.2,224.51,40.2Z"/></svg>