<svg width="128" height="64" viewBox="0 0 128 64" fill="none" xmlns="http://www.w3.org/2000/svg">
<rect width="128" height="64" rx="6" fill="#FFCC00"/>
<path d="M6 36.8671H21.6906L20.8293 38.0338H6V36.8671Z" fill="#D40511"/>
<path d="M6 34.7024H23.2765L22.4197 35.8691H6V34.7024Z" fill="#D40511"/>
<path d="M6 39.0318H20.0955L19.2388 40.1894H6V39.0318Z" fill="#D40511"/>
<path d="M122 38.0338H106.373L107.23 36.8717H122V38.0338Z" fill="#D40511"/>
<path d="M122 40.1894L104.787 40.1939L105.64 39.0318H122V40.1894Z" fill="#D40511"/>
<path d="M108.825 34.7024H122V35.8691L107.964 35.8736L108.825 34.7024Z" fill="#D40511"/>
<path d="M21.1938 40.1939L28.654 30.0768H37.8916C38.9124 30.0768 38.8987 30.4642 38.402 31.1432L36.5153 33.7044C36.2555 34.0599 35.777 34.7024 37.3447 34.7024H49.7085C48.6694 36.1334 45.3563 40.1711 39.3453 40.1711L21.1938 40.1939Z" fill="#D40511"/>
<path d="M63.8269 34.7252L59.7892 40.1939H49.1389L53.1766 34.7252H63.8269Z" fill="#D40511"/>
<path d="M79.2254 34.7252L75.1877 40.1939H64.542L68.5797 34.7252H79.2254Z" fill="#D40511"/>
<path d="M82.6848 34.7252L81.5272 36.302C80.192 38.1249 81.3723 40.2122 85.7381 40.2122H102.832L106.87 34.7435L82.6848 34.7252Z" fill="#D40511"/>
<path d="M26.3981 23.7879L22.6885 28.8008H42.8907C43.9115 28.8008 43.8979 29.1882 43.4011 29.8627C42.9044 30.5371 42.034 31.7448 41.5281 32.4421C41.2683 32.7975 40.7944 33.4401 42.3575 33.4401H50.6198L53.0625 30.168C54.58 28.099 53.1946 23.8243 47.767 23.8243L26.3981 23.7879Z" fill="#D40511"/>
<path d="M80.1417 33.4629H54.0925L61.2155 23.7879H71.8612L67.7779 29.334H72.5311L76.6144 23.7879H87.2601L80.1417 33.4629Z" fill="#D40511"/>
<path d="M102.003 23.7879L94.8799 33.4629H83.5962C83.5962 33.4629 90.7237 23.7879 90.7283 23.7879H102.003Z" fill="#D40511"/>
</svg>
