<svg xmlns="http://www.w3.org/2000/svg" viewBox="0 0 323.13 120.41"><defs><style>.a{fill:none;}.b{fill:#fc0;}.b,.c,.d,.e{fill-rule:evenodd;}.c{fill:#fff;}.e{fill:red;}</style></defs><rect class="a" width="323.13" height="120.41"/><path class="b" d="M21.56,11.81h280V108.6h-280Z"/><path class="c" d="M221.12,84.39l3-14.12H52.81l-3,14.12Z"/><path class="d" d="M96.55,45.53H90.18L83.84,75h6.38Z"/><path class="d" d="M118.88,45.53H101.06L94.77,75h18l1.15-5.34H102.29l1.58-7.33H114l1.15-5.3H105l1.31-6.14h11.4Z"/><path class="d" d="M77,60.78c-.75,3.48-2.85,7.72-7.44,8.63a15.35,15.35,0,0,1-2.57.2H64L68,51h2.73a15.26,15.26,0,0,1,2.3.16c4.19.71,5.06,5,4,9.62M74.54,45.73a33.41,33.41,0,0,0-3.84-.2h-8L56.37,75H67a23.36,23.36,0,0,0,3-.16c8.31-1,12.35-7,13.54-13.18,1.66-8.55-1.35-14.81-8.95-15.91"/><path class="d" d="M224.73,45.53H202.41L201.22,51h8l-5.14,24h6.37l5.15-24h7.95Z"/><path class="d" d="M171.07,60.3c-1,4.75-3,9.7-8.35,9.7-5.19,0-5.9-4.87-4.83-9.7s3-9.69,8.35-9.69c5.19,0,5.9,4.86,4.83,9.69M166.7,45.21c-10.21,0-14.09,6.93-15.72,15s1.79,15,11.09,15c10.21,0,14.09-6.92,15.71-15s-1.78-15-11.08-15"/><path class="d" d="M181,54.2c0,3.48,2.14,5.18,4.15,6.73l3.37,2.49a11.9,11.9,0,0,1,1.78,1.5,2.38,2.38,0,0,1,.79,1.71,2.49,2.49,0,0,1-1.23,2.21c-1.34.87-3.44.87-4.71.87a22.48,22.48,0,0,1-6.33-1.07L177,74a29.23,29.23,0,0,0,8.63,1.19A18.38,18.38,0,0,0,193,74c3.48-1.47,5.23-4.2,5.23-7.4a6.65,6.65,0,0,0-1.51-4.32,18,18,0,0,0-3.16-2.89l-3.05-2.29c-1.54-1.15-2.69-2-2.69-3.37a2.59,2.59,0,0,1,2.49-2.57,27.74,27.74,0,0,1,3.41-.12h4.82l1.19-5.46h-5.38a48.57,48.57,0,0,0-5.3.2c-4.16.47-8,3.44-8,8.47"/><path class="d" d="M143.18,55.9A5.3,5.3,0,0,1,139,60.37a11.25,11.25,0,0,1-2,.2h-2.58L136.45,51h2.77a5.83,5.83,0,0,1,1.86.24c1.59.51,2.54,2.06,2.1,4.71m-1-10.17a19.63,19.63,0,0,0-2.89-.2h-8L125,75h6.34l1.93-9h3.69a15.22,15.22,0,0,0,4.43-.55,11.7,11.7,0,0,0,8.15-9.23c1-5.5-1.77-9.57-7.28-10.48"/><path class="e" d="M254.58,45.51s3.76-17.71,3.77-17.81H234.43c0,.07-5,23.22-5,23.32h5.93c0-.07,3.81-17.8,3.81-17.8h12.09L247.44,51h17.95L263,62.15H245.15c0,.07-3.56,16.65-3.56,16.65H228.06c0,.06-1.16,5.5-1.18,5.59h19.45c0-.06,3.59-16.69,3.59-16.69H267.7c0-.06,4.74-22.1,4.76-22.19Z"/></svg>