<svg xmlns="http://www.w3.org/2000/svg" viewBox="0 0 320 120"><defs><style>.a{fill:none;}.b{fill:#fc0;}.c{fill:#fff;}.c,.d,.e{fill-rule:evenodd;}.e{fill:red;}</style></defs><rect class="a" width="320" height="120"/><rect class="b" x="10" y="20" width="300" height="80" rx="9"/><path class="c" d="M218.2,87.5l2.92-13.7H54.9L52,87.5Z"/><path class="d" d="M97.33,49.8H91.15L85,78.37h6.18Z"/><path class="d" d="M119,49.8H101.71l-6.1,28.57h17.47l1.12-5.18H102.9l1.54-7.11h9.79l1.12-5.15h-9.8l1.27-6h11.06Z"/><path class="d" d="M78.38,64.59C77.65,68,75.61,72.08,71.16,73a14,14,0,0,1-2.5.2H65.74l3.84-18.1h2.65a13.86,13.86,0,0,1,2.23.16c4.07.69,4.92,4.83,3.92,9.33M76,50a31,31,0,0,0-3.73-.2H64.46L58.35,78.37h10.3a23.16,23.16,0,0,0,2.88-.15c8.06-1,12-6.84,13.13-12.79C86.27,57.13,83.36,51.06,76,50"/><path class="d" d="M221.7,49.8H200l-1.15,5.29h7.76l-5,23.28h6.18l5-23.28h7.72Z"/><path class="d" d="M169.64,64.13c-1,4.61-2.88,9.41-8.1,9.41-5,0-5.73-4.73-4.69-9.41s2.88-9.41,8.1-9.41c5,0,5.73,4.72,4.69,9.41M165.4,49.49c-9.91,0-13.68,6.72-15.25,14.59s1.73,14.6,10.75,14.6c9.91,0,13.68-6.73,15.25-14.6s-1.73-14.59-10.75-14.59"/><path class="d" d="M179.3,58.2c0,3.38,2.08,5,4,6.53l3.27,2.42a12,12,0,0,1,1.73,1.46,2.31,2.31,0,0,1,.76,1.65,2.44,2.44,0,0,1-1.19,2.16c-1.3.84-3.33.84-4.57.84a21.73,21.73,0,0,1-6.14-1l-1.84,5.23a28.24,28.24,0,0,0,8.37,1.15,17.65,17.65,0,0,0,7.22-1.23A7.57,7.57,0,0,0,196,70.19,6.51,6.51,0,0,0,194.55,66a17.74,17.74,0,0,0-3.07-2.8l-3-2.23c-1.5-1.11-2.61-2-2.61-3.27a2.52,2.52,0,0,1,2.42-2.49,26,26,0,0,1,3.3-.12h4.69l1.15-5.3h-5.22a46.58,46.58,0,0,0-5.15.2c-4,.46-7.8,3.34-7.8,8.21"/><path class="d" d="M142.58,59.86a5.16,5.16,0,0,1-4.07,4.34,11.2,11.2,0,0,1-2,.19H134l2-9.33h2.69a5.47,5.47,0,0,1,1.8.23c1.54.5,2.46,2,2,4.57M141.66,50a18.87,18.87,0,0,0-2.81-.2h-7.79l-6.15,28.58h6.15l1.88-8.72h3.57a14.25,14.25,0,0,0,4.31-.54,11.36,11.36,0,0,0,7.91-9c1-5.33-1.73-9.29-7.07-10.17"/><path class="e" d="M250.66,49.77l3.67-17.27H231.11c0,.06-4.82,22.53-4.84,22.62H232c0-.06,3.7-17.27,3.7-17.27h11.73l-3.7,17.27h17.41l-2.31,10.8H241.52c0,.07-3.46,16.16-3.46,16.16H224.94c0,.06-1.13,5.33-1.15,5.42h18.88c0-.06,3.47-16.19,3.47-16.19H263.4c0-.06,4.6-21.45,4.62-21.54Z"/></svg>