<svg xmlns="http://www.w3.org/2000/svg" viewBox="0 0 323.13 120.41"><defs><style>.a{fill:none;}.b{fill:#fc0;}.c{fill:#fff;}.c,.d,.e{fill-rule:evenodd;}.e{fill:red;}</style></defs><rect class="a" width="323.13" height="120.41"/><rect class="b" x="11.56" y="20.21" width="300" height="80" rx="9"/><path class="c" d="M219.77,87.7,222.69,74H56.46L53.54,87.7Z"/><path class="d" d="M98.9,50H92.72L86.57,78.57h6.19Z"/><path class="d" d="M120.56,50H103.28L97.17,78.57h17.48l1.11-5.18H104.47L106,66.28h9.8l1.11-5.14h-9.79l1.27-6h11.06Z"/><path class="d" d="M79.94,64.79c-.73,3.38-2.77,7.5-7.22,8.38a15.47,15.47,0,0,1-2.5.19H67.31l3.84-18H73.8a14.32,14.32,0,0,1,2.23.15c4.07.69,4.91,4.84,3.91,9.33m-2.4-14.6A33.45,33.45,0,0,0,73.82,50H66l-6.1,28.57H70.21a22.09,22.09,0,0,0,2.88-.15c8.06-1,12-6.83,13.13-12.79,1.62-8.29-1.3-14.36-8.68-15.44"/><path class="d" d="M223.27,50H201.61l-1.15,5.3h7.75l-5,23.27h6.18l5-23.27h7.72Z"/><path class="d" d="M171.2,64.33c-1,4.61-2.88,9.41-8.1,9.41-5,0-5.72-4.72-4.69-9.41s2.88-9.4,8.11-9.4c5,0,5.72,4.72,4.68,9.4M167,49.69c-9.92,0-13.68,6.72-15.26,14.6s1.73,14.59,10.76,14.59c9.91,0,13.67-6.72,15.25-14.59S176,49.69,167,49.69"/><path class="d" d="M180.87,58.41c0,3.38,2.07,5,4,6.53l3.26,2.42a10.72,10.72,0,0,1,1.73,1.46,2.32,2.32,0,0,1,.77,1.65,2.44,2.44,0,0,1-1.19,2.15c-1.31.85-3.34.85-4.57.85a22,22,0,0,1-6.15-1l-1.84,5.22a28.18,28.18,0,0,0,8.37,1.15,18,18,0,0,0,7.23-1.22,7.61,7.61,0,0,0,5.06-7.19,6.48,6.48,0,0,0-1.45-4.18A17.37,17.37,0,0,0,193,63.4l-2.95-2.22c-1.5-1.12-2.62-2-2.62-3.27a2.52,2.52,0,0,1,2.42-2.5,28.55,28.55,0,0,1,3.31-.11h4.68L199,50h-5.22a48.13,48.13,0,0,0-5.14.19c-4,.46-7.8,3.34-7.8,8.22"/><path class="d" d="M144.14,60.06a5.14,5.14,0,0,1-4.07,4.34,10.48,10.48,0,0,1-1.95.19h-2.5l2-9.33h2.68a5.86,5.86,0,0,1,1.81.23c1.53.5,2.46,2,2,4.57m-.92-9.87a20.09,20.09,0,0,0-2.8-.19h-7.8l-6.14,28.57h6.14l1.88-8.71h3.58a14.69,14.69,0,0,0,4.3-.54,11.36,11.36,0,0,0,7.91-8.95c1-5.34-1.72-9.3-7.07-10.18"/><path class="e" d="M252.23,50s3.65-17.18,3.66-17.27H232.68l-4.85,22.62h5.75c0-.07,3.7-17.27,3.7-17.27H249L245.3,55.33h17.42l-2.32,10.8H243.08c0,.06-3.46,16.15-3.46,16.15H226.5c0,.06-1.12,5.34-1.14,5.43h18.87c0-.06,3.48-16.2,3.48-16.2H265c0-.06,4.6-21.44,4.62-21.53Z"/></svg>