<svg xmlns="http://www.w3.org/2000/svg" viewBox="0 0 323.13 120.41"><defs><style>.a{fill:none;}.b{fill:#3f3f42;}.aa,.ab,.ac,.ad,.ae,.af,.ag,.ah,.ai,.aj,.b,.c,.d,.e,.f,.g,.h,.i,.j,.k,.l,.m,.n,.o,.p,.q,.r,.s,.t,.u,.v,.w,.x,.y,.z{fill-rule:evenodd;}.c{fill:#dc0032;}.d{fill:#db0032;}.e{fill:#da0032;}.f{fill:#d90032;}.g{fill:#d80032;}.h{fill:#d70032;}.i{fill:#d60032;}.j{fill:#d50032;}.k{fill:#d40032;}.l{fill:#d30032;}.m{fill:#d20032;}.n{fill:#d10032;}.o{fill:#d00032;}.p{fill:#cf0032;}.q{fill:#ce0032;}.r{fill:#cd0032;}.s{fill:#cc0032;}.t{fill:#cb0032;}.u{fill:#ca0032;}.v{fill:#c90032;}.w{fill:#c80033;}.x{fill:#c70033;}.y{fill:#c60033;}.z{fill:#c50033;}.aa{fill:#c40033;}.ab{fill:#c30033;}.ac{fill:#c20033;}.ad{fill:#c10033;}.ae{fill:#c00033;}.af{fill:#bf0033;}.ag{fill:#be0033;}.ah{fill:#bd0033;}.ai{fill:#bc0033;}.aj{fill:#b03;}</style></defs><rect class="a" width="323.13" height="120.41"/><path class="b" d="M196.75,86.92a57,57,0,0,1-14.31,1.65c-12.16,0-20.15-6.32-20.15-17.91,0-11,7.5-18.1,18.4-18.1a16.56,16.56,0,0,1,6.62,1.07v-16h9.44Zm-9.44-25.11a14.23,14.23,0,0,0-5.84-1.07c-5.74,0-9.54,3.5-9.54,9.63,0,6.52,4.09,10.22,10.8,10.22a19.78,19.78,0,0,0,4.58-.39Zm87,25.11a57.29,57.29,0,0,1-14.41,1.65c-12.07,0-20.15-6.32-20.15-17.91,0-11,7.5-18.1,18.4-18.1a16.24,16.24,0,0,1,6.62,1.07v-16h9.54Zm-9.54-25.11a13.76,13.76,0,0,0-5.74-1.07c-5.84,0-9.64,3.5-9.64,9.63,0,6.52,4.19,10.22,10.9,10.22a19,19,0,0,0,4.48-.39Zm-53.15,0a15.34,15.34,0,0,1,5.65-.88c5.84,0,9.83,3.31,9.83,9.25,0,7-4.48,10.22-10.41,10.31v8.08h.48c12.27,0,19.57-6.71,19.57-18.68,0-10.91-7.79-17.33-19.28-17.33a42.78,42.78,0,0,0-15.38,2.92v46.23h9.54Z"/><path class="c" d="M129.78,31.34h0Z"/><path class="c" d="M127.45,30.07,129,31.83l.87-.49Z"/><path class="c" d="M125.11,28.81l3,3.5,1.07-.58L128,30.37Z"/><path class="c" d="M122.68,27.54l4.57,5.26,1.07-.58L125.7,29.1Z"/><path class="c" d="M120.34,26.28l6,7,1.07-.59-4.19-4.86Zm11.59,12.36-.69.39.69.78Z"/><path class="c" d="M118,25l7.49,8.76,1.07-.58-5.64-6.62Zm13.53,13.83-1.07.68,1.46,1.75V39.42l-.39-.58Z"/><path class="c" d="M115.57,23.75l9.06,10.51,1.16-.58-7.2-8.37Zm15.09,15.57-1.07.68,2.34,2.73V40.88Z"/><path class="c" d="M113.24,22.48l10.61,12.27,1.07-.59L116.16,24Zm16.54,17.43-1.07.58,3.22,3.8V42.44Z"/><path class="c" d="M110.9,21.22l12.07,14,1.07-.58L113.82,22.77Zm18,19.17-1.07.59,4.09,4.77V43.9Z"/><path class="c" d="M108.47,20l13.62,15.77,1.08-.58L111.48,21.51ZM128,40.88l-1.07.58,5,5.75V45.36Z"/><path class="c" d="M106.13,18.69,121.22,36.3l1.07-.68L109.05,20.24Zm21,22.68-1.07.58,5.84,6.81V46.91Z"/><path class="c" d="M103.7,17.42l16.64,19.37,1.07-.68L106.72,19Zm22.68,24.43-1.17.59,6.72,7.78V48.37Z"/><path class="c" d="M101.36,16.16l18.11,21.12,1.16-.68L104.38,17.71ZM125.5,42.34l-1.07.58,7.5,8.86v-2Z"/><path class="c" d="M99,14.89l19.66,22.87,1.07-.68L102,16.45Zm25.6,27.94-1.08.58,8.38,9.83V51.39Z"/><path class="c" d="M96.59,13.53l21.22,24.72,1.07-.68L99.61,15.18Zm27.16,29.78-1.07.59,9.25,10.8V52.85Z"/><path class="c" d="M94.26,12.26l22.68,26.48,1.07-.59L97.27,13.92ZM122.87,43.8l-1.07.58,10.13,11.88V54.31Z"/><path class="c" d="M91.92,11.09l24.14,28.13,1.07-.58-22.29-26-2.92-1.56ZM122,44.29l-1.07.58,11,12.85V55.87Z"/><path class="c" d="M90.36,10.71h0l24.82,29,1.07-.58L92.5,11.39l-.58-.3A2.87,2.87,0,0,0,90.36,10.71Zm30.76,34.06-1.07.59,11.88,13.82V57.33Z"/><path class="c" d="M90.36,10.71a4.61,4.61,0,0,0-1.16.19l25.11,29.3,1.17-.59L90.66,10.71Zm30,34.55-1.07.58,12.66,14.9v-2Z"/><path class="c" d="M89.49,10.8a4.06,4.06,0,0,0-.59.29l-.58.3,25.21,29.29,1.07-.58Zm30,35-1.07.68L131.93,62.2V60.35Z"/><path class="c" d="M88.51,11.19l-1.07.59,25.21,29.39,1.07-.58Zm30.08,35-1.07.68,14.41,16.75V61.81Z"/><path class="c" d="M87.64,11.68l-1.07.58,25.21,29.4,1.07-.59Zm30.07,35-1.07.68,15.29,17.81V63.36Z"/><path class="c" d="M86.76,12.17l-1.07.58L110.9,42.14l1.07-.58Zm30.08,35-1.07.68,16.16,18.78V64.82Z"/><path class="c" d="M85.89,12.65l-1.08.59L110,42.63l1.08-.58Zm30.07,35-1.07.68,17,19.76V66.28Z"/><path class="c" d="M85,13.14l-1.07.58,25.21,29.4,1.07-.59Zm30.17,35-1.07.68,17.82,20.83V67.84Z"/><path class="c" d="M84.13,13.53l-1.07.68L108.37,43.6l1.07-.58Zm30.18,35.23-1.07.59,18.69,21.8V69.3Z"/><path class="c" d="M83.26,14l-1.07.59,25.3,29.49,1.07-.58Zm30.17,35.24-1.07.58,19.57,22.88V70.76Z"/><path class="c" d="M82.38,14.5l-1.07.59,25.31,29.59,1.07-.69Zm30.18,35.24-1.08.58,20.45,23.85V72.32Z"/><path class="c" d="M81.51,15l-1.08.58,25.31,29.59,1.07-.68Zm30.17,35.23-1.07.59,21.32,24.82V73.78Z"/><path class="c" d="M80.63,15.47l-1.07.59,25.31,29.59,1.07-.68ZM110.8,50.71l-1.07.58,22.2,25.9v-2Z"/><path class="c" d="M79.75,16l-1.07.59L104,46.14l1.07-.69ZM110,51.2l-1.07.58,23,26.87V76.8Z"/><path class="c" d="M78.88,16.35l-1.17.58,25.5,29.69,1.07-.68Zm30.27,35.33-1.07.59,23.85,27.84V78.26Z"/><path class="c" d="M78,16.84l-1.17.58,25.6,29.79a.74.74,0,0,1,.39-.39l.59-.39Zm30.27,35.33-1.07.58,24.53,28.62a2.74,2.74,0,0,0,.2-.88v-.77L108.27,52.17Z"/><path class="c" d="M77.13,17.32,76,17.91l26.18,30.46V48a2.09,2.09,0,0,1,.39-1ZM107.4,52.66l-.78.48c-.1,0-.2.1-.29.1l24.91,29.1a3.19,3.19,0,0,0,.59-1.16Z"/><path class="c" d="M76.25,17.81l-1.17.58,27.06,31.54V48Zm28.42,34.94L130.56,83a8.11,8.11,0,0,0,.88-.88l-24.92-29a1.62,1.62,0,0,1-1.36,0Z"/><path class="c" d="M75.37,18.3l-1.16.58,55.48,64.63.78-.39.29-.29-25.5-29.69h-.1l-2.24-1.36c-.2-.1-.29-.29-.49-.49h0a3.79,3.79,0,0,1-.29-.68V49.54Z"/><path class="c" d="M74.5,18.78l-1.17.59L128.81,84l1.07-.58Z"/><path class="c" d="M73.62,19.17l-1.17.59L128,84.49l1.07-.59Z"/><path class="c" d="M72.75,19.66l-1.17.58L127.16,85l1.07-.58Z"/><path class="c" d="M71.87,20.15l-1.17.58,55.58,64.73,1.07-.58Z"/><path class="c" d="M70.9,20.63l-1.07.59L125.4,86l1.07-.68Z"/><path class="c" d="M70,21.12,69,21.7l55.58,64.83,1.07-.68Z"/><path class="c" d="M69.14,21.61l-1.07.58L123.75,87l1.07-.68Z"/><path class="c" d="M68.27,22l-1.07.58L122.87,87.5l1.07-.68Z"/><path class="c" d="M67.39,22.48l-1.07.59L122,88l1.07-.58Z"/><path class="c" d="M66.52,23l-1.08.58L92.5,55.09l.88.58a1.46,1.46,0,0,1,.78,1.17v.1l27,31.54,1.07-.59Z"/><path class="c" d="M65.64,23.46,64.57,24,90,53.73l3.22,1.75ZM94.06,56.55c0,.1.1.19.1.29V58.5L120.25,89l1.07-.58Z"/><path class="c" d="M64.76,23.94l-1.07.59L87.44,52.27,90.66,54Zm29.4,34.17V60l25.31,29.49,1.07-.58Z"/><path class="c" d="M63.89,24.43,62.82,25,85,50.81l3.11,1.75ZM94.16,59.57v1.94l24.43,28.43,1.07-.59Z"/><path class="c" d="M63,24.82l-1.07.58,20.54,24,3.11,1.85ZM94.16,61.13V63l23.55,27.45,1.08-.58Z"/><path class="c" d="M62.14,25.31l-1.08.58L80,47.89l3.11,1.85Zm32,37.28v1.84l22.68,26.48,1.07-.58Z"/><path class="c" d="M61.26,25.79l-1.07.59L77.42,46.52l3.11,1.76Zm32.9,38.26V66L116,91.49l1.07-.68Z"/><path class="c" d="M60.38,26.28l-1.07.58,15.58,18.2L78,46.82ZM94.16,65.6v1.85l21,24.53,1.07-.68Z"/><path class="c" d="M59.51,26.77l-1.07.58L72.36,43.6l3.21,1.76ZM94.16,67.06v1.85l20.15,23.56,1.07-.68Z"/><path class="d" d="M58.63,27.25l-1.07.59,12.27,14.3L73,44Zm25.5,31.54,2.53,2.92V60.64a.79.79,0,0,0-.39-.59Zm10,9.73v2L113.43,93l1.07-.68Z"/><path class="c" d="M57.76,27.64l-1.08.59L67.29,40.68l3.22,1.85ZM81.6,57.33l5.06,5.84V61.32l-1.85-2.14ZM94.16,70.08v1.85l18.4,21.51,1.07-.58Z"/><path class="c" d="M56.88,28.13l-1.07.58,9,10.61L68,41.07ZM79.07,56l7.59,8.76V62.88l-4.38-5.16ZM94.16,71.54v1.85l17.52,20.54,1.07-.59Z"/><path class="c" d="M56,28.61l-1.07.59,7.4,8.66,3.11,1.75Zm20.64,25.9,10,11.68V64.34l-6.91-8.08ZM94.16,73.1V75L110.9,94.41l1.07-.58Z"/><path class="c" d="M55.13,29.1l-1.07.59L59.8,36.4l3.11,1.75Zm19,23.95,12.55,14.6V65.8L77.22,54.9Zm20,21.51v1.85L110,94.9l1.08-.58Z"/><path class="c" d="M54.25,29.59l-1.07.58,4.09,4.77,3.11,1.85Zm17.33,22L86.66,69.2V67.35l-12-13.91ZM94.16,76v1.85l15,17.52,1.07-.59Z"/><path class="c" d="M53.38,30.07l-1.08.59,2.44,2.82L58,35.33ZM69.05,50.22,86.66,70.66V68.81L72.16,52ZM94.16,77.57v1.85l14.11,16.45,1.07-.58Z"/><path class="c" d="M52.5,30.46l-1.17.59.88,1.07,3.21,1.75Zm14,18.3L86.66,72.22v-2L69.73,50.52ZM94.16,79v1.85L107.4,96.46l1.07-.68Z"/><path class="c" d="M51.62,31l-.68.39,2,1.07ZM64,47.3,86.66,73.68V71.83L67.2,49.15ZM94.16,80.49v2l12.46,14.5,1.07-.68Z"/><path class="c" d="M61.55,45.84l25.11,29.3V73.29l-22-25.6ZM94.16,82.05V83.9l11.58,13.53,1.07-.68Z"/><path class="c" d="M59,44.48,86.66,76.7v-2L62.14,46.23Zm35.14,39v1.85l10.71,12.56,1.07-.68Z"/><path class="c" d="M56.49,43,86.66,78.16V76.31L59.6,44.77ZM94.16,85v2L104,98.4l1.07-.58Z"/><path class="d" d="M54,41.56l32.7,38.06V77.77L57.07,43.41Zm40.2,45v1.85l9,10.51,1.07-.58Z"/><path class="e" d="M51.43,40.1,86.66,81.18V79.33L54.54,42ZM94.16,88v1.85l8.18,9.54,1.07-.59Z"/><path class="f" d="M48.9,38.74l37.76,43.9V80.79L52.11,40.49ZM94.16,89.45v2l7.3,8.46,1.07-.58Z"/><path class="g" d="M48.8,38.64V40L86.66,84.1V82.25L49.58,39ZM94.16,91v1.17a.73.73,0,0,1-.2.48l6.62,7.69,1.07-.58Z"/><path class="h" d="M48.8,39.61v2L86.66,85.65V83.8ZM94.06,92.47a1.27,1.27,0,0,1-.68.87l-.1.1,6.43,7.4,1.07-.59Z"/><path class="i" d="M48.8,41.17V43L86.66,87.11V85.26ZM93.48,93.25c0,.09,0,.09-.1.09l-1,.59,6.42,7.39,1.07-.58-6.42-7.49Z"/><path class="j" d="M48.8,42.63v1.85L86.66,88.57V86.72Zm43.9,51.1-1.17.68,6.52,7.5,1.07-.68Z"/><path class="k" d="M48.8,44.19V46L86.66,90.13V88.28Zm43,50-.68.39a1.19,1.19,0,0,1-.58.1l6.62,7.69,1.07-.69-6.43-7.49Z"/><path class="l" d="M48.8,45.65V47.5L86.66,91.59V89.74Zm40,48.57,7.49,8.66,1.07-.68-6.52-7.49c-.1,0-.29.09-.39.09h-.1a1.4,1.4,0,0,1-.68-.19l-.87-.39Z"/><path class="m" d="M48.8,47.11v2l46.62,54.31,1.08-.68-7-8.18-2.14-1.17a1.35,1.35,0,0,1-.69-1.16v-1Z"/><path class="n" d="M48.8,48.67v1.85l45.75,53.34,1.07-.59Z"/><path class="o" d="M48.8,50.13V52l44.87,52.36,1.07-.58Z"/><path class="p" d="M48.8,51.59v1.94l44.09,51.3,1.07-.59Z"/><path class="q" d="M48.8,53.14V55L92,105.32l1.07-.59Z"/><path class="r" d="M48.8,54.6v1.85L91,105.71l.88-.3.29-.19Z"/><path class="s" d="M48.8,56.06V58l41,47.7h.58a2.62,2.62,0,0,0,.88-.1Z"/><path class="t" d="M48.8,57.62v1.85l38.74,45.16,1.36.78a2.29,2.29,0,0,0,1.17.3Z"/><path class="u" d="M48.8,59.08v1.85L85,103.17,88.22,105Z"/><path class="v" d="M48.8,60.64v1.85l33.68,39.22,3.21,1.85Z"/><path class="w" d="M48.8,62.1V64L80,100.25l3.11,1.85Z"/><path class="x" d="M48.8,63.56v1.85L77.42,98.79l3.11,1.85Z"/><path class="y" d="M48.8,65.12V67l26,30.27L78,99.09Z"/><path class="z" d="M48.8,66.58v1.85L72.26,95.78l3.21,1.85Z"/><path class="aa" d="M48.8,68v1.85L69.73,94.32l3.21,1.85Z"/><path class="ab" d="M48.8,69.59v1.85L67.2,92.86l3.21,1.85Z"/><path class="ac" d="M48.8,71.05V72.9L64.67,91.4l3.21,1.85Z"/><path class="ad" d="M48.8,72.51v1.95L62.14,89.94l3.11,1.85Z"/><path class="ae" d="M48.8,74.07v1.85L59.51,88.48l3.21,1.85Z"/><path class="af" d="M48.8,75.53v1.85L57,87l3.21,1.75Z"/><path class="ag" d="M48.8,77v2l5.65,6.52,3.21,1.85Z"/><path class="ah" d="M48.8,78.55V80.4L51.92,84l3.21,1.85Z"/><path class="ai" d="M48.8,80v.48a3.43,3.43,0,0,0,1.46,2.63l2.34,1.27Z"/><path class="aj" d="M49.38,82.25c.2.19.3.39.49.48Z"/></svg>