<svg xmlns="http://www.w3.org/2000/svg" width="128" height="64" fill="none"><rect width="128" height="64" fill="#fff" rx="6"/><path fill="#424143" fill-rule="evenodd" d="M86.205 33.568a7.457 7.457 0 0 1 2.51-.372c2.587 0 4.362 1.474 4.362 4.11 0 3.11-1.966 4.52-4.601 4.558v3.603h.202c5.423 0 8.663-2.984 8.663-8.296 0-4.83-3.457-7.677-8.55-7.677a19.174 19.174 0 0 0-6.811 1.262V51.3h4.225V33.568Zm23.596.037a6.098 6.098 0 0 0-2.572-.483c-2.562 0-4.263 1.547-4.263 4.26 0 2.91 1.854 4.556 4.816 4.556.676.003 1.352-.055 2.018-.173l.001-8.16ZM114 44.748c-2.083.49-4.217.732-6.357.718-5.383 0-8.94-2.81-8.94-7.95 0-4.866 3.317-8.023 8.171-8.023a7.263 7.263 0 0 1 2.927.482v-7.072H114V44.75ZM75.423 33.604a6.117 6.117 0 0 0-2.586-.482c-2.548 0-4.248 1.547-4.248 4.26 0 2.91 1.84 4.556 4.815 4.556.677.003 1.353-.055 2.02-.173v-8.16Zm4.2 11.145c-2.084.49-4.218.732-6.358.718-5.382 0-8.94-2.81-8.94-7.95 0-4.866 3.318-8.023 8.171-8.023a7.258 7.258 0 0 1 2.927.482v-7.072h4.2V44.75Z" clip-rule="evenodd"/><path fill="url(#a)" fill-rule="evenodd" d="M39.62 29.739a.68.68 0 0 1-.619-.012l-.998-.583a.743.743 0 0 1-.222-.234l-.005-.001a.806.806 0 0 1-.101-.31l-.025-1.14a.656.656 0 0 1 .303-.533l11.99-6.852-16.829-8.997a1.472 1.472 0 0 0-.682-.151 1.456 1.456 0 0 0-.67.15l-16.827 8.998 18.849 10.768a.647.647 0 0 1 .316.52v15.702a.643.643 0 0 1-.33.52l-1.01.558a.781.781 0 0 1-.303.062h-.025a.847.847 0 0 1-.316-.062l-1.023-.558a.63.63 0 0 1-.316-.52V33.06a.39.39 0 0 0-.164-.273L14 23.308v18.577a1.445 1.445 0 0 0 .657 1.14l17.118 9.901c.203.103.429.155.657.15.232.004.462-.047.67-.15l17.118-9.901a1.48 1.48 0 0 0 .656-1.14V23.307L39.62 29.739Z" clip-rule="evenodd"/><defs><linearGradient id="a" x1="95.185" x2="9.773" y1="-22.162" y2="47.918" gradientUnits="userSpaceOnUse"><stop stop-color="#A90034"/><stop offset=".2" stop-color="#DC0032"/><stop offset=".5" stop-color="#DC0032"/><stop offset=".8" stop-color="#DC0032"/><stop offset="1" stop-color="#A90034"/></linearGradient></defs></svg>