<svg xmlns="http://www.w3.org/2000/svg" viewBox="0 0 320 120"><defs><style>.a{fill:none;}.b{fill:#3f3f42;}.aa,.ab,.ac,.ad,.ae,.af,.ag,.ah,.ai,.aj,.b,.c,.d,.e,.f,.g,.h,.i,.j,.k,.l,.m,.n,.o,.p,.q,.r,.s,.t,.u,.v,.w,.x,.y,.z{fill-rule:evenodd;}.c{fill:#dc0032;}.d{fill:#db0032;}.e{fill:#da0032;}.f{fill:#d90032;}.g{fill:#d80032;}.h{fill:#d70032;}.i{fill:#d60032;}.j{fill:#d50032;}.k{fill:#d40032;}.l{fill:#d30032;}.m{fill:#d20032;}.n{fill:#d10032;}.o{fill:#d00032;}.p{fill:#cf0032;}.q{fill:#ce0032;}.r{fill:#cd0032;}.s{fill:#cc0032;}.t{fill:#cb0032;}.u{fill:#ca0032;}.v{fill:#c90032;}.w{fill:#c80033;}.x{fill:#c70033;}.y{fill:#c60033;}.z{fill:#c50033;}.aa{fill:#c40033;}.ab{fill:#c30033;}.ac{fill:#c20033;}.ad{fill:#c10033;}.ae{fill:#c00033;}.af{fill:#bf0033;}.ag{fill:#be0033;}.ah{fill:#bd0033;}.ai{fill:#bc0033;}.aj{fill:#b03;}</style></defs><rect class="a" width="320" height="120"/><path class="b" d="M193.32,85.18a53.82,53.82,0,0,1-13.55,1.58c-11.52,0-19.08-6-19.08-17,0-10.42,7.09-17.15,17.42-17.15a15.7,15.7,0,0,1,6.26,1V38.53h8.95Zm-8.95-23.77a13.44,13.44,0,0,0-5.53-1c-5.43,0-9,3.31-9,9.12,0,6.18,3.86,9.68,10.22,9.68a18.46,18.46,0,0,0,4.33-.37Zm82.37,23.77a54.44,54.44,0,0,1-13.63,1.58c-11.43,0-19.08-6-19.08-17,0-10.42,7.09-17.15,17.42-17.15a15.36,15.36,0,0,1,6.26,1V38.53h9Zm-9-23.77a13,13,0,0,0-5.44-1c-5.52,0-9.11,3.31-9.11,9.12,0,6.18,3.95,9.68,10.32,9.68a17.67,17.67,0,0,0,4.23-.37Zm-50.31,0a14.25,14.25,0,0,1,5.34-.82c5.53,0,9.31,3.12,9.31,8.74,0,6.63-4.24,9.68-9.86,9.78v7.65h.46c11.61,0,18.52-6.37,18.52-17.7,0-10.32-7.37-16.41-18.24-16.41a40.58,40.58,0,0,0-14.57,2.77V99.2h9Z"/><path class="c" d="M127.69,31.37,129.17,33l.83-.45Z"/><path class="c" d="M125.49,30.17l2.84,3.32,1-.56-1.11-1.29Z"/><path class="c" d="M123.18,29l4.33,5,1-.56L126,30.45Z"/><path class="c" d="M121,27.77l5.68,6.63,1-.55-4-4.61Zm11,11.71-.65.36.65.74Z"/><path class="c" d="M118.76,26.58l7.1,8.29,1-.54-5.35-6.26ZM131.6,39.66l-1,.65L132,42V40.21Z"/><path class="c" d="M116.45,25.37l8.52,10,1.11-.55-6.79-7.93Zm14.29,14.76-1,.64,2.22,2.57V41.59Z"/><path class="c" d="M114.24,24.18l10.05,11.61,1-.55L117,25.66Zm15.67,16.49-1,.55,3,3.6V43.07Z"/><path class="c" d="M112,23l11.43,13.25,1-.55L114.8,24.46Zm17.05,18.16-1,.55,3.88,4.51V44.45Z"/><path class="c" d="M109.72,21.79l12.91,14.93,1-.56L112.58,23.25Zm18.53,19.8-1,.56L132,47.59V45.83Z"/><path class="c" d="M107.52,20.58,121.8,37.27l1-.65L110.28,22ZM127.4,42.06l-1,.55,5.53,6.45V47.31Z"/><path class="c" d="M105.21,19.39,121,37.73l1-.65L108.07,20.86Zm21.47,23.13-1.11.55,6.37,7.36V48.69Z"/><path class="c" d="M103,18.24l17.14,20,1.11-.64-15.4-17.93ZM125.86,43l-1,.56,7.1,8.39V50.08Z"/><path class="c" d="M100.79,17,119.4,38.65l1-.65L103.55,18.46ZM125,43.44,124,44l7.92,9.28V51.55Z"/><path class="c" d="M98.46,15.7l20.09,23.41,1-.65L101.34,17.29Zm25.7,28.2-1,.55,8.76,10.24V52.94Z"/><path class="c" d="M96.27,14.5l21.47,25.07,1-.55-19.63-23Zm27.1,29.86-1,.56,9.59,11.24V54.32Z"/><path class="c" d="M94.06,13.4,116.92,40l1-.55L96.83,14.85l-2.77-1.48Zm28.47,31.42-1,.55,10.42,12.17V55.79Z"/><path class="c" d="M92.59,13h0l23.5,27.46,1-.56L94.61,13.67l-.55-.27A2.71,2.71,0,0,0,92.59,13Zm29.12,32.26-1,.54L131.94,59V57.17Z"/><path class="c" d="M92.59,13a5.14,5.14,0,0,0-1.11.18L115.25,41l1.11-.55L92.86,13ZM121,45.74l-1,.56,12,14.1V58.5Z"/><path class="c" d="M91.75,13.12a2.59,2.59,0,0,0-.55.28l-.55.27,23.9,27.74,1-.55ZM120.16,46.2l-1,.65,12.8,14.94V60Z"/><path class="c" d="M90.88,13.5l-1,.55,23.82,27.86,1-.56Zm28.41,33.14-1,.64,13.64,15.85V61.41Z"/><path class="c" d="M90,14l-1,.55,23.87,27.83,1-.55Zm28.48,33.13-1,.66,14.47,16.89V62.89Z"/><path class="c" d="M89.18,14.45l-1,.55L112,42.83l1-.55Zm28.47,33.14-1,.64L131.94,66V64.27Z"/><path class="c" d="M88.34,14.87l-1,.52L111.2,43.23l1-.56ZM116.82,48l-1,.65,16.1,18.71V65.65Z"/><path class="c" d="M87.52,15.33l-1,.56,23.87,27.82,1-.55Zm28.57,33.14-1,.65,16.87,19.72V67.13Z"/><path class="c" d="M86.69,15.7l-1,.64,24,27.84,1-.55Zm28.56,33.36-1,.55,17.7,20.7v-1.8Z"/><path class="c" d="M85.85,16.16l-1,.55,24,27.93,1-.56Zm28.58,33.37-1,.55,18.52,21.65V69.89Z"/><path class="c" d="M85,16.63l-1,.54,24,28,1-.64ZM113.61,50l-1,.56,19.35,22.61V71.36Z"/><path class="c" d="M84.2,17.08l-1,.56,24,28.05,1-.64Zm28.57,33.35-1.06.56,20.19,23.5V72.74Z"/><path class="c" d="M83.36,17.54l-1,.55,24,28,1-.64Zm28.58,33.37-1,.55,21,24.53V74.1Z"/><path class="c" d="M82.54,18l-1,.55,24,28,1-.64ZM111.2,51.37l-1,.56L132,77.36V75.6Z"/><path class="c" d="M81.71,18.38l-1.11.55L104.75,47l1-.65Zm28.66,33.45-1,.55,22.59,26.36V77Z"/><path class="c" d="M80.88,18.83l-1.1.56L104,47.59a.74.74,0,0,1,.37-.37l.55-.37Zm28.66,33.49-1,.55L131.76,80a3,3,0,0,0,.18-.84V78.4Z"/><path class="c" d="M80.05,19.3l-1.11.54,24.8,28.85v-.37a1.8,1.8,0,0,1,.37-.94Zm28.66,33.45-.74.46c-.08,0-.18.1-.27.1l23.59,27.55a3,3,0,0,0,.55-1.11Z"/><path class="c" d="M79.22,19.76l-1.1.55,25.62,29.86V48.32Zm26.92,33.08L130.65,81.5a6.43,6.43,0,0,0,.82-.83L107.92,53.21a1.61,1.61,0,0,1-1.29,0Z"/><path class="c" d="M78.39,20.21l-1.1.56L129.82,82l.73-.37.28-.28L106.68,53.21h-.09l-2.12-1.29c-.18-.09-.28-.28-.46-.46h0a3,3,0,0,1-.27-.64v-1Z"/><path class="c" d="M77.56,20.68l-1.11.55L129,82.42l1-.55Z"/><path class="c" d="M76.74,21.08l-1.11.54,52.62,61.29,1-.55Z"/><path class="c" d="M75.9,21.5,74.79,22l52.62,61.29,1-.56Z"/><path class="c" d="M75.07,22l-1.1.55L126.6,83.8l1-.55Z"/><path class="c" d="M74.15,22.43l-1,.54,52.62,61.38,1-.64Z"/><path class="c" d="M73.33,22.88l-1,.56L125,84.82l1-.65Z"/><path class="c" d="M72.5,23.35l-1,.57,52.71,61.37,1-.65Z"/><path class="c" d="M71.66,23.72l-1,.55,52.72,61.47,1-.64Z"/><path class="c" d="M70.84,24.18l-1,.55,52.7,61.47,1-.55Z"/><path class="c" d="M70.05,24.64l-1,.55L94.61,55.06l.84.55a1.32,1.32,0,0,1,.72,1.1v.09l25.57,29.86,1-.55Z"/><path class="c" d="M69.18,25.1l-1,.56,24.06,28.1,3,1.66ZM96.09,56.44c0,.08.08.18.08.27v1.57l24.71,28.85,1-.56Z"/><path class="c" d="M68.35,25.56l-1,.55L89.82,52.38l3,1.65ZM96.17,57.91v1.75l24,27.92,1-.55Z"/><path class="c" d="M67.51,26l-1,.56L87.52,51l3,1.66ZM96.17,59.29v1.89L119.29,88l1-.55Z"/><path class="c" d="M66.69,26.39l-1,.56L85.12,49.61,88,51.37ZM96.17,60.77v1.75l22.31,26,1-.56Z"/><path class="c" d="M65.86,26.85l-1,.55L82.72,48.23l3,1.75Zm30.3,35.3V63.9L117.65,89l1-.55Z"/><path class="c" d="M65,27.32l-1,.54L80.33,46.94l3,1.66ZM96.17,63.53v1.89l20.65,24.15,1-.65Z"/><path class="c" d="M64.2,27.77l-1,.56L77.93,45.56l2.95,1.66ZM96.17,65v1.75L116.06,90l1-.65Z"/><path class="c" d="M63.37,28.23l-1,.55,13.18,15.4,3,1.65Zm32.8,38.16v1.75l19.08,22.3,1-.64Z"/><path class="d" d="M62.54,28.7l-1,.55L73.14,42.8l3,1.75ZM86.69,58.55l2.39,2.77v-1a.73.73,0,0,0-.37-.55Zm9.47,9.22v1.84L114.41,90.9l1-.64Z"/><path class="c" d="M61.71,29.07l-1,.53,10,11.81,3,1.75Zm22.54,28.1,4.83,5.57V61l-1.75-2ZM96.17,69.25V71l17.44,20.38,1-.56Z"/><path class="c" d="M60.88,29.52l-1,.56,8.58,10.05,3,1.65Zm21,26.36,7.18,8.29V62.42l-4.14-4.88ZM96.17,70.63v1.74l16.6,19.45,1-.55Z"/><path class="c" d="M60.05,30l-1,.55,7,8.21L69,40.41ZM79.59,54.5l9.49,11.08V63.81l-6.54-7.65ZM96.17,72.1v1.75L112,92.29l1-.56Z"/><path class="c" d="M59.22,30.45l-1,.55,5.44,6.36,2.95,1.71Zm18,22.67L89.08,66.94V65.19L80.15,54.87ZM96.15,73.48v1.75l15,17.52,1-.56Z"/><path class="c" d="M58.4,30.9l-1,.59L61.25,36l3,1.75ZM74.79,51.73,89.08,68.42V66.66L77.72,53.49ZM96.17,74.86v1.76L110.38,93.2l1-.55Z"/><path class="c" d="M57.56,31.37l-1,.55,2.3,2.68,3,1.75ZM72.4,50.43,89.08,69.8V68.05L75.35,52.1ZM96.17,76.34v1.75l13.37,15.58,1-.56Z"/><path class="c" d="M56.73,31.74l-1.1.55.83,1,3,1.67ZM70,49.06l19.09,22.2v-1.9L73,50.72ZM96.17,77.72v1.76l12.54,14.74,1-.65Z"/><path class="c" d="M55.91,32.2l-.65.37,1.84,1Zm11.7,15.48,21.47,25V70.91L70.65,49.48ZM96.17,79.11V81L108,94.68l1-.64Z"/><path class="c" d="M65.32,46.3,89.08,74V72.29L68.25,48.05ZM96.18,80.58v1.75l11,12.81,1-.64Z"/><path class="c" d="M62.91,45l26.17,30.5V73.67l-23.22-27ZM96.17,81.94v1.75L106.32,95.6l1-.64Z"/><path class="c" d="M60.52,43.63,89.08,76.94v-1.8L63.42,45.29ZM96.17,83.35v1.83l9.32,10.88,1-.55Z"/><path class="d" d="M58.11,42.25l31,36V76.52L61.07,44Zm38.06,42.6V86.6l8.53,10,1-.56Z"/><path class="e" d="M55.72,40.86,89.08,79.78V78L58.69,42.61ZM96.17,86.2V88l7.75,9,1-.55Z"/><path class="f" d="M53.32,39.57,89.08,81.13V79.38L56.37,41.22Zm42.85,48v1.89l6.92,8,1-.55Z"/><path class="g" d="M53.24,39.48v1.29L89.08,82.51V80.72L54,39.84ZM96.17,89.06v1.13a.69.69,0,0,1-.18.47l6.25,7.25,1-.56Z"/><path class="h" d="M53.24,40.4v1.89L89.08,84V82.24Zm42.85,50a1.25,1.25,0,0,1-.64.83l-.1.1,6.08,7,1-.55Z"/><path class="i" d="M53.24,41.91v1.75L89.08,85.37V83.62ZM95.53,91.14c0,.09,0,.09-.08.09l-1,.55,6.09,7,1-.55Z"/><path class="j" d="M53.24,43.26V45L89.08,86.76V85ZM94.79,91.64l-1.07.65,6.18,7.09,1-.65Z"/><path class="k" d="M53.24,44.75V46.5L89.08,88.23V86.48ZM94,92.09l-.64.37a1.2,1.2,0,0,1-.56.09L99,99.83l1-.64L94,92.09Z"/><path class="l" d="M53.24,46.11v1.75L89.08,89.62V87.86Zm37.87,46,7.1,8.21,1-.65-6.17-7.1c-.09,0-.28.1-.37.1h-.09a1.48,1.48,0,0,1-.65-.19Z"/><path class="m" d="M53.24,47.49v1.9l44.14,51.42,1-.65-6.63-7.73-2-1.11a1.29,1.29,0,0,1-.66-1.13v-.94Z"/><path class="n" d="M53.24,49v1.75l43.32,50.5,1-.55Z"/><path class="o" d="M53.24,50.35V52.1l42.48,49.59,1-.56Z"/><path class="p" d="M53.24,51.73v1.85L95,102.14l1-.59Z"/><path class="q" d="M53.24,53.21V55l40.91,47.65,1-.55Z"/><path class="r" d="M53.24,54.59v1.75l40,46.63.83-.27.28-.19Z"/><path class="s" d="M53.24,56v1.89L92.06,103h.55a2.33,2.33,0,0,0,.83-.09Z"/><path class="t" d="M53.24,57.45V59.2L89.94,102l1.28.74a2.15,2.15,0,0,0,1.11.27Z"/><path class="u" d="M53.24,58.83v1.76l34.28,40,3,1.75Z"/><path class="v" d="M53.24,60.3v1.75L85.12,99.2l3,1.75Z"/><path class="w" d="M53.24,61.68v1.76L82.72,97.81l3,1.76Z"/><path class="x" d="M53.24,63.07v1.75L80.33,96.43l3,1.75Z"/><path class="y" d="M53.24,64.54V66.3l24.6,28.63,3,1.75Z"/><path class="z" d="M53.24,65.93v1.75l22.2,25.89,3,1.75Z"/><path class="aa" d="M53.24,67.31v1.75L73,92.19l3,1.79Z"/><path class="ab" d="M53.24,68.79v1.75L70.65,90.81l3,1.75Z"/><path class="ac" d="M53.24,70.17v1.75l15,17.51,3,1.71Z"/><path class="ad" d="M53.24,71.55v1.89L65.86,88l3,1.76Z"/><path class="ae" d="M53.24,73v1.75L63.37,86.66l3.05,1.75Z"/><path class="af" d="M53.24,74.41v1.75L61,85.28l3,1.66Z"/><path class="ag" d="M53.24,75.79v1.84l5.34,6.17,3,1.75Z"/><path class="ah" d="M53.24,77.26V79l2.94,3.41,3,1.75Z"/><path class="ai" d="M53.24,78.64v.47a3.29,3.29,0,0,0,1.38,2.49l2.18,1.19Z"/><path class="aj" d="M53.79,80.72c.18.19.27.37.46.47Z"/></svg>