<svg xmlns="http://www.w3.org/2000/svg" viewBox="0 0 320 120"><defs><style>.a{fill:none;}.b{fill:#3f3f42;}.aa,.ab,.ac,.ad,.ae,.af,.ag,.ah,.ai,.aj,.b,.c,.d,.e,.f,.g,.h,.i,.j,.k,.l,.m,.n,.o,.p,.q,.r,.s,.t,.u,.v,.w,.x,.y,.z{fill-rule:evenodd;}.c{fill:#dc0032;}.d{fill:#db0032;}.e{fill:#da0032;}.f{fill:#d90032;}.g{fill:#d80032;}.h{fill:#d70032;}.i{fill:#d60032;}.j{fill:#d50032;}.k{fill:#d40032;}.l{fill:#d30032;}.m{fill:#d20032;}.n{fill:#d10032;}.o{fill:#d00032;}.p{fill:#cf0032;}.q{fill:#ce0032;}.r{fill:#cd0032;}.s{fill:#cc0032;}.t{fill:#cb0032;}.u{fill:#ca0032;}.v{fill:#c90032;}.w{fill:#c80033;}.x{fill:#c70033;}.y{fill:#c60033;}.z{fill:#c50033;}.aa{fill:#c40033;}.ab{fill:#c30033;}.ac{fill:#c20033;}.ad{fill:#c10033;}.ae{fill:#c00033;}.af{fill:#bf0033;}.ag{fill:#be0033;}.ah{fill:#bd0033;}.ai{fill:#bc0033;}.aj{fill:#b03;}</style></defs><rect class="a" width="320" height="120"/><path class="b" d="M193,84.88a53.09,53.09,0,0,1-13.4,1.56c-11.4,0-18.87-5.93-18.87-16.77,0-10.3,7-17,17.23-17a15.56,15.56,0,0,1,6.19,1v-15H193ZM184.1,61.37a13.48,13.48,0,0,0-5.47-1c-5.37,0-8.92,3.28-8.92,9,0,6.1,3.82,9.57,10.11,9.57a18.63,18.63,0,0,0,4.28-.37Zm81.46,23.51a53.74,53.74,0,0,1-13.49,1.56c-11.3,0-18.86-5.93-18.86-16.77,0-10.3,7-17,17.23-17a15.14,15.14,0,0,1,6.18,1v-15h8.94Zm-8.92-23.51a13,13,0,0,0-5.37-1c-5.47,0-9,3.28-9,9,0,6.1,3.92,9.57,10.21,9.57a17.78,17.78,0,0,0,4.18-.37Zm-49.75,0a14.34,14.34,0,0,1,5.28-.81c5.47,0,9.21,3.09,9.21,8.65,0,6.55-4.19,9.57-9.75,9.66v7.57h.46c11.47,0,18.31-6.3,18.31-17.5,0-10.21-7.29-16.23-18-16.23A40.08,40.08,0,0,0,198,55.45V98.74h8.93Z"/><path class="c" d="M128.05,31.66l1.46,1.64.83-.45Z"/><path class="c" d="M125.87,30.47l2.81,3.29,1-.55-1.09-1.27Z"/><path class="c" d="M123.59,29.29l4.29,4.93,1-.55-2.47-2.91Z"/><path class="c" d="M121.41,28.11,127,34.66l1-.54-3.92-4.56Zm10.84,11.58-.64.35.64.73Z"/><path class="c" d="M119.21,26.93l7,8.2,1-.54-5.29-6.18Zm12.7,12.94-1,.63,1.37,1.64V40.41Z"/><path class="c" d="M116.93,25.74l8.43,9.85,1.09-.56-6.71-7.83Zm14.14,14.58L130,41l2.19,2.55V41.78Z"/><path class="c" d="M114.75,24.56,124.68,36l1-.55L117.48,26Zm15.49,16.31-1,.54,3,3.56V43.24Z"/><path class="c" d="M112.57,23.36l11.3,13.11,1-.56L115.3,24.83Zm16.85,18-1,.54,3.83,4.47V44.6Z"/><path class="c" d="M110.28,22.19,123,37l1-.55L113.11,23.64Zm18.33,19.59-1,.55,4.69,5.37V46Z"/><path class="c" d="M108.1,21l14.12,16.5,1-.64L110.83,22.42Zm19.66,21.23-1,.55,5.47,6.38V47.43Z"/><path class="c" d="M105.82,19.82,121.41,38l1-.65-13.77-16Zm21.23,22.87-1.09.55,6.29,7.27V48.8Z"/><path class="c" d="M103.63,18.68l17,19.77,1.1-.63L106.45,20.09Zm22.61,24.51-1,.55,7,8.3V50.16Z"/><path class="c" d="M101.44,17.45l18.41,21.41,1-.63L104.18,18.9Zm24,26.15-1,.54,7.83,9.18V51.63Z"/><path class="c" d="M99.14,16.17,119,39.32l1-.64L102,17.74Zm25.42,27.89-1,.54,8.66,10.12V53Z"/><path class="c" d="M97,15l21.23,24.78,1-.54-19.4-22.7Zm26.79,29.52-1,.55,9.48,11.12V54.36Z"/><path class="c" d="M94.8,13.89l22.6,26.32,1-.54L97.53,15.33,94.8,13.86ZM123,45l-1,.54,10.3,12V55.81Z"/><path class="c" d="M93.34,13.53h0l23.23,27.15,1-.55-22.24-26-.54-.27A2.78,2.78,0,0,0,93.34,13.53Zm28.8,31.9-1,.54,11.12,13V57.18Z"/><path class="c" d="M93.34,13.53a5.05,5.05,0,0,0-1.1.18l23.51,27.44,1.1-.54L93.61,13.53Zm28.08,32.35-1,.55,11.85,13.94V58.5Z"/><path class="c" d="M92.51,13.62a2.73,2.73,0,0,0-.54.27l-.55.27L115.06,41.6l.93-.55ZM120.6,46.34l-1,.63,12.65,14.78V60Z"/><path class="c" d="M91.65,14l-1,.54,23.56,27.54,1-.55Zm28.09,32.77-1,.63,13.48,15.68V61.37Z"/><path class="c" d="M90.78,14.44l-1,.55,23.6,27.52,1-.55Zm28.16,32.77-1,.64,14.31,16.71V62.83Z"/><path class="c" d="M90,14.93l-1,.55L112.57,43l1-.54ZM118.12,47.7l-1,.64,15.13,17.59V64.2Z"/><path class="c" d="M89.14,15.35l-1,.52,23.6,27.53,1-.56ZM117.3,48.12l-1,.64,15.92,18.5V65.57Z"/><path class="c" d="M88.33,15.8l-1,.56,23.6,27.51,1-.54Zm28.24,32.77-1,.65,16.68,19.5V67Z"/><path class="c" d="M87.5,16.17l-1,.63,23.7,27.53,1-.54Zm28.25,33-1,.55,17.5,20.46V68.39Z"/><path class="c" d="M86.68,16.63l-1,.54,23.69,27.62,1-.55Zm28.26,33-1,.54,18.32,21.42V69.76Z"/><path class="c" d="M85.86,17.09l-1,.54,23.69,27.7,1-.63Zm28.26,33-1,.55L132.25,73V71.21Z"/><path class="c" d="M85,17.54l-1,.55,23.7,27.74,1-.64Zm28.26,33-1,.56,20,23.24V72.58Z"/><path class="c" d="M84.22,18l-1,.55,23.69,27.7,1-.63Zm28.25,33-1,.54,20.78,24.26V73.92Z"/><path class="c" d="M83.4,18.45l-1,.55,23.7,27.7,1-.64Zm28.34,33-1,.55,21.54,25.15V75.41Z"/><path class="c" d="M82.58,18.82l-1.1.54,23.89,27.8,1-.64ZM110.92,51.9l-1,.54,22.33,26.07V76.77Z"/><path class="c" d="M81.76,19.27l-1.09.55,24,27.88a.7.7,0,0,1,.36-.36l.54-.37ZM110.1,52.38l-1,.55,23,26.79a2.87,2.87,0,0,0,.18-.82v-.73Z"/><path class="c" d="M80.94,19.73l-1.1.54L104.36,48.8v-.37a2,2,0,0,1,.37-.93Zm28.34,33.08-.73.45c-.08,0-.18.1-.27.1L131.61,80.6a2.79,2.79,0,0,0,.54-1.09Z"/><path class="c" d="M80.11,20.18,79,20.73l25.33,29.53V48.43ZM106.73,52.9,131,81.24a6.35,6.35,0,0,0,.82-.82L108.5,53.26a1.58,1.58,0,0,1-1.28,0Z"/><path class="c" d="M79.3,20.63l-1.1.56,52,60.51.73-.37.27-.27-23.87-27.8h-.1L105.09,52c-.18-.09-.28-.28-.45-.46h0a3,3,0,0,1-.28-.63v-1Z"/><path class="c" d="M78.48,21.09l-1.1.55,52,60.51,1-.54Z"/><path class="c" d="M77.66,21.49,76.57,22l52,60.61,1-.55Z"/><path class="c" d="M76.84,21.91l-1.11.51,52,60.61,1-.55Z"/><path class="c" d="M76,22.37l-1.08.55,52,60.6,1-.55Z"/><path class="c" d="M75.11,22.83l-1,.53,52,60.7,1-.64Z"/><path class="c" d="M74.29,23.27l-1,.56,52.08,60.69,1-.64Z"/><path class="c" d="M73.47,23.73l-1,.57L124.59,85l1-.64Z"/><path class="c" d="M72.64,24.1l-1,.54,52.13,60.8,1-.64Z"/><path class="c" d="M71.83,24.56l-1,.54L123,85.88l1-.54Z"/><path class="c" d="M71.05,25l-1,.55L95.34,55.09l.82.54a1.33,1.33,0,0,1,.72,1.1v.08l25.28,29.53,1-.54Z"/><path class="c" d="M70.19,25.47l-1,.55L93,53.81l3,1.64Zm26.61,31c0,.08.08.17.08.27v1.54L121.31,86.8l1-.55Z"/><path class="c" d="M69.37,25.92l-1,.55,22.24,26,3,1.64Zm27.51,32v1.73l23.7,27.61,1-.54Z"/><path class="c" d="M68.54,26.37l-1,.56L88.33,51.07l2.91,1.64ZM96.88,59.28v1.87l22.86,26.56,1-.54Z"/><path class="c" d="M67.73,26.74l-1,.55L86,49.71l2.89,1.74Zm29.15,34v1.73l22.06,25.7,1-.55Z"/><path class="c" d="M66.9,27.2l-1,.54,17.68,20.6,2.92,1.73Zm30,34.9v1.73l21.25,24.79,1-.54Z"/><path class="c" d="M66.09,27.66l-1,.54L81.21,47.07l3,1.63ZM96.88,63.47v1.87L117.3,89.22l1-.64Z"/><path class="c" d="M65.27,28.11l-1,.55,14.58,17,2.92,1.64ZM96.88,64.93v1.73l19.67,23,1-.65Z"/><path class="c" d="M64.44,28.56l-1,.55,13,15.22,3,1.64ZM96.88,66.3V68l18.87,22,1-.64Z"/><path class="d" d="M63.63,29l-1,.55L74.1,43l3,1.74ZM87.5,58.54l2.37,2.74v-1a.75.75,0,0,0-.36-.55Zm9.37,9.12v1.82l18,21.06,1-.64Z"/><path class="c" d="M62.8,29.39l-1,.52L71.74,41.6l3,1.73ZM85.1,57.18l4.77,5.5V60.91l-1.73-2ZM96.88,69.12v1.73L114.12,91l1-.56Z"/><path class="c" d="M62,29.84l-1,.55,8.48,9.93L72.37,42ZM82.76,55.9l7.11,8.21V62.37l-4.1-4.83ZM96.88,70.49v1.72L113.3,91.45l1-.55Z"/><path class="c" d="M61.16,30.3l-1,.55L67.09,39,70,40.61ZM80.48,54.54l9.39,10.95V63.74L83.4,56.18Zm16.4,17.4v1.74L112.57,91.9l1-.55Z"/><path class="c" d="M60.34,30.76l-1,.54,5.38,6.29,2.91,1.69ZM78.13,53.17,89.87,66.84V65.11L81,54.9ZM96.86,73.31V75l14.85,17.32,1-.55Z"/><path class="c" d="M59.53,31.2l-1,.59,3.82,4.46L65.27,38Zm16.2,20.6L89.87,68.3V66.57l-11.23-13ZM96.88,74.68v1.73l14.05,16.4,1-.54Z"/><path class="c" d="M58.7,31.66l-1,.55L60,34.86l3,1.73ZM73.37,50.51l16.5,19.16V67.94L76.29,52.17ZM96.88,76.14v1.73l13.22,15.4,1-.55Z"/><path class="c" d="M57.88,32l-1.09.54.82,1,3,1.65ZM71,49.16l18.88,22V69.24L74,50.8ZM96.88,77.5v1.74l12.4,14.57,1-.63Z"/><path class="c" d="M57.06,32.49l-.63.36,1.81,1ZM68.64,47.8,89.87,72.5V70.76L71.64,49.58ZM96.88,78.87V80.7l11.67,13.57,1-.63Z"/><path class="c" d="M66.37,46.43l23.5,27.43V72.13l-20.6-24Zm30.52,33.9v1.73l10.85,12.67,1-.63Z"/><path class="c" d="M64,45.16,89.87,75.31V73.5l-23-26.73ZM96.88,81.67V83.4l10,11.78,1-.63Z"/><path class="c" d="M61.62,43.79,89.87,76.73V75L64.5,45.43ZM96.88,83.07v1.81l9.22,10.76,1-.54Z"/><path class="d" d="M59.25,42.42,89.87,78.05V76.32L62.17,44.14ZM96.88,84.55v1.74l8.43,9.85,1-.56Z"/><path class="e" d="M56.88,41.05l33,38.49V77.78l-30.05-35Zm40,44.83v1.74l7.66,8.93,1-.54Z"/><path class="f" d="M54.51,39.77,89.87,80.88V79.14L57.52,41.41ZM96.88,87.25v1.87l6.84,7.93,1-.54Z"/><path class="g" d="M54.42,39.69V41L89.87,82.24V80.47L55.13,40Zm42.46,49v1.13a.68.68,0,0,1-.17.45l6.18,7.18,1-.56Z"/><path class="h" d="M54.42,40.6v1.87L89.87,83.7V82ZM96.8,90.08a1.21,1.21,0,0,1-.64.82l-.09.1,6,6.92,1-.55Z"/><path class="i" d="M54.42,42.08v1.74L89.87,85.07V83.34ZM96.25,90.77c0,.1,0,.1-.09.1l-.93.54,6,6.93,1-.55Z"/><path class="j" d="M54.42,43.42v1.74L89.87,86.44V84.7Zm41.1,47.85-1.06.63,6.1,7,1-.64Z"/><path class="k" d="M54.42,44.89v1.74L89.87,87.9V86.17ZM94.68,91.71l-.63.36a1.21,1.21,0,0,1-.56.1l6.2,7.2,1-.64-6-7Z"/><path class="l" d="M54.42,46.24V48L89.87,89.26V87.53ZM91.87,91.71l7,8.12,1-.64-6.11-7c-.09,0-.28.09-.36.09h-.09a1.2,1.2,0,0,1-.64-.19Z"/><path class="m" d="M54.42,47.61v1.87l43.65,50.85,1-.64-6.55-7.64-2-1.1a1.26,1.26,0,0,1-.65-1.11V88.9Z"/><path class="n" d="M54.42,49.07V50.8l42.85,49.94,1-.54Z"/><path class="o" d="M54.42,50.44v1.73l42,49,1-.55Z"/><path class="p" d="M54.42,51.8v1.83l41.28,48,1-.58Z"/><path class="q" d="M54.42,53.26V55l40.46,47.11,1-.54Z"/><path class="r" d="M54.42,54.63v1.73L94,102.48l.83-.28.27-.18Z"/><path class="s" d="M54.42,56v1.87l38.39,44.65h.55a2.28,2.28,0,0,0,.82-.09Z"/><path class="t" d="M54.42,57.46v1.73l36.29,42.28,1.28.73a2.19,2.19,0,0,0,1.09.28Z"/><path class="u" d="M54.42,58.83v1.73l33.91,39.57,3,1.74Z"/><path class="v" d="M54.42,60.28V62L86,98.74l3,1.73Z"/><path class="w" d="M54.42,61.64v1.74l29.16,34L86.5,99.1Z"/><path class="x" d="M54.42,63v1.73L81.21,96l3,1.73Z"/><path class="y" d="M54.42,64.47V66.2L78.75,94.52l3,1.73Z"/><path class="z" d="M54.42,65.84v1.73l22,25.61,3,1.73Z"/><path class="aa" d="M54.42,67.21v1.73L74,91.81l3,1.77Z"/><path class="ab" d="M54.42,68.67V70.4l17.22,20,3,1.74Z"/><path class="ac" d="M54.42,70v1.74L69.27,89.08l3,1.69Z"/><path class="ad" d="M54.42,71.4v1.87L66.9,87.71l2.93,1.73Z"/><path class="ae" d="M54.42,72.86v1.73l10,11.75,3,1.74Z"/><path class="af" d="M54.42,74.23V76l7.65,9,3,1.63Z"/><path class="ag" d="M54.42,75.59v1.82l5.28,6.11,3,1.73Z"/><path class="ah" d="M54.42,77.05v1.73l2.91,3.37,3,1.73Z"/><path class="ai" d="M54.42,78.41v.46a3.24,3.24,0,0,0,1.37,2.46l2.15,1.18Z"/><path class="aj" d="M55,80.47c.17.19.27.37.45.46Z"/></svg>