<svg xmlns="http://www.w3.org/2000/svg" viewBox="0 0 320 120"><defs><style>.a{fill:none;}.b{fill:#3f3f42;}.aa,.ab,.ac,.ad,.ae,.af,.ag,.ah,.ai,.aj,.b,.c,.d,.e,.f,.g,.h,.i,.j,.k,.l,.m,.n,.o,.p,.q,.r,.s,.t,.u,.v,.w,.x,.y,.z{fill-rule:evenodd;}.c{fill:#dc0032;}.d{fill:#db0032;}.e{fill:#da0032;}.f{fill:#d90032;}.g{fill:#d80032;}.h{fill:#d70032;}.i{fill:#d60032;}.j{fill:#d50032;}.k{fill:#d40032;}.l{fill:#d30032;}.m{fill:#d20032;}.n{fill:#d10032;}.o{fill:#d00032;}.p{fill:#cf0032;}.q{fill:#ce0032;}.r{fill:#cd0032;}.s{fill:#cc0032;}.t{fill:#cb0032;}.u{fill:#ca0032;}.v{fill:#c90032;}.w{fill:#c80033;}.x{fill:#c70033;}.y{fill:#c60033;}.z{fill:#c50033;}.aa{fill:#c40033;}.ab{fill:#c30033;}.ac{fill:#c20033;}.ad{fill:#c10033;}.ae{fill:#c00033;}.af{fill:#bf0033;}.ag{fill:#be0033;}.ah{fill:#bd0033;}.ai{fill:#bc0033;}.aj{fill:#b03;}</style></defs><rect class="a" width="320" height="120"/><path class="b" d="M195.19,86.71a57,57,0,0,1-14.31,1.66c-12.17,0-20.15-6.33-20.15-17.91,0-11,7.49-18.11,18.4-18.11a16.46,16.46,0,0,1,6.61,1.08v-16h9.45ZM185.74,61.6a14.23,14.23,0,0,0-5.84-1.07c-5.74,0-9.53,3.5-9.53,9.64,0,6.52,4.08,10.22,10.8,10.22a19.66,19.66,0,0,0,4.57-.39Zm87,25.11a57.15,57.15,0,0,1-14.4,1.66c-12.07,0-20.15-6.33-20.15-17.91,0-11,7.49-18.11,18.4-18.11a16.15,16.15,0,0,1,6.61,1.08v-16h9.54ZM263.22,61.6a13.73,13.73,0,0,0-5.74-1.07c-5.84,0-9.63,3.5-9.63,9.64,0,6.52,4.18,10.22,10.9,10.22a18.86,18.86,0,0,0,4.47-.39Zm-53.14,0a15.31,15.31,0,0,1,5.64-.87c5.84,0,9.84,3.3,9.84,9.24,0,7-4.48,10.22-10.42,10.32v8.08h.49c12.26,0,19.56-6.72,19.56-18.69,0-10.9-7.78-17.33-19.27-17.33a43,43,0,0,0-15.38,2.92v46.24h9.54Z"/><path class="c" d="M128.22,31.14h0Z"/><path class="c" d="M125.88,29.87l1.56,1.75.88-.48Z"/><path class="c" d="M123.55,28.6l3,3.51,1.08-.59-1.17-1.36Z"/><path class="c" d="M121.11,27.34l4.58,5.26,1.07-.59-2.63-3.11Z"/><path class="c" d="M118.78,26.07l6,7,1.07-.58-4.18-4.87Zm11.58,12.37-.68.38.68.78Z"/><path class="c" d="M116.44,24.81l7.5,8.76L125,33l-5.65-6.61ZM130,38.63l-1.07.68,1.46,1.75V39.21l-.39-.58Z"/><path class="c" d="M114,23.54l9,10.52,1.17-.59L117,25.1ZM129.1,39.12,128,39.8l2.34,2.72V40.67Z"/><path class="c" d="M111.67,22.28l10.61,12.26,1.07-.58-8.76-10.12ZM128.22,39.7l-1.07.58,3.21,3.8V42.23Z"/><path class="c" d="M109.34,21l12.07,14,1.07-.59L112.26,22.57Zm18,19.18-1.07.58,4.09,4.77V43.69Z"/><path class="c" d="M106.9,19.75l13.63,15.77,1.07-.59L109.92,21.3Zm19.57,20.92-1.07.59,5,5.74V45.15Z"/><path class="c" d="M104.57,18.48,119.65,36.1l1.07-.68L107.49,20Zm21,22.68-1.07.58,5.84,6.82V46.71Z"/><path class="c" d="M102.13,17.22l16.65,19.37,1.07-.69-14.7-17.13Zm22.68,24.43-1.17.58L130.36,50V48.17Z"/><path class="c" d="M99.8,16l18.1,21.12,1.17-.68L102.81,17.51Zm24.14,26.18-1.07.59,7.49,8.86V49.63Z"/><path class="c" d="M97.46,14.69l19.66,22.87,1.07-.68L100.38,16.24Zm25.6,27.93L122,43.2,130.36,53V51.19Z"/><path class="c" d="M95,13.32l21.22,24.73,1.07-.69L98.05,15Zm27.15,29.79-1.07.58,9.25,10.81V52.65Z"/><path class="c" d="M92.69,12.06l22.68,26.47,1.07-.58L95.71,13.71Zm28.62,31.53-1.07.59,10.12,11.87V54.11Z"/><path class="c" d="M90.36,10.89,114.5,39l1.07-.58-22.29-26-2.92-1.56Zm30.07,33.19-1.07.58,11,12.85V55.66Z"/><path class="c" d="M88.8,10.5h0l24.82,29,1.07-.59L90.94,11.18l-.58-.29A2.9,2.9,0,0,0,88.8,10.5Zm30.76,34.07-1.07.58L130.36,59V57.12Z"/><path class="c" d="M88.8,10.5a5.29,5.29,0,0,0-1.17.19L112.74,40l1.17-.58L89.09,10.5Zm30,34.55-1.07.59,12.65,14.89v-2Z"/><path class="c" d="M87.92,10.6a2.84,2.84,0,0,0-.58.29l-.59.29L112,40.48,113,39.9Zm30,34.94-1.07.68L130.36,62V60.14Z"/><path class="c" d="M87,11l-1.07.58L111.09,41l1.07-.59ZM117,46l-1.07.68,14.4,16.74V61.6Z"/><path class="c" d="M86.07,11.47,85,12.06l25.21,29.39,1.07-.58Zm30.08,35-1.07.69L130.36,65V63.16Z"/><path class="c" d="M85.2,12l-1.07.58,25.21,29.4,1.07-.58Zm30.07,35-1.07.68,16.16,18.79V64.62Z"/><path class="c" d="M84.32,12.45,83.25,13l25.21,29.4,1.07-.59Zm30.08,35-1.07.68,17,19.76V66.08Z"/><path class="c" d="M83.45,12.93l-1.08.59,25.21,29.39,1.08-.58Zm30.17,35-1.07.69,17.81,20.83V67.64Z"/><path class="c" d="M82.57,13.32,81.5,14l25.31,29.4,1.07-.58Zm30.17,35.24-1.07.58L130.36,71V69.1Z"/><path class="c" d="M81.69,13.81l-1.07.58,25.31,29.5L107,43.3Zm30.18,35.24-1.07.58L130.36,72.5V70.56Z"/><path class="c" d="M80.82,14.3l-1.07.58,25.3,29.59,1.07-.68ZM111,49.53l-1.07.59L130.36,74V72.11Z"/><path class="c" d="M79.94,14.78l-1.07.59L104.18,45l1.07-.68ZM110.12,50,109,50.6l21.32,24.82V73.57Z"/><path class="c" d="M79.06,15.27,78,15.85,103.3,45.44l1.07-.68Zm30.18,35.24-1.07.58L130.36,77V75Z"/><path class="c" d="M78.19,15.76l-1.07.58,25.31,29.59,1.07-.68ZM108.46,51l-1.07.59,23,26.86V76.59Z"/><path class="c" d="M77.31,16.15l-1.17.58,25.51,29.69,1.07-.68Zm30.27,35.33-1.07.58L130.36,79.9V78.05Z"/><path class="c" d="M76.44,16.63l-1.17.59L100.87,47a.78.78,0,0,1,.39-.39l.58-.39ZM106.71,52l-1.07.58,24.53,28.62a3.16,3.16,0,0,0,.19-.88v-.78L106.71,52Z"/><path class="c" d="M75.56,17.12l-1.17.58,26.19,30.47v-.39a2,2,0,0,1,.39-1Zm30.27,35.33-.78.49c-.09,0-.19.1-.29.1l24.92,29.1a3.2,3.2,0,0,0,.58-1.17Z"/><path class="c" d="M74.68,17.61l-1.16.58,27.06,31.54V47.78Zm28.43,34.94L129,82.82a6.6,6.6,0,0,0,.87-.88L105,52.94a1.72,1.72,0,0,1-1.37,0Z"/><path class="c" d="M73.81,18.09l-1.17.59,55.48,64.63.78-.39.29-.29-25.5-29.69h-.1l-2.24-1.36c-.19-.1-.29-.3-.48-.49h0a2.9,2.9,0,0,1-.29-.68V49.34Z"/><path class="c" d="M72.93,18.58l-1.17.58,55.49,64.63,1.07-.58Z"/><path class="c" d="M72.06,19l-1.17.58,55.58,64.73,1.07-.58Z"/><path class="c" d="M71.18,19.45,70,20l55.58,64.73,1.07-.59Z"/><path class="c" d="M70.3,19.94l-1.16.59,55.58,64.72,1.07-.58Z"/><path class="c" d="M69.33,20.43,68.26,21l55.58,64.83,1.07-.68Z"/><path class="c" d="M68.46,20.91l-1.08.59L123,86.32l1.07-.68Z"/><path class="c" d="M67.58,21.4,66.51,22l55.67,64.82,1.08-.68Z"/><path class="c" d="M66.7,21.79l-1.07.58L121.31,87.3l1.07-.68Z"/><path class="c" d="M65.83,22.28l-1.07.58,55.67,64.92,1.07-.58Z"/><path class="c" d="M65,22.76l-1.07.59L90.94,54.89l.88.58a1.42,1.42,0,0,1,.77,1.17v.09l27,31.54,1.07-.58Z"/><path class="c" d="M64.08,23.25,63,23.84,88.41,53.52l3.21,1.75ZM92.5,56.35c0,.09.09.19.09.29v1.65l26.09,30.47,1.07-.59Z"/><path class="c" d="M63.2,23.74l-1.07.58L85.88,52.06l3.21,1.75ZM92.59,57.9v1.85L117.9,89.24l1.07-.58Z"/><path class="c" d="M62.32,24.22l-1.07.59L83.45,50.6l3.11,1.75ZM92.59,59.36v2L117,89.73l1.07-.58Z"/><path class="c" d="M61.45,24.61l-1.07.59L80.91,49.14,84,51ZM92.59,60.92v1.85l23.56,27.45,1.07-.59Z"/><path class="c" d="M60.57,25.1l-1.07.58,18.88,22,3.12,1.85Zm32,37.28v1.85L115.27,90.7l1.07-.58Z"/><path class="c" d="M59.7,25.59l-1.08.58L75.85,46.32,79,48.07ZM92.59,63.84v2l21.81,25.5,1.07-.68Z"/><path class="c" d="M58.82,26.07l-1.07.59,15.57,18.2,3.12,1.75ZM92.59,65.4v1.85l21,24.53,1.07-.69Z"/><path class="c" d="M57.94,26.56l-1.07.58L70.79,43.4,74,45.15Zm34.65,40.3v1.85l20.15,23.55,1.07-.68Z"/><path class="d" d="M57.07,27.05,56,27.63,68.26,41.94l3.21,1.85Zm25.5,31.53L85.1,61.5V60.43a.79.79,0,0,0-.39-.58Zm10,9.74v1.94l19.28,22.49,1.07-.68Z"/><path class="c" d="M56.19,27.44,55.12,28,65.73,40.48l3.21,1.85ZM80,57.12,85.1,63V61.11L83.25,59ZM92.59,69.88v1.84L111,93.24l1.07-.59Z"/><path class="c" d="M55.31,27.92l-1.07.59L63.3,39.12l3.11,1.75Zm22.2,27.84,7.59,8.76V62.67l-4.38-5.16ZM92.59,71.34v1.84l17.53,20.54,1.07-.58Z"/><path class="c" d="M54.44,28.41,53.37,29l7.4,8.67,3.11,1.75ZM75.07,54.3,85.1,66V64.13l-6.91-8.08ZM92.59,72.89v1.85l16.75,19.47,1.07-.59Z"/><path class="c" d="M53.56,28.9l-1.07.58,5.75,6.72L61.35,38Zm19,23.94L85.1,67.44V65.59l-9.44-10.9Zm20,21.51V76.2l15.87,18.5,1.07-.59Z"/><path class="c" d="M52.69,29.38,51.62,30l4.08,4.77,3.12,1.85ZM70,51.38,85.1,69V67.15l-12-13.92ZM92.59,75.81v1.85l15,17.52,1.08-.58Z"/><path class="c" d="M51.81,29.87l-1.07.58,2.43,2.83,3.22,1.85ZM67.48,50,85.1,70.46V68.61L70.6,51.77ZM92.59,77.37v1.85l14.12,16.45,1.07-.59Z"/><path class="c" d="M50.93,30.26l-1.16.58.87,1.07,3.21,1.76Zm14,18.3L85.1,72v-2L68.16,50.31ZM92.59,78.83v1.85l13.24,15.57,1.07-.68Z"/><path class="c" d="M50.06,30.75l-.68.39,1.94,1.07ZM62.42,47.1,85.1,73.48V71.63L65.63,49ZM92.59,80.29v1.95l12.46,14.5,1.07-.68Z"/><path class="c" d="M60,45.64,85.1,74.94V73.09l-22-25.6Zm32.6,36.21V83.7l11.59,13.53,1.07-.68Z"/><path class="c" d="M57.46,44.28,85.1,76.49V74.55L60.57,46Zm35.13,39v1.85L103.3,97.71l1.07-.68Z"/><path class="c" d="M54.93,42.82,85.1,78V76.1L58,44.57ZM92.59,84.77v1.94l9.84,11.49,1.07-.58Z"/><path class="d" d="M52.39,41.36,85.1,79.41V77.56L55.51,43.2Zm40.2,45v1.85l9,10.52,1.07-.59Z"/><path class="e" d="M49.86,39.9,85.1,81V79.12L53,41.74ZM92.59,87.78v1.85l8.18,9.54,1.07-.58Z"/><path class="f" d="M47.33,38.53,85.1,82.43V80.58L50.55,40.28ZM92.59,89.24v2l7.3,8.47,1.08-.58Z"/><path class="g" d="M47.24,38.44V39.8L85.1,83.89V82L48,38.82ZM92.59,90.8V92a.75.75,0,0,1-.19.49L99,100.15l1.07-.59Z"/><path class="h" d="M47.24,39.41v2L85.1,85.45V83.6ZM92.5,92.26a1.31,1.31,0,0,1-.68.88l-.1.1,6.42,7.39,1.07-.58Z"/><path class="i" d="M47.24,41v1.85L85.1,86.91V85.06ZM91.91,93c0,.1,0,.1-.09.1l-1,.58,6.43,7.4,1.07-.58L91.91,93Z"/><path class="j" d="M47.24,42.43v1.85L85.1,88.37V86.52Zm43.89,51.1L90,94.21l6.52,7.49,1.07-.68Z"/><path class="k" d="M47.24,44v1.85L85.1,89.93V88.08Zm43,50-.68.39a1.23,1.23,0,0,1-.59.1l6.62,7.69,1.07-.68L90.26,94Z"/><path class="l" d="M47.24,45.44v1.85L85.1,91.39V89.54ZM87.24,94l7.5,8.67,1.07-.68-6.52-7.5c-.1,0-.3.1-.39.1h-.1a1.37,1.37,0,0,1-.68-.2L87.24,94Z"/><path class="m" d="M47.24,46.9v2l46.62,54.31,1.07-.68-7-8.17-2.14-1.17A1.35,1.35,0,0,1,85.1,92V91Z"/><path class="n" d="M47.24,48.46v1.85L93,103.65l1.07-.58Z"/><path class="o" d="M47.24,49.92v1.85l44.87,52.37,1.07-.59Z"/><path class="p" d="M47.24,51.38v1.95l44.09,51.29L92.4,104Z"/><path class="q" d="M47.24,52.94v1.85l43.21,50.32,1.07-.58Z"/><path class="r" d="M47.24,54.4v1.85L89.48,105.5l.88-.29.29-.2Z"/><path class="s" d="M47.24,55.86v2l41,47.69h.59a2.59,2.59,0,0,0,.87-.1Z"/><path class="t" d="M47.24,57.42v1.85L86,104.43l1.36.78a2.36,2.36,0,0,0,1.17.29Z"/><path class="u" d="M47.24,58.88v1.85L83.45,103l3.21,1.85Z"/><path class="v" d="M47.24,60.43v1.85l33.67,39.23,3.22,1.85Z"/><path class="w" d="M47.24,61.89v1.85l31.14,36.31,3.12,1.85Z"/><path class="x" d="M47.24,63.35V65.2L75.85,98.59,79,100.44Z"/><path class="y" d="M47.24,64.91v1.85L73.22,97l3.22,1.85Z"/><path class="z" d="M47.24,66.37v1.85L70.69,95.57l3.22,1.85Z"/><path class="aa" d="M47.24,67.83v1.85L68.16,94.11,71.38,96Z"/><path class="ab" d="M47.24,69.39v1.85L65.63,92.65l3.21,1.85Z"/><path class="ac" d="M47.24,70.85V72.7L63.1,91.19,66.31,93Z"/><path class="ad" d="M47.24,72.31v2L60.57,89.73l3.12,1.85Z"/><path class="ae" d="M47.24,73.87v1.85l10.7,12.55,3.22,1.85Z"/><path class="af" d="M47.24,75.33v1.85l8.17,9.63,3.21,1.75Z"/><path class="ag" d="M47.24,76.79v1.94l5.64,6.52,3.21,1.85Z"/><path class="ah" d="M47.24,78.34v1.85l3.11,3.6,3.21,1.85Z"/><path class="ai" d="M47.24,79.8v.49a3.47,3.47,0,0,0,1.46,2.63L51,84.18Z"/><path class="aj" d="M47.82,82c.19.2.29.39.49.49Z"/></svg>