<svg xmlns="http://www.w3.org/2000/svg" viewBox="0 0 320 120"><defs><style>.a{fill:none;}.b{fill:#1a1a1a;}.c{fill:#fff;}</style></defs><rect class="a" width="320" height="120"/><rect class="b" x="10" y="20" width="300" height="80" rx="9"/><path class="c" d="M264.5,37.46H235.06a7,7,0,0,0-6.76,6,5.13,5.13,0,0,0,4.19,5.92,5.61,5.61,0,0,0,1,.07h8.27l-3.57,27.13a5.52,5.52,0,0,0,4.52,6.36,5.6,5.6,0,0,0,1.08.07,7.58,7.58,0,0,0,7.29-6.43l3.58-27.13h8.28a7,7,0,0,0,6.76-6,5.13,5.13,0,0,0-4.19-5.91A5.65,5.65,0,0,0,264.5,37.46Z"/><path class="c" d="M84,37.46H61.88a7.58,7.58,0,0,0-7.28,6.45L50.32,76.09a5.53,5.53,0,0,0,4.54,6.37,6.35,6.35,0,0,0,1.07.08H78a7.05,7.05,0,0,0,6.77-6,5.14,5.14,0,0,0-4.2-5.92,5.43,5.43,0,0,0-1-.07H63.92l2.8-21.14H82.38a7,7,0,0,0,6.76-6,5.13,5.13,0,0,0-4.2-5.91A6.59,6.59,0,0,0,84,37.46Z"/><circle class="c" cx="75.99" cy="60" r="7.13"/><path class="c" d="M219.26,37A7.58,7.58,0,0,0,212,43.44l-1.33,10.12H197.3l1.34-10.12A5.5,5.5,0,0,0,193,37a7.59,7.59,0,0,0-7.29,6.43l-4.35,33.12a5.52,5.52,0,0,0,4.52,6.36A5.6,5.6,0,0,0,187,83a7.59,7.59,0,0,0,7.29-6.43l1.45-11h13.34l-1.44,11a5.52,5.52,0,0,0,4.53,6.36,5.45,5.45,0,0,0,1.07.07,7.59,7.59,0,0,0,7.29-6.43l4.36-33.12a5.52,5.52,0,0,0-4.52-6.36A5.13,5.13,0,0,0,219.26,37Z"/><path class="c" d="M157.9,37c-13.83,0-24.16,8.6-26,23s6.16,23,20,23,24-8.51,26-23S171.73,37,157.9,37ZM165,60c-.94,7.13-5.36,11-11.57,11s-9.6-3.91-8.67-11S150,49,156.32,49,165.92,52.87,165,60Z"/><path class="c" d="M157.9,37c-13.83,0-24.16,8.6-26,23s6.16,23,20,23,24-8.51,26-23S171.73,37,157.9,37ZM165,60c-.94,7.13-5.36,11-11.57,11s-9.6-3.91-8.67-11S150,49,156.32,49,165.92,52.87,165,60Z"/><path class="c" d="M126.88,37A7.17,7.17,0,0,0,122,39h0l-.1.08h0L106.4,53.71l1.36-10.28A5.5,5.5,0,0,0,102.15,37a7.58,7.58,0,0,0-7.28,6.43L90.52,76.56A5.52,5.52,0,0,0,95,82.92a5.6,5.6,0,0,0,1.08.07,7.59,7.59,0,0,0,7.29-6.43l1.49-11.27,12.67,15.54.06.07.1.12h0A5.54,5.54,0,0,0,122,82.89a7.47,7.47,0,0,0,7.19-6.3,5.56,5.56,0,0,0-1.3-4.51h0L117,59.5l12.88-11.59h0a7.26,7.26,0,0,0,2.56-4.58A5.41,5.41,0,0,0,128,37.08,5,5,0,0,0,126.88,37Z"/></svg>