<svg xmlns="http://www.w3.org/2000/svg" width="128" height="64" fill="none"><rect width="128" height="64" fill="#1A1A1A" rx="6"/><path fill="#fff" d="M111.598 21.73h-13.41a3.189 3.189 0 0 0-3.08 2.734 2.337 2.337 0 0 0 2.365 2.728h3.767l-1.626 12.359a2.513 2.513 0 0 0 2.551 2.929 3.452 3.452 0 0 0 3.32-2.93l1.631-12.358h3.772a3.19 3.19 0 0 0 3.079-2.733 2.336 2.336 0 0 0-1.908-2.692 2.583 2.583 0 0 0-.461-.036ZM29.377 21.73H19.3a3.453 3.453 0 0 0-3.317 2.939l-1.95 14.658a2.519 2.519 0 0 0 2.069 2.902c.161.026.324.038.487.037h10.054a3.212 3.212 0 0 0 3.084-2.734 2.342 2.342 0 0 0-2.37-2.728H20.23l1.275-9.63h7.134a3.189 3.189 0 0 0 3.08-2.733 2.337 2.337 0 0 0-1.914-2.692 3.002 3.002 0 0 0-.428-.018Z"/><path fill="#fff" d="M25.728 35.246a3.248 3.248 0 1 0 0-6.496 3.248 3.248 0 0 0 0 6.496ZM90.991 21.521a3.452 3.452 0 0 0-3.307 2.934l-.606 4.61h-6.09l.61-4.61a2.506 2.506 0 0 0-2.57-2.934 3.457 3.457 0 0 0-3.32 2.93l-1.981 15.086a2.515 2.515 0 0 0 2.059 2.897c.168.03.339.045.51.041a3.457 3.457 0 0 0 3.32-2.929l.661-5.01h6.077l-.656 5.01a2.516 2.516 0 0 0 2.063 2.897c.161.027.325.038.488.032a3.457 3.457 0 0 0 3.32-2.929l1.987-15.087a2.515 2.515 0 0 0-2.06-2.897 2.337 2.337 0 0 0-.505-.04ZM63.04 21.521c-6.3 0-11.005 3.918-11.843 10.477-.839 6.56 2.805 10.477 9.11 10.477 6.304 0 10.933-3.876 11.843-10.477.912-6.6-2.81-10.477-9.11-10.477Zm3.234 10.477c-.428 3.248-2.441 5.01-5.27 5.01-2.829 0-4.373-1.78-3.95-5.01.424-3.23 2.387-5.01 5.266-5.01 2.88 0 4.373 1.762 3.954 5.01Z"/><path fill="#fff" d="M63.04 21.521c-6.3 0-11.005 3.918-11.843 10.477-.839 6.56 2.805 10.477 9.11 10.477 6.304 0 10.933-3.876 11.843-10.477.912-6.6-2.81-10.477-9.11-10.477Zm3.234 10.477c-.428 3.248-2.441 5.01-5.27 5.01-2.829 0-4.373-1.78-3.95-5.01.424-3.23 2.387-5.01 5.266-5.01 2.88 0 4.373 1.762 3.954 5.01ZM48.91 21.521c-.83.01-1.625.336-2.223.911l-.046.037-7.06 6.664.619-4.683a2.505 2.505 0 0 0-2.556-2.929 3.453 3.453 0 0 0-3.316 2.93l-1.981 15.09a2.515 2.515 0 0 0 2.04 2.898c.163.026.328.037.492.032a3.458 3.458 0 0 0 3.321-2.93l.679-5.133 5.772 7.079.027.032.045.054a2.524 2.524 0 0 0 1.964.852 3.402 3.402 0 0 0 3.275-2.87 2.533 2.533 0 0 0-.592-2.054l-4.961-5.73 5.867-5.28a3.307 3.307 0 0 0 1.166-2.087 2.464 2.464 0 0 0-2.022-2.846 2.273 2.273 0 0 0-.51-.037Z"/></svg>