<svg xmlns="http://www.w3.org/2000/svg" viewBox="0 0 323.13 120.41"><defs><style>.a{fill:none;}.b{fill:#1a1a1a;}.c{fill:#fff;}</style></defs><rect class="a" width="323.13" height="120.41"/><rect class="b" x="11.56" y="20.21" width="300" height="80" rx="9"/><path class="c" d="M273.45,36.08H241.94a7.53,7.53,0,0,0-7.25,6.4,5.5,5.5,0,0,0,5.56,6.4h8.87l-3.84,29.05a5.91,5.91,0,0,0,6,6.89,8.1,8.1,0,0,0,7.8-6.89l3.83-29.05h8.86a7.54,7.54,0,0,0,7.25-6.4A5.49,5.49,0,0,0,273.45,36.08Z"/><path class="c" d="M80.14,36.08H56.5A8.11,8.11,0,0,0,48.7,43L44.12,77.44a5.91,5.91,0,0,0,6,6.89H73.74A7.53,7.53,0,0,0,81,77.93a5.5,5.5,0,0,0-5.56-6.4H58.69l3-22.65H78.45a7.54,7.54,0,0,0,7.25-6.4A5.49,5.49,0,0,0,80.14,36.08Z"/><circle class="c" cx="71.62" cy="60.21" r="7.63"/><path class="c" d="M225,35.59a8.12,8.12,0,0,0-7.81,6.89l-1.42,10.83H201.51l1.42-10.83a5.9,5.9,0,0,0-6-6.89,8.1,8.1,0,0,0-7.8,6.89l-4.67,35.45a5.91,5.91,0,0,0,6,6.89,8.11,8.11,0,0,0,7.8-6.89l1.55-11.82H214.1l-1.55,11.82a5.91,5.91,0,0,0,6,6.89,8.1,8.1,0,0,0,7.8-6.89L231,42.48A5.91,5.91,0,0,0,225,35.59Z"/><path class="c" d="M159.31,35.59c-14.8,0-25.87,9.2-27.86,24.62s6.6,24.61,21.38,24.61,25.78-9.1,27.86-24.61S174.12,35.59,159.31,35.59Zm7.59,24.62c-1,7.63-5.73,11.81-12.39,11.81s-10.28-4.18-9.27-11.81,5.62-11.82,12.38-11.82S167.91,52.57,166.9,60.21Z"/><path class="c" d="M159.31,35.59c-14.8,0-25.87,9.2-27.86,24.62s6.6,24.61,21.38,24.61,25.78-9.1,27.86-24.61S174.12,35.59,159.31,35.59Zm7.59,24.62c-1,7.63-5.73,11.81-12.39,11.81s-10.28-4.18-9.27-11.81,5.62-11.82,12.38-11.82S167.91,52.57,166.9,60.21Z"/><path class="c" d="M126.1,35.59a7.77,7.77,0,0,0-5.19,2.1h0l-.1.1,0,0L104.17,53.46l1.45-11a5.91,5.91,0,0,0-6-6.89,8.11,8.11,0,0,0-7.8,6.89L87.17,77.93a5.9,5.9,0,0,0,6,6.89,8.1,8.1,0,0,0,7.8-6.89l1.59-12.07L116.13,82.5l.07.08.1.13h0a5.89,5.89,0,0,0,4.56,2A8,8,0,0,0,128.52,78a6,6,0,0,0-1.38-4.82h0L115.43,59.66l13.79-12.4h0a7.85,7.85,0,0,0,2.76-4.9A5.81,5.81,0,0,0,126.1,35.59Z"/></svg>