<svg xmlns="http://www.w3.org/2000/svg" viewBox="0 0 320 120"><defs><style>.a{fill:none;}.b{fill:#1a1a1a;}.c{fill:#fff;}</style></defs><rect class="a" width="320" height="120"/><rect class="b" x="10" y="20" width="300" height="80" rx="9"/><path class="c" d="M271.89,35.87H240.37a7.54,7.54,0,0,0-7.24,6.4,5.49,5.49,0,0,0,5.56,6.41h8.86l-3.83,29.05a5.91,5.91,0,0,0,6,6.89,8.11,8.11,0,0,0,7.8-6.89l3.84-29.05h8.86a7.53,7.53,0,0,0,7.24-6.41A5.48,5.48,0,0,0,271.89,35.87Z"/><path class="c" d="M78.57,35.87H54.94a8.11,8.11,0,0,0-7.8,6.9L42.56,77.23a5.92,5.92,0,0,0,6,6.9H72.18a7.53,7.53,0,0,0,7.24-6.4,5.49,5.49,0,0,0-5.55-6.41H57.12l3-22.64H76.89a7.53,7.53,0,0,0,7.24-6.41A5.49,5.49,0,0,0,78.57,35.87Z"/><circle class="c" cx="70.05" cy="60" r="7.63"/><path class="c" d="M223.45,35.38a8.11,8.11,0,0,0-7.8,6.89l-1.43,10.84H199.94l1.43-10.84a5.91,5.91,0,0,0-6-6.89,8.13,8.13,0,0,0-7.81,6.89l-4.66,35.46a5.91,5.91,0,0,0,6,6.89,8.11,8.11,0,0,0,7.8-6.89l1.56-11.82h14.28L211,77.73a5.91,5.91,0,0,0,6,6.89,8.12,8.12,0,0,0,7.8-6.89l4.67-35.46A5.91,5.91,0,0,0,223.45,35.38Z"/><path class="c" d="M157.75,35.38c-14.81,0-25.87,9.21-27.87,24.62s6.6,24.62,21.38,24.62S177,75.51,179.12,60,172.56,35.38,157.75,35.38ZM165.34,60c-1,7.63-5.74,11.82-12.39,11.82S142.67,67.63,143.67,60s5.63-11.82,12.39-11.82S166.34,52.37,165.34,60Z"/><path class="c" d="M157.75,35.38c-14.81,0-25.87,9.21-27.87,24.62s6.6,24.62,21.38,24.62S177,75.51,179.12,60,172.56,35.38,157.75,35.38ZM165.34,60c-1,7.63-5.74,11.82-12.39,11.82S142.67,67.63,143.67,60s5.63-11.82,12.39-11.82S166.34,52.37,165.34,60Z"/><path class="c" d="M124.54,35.38a7.7,7.7,0,0,0-5.19,2.11h0l-.1.09,0,0L102.61,53.26l1.45-11a5.91,5.91,0,0,0-6-6.89,8.11,8.11,0,0,0-7.8,6.89L85.6,77.73a5.91,5.91,0,0,0,6,6.89,8.12,8.12,0,0,0,7.8-6.89L101,65.66,114.57,82.3l.06.08.11.13h0a5.91,5.91,0,0,0,4.56,2A8,8,0,0,0,127,77.76a6,6,0,0,0-1.39-4.83h0l-11.7-13.47,13.79-12.4h0a7.81,7.81,0,0,0,2.75-4.91A5.8,5.8,0,0,0,124.54,35.38Z"/></svg>