<svg xmlns="http://www.w3.org/2000/svg" width="128" height="64" fill="none"><rect width="128" height="64" fill="#fff" rx="6"/><path fill="#007BC4" fill-rule="evenodd" d="M108.599 17.456c1.998 0 3.621 1.54 3.621 3.537 0 2.008-1.623 3.536-3.621 3.536-1.996 0-3.62-1.54-3.62-3.536 0-2.008 1.624-3.537 3.62-3.537Zm-69.963.193v7.628h-4.884v-3.092h-11.75v7.637h10.681v4.332H22.002v7.71h11.751v-3.091h4.885v7.638H14v-4.546h2.707v-19.68H14v-4.536h24.636Zm17.226 20.294 7.88-20.294h3.007L55.322 46.544H52.17L40.682 17.649h7.373l7.807 20.294Zm17.143-6.449V21.161H88.38c2.573 0 4.04.434 5.039 1.348.89.818 1.396 1.996 1.396 3.572 0 1.625-.445 2.96-1.348 3.91-.938.987-2.345 1.515-4.991 1.515h-15.47v-.012Zm28.702 14.917-10.165-11.74c4.318-.445 7.59-3.573 7.59-8.638 0-2.562-.77-4.524-2.226-5.894-1.792-1.695-4.389-2.49-8.526-2.49H68.818V46.41h4.186V35.008h13.87l9.683 11.403h5.15Zm10.044-3.874c0 1.684.698 2.37 2.249 3.152v.721h-10.489v-.72c1.552-.77 2.25-1.469 2.25-3.153V31.53c0-1.49-.264-2.308-2.25-3.632v-.72h8.24v15.36Z" clip-rule="evenodd"/></svg>