<svg xmlns="http://www.w3.org/2000/svg" viewBox="0 0 320 120"><defs><style>.a{fill:none;}.b{fill:#919396;}.c{fill:#0f2345;}.d{fill:#475f9a;}.e{fill:#bad2ed;}</style></defs><rect class="a" width="320" height="120"/><path d="M154.76,83.57l-8.18,20.93h3.56l.86-2.21h5.78l.57,2.22H169.1l-8.77-20.93Zm-.48,10.23,1.54,5.35h-3.56Z"/><path d="M130.61,83.58H146v3.23h-4.43v5.24H146v3.12h-4.43v9.33H130.62Z"/><path d="M169.86,83.58h7.5l8.76,8.19V83.86h3.27V104.5h-6.16L173.13,95v9.48h-3.27Z"/><path class="b" d="M167.89,107v1.72h4V107Zm-33.48,1.83a4.33,4.33,0,0,0-2.6.63,2.67,2.67,0,0,0-1.18,2.33,2.64,2.64,0,0,0,1.18,2.31,4.21,4.21,0,0,0,2.59.63h.77v-1.1h-.67a.45.45,0,0,1-.39-.45v-2.8c0-.18.09-.36.39-.45h.72l.12-1.09h-.93Zm7.5,0a4.46,4.46,0,0,0-2.69.83,2.55,2.55,0,0,0-1.18,2.2,2.88,2.88,0,0,0,1.18,2.22,4.26,4.26,0,0,0,2.69.81H142a4.37,4.37,0,0,0,2.71-.81,2.82,2.82,0,0,0,1.15-2.22,2.55,2.55,0,0,0-1.16-2.2,4.52,4.52,0,0,0-2.71-.83h-.08Zm36.08,0a3.86,3.86,0,0,0-2.4.83,2.46,2.46,0,0,0-1.07,2.2,2.5,2.5,0,0,0,1.63,2.57,5.5,5.5,0,0,0,2.22.47,13.5,13.5,0,0,0,2.69-.36v-1.19a7,7,0,0,1-1.44.18c-1.24,0-1.38-.52-1.36-1.2h2.89a6.26,6.26,0,0,0-.18-1.49,2.39,2.39,0,0,0-.76-1.27,3.44,3.44,0,0,0-2.22-.74Zm-29.62.16v3.89a1.78,1.78,0,0,0,.66,1.55,2.79,2.79,0,0,0,1.83.57,4.39,4.39,0,0,0,2.21-.57v.27h4.05V109h-4v3.8c0,.18,0,.27-.09.36s-.2.09-.4.09a.43.43,0,0,1-.48-.45V109h-3.78Zm11.24,0v5.72h4.14V111.5a1,1,0,0,1,.48-1,2.1,2.1,0,0,1,1.15-.27V109a3.64,3.64,0,0,0-1.62.38V109h-4.15Zm8.28,0v5.72h4V109Zm15.78,0v5.72h4V111.5a1.23,1.23,0,0,1,.48-1,2.23,2.23,0,0,1,1.16-.27V109a4.37,4.37,0,0,0-1.63.38V109h-4Zm-4.81,1.11c.45,0,.52.62.67,1h-1.27C178.37,110.45,178.57,110.1,178.86,110.1Zm-36.94.09H142a.47.47,0,0,1,.48.44v2.61a.43.43,0,0,1-.41.45h-.16a.45.45,0,0,1-.48-.4v-2.61a.46.46,0,0,1,.44-.48h0Z"/><path class="c" d="M127.48,21.76V62.9l13,6.76,2.69-1.27V26.32L158,23.79V22.25l-17.55,3-13-3.48Z"/><path class="c" d="M147.16,27.33V72.58l13,6.76,2.71-1.51v-46l14-4V26.32L160.2,30.81Z"/><path class="c" d="M146.87,19.06v1.09l11.2,2.1v1.51l2.77-.57V21.75Zm16.67,3V65.78l16.17,3.77V25.09Z"/><path class="c" d="M69.67,5l.73,11.23,25.34,12c-8.37-3.3-14.7-5.85-19.15-7.64l.22,4.55,1.38.72C88.76,31.38,97,35.5,103.09,38.33L83.94,29.86,84.16,35l1.68.78,1.6.86c.72.36,1.45.67,2.19,1L115.24,50.5,90.85,39.21l.22,5.06,33.66,17.18h.07V21.23h.14Zm57.81,16.76V62.9l13,6.73V25.23l-13-3.48Zm15.74,4.56V70.65l17,8.69V30.81Z"/><path class="c" d="M179.92,19.2h.14l15.6,1.9V61.31L193,60.23l-13.19-1.72V19.27Z"/><path class="c" d="M163.54,22l3.14,40.71,13,6.81,2.69-1.67V26.15l10.57-3V21.59l-13.26,3.5Z"/><path class="c" d="M146.87,19.06v9l14,6.53,2.69-1.26,11.5-2v-12l-14.2,2.42Z"/><path class="c" d="M180.05,19.2l2.41,35.35,13.18,6.76,2.53-1.56V22.17l-2.71-1.06Z"/><path class="d" d="M250.33,5,195.65,21.1V61.31L229.13,44l.21-5L205.05,50.3l25.61-12.83c.67-.36,1.3-.67,2-1a13,13,0,0,1,1.68-.81l1.68-.87.27-5.12C233,31.1,226.62,34,217.15,38.19c6-2.8,14.28-7,24.92-12.52l1.29-.72.31-4.65c-4.47,1.9-10.77,4.43-19.16,7.83l25.25-12.2ZM193,21.59l-13.26,3.5V69.56L193,62.69Zm-16,4.7-16.75,4.52V79.34L177,70.74Z"/><path class="d" d="M175,19.34l-14.2,2.42V23.2l2.71.56V22L175,20.15v-.82Zm-17,2.91-17.55,3V69.66l2.69-1.27V26.32L158,23.79Z"/><path class="c" d="M111.77,17.76v37l13,6.74,2.68-1.26V22.31L142,20.65V19.14l-17.19,2.1Z"/><path class="d" d="M141.91,19.13H142v.81l-14.51,1.81V60.43l-2.68,1V21.23H125Z"/><path class="e" d="M69.67,5,125,21.23l17-2.1ZM250.33,5,179.76,19.2h.15l15.74,1.9ZM160.18,17.47l-13.31,1.59,14,2.7L175,19.34l-14.78-1.87Zm-16,2.18-2.17.27-14.52,1.84,13,3.47,17.55-3-11.2-2.1Zm33.51,0-2.64.5L163.54,22l16.17,3.05L193,21.59l-13.19-1.71Zm-16.84,3.54-2.76.57-14.86,2.56,17,4.49L177,26.32l-13.4-2.56Z"/></svg>