<svg xmlns="http://www.w3.org/2000/svg" width="128" height="64" fill="none"><rect width="128" height="64" fill="#fff" rx="6"/><path fill="#000" d="M61.142 44.855 56.68 56.271h1.942l.47-1.205h3.152l.31 1.21h6.41L64.18 44.86l-3.038-.005Zm-.262 5.58.84 2.918H59.78l1.101-2.918ZM47.97 44.86h8.394v1.762h-2.416v2.858h2.416v1.702h-2.416v5.09h-5.973L47.97 44.86ZM69.378 44.86h4.09l4.779 4.468v-4.315h1.783v11.258h-3.36l-5.508-5.182v5.171h-1.784v-11.4Z"/><path fill="#919396" d="M68.304 57.635v.938h2.181v-.938h-2.181Zm-18.262.998a2.36 2.36 0 0 0-1.418.343 1.456 1.456 0 0 0-.644 1.271 1.44 1.44 0 0 0 .644 1.26c.421.265.917.385 1.413.344h.42v-.6h-.366a.246.246 0 0 1-.212-.245v-1.528c0-.098.049-.196.212-.245h.393l.066-.595h-.508v-.005Zm4.091 0a2.432 2.432 0 0 0-1.467.453 1.39 1.39 0 0 0-.644 1.2 1.572 1.572 0 0 0 .644 1.21c.425.31.942.465 1.467.442h.05a2.383 2.383 0 0 0 1.477-.442 1.538 1.538 0 0 0 .628-1.21 1.39 1.39 0 0 0-.633-1.2 2.465 2.465 0 0 0-1.478-.453h-.044Zm19.68 0a2.105 2.105 0 0 0-1.31.453 1.342 1.342 0 0 0-.583 1.2 1.363 1.363 0 0 0 .889 1.401 3 3 0 0 0 1.21.257 7.362 7.362 0 0 0 1.468-.197v-.649c-.258.06-.52.093-.785.098-.677 0-.753-.283-.742-.654h1.576c0-.274-.033-.547-.098-.813a1.303 1.303 0 0 0-.415-.693 1.876 1.876 0 0 0-1.21-.403Zm-16.156.087v2.122a.97.97 0 0 0 .36.845c.285.219.639.329.998.311.422.005.838-.103 1.205-.31v.147h2.21v-3.11h-2.183v2.073c0 .098 0 .148-.049.197-.049.049-.109.049-.218.049a.235.235 0 0 1-.262-.246v-2.072h-2.061v-.006Zm6.13 0v3.12h2.259v-1.75a.545.545 0 0 1 .261-.546c.191-.108.409-.16.627-.147v-.671c-.306 0-.608.07-.883.207v-.207h-2.264v-.006Zm4.517 0v3.12h2.181v-3.114l-2.181-.006Zm8.607 0v3.12h2.181v-1.75a.67.67 0 0 1 .262-.546c.194-.106.412-.157.633-.147v-.671a2.383 2.383 0 0 0-.89.207v-.207h-2.181l-.005-.006Zm-2.624.606c.245 0 .284.338.365.545h-.692c.06-.355.169-.545.327-.545Zm-20.149.049h.044a.256.256 0 0 1 .262.24v1.423a.236.236 0 0 1-.224.246h-.087a.246.246 0 0 1-.262-.218v-1.424a.252.252 0 0 1 .24-.262l.028-.005Z"/><path fill="#0F2345" d="M46.262 11.142V33.58l7.09 3.687 1.468-.693V13.63l8.089-1.38v-.84l-9.572 1.636-7.091-1.898.016-.005Z"/><path fill="#0F2345" d="M56.997 14.18v24.68l7.09 3.688 1.478-.824v-25.09l7.636-2.182v-.823l-9.092 2.449-7.112-1.898Z"/><path fill="#0F2345" d="M56.839 9.669v.594l6.108 1.146v.823l1.511-.31v-.786l-7.62-1.467Zm9.092 1.636v23.847l8.82 2.056v-24.25l-8.82-1.653ZM14.73 2l.399 6.125 13.821 6.546c-4.565-1.8-8.018-3.191-10.445-4.168l.12 2.482.753.393c5.765 3.01 10.26 5.258 13.581 6.802l-10.445-4.62.12 2.803.916.426.873.469c.393.196.79.365 1.194.545l13.97 7.014-13.304-6.158.12 2.76 18.36 9.371h.038V10.852h.076L14.73 2Zm31.532 9.142V33.58l7.09 3.67V13.035l-7.09-1.898v.006Zm8.585 2.487v24.179l9.273 4.74v-26.47l-9.273-2.45ZM74.865 9.745h.077l8.508 1.037v21.932l-1.45-.59-7.195-.938V9.783l.06-.038Z"/><path fill="#0F2345" d="m65.93 11.273 1.714 22.204 7.09 3.715 1.468-.911V13.536l5.765-1.636v-.851l-7.233 1.909-8.803-1.685Z"/><path fill="#0F2345" d="M56.839 9.669v4.909l7.636 3.562 1.467-.688 6.273-1.09V9.815l-7.746 1.32-7.63-1.467ZM74.936 9.745l1.315 19.281 7.189 3.688 1.38-.851V11.365l-1.478-.578-8.406-1.042Z"/><path fill="#475F9A" d="m113.27 2-29.825 8.782v21.932l18.261-9.442.115-2.727-13.249 6.163 13.969-6.998c.365-.196.709-.365 1.091-.545.294-.17.6-.317.916-.442l.916-.474.148-2.793c-1.795.78-5.275 2.362-10.44 4.647 3.273-1.527 7.789-3.818 13.592-6.829l.704-.392.169-2.537c-2.438 1.037-5.874 2.416-10.45 4.271l13.772-6.654L113.27 2ZM82 11.049l-7.233 1.909v24.256L82 33.466V11.05Zm-8.727 2.563-9.136 2.466v26.47l9.136-4.69V13.611ZM72.181 9.822l-7.745 1.32v.785l1.478.306v-.96l6.267-1.01v-.447.006Zm-9.272 1.587-9.573 1.636v24.223l1.468-.693V13.63l8.105-1.38v-.84Z"/><path fill="#0F2345" d="M37.693 8.96V29.14l7.091 3.676 1.462-.687V11.441l7.936-.905v-.824l-9.376 1.146-7.113-1.898Z"/><path fill="#475F9A" d="M54.133 9.707h.05v.442l-7.915.987v21.098l-1.462.545V10.852h.104l9.223-1.145Z"/><path fill="#BAD2ED" d="m14.73 2 30.18 8.852 9.272-1.145L14.73 2Zm98.539 0L74.778 9.745h.082l8.585 1.037L113.269 2Zm-49.17 6.802-7.26.867 7.635 1.473 7.707-1.32-8.061-1.02h-.022ZM55.37 9.99l-1.184.147-7.92 1.004 7.091 1.892 9.573-1.636-6.11-1.146-1.45-.261Zm18.278 0-1.44.272-6.278 1.01 8.82 1.663 7.248-1.887-7.194-.933-1.156-.125Zm-9.186 1.93-1.505.311-8.105 1.397 9.272 2.449 9.147-2.45-7.309-1.396-1.5-.31Z"/></svg>