<svg xmlns="http://www.w3.org/2000/svg" viewBox="0 0 323.13 120.41"><defs><style>.a{fill:none;}.b{fill:#919396;}.c{fill:#0f2345;}.d{fill:#475f9a;}.e{fill:#bad2ed;}</style></defs><rect class="a" width="323.13" height="120.41"/><path d="M156.33,83.77l-8.19,20.94h3.56l.87-2.21h5.78l.57,2.22h11.74L161.9,83.78ZM155.85,94l1.53,5.34h-3.56Z"/><path d="M132.17,83.79h15.39V87h-4.42v5.24h4.42v3.13h-4.42v9.33h-11Z"/><path d="M171.43,83.79h7.5L187.69,92V84.06H191v20.65H184.8l-10.1-9.49v9.49h-3.27Z"/><path class="b" d="M169.45,107.18v1.72h4.05v-1.72h-4.05ZM136,109a4.27,4.27,0,0,0-2.6.63,2.88,2.88,0,0,0,0,4.63,4.25,4.25,0,0,0,2.6.64h.76v-1.11h-.66a.45.45,0,0,1-.39-.45v-2.8c0-.18.09-.36.39-.45h.72l.12-1.08H136Zm7.5,0a4.45,4.45,0,0,0-2.69.83,2.52,2.52,0,0,0-1.17,2.19,2.86,2.86,0,0,0,1.17,2.22,4.28,4.28,0,0,0,2.69.82h.08a4.34,4.34,0,0,0,2.71-.82,2.84,2.84,0,0,0,1.15-2.22,2.52,2.52,0,0,0-1.16-2.19,4.41,4.41,0,0,0-2.71-.83h-.07Zm36.09,0a3.81,3.81,0,0,0-2.41.83,2.45,2.45,0,0,0-1.06,2.19,2.53,2.53,0,0,0,1.62,2.58,5.45,5.45,0,0,0,2.23.47,13.65,13.65,0,0,0,2.69-.37v-1.19a7.37,7.37,0,0,1-1.45.18c-1.23,0-1.38-.51-1.35-1.2h2.89a6.23,6.23,0,0,0-.18-1.49,2.44,2.44,0,0,0-.77-1.26,3.41,3.41,0,0,0-2.21-.74Zm-29.63.16v3.88a1.79,1.79,0,0,0,.67,1.56,2.77,2.77,0,0,0,1.82.57,4.56,4.56,0,0,0,2.22-.57v.27h4V109.2h-4V113c0,.18,0,.27-.09.36s-.2.09-.4.09-.48-.09-.48-.45V109.2h-3.75Zm11.25,0v5.72h4.13v-3.21a1,1,0,0,1,.48-1,2.19,2.19,0,0,1,1.16-.27v-1.22a3.59,3.59,0,0,0-1.63.38v-.38h-4.14Zm8.27,0v5.72h4.05V109.2h-4.05Zm15.78,0v5.72h4.05v-3.21a1.22,1.22,0,0,1,.48-1,2.15,2.15,0,0,1,1.15-.27v-1.22a4.28,4.28,0,0,0-1.62.38v-.38h-4.06Zm-4.81,1.11c.46,0,.53.61.67,1h-1.26c.11-.65.31-1,.59-1Zm-36.94.09h.09a.46.46,0,0,1,.48.48v2.56a.43.43,0,0,1-.48.46h-.09a.45.45,0,0,1-.48-.46v-2.55a.46.46,0,0,1,.49-.48Z"/><path class="c" d="M129.05,22V63.1l13,6.76,2.69-1.26V26.52L159.64,24V22.46l-17.55,3-13-3.49Z"/><path class="c" d="M148.72,27.53V72.79l13,6.75,2.71-1.5v-46l14-4V26.52L161.76,31Z"/><path class="c" d="M148.43,19.27v1.08l11.2,2.11V24l2.77-.57V22Zm16.68,3V66l16.16,3.76V25.29Z"/><path class="c" d="M71.24,5.21,72,16.43l25.35,12c-8.38-3.3-14.71-5.86-19.15-7.65l.21,4.56,1.39.72c10.56,5.5,18.85,9.63,24.9,12.46L85.51,30.06l.22,5.15,1.68.79,1.59.86c.73.36,1.45.66,2.19,1L116.81,50.7,92.42,39.41l.22,5.06,33.65,17.19h.07V21.44h.14ZM129.05,22V63.1l13,6.73V25.44l-13-3.49Zm15.73,4.56V70.85l17,8.69V31l-17-4.49Z"/><path class="c" d="M181.48,19.4h.15l15.6,1.9V61.51l-2.7-1.08-13.18-1.72V19.48Z"/><path class="c" d="M165.11,22.24,168.24,63l13,6.8,2.7-1.67V26.36l10.56-3.05V21.8l-13.26,3.49Z"/><path class="c" d="M148.43,19.27v9l14,6.53,2.7-1.27,11.49-1.95v-12L162.4,22Z"/><path class="c" d="M181.62,19.4,184,54.76l13.19,6.75L199.74,60V22.38L197,21.31Z"/><path class="d" d="M251.89,5.21,197.22,21.3V61.51L230.69,44.2l.22-5L206.61,50.5l25.62-12.82c.67-.36,1.3-.67,2-1a16.4,16.4,0,0,1,1.68-.82l1.68-.86.27-5.12c-3.32,1.42-9.66,4.33-19.13,8.51,6-2.8,14.27-7,24.91-12.52l1.29-.72.32-4.64c-4.47,1.9-10.78,4.42-19.17,7.82l25.26-12.19ZM194.53,21.8l-13.26,3.49V69.76l13.25-6.86V21.8Zm-16,4.7L161.75,31V79.54l16.76-8.6Z"/><path class="d" d="M176.6,19.55,162.4,22v1.45l2.71.56V22.25l11.49-1.9v-.81Zm-17,2.91-17.55,3V69.86l2.69-1.26V26.52L159.64,24Z"/><path class="c" d="M113.33,18V54.91l13,6.75,2.69-1.27V22.51l14.5-1.65V19.34l-17.19,2.11Z"/><path class="d" d="M143.47,19.33h.09v.82L129.06,22V60.64l-2.69,1V21.44h.15Z"/><path class="e" d="M71.24,5.21l55.28,16.23,17-2.11Zm180.65,0L181.33,19.4h.14l15.75,1.9ZM161.75,17.67l-13.32,1.6,14,2.69,14.2-2.41-14.77-1.87Zm-16,2.19-2.17.27L129.05,22l13,3.47,17.55-3-11.2-2.11Zm33.51,0-2.64.49-11.49,1.9,16.16,3,13.25-3.49-13.18-1.72ZM162.4,23.4l-2.76.57-14.86,2.55,17,4.49,16.74-4.49L165.11,24Z"/></svg>