<svg xmlns="http://www.w3.org/2000/svg" width="128" height="64" fill="none"><rect width="128" height="64" fill="#fff" rx="6"/><path fill="#00498F" d="m24.584 21.464-.296 1.624h3.872l-1.124 4.32h-3.508l-2.02 11.504c-.4 2.316-1.308 3.84-3.528 6.04l-.28.264-3.36-3.112.296-.296c1.44-1.476 1.6-2.184 1.84-3.544l1.936-10.872h-2.136l.744-4.32h2.136l.3-1.624c.596-3.196 1.732-5.048 5.76-5.048 1.351 0 2.694.224 3.972.664l.344.132-1.108 4.168-.4-.148a8.715 8.715 0 0 0-2.4-.428c-.844 0-.928.18-1.028.676m22.992 5.512c1.23.038 2.45.216 3.64.532l.4.116.86-4-.348-.116a16.427 16.427 0 0 0-4.552-.728c-4.172 0-5.412.896-6.04 4.4-.4 2.348-.248 3.656 3.044 5.396 1.688.892 1.84 1.14 1.772 1.488-.1.612-.132.8-1.24.8a10.861 10.861 0 0 1-3.892-.748l-.4-.148-1.028 3.924.316.132c1.512.63 3.13.972 4.768 1.008 4.716 0 5.808-1.556 6.436-5.032.48-2.68-.312-3.424-3.708-5.244-1.34-.712-1.324-.764-1.256-1.2.116-.512.116-.564 1.224-.564m12.2.364h3.276l1.06-4.252h-3.576l.744-4.256-5.256.712-.596 3.528h-2.184l-.744 4.252h2.2l-1.388 7.812a4.68 4.68 0 0 0-.068.696c0 2.036 1.36 3.2 3.724 3.2a10.633 10.633 0 0 0 4.916-1.276l.284-.148-1.06-3.724-.4.164a6.18 6.18 0 0 1-2.168.58c0-.064.032-.164.052-.232l1.184-7.056Zm-18.196-3.508-2.584 14.896h-4.34v-2c-1.308.844-2.88 2.3-4.504 2.3-1.456 0-2.468-.364-3.112-1.144-.776-.928-.96-2.4-.58-4.616l.696-4c.7-3.88 2.352-6.484 8.28-6.484 1.964.038 3.914.35 5.792.928l.352.12ZM31.536 34.44s.084.084.4.084c.844 0 1.884-.464 2.896-1.276l1.024-5.892a9.61 9.61 0 0 0-1.2-.08c-1.868 0-2.1.76-2.4 2.2l-.764 4.4c-.064.4 0 .528 0 .544m33.288 8.656a4.292 4.292 0 0 0-1.044-.164c-.8 0-1.076.232-1.2 1.012l-.332 1.9a.847.847 0 0 0 0 .2c0 .216.1.364.432.364a5.88 5.88 0 0 0 1.636-.364l.132 1.108c-.586.29-1.227.45-1.88.468-1.2 0-1.692-.496-1.692-1.392.002-.182.02-.364.052-.544l.332-1.888c.28-1.556 1.024-2 2.58-2 .456.004.909.082 1.34.232l-.356 1.068Zm.56 2.668c.004-.15.016-.3.036-.448l.248-1.34c.248-1.376.924-2.204 2.8-2.204 1.44 0 2.12.8 2.12 1.788a3.37 3.37 0 0 1-.032.4l-.268 1.488c-.232 1.308-.844 2.136-2.8 2.136-1.472 0-2.104-.828-2.104-1.82m3.848-1.852a1.269 1.269 0 0 0 0-.248c0-.464-.28-.712-.928-.712a1.116 1.116 0 0 0-1.24 1.028l-.264 1.504a1.238 1.238 0 0 0 0 .248c0 .448.248.728.924.728s1.112-.312 1.228-.976l.28-1.572Zm3.312 2a.596.596 0 0 0-.02.148c0 .148.068.248.284.248a4.64 4.64 0 0 0 1.66-.688l.628-3.6 1.424-.196-.992 5.692h-1.176v-.58c-.69.396-1.46.63-2.252.684-.78 0-1.028-.512-1.028-1.108-.003-.185.02-.37.068-.548L71.792 42l1.424-.196-.716 4.088Zm7.812-2.848c-.664.364-1.076.628-1.672.992l-.612 3.46h-1.376L77.588 42l1.2-.216-.048.8a8.28 8.28 0 0 1 1.44-.828l.132 1.288ZM81.224 42l1.424-.196-.992 5.692h-1.372l.94-5.496Zm.432-2.4 1.424-.196-.292 1.56-1.42.212.288-1.576Zm2.732 6.244c-.068.316-.068.596.428.596a5.436 5.436 0 0 0 2.152-.644l.3 1.06a5.52 5.52 0 0 1-2.632.744c-1.492 0-1.788-.828-1.572-2l.296-1.704c.248-1.324.86-2.136 2.548-2.136 1.076 0 1.788.548 1.788 1.456 0 .996-.66 1.576-2.184 2.056-.68.212-.8.248-1.076.312l-.048.26Zm2-2.564c0-.248-.212-.432-.576-.432a1.008 1.008 0 0 0-1.024.928l-.1.58c.2-.048.28-.084.844-.248.564-.164.856-.448.856-.828Zm5.38-.248c-.66.364-1.076.628-1.672.992l-.612 3.46h-1.372l.96-5.484 1.2-.216-.068.8c.451-.323.934-.6 1.44-.828l.124 1.276Zm-.1 4.204.268-1.044a4.833 4.833 0 0 0 1.572.284c.612 0 .728-.1.8-.5.072-.4 0-.48-.824-.892-1.2-.58-1.308-1.008-1.16-1.872.2-1.124.644-1.472 2.12-1.472.568.014 1.131.11 1.672.284l-.232 1.056a5.772 5.772 0 0 0-1.46-.212c-.544 0-.708 0-.776.428-.068.428.032.464.644.8 1.292.696 1.524.924 1.376 1.804-.216 1.256-.648 1.688-2.22 1.688a4.657 4.657 0 0 1-1.788-.348"/><path fill="#CD1343" d="M84.788 25.536a10.614 10.614 0 0 1-.876 3.892l-3.148 9.284h-5.6l-1.128-5.96-3.248 5.96h-5.452v-.4a97.572 97.572 0 0 0-.976-14.284l-.052-.4 4.9-.76.068.4c.43 2.388.645 4.81.644 7.236v1.2l2.8-5.396-.58-2.628 4.8-.732 1.488 8.532 1.16-4.452c.1-.474.156-.956.164-1.44a5.234 5.234 0 0 0-.232-1.508l-.116-.4 4.984-.956.08.38c.191.797.297 1.612.316 2.432m14.404-1.72-2.58 14.896h-4.324v-2c-1.308.844-2.88 2.3-4.504 2.3-1.456 0-2.464-.364-3.112-1.14-.776-.928-.96-2.4-.58-4.62l.696-4c.68-3.888 2.336-6.488 8.26-6.488 1.965.03 3.916.342 5.792.928l.352.124ZM89.152 34.4c.02 0 .084.084.4.084.844 0 1.888-.464 2.896-1.276l1.028-5.892a9.089 9.089 0 0 0-1.2-.084c-1.872 0-2.104.764-2.4 2.204l-.764 4.4c-.064.4 0 .528 0 .544m24.268-11.336-.1-.348-4.968.728.1.428a4.74 4.74 0 0 1-.18 2.932l-2.5 5.94-.968-9.884-5.116.728 2.152 15.144h.908c-.876 1.044-2.036 1.788-3.724 2.4l-.364.132 1.344 4.14.38-.116c4.684-1.508 6.24-3.312 8-6.8l4.8-10.644c.356-.905.53-1.872.512-2.844a6.61 6.61 0 0 0-.212-1.92"/></svg>