<svg xmlns="http://www.w3.org/2000/svg" viewBox="0 0 320 120"><defs><style>.a{fill:none;}.b{fill:#00498f;}.c{fill:#cd1343;}</style></defs><rect class="a" width="320" height="120"/><path class="b" d="M61.49,33.66l-.74,4.06h9.68l-2.81,10.8H58.85L53.8,77.28c-1,5.79-3.27,9.6-8.82,15.1l-.7.66-8.4-7.78.74-.74c3.6-3.69,4-5.46,4.6-8.86l4.84-27.18H40.72l1.86-10.8h5.34l.75-4.06C50.16,25.63,53,21,63.07,21A30.48,30.48,0,0,1,73,22.66l.86.33L71.09,33.41l-1-.37a21.79,21.79,0,0,0-6-1.07c-2.11,0-2.32.45-2.57,1.69M119,47.44a40.36,40.36,0,0,1,9.1,1.33l1,.29,2.15-10-.87-.29a41.07,41.07,0,0,0-11.38-1.82c-10.43,0-13.53,2.24-15.1,11-1,5.87-.62,9.14,7.61,13.49,4.22,2.23,4.6,2.85,4.43,3.72-.25,1.53-.33,2-3.1,2a27.15,27.15,0,0,1-9.73-1.87l-1-.37-2.57,9.81.79.33a32.84,32.84,0,0,0,11.92,2.52c11.79,0,14.52-3.89,16.09-12.58,1.2-6.7-.78-8.56-9.27-13.11-3.35-1.78-3.31-1.91-3.14-3,.29-1.28.29-1.41,3.06-1.41m30.5.91h8.19l2.65-10.63h-8.94l1.86-10.64L140.11,28.9l-1.49,8.82h-5.46L131.3,48.35h5.5l-3.47,19.53a11.66,11.66,0,0,0-.17,1.74c0,5.09,3.4,8,9.31,8a26.58,26.58,0,0,0,12.29-3.19l.71-.37-2.65-9.31-1,.41a15.45,15.45,0,0,1-5.42,1.45h0c0-.16.08-.41.13-.58ZM104,39.62,97.54,76.86H86.69l0-5c-3.27,2.11-7.2,5.75-11.26,5.75-3.64,0-6.17-.91-7.78-2.86-1.94-2.32-2.4-6-1.45-11.54l1.74-10C69.69,43.51,73.82,37,88.64,37a52.7,52.7,0,0,1,14.48,2.32ZM78.87,66.1s.21.21,1,.21c2.11,0,4.71-1.16,7.24-3.19l2.56-14.73a24.09,24.09,0,0,0-3-.2c-4.67,0-5.25,1.9-6,5.5l-1.91,11c-.16,1,0,1.32,0,1.36m83.22,21.64a10.74,10.74,0,0,0-2.61-.41c-2,0-2.69.58-3,2.53l-.83,4.75a2.11,2.11,0,0,0,0,.5c0,.54.25.91,1.08.91a14.69,14.69,0,0,0,4.09-.91l.33,2.77A11.34,11.34,0,0,1,156.34,99c-3,0-4.23-1.24-4.23-3.48a8.21,8.21,0,0,1,.13-1.36l.83-4.72c.7-3.89,2.56-5,6.45-5a10.48,10.48,0,0,1,3.35.58Zm1.4,6.67a10.35,10.35,0,0,1,.09-1.12l.62-3.35c.62-3.44,2.31-5.51,7-5.51,3.6,0,5.3,2,5.3,4.47a8.42,8.42,0,0,1-.08,1l-.67,3.72c-.58,3.27-2.11,5.34-7,5.34-3.68,0-5.26-2.07-5.26-4.55M173,89.73a3.18,3.18,0,0,0,0-.62c0-1.16-.7-1.78-2.32-1.78a2.79,2.79,0,0,0-3.1,2.57l-.66,3.76a3.08,3.08,0,0,0,0,.62c0,1.12.62,1.82,2.31,1.82s2.78-.78,3.07-2.44Zm8.28,5a1.48,1.48,0,0,0-.05.37c0,.37.17.62.71.62A11.6,11.6,0,0,0,186.09,94L187.66,85l3.56-.49-2.48,14.23H185.8l0-1.45A13.07,13.07,0,0,1,180.17,99c-1.95,0-2.57-1.28-2.57-2.77a5,5,0,0,1,.17-1.37L179.51,85l3.56-.49Zm19.53-7.12c-1.66.91-2.69,1.57-4.18,2.48l-1.53,8.65h-3.44L194,85l3-.54-.12,2a20.72,20.72,0,0,1,3.6-2.07ZM203.09,85l3.56-.49-2.48,14.23h-3.43Zm1.08-6,3.56-.49L207,82.41l-3.55.53ZM211,94.61c-.17.79-.17,1.49,1.07,1.49a13.59,13.59,0,0,0,5.38-1.61l.75,2.65A13.8,13.8,0,0,1,211.62,99c-3.73,0-4.47-2.07-3.93-5l.74-4.26c.62-3.31,2.15-5.34,6.37-5.34,2.69,0,4.47,1.37,4.47,3.64,0,2.49-1.65,3.94-5.46,5.14-1.7.53-2,.62-2.69.78Zm5-6.41c0-.62-.53-1.08-1.44-1.08A2.52,2.52,0,0,0,212,89.44l-.25,1.45c.5-.12.7-.21,2.11-.62S216,89.15,216,88.2m13.45-.62c-1.65.91-2.69,1.57-4.18,2.48l-1.53,8.65h-3.43L222.71,85l3-.54-.17,2a21.1,21.1,0,0,1,3.6-2.07Zm-.25,10.51.67-2.61a12.08,12.08,0,0,0,3.93.71c1.53,0,1.82-.25,2-1.25s0-1.2-2.06-2.23c-3-1.45-3.27-2.52-2.9-4.68.5-2.81,1.61-3.68,5.3-3.68a14.75,14.75,0,0,1,4.18.71l-.58,2.64a14.44,14.44,0,0,0-3.65-.53c-1.36,0-1.77,0-1.94,1.07s.08,1.16,1.61,2c3.23,1.74,3.81,2.31,3.44,4.51-.54,3.14-1.62,4.22-5.55,4.22a11.64,11.64,0,0,1-4.47-.87"/><path class="c" d="M212,43.84a26.53,26.53,0,0,1-2.19,9.73l-7.87,23.21h-14l-2.82-14.9L177,76.78H163.37v-1a243.89,243.89,0,0,0-2.44-35.71l-.13-1,12.25-1.9.17,1a102,102,0,0,1,1.61,18.09c0,1,0,2,0,3l7-13.49-1.45-6.57,12-1.83L196.1,58.7,199,47.57a18.8,18.8,0,0,0,.41-3.6,13.08,13.08,0,0,0-.58-3.77l-.29-1L211,36.81l.2.95a28.83,28.83,0,0,1,.79,6.08M248,39.54l-6.45,37.24H230.74l0-5c-3.27,2.11-7.2,5.75-11.26,5.75-3.64,0-6.16-.91-7.78-2.85-1.94-2.32-2.4-6-1.45-11.55l1.74-10c1.7-9.72,5.84-16.22,20.65-16.22a51.18,51.18,0,0,1,14.48,2.32ZM222.91,66c.05,0,.21.21,1,.21,2.11,0,4.72-1.16,7.24-3.19l2.57-14.73a22.72,22.72,0,0,0-3-.21c-4.68,0-5.26,1.91-6,5.51l-1.91,11c-.16,1,0,1.32,0,1.36m60.67-28.34-.25-.87-12.42,1.82.25,1.07a11.84,11.84,0,0,1-.45,7.33l-6.25,14.85L261.94,37.1l-12.79,1.82,5.38,37.86h2.27c-2.19,2.61-5.09,4.47-9.31,6l-.91.33,3.36,10.35.95-.29c11.71-3.77,15.6-8.28,20-17l12-26.61a18.43,18.43,0,0,0,1.28-7.11,16.47,16.47,0,0,0-.53-4.8"/></svg>