<svg xmlns="http://www.w3.org/2000/svg" viewBox="0 0 320 120"><defs><style>.a{fill:none;}.b{fill:#ff5900;}.c{fill:#2a007c;}</style></defs><rect class="a" width="320" height="120"/><polygon class="b" points="229.5 50.55 238.13 60.08 246.45 50.55 264.22 50.55 246.86 70.07 264.46 89.76 245.97 89.76 237.41 80.16 228.93 89.76 211.09 89.76 228.53 70.16 211.09 50.55 229.5 50.55"/><polygon class="b" points="211.09 50.55 211.09 63.8 191.33 63.8 191.33 75.95 211.09 75.95 211.09 89.76 176.81 89.76 176.81 28 211.09 28 211.09 41.76 191.33 41.76 191.33 50.55 211.09 50.55"/><path class="c" d="M162.36,28V53.28h-.17c-3.2-3.69-7.2-5-11.83-5-9.51,0-16.68,6.46-19.19,15-2.86-9.39-10.24-15.18-21.22-15.18-8.91,0-15.93,4-19.62,10.5V50.55H71.94V41.76H92V28H55.54V89.76h16.4v-26H88.32a24.55,24.55,0,0,0-.74,6.1c0,12.88,9.84,21.92,22.4,21.92,10.55,0,17.52-5,21.19-14H117.09c-1.9,2.72-3.34,3.52-7.14,3.52a8.45,8.45,0,0,1-8.21-8.4h28.62c1.25,10.24,9.22,19,20.15,19a14,14,0,0,0,11.68-6.24h.17v4h14.45V28ZM102.2,64A7.92,7.92,0,0,1,110,57.49,7.53,7.53,0,0,1,117.78,64Zm51.37,16.37c-5.32,0-8.64-5-8.64-10.15,0-5.54,2.88-10.87,8.64-10.87,6,0,8.36,5.33,8.36,10.87C161.93,75.45,159.41,80.35,153.57,80.35Z"/></svg>