<svg xmlns="http://www.w3.org/2000/svg" viewBox="0 0 320 120"><defs><style>.a{fill:none;}.b{fill:#ff5900;}.c{fill:#2a007c;}</style></defs><rect class="a" width="320" height="120"/><polygon class="b" points="241.44 48.93 251.56 60.09 261.31 48.93 282.13 48.93 261.79 71.8 282.41 94.87 260.75 94.87 250.72 83.62 240.78 94.87 219.87 94.87 240.31 71.9 219.87 48.93 241.44 48.93"/><polygon class="b" points="219.87 48.93 219.87 64.45 196.72 64.45 196.72 78.69 219.87 78.69 219.87 94.87 179.7 94.87 179.7 22.5 219.87 22.5 219.87 38.63 196.72 38.63 196.72 48.93 219.87 48.93"/><path class="c" d="M162.76,22.5V52.12h-.19c-3.75-4.32-8.44-5.81-13.87-5.81-11.14,0-19.54,7.57-22.48,17.58-3.36-11-12-17.79-24.87-17.79-10.44,0-18.67,4.68-23,12.31V48.93H56.81V38.63H80.35V22.5H37.59V94.87H56.81V64.45H76a28.88,28.88,0,0,0-.87,7.15c0,15.1,11.53,25.69,26.25,25.69,12.37,0,20.53-5.81,24.84-16.4H109.72c-2.23,3.19-3.92,4.13-8.37,4.13a9.9,9.9,0,0,1-9.62-9.85h33.54c1.46,12,10.8,22.33,23.61,22.33a16.43,16.43,0,0,0,13.69-7.31h.19v4.68H179.7V22.5ZM92.26,64.66c1.07-4.59,4.64-7.6,9.09-7.6a8.82,8.82,0,0,1,9.17,7.6Zm60.21,19.19c-6.24,0-10.13-5.82-10.13-11.9,0-6.49,3.38-12.74,10.13-12.74,7,0,9.79,6.25,9.79,12.74C162.26,78.11,159.31,83.85,152.47,83.85Z"/></svg>