<svg xmlns="http://www.w3.org/2000/svg" viewBox="0 0 320 120"><defs><style>.a{fill:none;}.b{fill:#ff5900;}.c{fill:#2a007c;}</style></defs><rect class="a" width="320" height="120"/><polygon class="b" points="224.07 51.29 232.03 60.07 239.7 51.29 256.08 51.29 240.07 69.28 256.3 87.43 239.26 87.43 231.37 78.58 223.55 87.43 207.1 87.43 223.18 69.36 207.1 51.29 224.07 51.29"/><polygon class="b" points="207.1 51.29 207.1 63.5 188.89 63.5 188.89 74.7 207.1 74.7 207.1 87.43 175.5 87.43 175.5 30.5 207.1 30.5 207.1 43.19 188.89 43.19 188.89 51.29 207.1 51.29"/><path class="c" d="M162.17,30.5V53.8H162c-3-3.4-6.64-4.57-10.91-4.57-8.76,0-15.37,6-17.68,13.83-2.65-8.65-9.44-14-19.57-14-8.21,0-14.69,3.68-18.09,9.68V51.29h-17v-8.1H97.34V30.5H63.7V87.43H78.82V63.5h15.1a22.71,22.71,0,0,0-.68,5.63c0,11.87,9.07,20.2,20.65,20.2,9.73,0,16.15-4.57,19.54-12.9h-13c-1.76,2.51-3.09,3.25-6.59,3.25a7.79,7.79,0,0,1-7.57-7.75h26.39c1.15,9.44,8.5,17.57,18.57,17.57A12.91,12.91,0,0,0,162,83.75h.15v3.68H175.5V30.5ZM106.71,63.67a7.31,7.31,0,0,1,7.15-6,7,7,0,0,1,7.22,6Zm47.37,15.09c-4.91,0-8-4.58-8-9.36,0-5.1,2.66-10,8-10,5.5,0,7.7,4.92,7.7,10C161.78,74.25,159.46,78.76,154.08,78.76Z"/></svg>