<svg xmlns="http://www.w3.org/2000/svg" width="128" height="64" fill="none"><rect width="128" height="64" fill="#fff" rx="6"/><path fill="#FF5900" d="m91.8 28.24 3.452 3.812 3.328-3.812h7.108l-6.944 7.808 7.04 7.876h-7.396l-3.424-3.84-3.392 3.84h-7.136l6.976-7.84-6.976-7.844H91.8ZM84.436 28.24v5.3h-7.904v4.86h7.904v5.524H70.724V19.22h13.712v5.504h-7.904v3.516h7.904Z"/><path fill="#2A007C" d="M64.944 19.22v10.112h-.068c-1.28-1.476-2.88-2-4.732-2-3.804 0-6.672 2.584-7.676 6-1.144-3.756-4.096-6.072-8.488-6.072-3.564 0-6.372 1.6-7.848 4.2v-3.22h-7.356v-3.516H36.8V19.22H22.216v24.704h6.56v-10.4h6.552c-.2.798-.3 1.617-.296 2.44 0 5.152 3.936 8.768 8.96 8.768 4.22 0 7.008-2 8.476-5.6h-5.632c-.76 1.088-1.336 1.408-2.856 1.408a3.38 3.38 0 0 1-3.284-3.36h11.448c.5 4.096 3.688 7.6 8.06 7.6a5.6 5.6 0 0 0 4.672-2.496h.068v1.6h5.78V19.22h-5.78ZM40.88 33.62A3.168 3.168 0 0 1 44 31.016a3.012 3.012 0 0 1 3.112 2.604H40.88Zm20.548 6.548c-2.128 0-3.456-2-3.456-4.06 0-2.216 1.152-4.348 3.456-4.348 2.4 0 3.344 2.132 3.344 4.348 0 2.092-1.008 4.052-3.344 4.052v.008Z"/></svg>