<svg xmlns="http://www.w3.org/2000/svg" viewBox="0 0 323.13 120.41"><defs><style>.a{fill:none;}.b{fill:#ff5900;}.c{fill:#2a007c;}</style></defs><rect class="a" width="323.13" height="120.41"/><polygon class="b" points="243 49.13 253.13 60.29 262.88 49.13 283.69 49.13 263.35 72.01 283.97 95.07 262.32 95.07 252.29 83.83 242.35 95.07 221.44 95.07 241.88 72.1 221.44 49.13 243 49.13"/><polygon class="b" points="221.44 49.13 221.44 64.65 198.28 64.65 198.28 78.9 221.44 78.9 221.44 95.07 181.27 95.07 181.27 22.7 221.44 22.7 221.44 38.84 198.28 38.84 198.28 49.13 221.44 49.13"/><path class="c" d="M164.32,22.71V52.32h-.18c-3.76-4.31-8.44-5.81-13.88-5.81-11.14,0-19.53,7.58-22.48,17.59-3.36-11-12-17.8-24.87-17.8-10.43,0-18.67,4.69-23,12.32V49.13H58.38V38.84H81.91V22.71H39.16V95.07H58.38V64.65H77.54a29,29,0,0,0-.88,7.16c0,15.09,11.53,25.69,26.25,25.69,12.38,0,20.54-5.81,24.85-16.41H111.28c-2.22,3.19-3.91,4.13-8.37,4.13a9.9,9.9,0,0,1-9.62-9.84h33.55c1.45,12,10.79,22.33,23.61,22.33a16.41,16.41,0,0,0,13.68-7.32h.19v4.69h16.94V22.71ZM93.83,64.87c1.07-4.6,4.63-7.6,9.08-7.6a8.83,8.83,0,0,1,9.18,7.6ZM154,84.06c-6.25,0-10.13-5.83-10.13-11.9,0-6.5,3.38-12.74,10.13-12.74,7,0,9.79,6.24,9.79,12.74C163.83,78.32,160.87,84.06,154,84.06Z"/></svg>