<svg xmlns="http://www.w3.org/2000/svg" width="128" height="64" fill="none"><rect width="128" height="64" fill="#fff" rx="6"/><path fill="#FEFEFE" d="m104.298 12.322 5.878 4.933-7.699 9.176-5.876-4.932 7.697-9.177Z"/><path fill="#E31E24" d="m104.27 12 .175.147 5.877 4.932.175.148-.146.175-7.698 9.176-.147.175-.175-.146-5.877-4.933-.175-.147.147-.175 7.698-9.177.146-.175Zm.056.644-7.403 8.826 5.527 4.639 7.403-8.826-5.527-4.639Z"/><path fill="#E31E24" d="m103.68 19.46-6.959 2.267-.142-.436 6.959-2.266.299.237-.157.199Zm.157-.198-.013.151-.144.048.157-.199Zm.594-6.898-.594 6.899-.456-.04.594-6.898.456.04Z"/><path fill="#005AA5" d="M14.524 28.676c-.097-.274-.18-.539-.251-.792a8.496 8.496 0 0 1-.168-.715 7.29 7.29 0 0 1-.096-.706c-.02-.236-.03-.49-.03-.761 0-.619.073-1.174.217-1.666.148-.503.37-.938.665-1.304v.002a3.381 3.381 0 0 1 1.405-1.026c.555-.223 1.204-.334 1.944-.334 1.372 0 2.547.464 3.525 1.39.956.906 1.713 2.255 2.27 4.045v-.003c.292.912.556 2.13.79 3.652.166 1.086.318 2.32.455 3.707l.015-.06c.287-1.133.71-2.81 1.269-5.03.63-2.52 1.358-4.42 2.183-5.694.866-1.338 1.848-2.007 2.947-2.007.391 0 .752.07 1.082.21.332.142.628.35.888.628.256.274.449.566.578.875.132.313.198.642.198.986 0 1.028-1.017 2.275-3.048 3.742h-.001c-1.14.812-2.104 1.719-2.894 2.72a11.866 11.866 0 0 0-1.833 3.269v-.002a9.065 9.065 0 0 0-.486 2.084c-.038.351-.067.74-.087 1.168-.02.423-.03.87-.03 1.339v1.676c0 .708.14 1.542.418 2.502a63.55 63.55 0 0 1 .723 2.66c.165.686.248 1.152.248 1.4 0 .448-.07.87-.21 1.261-.14.396-.35.759-.627 1.09-.572.678-1.256 1.017-2.053 1.017-.374 0-.726-.098-1.058-.294-.318-.188-.614-.467-.886-.836h.002a4.323 4.323 0 0 1-.6-1.096 3.363 3.363 0 0 1-.203-1.144c0-.106.139-.652.418-1.638.27-.952.678-2.35 1.222-4.194.252-.848.44-1.628.567-2.337.124-.7.187-1.33.187-1.888 0-1.269-.129-2.41-.386-3.422-.254-1.004-.635-1.883-1.142-2.635-.561-.835-1.238-1.46-2.031-1.875-.794-.416-1.709-.625-2.745-.625a4.76 4.76 0 0 0-1.419.202c-.219.068-.455.155-.709.26-.25.104-.517.227-.8.369a.317.317 0 0 1-.423-.17Zm.464-.524c.18-.086.355-.164.526-.235.265-.11.52-.203.763-.278a5.355 5.355 0 0 1 1.597-.23c1.135 0 2.144.23 3.026.692.883.463 1.634 1.155 2.254 2.077.546.811.956 1.753 1.228 2.825.147.584.255 1.206.322 1.867a73.563 73.563 0 0 0-.51-4.323c-.23-1.495-.485-2.68-.767-3.556v-.003c-.528-1.69-1.231-2.951-2.11-3.785-.858-.814-1.895-1.221-3.107-1.221-.665 0-1.238.096-1.719.288a2.79 2.79 0 0 0-1.157.843v.001a3.098 3.098 0 0 0-.556 1.092c-.127.433-.19.931-.19 1.495 0 .238.01.476.03.711a6.697 6.697 0 0 0 .24 1.309c.037.138.081.281.13.43Zm9.746 7.05c.035.44.052.898.052 1.37 0 .593-.065 1.257-.196 1.993-.13.726-.324 1.528-.583 2.404-.54 1.828-.947 3.223-1.22 4.187-.264.93-.395 1.422-.395 1.474 0 .316.056.63.168.94.114.316.285.63.514.94.223.301.458.526.707.673.235.139.485.209.749.209.608 0 1.137-.268 1.587-.803a2.9 2.9 0 0 0 .52-.899c.116-.325.174-.679.174-1.06 0-.2-.077-.62-.23-1.26-.162-.67-.4-1.547-.714-2.63-.296-1.02-.444-1.91-.444-2.672v-1.676c0-.488.01-.944.03-1.367.02-.418.05-.82.092-1.203.035-.329.088-.653.156-.972-.19.75-.294 1.148-.31 1.196-.092.277-.567.218-.591-.072-.021-.261-.043-.52-.066-.772Zm1.135-1.008c.058-.2.123-.399.195-.598v-.001a12.47 12.47 0 0 1 1.926-3.437c.822-1.042 1.829-1.988 3.02-2.836h-.002c1.863-1.342 2.794-2.426 2.794-3.249 0-.263-.05-.513-.15-.75a2.373 2.373 0 0 0-.462-.695 1.991 1.991 0 0 0-.681-.485 2.142 2.142 0 0 0-.845-.16c-.88 0-1.693.576-2.44 1.728-.786 1.216-1.487 3.054-2.101 5.512l-1.254 4.971Zm16.52-12.82c1.255 0 2.573.305 3.953.913.706.31 1.241.655 1.604 1.031.393.406.589.85.589 1.33 0 .285-.043.561-.13.829a2.8 2.8 0 0 1-.381.758c-.175.248-.36.437-.554.564-.214.141-.44.212-.676.212-.567 0-1.71-.227-3.429-.681-.405-.109-.789-.19-1.15-.245-.36-.053-.7-.08-1.022-.08-.594 0-1.148.043-1.663.127a7.458 7.458 0 0 0-1.439.38c-.415.158-.723.347-.922.567a.986.986 0 0 0-.269.682c0 .723.361 1.085 1.084 1.085.28 0 .674-.104 1.178-.312.633-.26 1.157-.455 1.57-.584.437-.137.766-.206.987-.206.338 0 .672.06 1.001.18.323.119.64.294.952.528.324.243.568.517.732.823.169.314.252.655.252 1.024 0 .408-.07.775-.207 1.104-.14.333-.35.624-.63.871l-.001.002c-.277.241-.592.422-.943.543a3.492 3.492 0 0 1-1.14.179c-.255 0-.567-.061-.939-.183a10.2 10.2 0 0 1-1.237-.519h.001a14.881 14.881 0 0 0-1.11-.492c-.257-.098-.43-.147-.521-.147-.684 0-1.029.361-1.029 1.084 0 .44.13.825.388 1.153.27.343.683.632 1.238.867v-.001a7.247 7.247 0 0 0 1.58.448c.584.1 1.226.15 1.925.15.569 0 1.114-.026 1.635-.08a13.508 13.508 0 0 0 1.523-.246c.483-.108.938-.241 1.364-.399a7.676 7.676 0 0 0 1.144-.527l.004-.002c.19-.105.367-.158.53-.158.194 0 .362.07.502.21.115.115.2.26.254.434.05.158.074.34.074.545 0 .335-.09.683-.271 1.046l-.014.024a6.982 6.982 0 0 1-1.294 1.54 8.983 8.983 0 0 1-3.906 1.985c-.754.173-1.549.26-2.383.26a7.01 7.01 0 0 1-2.395-.414 7.679 7.679 0 0 1-2.175-1.234c-.697-.553-1.22-1.169-1.571-1.846a4.753 4.753 0 0 1-.532-2.222c0-.477.07-.93.207-1.362.138-.431.343-.835.617-1.211.27-.371.587-.71.95-1.013.224-.188.468-.364.73-.526a5.175 5.175 0 0 1-.553-.387 4.558 4.558 0 0 1-.816-.854 3.641 3.641 0 0 1-.527-1.025 3.677 3.677 0 0 1-.177-1.142c0-.804.194-1.536.582-2.195.383-.652.954-1.227 1.71-1.723a8.647 8.647 0 0 1 2.407-1.097c.858-.243 1.771-.365 2.74-.365Zm0 .608a9.41 9.41 0 0 0-2.575.341 8.09 8.09 0 0 0-2.238 1.022c-.68.446-1.187.953-1.521 1.521a3.657 3.657 0 0 0-.496 1.889c0 .336.05.654.146.954.098.298.245.583.442.854.202.276.437.522.705.739.271.22.581.413.928.578.219.105.224.432.008.544-.41.213-.779.456-1.105.73a5.052 5.052 0 0 0-.847.903 3.672 3.672 0 0 0-.532 1.04c-.117.367-.176.759-.176 1.177 0 .702.154 1.35.462 1.944.31.6.78 1.149 1.41 1.65a7.059 7.059 0 0 0 2.002 1.136 6.409 6.409 0 0 0 2.19.378c.793 0 1.542-.082 2.248-.244a8.35 8.35 0 0 0 1.994-.728 7.874 7.874 0 0 0 1.641-1.118c.466-.417.857-.88 1.173-1.387.137-.275.204-.53.204-.77 0-.145-.015-.267-.045-.364a.446.446 0 0 0-.105-.188.1.1 0 0 0-.072-.03.522.522 0 0 0-.236.081l.003-.001a8.238 8.238 0 0 1-1.236.57c-.444.164-.924.304-1.442.42a13.96 13.96 0 0 1-1.593.257c-.551.058-1.116.087-1.697.087-.73 0-1.405-.054-2.027-.16a7.846 7.846 0 0 1-1.713-.487v-.001c-.652-.276-1.145-.626-1.48-1.05a2.4 2.4 0 0 1-.518-1.528c0-1.128.549-1.693 1.637-1.693.164 0 .41.063.738.188.299.114.684.285 1.157.513h.001c.448.219.834.381 1.16.488.308.102.558.152.75.152.347 0 .66-.048.943-.145a2.2 2.2 0 0 0 .74-.427v.003a1.78 1.78 0 0 0 .47-.653 2.23 2.23 0 0 0 .16-.869c0-.269-.059-.514-.178-.736a1.934 1.934 0 0 0-.561-.626 3.105 3.105 0 0 0-.796-.442 2.3 2.3 0 0 0-.794-.142c-.162 0-.43.059-.807.177-.402.126-.908.315-1.52.565-.58.24-1.05.36-1.408.36-1.128 0-1.692-.565-1.692-1.694 0-.414.142-.777.426-1.09.263-.29.65-.533 1.16-.726.481-.183 1-.32 1.555-.41.553-.092 1.14-.138 1.76-.138.348 0 .718.03 1.11.088.386.058.793.144 1.218.259 1.664.44 2.755.659 3.274.659a.616.616 0 0 0 .34-.112c.134-.087.265-.222.393-.405a2.084 2.084 0 0 0 .399-1.238c0-.318-.139-.62-.417-.91-.307-.317-.777-.615-1.412-.895-1.3-.573-2.537-.86-3.708-.86ZM57.4 32.758a21.221 21.221 0 0 0 1.603-2.117 18.112 18.112 0 0 0 1.495-2.738c.405-.928.71-1.911.914-2.948.203-1.038.305-2.13.305-3.277a.4.4 0 0 1 .169-.272l.287-.144a.411.411 0 0 1 .308.023 5.07 5.07 0 0 1 1.083 1.038c.326.413.62.897.886 1.452.265.555.464 1.143.597 1.762.132.616.198 1.262.198 1.937a10.61 10.61 0 0 1-.493 3.13c-.326 1.06-.814 2.142-1.465 3.249l.002-.001a23.661 23.661 0 0 1-2.012 2.9c-.8 1-1.742 2.05-2.823 3.147a.533.533 0 0 1-.215.091h-.91a.327.327 0 0 1-.304-.304c0-.477-.024-.987-.072-1.53a23.12 23.12 0 0 0-.211-1.68 23.158 23.158 0 0 0-.414-1.949c-.182-.72-.408-1.51-.678-2.366l-.002-.007a12.112 12.112 0 0 0-.887-2.29v-.001a6.847 6.847 0 0 0-.722-1.123 5.717 5.717 0 0 0-.876-.888l.017.015-1.937-1.358c-.426-.359-.748-.74-.967-1.142a2.674 2.674 0 0 1-.338-1.294c0-.35.073-.674.216-.975.14-.296.352-.566.631-.81v-.001c.277-.24.593-.422.946-.543.348-.12.73-.179 1.145-.179.709 0 1.323.206 1.841.617.505.402.912.995 1.219 1.78l-.001-.002c.134.333.286.88.457 1.639.171.756.36 1.715.566 2.875l.001.009c.048.318.095.686.14 1.102.048.448.09.902.127 1.36a42.296 42.296 0 0 0 .174 1.813Zm.01.906c-.167.184-.49.085-.526-.162a31.474 31.474 0 0 1-.138-1.137c-.049-.463-.092-.92-.128-1.372a52.18 52.18 0 0 0-.123-1.344 25.91 25.91 0 0 0-.137-1.078l.001.008a65.714 65.714 0 0 0-.559-2.848c-.164-.725-.307-1.242-.428-1.546l-.002-.002c-.267-.684-.611-1.192-1.031-1.526-.408-.322-.895-.483-1.464-.483-.35 0-.667.047-.95.144a2.193 2.193 0 0 0-.741.427 1.901 1.901 0 0 0-.482.614 1.64 1.64 0 0 0-.156.714c0 .349.088.683.262 1.003.18.332.456.655.828.966l.936.654.957.671.017.014a6.3 6.3 0 0 1 .968.98c.29.367.553.774.786 1.224v-.001c.36.688.671 1.49.932 2.404l-.002-.008c.273.868.502 1.668.687 2.4.184.73.326 1.397.424 2 .1.617.173 1.191.22 1.723.038.435.06.862.069 1.278h.482a40.25 40.25 0 0 0 2.69-3.011 23.1 23.1 0 0 0 1.962-2.824c.627-1.066 1.097-2.106 1.408-3.121a10.01 10.01 0 0 0 .465-2.952c0-.635-.061-1.239-.185-1.811a7.317 7.317 0 0 0-.552-1.626 7.107 7.107 0 0 0-.814-1.339 4.618 4.618 0 0 0-.764-.774 17.44 17.44 0 0 1-.315 3.147 14.768 14.768 0 0 1-.954 3.075c-.422.966-.937 1.91-1.545 2.83a22.163 22.163 0 0 1-2.098 2.689Zm12.224-12.29c.417 0 .784.059 1.1.176.328.122.598.308.807.555.201.237.35.501.45.792.1.287.15.6.15.936 0 .329-.247 1.064-.737 2.204-.474 1.1-1.186 2.613-2.137 4.54-.433.874-.757 1.69-.973 2.448-.214.747-.32 1.435-.32 2.064 0 .397.076.741.23 1.032a.577.577 0 0 0 .239.25.89.89 0 0 0 .425.09.711.711 0 0 0 .358-.086.764.764 0 0 0 .27-.272c.088-.143.154-.294.199-.455.043-.158.066-.33.066-.512 0-.194.033-.386.1-.575.066-.182.164-.362.294-.538.145-.197.336-.345.572-.442.222-.092.48-.138.774-.138.436 0 .827.07 1.172.208.353.142.654.355.9.64.242.277.424.597.545.96.118.353.177.746.177 1.178 0 .533-.085 1.015-.255 1.446-.172.436-.43.819-.773 1.145-.682.647-1.574.97-2.675.97-.902 0-1.66-.245-2.274-.737-.604-.484-1.06-1.203-1.367-2.156v-.001c-.198-.625-.346-1.424-.444-2.397a34.412 34.412 0 0 1-.146-3.394v-4.838c0-.84.041-1.556.123-2.148.085-.61.214-1.087.388-1.435a2.545 2.545 0 0 1 1.085-1.138c.461-.248 1.02-.372 1.677-.372Zm0 .608c-.556 0-1.019.1-1.389.298a1.957 1.957 0 0 0-.829.874c-.146.291-.256.707-.33 1.248a15.436 15.436 0 0 0-.117 2.065v4.838c0 1.289.047 2.4.141 3.335.093.926.234 1.683.42 2.273l-.002-.002c.269.835.659 1.457 1.17 1.867.503.402 1.134.604 1.893.604.941 0 1.694-.268 2.257-.802.278-.264.487-.573.626-.926.141-.36.212-.768.212-1.225 0-.366-.048-.696-.146-.989a2.18 2.18 0 0 0-.425-.751 1.728 1.728 0 0 0-.668-.475 2.519 2.519 0 0 0-.947-.163c-.217 0-.398.03-.543.09a.73.73 0 0 0-.314.24 1.522 1.522 0 0 0-.21.383 1.096 1.096 0 0 0-.065.371c0 .233-.03.458-.09.674-.06.215-.149.419-.268.61a1.362 1.362 0 0 1-.485.482 1.31 1.31 0 0 1-.658.167c-.274 0-.512-.055-.713-.163a1.18 1.18 0 0 1-.49-.505c-.2-.378-.299-.816-.299-1.313 0-.683.114-1.426.344-2.23.225-.789.562-1.639 1.013-2.55.94-1.904 1.649-3.408 2.123-4.511.457-1.063.686-1.718.686-1.963 0-.27-.038-.517-.115-.74a1.838 1.838 0 0 0-.339-.597 1.302 1.302 0 0 0-.556-.38 2.574 2.574 0 0 0-.887-.134Zm16.814 2.866c.103-.387.255-.759.459-1.116.211-.373.477-.728.798-1.065l.004-.006a4.497 4.497 0 0 1 1.374-.96 3.858 3.858 0 0 1 1.57-.327c.433 0 .818.063 1.153.188.348.13.638.325.87.584.45.504.675 1.179.675 2.023 0 .56-.144 1.106-.433 1.635-.28.516-.698 1.013-1.252 1.491a137.302 137.302 0 0 1-3.03 2.543 10.984 10.984 0 0 0-.12 1.61c0 .56.038 1.066.114 1.52.076.446.189.841.338 1.185.136.313.316.545.538.695.22.15.49.224.812.224.178 0 .364-.03.559-.09.203-.061.414-.154.632-.278.259-.146.506-.257.741-.331a2.35 2.35 0 0 1 .701-.116c.64 0 1.214.317 1.722.952.242.302.425.62.549.952.125.335.188.68.188 1.034 0 .415-.092.797-.277 1.142a2.658 2.658 0 0 1-.807.9 3.91 3.91 0 0 1-1.103.563c-.39.126-.8.19-1.23.19-1.083 0-1.99-.335-2.719-1.003-.713-.655-1.245-1.625-1.596-2.91v-.001c-.165-.613-.289-1.39-.37-2.329a35.892 35.892 0 0 1-.116-2.634c-.41.372-.812.757-1.207 1.158-.552.56-1.09 1.149-1.612 1.767l-.003.003a39.6 39.6 0 0 0-1.223 1.484v.001a43.443 43.443 0 0 0-1.17 1.563c-.108.351-.283.69-.525 1.017a5.08 5.08 0 0 1-.955.956 4.558 4.558 0 0 1-1.206.691 3.62 3.62 0 0 1-1.278.236 2.78 2.78 0 0 1-1.823-.67 2.26 2.26 0 0 1-.62-.794 2.345 2.345 0 0 1-.208-.996c0-.613.198-1.256.594-1.927.382-.648.951-1.325 1.705-2.03l.002-.003 1.162-1.065 1.086-.999v-1.4c0-.934-.039-1.695-.116-2.283-.074-.566-.181-.967-.32-1.203l.002.004c-.186-.306-.494-.54-.923-.699-.46-.17-1.056-.256-1.786-.256-.27 0-.516-.017-.74-.051a2.837 2.837 0 0 1-.618-.163l-.002-.001c-.329-.136-.578-.328-.747-.577a1.564 1.564 0 0 1-.256-.901c0-.347.072-.675.214-.984.141-.304.35-.586.625-.843.276-.258.587-.452.933-.583a3.15 3.15 0 0 1 1.118-.194c.774 0 1.438.171 1.99.514.556.343.99.854 1.302 1.531l-.001-.001c.252.537.44 1.178.564 1.922.122.738.184 1.577.184 2.517a35.27 35.27 0 0 1-.085 2.443 48.118 48.118 0 0 0 2.604-2.487 40.9 40.9 0 0 0 1.407-1.526c.423-.482.819-.96 1.188-1.436Zm.573.209a.966.966 0 0 1-.054.111 33.645 33.645 0 0 1-1.25 1.517c-.449.513-.925 1.03-1.43 1.55a47.12 47.12 0 0 1-3.204 3.013c-.198.17-.524.002-.5-.258.047-.487.082-1.001.107-1.542.024-.527.036-1.057.036-1.59 0-.913-.059-1.718-.175-2.417-.116-.692-.286-1.281-.513-1.766l-.002-.001c-.262-.568-.618-.991-1.068-1.27-.453-.28-1.01-.421-1.672-.421-.332 0-.634.052-.905.154-.268.1-.512.253-.731.459a2.133 2.133 0 0 0-.489.653c-.105.227-.157.47-.157.73 0 .223.05.41.152.559.102.15.26.27.473.357h-.002c.137.054.297.095.483.124.192.029.408.044.649.044.802 0 1.469.098 1.997.294.56.208.97.526 1.23.953l.002.005c.181.307.314.784.399 1.431.082.625.123 1.412.123 2.362v1.533c0 .05-.063.19-.098.223l-1.185 1.09-1.16 1.065-.001.002.001-.002c-.713.667-1.246 1.299-1.598 1.895-.338.574-.507 1.114-.507 1.618 0 .276.05.523.15.74.1.217.253.411.458.582a2.167 2.167 0 0 0 1.433.529c.365 0 .72-.066 1.067-.195a3.953 3.953 0 0 0 1.045-.602c.345-.27.626-.55.84-.84.21-.28.356-.571.443-.872.002-.008.04-.086.045-.092.406-.568.811-1.112 1.217-1.628a39.84 39.84 0 0 1 1.243-1.508l-.003.003a32.18 32.18 0 0 1 1.643-1.801 30.422 30.422 0 0 1 1.742-1.633c.19-.165.502-.021.502.23 0 1.244.04 2.329.12 3.255.078.912.195 1.652.349 2.221.32 1.172.793 2.047 1.42 2.621.612.561 1.381.841 2.308.841.37 0 .718-.053 1.045-.158.328-.105.639-.265.932-.478.283-.205.493-.436.63-.692.134-.254.202-.54.202-.858 0-.284-.05-.56-.148-.822a2.85 2.85 0 0 0-.456-.784c-.386-.482-.802-.724-1.247-.724-.161 0-.334.03-.52.088a3.29 3.29 0 0 0-.623.28c-.26.147-.513.258-.756.332a2.532 2.532 0 0 1-.734.115c-.445 0-.829-.11-1.152-.328-.319-.216-.57-.535-.754-.956a5.718 5.718 0 0 1-.38-1.329 9.743 9.743 0 0 1-.125-1.618c0-.335.012-.65.036-.946.024-.297.061-.59.112-.879a.582.582 0 0 1 .108-.183 143.242 143.242 0 0 0 3.105-2.604c.5-.43.872-.872 1.117-1.323.239-.436.357-.885.357-1.345 0-.689-.173-1.228-.52-1.617a1.555 1.555 0 0 0-.628-.422 2.693 2.693 0 0 0-.941-.148c-.47 0-.913.091-1.327.273a3.918 3.918 0 0 0-1.187.836l.005-.007a4.855 4.855 0 0 0-.71.947 3.988 3.988 0 0 0-.414 1.023Zm14.876 2.172c.192-.56.411-1.084.659-1.57a9.073 9.073 0 0 1 1.574-2.228l.002-.003a6.917 6.917 0 0 1 2.278-1.539 7.114 7.114 0 0 1 2.725-.514c.891 0 1.669.297 2.333.891.643.576 1.174 1.43 1.59 2.565.326.878.57 1.835.733 2.872.163 1.033.244 2.138.244 3.314 0 .599-.014 1.26-.042 1.987-.028.74-.07 1.537-.125 2.39-.057.872-.099 1.608-.126 2.21a35.61 35.61 0 0 0-.042 1.46c0 .517.048 1.184.142 2 .095.827.238 1.804.429 2.93.096.58.169 1.097.217 1.55.05.463.074.856.074 1.183 0 .38-.052.744-.156 1.092a3.723 3.723 0 0 1-.469.99l-.003.004a2.71 2.71 0 0 1-.956.886c-.373.2-.792.301-1.257.301-.867 0-1.546-.329-2.038-.984a3.619 3.619 0 0 1-.529-.967 3.06 3.06 0 0 1-.179-1.035c0-.5.098-1.181.296-2.044.192-.844.482-1.87.868-3.077.328-1.025.623-1.95.884-2.773.208-.657.328-1.038.358-1.145l.001-.005a42.34 42.34 0 0 0 .464-1.618c.134-.504.249-.978.344-1.422l.001-.006c.208-.878.362-1.645.464-2.301.1-.65.151-1.201.151-1.654 0-.818-.042-1.522-.128-2.112-.084-.578-.207-1.046-.37-1.401-.213-.453-.51-.79-.894-1.014-.391-.227-.879-.341-1.464-.341-.614 0-1.164.148-1.65.446-.493.301-.926.758-1.299 1.372-.775 1.27-1.287 3.048-1.537 5.333v.006a5.451 5.451 0 0 0-.034.408c-.008.16-.012.33-.012.512a17.172 17.172 0 0 0 .07 1.386c.048.533.043.454.056.604.012.141.018.229.018.261 0 .172-.033.52-.098 1.043l-.015.063a4.47 4.47 0 0 1-.456.944c-.186.289-.403.55-.654.782-.257.241-.533.422-.826.544-.297.123-.61.186-.936.186-.89 0-1.625-.193-2.204-.58v.002a2.02 2.02 0 0 1-.693-.76 2.21 2.21 0 0 1-.232-1.026c0-.706.166-1.507.498-2.403v.001c.361-.989.631-1.944.812-2.864.18-.914.27-1.792.27-2.636 0-.629-.039-1.224-.117-1.785a10.075 10.075 0 0 0-.348-1.598c-.147-.476-.321-.828-.524-1.055-.17-.191-.362-.286-.575-.286-.036 0-.11.038-.226.115l-.002.001c-.153.102-.344.26-.571.472a2.847 2.847 0 0 1-.858.562c-.309.127-.635.19-.977.19-.326 0-.626-.057-.901-.174a2.113 2.113 0 0 1-.734-.522 2.295 2.295 0 0 1-.477-.793 2.895 2.895 0 0 1-.154-.969c0-.363.069-.695.206-1 .138-.302.344-.573.617-.81a2.73 2.73 0 0 1 .915-.526 3.388 3.388 0 0 1 1.103-.172c.787 0 1.483.233 2.089.698.59.453 1.087 1.127 1.492 2.02l-.003-.004c.249.531.467 1.172.654 1.923.094.375.181.781.26 1.217Zm.207 1.465c-.052.213-.341.251-.497.134.018.293.027.592.027.896 0 .88-.093 1.798-.281 2.752a19.721 19.721 0 0 1-.839 2.954v.002c-.306.827-.46 1.56-.46 2.194 0 .287.055.536.164.747.106.208.27.386.491.533.475.317 1.097.476 1.866.476.248 0 .483-.046.704-.139.226-.093.441-.235.645-.426.213-.198.399-.42.556-.666.154-.239.281-.5.382-.783.06-.481.09-.795.09-.94l-.018-.21-.052-.6a20.98 20.98 0 0 1-.056-.76v-.001a13.372 13.372 0 0 1-.006-1.22 6.23 6.23 0 0 1 .038-.453v.005c.26-2.377.802-4.239 1.623-5.586.424-.696.925-1.221 1.501-1.574a3.695 3.695 0 0 1 1.966-.536c.692 0 1.281.142 1.768.425.493.286.873.715 1.14 1.283l.001.003c.188.41.328.933.42 1.568.09.623.135 1.356.135 2.198 0 .473-.053 1.056-.16 1.746a30.754 30.754 0 0 1-.471 2.346l.002-.006c-.096.449-.213.933-.351 1.45a45.241 45.241 0 0 1-.469 1.64l.001-.005a75.48 75.48 0 0 1-.362 1.162c-.154.484-.449 1.41-.886 2.775a37.907 37.907 0 0 0-.855 3.028c-.186.814-.279 1.45-.279 1.908 0 .285.048.563.144.833.098.275.244.544.44.805.37.493.888.74 1.554.74.365 0 .688-.076.969-.227a2.12 2.12 0 0 0 .742-.693 3.103 3.103 0 0 0 .522-1.745c0-.313-.024-.686-.07-1.117a26.3 26.3 0 0 0-.213-1.515 57.62 57.62 0 0 1-.433-2.962c-.097-.843-.146-1.533-.146-2.07 0-.375.014-.87.042-1.485.028-.628.07-1.368.126-2.221.056-.87.098-1.661.125-2.374.028-.726.042-1.381.042-1.965 0-1.155-.079-2.229-.235-3.222-.156-.991-.391-1.91-.704-2.756-.381-1.036-.857-1.81-1.427-2.32a2.794 2.794 0 0 0-1.927-.737c-.903 0-1.735.155-2.494.466a6.313 6.313 0 0 0-2.076 1.405l-.003.002.003-.002-.003.002a8.467 8.467 0 0 0-1.464 2.08 12.65 12.65 0 0 0-.992 2.758Zm-1.272-3.306a8.347 8.347 0 0 0-.399-1.043l-.002-.004c-.361-.799-.798-1.394-1.309-1.787a2.741 2.741 0 0 0-1.718-.572c-.335 0-.638.047-.908.14-.266.09-.504.226-.713.408a1.774 1.774 0 0 0-.46.602 1.792 1.792 0 0 0-.153.75c0 .284.04.54.12.766.078.22.195.415.35.584.154.168.329.294.523.376.196.083.418.125.666.125.265 0 .514-.049.747-.145.236-.097.462-.245.674-.444.252-.235.468-.413.65-.534l-.001.001c.22-.146.408-.22.563-.22.394 0 .737.164 1.029.492.124.138.237.306.341.505Z"/><path fill="#FEFEFE" d="M14.81 28.575a9.852 9.852 0 0 1-.407-1.461c-.08-.431-.12-.902-.12-1.413 0-1.181.272-2.107.814-2.778.67-.83 1.708-1.245 3.113-1.245 2.585 0 4.42 1.74 5.506 5.221.575 1.787 1.037 4.805 1.388 9.051.032-.096.607-2.363 1.724-6.8 1.245-4.982 2.857-7.472 4.836-7.472.702 0 1.285.248 1.748.742.463.495.694 1.046.694 1.653 0 .925-.973 2.09-2.92 3.495-2.33 1.66-3.942 3.704-4.836 6.13a9.215 9.215 0 0 0-.503 2.156c-.08.734-.12 1.58-.12 2.538v1.676c0 .735.144 1.597.431 2.587.639 2.203.958 3.528.958 3.975 0 .83-.256 1.548-.766 2.155-.511.607-1.118.91-1.82.91-.638 0-1.205-.335-1.7-1.006-.494-.67-.741-1.357-.741-2.06 0-.159.542-2.074 1.628-5.746.51-1.725.765-3.161.765-4.311 0-2.586-.526-4.661-1.58-6.226-1.18-1.756-2.856-2.634-5.027-2.634-.542 0-1.046.072-1.508.215-.464.145-.982.36-1.557.648Zm27.58-6.897c1.212 0 2.49.296 3.83.886 1.34.591 2.01 1.286 2.01 2.084 0 .51-.152.982-.454 1.413-.304.43-.631.646-.982.646-.543 0-1.66-.223-3.352-.67-.83-.224-1.58-.335-2.25-.335-1.213 0-2.283.175-3.209.526-.925.351-1.388.862-1.388 1.533 0 .926.463 1.39 1.388 1.39.32 0 .75-.113 1.293-.336 1.245-.511 2.06-.767 2.442-.767.607 0 1.197.216 1.771.647.576.431.862.966.862 1.605 0 .734-.247 1.317-.734 1.748-.494.43-1.125.646-1.883.646-.447 0-1.125-.223-2.043-.67-.926-.447-1.508-.671-1.764-.671-.885 0-1.332.463-1.332 1.389 0 1.022.606 1.788 1.811 2.3.99.414 2.195.622 3.623.622 1.149 0 2.219-.112 3.224-.336.998-.223 1.867-.542 2.594-.957.287-.16.51-.16.67 0 .16.16.24.415.24.767 0 .286-.08.59-.24.91-.67 1.085-1.651 1.963-2.944 2.633-1.293.67-2.753 1.006-4.381 1.006-1.596 0-3.056-.528-4.382-1.581-1.325-1.053-1.987-2.33-1.987-3.831 0-.895.256-1.693.766-2.395s1.197-1.277 2.06-1.724c-.735-.351-1.318-.822-1.749-1.413a3.291 3.291 0 0 1-.646-1.988c0-1.5.719-2.721 2.155-3.663 1.437-.943 3.097-1.414 4.98-1.414ZM57.183 33.46c1.564-1.725 2.761-3.537 3.59-5.436.83-1.9 1.246-4.015 1.246-6.346l.287-.144c.734.512 1.357 1.301 1.867 2.37.511 1.07.766 2.26.766 3.57 0 1.979-.638 4.054-1.915 6.225-1.053 1.82-2.65 3.815-4.788 5.987h-.91c0-.99-.095-2.076-.287-3.257-.191-1.181-.558-2.634-1.101-4.358-.255-.894-.559-1.677-.91-2.347-.447-.862-1.005-1.565-1.676-2.107l-1.915-1.342c-.798-.67-1.197-1.404-1.197-2.202 0-.608.248-1.126.742-1.557.496-.431 1.126-.647 1.892-.647 1.277 0 2.202.735 2.776 2.204.256.639.591 2.123 1.006 4.453.096.64.184 1.454.264 2.443.08.99.168 1.82.263 2.49Zm12.449-11.782c.766 0 1.325.208 1.675.623.352.415.527.926.527 1.533 0 .575-.95 2.777-2.84 6.61-.886 1.787-1.325 3.336-1.325 4.645 0 .447.088.837.263 1.173.176.335.487.503.934.503.383 0 .678-.168.886-.503.207-.335.311-.71.311-1.126 0-.319.112-.63.335-.934.224-.303.59-.455 1.102-.455.797 0 1.412.248 1.843.742.43.495.646 1.142.646 1.94 0 .99-.311 1.78-.934 2.371-.622.59-1.444.886-2.465.886-1.66 0-2.777-.894-3.352-2.682-.383-1.213-.575-3.113-.575-5.7v-4.837c0-1.66.16-2.81.48-3.448.446-.894 1.276-1.34 2.489-1.34Zm17.093 3.305c.192-.766.59-1.469 1.197-2.107.798-.798 1.708-1.197 2.73-1.197.797 0 1.395.223 1.794.67.4.447.599 1.054.599 1.82 0 1.022-.527 1.988-1.58 2.898-1.053.91-2.09 1.78-3.113 2.61a10.233 10.233 0 0 0-.143 1.772c0 1.149.16 2.09.48 2.826.318.734.86 1.1 1.627 1.1.415 0 .862-.135 1.34-.407.48-.27.91-.407 1.294-.407.542 0 1.037.28 1.484.838.447.56.67 1.158.67 1.797 0 .734-.319 1.332-.957 1.796a3.582 3.582 0 0 1-2.155.694c-2.01 0-3.351-1.23-4.022-3.688-.319-1.18-.479-3.033-.479-5.555a30.701 30.701 0 0 0-3.351 3.4 42.067 42.067 0 0 0-2.442 3.114c-.192.67-.654 1.292-1.389 1.868-.734.574-1.5.862-2.298.862-.606 0-1.15-.2-1.628-.599-.48-.399-.718-.918-.718-1.556 0-1.118.734-2.363 2.202-3.736.766-.702 1.548-1.42 2.347-2.155v-1.533c0-1.884-.16-3.097-.48-3.64-.446-.734-1.436-1.1-2.968-1.1-.51 0-.925-.065-1.244-.192-.543-.224-.815-.623-.815-1.197 0-.607.248-1.142.743-1.605.494-.463 1.108-.694 1.843-.694 1.437 0 2.442.623 3.017 1.868.479 1.021.718 2.458.718 4.31a33.8 33.8 0 0 1-.144 3.16 47.374 47.374 0 0 0 3.184-2.992 36.884 36.884 0 0 0 2.657-3.043Zm15.082 3.64c.511-2.108 1.357-3.768 2.538-4.982 1.309-1.309 2.905-1.963 4.788-1.963 1.628 0 2.841 1.086 3.639 3.257.639 1.724.957 3.751.957 6.082 0 1.181-.055 2.634-.167 4.358-.112 1.724-.168 2.953-.168 3.688 0 1.053.192 2.714.575 4.98.191 1.15.287 2.044.287 2.683 0 .703-.192 1.341-.575 1.916-.479.702-1.133 1.053-1.963 1.053-.766 0-1.364-.287-1.796-.862-.431-.575-.646-1.181-.646-1.82 0-.958.383-2.634 1.149-5.029a363.048 363.048 0 0 0 1.245-3.927 37.79 37.79 0 0 0 .814-3.065c.415-1.756.623-3.097.623-4.023 0-1.66-.176-2.874-.527-3.64-.48-1.022-1.357-1.532-2.634-1.532-1.341 0-2.41.654-3.208 1.963-.798 1.309-1.325 3.129-1.58 5.46a7.918 7.918 0 0 0-.048.957c0 .415.024.887.072 1.413.048.527.072.806.072.838 0 .16-.032.495-.096 1.006a3.907 3.907 0 0 1-1.029 1.604c-.463.43-.982.647-1.556.647-.83 0-1.508-.176-2.035-.528-.527-.35-.79-.862-.79-1.532s.16-1.437.479-2.3c.734-2.01 1.101-3.878 1.101-5.602 0-1.277-.159-2.435-.479-3.472-.319-1.038-.782-1.557-1.388-1.557-.192 0-.527.224-1.006.67-.479.448-1.021.671-1.628.671-.575 0-1.046-.2-1.412-.598-.367-.4-.55-.918-.55-1.556a2 2 0 0 1 .717-1.581c.48-.415 1.085-.623 1.82-.623 1.437 0 2.538.846 3.304 2.538.479 1.023.845 2.492 1.101 4.407Z"/><path fill="#E31E24" d="M33.492 48.977v.216h-3.443v-.216c.355 0 .601-.057.739-.17.137-.113.206-.319.206-.62V43.74c-.174 0-.37.015-.586.047a1.434 1.434 0 0 0-.902.508c-.239.282-.358.582-.358.902h-.26v-1.73h5.809v1.73h-.25c0-.48-.172-.843-.516-1.09-.344-.245-.805-.367-1.384-.367v4.447c0 .307.07.515.212.625.14.11.385.165.733.165Zm2.93-.705 2.303-4.945h.25l2.313 4.776c.188.325.296.507.325.544a.79.79 0 0 0 .544.31v.236H39.04v-.235c.218 0 .384-.016.5-.047.203-.057.303-.157.303-.301 0-.113-.052-.276-.157-.49-.105-.212-.2-.413-.287-.6h-2.161a17.08 17.08 0 0 0-.282.549c-.094.191-.142.359-.142.503 0 .206.135.329.402.366a.817.817 0 0 0 .174.02h.185v.235H35.62v-.236a.678.678 0 0 0 .51-.216c.094-.094.191-.25.293-.47Zm2.824-1.09-.966-2.004-.896 2.003h1.862Zm3.898 1.795c.275-.031.507-.094.695-.188.188-.094.343-.235.467-.423l1.498-1.796-1.694-2.236a2.6 2.6 0 0 0-.369-.443.868.868 0 0 0-.565-.217v-.206h3.356v.216l-.185-.01h-.217a.68.68 0 0 0-.283.085.22.22 0 0 0-.108.201c0 .075.02.14.06.194.04.054.077.105.113.157l.921 1.243.838-1.061a1.345 1.345 0 0 0 .25-.505c0-.126-.069-.21-.206-.252a1.655 1.655 0 0 0-.467-.06v-.208h2.389v.207c-.304 0-.583.08-.837.238-.195.127-.405.32-.63.58l-1.107 1.382 1.922 2.604c.13.157.232.266.304.329.138.113.283.17.434.17v.216h-3.268v-.217c.275 0 .467-.017.575-.051.109-.035.163-.096.163-.184a.785.785 0 0 0-.108-.348 1.697 1.697 0 0 0-.12-.197l-.923-1.298-1.052 1.279c-.13.144-.196.291-.196.442 0 .169.127.279.38.329.094.019.21.028.348.028v.216h-2.378v-.216Zm10.89-2.256v1.824c0 .162.08.297.239.404a.76.76 0 0 0 .32.084c.14.013.28.02.418.02v.14h-3.258v-.14c.196 0 .348-.006.456-.015a.62.62 0 0 0 .283-.09c.167-.106.25-.24.25-.403V46.39c0-.407-.037-.786-.108-1.137-.094-.458-.243-.83-.446-1.12a1.268 1.268 0 0 0-.553-.436 2.18 2.18 0 0 0-.89-.165v-.122c.463 0 .871.047 1.226.141.355.094.655.248.901.46.275.24.496.5.663.782.195.325.336.72.423 1.184.203-.978.456-1.664.76-2.059.26-.338.576-.508.945-.508.26 0 .481.082.662.245.18.163.271.357.271.583a.676.676 0 0 1-.19.47.628.628 0 0 1-.483.206.758.758 0 0 1-.428-.126.385.385 0 0 1-.19-.334c0-.15.057-.28.173-.386a.648.648 0 0 1 .456-.16c.152 0 .228-.043.228-.13 0-.063-.045-.12-.136-.17a.754.754 0 0 0-.364-.075c-.325 0-.615.172-.868.517-.188.257-.348.595-.478 1.015a7.933 7.933 0 0 0-.196.85c-.057.323-.086.591-.086.805Zm6.102-3.394 2.813 5.866H57.16l2.725-5.866h.25Zm1.01 5.518-1.694-3.668-1.657 3.668h3.351Zm6.36-5.377c.535 0 .996.133 1.38.398.429.29.642.667.642 1.134 0 .536-.257.948-.77 1.24-.443.246-.992.368-1.651.368h-.88v1.58c0 .3.062.507.185.62.123.112.355.17.695.17v.215h-3.29v-.216c.318-.025.54-.094.667-.207.127-.113.19-.306.19-.582v-3.761c0-.288-.06-.477-.186-.564-.082-.063-.304-.125-.671-.188v-.207H67.505Zm.318 1.91v.039-.712c-.037-.277-.13-.498-.285-.663-.183-.195-.438-.292-.765-.292-.145 0-.27.015-.371.047a.27.27 0 0 0-.143.175.753.753 0 0 0-.033.194v2.14c.438 0 .784-.06 1.039-.18.328-.152.514-.4.558-.747Zm5.895-2.051c.956 0 1.765.293 2.427.879.662.586.994 1.295.994 2.129 0 .827-.337 1.533-1.01 2.116-.673.582-1.488.874-2.443.874-.948 0-1.75-.29-2.405-.87-.655-.58-.983-1.287-.983-2.12 0-.821.335-1.528 1.004-2.12.67-.593 1.475-.888 2.416-.888Zm-.064.3c-.66 0-1.119.32-1.38.959-.173.42-.26.978-.26 1.673 0 .721.097 1.31.293 1.767.29.683.778 1.025 1.465 1.025.675 0 1.14-.33 1.402-.987.166-.42.25-.996.25-1.73 0-.695-.102-1.27-.305-1.72-.297-.658-.785-.987-1.466-.987Zm4.277 5.35c.587 0 .88-.26.88-.78v-3.808c0-.27-.067-.456-.203-.56-.136-.103-.362-.155-.677-.155v-.206h2.472l1.918 3.945 1.917-3.945h2.434v.206c-.07.007-.152.016-.243.029a.807.807 0 0 0-.302.117.457.457 0 0 0-.212.249c-.03.1-.046.226-.046.377v3.859c0 .06.009.157.026.291.019.135.104.236.255.305.116.05.29.076.522.076v.216h-3.214v-.216c.362-.044.595-.115.7-.212.105-.097.157-.3.157-.606v-3.987l-2.41 5.02h-.26l-2.4-4.888v3.893c0 .3.07.505.212.615.14.11.382.165.722.165v.216h-2.248v-.216Zm13.149-5.303c-.403 0-.662.06-.78.18-.081.08-.121.24-.121.479v3.892c0 .282.072.476.217.582.116.089.344.145.684.17v.216h-3.377v-.216c.283 0 .505-.06.668-.179.163-.119.244-.303.244-.554v-3.912c0-.27-.083-.448-.25-.535-.1-.05-.322-.091-.662-.123v-.206h3.377v.206Zm5.18.818c.101-.081.184-.16.25-.235.1-.119.151-.222.151-.31 0-.125-.08-.202-.238-.23a3.609 3.609 0 0 0-.609-.043v-.206h2.834v.206c-.376 0-.749.1-1.118.301a4.862 4.862 0 0 0-.912.687l-1.082.952 2.798 2.996a.95.95 0 0 0 .342.263c.12.05.277.085.472.104v.216h-3.474v-.206l.347-.01c.102 0 .194-.01.277-.033.084-.022.129-.06.136-.117a.518.518 0 0 0-.087-.225 1.086 1.086 0 0 0-.152-.217l-1.694-1.87-.25.206v1.476c0 .3.062.506.185.615.123.11.35.165.684.165v.216h-3.268v-.216c.311 0 .53-.06.657-.179s.19-.322.19-.61v-3.761c0-.276-.06-.461-.18-.555-.119-.093-.341-.16-.667-.197v-.207h3.268v.207l-.38.047c-.203.024-.335.099-.396.22a1.08 1.08 0 0 0-.093.484v1.834l2.008-1.768Zm4.559 3.695v-3.761c0-.276-.065-.46-.195-.555-.094-.069-.311-.131-.652-.187v-.217h3.279v.217l-.391.047c-.188.019-.317.09-.385.216a.988.988 0 0 0-.103.48v1.617h2.323v-1.618c0-.3-.052-.5-.157-.596-.105-.097-.342-.146-.711-.146v-.216h3.279v.216l-.347.047c-.204.044-.339.12-.408.23-.069.11-.103.265-.103.465v3.761c0 .289.067.494.201.616s.353.183.657.183v.207h-3.279v-.207a3.7 3.7 0 0 0 .534-.085c.193-.062.306-.178.334-.347V46.42h-2.323v1.767c0 .289.063.486.19.592.126.107.356.176.689.207v.207h-3.279v-.207c.323-.031.544-.102.665-.211.121-.11.182-.306.182-.588Z"/><path fill="#005AA5" d="M13.976 27.977c-.096-.273-.179-.535-.249-.784a7.272 7.272 0 0 1-.259-1.399 8.937 8.937 0 0 1-.03-.752c0-.608.071-1.152.212-1.633a3.58 3.58 0 0 1 .645-1.262v.001c.355-.44.807-.77 1.355-.99.542-.217 1.176-.325 1.9-.325 1.343 0 2.49.452 3.444 1.357.941.892 1.688 2.224 2.24 3.994v-.001c.29.905.552 2.116.785 3.633.192 1.255.365 2.714.519 4.38l.183-.722c.287-1.133.71-2.809 1.268-5.029.628-2.51 1.35-4.396 2.167-5.66.843-1.3 1.793-1.952 2.849-1.952.376 0 .721.068 1.036.201.316.135.599.334.847.6.247.264.432.544.557.84.125.298.187.612.187.94 0 .988-1 2.204-2.998 3.646-1.15.82-2.122 1.734-2.92 2.743a11.987 11.987 0 0 0-1.85 3.3 9.147 9.147 0 0 0-.492 2.112c-.04.357-.069.748-.089 1.174-.02.423-.03.871-.03 1.344v1.677c0 .718.141 1.563.424 2.535.322 1.112.562 1.997.72 2.654.164.677.245 1.134.245 1.372 0 .436-.067.844-.203 1.223a3.388 3.388 0 0 1-.607 1.052c-.548.65-1.202.976-1.961.976a1.92 1.92 0 0 1-.998-.278c-.305-.18-.589-.448-.852-.804a4.192 4.192 0 0 1-.582-1.065 3.239 3.239 0 0 1-.196-1.104c0-.096.138-.631.414-1.606.27-.953.677-2.351 1.222-4.193.253-.854.443-1.638.57-2.35.125-.707.188-1.343.188-1.908 0-1.278-.13-2.43-.39-3.452-.258-1.016-.644-1.907-1.158-2.67-.573-.853-1.264-1.49-2.075-1.915-.811-.425-1.744-.638-2.799-.638-.525 0-1.01.07-1.454.207-.224.07-.464.158-.719.264-.254.106-.523.23-.808.372-.093.047-.223-.006-.258-.105Zm.282-.32c.222-.107.436-.204.642-.29.263-.109.514-.2.753-.275a5.247 5.247 0 0 1 1.562-.224c1.116 0 2.107.227 2.971.68.865.453 1.602 1.132 2.21 2.037.54.8.944 1.73 1.212 2.788.267 1.053.401 2.233.401 3.541 0 .585-.065 1.243-.195 1.972a22.03 22.03 0 0 1-.58 2.39c-.54 1.83-.947 3.227-1.22 4.19-.266.94-.4 1.442-.4 1.505 0 .33.059.657.175.98.118.327.295.65.531.97.233.315.48.55.741.705.254.15.524.225.81.225.644 0 1.203-.281 1.677-.844.24-.287.422-.599.541-.936.12-.338.18-.705.18-1.1 0-.207-.077-.637-.233-1.285-.161-.668-.4-1.547-.716-2.638-.293-1.008-.439-1.887-.439-2.638v-1.676c0-.485.01-.938.03-1.361.02-.42.05-.82.091-1.196a9.29 9.29 0 0 1 .513-2.2 12.367 12.367 0 0 1 1.908-3.404c.816-1.034 1.814-1.972 2.995-2.813 1.895-1.367 2.843-2.482 2.843-3.346a2.04 2.04 0 0 0-.16-.796 2.471 2.471 0 0 0-.485-.729c-.214-.229-.455-.4-.72-.513a2.26 2.26 0 0 0-.892-.17c-.922 0-1.769.594-2.538 1.783-.794 1.227-1.5 3.076-2.118 5.547-.558 2.22-.982 3.895-1.269 5.029-.287 1.135-.44 1.73-.459 1.785-.057.17-.347.134-.361-.043-.176-2.126-.379-3.938-.608-5.436-.23-1.5-.488-2.691-.771-3.574l-.001-.002c-.533-1.71-1.247-2.988-2.141-3.836-.881-.835-1.944-1.253-3.188-1.253-.68 0-1.267.099-1.763.297-.488.196-.89.488-1.204.878a3.22 3.22 0 0 0-.578 1.133c-.13.445-.195.954-.195 1.528 0 .246.01.486.03.722a6.656 6.656 0 0 0 .244 1.33c.05.179.108.366.174.563Zm27.472-6.823c1.239 0 2.54.3 3.906.902.691.305 1.214.64 1.567 1.005.37.383.555.8.555 1.248 0 .273-.041.538-.123.793a2.68 2.68 0 0 1-.366.726c-.166.236-.34.414-.523.534a1.095 1.095 0 0 1-.61.192c-.558 0-1.691-.226-3.4-.677-.408-.11-.796-.192-1.164-.247a7.069 7.069 0 0 0-1.039-.082c-.598 0-1.158.043-1.681.129a7.593 7.593 0 0 0-1.461.386c-.434.164-.757.364-.969.597-.199.22-.299.474-.299.761 0 .802.401 1.203 1.203 1.203.296 0 .703-.106 1.222-.32.63-.258 1.15-.452 1.56-.58.425-.134.743-.201.953-.201.324 0 .644.058.96.173.312.114.62.285.922.511.31.232.543.494.699.785.158.295.238.618.238.968 0 .39-.067.744-.199 1.058a2.277 2.277 0 0 1-.599.829v.001c-.266.23-.568.405-.904.52a3.374 3.374 0 0 1-1.101.172c-.243 0-.544-.059-.903-.177-.35-.115-.756-.286-1.222-.512-.455-.22-.827-.386-1.118-.496-.271-.104-.46-.155-.564-.155-.762 0-1.147.4-1.147 1.203 0 .467.138.876.413 1.225.283.359.711.66 1.285.903v-.001a7.347 7.347 0 0 0 1.606.455c.592.102 1.24.153 1.945.153.57 0 1.12-.027 1.646-.082.53-.055 1.043-.138 1.537-.248.49-.11.951-.244 1.38-.402.42-.155.808-.334 1.161-.536l.003-.001a.99.99 0 0 1 .473-.144.57.57 0 0 1 .419.174v.001c.1.102.176.23.225.387.045.147.069.317.069.51 0 .317-.087.648-.26.993l-.008.015a6.864 6.864 0 0 1-1.272 1.514 8.876 8.876 0 0 1-3.853 1.958c-.745.17-1.532.256-2.359.256-.819 0-1.604-.135-2.354-.406a7.54 7.54 0 0 1-2.142-1.215c-.683-.543-1.196-1.146-1.54-1.808a4.642 4.642 0 0 1-.518-2.169 4.148 4.148 0 0 1 .802-2.503c.265-.363.575-.694.93-.991.269-.226.564-.432.886-.62a4.986 4.986 0 0 1-.71-.477 4.4 4.4 0 0 1-.794-.831 3.527 3.527 0 0 1-.511-.992 3.548 3.548 0 0 1-.171-1.105c0-.783.188-1.495.565-2.135.374-.636.932-1.198 1.675-1.684a8.558 8.558 0 0 1 2.373-1.083 9.858 9.858 0 0 1 2.706-.36Zm0 .372c-.925 0-1.794.115-2.607.345a8.217 8.217 0 0 0-2.27 1.037c-.695.455-1.215.975-1.559 1.56a3.773 3.773 0 0 0-.512 1.948c0 .348.05.679.152.99.102.312.254.608.459.888.206.283.448.537.726.761.279.226.596.424.951.594.134.064.137.264.005.333a6.127 6.127 0 0 0-1.127.743c-.331.277-.62.585-.867.925a3.77 3.77 0 0 0-.73 2.285c0 .72.158 1.387.475 1.998.32.615.8 1.178 1.441 1.688.646.514 1.326.9 2.036 1.156.71.256 1.453.384 2.23.384.801 0 1.56-.082 2.275-.247a8.533 8.533 0 0 0 2.021-.738 8.075 8.075 0 0 0 1.667-1.135c.475-.426.875-.9 1.198-1.421.145-.292.218-.566.218-.823 0-.157-.017-.29-.05-.4a.561.561 0 0 0-.135-.236.212.212 0 0 0-.156-.065.637.637 0 0 0-.293.096h.003c-.37.211-.777.398-1.22.561-.44.163-.916.301-1.426.415-.51.114-1.036.2-1.579.256-.546.057-1.107.085-1.684.085-.724 0-1.393-.053-2.008-.158a7.756 7.756 0 0 1-1.688-.48c-.633-.267-1.11-.606-1.432-1.014a2.284 2.284 0 0 1-.493-1.454c0-1.05.51-1.575 1.519-1.575.15 0 .381.06.697.18.295.112.677.282 1.147.51.453.22.844.384 1.175.493.32.105.583.158.788.158.359 0 .686-.051.98-.152.291-.1.552-.25.781-.449v.002c.22-.197.389-.43.5-.696.113-.268.17-.573.17-.914 0-.288-.064-.553-.193-.792a2.056 2.056 0 0 0-.594-.664 3.219 3.219 0 0 0-.825-.459c-.275-.1-.552-.15-.835-.15-.173 0-.455.061-.843.183-.403.127-.913.317-1.529.569-.566.233-1.02.35-1.363.35-1.05 0-1.574-.526-1.574-1.575 0-.383.132-.72.395-1.012.25-.276.622-.508 1.114-.695a7.91 7.91 0 0 1 1.532-.404c.546-.09 1.127-.135 1.74-.135.344 0 .708.03 1.093.087.383.057.785.142 1.207.255h-.001c1.675.443 2.776.664 3.304.664a.732.732 0 0 0 .407-.131c.144-.095.286-.24.423-.436a2.208 2.208 0 0 0 .422-1.305c0-.35-.151-.681-.451-.992-.318-.33-.801-.637-1.45-.922-1.318-.58-2.57-.87-3.757-.87Zm14.925 11.17a21.53 21.53 0 0 0 1.786-2.33 18.178 18.178 0 0 0 1.505-2.755c.409-.937.716-1.928.92-2.973a17.12 17.12 0 0 0 .309-3.299c0-.051.057-.143.102-.166l.288-.144a.252.252 0 0 1 .189.014 4.94 4.94 0 0 1 1.057 1.014c.32.406.61.883.872 1.43a7.85 7.85 0 0 1 .588 1.735c.13.608.196 1.245.196 1.912 0 1.007-.163 2.04-.488 3.096-.323 1.05-.808 2.126-1.454 3.224a23.6 23.6 0 0 1-2.002 2.885c-.799 1-1.737 2.045-2.814 3.138a.322.322 0 0 1-.132.056h-.91c-.092 0-.185-.093-.185-.186 0-.484-.024-.998-.072-1.54-.049-.55-.12-1.113-.213-1.687a23.396 23.396 0 0 0-.416-1.96 43.494 43.494 0 0 0-.679-2.373l-.002-.004a14.255 14.255 0 0 0-.413-1.241 10.27 10.27 0 0 0-.483-1.07v-.002c-.218-.42-.462-.8-.734-1.143-.271-.34-.57-.643-1.593-1.393l-1.205-.844-.013-.01c-.416-.35-.73-.72-.941-1.108a2.56 2.56 0 0 1-.322-1.238c0-.331.068-.64.203-.924.135-.282.335-.54.602-.772.266-.232.568-.405.906-.52a3.398 3.398 0 0 1 1.108-.173c.68 0 1.27.197 1.767.592.489.388.883.964 1.182 1.73v-.002c.13.328.282.869.45 1.621.17.75.359 1.707.566 2.87v.005c.048.318.094.685.139 1.097.046.433.089.886.127 1.358.041.522.083.976.123 1.36.03.255.057.495.086.72Zm.007.55c-.102.112-.3.052-.32-.099a32.148 32.148 0 0 1-.139-1.132c-.047-.445-.089-.902-.127-1.37a50.205 50.205 0 0 0-.124-1.348 26.245 26.245 0 0 0-.136-1.077 66.195 66.195 0 0 0-.56-2.853c-.166-.732-.31-1.254-.435-1.564v-.002c-.276-.703-.631-1.228-1.068-1.574-.429-.34-.941-.51-1.537-.51-.363 0-.692.05-.988.15-.291.1-.552.25-.781.45a2.02 2.02 0 0 0-.511.652 1.751 1.751 0 0 0-.167.764c0 .37.091.723.275 1.062.187.343.47.674.847.993l1.201.84.71.497.01.009c.346.28.662.6.95.962a7.4 7.4 0 0 1 .773 1.204v-.001c.177.338.344.708.499 1.108.154.4.296.824.425 1.274l-.002-.004c.272.865.5 1.663.685 2.392a23.394 23.394 0 0 1 .64 3.705c.042.477.066.939.072 1.387h.647a40.604 40.604 0 0 0 2.733-3.055 23.316 23.316 0 0 0 1.972-2.838v-.001c.631-1.073 1.104-2.122 1.42-3.146.313-1.018.47-2.014.47-2.986 0-.643-.062-1.255-.187-1.835a7.436 7.436 0 0 0-.561-1.654 7.207 7.207 0 0 0-.828-1.36 4.62 4.62 0 0 0-.889-.873l-.085.042a17.416 17.416 0 0 1-.314 3.255 14.628 14.628 0 0 1-.946 3.05c-.42.96-.931 1.897-1.536 2.811-.603.914-1.3 1.806-2.088 2.675Zm12.312-12.092c.404 0 .757.056 1.058.168.31.115.564.288.76.52.19.226.333.478.429.755.094.275.141.575.141.898 0 .313-.242 1.032-.726 2.156-.473 1.101-1.185 2.613-2.134 4.535a14.702 14.702 0 0 0-.981 2.467c-.217.759-.325 1.458-.325 2.096 0 .417.082.78.243 1.088.07.134.167.234.288.3a1 1 0 0 0 .48.103c.16 0 .3-.033.418-.1a.88.88 0 0 0 .31-.314 1.86 1.86 0 0 0 .213-.485c.047-.17.07-.351.07-.544 0-.18.032-.36.095-.535.062-.172.154-.342.277-.508.132-.18.306-.314.522-.403.207-.086.45-.128.729-.128.422 0 .799.066 1.128.2.336.134.621.337.855.606.232.266.406.573.521.92.115.342.171.723.171 1.142 0 .517-.082.985-.246 1.402-.166.42-.414.789-.745 1.102-.66.626-1.524.938-2.594.938-.874 0-1.607-.236-2.2-.71-.586-.47-1.03-1.17-1.328-2.101l-.001-.001c-.195-.617-.341-1.408-.438-2.372a34.35 34.35 0 0 1-.145-3.383V25.81c0-.837.04-1.548.121-2.133.083-.595.209-1.062.377-1.399a2.43 2.43 0 0 1 1.036-1.085c.444-.24.984-.358 1.62-.358Zm0 .372c-.576 0-1.057.104-1.444.312-.38.205-.674.514-.88.925-.15.302-.264.73-.341 1.284a15.47 15.47 0 0 0-.118 2.082v4.837c0 1.29.048 2.406.143 3.346.094.936.235 1.701.423 2.297.275.857.678 1.499 1.208 1.922.525.42 1.18.63 1.967.63.972 0 1.752-.278 2.337-.834.292-.276.51-.6.656-.969.147-.373.22-.795.22-1.267 0-.38-.05-.722-.152-1.026-.1-.3-.25-.563-.448-.792a1.846 1.846 0 0 0-.713-.507 2.65 2.65 0 0 0-.991-.171c-.231 0-.428.033-.588.1a.84.84 0 0 0-.364.278c-.1.137-.176.275-.225.415a1.211 1.211 0 0 0-.073.41c0 .223-.029.437-.086.642a2.233 2.233 0 0 1-.254.581c-.12.195-.269.342-.443.441-.177.1-.377.15-.6.15-.255 0-.473-.049-.657-.147a1.064 1.064 0 0 1-.442-.456c-.19-.362-.284-.781-.284-1.259 0-.672.112-1.405.337-2.198.224-.783.559-1.626 1.006-2.53.942-1.908 1.652-3.414 2.126-4.516.463-1.079.695-1.748.695-2.01 0-.283-.04-.543-.121-.778-.08-.234-.201-.446-.361-.635a1.423 1.423 0 0 0-.606-.413 2.63 2.63 0 0 0-.927-.144Zm16.922 3.035c.1-.384.251-.755.453-1.11.206-.365.467-.712.78-1.042l.004-.004c.414-.415.86-.727 1.338-.936.479-.21.986-.316 1.522-.316.42 0 .791.06 1.112.18.33.123.604.307.822.552.431.482.646 1.13.646 1.944a3.26 3.26 0 0 1-.418 1.58c-.275.502-.683.989-1.227 1.458a141.457 141.457 0 0 1-3.062 2.57c-.04.24-.071.496-.093.765-.024.295-.035.598-.035.907 0 .566.038 1.079.116 1.538.078.456.193.86.346 1.213.146.334.34.583.58.747.24.162.533.243.879.243.188 0 .386-.032.592-.094.212-.064.43-.16.656-.288.252-.143.492-.25.72-.322.233-.073.455-.11.665-.11.602 0 1.146.303 1.63.908.234.293.412.6.53.92.12.32.18.652.18.992 0 .397-.087.76-.262 1.087-.172.325-.43.61-.772.859a3.793 3.793 0 0 1-1.07.547 3.876 3.876 0 0 1-1.194.183c-1.053 0-1.933-.324-2.639-.971-.697-.64-1.217-1.59-1.562-2.854-.163-.604-.285-1.373-.366-2.307a36.976 36.976 0 0 1-.118-2.887c-.48.427-.949.872-1.407 1.338a31.603 31.603 0 0 0-1.618 1.773l-.002.002c-.415.478-.823.975-1.228 1.489-.4.513-.796 1.04-1.184 1.583-.103.346-.274.68-.512 1a4.952 4.952 0 0 1-.933.934 4.44 4.44 0 0 1-1.175.674 3.5 3.5 0 0 1-1.237.228c-.325 0-.634-.054-.926-.161a2.777 2.777 0 0 1-.821-.48 2.153 2.153 0 0 1-.588-.754 2.234 2.234 0 0 1-.197-.946c0-.593.192-1.214.577-1.866.376-.64.938-1.308 1.684-2.005l.002-.002a1812.497 1812.497 0 0 0 2.285-2.099V29.45c0-.936-.039-1.703-.117-2.299-.076-.581-.188-.997-.335-1.247l.002.003c-.201-.33-.529-.58-.984-.749-.474-.175-1.083-.263-1.827-.263-.264 0-.505-.017-.722-.05a2.738 2.738 0 0 1-.592-.155l-.002-.001c-.306-.126-.538-.304-.693-.534a1.45 1.45 0 0 1-.236-.835c0-.33.067-.641.203-.934a2.62 2.62 0 0 1 .598-.806c.265-.248.563-.434.894-.559a3.035 3.035 0 0 1 1.076-.186c.753 0 1.396.165 1.93.495.534.332.952.825 1.255 1.482v-.001c.247.527.431 1.157.553 1.891.122.73.183 1.563.183 2.497a35.145 35.145 0 0 1-.106 2.722 46.369 46.369 0 0 0 2.827-2.683c.502-.517.972-1.028 1.412-1.531a32.83 32.83 0 0 0 1.209-1.465Zm.351.128a.6.6 0 0 1-.033.068 33.18 33.18 0 0 1-1.246 1.512c-.446.51-.92 1.025-1.425 1.545a46.972 46.972 0 0 1-3.196 3.006c-.12.103-.32 0-.305-.158a35.373 35.373 0 0 0 .142-3.145c0-.917-.059-1.729-.177-2.435-.117-.703-.291-1.302-.523-1.797-.272-.59-.644-1.03-1.114-1.321-.473-.293-1.05-.439-1.735-.439-.345 0-.66.054-.946.161-.283.107-.54.268-.77.483-.23.215-.402.446-.515.69a1.834 1.834 0 0 0-.169.779c0 .249.057.458.172.626.115.17.29.302.527.4h-.002c.146.057.316.101.51.131.198.03.42.046.666.046.789 0 1.44.096 1.956.287.535.199.925.5 1.172.904v.003c.173.292.3.755.384 1.386.08.618.121 1.4.121 2.347v1.533a.32.32 0 0 1-.06.136c-.398.368-.794.73-1.185 1.09l-1.16 1.065v.002-.002.002c-.722.674-1.261 1.314-1.619 1.92-.35.593-.524 1.152-.524 1.678 0 .293.054.557.162.79.107.234.27.441.489.623.224.187.46.327.71.418.25.092.517.138.799.138.377 0 .747-.068 1.108-.203a4.078 4.078 0 0 0 1.076-.619c.353-.277.642-.564.863-.862.218-.293.371-.596.461-.911a.886.886 0 0 1 .028-.056 43.77 43.77 0 0 1 1.214-1.624c.41-.522.823-1.024 1.238-1.503l-.001.001a31.776 31.776 0 0 1 1.637-1.794c.562-.57 1.14-1.112 1.734-1.627.117-.1.307-.013.307.14 0 1.251.04 2.34.12 3.265.08.918.197 1.666.353 2.243.326 1.194.81 2.087 1.454 2.677.635.581 1.43.872 2.389.872.38 0 .74-.054 1.08-.164.34-.11.661-.274.965-.495a2.17 2.17 0 0 0 .664-.733c.145-.27.217-.576.217-.913a2.45 2.45 0 0 0-.155-.863 2.994 2.994 0 0 0-.474-.816c-.41-.513-.856-.769-1.34-.769a1.85 1.85 0 0 0-.555.093c-.203.064-.418.16-.646.29-.252.142-.496.25-.732.321a2.4 2.4 0 0 1-.7.11c-.42 0-.782-.103-1.085-.307-.3-.204-.539-.506-.712-.906a5.637 5.637 0 0 1-.373-1.301 9.59 9.59 0 0 1-.122-1.6c0-.328.012-.64.036-.935.024-.297.06-.586.11-.868a.364.364 0 0 1 .067-.112 132.644 132.644 0 0 0 3.108-2.607c.51-.44.89-.892 1.143-1.355.248-.454.372-.922.372-1.402 0-.719-.184-1.284-.551-1.696a1.668 1.668 0 0 0-.675-.454 2.807 2.807 0 0 0-.983-.154c-.485 0-.943.094-1.374.283a4.02 4.02 0 0 0-1.223.86l.002-.004a5 5 0 0 0-.727.969c-.19.338-.332.69-.424 1.057Zm14.956 2.692c.221-.729.488-1.398.798-2.008a8.95 8.95 0 0 1 1.553-2.2l.002-.001a6.784 6.784 0 0 1 2.239-1.514 7.001 7.001 0 0 1 2.68-.505c.862 0 1.613.287 2.255.861.628.563 1.148 1.403 1.558 2.517.323.872.565 1.822.727 2.85.161 1.026.242 2.125.242 3.297 0 .595-.014 1.256-.042 1.982-.028.735-.07 1.53-.125 2.387a115.05 115.05 0 0 0-.126 2.211 33.947 33.947 0 0 0-.042 1.465c0 .522.048 1.194.142 2.015.096.828.239 1.807.43 2.936.096.578.169 1.092.217 1.543.049.456.073.846.073 1.169a3.561 3.561 0 0 1-.606 2.018l-.001.002c-.256.377-.562.66-.916.85-.355.19-.755.285-1.201.285-.827 0-1.475-.312-1.943-.936a3.538 3.538 0 0 1-.512-.935 2.955 2.955 0 0 1-.172-.996c0-.492.097-1.164.292-2.017a38.55 38.55 0 0 1 .866-3.069c.346-1.081.641-2.006.884-2.773.208-.656.328-1.039.359-1.148l.001-.003c.177-.578.332-1.119.465-1.621.135-.506.25-.983.346-1.428v-.004c.207-.878.363-1.648.464-2.309.102-.658.153-1.215.153-1.672 0-.822-.043-1.532-.129-2.129-.085-.588-.212-1.066-.379-1.432l-.001-.002.001.002-.001-.002c-.222-.475-.537-.83-.942-1.065-.41-.239-.917-.358-1.523-.358a3.21 3.21 0 0 0-1.711.464c-.509.31-.955.781-1.339 1.41-.39.641-.715 1.408-.973 2.302-.26.899-.454 1.926-.58 3.08v.004a5.3 5.3 0 0 0-.035.417c-.008.16-.012.333-.012.518 0 .202.006.42.018.656.013.249.03.496.053.74l.055.604c.012.141.018.226.018.252 0 .167-.032.51-.097 1.028l-.009.039a4.32 4.32 0 0 1-.445.919c-.179.28-.391.533-.633.76a2.68 2.68 0 0 1-.792.52 2.3 2.3 0 0 1-.89.176c-.868 0-1.58-.186-2.139-.559a1.905 1.905 0 0 1-.654-.715 2.09 2.09 0 0 1-.219-.97c0-.348.041-.72.124-1.116.082-.393.204-.809.366-1.248v.001a19.26 19.26 0 0 0 .818-2.882c.181-.921.272-1.808.272-2.658 0-.633-.04-1.233-.118-1.802a10.283 10.283 0 0 0-.352-1.616c-.152-.493-.334-.859-.548-1.098-.194-.219-.415-.327-.663-.327-.06 0-.157.045-.292.135l-.001.001a4.934 4.934 0 0 0-.587.484c-.255.238-.529.418-.822.539a2.415 2.415 0 0 1-.932.182c-.311 0-.596-.055-.856-.165a1.988 1.988 0 0 1-.692-.494c-.2-.218-.352-.47-.452-.753-.099-.28-.148-.59-.148-.93 0-.345.065-.662.196-.95.13-.288.326-.545.586-.77.258-.224.55-.391.876-.503.323-.11.678-.166 1.065-.166.76 0 1.433.225 2.016.674.575.441 1.06 1.1 1.457 1.974l-.002-.002c.245.524.461 1.158.647 1.902.126.506.239 1.067.34 1.68Zm.126.947c-.042.173-.34.157-.364-.02a22.979 22.979 0 0 0-.463-2.517c-.181-.724-.389-1.337-.622-1.835l-.002-.002c-.37-.817-.818-1.428-1.344-1.832a2.854 2.854 0 0 0-1.79-.596c-.347 0-.663.048-.946.145-.28.096-.531.24-.752.431-.22.19-.383.404-.491.643a1.908 1.908 0 0 0-.163.798c0 .299.042.568.127.806.083.236.207.444.374.625.166.18.354.315.564.403.211.09.448.135.712.135.28 0 .544-.051.79-.153.251-.103.488-.259.71-.467.248-.23.46-.404.636-.522.198-.132.364-.199.497-.199.358 0 .672.15.94.452.25.279.458.69.626 1.236.162.528.284 1.087.365 1.676.081.59.122 1.207.122 1.85 0 .874-.093 1.784-.279 2.73a19.572 19.572 0 0 1-.834 2.937 8.355 8.355 0 0 0-.351 1.196 5.113 5.113 0 0 0-.116 1.04c0 .305.059.573.176.8.117.227.294.42.53.577v.001c.496.33 1.14.495 1.933.495.263 0 .512-.049.748-.147.239-.099.466-.25.681-.449.22-.204.412-.434.575-.689a3.98 3.98 0 0 0 .399-.82c.061-.493.092-.815.092-.966l-.018-.221-.053-.6a19.842 19.842 0 0 1-.055-.755 13.283 13.283 0 0 1-.006-1.21c.008-.162.02-.31.037-.446v.004c.129-1.175.327-2.224.594-3.145.267-.926.605-1.724 1.013-2.392.414-.68.902-1.191 1.462-1.534a3.569 3.569 0 0 1 1.904-.519c.671 0 1.241.136 1.709.409.472.274.836.685 1.092 1.231l.001.002c.183.4.32.912.41 1.535.09.617.134 1.344.134 2.182 0 .469-.053 1.045-.158 1.728a30.87 30.87 0 0 1-.469 2.336l.001-.003c-.096.448-.213.93-.35 1.446-.138.519-.294 1.065-.468 1.634l.001-.003a82.86 82.86 0 0 1-.362 1.159c-.171.541-.467 1.466-.886 2.774a38.272 38.272 0 0 0-.857 3.038c-.188.823-.282 1.468-.282 1.934 0 .299.05.59.15.872.102.286.254.565.458.837.394.525.943.787 1.648.787.384 0 .726-.08 1.025-.24.3-.16.561-.404.783-.73l.002-.002-.002.002.002-.002a3.208 3.208 0 0 0 .542-1.81c0-.316-.024-.692-.071-1.13a26.32 26.32 0 0 0-.214-1.522 58.31 58.31 0 0 1-.432-2.955 18.599 18.599 0 0 1-.145-2.057c0-.372.014-.866.042-1.48.028-.624.07-1.363.125-2.22.056-.866.098-1.659.126-2.376.027-.727.042-1.384.042-1.97 0-1.159-.079-2.24-.237-3.24-.157-1-.394-1.926-.709-2.778-.388-1.056-.874-1.846-1.458-2.368a2.913 2.913 0 0 0-2.007-.767c-.918 0-1.764.159-2.539.476a6.43 6.43 0 0 0-2.116 1.431l-.001.002.001-.002-.001.002a8.577 8.577 0 0 0-1.487 2.108 12.849 12.849 0 0 0-1.001 2.785Z"/><path fill="#005AA5" d="M14.151 27.916a9.764 9.764 0 0 1-.406-1.46 7.761 7.761 0 0 1-.12-1.414c0-1.18.27-2.107.814-2.777.67-.83 1.707-1.245 3.112-1.245 2.585 0 4.42 1.74 5.506 5.22.574 1.788 1.037 4.805 1.388 9.052.032-.096.607-2.363 1.724-6.801 1.245-4.981 2.857-7.471 4.836-7.471.702 0 1.284.247 1.747.741.463.495.694 1.046.694 1.652 0 .927-.973 2.092-2.92 3.497-2.33 1.66-3.942 3.704-4.836 6.13a9.203 9.203 0 0 0-.503 2.155c-.08.734-.12 1.58-.12 2.538v1.677c0 .734.144 1.596.431 2.586.639 2.203.958 3.528.958 3.975 0 .83-.255 1.55-.766 2.155-.51.607-1.117.91-1.82.91-.638 0-1.205-.335-1.7-1.005-.494-.671-.741-1.357-.741-2.06 0-.16.542-2.075 1.628-5.747.51-1.724.766-3.161.766-4.31 0-2.587-.527-4.662-1.58-6.226-1.181-1.757-2.857-2.635-5.028-2.635-.542 0-1.045.072-1.508.216-.463.144-.981.36-1.556.647Zm27.58-6.896c1.212 0 2.489.294 3.83.886 1.34.59 2.01 1.284 2.01 2.083 0 .511-.151.982-.455 1.413-.303.43-.63.646-.982.646-.542 0-1.66-.223-3.351-.67-.83-.224-1.58-.336-2.25-.336-1.213 0-2.283.176-3.209.527-.925.352-1.388.863-1.388 1.533 0 .926.463 1.39 1.389 1.39.319 0 .75-.113 1.292-.336 1.245-.51 2.059-.766 2.443-.766.606 0 1.197.215 1.771.646.575.43.862.966.862 1.604 0 .735-.248 1.317-.734 1.749-.496.43-1.126.646-1.884.646-.447 0-1.125-.224-2.042-.67-.926-.448-1.509-.671-1.764-.671-.886 0-1.333.463-1.333 1.389 0 1.021.607 1.788 1.812 2.298.99.416 2.194.623 3.623.623 1.149 0 2.218-.111 3.224-.335.997-.223 1.867-.543 2.593-.957.287-.16.511-.16.671 0 .159.16.239.414.239.766 0 .287-.08.59-.239.91-.67 1.085-1.652 1.963-2.945 2.634-1.293.67-2.753 1.006-4.381 1.006-1.596 0-3.057-.528-4.381-1.581-1.325-1.054-1.987-2.33-1.987-3.832 0-.893.255-1.692.766-2.394.51-.702 1.197-1.277 2.059-1.724-.735-.351-1.317-.822-1.748-1.413a3.29 3.29 0 0 1-.647-1.988c0-1.5.718-2.721 2.155-3.664 1.437-.942 3.097-1.412 4.98-1.412ZM56.524 32.8c1.564-1.724 2.761-3.536 3.591-5.436.83-1.9 1.245-4.015 1.245-6.345l.287-.144c.734.51 1.357 1.3 1.867 2.37s.766 2.259.766 3.569c0 1.979-.638 4.054-1.915 6.226-1.053 1.82-2.65 3.815-4.788 5.986h-.91c0-.99-.096-2.075-.287-3.257-.191-1.181-.559-2.634-1.101-4.358a12.436 12.436 0 0 0-.91-2.347c-.447-.862-1.005-1.565-1.676-2.107l-1.915-1.341c-.798-.67-1.196-1.405-1.196-2.204 0-.606.247-1.125.742-1.556.494-.43 1.125-.646 1.89-.646 1.277 0 2.204.734 2.778 2.203.255.639.59 2.123 1.005 4.454.096.64.184 1.453.264 2.443.08.989.167 1.82.263 2.49Zm12.449-11.782c.766 0 1.325.207 1.676.623.351.415.527.926.527 1.533 0 .575-.95 2.778-2.841 6.61-.886 1.787-1.325 3.336-1.325 4.644 0 .447.088.839.264 1.174.175.335.486.503.933.503.383 0 .678-.168.886-.503.208-.335.312-.71.312-1.126 0-.319.111-.63.335-.934.223-.303.59-.455 1.1-.455.799 0 1.413.248 1.845.743.43.495.646 1.141.646 1.94 0 .989-.312 1.78-.934 2.37-.623.59-1.445.886-2.466.886-1.66 0-2.777-.894-3.351-2.682-.384-1.213-.575-3.113-.575-5.7V25.81c0-1.661.159-2.81.479-3.449.446-.894 1.276-1.34 2.489-1.34Zm17.093 3.305c.192-.767.591-1.469 1.197-2.108.798-.798 1.708-1.196 2.729-1.196.799 0 1.397.223 1.796.67.399.448.598 1.054.598 1.82 0 1.022-.527 1.988-1.58 2.898-1.053.91-2.09 1.78-3.112 2.61a10.194 10.194 0 0 0-.144 1.772c0 1.15.16 2.091.48 2.825.318.735.861 1.102 1.627 1.102.415 0 .862-.136 1.34-.407.48-.271.91-.407 1.293-.407.543 0 1.038.28 1.485.838.447.559.67 1.157.67 1.796 0 .734-.319 1.333-.957 1.796a3.577 3.577 0 0 1-2.155.695c-2.01 0-3.352-1.23-4.022-3.688-.32-1.181-.48-3.033-.48-5.556a30.67 30.67 0 0 0-3.35 3.401 42.211 42.211 0 0 0-2.442 3.113c-.192.67-.655 1.293-1.39 1.868-.734.575-1.5.862-2.297.862-.607 0-1.15-.2-1.629-.599-.479-.399-.718-.918-.718-1.556 0-1.118.734-2.363 2.203-3.736.766-.702 1.548-1.42 2.346-2.155V29.45c0-1.884-.16-3.098-.479-3.64-.447-.735-1.437-1.101-2.968-1.101-.511 0-.926-.064-1.245-.192-.543-.223-.814-.623-.814-1.197 0-.607.247-1.142.742-1.604.495-.464 1.11-.695 1.843-.695 1.437 0 2.442.623 3.017 1.868.479 1.022.718 2.459.718 4.31 0 1.086-.048 2.14-.144 3.161a47.298 47.298 0 0 0 3.184-2.993 36.584 36.584 0 0 0 2.658-3.043Zm15.082 3.64c.511-2.107 1.357-3.768 2.538-4.981 1.309-1.309 2.904-1.963 4.788-1.963 1.628 0 2.841 1.085 3.639 3.256.638 1.724.957 3.751.957 6.083 0 1.181-.056 2.634-.168 4.358-.111 1.724-.167 2.953-.167 3.687 0 1.054.191 2.714.575 4.981.191 1.15.287 2.044.287 2.682 0 .703-.191 1.341-.575 1.916-.479.702-1.133 1.053-1.963 1.053-.766 0-1.364-.287-1.796-.861-.43-.575-.646-1.182-.646-1.82 0-.958.383-2.634 1.149-5.03a355.172 355.172 0 0 0 1.245-3.927c.351-1.149.623-2.17.813-3.065.416-1.756.623-3.097.623-4.023 0-1.66-.175-2.873-.526-3.64-.479-1.021-1.357-1.532-2.634-1.532-1.34 0-2.41.655-3.208 1.963-.798 1.31-1.325 3.13-1.58 5.46a7.934 7.934 0 0 0-.048.958c0 .415.024.886.072 1.413.048.526.072.805.072.837 0 .16-.032.495-.096 1.006a3.91 3.91 0 0 1-1.029 1.604c-.463.432-.982.647-1.556.647-.83 0-1.508-.176-2.035-.527-.527-.35-.79-.862-.79-1.532 0-.671.16-1.438.479-2.3.735-2.011 1.101-3.88 1.101-5.603 0-1.277-.16-2.435-.479-3.472-.32-1.038-.782-1.556-1.389-1.556-.191 0-.526.223-1.005.67-.479.447-1.021.67-1.628.67-.575 0-1.045-.2-1.413-.598-.366-.399-.55-.918-.55-1.556a2 2 0 0 1 .718-1.58c.48-.416 1.086-.623 1.82-.623 1.436 0 2.537.846 3.304 2.538.478 1.022.846 2.49 1.101 4.406Z"/></svg>