<svg width="128" height="64" viewBox="0 0 128 64" fill="none" xmlns="http://www.w3.org/2000/svg">
<rect width="128" height="64" rx="6" fill="white"/>
<path d="M104.298 12.322L110.176 17.2548L102.477 26.4312L96.6011 21.4988L104.298 12.322Z" fill="#FEFEFE"/>
<path d="M104.27 12L104.445 12.1467L110.322 17.0795L110.497 17.2267L110.351 17.4019L102.653 26.5783L102.506 26.7535L102.331 26.6068L96.454 21.674L96.2788 21.5268L96.4256 21.3516L104.124 12.1752L104.27 12ZM104.326 12.644L96.9228 21.4702L102.45 26.1088L109.853 17.2829L104.326 12.644Z" fill="#E31E24"/>
<path d="M103.68 19.4606L96.7212 21.7266L96.5791 21.2911L103.538 19.0251L103.837 19.2624L103.68 19.4606ZM103.837 19.2624L103.824 19.4134L103.68 19.4606L103.837 19.2624ZM104.431 12.3645L103.837 19.2628L103.381 19.2233L103.975 12.3251L104.431 12.3645Z" fill="#E31E24"/>
<path d="M14.5242 28.676C14.4274 28.4021 14.3435 28.1374 14.2728 27.8838C14.203 27.632 14.1472 27.394 14.1054 27.1691C14.0613 26.9311 14.0293 26.6953 14.0094 26.4627C13.9895 26.227 13.9797 25.9733 13.9797 25.7017C13.9797 25.0835 14.0519 24.5281 14.1963 24.0356C14.3435 23.5329 14.5656 23.0985 14.8614 22.7324V22.7336C15.2298 22.2769 15.6982 21.935 16.2656 21.7083C16.8214 21.4854 17.47 21.3742 18.2096 21.3742C19.5823 21.3742 20.7574 21.8379 21.7347 22.764C22.6905 23.6702 23.4476 25.0187 24.0057 26.8089L24.0046 26.8062C24.2973 27.7183 24.5611 28.9352 24.7945 30.4577C24.9608 31.5435 25.113 32.7787 25.2496 34.1646C25.2547 34.1447 25.2593 34.1248 25.2648 34.1049C25.5521 32.9715 25.9751 31.2952 26.5336 29.0757C27.1639 26.5541 27.8918 24.6557 28.7165 23.381C29.5825 22.0432 30.5649 21.3738 31.6639 21.3738C32.055 21.3738 32.416 21.4445 32.7462 21.5846C33.0779 21.7255 33.3737 21.9347 33.6337 22.2121C33.8897 22.4861 34.0825 22.7777 34.2125 23.0868C34.3436 23.3998 34.4096 23.7288 34.4096 24.0726C34.4096 25.101 33.3933 26.3484 31.3622 27.8147L31.3607 27.8158C30.2218 28.6272 29.2566 29.5339 28.4671 30.5353C27.6803 31.5329 27.0691 32.6222 26.6343 33.8036V33.8024C26.5118 34.1404 26.4091 34.4839 26.3275 34.8339C26.2464 35.1829 26.1867 35.5337 26.1484 35.8865C26.1102 36.2374 26.0809 36.6265 26.0606 37.0543C26.0407 37.4769 26.0309 37.9234 26.0309 38.3926V40.0688C26.0309 40.7772 26.1703 41.6112 26.4489 42.5709C26.7733 43.6903 27.0144 44.5774 27.1717 45.2311C27.3372 45.9168 27.42 46.3832 27.42 46.6303C27.42 47.0791 27.3497 47.5002 27.2104 47.8925C27.0699 48.2882 26.8603 48.6508 26.5828 48.9813C26.0114 49.6597 25.3273 49.9992 24.5303 49.9992C24.1564 49.9992 23.804 49.9009 23.4722 49.7049C23.1538 49.5168 22.8583 49.2378 22.5859 48.8686L22.5875 48.8697C22.3213 48.5091 22.1211 48.1434 21.9876 47.7734C21.8525 47.3972 21.7846 47.0159 21.7846 46.6295C21.7846 46.5233 21.924 45.9766 22.2034 44.9911C22.4731 44.0392 22.8806 42.6412 23.4254 40.7971C23.6767 39.9486 23.8652 39.1688 23.9917 38.4597C24.1162 37.7591 24.1786 37.13 24.1786 36.5719C24.1786 35.3031 24.0502 34.1623 23.793 33.1495C23.5386 32.1457 23.1577 31.2675 22.6507 30.5147C22.0895 29.6802 21.4127 29.0554 20.6196 28.6401C19.8258 28.2241 18.911 28.0153 17.8752 28.0153C17.3615 28.0153 16.8885 28.0828 16.4565 28.2171C16.2371 28.2854 16.0006 28.3716 15.7473 28.477C15.4968 28.5812 15.2298 28.7041 14.9465 28.8458C14.7931 28.9227 14.5808 28.8372 14.5242 28.676ZM14.9875 28.1515C15.1678 28.0664 15.3434 27.9884 15.5139 27.9169C15.7793 27.8073 16.0342 27.714 16.2773 27.6387C16.7707 27.4853 17.3034 27.4084 17.8744 27.4084C19.0093 27.4084 20.0178 27.6398 20.8995 28.1011C21.7827 28.564 22.534 29.2564 23.1538 30.1778C23.7002 30.9892 24.1096 31.931 24.3816 33.0027C24.5295 33.5866 24.6372 34.2095 24.7044 34.8702C24.5518 33.2139 24.3812 31.7725 24.1935 30.5471C23.9644 29.0523 23.7087 27.867 23.4273 26.9908L23.4262 26.9884C22.8993 25.2985 22.196 24.0367 21.3163 23.2027C20.4585 22.3889 19.4223 21.9819 18.2096 21.9819C17.5454 21.9819 16.972 22.0783 16.4912 22.2703C16.0213 22.458 15.6357 22.7394 15.3336 23.1129V23.1141C15.0874 23.4185 14.902 23.783 14.7783 24.2057C14.651 24.6389 14.5878 25.1373 14.5878 25.7009C14.5878 25.9394 14.5976 26.1767 14.6175 26.412C14.6381 26.6505 14.6659 26.8663 14.7018 27.0587C14.74 27.2644 14.7915 27.4857 14.8571 27.721C14.895 27.8592 14.9391 28.002 14.9875 28.1515ZM24.734 35.202C24.7688 35.6422 24.7859 36.0996 24.7859 36.5727C24.7859 37.1651 24.7207 37.829 24.5896 38.5647C24.4604 39.2914 24.2661 40.093 24.0069 40.9688C23.4668 42.7969 23.0597 44.1922 22.7873 45.1558C22.5234 46.0854 22.3919 46.5776 22.3919 46.6303C22.3919 46.9464 22.4481 47.2598 22.5597 47.5697C22.6737 47.8862 22.845 48.1992 23.0737 48.5091L23.0749 48.5103C23.2974 48.8112 23.5323 49.036 23.7806 49.1827C24.0155 49.3217 24.2657 49.3915 24.5299 49.3915C25.1376 49.3915 25.6668 49.1238 26.1168 48.5895C26.349 48.3128 26.5235 48.0131 26.6378 47.6903C26.753 47.3648 26.8111 47.0112 26.8111 46.6299C26.8111 46.4301 26.7342 46.0105 26.5805 45.3708C26.4189 44.7003 26.1808 43.823 25.8666 42.7391C25.5708 41.7193 25.4229 40.8291 25.4229 40.068V38.3918C25.4229 37.9039 25.4326 37.4477 25.4525 37.025C25.4724 36.6066 25.5033 36.2054 25.5446 35.8217C25.5805 35.4931 25.6332 35.1692 25.7015 34.8496C25.5111 35.5993 25.4073 35.9982 25.3916 36.0458C25.2988 36.3233 24.8238 36.2643 24.8 35.9744C24.7785 35.7125 24.7567 35.4545 24.734 35.202ZM25.8686 34.1943C25.9267 33.994 25.9919 33.795 26.0645 33.596V33.5948C26.5227 32.3502 27.1647 31.2039 27.9902 30.1579C28.8117 29.1159 29.819 28.1702 31.0098 27.3217L31.0082 27.3229C32.8707 25.9796 33.8023 24.8957 33.8023 24.073C33.8023 23.8104 33.7523 23.5602 33.6524 23.3221C33.5505 23.0809 33.3964 22.8491 33.1899 22.6282C32.9866 22.4112 32.7598 22.2488 32.5089 22.1431C32.2571 22.0361 31.975 21.9823 31.6639 21.9823C30.7842 21.9823 29.9709 22.5587 29.2246 23.7112C28.4378 24.9274 27.7369 26.7648 27.1226 29.2232C26.5734 31.4053 26.1554 33.0617 25.8686 34.1943ZM42.3893 21.3742C43.6441 21.3742 44.9621 21.6786 46.3421 22.2867C47.0481 22.5977 47.5832 22.942 47.9462 23.3182C48.3388 23.7245 48.5347 24.1679 48.5347 24.6479C48.5347 24.9332 48.4918 25.2095 48.4055 25.4769C48.3201 25.7427 48.1928 25.9952 48.0238 26.2352C47.8494 26.4834 47.6644 26.6719 47.4704 26.7995C47.2562 26.9404 47.0306 27.0111 46.7944 27.0111C46.227 27.0111 45.0838 26.7843 43.3654 26.33H43.3642C42.9603 26.2211 42.5763 26.1396 42.2141 26.0853C41.855 26.0319 41.5143 26.0053 41.1927 26.0053C40.5991 26.0053 40.0453 26.0475 39.5297 26.1322C39.0157 26.2169 38.536 26.3433 38.0911 26.5123C37.6758 26.6696 37.3679 26.8593 37.1689 27.079C36.9897 27.2769 36.9 27.504 36.9 27.7608C36.9 28.484 37.2614 28.8458 37.9842 28.8458C38.2648 28.8458 38.6578 28.7416 39.1624 28.534C39.7955 28.274 40.3188 28.0789 40.7314 27.9497C41.1685 27.8127 41.4979 27.7444 41.7192 27.7444C42.0568 27.7444 42.3905 27.8041 42.7203 27.9247C43.043 28.0426 43.3607 28.2182 43.6722 28.4524C43.9957 28.6955 44.2396 28.9695 44.404 29.2755C44.5726 29.5889 44.6561 29.9296 44.6561 30.2992C44.6561 30.7067 44.5866 31.0739 44.4488 31.4026C44.3087 31.7359 44.0984 32.0266 43.8189 32.2741L43.8177 32.2764C43.5406 32.5172 43.2257 32.6983 42.8748 32.8193C42.5279 32.9383 42.1481 32.9977 41.7348 32.9977C41.4803 32.9977 41.1677 32.9368 40.7962 32.8146C40.4414 32.6975 40.0289 32.525 39.559 32.2963H39.5601C39.1082 32.0778 38.7386 31.9138 38.4509 31.8038C38.1934 31.7062 38.0197 31.6566 37.9287 31.6566C37.2454 31.6566 36.9 32.0184 36.9 32.7412C36.9 33.1819 37.0299 33.5659 37.2879 33.8937C37.5584 34.2372 37.9713 34.526 38.5255 34.761V34.7598C38.9997 34.9588 39.5266 35.1083 40.1058 35.2078C40.6904 35.3081 41.3324 35.3585 42.0306 35.3585C42.5997 35.3585 43.1445 35.3316 43.6655 35.2773C44.1924 35.2223 44.6994 35.1403 45.1888 35.0318C45.6716 34.9237 46.1267 34.791 46.5525 34.6333C46.967 34.48 47.3494 34.3043 47.6972 34.1057L47.7007 34.1045C47.8911 33.9987 48.0679 33.9457 48.2307 33.9457C48.4254 33.9457 48.5933 34.0155 48.733 34.1556C48.8481 34.2708 48.9328 34.4156 48.9871 34.59C49.0362 34.7481 49.0608 34.9299 49.0608 35.1352C49.0608 35.4697 48.9707 35.8182 48.79 36.1808C48.7896 36.1812 48.7759 36.2042 48.7759 36.2046C48.4235 36.7756 47.9918 37.2888 47.4821 37.7451C46.9748 38.1986 46.3846 38.6002 45.7126 38.9491C45.0436 39.2961 44.3314 39.5564 43.5762 39.7297C42.8217 39.903 42.0271 39.9896 41.1927 39.9896C40.3598 39.9896 39.5609 39.8514 38.7979 39.5763C38.0369 39.3015 37.3113 38.8902 36.6225 38.3422C35.9262 37.7888 35.4024 37.1733 35.0516 36.4958C34.6972 35.8128 34.52 35.072 34.52 34.2739C34.52 33.797 34.5891 33.3431 34.7269 32.9118C34.8646 32.4809 35.0703 32.0774 35.3443 31.7007C35.614 31.3296 35.9305 30.9916 36.2931 30.6883C36.5183 30.4998 36.7618 30.3242 37.0237 30.1615C36.8278 30.0424 36.6439 29.9132 36.4714 29.7747C36.1572 29.5202 35.8852 29.2353 35.6553 28.9207C35.422 28.6011 35.2463 28.2592 35.1281 27.8959C35.0102 27.5325 34.9509 27.152 34.9509 26.7539C34.9509 25.9499 35.1449 25.2181 35.5328 24.5593C35.9161 23.9068 36.4866 23.3319 37.2438 22.8362C37.9869 22.3484 38.7889 21.9823 39.6503 21.7387C40.5077 21.496 41.421 21.3742 42.3893 21.3742ZM42.3893 21.9823C41.4741 21.9823 40.6159 22.0962 39.8138 22.3234C39.0149 22.5501 38.2691 22.8909 37.5759 23.3451C36.8964 23.7908 36.3895 24.2978 36.055 24.8665C35.7248 25.4281 35.5593 26.058 35.5593 26.7547C35.5593 27.0907 35.6081 27.4092 35.7053 27.7085C35.8025 28.0071 35.9496 28.292 36.1471 28.5625C36.3485 28.8388 36.5838 29.0851 36.8516 29.302C37.1232 29.5214 37.4331 29.715 37.7797 29.8801C37.999 29.9854 38.0041 30.3121 37.7879 30.4245C37.3781 30.6372 37.0092 30.8804 36.6826 31.1539C36.3586 31.4252 36.0765 31.7261 35.8357 32.0571C35.5988 32.383 35.4216 32.7299 35.3037 33.0968C35.1866 33.4637 35.1277 33.8559 35.1277 34.2739C35.1277 34.9756 35.2818 35.6235 35.5902 36.2179C35.9008 36.8174 36.3707 37.3669 36.9995 37.8676C37.6353 38.373 38.3026 38.7524 39.0016 39.0041C39.6987 39.2555 40.4293 39.3815 41.1919 39.3815C41.9846 39.3815 42.7343 39.3004 43.4403 39.138C44.1456 38.9768 44.8102 38.7337 45.4339 38.4101C46.0541 38.0889 46.6013 37.7158 47.0751 37.2916C47.5411 36.8751 47.9317 36.4122 48.2479 35.9049C48.3845 35.6305 48.4524 35.3741 48.4524 35.1356C48.4524 34.9901 48.4372 34.8679 48.4071 34.7707C48.3821 34.6903 48.347 34.6275 48.3021 34.583C48.2822 34.5635 48.2584 34.5537 48.2295 34.5537C48.169 34.5537 48.0906 34.5803 47.9938 34.6341L47.9973 34.6329C47.6215 34.848 47.2085 35.0384 46.7609 35.2039C46.3175 35.3671 45.8367 35.5068 45.3188 35.6227C44.8032 35.7374 44.272 35.8237 43.726 35.8803C43.1746 35.9377 42.6098 35.9669 42.0295 35.9669C41.2996 35.9669 40.624 35.9131 40.0023 35.8061C39.3751 35.6984 38.8042 35.5365 38.289 35.3202V35.3187C37.6372 35.0427 37.1435 34.6927 36.8094 34.2692C36.4644 33.8309 36.2907 33.3216 36.2907 32.7412C36.2907 31.6129 36.8399 31.0482 37.9276 31.0482C38.0923 31.0482 38.3374 31.111 38.6664 31.2359C38.965 31.3499 39.3502 31.5208 39.8232 31.7491H39.8244C40.2724 31.9677 40.6584 32.1304 40.9835 32.2366C41.2922 32.3385 41.5424 32.3892 41.7344 32.3892C42.0806 32.3892 42.3948 32.3408 42.6769 32.244C42.9533 32.1492 43.2007 32.0067 43.4177 31.817L43.4165 31.8198C43.6249 31.6356 43.7826 31.4178 43.8876 31.1668C43.9938 30.9135 44.0476 30.6239 44.0476 30.2984C44.0476 30.0291 43.9883 29.7841 43.8689 29.562C43.7463 29.3329 43.559 29.1245 43.3076 28.936C43.0454 28.7393 42.7796 28.5917 42.5122 28.4942C42.2523 28.3993 41.9873 28.3517 41.718 28.3517C41.5564 28.3517 41.2871 28.4106 40.9109 28.5289C40.5093 28.655 40.0027 28.8439 39.3915 29.094C38.8104 29.3333 38.3409 29.4531 37.9834 29.4531C36.8551 29.4531 36.2911 28.8887 36.2911 27.76C36.2911 27.3459 36.4332 26.9826 36.7165 26.6696C36.98 26.3792 37.3667 26.1372 37.8768 25.9437C38.3581 25.761 38.8767 25.6244 39.4317 25.5331C39.9852 25.4421 40.5721 25.3961 41.1919 25.3961C41.54 25.3961 41.91 25.4254 42.3011 25.4839C42.6879 25.5417 43.0949 25.6279 43.5203 25.7427H43.5192C45.1841 26.1821 46.2754 26.4018 46.7941 26.4018C46.9084 26.4018 47.022 26.3644 47.1348 26.2902C47.2679 26.2028 47.3986 26.0678 47.527 25.8851C47.6617 25.6943 47.762 25.4956 47.8279 25.2907C47.8935 25.0874 47.9259 24.8727 47.9259 24.6471C47.9259 24.3294 47.7873 24.0262 47.5091 23.7378C47.2019 23.4201 46.7316 23.1215 46.097 22.8417C44.7962 22.2691 43.5602 21.9823 42.3893 21.9823ZM57.3989 32.7576C57.9925 32.0657 58.5268 31.36 59.0021 30.6407C59.5911 29.7489 60.0895 28.8364 60.4969 27.9029C60.9024 26.9748 61.2073 25.992 61.4106 24.9547C61.6139 23.9173 61.7158 22.8249 61.7158 21.6778C61.7158 21.5939 61.8091 21.4433 61.8848 21.4062L62.172 21.2622C62.2427 21.2271 62.4156 21.2396 62.4804 21.2848C62.8722 21.5572 63.2332 21.9038 63.563 22.3226C63.8889 22.7359 64.1839 23.2199 64.449 23.7748C64.7143 24.3298 64.913 24.9176 65.0461 25.537C65.178 26.1532 65.2444 26.7992 65.2444 27.4736C65.2444 28.4914 65.0804 29.5354 64.7514 30.604C64.4255 31.6637 63.9373 32.7463 63.2863 33.8528L63.2875 33.8516C62.7516 34.7777 62.0807 35.7449 61.2756 36.7514C60.4751 37.7521 59.5345 38.8016 58.4534 39.899C58.4218 39.9311 58.2825 39.9904 58.2376 39.9904H57.3278C57.1756 39.9904 57.0238 39.8382 57.0238 39.6863C57.0238 39.2086 56.9996 38.6985 56.9516 38.1556C56.9028 37.6014 56.8326 37.0418 56.7408 36.4766C56.6476 35.8994 56.509 35.2496 56.3267 34.5272C56.1445 33.8067 55.9185 33.0179 55.6492 32.1613L55.6465 32.1539C55.3975 31.2808 55.1016 30.5174 54.7598 29.8641V29.8629C54.5463 29.4504 54.3055 29.0757 54.0377 28.7396C53.7712 28.4052 53.4796 28.1086 53.1623 27.8521L53.1791 27.8666C52.8599 27.643 52.5406 27.4193 51.2425 26.5088C50.8159 26.1501 50.4936 25.7696 50.2746 25.3668C50.0498 24.9531 49.9374 24.5218 49.9374 24.073C49.9374 23.7237 50.0096 23.3986 50.1528 23.0981C50.2937 22.8019 50.5045 22.5318 50.7843 22.2879V22.2867C51.061 22.0463 51.3768 21.8648 51.7304 21.7438C52.0781 21.6248 52.4598 21.5654 52.8751 21.5654C53.5838 21.5654 54.1977 21.7711 54.716 22.1825C55.2215 22.5837 55.6277 23.1769 55.9349 23.9626L55.9337 23.9598C56.0676 24.2931 56.2198 24.8403 56.3911 25.5986C56.5621 26.355 56.7506 27.3143 56.9571 28.4743L56.9582 28.4825C57.0062 28.8013 57.0527 29.169 57.0972 29.585C57.1456 30.0331 57.1881 30.4866 57.2252 30.9448C57.2685 31.483 57.3099 31.9357 57.3481 32.3026C57.3649 32.4602 57.3817 32.6113 57.3989 32.7576ZM57.4086 33.6639C57.2416 33.8481 56.9184 33.7486 56.8833 33.5023C56.8357 33.1682 56.7892 32.7885 56.7447 32.3654C56.696 31.9021 56.653 31.4451 56.6167 30.9928C56.5742 30.4631 56.5328 30.0143 56.4938 29.6494C56.4512 29.2509 56.4052 28.8911 56.3572 28.5707L56.3584 28.5789C56.1499 27.408 55.9634 26.4584 55.7991 25.7313C55.6352 25.0058 55.4923 24.4895 55.3706 24.185L55.369 24.1827C55.1016 23.4993 54.7578 22.9908 54.3379 22.6575C53.9304 22.3347 53.4429 22.1735 52.8743 22.1735C52.5242 22.1735 52.2073 22.2215 51.9243 22.3183C51.648 22.4128 51.4006 22.5548 51.1828 22.7453V22.7441C50.9678 22.931 50.807 23.1363 50.7012 23.3588C50.5974 23.577 50.5455 23.8147 50.5455 24.0726C50.5455 24.4215 50.6329 24.7564 50.8066 25.0764C50.9869 25.4082 51.2628 25.7306 51.6347 26.0424L52.5707 26.6965C52.8895 26.9201 53.2092 27.1438 53.528 27.367C53.5284 27.3674 53.5444 27.3811 53.5448 27.3815C53.8972 27.6671 54.2204 27.9938 54.5127 28.3619C54.8035 28.7279 55.0657 29.1354 55.2987 29.585V29.5838C55.659 30.2719 55.97 31.0732 56.2311 31.9876L56.2288 31.9802C56.5016 32.8482 56.7307 33.6475 56.9157 34.3793C57.1003 35.1099 57.242 35.7773 57.3399 36.3806C57.4394 36.9973 57.5128 37.5714 57.5597 38.1026C57.5983 38.5385 57.6209 38.9647 57.6287 39.3811H58.1107C59.1309 38.3399 60.0278 37.3364 60.8006 36.3697C61.5913 35.3811 62.2454 34.4398 62.7625 33.5464L62.7637 33.5452C63.3897 32.4805 63.8596 31.44 64.1715 30.4249C64.4813 29.418 64.6359 28.4337 64.6359 27.4728C64.6359 26.8382 64.5746 26.2344 64.4513 25.6619C64.3291 25.0917 64.1449 24.5496 63.8994 24.0356C63.6536 23.5204 63.3819 23.0743 63.0853 22.6973C62.8476 22.3952 62.5924 22.1372 62.3215 21.9233C62.3079 23.0185 62.2029 24.0676 62.0062 25.0698C61.7946 26.1478 61.4765 27.173 61.0523 28.1445C60.6296 29.1112 60.1152 30.0545 59.5068 30.9744C58.9003 31.8947 58.2005 32.7908 57.4086 33.6639ZM69.6331 21.3742C70.0499 21.3742 70.4168 21.4327 70.7321 21.5502C71.0611 21.6724 71.3308 21.8578 71.54 22.1052C71.741 22.3417 71.8905 22.6063 71.9904 22.8971C72.0895 23.184 72.1391 23.4966 72.1391 23.8334C72.1391 24.162 71.8928 24.8965 71.403 26.0365C70.9292 27.1368 70.217 28.6503 69.2658 30.5771C68.833 31.4513 68.5087 32.2674 68.2929 33.0246C68.0794 33.7724 67.9732 34.4604 67.9732 35.0888C67.9732 35.4861 68.0493 35.8303 68.2023 36.1215C68.2609 36.2343 68.3409 36.3174 68.4416 36.3717C68.5512 36.431 68.6933 36.4606 68.8666 36.4606C69.0051 36.4606 69.1253 36.4325 69.2253 36.3752C69.3283 36.317 69.4181 36.2261 69.4942 36.1031C69.5828 35.9603 69.6491 35.8085 69.6936 35.6485C69.7373 35.4896 69.7596 35.3187 69.7596 35.1364C69.7596 34.942 69.7935 34.75 69.8606 34.5611C69.9262 34.3785 70.0242 34.1989 70.1537 34.0229C70.2989 33.8258 70.4902 33.6779 70.7263 33.5807C70.9476 33.489 71.2059 33.443 71.4998 33.443C71.9362 33.443 72.3272 33.5124 72.6722 33.651C73.0251 33.7934 73.3256 34.0065 73.5726 34.2903C73.8142 34.5678 73.9961 34.8882 74.1171 35.2508C74.2349 35.6044 74.2939 35.9974 74.2939 36.429C74.2939 36.9618 74.2088 37.4438 74.039 37.8746C73.8673 38.3114 73.6093 38.6939 73.2655 39.0201C72.584 39.6668 71.6922 39.9904 70.5905 39.9904C69.6893 39.9904 68.9314 39.7445 68.3174 39.2527C67.7125 38.7688 67.2563 38.0499 66.9503 37.0968L66.9491 37.0956C66.7524 36.4712 66.6045 35.6723 66.5061 34.6985C66.409 33.7333 66.3602 32.6015 66.3602 31.305V26.4674C66.3602 25.6271 66.4012 24.911 66.4831 24.3185C66.5678 23.7097 66.6974 23.2316 66.8711 22.8838C67.1228 22.3792 67.485 22.0002 67.9564 21.7461C68.4174 21.4983 68.9762 21.3742 69.6331 21.3742ZM69.6331 21.9823C69.0766 21.9823 68.6141 22.0822 68.2441 22.2804C67.8862 22.4736 67.6099 22.7652 67.4151 23.1543C67.2695 23.4451 67.1595 23.8615 67.0841 24.4016C67.0069 24.9594 66.9682 25.6478 66.9682 26.4674V31.305C66.9682 32.5937 67.0151 33.7052 67.1091 34.6396C67.2024 35.5657 67.3425 36.3233 67.5283 36.9126L67.5271 36.9114C67.7956 37.7462 68.1855 38.368 68.6972 38.7778C69.2003 39.1801 69.831 39.3819 70.5901 39.3819C71.531 39.3819 72.2835 39.1142 72.8467 38.5799C73.1254 38.3157 73.3342 38.007 73.4731 37.6537C73.6144 37.2943 73.685 36.8864 73.685 36.4286C73.685 36.0626 73.6366 35.7328 73.5391 35.4404C73.4446 35.1563 73.3026 34.9058 73.1137 34.6888C72.9294 34.4772 72.707 34.3192 72.4459 34.2142C72.1762 34.1053 71.8604 34.051 71.4994 34.051C71.2824 34.051 71.101 34.0811 70.9558 34.1408C70.825 34.195 70.7208 34.2754 70.6424 34.3808C70.5491 34.5081 70.4788 34.6361 70.4328 34.7645C70.3891 34.8866 70.3668 35.0107 70.3668 35.1352C70.3668 35.3678 70.3368 35.5927 70.2771 35.8089C70.2177 36.0239 70.1284 36.2276 70.0089 36.4197C69.8778 36.6316 69.7162 36.7924 69.5242 36.9013C69.3291 37.0121 69.1097 37.0679 68.8658 37.0679C68.5922 37.0679 68.3541 37.0133 68.1535 36.9052C67.9432 36.7916 67.7792 36.6234 67.6626 36.4005C67.4639 36.022 67.3644 35.5837 67.3644 35.0872C67.3644 34.4038 67.4783 33.6607 67.7078 32.8568C67.933 32.068 68.2702 31.218 68.7214 30.3078C69.6616 28.4028 70.3696 26.8991 70.8438 25.7957C71.3012 24.7326 71.5303 24.0785 71.5303 23.8326C71.5303 23.5629 71.492 23.3163 71.4151 23.093C71.3398 22.8729 71.2266 22.6739 71.076 22.4959C70.9343 22.3281 70.7489 22.2016 70.5198 22.1169C70.2778 22.0275 69.9816 21.9823 69.6331 21.9823ZM86.4469 24.8481C86.5496 24.4614 86.7022 24.089 86.9055 23.7319C87.1171 23.3588 87.3832 23.004 87.7036 22.6668L87.7083 22.661C88.133 22.2356 88.5915 21.9155 89.0825 21.7001C89.5774 21.4827 90.1 21.3742 90.6522 21.3742C91.0851 21.3742 91.4699 21.437 91.8048 21.5619C92.1533 21.6919 92.4433 21.887 92.6747 22.1458C93.1247 22.6504 93.3503 23.3248 93.3503 24.1686C93.3503 24.7299 93.2055 25.2751 92.9171 25.8043C92.6361 26.3195 92.2185 26.8171 91.6646 27.2952C91.1221 27.7635 90.5988 28.2096 90.0926 28.6343C89.6168 29.0328 89.1305 29.4351 88.6349 29.8387C88.599 30.0615 88.5709 30.2992 88.5506 30.5502C88.5264 30.8452 88.5143 31.1446 88.5143 31.4486C88.5143 32.0087 88.5529 32.5141 88.6294 32.9672C88.7047 33.4137 88.8179 33.8094 88.9666 34.1529C89.1028 34.4655 89.2827 34.6977 89.5052 34.8484C89.7249 34.9975 89.9958 35.0716 90.317 35.0716C90.4946 35.0716 90.6811 35.042 90.8755 34.9826C91.0792 34.9206 91.2904 34.8281 91.5081 34.7044C91.7669 34.5576 92.0143 34.4472 92.2493 34.3726C92.4952 34.2957 92.7289 34.2571 92.9502 34.2571C93.5907 34.2571 94.1644 34.574 94.6718 35.209C94.9138 35.5111 95.0972 35.8288 95.2209 36.1613C95.3462 36.4962 95.4086 36.8412 95.4086 37.1948C95.4086 37.6104 95.3169 37.9917 95.1323 38.3367C94.9501 38.6782 94.6811 38.9788 94.3252 39.2363C93.981 39.4861 93.6137 39.6742 93.2223 39.8003C92.8316 39.926 92.4214 39.9892 91.9925 39.9892C90.9091 39.9892 90.0024 39.6547 89.2734 38.9866C88.5599 38.3317 88.0276 37.3618 87.6775 36.077V36.0758C87.5116 35.4631 87.3883 34.6864 87.3075 33.747C87.2419 32.9875 87.2029 32.1094 87.1912 31.1126C86.7814 31.4845 86.379 31.8701 85.9844 32.2709C85.4322 32.831 84.8948 33.4199 84.3718 34.0381L84.3691 34.0405C83.9554 34.5182 83.5475 35.0131 83.1459 35.5251V35.5263C82.7478 36.0341 82.3571 36.5543 81.9754 37.089C81.8681 37.4403 81.6933 37.7798 81.4509 38.1057C81.2035 38.4382 80.885 38.7571 80.4959 39.0615C80.1048 39.3675 79.7028 39.5985 79.2903 39.7531C78.8715 39.91 78.4449 39.9888 78.0117 39.9888C77.673 39.9888 77.351 39.9322 77.045 39.8198C76.739 39.7074 76.4537 39.5404 76.1887 39.3195C75.9155 39.0923 75.709 38.8265 75.5697 38.5245C75.4308 38.2236 75.3613 37.8922 75.3613 37.5292C75.3613 36.9161 75.5592 36.2733 75.9549 35.6024C76.3374 34.9538 76.906 34.277 77.6601 33.5714L77.6624 33.5686C78.4598 32.838 78.7974 32.5285 78.8239 32.5039C79.1826 32.1745 79.5448 31.8412 79.9101 31.5052V30.1053C79.9101 29.1713 79.8714 28.4099 79.7941 27.8217C79.7196 27.2558 79.6127 26.8546 79.4741 26.6185L79.4765 26.6231C79.2899 26.3168 78.9816 26.0834 78.5527 25.9245C78.0921 25.7536 77.4965 25.6681 76.7671 25.6681C76.4974 25.6681 76.2508 25.6509 76.0275 25.6166C75.7984 25.5811 75.592 25.5268 75.4093 25.4538L75.407 25.4527C75.078 25.3169 74.829 25.1248 74.6596 24.8762C74.489 24.6253 74.4043 24.3248 74.4043 23.9747C74.4043 23.6277 74.4757 23.2999 74.6182 22.9915C74.7591 22.6871 74.9675 22.4053 75.2427 22.1481C75.5186 21.8902 75.8296 21.6958 76.1758 21.5654C76.5189 21.4363 76.8916 21.3715 77.2944 21.3715C78.0683 21.3715 78.7322 21.5424 79.2848 21.8851C79.8398 22.2281 80.2738 22.739 80.586 23.4162L80.5849 23.415C80.837 23.9524 81.0247 24.5933 81.1488 25.3375C81.2714 26.0748 81.3327 26.9139 81.3327 27.8541C81.3327 28.4052 81.3209 28.9445 81.2967 29.4714C81.2846 29.7435 81.2679 30.0182 81.2483 30.2965C81.6082 29.978 81.9626 29.6549 82.3111 29.3274C82.8395 28.831 83.3531 28.3248 83.8519 27.8104C84.3523 27.2933 84.8218 26.7843 85.2593 26.2836C85.6816 25.8024 86.0777 25.3231 86.4469 24.8481ZM87.0203 25.0565C87.0171 25.0686 86.9742 25.158 86.966 25.1682C86.5804 25.6662 86.1632 26.1716 85.7151 26.6852C85.2671 27.1976 84.7906 27.7152 84.2859 28.2354C83.7793 28.7588 83.2591 29.2708 82.7264 29.7723C82.1936 30.2731 81.6449 30.7648 81.0817 31.248C80.8842 31.4178 80.5583 31.25 80.5829 30.9904C80.6286 30.5033 80.6641 29.9889 80.6887 29.4484C80.7125 28.9211 80.7246 28.3907 80.7246 27.8572C80.7246 26.9451 80.6664 26.1396 80.5497 25.4406C80.4342 24.7486 80.2637 24.1597 80.0365 23.6753L80.0353 23.6738C79.7731 23.1063 79.4167 22.6828 78.9667 22.4034C78.5136 22.1236 77.9563 21.983 77.2948 21.983C76.9626 21.983 76.6613 22.0346 76.3901 22.1368C76.1216 22.2375 75.878 22.3905 75.6587 22.5958C75.4397 22.8011 75.2766 23.0193 75.1701 23.2491C75.0651 23.4755 75.0132 23.7186 75.0132 23.9782C75.0132 24.2022 75.0635 24.3892 75.1646 24.5375C75.2669 24.6881 75.4249 24.8071 75.6384 24.8954L75.6361 24.8942C75.7727 24.9488 75.9335 24.9902 76.1188 25.0187C76.3109 25.048 76.5271 25.0628 76.7679 25.0628C77.5703 25.0628 78.2365 25.1607 78.765 25.3571C79.3254 25.5651 79.7352 25.8832 79.9951 26.3101L79.9975 26.3152C80.1782 26.622 80.3113 27.0989 80.396 27.7464C80.4783 28.3712 80.5193 29.1584 80.5193 30.1084V31.6414C80.5193 31.6902 80.4565 31.8311 80.4206 31.8643C80.0221 32.2311 79.6263 32.5945 79.2357 32.9539C78.4957 33.633 78.1218 33.9773 78.0769 34.0186C78.0765 34.0186 78.0765 34.019 78.0761 34.019C78.0753 34.0198 78.0749 34.0206 78.0746 34.021L78.0761 34.019C78.0765 34.019 78.0765 34.0186 78.0769 34.0186L78.0761 34.019C77.3627 34.6864 76.8299 35.3179 76.4783 35.9142C76.1399 36.4884 75.9705 37.0277 75.9705 37.532C75.9705 37.8079 76.0209 38.055 76.1216 38.2727C76.2215 38.4893 76.3741 38.6833 76.5794 38.8543C76.7933 39.0326 77.0184 39.1649 77.2553 39.252C77.4915 39.3394 77.7444 39.3831 78.0125 39.3831C78.377 39.3831 78.7326 39.3175 79.0795 39.1876C79.4327 39.0553 79.7813 38.8546 80.1243 38.5861C80.4689 38.3164 80.7496 38.0362 80.9646 37.7466C81.1734 37.4656 81.3205 37.1749 81.4068 36.8743C81.4091 36.8661 81.447 36.7885 81.4517 36.7818C81.8576 36.2136 82.2631 35.6703 82.669 35.1536V35.1548C83.0819 34.6286 83.4956 34.126 83.9116 33.6463L83.9093 33.6486C84.4397 33.0215 84.9881 32.4208 85.5524 31.8479C86.116 31.2761 86.6971 30.7321 87.2938 30.2149C87.4839 30.0502 87.7965 30.1935 87.7965 30.4444C87.7965 31.6886 87.8367 32.774 87.9164 33.6998C87.9944 34.6123 88.1111 35.3522 88.2649 35.9213V35.9201C88.5845 37.0933 89.0579 37.9675 89.6855 38.5424C90.2967 39.1033 91.0663 39.3835 91.9933 39.3835C92.3625 39.3835 92.7106 39.3304 93.0381 39.225C93.3655 39.1197 93.6766 38.9604 93.9701 38.7473C94.2526 38.5424 94.4626 38.3114 94.5992 38.0546C94.7342 37.8013 94.8017 37.5152 94.8017 37.1975C94.8017 36.9126 94.7526 36.6378 94.6542 36.3752C94.5555 36.109 94.4029 35.8475 94.198 35.5911C93.812 35.1087 93.3963 34.8675 92.9514 34.8675C92.7898 34.8675 92.6169 34.8964 92.4312 34.9549C92.2356 35.0166 92.028 35.1099 91.8079 35.2344C91.5472 35.3823 91.295 35.4931 91.0519 35.5673C90.8002 35.6434 90.5555 35.682 90.3178 35.682C89.8732 35.682 89.4892 35.5727 89.1664 35.3542C88.8472 35.138 88.5951 34.8191 88.412 34.3976C88.2418 34.0069 88.115 33.5636 88.0311 33.0691C87.9484 32.5797 87.907 32.0403 87.907 31.451C87.907 31.1157 87.9191 30.8004 87.9433 30.5053C87.9671 30.2075 88.0042 29.9144 88.0553 29.6264C88.0615 29.5901 88.1345 29.4667 88.1634 29.4433C88.6579 29.0417 89.1711 28.6175 89.7039 28.1706C90.235 27.7249 90.7572 27.2808 91.2681 26.8394C91.7673 26.4081 92.14 25.9671 92.3855 25.5163C92.6236 25.08 92.7422 24.6311 92.7422 24.1706C92.7422 23.4821 92.5689 22.9431 92.2212 22.5536C92.053 22.3659 91.8442 22.2246 91.5944 22.1317C91.3313 22.0334 91.0172 21.9842 90.653 21.9842C90.1831 21.9842 89.7405 22.0752 89.3257 22.257C88.9077 22.4409 88.5119 22.7195 88.1388 23.0926L88.1435 23.0864C87.8574 23.3877 87.6205 23.7034 87.4336 24.0332C87.2474 24.3571 87.1096 24.6994 87.0203 25.0565ZM101.896 27.2293C102.088 26.6684 102.307 26.145 102.555 25.6595C102.991 24.8036 103.516 24.0605 104.129 23.4306L104.131 23.4283C104.814 22.7449 105.574 22.2317 106.409 21.8894C107.246 21.5463 108.154 21.3746 109.134 21.3746C110.025 21.3746 110.803 21.672 111.467 22.266C112.11 22.8421 112.641 23.6968 113.057 24.831C113.383 25.7091 113.627 26.6661 113.79 27.7027C113.953 28.7361 114.034 29.841 114.034 31.0173C114.034 31.6157 114.02 32.2776 113.992 33.0043C113.964 33.7443 113.922 34.5412 113.867 35.3948C113.81 36.2655 113.768 37.0024 113.741 37.6034C113.714 38.2181 113.699 38.7048 113.699 39.0635C113.699 39.581 113.747 40.248 113.841 41.0644C113.936 41.8914 114.079 42.8683 114.27 43.9943C114.366 44.5743 114.439 45.0914 114.487 45.5449C114.537 46.0066 114.561 46.4004 114.561 46.7267C114.561 47.1064 114.509 47.471 114.405 47.8191C114.3 48.1668 114.144 48.497 113.936 48.8096L113.933 48.8131C113.666 49.205 113.347 49.5012 112.977 49.6995C112.604 49.8997 112.185 50 111.72 50C110.853 50 110.174 49.6714 109.682 49.0157C109.447 48.7027 109.27 48.3803 109.153 48.0486C109.033 47.7118 108.974 47.3671 108.974 47.0139C108.974 46.5144 109.072 45.8329 109.27 44.9704C109.462 44.1258 109.752 43.0998 110.138 41.893C110.466 40.8685 110.761 39.9439 111.022 39.12C111.23 38.4628 111.35 38.0815 111.38 37.9753L111.381 37.9703C111.559 37.3876 111.715 36.8482 111.845 36.3521C111.979 35.8483 112.094 35.3737 112.189 34.9296L112.19 34.9237C112.398 34.0463 112.552 33.2794 112.654 32.623C112.754 31.9732 112.805 31.4217 112.805 30.9693C112.805 30.1509 112.763 29.4472 112.677 28.8567C112.593 28.2787 112.47 27.8112 112.307 27.4556C112.094 27.0033 111.797 26.6661 111.413 26.4424C111.022 26.2145 110.534 26.1005 109.949 26.1005C109.335 26.1005 108.785 26.2492 108.299 26.5466C107.806 26.8483 107.373 27.3054 107 27.9185C106.225 29.1889 105.713 30.967 105.463 33.2525V33.2576C105.448 33.3743 105.437 33.5101 105.429 33.6658C105.421 33.8254 105.417 33.9964 105.417 34.1783C105.417 34.3757 105.423 34.5924 105.435 34.8273C105.435 34.8277 105.435 34.8281 105.435 34.8285V34.8273C105.435 34.8277 105.435 34.8281 105.435 34.8285C105.448 35.0849 105.465 35.3296 105.487 35.5638C105.535 36.0969 105.53 36.0181 105.543 36.1679C105.555 36.3092 105.561 36.3966 105.561 36.429C105.561 36.6008 105.528 36.9485 105.463 37.4719C105.462 37.4754 105.449 37.5316 105.448 37.5347C105.328 37.8778 105.176 38.1923 104.992 38.4788C104.806 38.7676 104.589 39.0287 104.338 39.2613C104.081 39.5021 103.805 39.6832 103.512 39.805C103.215 39.9283 102.902 39.9908 102.576 39.9908C101.686 39.9908 100.951 39.7976 100.372 39.4116V39.4128C100.066 39.2086 99.8349 38.9553 99.6791 38.6525C99.5246 38.352 99.4469 38.0105 99.4469 37.6272C99.4469 36.9212 99.6128 36.1203 99.9445 35.2242V35.2254C100.306 34.236 100.576 33.2814 100.757 32.3607C100.937 31.4471 101.027 30.5685 101.027 29.7251C101.027 29.0964 100.988 28.5008 100.91 27.9396C100.833 27.3779 100.717 26.8452 100.562 26.3417C100.415 25.866 100.241 25.5143 100.038 25.2872C99.8672 25.096 99.6756 25.0007 99.4629 25.0007C99.4274 25.0007 99.3521 25.039 99.2369 25.1159L99.2354 25.117C99.082 25.2193 98.8915 25.3766 98.664 25.5893C98.3982 25.8375 98.1125 26.0241 97.8065 26.1505C97.497 26.2777 97.1712 26.3417 96.8293 26.3417C96.5034 26.3417 96.2029 26.2836 95.9277 26.1673C95.651 26.0498 95.4063 25.8757 95.1936 25.6447C94.9821 25.4144 94.8232 25.1498 94.7174 24.8516C94.614 24.5585 94.5625 24.2354 94.5625 23.883C94.5625 23.5204 94.6316 23.1875 94.769 22.8838C94.9071 22.5806 95.1128 22.3097 95.386 22.0732C95.6549 21.8394 95.9605 21.6642 96.3012 21.5475C96.6365 21.4327 97.0045 21.3754 97.4042 21.3754C98.191 21.3754 98.8872 21.6084 99.4926 22.0732C100.083 22.5263 100.58 23.2 100.985 24.0933L100.982 24.0894C101.231 24.6202 101.449 25.261 101.636 26.012C101.73 26.387 101.817 26.7933 101.896 27.2293ZM102.103 28.6936C102.051 28.9071 101.762 28.9453 101.606 28.8282C101.624 29.121 101.633 29.4199 101.633 29.7239C101.633 30.6044 101.54 31.522 101.352 32.4758C101.166 33.4235 100.886 34.4081 100.513 35.4303V35.4319C100.207 36.2593 100.053 36.9914 100.053 37.626C100.053 37.9133 100.108 38.1623 100.217 38.373C100.323 38.5811 100.487 38.7586 100.708 38.9058V38.9069C101.183 39.2231 101.805 39.3815 102.574 39.3815C102.822 39.3815 103.057 39.3355 103.278 39.2434C103.504 39.1497 103.719 39.0076 103.923 38.8172C104.136 38.6189 104.322 38.3968 104.479 38.1506C104.633 37.9125 104.76 37.651 104.861 37.3677C104.921 36.8868 104.951 36.5734 104.951 36.4286C104.951 36.4286 104.945 36.3588 104.933 36.2175C104.896 35.7886 104.882 35.6282 104.881 35.618C104.855 35.3253 104.836 35.072 104.825 34.8581V34.857C104.813 34.6212 104.807 34.3949 104.807 34.1783C104.807 33.9773 104.811 33.7966 104.819 33.6369C104.827 33.4734 104.84 33.3224 104.857 33.1838V33.1885C105.117 30.8121 105.659 28.9504 106.48 27.6028C106.904 26.9069 107.405 26.3816 107.981 26.0287C108.565 25.6716 109.221 25.4929 109.947 25.4929C110.639 25.4929 111.228 25.6345 111.715 25.9179C112.208 26.2044 112.588 26.6329 112.855 27.2012L112.856 27.2039C113.044 27.6145 113.184 28.1371 113.276 28.772C113.366 29.3949 113.411 30.1275 113.411 30.9697C113.411 31.4431 113.358 32.0255 113.251 32.7163C113.145 33.4008 112.988 34.1833 112.78 35.0619L112.782 35.0556C112.686 35.5048 112.569 35.9892 112.431 36.5067C112.292 37.0328 112.135 37.5788 111.962 38.1459L111.963 38.1412C111.929 38.2587 111.809 38.6462 111.601 39.3027C111.447 39.787 111.152 40.7124 110.715 42.0776C110.335 43.2645 110.05 44.2741 109.86 45.1058C109.674 45.9196 109.581 46.5561 109.581 47.0139C109.581 47.2992 109.629 47.5771 109.725 47.8468C109.823 48.1219 109.969 48.3912 110.165 48.652C110.535 49.1453 111.053 49.3919 111.719 49.3919C112.084 49.3919 112.407 49.3162 112.688 49.1652C112.971 49.013 113.219 48.7819 113.43 48.4724C113.604 48.2105 113.734 47.935 113.821 47.6458C113.909 47.3554 113.952 47.0491 113.952 46.7271C113.952 46.4141 113.928 46.0413 113.882 45.6097C113.835 45.1691 113.764 44.6644 113.669 44.0946C113.476 42.9538 113.332 41.9668 113.236 41.1335C113.139 40.2901 113.09 39.5997 113.09 39.0638C113.09 38.688 113.104 38.1923 113.132 37.5776C113.16 36.9501 113.202 36.2097 113.258 35.3569C113.314 34.487 113.356 33.6955 113.383 32.9832C113.411 32.2569 113.425 31.6016 113.425 31.0177C113.425 29.8633 113.346 28.7892 113.19 27.7956C113.034 26.805 112.799 25.8863 112.486 25.0398C112.105 24.0036 111.629 23.2292 111.059 22.7199C110.511 22.2281 109.868 21.9827 109.132 21.9827C108.229 21.9827 107.397 22.1384 106.638 22.4494C105.879 22.7613 105.186 23.2288 104.562 23.8537C104.561 23.8545 104.56 23.8552 104.559 23.856L104.562 23.8537C104.561 23.8545 104.56 23.8552 104.559 23.856C103.992 24.4391 103.504 25.1323 103.095 25.9355C102.683 26.7461 102.352 27.666 102.103 28.6936ZM100.831 25.3883C100.708 24.9972 100.575 24.6491 100.432 24.345L100.43 24.3411C100.069 23.5422 99.6319 22.9467 99.121 22.554C98.625 22.1727 98.052 21.9823 97.4034 21.9823C97.0685 21.9823 96.7653 22.0287 96.4952 22.1212C96.229 22.2118 95.9913 22.3484 95.7817 22.5298C95.5769 22.7078 95.4235 22.9088 95.3216 23.1317C95.2201 23.3549 95.1694 23.6051 95.1694 23.8814C95.1694 24.1663 95.2096 24.4227 95.2892 24.6483C95.3673 24.8684 95.484 25.0632 95.6389 25.2322C95.7935 25.4004 95.9679 25.5257 96.1619 25.6076C96.3582 25.6908 96.5803 25.7325 96.8281 25.7325C97.0931 25.7325 97.3421 25.6845 97.5747 25.5885C97.8112 25.4909 98.0368 25.3426 98.2495 25.1436C98.5005 24.909 98.7171 24.731 98.8989 24.6101L98.8978 24.6112C99.1175 24.4645 99.3056 24.3915 99.4614 24.3915C99.8551 24.3915 100.198 24.555 100.49 24.8829C100.614 25.0206 100.727 25.1892 100.831 25.3883Z" fill="#005AA5"/>
<path d="M14.8098 28.5745C14.6186 28.0316 14.4827 27.5449 14.4031 27.1137C14.3235 26.6828 14.2837 26.2117 14.2837 25.7012C14.2837 24.5199 14.5549 23.5941 15.0974 22.9232C15.7679 22.0935 16.8049 21.6782 18.2096 21.6782C20.7952 21.6782 22.6307 23.4185 23.7161 26.899C24.2906 28.6865 24.7535 31.7042 25.1043 35.9501C25.1363 35.8545 25.7108 33.5873 26.8278 29.1494C28.0728 24.1682 29.6847 21.6778 31.6638 21.6778C32.3663 21.6778 32.9486 21.9256 33.4119 22.4201C33.8748 22.9154 34.1062 23.4657 34.1062 24.0726C34.1062 24.9983 33.1329 26.1633 31.1857 27.5684C28.8557 29.2286 27.2435 31.2722 26.3497 33.6986C26.0941 34.4011 25.927 35.1196 25.8466 35.8537C25.767 36.5878 25.7272 37.434 25.7272 38.3917V40.068C25.7272 40.8029 25.8708 41.6646 26.1581 42.6548C26.7966 44.8576 27.1158 46.1826 27.1158 46.6298C27.1158 47.46 26.8602 48.1785 26.3497 48.7846C25.8388 49.3915 25.2323 49.6947 24.5302 49.6947C23.8921 49.6947 23.3254 49.3599 22.8309 48.689C22.336 48.0185 22.0886 47.332 22.0886 46.6298C22.0886 46.4702 22.6311 44.5547 23.7165 40.8825C24.227 39.1582 24.4822 37.7216 24.4822 36.5718C24.4822 33.9858 23.9557 31.9107 22.9023 30.3464C21.7213 28.5901 20.0458 27.712 17.8751 27.712C17.3326 27.712 16.8295 27.7842 16.367 27.9274C15.9034 28.0718 15.3851 28.2869 14.8098 28.5745ZM42.3892 21.6782C43.6022 21.6782 44.8792 21.9736 46.2195 22.5645C47.5605 23.155 48.2302 23.8497 48.2302 24.6479C48.2302 25.1587 48.0784 25.6298 47.7755 26.0607C47.4723 26.4916 47.1448 26.707 46.794 26.707C46.2511 26.707 45.1337 26.4838 43.4418 26.0365C42.6121 25.8133 41.862 25.7016 41.1918 25.7016C39.9788 25.7016 38.9091 25.8773 37.9833 26.2285C37.0579 26.5794 36.5951 27.0903 36.5951 27.7612C36.5951 28.6869 37.0579 29.1502 37.9833 29.1502C38.3026 29.1502 38.7334 29.0382 39.2763 28.8153C40.5209 28.304 41.3351 28.0484 41.7179 28.0484C42.3248 28.0484 42.9149 28.2642 43.4894 28.6951C44.0647 29.126 44.3512 29.6615 44.3512 30.2996C44.3512 31.0337 44.1038 31.6168 43.6171 32.0477C43.1226 32.4785 42.4919 32.694 41.7339 32.694C41.2871 32.694 40.6088 32.4707 39.6912 32.0235C38.7654 31.5766 38.1827 31.353 37.9275 31.353C37.0416 31.353 36.5947 31.8162 36.5947 32.742C36.5947 33.7637 37.2012 34.5299 38.4064 35.0411C39.3961 35.4556 40.6009 35.6636 42.0294 35.6636C43.178 35.6636 44.2478 35.552 45.2531 35.3284C46.2511 35.1055 47.1203 34.7859 47.847 34.3706C48.1342 34.2114 48.3578 34.2114 48.5175 34.3706C48.6771 34.5303 48.7567 34.7859 48.7567 35.1375C48.7567 35.424 48.6771 35.728 48.5175 36.0473C47.847 37.1327 46.8658 38.0108 45.5728 38.6813C44.2798 39.3518 42.8197 39.6867 41.1918 39.6867C39.5956 39.6867 38.1355 39.1594 36.8105 38.106C35.4855 37.0527 34.8232 35.7753 34.8232 34.275C34.8232 33.3805 35.0788 32.5823 35.5893 31.8798C36.0998 31.1777 36.7863 30.6032 37.6481 30.1559C36.9139 29.8047 36.3312 29.334 35.9004 28.7431C35.4695 28.1522 35.2544 27.4899 35.2544 26.7554C35.2544 25.2544 35.9726 24.0336 37.4088 23.0918C38.8458 22.1493 40.5057 21.6782 42.3892 21.6782ZM57.1841 33.4597C58.748 31.7354 59.945 29.9233 60.7747 28.0238C61.6049 26.1239 62.0197 24.009 62.0197 21.6778L62.3066 21.5342C63.0411 22.0455 63.6636 22.8354 64.1741 23.9048C64.685 24.9745 64.9403 26.1637 64.9403 27.4731C64.9403 29.4527 64.3017 31.5282 63.0251 33.6989C61.9717 35.5188 60.3755 37.5144 58.2371 39.6859H57.3274C57.3274 38.6958 57.2317 37.6104 57.0401 36.4286C56.8485 35.248 56.4816 33.795 55.9387 32.0707C55.6835 31.1769 55.3802 30.3944 55.0294 29.7239C54.5821 28.8618 54.0236 28.1593 53.3535 27.6168C52.7146 27.1695 52.0769 26.723 51.4384 26.2754C50.6402 25.6048 50.2414 24.8707 50.2414 24.0726C50.2414 23.4653 50.4892 22.947 50.9833 22.5157C51.4786 22.0849 52.1089 21.8694 52.8746 21.8694C54.1516 21.8694 55.0774 22.6039 55.6515 24.073C55.9071 24.7115 56.2424 26.1957 56.6572 28.5265C56.7529 29.1654 56.8407 29.9795 56.9207 30.9693C57.0003 31.9595 57.0885 32.7896 57.1841 33.4597ZM69.633 21.6782C70.3988 21.6782 70.9577 21.8858 71.3085 22.3011C71.6598 22.716 71.835 23.2268 71.835 23.8337C71.835 24.4086 70.8855 26.6114 68.9945 30.4432C68.1086 32.2311 67.6699 33.7797 67.6699 35.0888C67.6699 35.5356 67.7577 35.9263 67.9329 36.2619C68.1086 36.5968 68.42 36.7646 68.8673 36.7646C69.2498 36.7646 69.5452 36.5968 69.7532 36.2619C69.9605 35.9267 70.0643 35.5516 70.0643 35.1364C70.0643 34.8171 70.1759 34.5057 70.3992 34.2024C70.6228 33.8992 70.9897 33.7473 71.5005 33.7473C72.2983 33.7473 72.9126 33.9948 73.3442 34.4893C73.7747 34.9845 73.9902 35.6309 73.9902 36.429C73.9902 37.4187 73.6787 38.2091 73.0562 38.8C72.4341 39.3905 71.6122 39.6863 70.5908 39.6863C68.9305 39.6863 67.8139 38.7922 67.239 37.0043C66.8562 35.7909 66.6645 33.891 66.6645 31.3049C66.6645 30.6981 66.6645 29.8515 66.6645 28.7665C66.6645 27.6812 66.6645 26.9146 66.6645 26.4674C66.6645 24.8071 66.8242 23.6577 67.1434 23.0192C67.5903 22.1251 68.42 21.6782 69.633 21.6782ZM86.7259 24.9831C86.9176 24.2166 87.3164 23.5141 87.9229 22.876C88.721 22.0778 89.6308 21.6786 90.6522 21.6786C91.4499 21.6786 92.0482 21.9022 92.4475 22.3491C92.8464 22.7964 93.0458 23.4029 93.0458 24.169C93.0458 25.1908 92.5193 26.1567 91.4659 27.0665C90.4125 27.9766 89.3752 28.8469 88.3534 29.6767C88.2578 30.2196 88.2098 30.8101 88.2098 31.449C88.2098 32.598 88.3694 33.5397 88.6891 34.2746C89.0079 35.0087 89.5508 35.3756 90.3169 35.3756C90.7318 35.3756 91.1787 35.2398 91.6579 34.9685C92.1364 34.6973 92.5677 34.5615 92.9506 34.5615C93.4934 34.5615 93.9879 34.8409 94.4352 35.3994C94.8821 35.9583 95.1053 36.557 95.1053 37.1959C95.1053 37.9304 94.7861 38.5283 94.148 38.992C93.5095 39.4549 92.7909 39.6863 91.9932 39.6863C89.9824 39.6863 88.6418 38.4569 87.9713 35.9985C87.6525 34.8171 87.4924 32.9652 87.4924 30.4432C86.3114 31.465 85.1941 32.598 84.1407 33.8434C83.3109 34.8011 82.4968 35.8389 81.6991 36.9567C81.5074 37.6272 81.0446 38.2493 80.3104 38.8246C79.5759 39.3991 78.8098 39.6867 78.012 39.6867C77.4055 39.6867 76.8627 39.4869 76.3842 39.088C75.9049 38.6891 75.6657 38.1697 75.6657 37.5315C75.6657 36.4138 76.3998 35.1688 77.868 33.7961C78.6342 33.0936 79.4163 32.3751 80.2148 31.6414V30.1083C80.2148 28.2244 80.0552 27.011 79.7355 26.4685C79.2887 25.7344 78.2993 25.3672 76.767 25.3672C76.2562 25.3672 75.8417 25.3032 75.5228 25.1755C74.9795 24.9523 74.7083 24.553 74.7083 23.9785C74.7083 23.3716 74.9557 22.8369 75.4506 22.3741C75.9451 21.9112 76.5594 21.6798 77.2943 21.6798C78.7306 21.6798 79.7359 22.3026 80.3108 23.5477C80.7897 24.5694 81.0289 26.0061 81.0289 27.8583C81.0289 28.9433 80.9813 29.9967 80.8853 31.0189C82.0023 30.0611 83.0639 29.0632 84.0693 28.0258C85.0746 26.9861 85.9598 25.9729 86.7259 24.9831ZM101.808 28.6225C102.319 26.5154 103.165 24.8551 104.346 23.6413C105.655 22.3323 107.251 21.6778 109.134 21.6778C110.762 21.6778 111.975 22.7636 112.773 24.9347C113.412 26.659 113.73 28.6861 113.73 31.0169C113.73 32.1983 113.675 33.6509 113.563 35.3752C113.451 37.0995 113.395 38.3285 113.395 39.063C113.395 40.1164 113.587 41.7771 113.97 44.0438C114.161 45.1932 114.257 46.0874 114.257 46.7262C114.257 47.4288 114.065 48.0673 113.682 48.6418C113.203 49.3443 112.549 49.6951 111.719 49.6951C110.953 49.6951 110.355 49.4083 109.923 48.833C109.492 48.2581 109.277 47.652 109.277 47.0131C109.277 46.0553 109.66 44.3791 110.426 41.9843C111.192 39.5895 111.607 38.2805 111.671 38.0573C112.022 36.9083 112.293 35.8865 112.485 34.992C112.9 33.2361 113.108 31.8947 113.108 30.9689C113.108 29.3086 112.932 28.0952 112.581 27.3291C112.101 26.3074 111.224 25.7965 109.947 25.7965C108.606 25.7965 107.537 26.451 106.739 27.76C105.941 29.069 105.414 30.8889 105.159 33.2197C105.127 33.4745 105.111 33.7946 105.111 34.1774C105.111 34.5923 105.135 35.0638 105.183 35.5899C105.231 36.1172 105.255 36.3962 105.255 36.4278C105.255 36.5874 105.223 36.9231 105.159 37.4336C104.936 38.0729 104.593 38.6072 104.13 39.038C103.667 39.4689 103.148 39.6847 102.574 39.6847C101.744 39.6847 101.066 39.5091 100.539 39.1575C100.012 38.8066 99.7489 38.2953 99.7489 37.6248C99.7489 36.9543 99.9086 36.1882 100.228 35.3257C100.962 33.3149 101.329 31.447 101.329 29.7227C101.329 28.4457 101.17 27.2881 100.85 26.2508C100.531 25.213 100.068 24.6943 99.4617 24.6943C99.2704 24.6943 98.9348 24.9179 98.4563 25.3648C97.977 25.8121 97.4349 26.0353 96.828 26.0353C96.2535 26.0353 95.7825 25.8359 95.416 25.4366C95.0487 25.0378 94.8653 24.5187 94.8653 23.8806C94.8653 23.2417 95.1045 22.7152 95.5834 22.2999C96.0623 21.8847 96.6684 21.677 97.4029 21.677C98.8396 21.677 99.9406 22.5232 100.707 24.2154C101.186 25.2384 101.552 26.707 101.808 28.6225Z" fill="#FEFEFE"/>
<path d="M33.4915 48.9767V49.193H30.0492V48.9767C30.404 48.9767 30.6502 48.9202 30.7876 48.807C30.9254 48.6942 30.9941 48.4881 30.9941 48.1868V43.7399C30.8204 43.7399 30.6249 43.7555 30.4079 43.7867C30.0457 43.8433 29.7451 44.0119 29.5063 44.2945C29.2674 44.5767 29.148 44.8772 29.148 45.1968H28.8877V43.4667H34.6967V45.1968H34.4465C34.4465 44.7172 34.2748 44.3538 33.9306 44.1079C33.5871 43.8621 33.1258 43.7399 32.5466 43.7399V48.1868C32.5466 48.494 32.6173 48.702 32.7585 48.812C32.8994 48.9221 33.1437 48.9767 33.4915 48.9767ZM36.4229 48.2719L38.7248 43.3266H38.9746L41.2878 48.1025C41.4755 48.4284 41.5844 48.6103 41.6133 48.6473C41.7581 48.8292 41.9392 48.9323 42.1566 48.9576V49.193H39.0402V48.9576C39.2575 48.9576 39.4238 48.942 39.5401 48.9108C39.7427 48.8542 39.8434 48.7543 39.8434 48.6099C39.8434 48.4971 39.7911 48.3343 39.6861 48.1209C39.5811 47.9078 39.4855 47.7068 39.3988 47.5194H37.2378C37.1438 47.6943 37.0497 47.8777 36.9557 48.0689C36.8616 48.2602 36.8144 48.428 36.8144 48.5724C36.8144 48.7785 36.9486 48.901 37.2164 48.9385C37.2737 48.951 37.3323 48.9572 37.39 48.9572C37.4474 48.9572 37.5095 48.9572 37.5746 48.9572V49.1926H35.6201V48.9572C35.8227 48.9572 35.9932 48.885 36.1306 48.741C36.2243 48.647 36.3214 48.4912 36.4229 48.2719ZM39.2462 47.1814L38.2799 45.1785L37.3838 47.1814H39.2462ZM43.1436 48.9767C43.4188 48.9455 43.6506 48.8827 43.8387 48.7886C44.0268 48.6946 44.1825 48.5537 44.3055 48.366L45.8038 46.5703L44.1096 44.3343C43.9652 44.1275 43.8422 43.9799 43.7411 43.8906C43.5675 43.7465 43.3786 43.6743 43.1764 43.6743V43.4675H46.5317V43.6841L46.3471 43.6747H46.1297C46.0134 43.6872 45.9201 43.7153 45.8475 43.7594C45.7745 43.8051 45.7386 43.8707 45.7386 43.96C45.7386 44.035 45.7589 44.0994 45.7987 44.1544C45.8385 44.2079 45.8764 44.2594 45.9123 44.3109L46.8334 45.5536L47.6709 44.4928C47.7216 44.435 47.7708 44.3597 47.8177 44.2641C47.8645 44.17 47.8988 44.0771 47.9207 43.9881C47.9207 43.8617 47.852 43.7785 47.715 43.736C47.5768 43.6954 47.4215 43.6755 47.2478 43.6755V43.4683H49.6368V43.6755C49.3327 43.6755 49.0537 43.7551 48.8004 43.9128C48.6049 44.0396 48.3949 44.2328 48.1705 44.4928L47.0632 45.8748L48.985 48.4791C49.1153 48.6356 49.2168 48.7453 49.289 48.8078C49.4268 48.9209 49.5716 48.9775 49.7234 48.9775V49.1937H46.4548V48.9775C46.7303 48.9775 46.9219 48.96 47.0304 48.9256C47.1389 48.8913 47.1932 48.83 47.1932 48.7422C47.1932 48.6481 47.1573 48.5326 47.0847 48.3944C47.0414 48.3129 47.0016 48.2469 46.9653 48.197L46.0422 46.8993L44.9897 48.1778C44.8593 48.3218 44.7941 48.4694 44.7941 48.62C44.7941 48.789 44.9206 48.8987 45.1739 48.949C45.2683 48.9678 45.3842 48.9771 45.5216 48.9771V49.1934H43.1436V48.9767V48.9767ZM54.0341 46.7205V48.5447C54.0341 48.7071 54.1137 48.8421 54.273 48.9486C54.3455 48.9924 54.4521 49.0208 54.593 49.0333C54.7339 49.0458 54.8736 49.0521 55.011 49.0521V49.193H51.7533V49.0521C51.9488 49.0521 52.101 49.0474 52.2095 49.038C52.318 49.029 52.4125 48.9986 52.4921 48.9486C52.6587 48.8421 52.7415 48.7071 52.7415 48.5447V46.3915C52.7415 45.9837 52.7052 45.6047 52.6338 45.2538C52.5397 44.7964 52.391 44.4233 52.1881 44.1349C52.0651 43.953 51.8805 43.8078 51.6346 43.6982C51.3884 43.5885 51.0914 43.5334 50.7444 43.5334V43.4113C51.2077 43.4113 51.6163 43.4585 51.9711 43.5522C52.3258 43.6462 52.6263 43.8 52.8722 44.0127C53.1474 44.2512 53.3683 44.5115 53.5349 44.7937C53.7301 45.1192 53.871 45.5145 53.9584 45.9778C54.1609 45.0001 54.4142 44.3136 54.7179 43.919C54.9786 43.5807 55.2939 43.4113 55.6628 43.4113C55.9235 43.4113 56.144 43.4929 56.3251 43.656C56.5058 43.8191 56.5963 44.0127 56.5963 44.2387C56.5963 44.4139 56.5331 44.5712 56.4066 44.7086C56.2802 44.846 56.119 44.9154 55.9235 44.9154C55.7642 44.9154 55.6214 44.8729 55.4945 44.7886C55.3677 44.7039 55.3049 44.5931 55.3049 44.4549C55.3049 44.3047 55.3622 44.1759 55.4781 44.0693C55.5937 43.9632 55.7459 43.9097 55.934 43.9097C56.0862 43.9097 56.1623 43.8664 56.1623 43.7786C56.1623 43.7157 56.117 43.6591 56.0265 43.6088C55.936 43.5588 55.8146 43.5338 55.6624 43.5338C55.3369 43.5338 55.0473 43.7063 54.7936 44.0506C54.6055 44.3078 54.4462 44.6462 54.3159 45.0661C54.2433 45.3108 54.1781 45.5945 54.1204 45.9169C54.0634 46.2393 54.0341 46.5074 54.0341 46.7205ZM60.1362 43.3266L62.9486 49.193H57.1614L59.8864 43.3266H60.1362ZM61.1462 48.8448L59.452 45.1769L57.7945 48.8448H61.1462ZM67.5052 43.4675C68.0406 43.4675 68.5023 43.601 68.8856 43.866C69.3149 44.1556 69.5284 44.5334 69.5284 45.0001C69.5284 45.536 69.2712 45.9481 68.7572 46.2397C68.3154 46.486 67.7655 46.6077 67.1067 46.6077H66.2274V48.1872C66.2274 48.4881 66.2886 48.6946 66.412 48.8074C66.5349 48.9205 66.7667 48.9771 67.1067 48.9771V49.1934H63.817V48.9771C64.135 48.9522 64.3579 48.8831 64.4844 48.7703C64.6112 48.6571 64.6744 48.4635 64.6744 48.1876V44.4268C64.6744 44.1388 64.6131 43.9503 64.4879 43.8632C64.4063 43.8004 64.1838 43.7376 63.8166 43.6751V43.4683H66.6883H67.5052V43.4675ZM67.8236 45.3787V45.4166V45.2082V44.7051C67.7873 44.4276 67.6933 44.2071 67.5391 44.0424C67.3565 43.8468 67.1012 43.7497 66.7738 43.7497C66.629 43.7497 66.5041 43.7653 66.4026 43.7965C66.3288 43.8344 66.2812 43.8933 66.2598 43.9717C66.2379 44.0498 66.2274 44.1158 66.2274 44.1661V46.306C66.6653 46.306 67.0107 46.2467 67.2659 46.1261C67.5941 45.9743 67.7803 45.7253 67.8236 45.3787ZM73.7193 43.3266C74.6747 43.3266 75.4837 43.6201 76.1464 44.2059C76.8084 44.7917 77.1401 45.5013 77.1401 46.3349C77.1401 47.1623 76.8033 47.8676 76.13 48.4506C75.4568 49.0333 74.6423 49.3249 73.6869 49.3249C72.7385 49.3249 71.9372 49.0349 71.2819 48.4549C70.627 47.875 70.2992 47.1682 70.2992 46.3345C70.2992 45.5138 70.6341 44.8073 71.3034 44.2145C71.9731 43.6224 72.7783 43.3266 73.7193 43.3266ZM73.6545 43.6271C72.9957 43.6271 72.5363 43.9464 72.2756 44.586C72.1019 45.0056 72.0149 45.5637 72.0149 46.2592C72.0149 46.98 72.1125 47.5694 72.308 48.0264C72.5976 48.7094 73.0862 49.0513 73.7735 49.0513C74.4475 49.0513 74.9139 48.7219 75.1746 48.0643C75.3413 47.6447 75.4248 47.0675 75.4248 46.3341C75.4248 45.639 75.3229 45.0649 75.1204 44.6141C74.8234 43.9561 74.3347 43.6271 73.6545 43.6271ZM77.9324 48.9767C78.5186 48.9767 78.8117 48.7164 78.8117 48.1966V44.389C78.8117 44.1193 78.7449 43.9327 78.6087 43.8293C78.4729 43.7259 78.2469 43.6743 77.9324 43.6743V43.4675H80.404L82.3223 47.4129L84.2386 43.4675H86.6728V43.6743C86.6022 43.681 86.5206 43.69 86.43 43.7028C86.3379 43.7149 86.2384 43.7544 86.128 43.8203C86.0198 43.8855 85.9492 43.9686 85.9164 44.0689C85.886 44.1696 85.8696 44.2949 85.8696 44.4455V48.1212C85.8696 48.1841 85.8696 48.245 85.8696 48.3047C85.8696 48.3644 85.8786 48.4616 85.8965 48.5962C85.9149 48.7309 85.9999 48.8323 86.1514 48.9014C86.2673 48.9518 86.441 48.9767 86.6728 48.9767V49.193H83.4588V48.9767C83.821 48.9326 84.0544 48.862 84.159 48.7652C84.264 48.668 84.3163 48.4659 84.3163 48.1587V44.1723L81.9059 49.1926H81.6451L79.2461 44.3043V48.1966C79.2461 48.4975 79.3167 48.7024 79.4576 48.812C79.5985 48.9217 79.8397 48.9767 80.18 48.9767V49.193H77.9324V48.9767ZM91.0807 43.6743C90.6779 43.6743 90.4187 43.7337 90.3009 43.8531C90.2197 43.9343 90.1795 44.0939 90.1795 44.3328V48.2251C90.1795 48.5072 90.2521 48.7012 90.3969 48.8074C90.5128 48.8956 90.7407 48.9518 91.0807 48.9771V49.1934H87.7043V48.9771C87.9865 48.9771 88.2093 48.9174 88.3721 48.7984C88.5348 48.679 88.6164 48.4947 88.6164 48.2438V44.3324C88.6164 44.0627 88.5333 43.8839 88.3666 43.7965C88.2652 43.7462 88.0442 43.706 87.7043 43.6743V43.4675H91.0807V43.6743ZM96.2605 44.4924C96.362 44.4108 96.4451 44.3328 96.5103 44.257C96.6114 44.138 96.6621 44.0346 96.6621 43.9468C96.6621 43.8219 96.5825 43.7446 96.4237 43.7165C96.2644 43.6884 96.0615 43.6743 95.8152 43.6743V43.4675H98.6494V43.6743C98.2732 43.6743 97.9001 43.7746 97.5309 43.9753C97.2487 44.1318 96.9447 44.3609 96.6188 44.6618L95.5373 45.6144L98.3349 48.6103C98.4434 48.7352 98.5573 48.823 98.6768 48.8733C98.7962 48.9237 98.9539 48.958 99.1494 48.9771V49.1934H95.6747V48.9865L96.0224 48.9775C96.1239 48.9775 96.216 48.9666 96.2992 48.9444C96.3827 48.9225 96.4279 48.8835 96.4354 48.8269C96.4354 48.7765 96.4065 48.7016 96.3483 48.6017C96.2906 48.501 96.2398 48.4292 96.1961 48.3851L94.5023 46.5144L94.2521 46.7209V48.197C94.2521 48.4979 94.3138 48.7028 94.4371 48.8124C94.5604 48.9221 94.7876 48.9771 95.1213 48.9771V49.1934H91.8526V48.9771C92.1641 48.9771 92.383 48.9174 92.5099 48.7984C92.6367 48.679 92.6999 48.476 92.6999 48.1876V44.4268C92.6999 44.1513 92.6402 43.9659 92.5208 43.8722C92.401 43.7785 92.1785 43.7126 91.8526 43.6747V43.4679H95.1213V43.6747L94.7407 43.722C94.5382 43.7465 94.4063 43.8207 94.3446 43.9421C94.2829 44.0642 94.2521 44.2262 94.2521 44.4264V46.2596L96.2605 44.4924ZM100.82 48.1868V44.426C100.82 44.1505 100.755 43.9651 100.625 43.8714C100.531 43.8024 100.314 43.7399 99.9733 43.6837V43.4671H103.252V43.6837L102.861 43.7305C102.673 43.7497 102.544 43.8215 102.476 43.9468C102.407 44.072 102.373 44.2321 102.373 44.4264V46.0438H104.696V44.4264C104.696 44.1255 104.644 43.9265 104.539 43.8297C104.434 43.7325 104.197 43.6841 103.828 43.6841V43.4675H107.107V43.6841L106.76 43.7309C106.556 43.7746 106.421 43.8519 106.352 43.9612C106.283 44.0709 106.249 44.2262 106.249 44.4264V48.1872C106.249 48.4756 106.316 48.6805 106.45 48.8027C106.584 48.9248 106.803 48.9861 107.107 48.9861V49.193H103.828V48.9861C104.103 48.9549 104.28 48.9268 104.362 48.9014C104.555 48.839 104.668 48.7227 104.696 48.5537V48.1872V46.4196H102.373V48.1872C102.373 48.4756 102.436 48.6727 102.563 48.7793C102.689 48.8858 102.919 48.9549 103.252 48.9861V49.193H99.9733V48.9861C100.296 48.9549 100.517 48.8842 100.638 48.7746C100.759 48.6649 100.82 48.4686 100.82 48.1868Z" fill="#E31E24"/>
<path d="M13.9761 27.9775C13.8797 27.7043 13.797 27.4424 13.7275 27.1926C13.6585 26.9448 13.6034 26.7102 13.5621 26.4882C13.5199 26.2587 13.4887 26.0264 13.4688 25.7938C13.4489 25.5585 13.4387 25.3079 13.4387 25.0418C13.4387 24.4345 13.5094 23.8904 13.6503 23.4088C13.7931 22.9221 14.0081 22.501 14.2946 22.1474V22.1482C14.6502 21.708 15.1021 21.3774 15.6505 21.1584C16.1922 20.9414 16.8256 20.8333 17.5508 20.8333C18.8926 20.8333 20.0404 21.2853 20.9942 22.19C21.9352 23.0825 22.6822 24.4138 23.2341 26.1841L23.2333 26.1826C23.5244 27.0876 23.7863 28.2991 24.0189 29.8157C24.2113 31.0709 24.3842 32.5301 24.5376 34.1955C24.5907 33.9867 24.6516 33.7463 24.7207 33.4742C25.0079 32.3412 25.4306 30.665 25.9891 28.4454C26.6167 25.9359 27.3387 24.0493 28.1563 22.7859C28.9994 21.4843 29.9485 20.8333 31.005 20.8333C31.3809 20.8333 31.7263 20.9005 32.0412 21.0343C32.3574 21.1686 32.6399 21.3684 32.8881 21.6346C33.1352 21.898 33.3202 22.1779 33.4447 22.4737C33.57 22.7723 33.6324 23.0857 33.6324 23.4135C33.6324 24.4021 32.6329 25.6178 30.6343 27.0599L30.6335 27.0607C29.4845 27.8799 28.5115 28.794 27.7149 29.8028C26.9207 30.8098 26.3037 31.91 25.8642 33.1039V33.1035C25.7397 33.4454 25.6363 33.7943 25.5535 34.1479C25.4712 34.5007 25.4107 34.8566 25.3717 35.2149C25.3326 35.5716 25.303 35.9635 25.2831 36.3893C25.2632 36.8123 25.253 37.26 25.253 37.7334V39.4097C25.253 40.1278 25.3943 40.9732 25.6765 41.9446C25.9988 43.0573 26.2389 43.9421 26.3973 44.5993C26.5605 45.2757 26.642 45.7331 26.642 45.9711C26.642 46.4071 26.5745 46.8145 26.4395 47.1943C26.3037 47.576 26.1011 47.9265 25.8322 48.2461C25.2842 48.8967 24.6301 49.2222 23.8706 49.2222C23.5178 49.2222 23.1849 49.1301 22.8727 48.9443C22.5679 48.764 22.2841 48.4963 22.0215 48.14L22.0219 48.1407C21.7631 47.7903 21.5687 47.4347 21.4392 47.0753C21.3084 46.7119 21.2428 46.3439 21.2428 45.9711C21.2428 45.8751 21.381 45.3397 21.6569 44.3647C21.927 43.4117 22.3345 42.0137 22.8789 40.1719C23.1318 39.318 23.3219 38.5343 23.4483 37.822C23.574 37.1148 23.6368 36.4786 23.6368 35.9139C23.6368 34.6357 23.5069 33.4848 23.2473 32.4622C22.9894 31.4459 22.6026 30.5549 22.0886 29.7911C21.516 28.9391 20.8245 28.3014 20.0142 27.8772C19.2028 27.4522 18.27 27.2394 17.2151 27.2394C16.6902 27.2394 16.2054 27.3085 15.7613 27.4463C15.5373 27.5158 15.2973 27.6036 15.042 27.7101C14.7879 27.8159 14.5186 27.9392 14.2337 28.0817C14.1412 28.1289 14.0113 28.0758 13.9761 27.9775ZM14.2579 27.6571C14.4796 27.5501 14.6939 27.4533 14.8999 27.3675C15.1634 27.2582 15.4143 27.1661 15.6528 27.0923C16.1344 26.9428 16.6554 26.8683 17.2155 26.8683C18.3309 26.8683 19.3215 27.0947 20.186 27.5478C21.0512 28.0009 21.7885 28.6804 22.3969 29.5851C22.9355 30.3855 23.3398 31.3152 23.6084 32.3732C23.8753 33.4258 24.0092 34.6065 24.0092 35.9143C24.0092 36.4989 23.9444 37.157 23.8144 37.886C23.686 38.6096 23.4928 39.407 23.2349 40.2769C22.6939 42.1066 22.2872 43.5034 22.0144 44.4654C21.7483 45.406 21.6148 45.9083 21.6148 45.9715C21.6148 46.3013 21.6729 46.628 21.7892 46.9508C21.9075 47.2778 22.0839 47.6014 22.32 47.9206L22.3208 47.9214C22.5526 48.236 22.7997 48.4709 23.0612 48.6259C23.3149 48.7757 23.5849 48.8507 23.8706 48.8507C24.515 48.8507 25.0743 48.5697 25.5477 48.0069C25.7889 47.7204 25.97 47.4082 26.0894 47.0714C26.2096 46.733 26.2697 46.3661 26.2697 45.9719C26.2697 45.7635 26.1916 45.3342 26.0355 44.6859C25.8747 44.0178 25.6363 43.1385 25.3201 42.0484C25.0274 41.0399 24.8811 40.1606 24.8811 39.4105V37.7342C24.8811 37.2495 24.8912 36.7956 24.9111 36.3725C24.931 35.9529 24.9615 35.5537 25.0025 35.1767C25.043 34.8004 25.1063 34.4297 25.1913 34.0644C25.276 33.6998 25.3845 33.338 25.5153 32.9778V32.977C25.9696 31.7441 26.6053 30.6096 27.423 29.573C28.2387 28.5391 29.237 27.6009 30.418 26.7598L30.4176 26.7602C32.3125 25.3926 33.2605 24.2776 33.2605 23.4143C33.2605 23.136 33.207 22.8706 33.1012 22.6181C32.9943 22.3636 32.8327 22.1209 32.6161 21.8894C32.4022 21.6603 32.1614 21.4894 31.8953 21.3762C31.6275 21.2626 31.3305 21.206 31.0039 21.206C30.0816 21.206 29.2355 21.8001 28.4662 22.9889C27.6716 24.2159 26.966 26.0651 26.3482 28.536C25.7897 30.7555 25.3662 32.431 25.0793 33.5648C24.7917 34.7001 24.6387 35.2957 24.6204 35.3503C24.5634 35.5205 24.2734 35.4842 24.259 35.307C24.0829 33.1815 23.88 31.369 23.6505 29.8715C23.4202 28.3713 23.163 27.1797 22.8797 26.2969L22.8789 26.2954C22.3458 24.5859 21.6323 23.3069 20.7378 22.4592C19.8566 21.6236 18.7938 21.206 17.55 21.206C16.8709 21.206 16.2831 21.3048 15.7875 21.5034C15.2992 21.6986 14.8972 21.9913 14.5826 22.3808V22.3816C14.3266 22.6985 14.1338 23.0759 14.0054 23.5142C13.8751 23.9595 13.8099 24.4684 13.8099 25.0421C13.8099 25.2876 13.8196 25.5281 13.8399 25.7638C13.8598 26.0007 13.8887 26.2208 13.9262 26.4222C13.9652 26.6314 14.0175 26.8558 14.0843 27.0947C14.1342 27.2726 14.192 27.4604 14.2579 27.6571ZM41.73 20.8337C42.9688 20.8337 44.2704 21.1346 45.6356 21.7357C46.3272 22.0405 46.8502 22.3761 47.2026 22.741C47.5726 23.1243 47.7576 23.5403 47.7576 23.9892C47.7576 24.2624 47.717 24.527 47.6346 24.7818C47.5531 25.0355 47.4309 25.2779 47.2686 25.5081C47.1027 25.7439 46.929 25.9219 46.7464 26.0417C46.552 26.1697 46.3479 26.2337 46.1352 26.2337C45.5778 26.2337 44.4449 26.0081 42.7366 25.5569H42.7358C42.3276 25.4469 41.9396 25.3645 41.572 25.3095C41.2071 25.2552 40.8609 25.2279 40.5334 25.2279C39.9355 25.2279 39.3747 25.2709 38.8517 25.3567C38.3299 25.4426 37.8428 25.5714 37.3909 25.7427C36.9569 25.907 36.6341 26.1065 36.4222 26.3402C36.2231 26.5604 36.1232 26.8144 36.1232 27.1013C36.1232 27.9033 36.524 28.3041 37.3257 28.3041C37.6219 28.3041 38.029 28.1976 38.5484 27.9837C39.1776 27.7257 39.6974 27.5322 40.108 27.4034C40.533 27.2695 40.8507 27.2028 41.0607 27.2028C41.3846 27.2028 41.7047 27.2605 42.0216 27.376C42.3334 27.49 42.6413 27.6606 42.9434 27.8873C43.2525 28.1192 43.4855 28.381 43.6416 28.6722C43.8005 28.9672 43.8797 29.29 43.8797 29.6397C43.8797 30.0308 43.813 30.3836 43.6811 30.6978C43.548 31.0147 43.3478 31.2914 43.0824 31.5267L43.0816 31.5283C42.8162 31.7589 42.5145 31.9326 42.1781 32.0481C41.844 32.1629 41.476 32.2203 41.0767 32.2203C40.8339 32.2203 40.533 32.1613 40.1744 32.0431C39.8247 31.9283 39.418 31.7574 38.952 31.531H38.9528C38.4973 31.3109 38.1246 31.1454 37.8342 31.035C37.5626 30.9311 37.3749 30.8796 37.2699 30.8796C36.5076 30.8796 36.1232 31.2805 36.1232 32.0829C36.1232 32.55 36.261 32.9587 36.5361 33.3084C36.8191 33.667 37.2472 33.968 37.8206 34.2111V34.2099C38.3029 34.4125 38.838 34.5643 39.427 34.6654C40.019 34.7673 40.6669 34.8184 41.3718 34.8184C41.9427 34.8184 42.4911 34.7911 43.0184 34.736C43.5488 34.6806 44.0612 34.5979 44.5553 34.4878C45.0451 34.3781 45.506 34.2443 45.9342 34.0862C46.3549 33.9309 46.7432 33.7517 47.0964 33.5496L47.0988 33.5488C47.2709 33.4532 47.429 33.4052 47.5722 33.4052C47.7353 33.4052 47.8747 33.4633 47.9906 33.5792V33.58C48.0917 33.6815 48.1666 33.8107 48.2158 33.9672C48.2614 34.1135 48.2845 34.2837 48.2845 34.4773C48.2845 34.7938 48.1978 35.1248 48.0253 35.4702C48.0253 35.4702 48.0171 35.4842 48.0167 35.4846C47.6713 36.0447 47.2467 36.5493 46.7448 36.9989C46.2437 37.4466 45.6621 37.8427 44.9998 38.1861C44.3395 38.5288 43.6366 38.7856 42.8915 38.957C42.1469 39.1279 41.3604 39.213 40.5334 39.213C39.7142 39.213 38.9294 39.0779 38.1788 38.8071C37.4299 38.537 36.7153 38.1323 36.037 37.5921C35.354 37.0489 34.8407 36.4459 34.4973 35.7836C34.1523 35.1185 33.9794 34.3949 33.9794 33.6151C33.9794 33.1507 34.0465 32.7081 34.1804 32.2897C34.3146 31.8713 34.5148 31.4787 34.7814 31.1119C35.0456 30.7485 35.3555 30.4179 35.7103 30.1205C35.9796 29.8953 36.275 29.6893 36.5966 29.5019C36.3406 29.3591 36.1041 29.1998 35.8871 29.0242C35.5819 28.7776 35.3169 28.5001 35.0929 28.1929C34.8665 27.883 34.6963 27.5517 34.582 27.2008C34.468 26.8507 34.411 26.4819 34.411 26.0959C34.411 25.313 34.5995 24.6011 34.9762 23.9611C35.3501 23.3245 35.9082 22.7633 36.6505 22.277C37.3838 21.7962 38.1749 21.4348 39.0238 21.1943C39.8692 20.9539 40.7723 20.8337 41.73 20.8337ZM41.73 21.2057C40.8051 21.2057 39.9355 21.3208 39.1229 21.5514C38.3115 21.7817 37.5552 22.1275 36.8523 22.5877C36.1579 23.0431 35.6385 23.5634 35.2942 24.148C34.9527 24.7291 34.7822 25.3786 34.7822 26.0959C34.7822 26.4444 34.8325 26.7746 34.934 27.0861C35.0355 27.3979 35.1881 27.6937 35.3926 27.9736C35.5991 28.2569 35.8414 28.511 36.1189 28.735C36.398 28.9606 36.7153 29.1589 37.07 29.3286C37.2039 29.3926 37.207 29.5929 37.0751 29.6616C36.6567 29.8782 36.2809 30.126 35.9484 30.405C35.617 30.6825 35.3282 30.9905 35.0815 31.3296C34.8372 31.6653 34.6546 32.0228 34.5328 32.4029C34.4114 32.7819 34.3509 33.1862 34.3509 33.6147C34.3509 34.3356 34.5094 35.0022 34.8263 35.6134C35.1452 36.2281 35.6256 36.7909 36.2672 37.301C36.9135 37.815 37.5926 38.2002 38.3033 38.4566C39.0133 38.7126 39.7564 38.8407 40.5326 38.8407C41.3343 38.8407 42.0926 38.7587 42.8076 38.5944C43.5226 38.4301 44.1962 38.1838 44.8293 37.856C45.4592 37.5285 46.015 37.1503 46.4958 36.7206C46.9712 36.2948 47.3708 35.8214 47.6944 35.3C47.8395 35.0084 47.9125 34.7337 47.9125 34.4765C47.9125 34.3196 47.8954 34.1861 47.8614 34.0768C47.8306 33.9781 47.7857 33.8993 47.7271 33.8411V33.8415C47.6842 33.7982 47.6319 33.7763 47.5714 33.7763C47.491 33.7763 47.3934 33.8083 47.2783 33.8719L47.2807 33.8712C46.9107 34.0831 46.5036 34.2704 46.0618 34.4332C45.6219 34.5959 45.1454 34.7341 44.6349 34.8484C44.1244 34.962 43.5987 35.0475 43.0562 35.1037C42.5102 35.1607 41.949 35.1892 41.3718 35.1892C40.6482 35.1892 39.9792 35.1361 39.3641 35.0307C38.7459 34.9241 38.1831 34.7641 37.6765 34.5514V34.5518C37.0435 34.2837 36.5658 33.9453 36.2442 33.5371C35.916 33.1206 35.7513 32.6351 35.7513 32.0825C35.7513 31.0326 36.2602 30.5077 37.2699 30.5077C37.4201 30.5077 37.6512 30.5678 37.9665 30.6876C38.262 30.8 38.6441 30.9702 39.114 31.1973H39.1147C39.5667 31.4174 39.9581 31.5821 40.2891 31.691C40.6095 31.7964 40.8722 31.8487 41.0767 31.8487C41.4358 31.8487 41.7628 31.798 42.0575 31.6969C42.3482 31.597 42.6086 31.4475 42.8381 31.2481L42.8373 31.2496C43.0589 31.0529 43.2268 30.8207 43.3388 30.5541C43.4512 30.286 43.5082 29.9812 43.5082 29.6401C43.5082 29.3517 43.4438 29.0871 43.315 28.8482C43.1842 28.6043 42.9864 28.383 42.7214 28.1839C42.4493 27.9798 42.1738 27.8268 41.8955 27.7254C41.6215 27.6251 41.3437 27.5751 41.0611 27.5751C40.8878 27.5751 40.6064 27.636 40.2185 27.7581C39.8149 27.8846 39.3048 28.0747 38.6893 28.3268C38.1234 28.5602 37.6691 28.6765 37.3261 28.6765C36.2766 28.6765 35.7517 28.1512 35.7517 27.1017C35.7517 26.7188 35.8836 26.3812 36.147 26.0905C36.3976 25.8137 36.7691 25.5819 37.2605 25.3954C37.7343 25.2158 38.2452 25.0808 38.7928 24.9914C39.3392 24.9016 39.9199 24.8564 40.5338 24.8564C40.8773 24.8564 41.2414 24.8853 41.6262 24.9426C42.0087 24.9996 42.4111 25.0847 42.8326 25.1983H42.8318C44.5069 25.6408 45.6083 25.8621 46.136 25.8621C46.2741 25.8621 46.4099 25.8184 46.5426 25.731C46.6874 25.6358 46.8287 25.4902 46.9657 25.2947C47.1066 25.0941 47.2127 24.8853 47.2826 24.6686C47.3521 24.4524 47.3872 24.2257 47.3872 23.9892C47.3872 23.6395 47.2366 23.3089 46.9368 22.9982C46.6191 22.6688 46.1356 22.3609 45.4873 22.0756C44.1693 21.4952 42.9177 21.2057 41.73 21.2057ZM56.6549 32.3764C57.3215 31.6165 57.9171 30.8394 58.4408 30.0464C59.0341 29.1491 59.5356 28.2308 59.9458 27.291C60.3548 26.3543 60.6623 25.3634 60.8668 24.3182C61.0717 23.273 61.1748 22.1736 61.1748 21.0195C61.1748 20.968 61.2318 20.8759 61.2774 20.8528L61.5647 20.7092C61.608 20.6877 61.7141 20.6956 61.7536 20.7233C62.1357 20.989 62.4881 21.3266 62.8108 21.7368C63.1309 22.1427 63.4212 22.6197 63.6827 23.1661C63.9438 23.7136 64.1398 24.2924 64.2709 24.9024C64.4013 25.5101 64.4668 26.1474 64.4668 26.8144C64.4668 27.8214 64.3041 28.8533 63.9794 29.9098C63.6562 30.9604 63.1711 32.0357 62.5252 33.1339L62.5259 33.1335C61.9936 34.053 61.3258 35.0151 60.5234 36.0185C59.7241 37.0184 58.7862 38.0644 57.7094 39.1568C57.6903 39.1767 57.6048 39.213 57.5775 39.213H56.6678C56.5749 39.213 56.4816 39.1201 56.4816 39.0272C56.4816 38.5429 56.4578 38.0292 56.4098 37.4868C56.3614 36.9368 56.29 36.3737 56.1971 35.7996C56.103 35.218 55.9637 34.5643 55.781 33.8399C55.5984 33.1164 55.3716 32.3256 55.102 31.4674L55.1004 31.4631C54.9735 31.0186 54.8354 30.6049 54.6867 30.2216C54.5392 29.8395 54.378 29.4824 54.2043 29.1511V29.1503C53.9865 28.7307 53.7418 28.3494 53.4702 28.0071C53.1989 27.6664 52.9007 27.3643 51.8774 26.6138C51.4758 26.3324 51.073 26.051 50.6718 25.7696C50.6714 25.7696 50.659 25.7599 50.6586 25.7595C50.2429 25.4098 49.9291 25.0406 49.718 24.6523C49.5029 24.2561 49.3956 23.844 49.3956 23.4139C49.3956 23.0829 49.4635 22.7746 49.5989 22.4901C49.7336 22.2079 49.9342 21.9507 50.2012 21.7181V21.7173C50.4665 21.4859 50.769 21.3126 51.1074 21.1971C51.4426 21.0823 51.8115 21.0253 52.2146 21.0253C52.8957 21.0253 53.4854 21.2224 53.9818 21.6166C54.4709 22.0046 54.865 22.5814 55.164 23.3468L55.1636 23.3452C55.2947 23.6734 55.4458 24.214 55.6148 24.966C55.7842 25.7162 55.9727 26.6731 56.1795 27.8362L56.1803 27.8413C56.2283 28.1593 56.2744 28.5258 56.3185 28.9384C56.3653 29.3708 56.4078 29.8235 56.4457 30.2962C56.4875 30.8176 56.5288 31.2715 56.5694 31.6567C56.5983 31.9108 56.626 32.1508 56.6549 32.3764ZM56.6623 32.9259C56.5601 33.0383 56.3626 32.9778 56.3415 32.8271C56.2939 32.4927 56.2478 32.1149 56.2033 31.6949C56.1565 31.2496 56.114 30.793 56.0761 30.325C56.0347 29.8079 55.993 29.3583 55.952 28.9774C55.9094 28.5785 55.8634 28.2191 55.8158 27.8998C55.6078 26.7329 55.4212 25.7813 55.2553 25.0468C55.0899 24.3147 54.9451 23.7928 54.8209 23.4826L54.8202 23.4814C54.5454 22.7781 54.1895 22.2532 53.7527 21.907C53.3242 21.5667 52.8118 21.3961 52.2162 21.3961C51.8528 21.3961 51.5238 21.4469 51.2284 21.5479C50.9368 21.6478 50.6765 21.7977 50.447 21.9975V21.9968C50.2195 22.1946 50.0486 22.4124 49.9358 22.6493C49.8241 22.8835 49.7687 23.138 49.7687 23.4135C49.7687 23.7823 49.8604 24.1359 50.0443 24.4747C50.2308 24.8177 50.5134 25.1487 50.8912 25.4679C51.2916 25.7482 51.6924 26.0284 52.0921 26.3086L52.8012 26.8051C52.8012 26.8055 52.8114 26.8136 52.8114 26.8136C53.1576 27.0939 53.4741 27.4147 53.7613 27.7761C54.0478 28.1363 54.3062 28.5379 54.5353 28.9797V28.9789C54.7121 29.3173 54.8787 29.6873 55.0336 30.0874C55.1882 30.4866 55.3303 30.9109 55.4587 31.3609L55.4571 31.3566C55.7291 32.2222 55.9578 33.02 56.1424 33.749C56.3267 34.4773 56.4672 35.1415 56.564 35.741C56.6623 36.3475 56.7353 36.9193 56.7825 37.4544C56.8243 37.9313 56.8481 38.393 56.8535 38.841H57.501C58.54 37.783 59.4513 36.7643 60.2342 35.7859C61.0276 34.7934 61.6849 33.847 62.2059 32.9477L62.2067 32.947C62.8374 31.8741 63.3104 30.8254 63.6258 29.8013C63.9392 28.7826 64.0961 27.787 64.0961 26.8148C64.0961 26.1724 64.0336 25.5604 63.9091 24.9797C63.7846 24.3997 63.5977 23.8491 63.3479 23.3265C63.0985 22.8043 62.8222 22.3504 62.5197 21.9667C62.2457 21.6182 61.9491 21.327 61.631 21.0929L61.5463 21.135C61.5397 22.2696 61.4351 23.355 61.2321 24.39C61.0222 25.4598 60.7068 26.4768 60.2861 27.4397C59.8669 28.3994 59.3549 29.3368 58.7503 30.2513C58.1469 31.1649 57.4503 32.0575 56.6623 32.9259ZM68.9738 20.8337C69.3782 20.8337 69.731 20.8899 70.0323 21.0019C70.3422 21.1171 70.5955 21.2903 70.7914 21.5226C70.9822 21.7482 71.1251 21.9999 71.2207 22.2766C71.3151 22.5517 71.3624 22.8515 71.3624 23.175C71.3624 23.4876 71.1196 24.2066 70.636 25.3314C70.1626 26.432 69.4511 27.9435 68.502 29.8661C68.0652 30.7477 67.7386 31.57 67.5208 32.333C67.3042 33.0918 67.1965 33.7908 67.1965 34.4293C67.1965 34.8461 67.2776 35.2091 67.4388 35.517C67.5095 35.6512 67.6055 35.7512 67.7273 35.8167C67.8549 35.8858 68.0149 35.9202 68.2073 35.9202C68.3669 35.9202 68.5063 35.8866 68.6245 35.8191C68.7451 35.7508 68.8489 35.6462 68.9356 35.5057C69.0296 35.3531 69.1011 35.1915 69.1479 35.0209C69.1951 34.8508 69.2185 34.6697 69.2185 34.4773C69.2185 34.2966 69.2501 34.1178 69.3134 33.9422C69.375 33.7701 69.4675 33.6003 69.5901 33.4337C69.7224 33.2545 69.8961 33.1199 70.1123 33.0309C70.3187 32.9454 70.5619 32.9025 70.8405 32.9025C71.2628 32.9025 71.6395 32.9692 71.9693 33.1023C72.3045 33.2373 72.5902 33.4395 72.8244 33.7092C73.0562 33.9754 73.2299 34.2821 73.3454 34.6287C73.4597 34.971 73.5163 35.3515 73.5163 35.7707C73.5163 36.2882 73.434 36.7561 73.2701 37.1734C73.1042 37.5937 72.8556 37.9617 72.5246 38.2755C71.8658 38.9011 71.0013 39.213 69.9308 39.213C69.0573 39.213 68.3244 38.9765 67.7319 38.5023C67.1446 38.0324 66.7016 37.3322 66.403 36.4018L66.4018 36.401C66.2071 35.7839 66.0607 34.9932 65.964 34.0288C65.8676 33.0695 65.8188 31.9412 65.8188 30.6462V25.8091C65.8188 24.9723 65.8594 24.2612 65.9405 23.6762C66.0233 23.081 66.1486 22.6142 66.3172 22.2774C66.558 21.7958 66.9038 21.4332 67.353 21.1916C67.7967 20.9528 68.3369 20.8337 68.9738 20.8337ZM68.9738 21.2057C68.3982 21.2057 67.9169 21.3099 67.5298 21.5179C67.1492 21.7228 66.8565 22.0315 66.6508 22.4432C66.4998 22.7449 66.3858 23.1731 66.309 23.7269C66.2305 24.2909 66.1911 24.9856 66.1911 25.8091V30.6462C66.1911 31.9369 66.2387 33.0523 66.3336 33.9925C66.4276 34.9277 66.5693 35.6934 66.7574 36.2894L66.7566 36.2886C67.0318 37.1464 67.4349 37.7877 67.9649 38.2115C68.4899 38.6315 69.1452 38.8414 69.9316 38.8414C70.9038 38.8414 71.6836 38.5632 72.2694 38.007C72.5609 37.7307 72.7791 37.4075 72.9247 37.0383C73.0718 36.6652 73.1452 36.2425 73.1452 35.7707C73.1452 35.3913 73.0941 35.0494 72.9926 34.745C72.8931 34.4457 72.7432 34.1822 72.5445 33.9531C72.3482 33.7275 72.1105 33.5585 71.8315 33.4461C71.5474 33.3322 71.2172 33.2748 70.8409 33.2748C70.6095 33.2748 70.4132 33.308 70.2532 33.3743C70.1017 33.4364 69.9808 33.5297 69.889 33.6534C69.7887 33.7904 69.7134 33.9281 69.6635 34.0675C69.6151 34.2029 69.5905 34.3395 69.5905 34.4781C69.5905 34.7009 69.5624 34.9152 69.5054 35.1205C69.4488 35.3242 69.3641 35.5186 69.2509 35.7012C69.1303 35.8956 68.9824 36.0427 68.808 36.1422C68.6312 36.2425 68.4309 36.2925 68.2073 36.2925C67.9532 36.2925 67.7347 36.2433 67.5508 36.1446C67.3619 36.0427 67.2144 35.8909 67.1087 35.6895C66.9194 35.3273 66.8245 34.9078 66.8245 34.43C66.8245 33.7576 66.9369 33.025 67.1625 32.2324C67.3858 31.4494 67.721 30.6064 68.1683 29.7029C69.1104 27.794 69.8196 26.2879 70.2938 25.1858C70.7574 24.1074 70.9892 23.4377 70.9892 23.1758C70.9892 22.8929 70.9487 22.6333 70.8675 22.398C70.7871 22.1642 70.6669 21.9523 70.5069 21.763C70.3523 21.5799 70.1501 21.4422 69.9011 21.3497C69.6455 21.2529 69.3356 21.2057 68.9738 21.2057ZM85.8965 24.2413C85.9965 23.8565 86.1471 23.4857 86.3485 23.1305C86.5553 22.7664 86.8161 22.419 87.1295 22.0889L87.1326 22.085C87.5471 21.6701 87.9935 21.3579 88.4709 21.1491C88.9497 20.9387 89.4575 20.8333 89.993 20.8333C90.4133 20.8333 90.7841 20.8934 91.1053 21.0132C91.4347 21.1362 91.709 21.32 91.9272 21.5655C92.3581 22.0475 92.5731 22.6958 92.5731 23.5095C92.5731 24.0512 92.4334 24.5773 92.1548 25.0886C91.8804 25.5913 91.4718 26.0776 90.9281 26.5471C90.3946 27.0084 89.8708 27.4541 89.358 27.8846C88.8639 28.2991 88.3663 28.7096 87.8663 29.1167C87.8257 29.3575 87.7949 29.6128 87.7734 29.8817C87.7492 30.1771 87.7375 30.4796 87.7375 30.7887C87.7375 31.355 87.7765 31.8678 87.8542 32.3268C87.9315 32.7827 88.0466 33.1874 88.2 33.5402C88.3456 33.8739 88.5392 34.1229 88.7807 34.2868C89.02 34.4488 89.3127 34.53 89.6585 34.53C89.8474 34.53 90.0449 34.4983 90.2509 34.4359C90.4625 34.3719 90.6818 34.2759 90.9074 34.1479C91.1591 34.0054 91.3988 33.8981 91.6263 33.8263C91.8601 33.7529 92.0822 33.7158 92.2917 33.7158C92.8943 33.7158 93.4376 34.0187 93.9216 34.6236C94.1565 34.9175 94.3337 35.2243 94.4527 35.5431C94.5726 35.8643 94.6327 36.1957 94.6327 36.5356C94.6327 36.9333 94.5452 37.2951 94.3704 37.6226C94.1975 37.9477 93.9395 38.2338 93.598 38.482C93.2635 38.7247 92.9068 38.9074 92.5283 39.0292C92.1497 39.1509 91.752 39.2118 91.3344 39.2118C90.2814 39.2118 89.4013 38.8883 88.6953 38.2408C87.9982 37.6019 87.4776 36.6504 87.133 35.387C86.9698 34.7833 86.8481 34.014 86.7673 33.0797C86.6958 32.2546 86.6564 31.2922 86.6486 30.1927C86.169 30.6197 85.7002 31.0654 85.2416 31.5306C84.6871 32.0934 84.1473 32.6851 83.6235 33.3045L83.622 33.306C83.2075 33.7841 82.7989 34.2806 82.3945 34.795V34.7957C81.9937 35.3078 81.598 35.8351 81.21 36.3783C81.107 36.7241 80.9364 37.0574 80.698 37.3779C80.4568 37.7026 80.1457 38.014 79.7652 38.3118C79.3835 38.6108 78.9916 38.8356 78.5904 38.9862C78.1857 39.138 77.7728 39.2138 77.3528 39.2138C77.0281 39.2138 76.7194 39.1599 76.4271 39.053C76.1348 38.9456 75.8608 38.7848 75.6059 38.5725C75.346 38.3555 75.1497 38.1046 75.0178 37.8189C74.8866 37.5344 74.8207 37.2186 74.8207 36.8728C74.8207 36.2804 75.0131 35.6587 75.3979 35.0065C75.7741 34.3676 76.3361 33.699 77.082 33.0016L77.0835 33C77.715 32.4213 78.0725 32.0934 78.245 31.935C78.6162 31.5942 78.9912 31.2492 79.3694 30.9011V29.4492C79.3694 28.5126 79.3304 27.746 79.2523 27.1501C79.1759 26.5689 79.0642 26.1525 78.9171 25.9031L78.9187 25.9062C78.7177 25.5761 78.3902 25.3263 77.9347 25.1573C77.4613 24.982 76.8521 24.8938 76.1078 24.8938C75.8436 24.8938 75.6028 24.8771 75.3862 24.8439C75.1653 24.8099 74.9678 24.7576 74.7937 24.6886L74.7922 24.6878C74.4862 24.5617 74.2544 24.3837 74.0986 24.1539C73.9418 23.9232 73.8629 23.6449 73.8629 23.319C73.8629 22.9893 73.9304 22.6778 74.0659 22.3851C74.2005 22.0955 74.3996 21.8262 74.6638 21.5788C74.9288 21.3309 75.2266 21.1452 75.5575 21.0203C75.8865 20.8965 76.2456 20.8341 76.6343 20.8341C77.3872 20.8341 78.03 20.9992 78.5631 21.3294C79.0978 21.6607 79.5162 22.154 79.8194 22.8105L79.8186 22.8097C80.0657 23.3366 80.2503 23.9673 80.3725 24.7014C80.4942 25.4313 80.5551 26.2641 80.5551 27.1981C80.5551 27.7464 80.543 28.2839 80.5188 28.8107C80.5024 29.1784 80.4786 29.5488 80.449 29.9203C80.8857 29.539 81.3134 29.1507 81.7326 28.7577C82.261 28.2608 82.7758 27.7538 83.2762 27.2371C83.7777 26.72 84.2484 26.2087 84.6882 25.706C85.1195 25.2115 85.5223 24.7241 85.8965 24.2413ZM86.2474 24.3689C86.2455 24.3767 86.2185 24.431 86.2138 24.4372C85.8294 24.9344 85.4134 25.4383 84.9681 25.9488C84.522 26.4593 84.0474 26.9741 83.5431 27.4943C83.0389 28.0149 82.5198 28.5262 81.9879 29.0266C81.4547 29.5277 80.9075 30.0187 80.3467 30.4995C80.2261 30.6033 80.0271 30.5003 80.0419 30.3418C80.0887 29.8458 80.1242 29.3294 80.1484 28.794C80.1722 28.2671 80.1843 27.7351 80.1843 27.1973C80.1843 26.2801 80.1254 25.468 80.0075 24.7615C79.8905 24.0594 79.716 23.4603 79.4838 22.9654L79.4834 22.9647C79.2118 22.3753 78.8402 21.9351 78.3695 21.6436C77.8969 21.3512 77.3193 21.2053 76.6351 21.2053C76.2901 21.2053 75.9747 21.2587 75.6891 21.3661C75.4057 21.4726 75.1489 21.6342 74.9186 21.8492C74.6884 22.0643 74.517 22.2949 74.4038 22.5396C74.2918 22.782 74.2352 23.0416 74.2352 23.3179C74.2352 23.5669 74.2922 23.7757 74.407 23.9439C74.5221 24.1133 74.6977 24.2464 74.9339 24.3439L74.9323 24.3431C75.0779 24.4009 75.248 24.4454 75.442 24.4751C75.6395 24.5055 75.862 24.5211 76.1082 24.5211C76.8966 24.5211 77.5484 24.6167 78.0643 24.808C78.599 25.0066 78.9893 25.3075 79.2356 25.7115L79.2367 25.7146C79.4088 26.0073 79.5369 26.4698 79.6196 27.1013C79.7008 27.7191 79.7414 28.5012 79.7414 29.4481V30.9807C79.7414 31.0108 79.7027 31.097 79.6813 31.1173C79.2828 31.4846 78.8874 31.8479 78.496 32.207C77.8887 32.7651 77.4723 33.1472 77.3364 33.2721C77.336 33.2729 77.3357 33.2732 77.3353 33.2736L77.3364 33.2721C77.336 33.2729 77.3357 33.2732 77.3353 33.2736C76.6136 33.9484 76.0747 34.5881 75.7172 35.1946C75.3675 35.7875 75.1926 36.3463 75.1926 36.8721C75.1926 37.1652 75.2469 37.4286 75.3546 37.6624C75.4623 37.8958 75.625 38.1034 75.844 38.2853C76.0676 38.4722 76.3049 38.6116 76.5543 38.7033C76.8049 38.7954 77.071 38.8414 77.3528 38.8414C77.7302 38.8414 78.1002 38.7735 78.4612 38.6381C78.8262 38.5011 79.1848 38.2946 79.5369 38.0191C79.8905 37.7424 80.1789 37.4548 80.3998 37.157C80.6176 36.8639 80.7713 36.5606 80.8611 36.246C80.8627 36.2414 80.8857 36.1941 80.8888 36.1898C81.2916 35.6247 81.6963 35.0834 82.1026 34.5659V34.5666C82.5128 34.0441 82.9257 33.5425 83.3414 33.0629L83.3398 33.0641C83.869 32.438 84.415 31.8401 84.977 31.2699C85.5387 30.7001 86.1171 30.1576 86.7115 29.6432C86.8278 29.5429 87.0182 29.6303 87.0182 29.7833C87.0182 31.0342 87.0584 32.1227 87.1384 33.0484C87.2173 33.9664 87.3351 34.7138 87.4909 35.291V35.2902C87.8167 36.4849 88.3015 37.3779 88.9454 37.968C89.58 38.5495 90.3758 38.8403 91.3336 38.8403C91.7145 38.8403 92.0744 38.7856 92.4143 38.6759C92.7538 38.5667 93.0754 38.4016 93.3795 38.1811C93.6765 37.9664 93.8974 37.7217 94.0429 37.4481C94.1877 37.1773 94.2603 36.8724 94.2603 36.5352C94.2603 36.2375 94.2084 35.9494 94.105 35.6723C94.0008 35.3929 93.8423 35.1209 93.6308 34.8555C93.221 34.3434 92.7745 34.087 92.2914 34.087C92.1185 34.087 91.9331 34.1182 91.7364 34.1803C91.533 34.2439 91.3176 34.3403 91.0904 34.4691C90.8379 34.6123 90.594 34.72 90.3583 34.7911C90.1175 34.8644 89.8837 34.9007 89.6585 34.9007C89.2374 34.9007 88.8756 34.7981 88.5731 34.5936C88.2722 34.3898 88.0341 34.0878 87.8605 33.6877C87.695 33.306 87.5709 32.8724 87.4885 32.3869C87.4066 31.9045 87.366 31.3714 87.366 30.7875C87.366 30.4589 87.3777 30.1467 87.4019 29.8516C87.4261 29.5554 87.4628 29.2658 87.5123 28.9836C87.5166 28.9614 87.5611 28.8861 87.5787 28.872C88.081 28.4634 88.5954 28.0388 89.1203 27.5985C89.6452 27.1583 90.167 26.7141 90.6865 26.2653C91.1962 25.8251 91.5775 25.3731 91.83 24.9102C92.0779 24.4556 92.202 23.9884 92.202 23.5079C92.202 22.789 92.0178 22.2235 91.6509 21.8122C91.4706 21.61 91.2458 21.4589 90.9761 21.3583C90.6994 21.2548 90.3715 21.2037 89.9934 21.2037C89.5078 21.2037 89.0497 21.2978 88.6192 21.4871C88.1867 21.6763 87.7789 21.9636 87.3956 22.3465L87.3984 22.3426C87.1056 22.6509 86.8633 22.9744 86.6713 23.312C86.4804 23.65 86.3391 24.002 86.2474 24.3689ZM101.203 27.0611C101.424 26.3324 101.691 25.6631 102.001 25.0531C102.432 24.2073 102.95 23.4736 103.554 22.8534L103.556 22.8519C104.227 22.179 104.974 21.6748 105.795 21.338C106.616 21.0015 107.51 20.8329 108.475 20.8329C109.337 20.8329 110.088 21.1202 110.73 21.6943C111.358 22.2567 111.878 23.0966 112.288 24.2112C112.611 25.0827 112.853 26.0331 113.015 27.0607C113.176 28.0868 113.257 29.1858 113.257 30.3578C113.257 30.9526 113.243 31.6141 113.215 32.3401C113.187 33.075 113.145 33.8708 113.09 34.7274C113.033 35.595 112.992 36.3319 112.964 36.9384C112.936 37.5531 112.922 38.0417 112.922 38.4035C112.922 38.925 112.97 39.5966 113.064 40.4182C113.16 41.2464 113.303 42.2252 113.494 43.3539C113.59 43.9315 113.663 44.4463 113.711 44.8967C113.76 45.3529 113.784 45.7432 113.784 46.066C113.784 46.4348 113.734 46.788 113.632 47.1248C113.531 47.4616 113.38 47.7817 113.178 48.0841L113.177 48.0865C112.921 48.4627 112.615 48.7457 112.261 48.9357C111.906 49.1262 111.506 49.2214 111.06 49.2214C110.233 49.2214 109.585 48.9088 109.117 48.2847C108.89 47.9819 108.719 47.6701 108.605 47.3496C108.49 47.0257 108.433 46.6936 108.433 46.354C108.433 45.8619 108.53 45.1898 108.725 44.3366C108.917 43.4956 109.206 42.4722 109.591 41.2682C109.937 40.1867 110.232 39.2622 110.475 38.4952C110.683 37.8392 110.803 37.4563 110.834 37.3474L110.835 37.3443C111.012 36.7655 111.167 36.225 111.3 35.7227C111.435 35.2165 111.55 34.7399 111.646 34.295L111.646 34.2911C111.853 33.4126 112.009 32.6429 112.11 31.9822C112.212 31.3242 112.263 30.7668 112.263 30.3102C112.263 29.4879 112.22 28.7779 112.134 28.1812C112.049 27.5927 111.922 27.1149 111.755 26.7489C111.755 26.7485 111.754 26.7477 111.754 26.7473L111.755 26.7489C111.755 26.7485 111.754 26.7477 111.754 26.7473C111.532 26.2723 111.217 25.9172 110.812 25.6818C110.402 25.4434 109.895 25.3239 109.289 25.3239C108.653 25.3239 108.083 25.4785 107.578 25.7876C107.069 26.0986 106.623 26.5693 106.239 27.1981C105.849 27.8393 105.524 28.6062 105.266 29.5C105.006 30.3988 104.812 31.426 104.686 32.5809V32.5836C104.67 32.7046 104.659 32.8439 104.651 33.0012C104.643 33.1608 104.639 33.3337 104.639 33.5191C104.639 33.7209 104.645 33.9391 104.657 34.1748C104.657 34.1752 104.657 34.1756 104.657 34.1756V34.1748C104.657 34.1752 104.657 34.1756 104.657 34.1756C104.67 34.4238 104.687 34.6709 104.71 34.9156C104.749 35.3457 104.762 35.4784 104.765 35.5185C104.777 35.6602 104.783 35.7445 104.783 35.7707C104.783 35.9377 104.751 36.2804 104.686 36.7991C104.686 36.801 104.677 36.8358 104.677 36.8377C104.56 37.1714 104.412 37.4782 104.232 37.7568C104.053 38.0371 103.841 38.2903 103.599 38.5167C103.35 38.7474 103.087 38.921 102.807 39.0374C102.525 39.1544 102.228 39.213 101.917 39.213C101.049 39.213 100.337 39.0268 99.7782 38.6541V38.6549C99.4886 38.4621 99.2704 38.2232 99.1237 37.9387C98.9781 37.6561 98.9051 37.3322 98.9051 36.9681C98.9051 36.6211 98.9461 36.2492 99.0288 35.8526C99.1108 35.4596 99.2329 35.0444 99.3953 34.6053V34.6061C99.7587 33.6105 100.031 32.6496 100.213 31.7238C100.394 30.8027 100.485 29.916 100.485 29.0656C100.485 28.4329 100.445 27.8327 100.367 27.2644C100.289 26.6962 100.171 26.1568 100.015 25.6479C99.8633 25.1549 99.6806 24.7892 99.4667 24.5496C99.2728 24.3314 99.0515 24.2226 98.8036 24.2226C98.7447 24.2226 98.6471 24.2678 98.5117 24.3584L98.5109 24.3592C98.3525 24.4649 98.1565 24.6269 97.9243 24.8435C97.6691 25.0812 97.3951 25.2611 97.1024 25.3817C96.8077 25.5035 96.4971 25.564 96.1704 25.564C95.8589 25.564 95.5736 25.5089 95.3145 25.3993C95.0538 25.2888 94.8223 25.1237 94.6217 24.9052C94.4211 24.6866 94.2705 24.4356 94.1702 24.1523C94.071 23.8725 94.0215 23.5622 94.0215 23.2223C94.0215 22.8769 94.0871 22.5603 94.2178 22.2719C94.3485 21.9843 94.5445 21.7271 94.8044 21.5015C95.062 21.2782 95.3539 21.1108 95.6798 20.9992C96.003 20.8887 96.3581 20.8333 96.7449 20.8333C97.5052 20.8333 98.1776 21.0577 98.7611 21.5066C99.3364 21.9484 99.8219 22.6064 100.218 23.4814L100.216 23.4795C100.461 24.0028 100.677 24.6366 100.863 25.3805C100.989 25.8875 101.102 26.4476 101.203 27.0611ZM101.329 28.0075C101.287 28.1812 100.989 28.1652 100.965 27.9876C100.839 27.0392 100.684 26.2005 100.502 25.4711C100.321 24.7467 100.113 24.1343 99.88 23.6363L99.8781 23.6344C99.5081 22.8167 99.0597 22.206 98.5336 21.8016C98.0168 21.4039 97.4197 21.206 96.7437 21.206C96.3968 21.206 96.0814 21.254 95.7977 21.3512C95.5174 21.4469 95.2669 21.5909 95.0456 21.7825C94.8266 21.9718 94.6631 22.186 94.555 22.4249C94.4465 22.6638 94.3919 22.9299 94.3919 23.2226C94.3919 23.5216 94.434 23.7905 94.5187 24.0294C94.6018 24.2647 94.7263 24.4731 94.893 24.6538C95.0589 24.8341 95.2466 24.9692 95.4569 25.0574C95.6681 25.1471 95.9054 25.192 96.1688 25.192C96.4487 25.192 96.7125 25.1409 96.9599 25.039C97.2105 24.936 97.447 24.7803 97.6699 24.5719C97.9169 24.3412 98.1284 24.1675 98.3049 24.05L98.3041 24.0508C98.5031 23.9177 98.6694 23.851 98.8017 23.851C99.1604 23.851 99.4741 24.0017 99.7423 24.3026C99.9913 24.5816 100.2 24.9938 100.368 25.539C100.53 26.0674 100.652 26.6259 100.733 27.2149C100.814 27.8046 100.855 28.4216 100.855 29.0656C100.855 29.9387 100.762 30.8488 100.576 31.7948C100.391 32.737 100.113 33.7162 99.7419 34.7321V34.7325C99.5854 35.156 99.4679 35.5541 99.3906 35.9276C99.3137 36.2964 99.2751 36.6437 99.2751 36.9677C99.2751 37.2733 99.3336 37.5406 99.4511 37.7689C99.5678 37.9949 99.745 38.1873 99.9819 38.3454V38.3462C100.477 38.6763 101.121 38.8414 101.914 38.8414C102.177 38.8414 102.426 38.7923 102.662 38.6943C102.901 38.5952 103.128 38.4449 103.343 38.2451C103.563 38.041 103.755 37.8111 103.918 37.5562C104.079 37.3061 104.211 37.0325 104.317 36.7355C104.378 36.2429 104.409 35.9209 104.409 35.7703C104.409 35.764 104.403 35.6907 104.391 35.549C104.363 35.2305 104.347 35.042 104.338 34.9491C104.313 34.6673 104.294 34.4156 104.283 34.1939V34.1931C104.271 33.9574 104.265 33.7326 104.265 33.5191C104.265 33.322 104.269 33.1433 104.277 32.984C104.285 32.8221 104.297 32.6734 104.314 32.5383V32.5419C104.443 31.3667 104.641 30.3184 104.908 29.3969C105.175 28.4708 105.513 27.6734 105.921 27.0049C106.335 26.325 106.823 25.8137 107.383 25.4707C107.948 25.1245 108.582 24.9524 109.287 24.9524C109.958 24.9524 110.528 25.0882 110.996 25.3606C111.468 25.6354 111.832 26.046 112.088 26.592L112.089 26.5935C112.272 26.9932 112.409 27.5056 112.499 28.1293C112.589 28.7463 112.633 29.473 112.633 30.3106C112.633 30.7797 112.58 31.3562 112.475 32.0392C112.37 32.719 112.213 33.4977 112.006 34.3754L112.007 34.3719C111.911 34.8203 111.794 35.3023 111.657 35.8175C111.519 36.337 111.363 36.8826 111.189 37.452L111.19 37.4493C111.157 37.564 111.036 37.9504 110.828 38.6077C110.657 39.149 110.361 40.0739 109.942 41.3822C109.561 42.5729 109.276 43.5857 109.085 44.4198C108.897 45.2433 108.803 45.888 108.803 46.3544C108.803 46.653 108.853 46.9437 108.953 47.2263C109.055 47.512 109.207 47.791 109.411 48.0631C109.805 48.588 110.354 48.8503 111.059 48.8503C111.443 48.8503 111.785 48.7699 112.084 48.6099C112.384 48.4491 112.645 48.2055 112.867 47.8804C112.868 47.8796 112.868 47.8789 112.869 47.8781L112.867 47.8804C112.868 47.8796 112.868 47.8789 112.869 47.8781C113.049 47.6072 113.185 47.3207 113.275 47.0198C113.365 46.7189 113.411 46.4008 113.411 46.0672C113.411 45.7522 113.387 45.3756 113.34 44.9373C113.293 44.4943 113.221 43.9865 113.126 43.416C112.934 42.2779 112.79 41.2928 112.694 40.4611C112.597 39.6228 112.549 38.9371 112.549 38.4043C112.549 38.032 112.563 37.5379 112.591 36.9236C112.619 36.3003 112.661 35.5611 112.716 34.7048C112.772 33.838 112.814 33.0453 112.842 32.3276C112.869 31.6013 112.884 30.9444 112.884 30.3582C112.884 29.1991 112.805 28.1188 112.647 27.1177C112.49 26.1178 112.253 25.1916 111.938 24.3396C111.55 23.2839 111.064 22.4944 110.48 21.9722C109.908 21.4605 109.24 21.2053 108.473 21.2053C107.555 21.2053 106.709 21.3637 105.934 21.6814C105.16 21.9991 104.454 22.4756 103.818 23.1122C103.818 23.1126 103.817 23.1134 103.817 23.1138L103.818 23.1122C103.818 23.1126 103.817 23.1134 103.817 23.1138C103.24 23.7058 102.745 24.4087 102.33 25.2221C101.915 26.0409 101.581 26.969 101.329 28.0075Z" fill="#005AA5"/>
<path d="M14.1514 27.9158C13.9598 27.3729 13.8239 26.8862 13.7447 26.4554C13.6647 26.0241 13.6245 25.553 13.6245 25.0421C13.6245 23.8615 13.8958 22.9354 14.4386 22.2645C15.1088 21.4344 16.1461 21.0199 17.5508 21.0199C20.1364 21.0199 21.9715 22.7598 23.0569 26.2399C23.6314 28.0278 24.0943 31.0451 24.4451 35.2918C24.4775 35.1962 25.0516 32.9286 26.169 28.4907C27.414 23.5099 29.0255 21.0195 31.0046 21.0195C31.7068 21.0195 32.2895 21.2665 32.7523 21.7614C33.2152 22.2563 33.4463 22.8074 33.4463 23.4135C33.4463 24.3396 32.4729 25.5046 30.5258 26.91C28.1958 28.5703 26.5839 30.6138 25.6902 33.0402C25.4349 33.7424 25.2671 34.4609 25.1871 35.1954C25.1075 35.9295 25.0673 36.7756 25.0673 37.7334V39.4097C25.0673 40.1438 25.2109 41.0063 25.4985 41.9957C26.1366 44.1992 26.4559 45.5243 26.4559 45.9711C26.4559 46.8013 26.2006 47.5202 25.6898 48.1263C25.1793 48.7328 24.5728 49.036 23.8703 49.036C23.2317 49.036 22.6654 48.7008 22.1706 48.0307C21.6757 47.3598 21.4286 46.6736 21.4286 45.9711C21.4286 45.8115 21.9711 43.8956 23.0565 40.2238C23.5674 38.4995 23.8226 37.0629 23.8226 35.9135C23.8226 33.3275 23.2958 31.252 22.2428 29.6877C21.0618 27.9314 19.3859 27.0533 17.2151 27.0533C16.6726 27.0533 16.1699 27.1255 15.7071 27.2691C15.2442 27.4127 14.7259 27.6286 14.1514 27.9158ZM41.7301 21.0195C42.9431 21.0195 44.2197 21.3145 45.5603 21.9058C46.9013 22.4963 47.5714 23.1902 47.5714 23.9892C47.5714 24.5 47.4196 24.9711 47.1164 25.4016C46.8135 25.8329 46.4861 26.0479 46.1344 26.0479C45.5919 26.0479 44.4749 25.8247 42.783 25.3774C41.9533 25.1542 41.2032 25.0421 40.5323 25.0421C39.32 25.0421 38.2503 25.2178 37.3245 25.5694C36.3992 25.9207 35.9363 26.4316 35.9363 27.1021C35.9363 28.0278 36.3992 28.4911 37.3245 28.4911C37.6438 28.4911 38.0747 28.3795 38.6175 28.1562C39.8622 27.6453 40.6759 27.3897 41.0595 27.3897C41.666 27.3897 42.2565 27.6055 42.831 28.036C43.4055 28.4669 43.6928 29.002 43.6928 29.6405C43.6928 30.375 43.445 30.9573 42.9587 31.3886C42.4634 31.8194 41.8335 32.0349 41.0755 32.0349C40.6283 32.0349 39.95 31.8112 39.0328 31.3644C38.107 30.9171 37.5243 30.6938 37.2691 30.6938C36.3832 30.6938 35.9363 31.1567 35.9363 32.0829C35.9363 33.1042 36.5428 33.8708 37.7476 34.3813C38.7374 34.7965 39.9422 35.0045 41.371 35.0045C42.5196 35.0045 43.5894 34.8925 44.5947 34.6693C45.5923 34.4456 46.4619 34.1264 47.1882 33.7115C47.4754 33.5515 47.6991 33.5515 47.8591 33.7115C48.0179 33.8711 48.0979 34.1264 48.0979 34.4776C48.0979 34.7649 48.0179 35.0685 47.8591 35.3874C47.1882 36.4732 46.207 37.3509 44.9144 38.0218C43.6214 38.6923 42.1609 39.0276 40.5327 39.0276C38.9368 39.0276 37.4763 38.5003 36.1517 37.4469C34.8267 36.3932 34.1648 35.1162 34.1648 33.6155C34.1648 32.7218 34.42 31.9232 34.9309 31.2211C35.4414 30.5186 36.1275 29.9437 36.9897 29.4968C36.2555 29.146 35.6728 28.6749 35.2416 28.084C34.8107 27.4931 34.5953 26.8312 34.5953 26.0963C34.5953 24.5957 35.3134 23.3745 36.7496 22.4323C38.1867 21.4902 39.8469 21.0195 41.7301 21.0195ZM56.525 32.801C58.0892 31.0771 59.2862 29.265 60.116 27.3651C60.9461 25.4656 61.3606 23.3503 61.3606 21.0195L61.6478 20.8759C62.3819 21.3867 63.0048 22.1767 63.5149 23.2461C64.0258 24.3158 64.2811 25.505 64.2811 26.8148C64.2811 28.7939 63.6426 30.8695 62.3659 33.0406C61.3126 34.8601 59.7167 36.8557 57.5779 39.0272H56.6682C56.6682 38.0374 56.5722 36.9521 56.3809 35.7703C56.1897 34.5885 55.822 33.1362 55.2799 31.412C55.0247 30.5182 54.7211 29.7361 54.3702 29.0652C53.9229 28.203 53.3648 27.5005 52.6943 26.958C52.0558 26.5108 51.4177 26.0639 50.7792 25.617C49.9811 24.9465 49.5826 24.2116 49.5826 23.4135C49.5826 22.807 49.8296 22.2879 50.3245 21.8574C50.819 21.4262 51.4497 21.2107 52.2158 21.2107C53.4924 21.2107 54.4186 21.9452 54.9927 23.4139C55.2479 24.0528 55.5832 25.537 55.9981 27.8682C56.0941 28.5071 56.1819 29.3208 56.2615 30.3106C56.3419 31.3 56.4293 32.1301 56.525 32.801ZM68.9738 21.0195C69.7404 21.0195 70.2989 21.2263 70.6501 21.642C71.001 22.0572 71.1766 22.5677 71.1766 23.1746C71.1766 23.7495 70.227 25.9527 68.3357 29.7841C67.4502 31.5724 67.0107 33.1206 67.0107 34.4293C67.0107 34.8765 67.0989 35.2676 67.2746 35.6028C67.4502 35.9381 67.7612 36.1059 68.2081 36.1059C68.5914 36.1059 68.886 35.9381 69.0941 35.6028C69.3017 35.268 69.4055 34.8925 69.4055 34.4773C69.4055 34.1584 69.5171 33.847 69.7408 33.5429C69.9636 33.2405 70.3313 33.0882 70.8414 33.0882C71.6399 33.0882 72.2542 33.3361 72.6855 33.8306C73.1163 34.3258 73.3318 34.9721 73.3318 35.7703C73.3318 36.76 73.0203 37.5504 72.3978 38.1412C71.7749 38.7317 70.9534 39.0272 69.932 39.0272C68.2721 39.0272 67.1547 38.1331 66.5806 36.3448C66.1974 35.1322 66.0057 33.2319 66.0057 30.6458C66.0057 30.0389 66.0057 29.1928 66.0057 28.107C66.0057 27.0217 66.0057 26.2555 66.0057 25.8087C66.0057 24.148 66.165 22.999 66.4846 22.3601C66.9311 21.4664 67.7608 21.0195 68.9738 21.0195ZM86.0671 24.324C86.2588 23.5575 86.658 22.8554 87.2641 22.2165C88.0619 21.4183 88.9716 21.0199 89.993 21.0199C90.7915 21.0199 91.3898 21.2431 91.7887 21.6904C92.1876 22.1376 92.3874 22.7438 92.3874 23.5103C92.3874 24.5316 91.8601 25.498 90.8071 26.4077C89.7541 27.3175 88.7168 28.1878 87.695 29.018C87.599 29.5612 87.5514 30.1513 87.5514 30.7899C87.5514 31.9392 87.711 32.8814 88.0303 33.6155C88.3491 34.35 88.8924 34.7169 89.6585 34.7169C90.073 34.7169 90.5203 34.5811 90.9988 34.3102C91.478 34.0386 91.9085 33.9028 92.2914 33.9028C92.8343 33.9028 93.3288 34.1822 93.7756 34.7407C94.2229 35.2996 94.4465 35.8983 94.4465 36.5368C94.4465 37.2713 94.1273 37.87 93.4888 38.3329C92.8503 38.7965 92.1321 39.0276 91.334 39.0276C89.3233 39.0276 87.9823 37.7986 87.3121 35.3398C86.9929 34.1588 86.8329 32.3069 86.8329 29.7845C85.6523 30.8059 84.5345 31.9392 83.4811 33.185C82.6514 34.1428 81.8372 35.1806 81.0395 36.2979C80.8479 36.9688 80.3846 37.5909 79.6509 38.1658C78.9163 38.7407 78.1506 39.028 77.3525 39.028C76.7456 39.028 76.2035 38.8281 75.7242 38.4293C75.2453 38.0304 75.0061 37.5113 75.0061 36.8728C75.0061 35.7554 75.7402 34.51 77.2088 33.1374C77.975 32.4349 78.7571 31.7164 79.5548 30.9823V29.4496C79.5548 27.5661 79.3952 26.3523 79.076 25.8102C78.6287 25.0753 77.6393 24.7088 76.1075 24.7088C75.5966 24.7088 75.1821 24.6448 74.8628 24.5168C74.3203 24.2936 74.0487 23.8943 74.0487 23.3198C74.0487 22.7133 74.2965 22.1782 74.7906 21.7157C75.2859 21.2521 75.9002 21.0214 76.6343 21.0214C78.071 21.0214 79.0764 21.6439 79.6509 22.8889C80.1297 23.9107 80.369 25.3477 80.369 27.1992C80.369 28.285 80.321 29.3384 80.2254 30.3605C81.3423 29.4028 82.4039 28.4048 83.4093 27.3671C84.4147 26.3293 85.301 25.3138 86.0671 24.324ZM101.149 27.9634C101.66 25.8567 102.506 24.196 103.687 22.983C104.996 21.674 106.591 21.0195 108.475 21.0195C110.103 21.0195 111.316 22.1049 112.114 24.276C112.752 26.0003 113.071 28.0274 113.071 30.3586C113.071 31.54 113.015 32.9926 112.903 34.7165C112.792 36.4408 112.736 37.6698 112.736 38.4043C112.736 39.4581 112.927 41.1179 113.311 43.3855C113.502 44.5345 113.598 45.4286 113.598 46.0671C113.598 46.7697 113.407 47.4085 113.023 47.983C112.544 48.6852 111.89 49.0364 111.06 49.0364C110.294 49.0364 109.696 48.7492 109.264 48.1747C108.834 47.5998 108.618 46.9929 108.618 46.3548C108.618 45.3966 109.001 43.7208 109.767 41.3256C110.533 38.9312 110.948 37.6222 111.012 37.3985C111.363 36.2492 111.635 35.2278 111.825 34.3332C112.241 32.5774 112.448 31.2359 112.448 30.3102C112.448 28.6499 112.273 27.4369 111.922 26.6704C111.443 25.6486 110.565 25.1378 109.288 25.1378C107.948 25.1378 106.878 25.7927 106.08 27.1013C105.282 28.4103 104.755 30.2306 104.5 32.5606C104.468 32.8162 104.452 33.1359 104.452 33.5187C104.452 33.9336 104.476 34.4047 104.524 34.9316C104.572 35.4584 104.596 35.7375 104.596 35.7695C104.596 35.9291 104.564 36.2644 104.5 36.7753C104.277 37.4138 103.934 37.9488 103.471 38.3793C103.008 38.8106 102.489 39.026 101.915 39.026C101.085 39.026 100.407 38.8504 99.8801 38.4988C99.3532 38.1483 99.0901 37.637 99.0901 36.9665C99.0901 36.2956 99.2498 35.5291 99.569 34.6673C100.304 32.6558 100.67 30.7879 100.67 29.064C100.67 27.7874 100.51 26.6294 100.191 25.592C99.8719 24.5543 99.409 24.0356 98.8025 24.0356C98.6109 24.0356 98.276 24.2588 97.7971 24.7065C97.3182 25.1534 96.7757 25.3766 96.1692 25.3766C95.5944 25.3766 95.1237 25.1768 94.7564 24.7783C94.3899 24.379 94.2061 23.8604 94.2061 23.2215C94.2061 22.583 94.4454 22.0569 94.9242 21.6412C95.4035 21.2259 96.0096 21.0187 96.7437 21.0187C98.1804 21.0187 99.2814 21.8648 100.048 23.5567C100.526 24.5793 100.894 26.0475 101.149 27.9634Z" fill="#005AA5"/>
</svg>
