<svg xmlns="http://www.w3.org/2000/svg" viewBox="0 0 323.13 120.41"><defs><style>.a{fill:none;}.b{fill:#ffcd00;}.c{fill:#0033a1;}</style></defs><rect class="a" width="323.13" height="120.41"/><circle class="b" cx="259.46" cy="85.08" r="12.25"/><path class="c" d="M86.85,57.76V74h13.38c-2.08,3-6.41,4.71-9.24,4.71-10.17,0-15.07-5.84-15.07-17.33q0-19.23,19.78-19.23c5.28,0,12.06,1.32,19.41,3.58V26.1a45.08,45.08,0,0,0-9.42-2.26,63.05,63.05,0,0,0-11.31-.95c-13,0-23.36,3.58-31.28,10.56S51.42,49.84,51.42,62.09q0,16.39,9,26c6,6.41,14.13,9.62,24.49,9.62s19.79-5.28,23-12.07V96.39h14.89V57.76Z"/><path class="c" d="M130.19,96.39V24.21h23.18V77.73h25.25V96.57H130.19Z"/><path class="c" d="M186,94.69V74.9a91.27,91.27,0,0,0,11.87,2.83,73.8,73.8,0,0,0,11.87,1.13c5.65,0,8.67-1.32,8.67-4,0-1.69-.75-2.45-4.9-3.39l-8.1-1.88C191.62,66.42,185,59.45,185,47.77c0-7.73,2.63-14,8.1-18.47,5.27-4.52,12.81-6.59,22.05-6.59a112.21,112.21,0,0,1,22.42,2.82V44.38a94.72,94.72,0,0,0-11.49-2.27,65.18,65.18,0,0,0-10.56-.94c-4.9,0-7.72,1.32-7.72,4,0,1.51,1.32,2.45,3.95,3.2L221,50.41c13.57,3.2,20.16,10.36,20.16,22.23,0,7.73-2.83,13.57-8.29,18.09s-13.19,6.6-23,6.6C200.48,97.71,191.24,96.39,186,94.69Z"/></svg>