<svg xmlns="http://www.w3.org/2000/svg" viewBox="0 0 320 120"><defs><style>.a{fill:none;}.b{fill:#ffcd00;}.c{fill:#0033a1;}</style></defs><rect class="a" width="320" height="120"/><circle class="b" cx="246.12" cy="81.87" r="10.78"/><path class="c" d="M94.27,57.84V72.1H106a10.9,10.9,0,0,1-8.12,4.14c-9,0-13.26-5.13-13.26-15.25q0-16.91,17.41-16.91c4.64,0,10.61,1.17,17.07,3.15V30a41.23,41.23,0,0,0-8.29-2,56.11,56.11,0,0,0-9.94-.82c-11.44,0-20.56,3.15-27.52,9.28S63.12,50.88,63.12,61.65q0,14.43,7.91,22.87C76.31,90.16,83.46,93,92.58,93s17.4-4.65,20.24-10.61v9.45h13.09v-34Z"/><path class="c" d="M132.4,91.82V28.33h20.39V75.42H175V92H132.4Z"/><path class="c" d="M181.46,90.33V72.93a81.82,81.82,0,0,0,10.45,2.49,65.32,65.32,0,0,0,10.45,1c5,0,7.62-1.16,7.62-3.52,0-1.49-.67-2.15-4.31-3l-7.13-1.66c-12.1-2.82-17.9-9-17.9-19.23,0-6.79,2.32-12.26,7.12-16.24S199,27,207.16,27a98.21,98.21,0,0,1,19.69,2.52V46.07a84.41,84.41,0,0,0-10.11-2,58.31,58.31,0,0,0-9.24-.8c-4.31,0-6.8,1.16-6.8,3.52,0,1.33,1.16,2.16,3.52,2.83l8.12,1.82c11.94,2.81,17.74,9.12,17.74,19.56,0,6.79-2.49,11.94-7.29,15.91s-11.61,5.8-20.23,5.8C194.23,93,186.11,91.82,181.46,90.33Z"/></svg>