<svg xmlns="http://www.w3.org/2000/svg" viewBox="0 0 320 120"><defs><style>.a{fill:none;}.b{fill:#ffcd00;}.c{fill:#0033a1;}</style></defs><rect class="a" width="320" height="120"/><circle class="b" cx="257.9" cy="84.87" r="12.25"/><path class="c" d="M85.28,57.55V73.76H98.66c-2.07,3-6.4,4.71-9.23,4.71-10.18,0-15.08-5.84-15.08-17.34q0-19.22,19.79-19.22c5.28,0,12.06,1.32,19.41,3.58V25.89a46.57,46.57,0,0,0-9.42-2.26,64,64,0,0,0-11.31-.94c-13,0-23.37,3.58-31.28,10.55S49.86,49.64,49.86,61.88q0,16.4,9,26c6,6.41,14.13,9.61,24.5,9.61s19.78-5.28,23-12.06V96.18h14.89V57.55Z"/><path class="c" d="M128.62,96.18V24H151.8V77.53h25.25V96.37H128.62Z"/><path class="c" d="M184.4,94.48V74.7a92.69,92.69,0,0,0,11.88,2.83,73.8,73.8,0,0,0,11.87,1.13c5.65,0,8.67-1.32,8.67-4,0-1.7-.76-2.45-4.9-3.39l-8.11-1.89c-13.75-3.2-20.35-10.17-20.35-21.86,0-7.72,2.64-13.94,8.1-18.46,5.28-4.53,12.82-6.6,22.05-6.6A112.23,112.23,0,0,1,236,25.33V44.17a95.53,95.53,0,0,0-11.5-2.26A65,65,0,0,0,214,41c-4.9,0-7.73,1.32-7.73,4,0,1.51,1.32,2.45,4,3.21l9.23,2.07c13.57,3.2,20.17,10.37,20.17,22.24,0,7.72-2.83,13.57-8.29,18.09s-13.2,6.59-23,6.59C198.91,97.5,189.68,96.18,184.4,94.48Z"/></svg>