<svg xmlns="http://www.w3.org/2000/svg" width="128" height="64" fill="none"><rect width="128" height="64" fill="#fff" rx="6"/><path fill="#FFCD00" d="M98.444 45.06a4.312 4.312 0 1 0 0-8.625 4.312 4.312 0 0 0 0 8.625Z"/><path fill="#0033A1" d="M37.704 31.136v5.704h4.692a4.359 4.359 0 0 1-3.248 1.656c-3.6 0-5.304-2.052-5.304-6.1 0-4.51 2.322-6.764 6.964-6.764 1.856 0 4.244.468 6.828 1.26V20a16.5 16.5 0 0 0-3.316-.8 22.448 22.448 0 0 0-3.976-.328c-4.576 0-8.224 1.26-11.008 3.712-2.784 2.452-4.092 5.768-4.092 10.076 0 3.848 1.055 6.897 3.164 9.148 2.112 2.256 4.972 3.392 8.62 3.392 3.648 0 6.96-1.86 8.096-4.244v3.78h5.236v-13.6H37.704ZM52.956 44.728V19.332h8.156v18.836h8.884V44.8h-17.04v-.072ZM72.58 44.132v-6.96c1.37.423 2.766.756 4.18.996 1.38.245 2.778.379 4.18.4 2 0 3.048-.464 3.048-1.408 0-.596-.268-.86-1.724-1.2l-2.852-.664c-4.84-1.128-7.16-3.6-7.16-7.692 0-2.716.928-4.904 2.848-6.496 1.92-1.592 4.496-2.308 7.76-2.308 2.653.07 5.291.407 7.876 1.008v6.62a33.755 33.755 0 0 0-4.044-.8 23.333 23.333 0 0 0-3.696-.32c-1.724 0-2.72.464-2.72 1.408 0 .532.464.864 1.408 1.132l3.248.728c4.776 1.124 7.096 3.648 7.096 7.824 0 2.716-.996 4.776-2.916 6.364s-4.644 2.32-8.092 2.32c-3.332.116-6.58-.356-8.44-.952Z"/></svg>