<svg xmlns="http://www.w3.org/2000/svg" viewBox="0 0 320 120"><defs><style>.a{fill:none;}.b{fill:#ffcd00;}.c{fill:#0033a1;}</style></defs><rect class="a" width="320" height="120"/><circle class="b" cx="244.81" cy="81.54" r="10.61"/><path class="c" d="M95.27,57.87V71.92h11.59a10.73,10.73,0,0,1-8,4.08C90.05,76,85.8,70.94,85.8,61q0-16.65,17.14-16.66c4.58,0,10.45,1.15,16.82,3.11v-17a40.11,40.11,0,0,0-8.16-2,56.53,56.53,0,0,0-9.8-.82c-11.26,0-20.24,3.11-27.1,9.14S64.58,51,64.58,61.63q0,14.2,7.8,22.52c5.2,5.55,12.24,8.33,21.23,8.33S110.74,87.9,113.53,82v9.31h12.9V57.87Z"/><path class="c" d="M132.82,91.34V28.81H152.9V75.18h21.87V91.5h-42Z"/><path class="c" d="M181.14,89.87V72.73a80.6,80.6,0,0,0,10.29,2.45,63.44,63.44,0,0,0,10.28,1c4.9,0,7.51-1.14,7.51-3.46,0-1.48-.65-2.13-4.24-2.94l-7-1.64c-11.91-2.77-17.63-8.81-17.63-18.94,0-6.68,2.29-12.07,7-16,4.58-3.92,11.11-5.71,19.1-5.71A96.68,96.68,0,0,1,225.84,30V46.28a84.28,84.28,0,0,0-10-2,56.65,56.65,0,0,0-9.1-.78c-4.24,0-6.69,1.14-6.69,3.46,0,1.31,1.14,2.12,3.46,2.78l8,1.8c11.75,2.77,17.47,9,17.47,19.26a19.16,19.16,0,0,1-7.18,15.67c-4.73,3.92-11.44,5.71-19.93,5.71C193.71,92.48,185.71,91.34,181.14,89.87Z"/></svg>