<svg xmlns="http://www.w3.org/2000/svg" xmlns:xlink="http://www.w3.org/1999/xlink" viewBox="0 0 323.13 120.41"><defs><style>.a{fill:none;}.b,.c,.d,.e,.f,.g,.h,.i,.j{fill-rule:evenodd;}.b{fill:url(#a);}.c{fill:url(#b);}.d{fill:url(#c);}.e{fill:url(#d);}.f{fill:url(#e);}.g{fill:url(#f);}.h{fill:url(#g);}.i{fill:url(#h);}.j{fill:url(#i);}.k{fill:#484649;}</style><linearGradient id="a" x1="13.95" y1="75.85" x2="74.33" y2="82.65" gradientTransform="matrix(1, 0, 0, -1, 0, 122)" gradientUnits="userSpaceOnUse"><stop offset="0" stop-color="#eef7fe"/><stop offset="1" stop-color="#1e97d0"/></linearGradient><linearGradient id="b" x1="97.93" y1="148.84" x2="109.86" y2="137.16" gradientTransform="matrix(1, 0, 0, -1, -91.18, 187.28)" gradientUnits="userSpaceOnUse"><stop offset="0" stop-color="#d6e9f7"/><stop offset="1" stop-color="#48a2d7"/></linearGradient><linearGradient id="c" x1="-169.3" y1="33.4" x2="-130.54" y2="41.7" gradientTransform="matrix(1, 0, 0, -1, 200.49, 96.1)" gradientUnits="userSpaceOnUse"><stop offset="0" stop-color="#d4eaf7"/><stop offset="1" stop-color="#1493c5"/></linearGradient><linearGradient id="d" x1="-120.31" y1="16.81" x2="-108.63" y2="3.14" gradientTransform="matrix(1, 0, 0, -1, 142.98, 70.45)" gradientUnits="userSpaceOnUse"><stop offset="0" stop-color="#d9ebf7"/><stop offset="1" stop-color="#318abb"/></linearGradient><linearGradient id="e" x1="-19.21" y1="1.41" x2="-2.96" y2="9.27" gradientTransform="matrix(1, 0, 0, -1, 68.5, 79.51)" gradientUnits="userSpaceOnUse"><stop offset="0" stop-color="#9dc4df"/><stop offset="1" stop-color="#137eab"/></linearGradient><linearGradient id="f" x1="-8.38" y1="12.64" x2="3.45" y2="-1.22" gradientTransform="matrix(1, 0, 0, -1, 49.82, 83.15)" gradientUnits="userSpaceOnUse"><stop offset="0" stop-color="#deeef8"/><stop offset="1" stop-color="#3586b3"/></linearGradient><linearGradient id="g" x1="128.9" y1="73.51" x2="128.9" y2="87.34" gradientTransform="matrix(1, 0, 0, -1, -59.71, 157.17)" gradientUnits="userSpaceOnUse"><stop offset="0" stop-color="#646368"/><stop offset="1" stop-color="#646368"/></linearGradient><linearGradient id="h" x1="116.43" y1="25.4" x2="116.43" y2="38.87" gradientTransform="matrix(1, 0, 0, -1, -42.86, 91.93)" gradientUnits="userSpaceOnUse"><stop offset="0" stop-color="#636267"/><stop offset="1" stop-color="#646368"/></linearGradient><linearGradient id="i" x1="145.77" y1="-21.23" x2="145.77" y2="-7.52" gradientTransform="matrix(1, 0, 0, -1, -67.95, 29.01)" gradientUnits="userSpaceOnUse"><stop offset="0" stop-color="#6b6a6f"/><stop offset="1" stop-color="#eaebed"/></linearGradient></defs><rect class="a" width="323.13" height="120.41"/><path class="b" d="M70.49,50.31,74,36.47H6.56L18.23,50.31Z"/><path class="c" d="M6.56,40,17.31,50.31h.92L6.56,36.47Z"/><path class="d" d="M35,66.53,23.57,53h46.1l-3.4,13.54Z"/><path class="e" d="M34.17,66.53,23.57,56.39V53L35,66.53Z"/><path class="f" d="M54,83.53,42.4,69.93h23l-3.54,13.6Z"/><path class="g" d="M42.4,73.33l10.88,10.2H54L42.4,69.93Z"/><path class="h" d="M64.19,83.53h6.54L74.19,70H67.65Z"/><path class="i" d="M68.61,66.4h6.45l3.46-13.34H72Z"/><path class="j" d="M72.84,50.24h6.59l3.37-13.7H76.21Z"/><path class="k" d="M134.78,83.58a7.73,7.73,0,0,1-6.06-4.74c-.7-1.5-.74-1.76-.72-5.12a28.75,28.75,0,0,1,.61-6.3C130,61,132.89,54,135.32,51.22c2.72-3.08,6.33-4.63,11.81-5.08,5.29-.43,9.71.25,11.88,1.82s3,3.48,3,7.45a28.59,28.59,0,0,1-1.62,9.15c-.89,2.09-.79,2.07-12,2.07h-9.73l-.26,1c-1.22,4.63-1,6.59.82,7.79,1.34.87,6,1.19,9.82.66,2.83-.39,4.72-1.16,6.16-2.51,2-1.9,2.15-1.65,1.14,2.17-1.65,6.24-1.95,6.74-4.65,7.62C149.79,84,137.23,84.13,134.78,83.58Zm18.76-24c.75-3,.56-4.46-.68-5.64-1.86-1.76-6.72-1.66-9.13.18a10.61,10.61,0,0,0-2.93,4.77l-.6,1.67h13.1ZM254.17,83.42a7.2,7.2,0,0,1-5.29-4L248,77.58v-4a25.7,25.7,0,0,1,.62-6.72c1.56-7,4.21-13,7-16,3.25-3.44,7.12-4.76,14.13-4.78s10.08,1.35,11.61,5.08c.7,1.72.63,6.93-.14,10-.74,3-1.41,4.48-2.19,4.93-.47.27-2.95.38-10.59.48l-10,.13L258,68.6c-.63,2.43-.67,4.5-.11,5.55a3.92,3.92,0,0,0,1.69,1.44c1.16.57,1.58.62,5.33.62,5.57,0,8.08-.67,10.32-2.74,1-1,1.75-1.33,1.75-.92s-2.16,8.15-2.48,8.76c-1.06,2-3.89,2.65-12.31,2.63C257.05,83.93,255.8,83.85,254.17,83.42ZM273.52,59.1c1-4.7-.69-6.54-5.62-6.29-3.85.19-5.73,1.79-7.23,6.16-.28.79-.5,1.48-.5,1.53s2.94.09,6.53.09h6.52ZM83.27,83.38c-.5-.5-.37-1.87.46-5,3.91-14.83,9.78-38,9.8-38.73A1.51,1.51,0,0,0,93,38.26a1.49,1.49,0,0,1-.57-.88c0-.37.66-.42,5.62-.42s5.68.06,6.07.44c.61.61.48,1.33-1.67,9.59-1,3.85-1.76,7.07-1.68,7.15s3.2.15,6.93.15h6.79l.25-.59c.33-.77,3.36-12.47,3.56-13.77a1.41,1.41,0,0,0-.52-1.64c-1.36-1.27-1.15-1.33,5-1.33s6.35,0,6.35,1.41c0,.63-3.24,13.6-6.43,25.76-3.74,14.24-4.37,17-4.07,17.74a1.88,1.88,0,0,0,.68.88.63.63,0,0,1,.37.54c0,.35-.76.4-5.72.4-6.18,0-6.36,0-6.36-1.38,0-.42,1.13-5.08,2.5-10.36s2.49-9.76,2.49-10-1.32-.35-7-.35h-7l-2.44,9.65c-1.34,5.31-2.44,9.86-2.43,10.12a2,2,0,0,0,.61,1.07c.34.34.56.74.51.91C94.68,83.83,83.71,83.82,83.27,83.38Zm79.91-.1a1.38,1.38,0,0,1-.41-.75c0-.19,1.95-8,4.33-17.23,4-15.72,4.3-16.93,3.93-17.49-.22-.34-.51-.61-.66-.61s-.25-.18-.25-.39.74-.4,5.08-.4c6.63,0,6.4-.2,5.25,4.47-.11.42.33,0,1.22-1.18.77-1,1.69-2.17,2.06-2.56l.66-.73h4.68a30.64,30.64,0,0,1,4.68.18,41.32,41.32,0,0,1-1.76,6c-.59.91-1.55,1.11-5.73,1.2-3.37.07-4.08.16-5,.63-1.89,1-2.21,1.84-5.48,14.41-1.65,6.35-3.07,11.87-3.16,12.25a1.55,1.55,0,0,0,.5,1.49,3.83,3.83,0,0,1,.65.94,44.33,44.33,0,0,1-5.1.15C164.41,83.69,163.53,83.63,163.18,83.28Zm26.78,0a1.35,1.35,0,0,1-.41-.72c0-.17,1.9-7.75,4.23-16.85S198,48.88,198,48.53a1.65,1.65,0,0,0-.55-1.09c-1.15-.93-.74-1,4.54-1,6.37,0,6.5.08,5.51,3.39a5,5,0,0,0-.3,1.5,4.17,4.17,0,0,0,1-1.13c2.74-3.82,3.16-4,9.06-4,4.38,0,4.52,0,5.91.71A5.28,5.28,0,0,1,226,50.81l.21.86,1.45-2.16c2.18-3.26,2.4-3.35,8.4-3.35,4.55,0,4.94,0,6.17.61A7,7,0,0,1,244,47.9a6,6,0,0,1,1.26,3.75c0,.81-1.36,6.76-3.56,15.56-2,8.09-3.49,14.5-3.41,14.83a1.54,1.54,0,0,0,.67.87c1.21.65.38.78-4.68.78-5.52,0-5.83-.06-5.83-1.26,0-.35,1.42-6.21,3.15-13s3.15-12.81,3.15-13.31c0-1.91-1.65-2.8-4.58-2.46s-4,1.21-5,3.68c-.43,1.09-6,22.1-6.33,23.81a1.34,1.34,0,0,0,.5,1.6c.38.35.61.71.51.8a40.91,40.91,0,0,1-5.19.17c-5.36,0-5.66-.06-5.66-1.28,0-.36,1.42-6.18,3.16-12.94s3.15-12.76,3.15-13.35c0-2.06-1.94-3-5.11-2.38-2.11.39-3,1-3.86,2.53s-6.79,24-6.79,25.34a1.27,1.27,0,0,0,.53,1.1,1,1,0,0,1,.52.65c0,.26-1.17.33-5.1.33C191.19,83.69,190.31,83.63,190,83.28Zm93.44-.21c-.4-.61-.36-.89.72-5.06.87-3.41,1.23-4.44,1.58-4.51s.57.17.76.59c.47,1,1.35,1.45,3.69,1.77,3,.4,10.29.17,11.53-.37a4.13,4.13,0,0,0,2.3-3.08c.3-1.32,0-2.17-.81-2.74a54.63,54.63,0,0,0-5.83-1.84c-5.77-1.59-7.27-2.32-8.23-4-.56-.94-.6-1.28-.5-3.66.25-5.54,2.89-10.9,6.22-12.6,2.08-1.06,3.49-1.19,12.85-1.19h8.88l-.66,2.43c-.78,2.88-1.19,3.74-2,4.19-.41.24-2.44.38-6.77.47-5.32.11-6.28.2-6.88.6a3.63,3.63,0,0,0-1.64,2.58c-.31,1.7.35,2.12,6,3.81,7.06,2.1,8.41,2.89,9.07,5.35s-.42,8.68-2.08,12.14a9,9,0,0,1-4.43,4.72l-1.76.86-10.82.08-10.82.08Z"/></svg>