<svg xmlns="http://www.w3.org/2000/svg" xmlns:xlink="http://www.w3.org/1999/xlink" viewBox="0 0 320 120"><defs><style>.a{fill:none;}.b,.c,.d,.e,.f,.g,.h,.i,.j{fill-rule:evenodd;}.b{fill:url(#a);}.c{fill:url(#b);}.d{fill:url(#c);}.e{fill:url(#d);}.f{fill:url(#e);}.g{fill:url(#f);}.h{fill:url(#g);}.i{fill:url(#h);}.j{fill:url(#i);}.k{fill:#484649;}</style><linearGradient id="a" x1="277.99" y1="282.3" x2="336.49" y2="275.71" gradientTransform="translate(-261 -235.91)" gradientUnits="userSpaceOnUse"><stop offset="0" stop-color="#eef7fe"/><stop offset="1" stop-color="#1e97d0"/></linearGradient><linearGradient id="b" x1="362.2" y1="209.54" x2="373.75" y2="220.85" gradientTransform="translate(-352.18 -170.63)" gradientUnits="userSpaceOnUse"><stop offset="0" stop-color="#d6e9f7"/><stop offset="1" stop-color="#48a2d7"/></linearGradient><linearGradient id="c" x1="94.2" y1="324.23" x2="131.75" y2="316.19" gradientTransform="translate(-60.51 -261.81)" gradientUnits="userSpaceOnUse"><stop offset="0" stop-color="#d4eaf7"/><stop offset="1" stop-color="#1493c5"/></linearGradient><linearGradient id="d" x1="143.45" y1="341.1" x2="154.78" y2="354.34" gradientTransform="translate(-118.02 -287.46)" gradientUnits="userSpaceOnUse"><stop offset="0" stop-color="#d9ebf7"/><stop offset="1" stop-color="#318abb"/></linearGradient><linearGradient id="e" x1="243.72" y1="355.74" x2="259.47" y2="348.13" gradientTransform="translate(-192.5 -278.4)" gradientUnits="userSpaceOnUse"><stop offset="0" stop-color="#9dc4df"/><stop offset="1" stop-color="#137eab"/></linearGradient><linearGradient id="f" x1="254.81" y1="344.74" x2="266.26" y2="358.16" gradientTransform="translate(-211.18 -274.76)" gradientUnits="userSpaceOnUse"><stop offset="0" stop-color="#deeef8"/><stop offset="1" stop-color="#3586b3"/></linearGradient><linearGradient id="g" x1="391.22" y1="283.47" x2="391.22" y2="270.06" gradientTransform="translate(-320.71 -200.74)" gradientUnits="userSpaceOnUse"><stop offset="0" stop-color="#646368"/><stop offset="1" stop-color="#646368"/></linearGradient><linearGradient id="h" x1="378.63" y1="332.11" x2="378.63" y2="319.05" gradientTransform="translate(-303.86 -265.98)" gradientUnits="userSpaceOnUse"><stop offset="0" stop-color="#636267"/><stop offset="1" stop-color="#646368"/></linearGradient><linearGradient id="i" x1="407.82" y1="379.24" x2="407.82" y2="365.96" gradientTransform="translate(-328.95 -328.9)" gradientUnits="userSpaceOnUse"><stop offset="0" stop-color="#6b6a6f"/><stop offset="1" stop-color="#eaebed"/></linearGradient></defs><rect class="a" width="320" height="120"/><path class="b" d="M71.77,50.41,75.19,37H9.83l11.3,13.41Z"/><path class="c" d="M9.83,40.46l10.41,9.95h.89L9.83,37Z"/><path class="d" d="M37.38,66.12,26.3,53H71l-3.3,13.11Z"/><path class="e" d="M36.58,66.12,26.3,56.31V53L37.38,66.12Z"/><path class="f" d="M55.75,82.59,44.56,69.42H66.84L63.42,82.59Z"/><path class="g" d="M44.56,72.71,55.1,82.59h.65L44.56,69.42Z"/><path class="h" d="M65.66,82.59H72l3.36-13.14H69Z"/><path class="i" d="M70,66h6.24l3.4-12.93H73.2Z"/><path class="j" d="M74.05,50.31h6.38L83.69,37H77.31Z"/><path class="k" d="M134.05,82.64a7.51,7.51,0,0,1-5.88-4.59c-.67-1.44-.7-1.71-.68-5a27.74,27.74,0,0,1,.59-6.1c1.31-6.19,4.14-13,6.5-15.69,2.63-3,6.13-4.5,11.43-4.92,5.13-.42,9.42.24,11.52,1.76s2.91,3.37,2.91,7.21a28.49,28.49,0,0,1-1.57,8.87c-.88,2-.77,2-11.63,2h-9.43l-.25,1c-1.19,4.47-1,6.37.8,7.54,1.29.84,5.81,1.15,9.5.65a10.36,10.36,0,0,0,6-2.45c1.94-1.83,2.09-1.59,1.11,2.11-1.6,6-1.89,6.53-4.5,7.38C148.6,83,136.42,83.17,134.05,82.64Zm18.2-23.22c.72-2.86.54-4.32-.66-5.46-1.81-1.7-6.52-1.61-8.85.17a10.28,10.28,0,0,0-2.83,4.62l-.59,1.63H152ZM249.72,82.5a7,7,0,0,1-5.12-3.88l-.89-1.74V73a24.58,24.58,0,0,1,.6-6.51c1.51-6.78,4.07-12.59,6.78-15.5,3.15-3.34,6.91-4.61,13.7-4.64s9.78,1.28,11.27,4.93c.68,1.66.61,6.7-.14,9.69s-1.36,4.35-2.11,4.78c-.46.26-2.91.36-10.26.46l-9.69.14-.46,1.77c-.61,2.36-.65,4.37-.1,5.39a3.85,3.85,0,0,0,1.64,1.4c1.12.55,1.53.6,5.16.59,5.4,0,7.83-.65,10-2.65,1-1,1.69-1.28,1.69-.89s-2.1,7.89-2.41,8.49c-1,1.94-3.76,2.57-11.92,2.55C252.51,83,251.29,82.9,249.72,82.5Zm18.79-23.57c.91-4.56-.68-6.33-5.45-6.1-3.74.18-5.55,1.73-7,6-.26.77-.48,1.44-.48,1.49s2.84.09,6.32.09h6.33ZM84.15,82.45c-.48-.48-.37-1.81.44-4.85,3.79-14.38,9.53-36.86,9.53-37.55a1.46,1.46,0,0,0-.53-1.31,1.4,1.4,0,0,1-.56-.86c0-.35.63-.4,5.45-.4s5.5.05,5.87.43c.59.59.48,1.28-1.61,9.29-1,3.73-1.7,6.85-1.62,6.93s3.09.13,6.71.13h6.58l.24-.57c.32-.74,3.25-12.08,3.45-13.33a1.38,1.38,0,0,0-.51-1.59c-1.31-1.24-1.11-1.29,4.85-1.29s6.16,0,6.16,1.36c0,.61-3.14,13.18-6.23,25-3.62,13.79-4.23,16.47-3.94,17.17a1.7,1.7,0,0,0,.66.86.66.66,0,0,1,.36.53c0,.34-.74.39-5.56.39-6,0-6.15,0-6.15-1.35,0-.4,1.09-4.91,2.41-10s2.43-9.45,2.43-9.64-1.28-.33-6.79-.33H99L96.6,70.74c-1.3,5.14-2.35,9.55-2.35,9.8a2.1,2.1,0,0,0,.6,1c.32.32.54.71.48.88C95.21,82.88,84.57,82.87,84.15,82.45Zm77.42-.09a1.4,1.4,0,0,1-.41-.74c0-.18,1.94-7.69,4.2-16.69,3.87-15.23,4.16-16.4,3.81-16.94-.21-.32-.5-.58-.63-.58s-.26-.18-.26-.39.72-.38,4.93-.38c6.43,0,6.2-.19,5.08,4.32-.1.42.32,0,1.19-1.14.74-1,1.64-2.09,1.94-2.48l.65-.7h4.53a32.62,32.62,0,0,1,4.53.16,39.22,39.22,0,0,1-1.71,5.82c-.57.88-1.5,1.07-5.54,1.15-3.27.07-4,.16-4.84.61-1.82,1-2.14,1.78-5.3,14-1.6,6.15-3,11.49-3.06,11.87a1.51,1.51,0,0,0,.47,1.43,3.84,3.84,0,0,1,.64.91,38.78,38.78,0,0,1-4.94.16C162.75,82.76,161.94,82.69,161.57,82.36Zm25.93,0a1.46,1.46,0,0,1-.39-.71c0-.16,1.84-7.51,4.1-16.31s4.09-16.31,4.1-16.66a1.54,1.54,0,0,0-.54-1c-1.11-.9-.71-1,4.4-1,6.18,0,6.3.07,5.35,3.28a4.52,4.52,0,0,0-.3,1.45c.06.06.48-.44,1-1.1,2.65-3.69,3.07-3.87,8.78-3.87,4.24,0,4.37,0,5.73.69a5.22,5.22,0,0,1,2.69,3.82l.22.83,1.39-2.1c2.12-3.16,2.34-3.24,8.14-3.24,4.41,0,4.78,0,6,.6a6.72,6.72,0,0,1,1.7,1.08A5.8,5.8,0,0,1,241,51.75c0,.78-1.32,6.54-3.45,15.07-1.93,7.83-3.38,14.05-3.3,14.37a1.53,1.53,0,0,0,.65.83c1.17.63.38.77-4.53.77-5.35,0-5.64-.07-5.64-1.22,0-.34,1.37-6,3-12.6s3.05-12.4,3.05-12.88c0-1.85-1.6-2.72-4.44-2.4s-3.87,1.18-4.84,3.57c-.42,1.06-5.82,21.42-6.13,23.08a1.29,1.29,0,0,0,.48,1.55c.36.33.58.67.49.77a42.21,42.21,0,0,1-5,.17c-5.19,0-5.48-.07-5.48-1.25,0-.35,1.38-6,3.05-12.53S212,56.69,212,56.12c0-2-1.87-2.91-5-2.31-2,.37-2.9,1-3.73,2.44s-6.52,23.13-6.52,24.49a1.19,1.19,0,0,0,.5,1.06,1,1,0,0,1,.51.64c0,.24-1.14.32-4.94.32C188.7,82.76,187.84,82.69,187.5,82.36Zm90.54-.2c-.39-.59-.35-.87.69-4.91.85-3.31,1.2-4.3,1.54-4.36s.55.16.74.56c.45,1,1.29,1.41,3.57,1.71,2.91.39,10,.17,11.16-.35a4,4,0,0,0,2.24-3,2.26,2.26,0,0,0-.79-2.65,50.06,50.06,0,0,0-5.65-1.78c-5.59-1.55-7.05-2.25-8-3.87-.53-.92-.58-1.24-.47-3.56.23-5.37,2.8-10.56,6-12.2,2-1,3.4-1.15,12.45-1.15h8.62L309.53,49c-.76,2.79-1.16,3.62-1.94,4.05-.4.23-2.36.37-6.56.46-5.15.11-6.08.18-6.67.57a3.51,3.51,0,0,0-1.58,2.5c-.3,1.66.33,2.05,5.81,3.69,6.84,2,8.15,2.81,8.78,5.2s-.41,8.39-2,11.75a8.72,8.72,0,0,1-4.3,4.57l-1.7.84-10.49.07-10.48.08Z"/></svg>