<svg xmlns="http://www.w3.org/2000/svg" width="128" height="64" fill="none"><rect width="128" height="64" fill="#fff" rx="6"/><path fill="url(#a)" fill-rule="evenodd" d="m29.925 28.296 1.321-5.18H6l4.365 5.18h19.56Z" clip-rule="evenodd"/><path fill="url(#b)" fill-rule="evenodd" d="m6 24.452 4.021 3.844h.344L6 23.116v1.336Z" clip-rule="evenodd"/><path fill="url(#c)" fill-rule="evenodd" d="m16.642 34.364-4.28-5.068h17.266l-1.275 5.064-11.711.004Z" clip-rule="evenodd"/><path fill="url(#d)" fill-rule="evenodd" d="m16.333 34.364-3.971-3.79v-1.278l4.28 5.068h-.31Z" clip-rule="evenodd"/><path fill="url(#e)" fill-rule="evenodd" d="m23.737 40.726-4.322-5.087h8.606L26.7 40.725h-2.963Z" clip-rule="evenodd"/><path fill="url(#f)" fill-rule="evenodd" d="m19.415 36.91 4.071 3.816h.251l-4.322-5.087v1.27Z" clip-rule="evenodd"/><path fill="url(#g)" fill-rule="evenodd" d="M27.565 40.726h2.45l1.297-5.076h-2.456l-1.29 5.076Z" clip-rule="evenodd"/><path fill="url(#h)" fill-rule="evenodd" d="M29.242 34.318h2.41l1.313-4.995h-2.487l-1.236 4.995Z" clip-rule="evenodd"/><path fill="url(#i)" fill-rule="evenodd" d="M30.806 28.257h2.464l1.26-5.141h-2.465l-1.259 5.14Z" clip-rule="evenodd"/><path fill="#484649" d="M53.982 40.745a2.901 2.901 0 0 1-2.271-1.773c-.259-.556-.27-.66-.263-1.931-.011-.792.065-1.582.228-2.356.506-2.392 1.6-5.022 2.51-6.061 1.017-1.159 2.369-1.738 4.416-1.9 1.981-.163 3.639.092 4.45.68.81.586 1.124 1.301 1.124 2.784a11.007 11.007 0 0 1-.607 3.427c-.34.772-.297.772-4.492.772h-3.642l-.097.386c-.46 1.727-.386 2.46.309 2.913.498.324 2.244.444 3.67.25a4.002 4.002 0 0 0 2.317-.946c.75-.706.807-.614.429.816-.618 2.317-.73 2.522-1.738 2.85-.723.228-5.428.294-6.343.089Zm7.03-8.97c.278-1.104.209-1.668-.255-2.108-.699-.657-2.518-.622-3.418.066a3.971 3.971 0 0 0-1.093 1.784l-.228.63h4.898l.096-.371Zm37.65 8.916a2.704 2.704 0 0 1-1.978-1.499l-.344-.672v-1.499a9.496 9.496 0 0 1 .232-2.514c.583-2.62 1.572-4.863 2.619-5.987 1.217-1.29 2.669-1.781 5.292-1.793 2.622-.011 3.777.495 4.353 1.905.263.64.236 2.588-.054 3.743-.29 1.154-.525 1.68-.815 1.846-.178.1-1.124.139-3.963.178l-3.743.054-.178.683c-.236.912-.251 1.688-.039 2.082.156.237.376.425.634.541.433.213.591.232 1.993.228 2.086 0 3.025-.251 3.863-1.024.386-.386.653-.494.653-.343 0 .15-.812 3.047-.931 3.28-.387.748-1.453.992-4.605.984-1.912 0-2.383-.039-2.99-.193Zm7.258-9.104c.351-1.762-.263-2.445-2.106-2.357-1.444.07-2.143.669-2.703 2.318a9.978 9.978 0 0 0-.186.576c0 .019 1.097.034 2.441.034h2.445l.109-.571Zm-71.213 9.085c-.185-.186-.143-.7.17-1.874 1.464-5.554 3.681-14.238 3.681-14.504a.564.564 0 0 0-.204-.506.54.54 0 0 1-.217-.332c0-.136.244-.155 2.106-.155 1.861 0 2.124.02 2.267.166.228.228.185.495-.622 3.589-.386 1.44-.657 2.646-.626 2.677.031.03 1.194.05 2.592.05h2.542l.093-.22c.123-.286 1.255-4.667 1.332-5.15a.534.534 0 0 0-.197-.614c-.506-.479-.429-.498 1.873-.498 2.303 0 2.38 0 2.38.526 0 .235-1.213 5.09-2.407 9.656-1.398 5.327-1.633 6.362-1.521 6.632a.657.657 0 0 0 .255.333.255.255 0 0 1 .139.204c0 .132-.286.15-2.148.15-2.318 0-2.376 0-2.376-.52 0-.155.421-1.897.931-3.863s.939-3.65.939-3.724c0-.073-.495-.127-2.623-.127h-2.623l-.927 3.58c-.502 1.986-.907 3.69-.907 3.786.039.148.12.282.231.386.124.124.209.274.186.34-.047.178-4.156.174-4.319.012Zm29.905-.035a.54.54 0 0 1-.158-.286c0-.07.75-2.97 1.622-6.447 1.495-5.883 1.607-6.335 1.472-6.543-.081-.124-.193-.224-.243-.224-.05 0-.101-.07-.101-.15 0-.082.278-.148 1.904-.148 2.484 0 2.395-.073 1.963 1.669-.04.162.123 0 .46-.44.285-.387.633-.808.749-.958l.25-.27h1.75c.584-.02 1.17 0 1.75.061a15.145 15.145 0 0 1-.66 2.248c-.22.34-.58.413-2.14.444-1.263.027-1.545.062-1.87.236-.703.386-.826.688-2.047 5.408-.618 2.375-1.159 4.438-1.182 4.585a.584.584 0 0 0 .182.552c.099.105.182.223.247.352-.634.06-1.272.081-1.908.062-1.584.003-1.897-.024-2.04-.151Zm10.016 0a.563.563 0 0 1-.15-.274c0-.062.71-2.901 1.583-6.3.873-3.4 1.58-6.3 1.584-6.436a.595.595 0 0 0-.209-.386c-.429-.348-.274-.386 1.7-.386 2.387 0 2.433.027 2.066 1.267-.069.179-.108.368-.115.56.023.023.185-.17.386-.425 1.023-1.425 1.186-1.495 3.391-1.495 1.638 0 1.688 0 2.213.267a2.016 2.016 0 0 1 1.04 1.475l.084.32.537-.81c.82-1.221.904-1.252 3.145-1.252 1.703 0 1.846 0 2.317.232.239.105.46.246.657.417.299.405.453.899.436 1.402 0 .302-.51 2.526-1.332 5.821-.746 3.025-1.306 5.427-1.275 5.55a.59.59 0 0 0 .251.322c.452.243.147.297-1.75.297-2.066 0-2.178-.027-2.178-.471 0-.132.529-2.318 1.159-4.867.63-2.55 1.178-4.79 1.178-4.975 0-.715-.618-1.051-1.715-.927-1.097.123-1.495.455-1.87 1.379-.162.409-2.248 8.273-2.368 8.915a.498.498 0 0 0 .186.598c.139.128.224.26.189.298-.642.06-1.287.082-1.931.065-2.005 0-2.117-.027-2.117-.482 0-.136.533-2.318 1.178-4.84.645-2.523 1.194-4.775 1.194-4.995 0-.772-.723-1.124-1.932-.892-.772.143-1.12.386-1.44.942-.321.557-2.519 8.935-2.519 9.46a.46.46 0 0 0 .193.41.386.386 0 0 1 .197.247c0 .092-.44.123-1.908.123-1.591 0-1.924-.027-2.055-.154Zm34.973-.077c-.151-.228-.135-.337.266-1.897.329-1.278.464-1.66.595-1.684.131-.023.213.062.286.216.174.386.498.545 1.379.66 1.124.151 3.863.066 4.311-.134a1.55 1.55 0 0 0 .865-1.16.872.872 0 0 0-.305-1.023 19.303 19.303 0 0 0-2.183-.688c-2.159-.598-2.723-.869-3.09-1.494-.204-.356-.224-.48-.181-1.375.089-2.075 1.081-4.08 2.317-4.713.773-.386 1.314-.444 4.809-.444H122l-.236.927c-.293 1.078-.448 1.398-.749 1.564-.155.09-.912.143-2.534.178-1.989.043-2.348.07-2.576.22a1.35 1.35 0 0 0-.611.966c-.116.641.128.792 2.245 1.425 2.642.773 3.148 1.086 3.391 2.009.243.923-.158 3.24-.773 4.538a3.365 3.365 0 0 1-1.661 1.766l-.656.324-4.052.027-4.048.031-.139-.24Z"/><defs><linearGradient id="a" x1="8.766" x2="31.362" y1="26.743" y2="24.197" gradientUnits="userSpaceOnUse"><stop stop-color="#EEF7FE"/><stop offset="1" stop-color="#1E97D0"/></linearGradient><linearGradient id="b" x1="6.073" x2="10.535" y1="23.854" y2="28.222" gradientUnits="userSpaceOnUse"><stop stop-color="#D6E9F7"/><stop offset="1" stop-color="#48A2D7"/></linearGradient><linearGradient id="c" x1="15.216" x2="29.721" y1="32.935" y2="29.829" gradientUnits="userSpaceOnUse"><stop stop-color="#D4EAF7"/><stop offset="1" stop-color="#1493C5"/></linearGradient><linearGradient id="d" x1="12.026" x2="16.402" y1="29.543" y2="34.657" gradientUnits="userSpaceOnUse"><stop stop-color="#D9EBF7"/><stop offset="1" stop-color="#318ABB"/></linearGradient><linearGradient id="e" x1="21.988" x2="28.071" y1="38.698" y2="35.758" gradientUnits="userSpaceOnUse"><stop stop-color="#9DC4DF"/><stop offset="1" stop-color="#137EAB"/></linearGradient><linearGradient id="f" x1="19.056" x2="23.479" y1="35.855" y2="41.039" gradientUnits="userSpaceOnUse"><stop stop-color="#DEEEF8"/><stop offset="1" stop-color="#3586B3"/></linearGradient><linearGradient id="g" x1="29.439" x2="29.439" y1="40.78" y2="35.6" gradientUnits="userSpaceOnUse"><stop stop-color="#646368"/><stop offset="1" stop-color="#646368"/></linearGradient><linearGradient id="h" x1="31.084" x2="31.084" y1="34.368" y2="29.323" gradientUnits="userSpaceOnUse"><stop stop-color="#636267"/><stop offset="1" stop-color="#646368"/></linearGradient><linearGradient id="i" x1="32.668" x2="32.668" y1="28.268" y2="23.139" gradientUnits="userSpaceOnUse"><stop stop-color="#6B6A6F"/><stop offset="1" stop-color="#EAEBED"/></linearGradient></defs></svg>