<svg xmlns="http://www.w3.org/2000/svg" xmlns:xlink="http://www.w3.org/1999/xlink" viewBox="0 0 320 120"><defs><style>.a{fill:none;}.b,.c,.d,.e,.f,.g,.h,.i,.j{fill-rule:evenodd;}.b{fill:url(#a);}.c{fill:url(#b);}.d{fill:url(#c);}.e{fill:url(#d);}.f{fill:url(#e);}.g{fill:url(#f);}.h{fill:url(#g);}.i{fill:url(#h);}.j{fill:url(#i);}.k{fill:#484649;}</style><linearGradient id="a" x1="12.39" y1="75.64" x2="72.77" y2="82.44" gradientTransform="matrix(1, 0, 0, -1, 0, 121.59)" gradientUnits="userSpaceOnUse"><stop offset="0" stop-color="#eef7fe"/><stop offset="1" stop-color="#1e97d0"/></linearGradient><linearGradient id="b" x1="96.37" y1="148.63" x2="108.29" y2="136.96" gradientTransform="matrix(1, 0, 0, -1, -91.18, 186.87)" gradientUnits="userSpaceOnUse"><stop offset="0" stop-color="#d6e9f7"/><stop offset="1" stop-color="#48a2d7"/></linearGradient><linearGradient id="c" x1="-170.86" y1="33.19" x2="-132.11" y2="41.49" gradientTransform="matrix(1, 0, 0, -1, 200.49, 95.69)" gradientUnits="userSpaceOnUse"><stop offset="0" stop-color="#d4eaf7"/><stop offset="1" stop-color="#1493c5"/></linearGradient><linearGradient id="d" x1="-121.88" y1="16.6" x2="-110.19" y2="2.94" gradientTransform="matrix(1, 0, 0, -1, 142.98, 70.04)" gradientUnits="userSpaceOnUse"><stop offset="0" stop-color="#d9ebf7"/><stop offset="1" stop-color="#318abb"/></linearGradient><linearGradient id="e" x1="-20.78" y1="1.2" x2="-4.52" y2="9.06" gradientTransform="matrix(1, 0, 0, -1, 68.5, 79.1)" gradientUnits="userSpaceOnUse"><stop offset="0" stop-color="#9dc4df"/><stop offset="1" stop-color="#137eab"/></linearGradient><linearGradient id="f" x1="-9.94" y1="12.44" x2="1.88" y2="-1.42" gradientTransform="matrix(1, 0, 0, -1, 49.82, 82.74)" gradientUnits="userSpaceOnUse"><stop offset="0" stop-color="#deeef8"/><stop offset="1" stop-color="#3586b3"/></linearGradient><linearGradient id="g" x1="127.34" y1="73.3" x2="127.34" y2="87.14" gradientTransform="matrix(1, 0, 0, -1, -59.71, 156.76)" gradientUnits="userSpaceOnUse"><stop offset="0" stop-color="#646368"/><stop offset="1" stop-color="#646368"/></linearGradient><linearGradient id="h" x1="114.86" y1="25.19" x2="114.86" y2="38.67" gradientTransform="matrix(1, 0, 0, -1, -42.86, 91.52)" gradientUnits="userSpaceOnUse"><stop offset="0" stop-color="#636267"/><stop offset="1" stop-color="#646368"/></linearGradient><linearGradient id="i" x1="144.21" y1="-21.43" x2="144.21" y2="-7.73" gradientTransform="matrix(1, 0, 0, -1, -67.95, 28.6)" gradientUnits="userSpaceOnUse"><stop offset="0" stop-color="#6b6a6f"/><stop offset="1" stop-color="#eaebed"/></linearGradient></defs><rect class="a" width="320" height="120"/><path class="b" d="M68.93,50.1l3.53-13.84H5L16.66,50.1Z"/><path class="c" d="M5,39.83,15.74,50.1h.92L5,36.26Z"/><path class="d" d="M33.43,66.32,22,52.79H68.11l-3.4,13.53Z"/><path class="e" d="M32.61,66.32,22,56.19v-3.4L33.43,66.32Z"/><path class="f" d="M52.4,83.32,40.84,69.72h23l-3.53,13.6Z"/><path class="g" d="M40.84,73.12l10.88,10.2h.68L40.84,69.72Z"/><path class="h" d="M62.62,83.32h6.54l3.47-13.57H66.09Z"/><path class="i" d="M67.05,66.19h6.44L77,52.85H70.41Z"/><path class="j" d="M71.28,50h6.59l3.36-13.71H74.65Z"/><path class="k" d="M133.21,83.37a7.73,7.73,0,0,1-6.06-4.74c-.7-1.49-.73-1.76-.71-5.12a28.82,28.82,0,0,1,.61-6.3c1.35-6.38,4.28-13.44,6.71-16.19,2.72-3.08,6.33-4.64,11.8-5.08,5.29-.43,9.72.25,11.89,1.82s3,3.48,3,7.44a28.93,28.93,0,0,1-1.62,9.16c-.9,2.08-.79,2.06-12,2.06h-9.73l-.26,1c-1.23,4.62-1,6.58.82,7.78,1.34.87,6,1.19,9.81.67,2.83-.4,4.72-1.17,6.16-2.52,2-1.89,2.16-1.65,1.15,2.17-1.65,6.25-1.95,6.74-4.65,7.62C148.23,83.75,135.66,83.92,133.21,83.37ZM152,59.4c.74-2.95.56-4.46-.68-5.63-1.87-1.76-6.73-1.67-9.14.17a10.67,10.67,0,0,0-2.92,4.77l-.61,1.68h13.1ZM252.61,83.22a7.22,7.22,0,0,1-5.29-4l-.92-1.8v-4a25.66,25.66,0,0,1,.62-6.72c1.56-7,4.2-13,7-16,3.25-3.45,7.13-4.76,14.14-4.79S278.26,47.23,279.8,51c.7,1.71.62,6.92-.15,10s-1.4,4.49-2.18,4.93c-.47.27-3,.38-10.59.48l-10,.14-.47,1.83c-.63,2.44-.67,4.51-.11,5.56A3.93,3.93,0,0,0,258,75.39c1.15.57,1.57.62,5.32.61,5.58,0,8.08-.67,10.33-2.74,1-1,1.75-1.32,1.75-.91s-2.17,8.14-2.49,8.76c-1.05,2-3.88,2.65-12.3,2.63C255.49,83.73,254.23,83.64,252.61,83.22ZM272,58.9c.94-4.71-.7-6.54-5.62-6.3-3.86.19-5.73,1.79-7.24,6.16-.27.8-.49,1.49-.49,1.54s2.93.09,6.52.09h6.53ZM81.71,83.17c-.5-.49-.38-1.87.45-5C86.07,63.32,92,40.12,92,39.41a1.51,1.51,0,0,0-.55-1.35,1.51,1.51,0,0,1-.58-.89c0-.36.66-.41,5.63-.41s5.68.05,6.06.44c.61.61.49,1.32-1.66,9.59-1,3.85-1.76,7.07-1.68,7.15s3.19.14,6.93.14h6.79l.25-.59c.33-.77,3.35-12.47,3.56-13.76a1.42,1.42,0,0,0-.52-1.64c-1.36-1.28-1.15-1.33,5-1.33s6.36,0,6.36,1.4c0,.63-3.24,13.6-6.43,25.77-3.74,14.24-4.37,17-4.07,17.73a1.72,1.72,0,0,0,.68.88.65.65,0,0,1,.37.55c0,.35-.76.4-5.73.4-6.17,0-6.35,0-6.35-1.39,0-.41,1.12-5.07,2.49-10.36s2.5-9.76,2.5-9.95-1.32-.35-7-.35H97l-2.44,9.65c-1.34,5.3-2.43,9.85-2.43,10.11a2.14,2.14,0,0,0,.62,1.08c.33.33.56.74.5.91C93.12,83.62,82.14,83.61,81.71,83.17Zm79.91-.09a1.39,1.39,0,0,1-.42-.76c0-.19,2-7.94,4.33-17.23,4-15.72,4.3-16.93,3.93-17.49-.21-.33-.51-.6-.65-.6s-.26-.18-.26-.4.74-.39,5.08-.39c6.64,0,6.4-.2,5.25,4.46-.1.43.33,0,1.23-1.18.76-1,1.69-2.16,2-2.56l.67-.72h4.68a33,33,0,0,1,4.67.17,40.24,40.24,0,0,1-1.76,6c-.59.91-1.55,1.11-5.72,1.19-3.38.07-4.09.16-5,.63-1.88,1-2.21,1.84-5.47,14.42-1.65,6.35-3.07,11.86-3.16,12.25a1.56,1.56,0,0,0,.49,1.48,4,4,0,0,1,.66.94,40.62,40.62,0,0,1-5.1.16C162.84,83.49,162,83.42,161.62,83.08Zm26.77,0a1.44,1.44,0,0,1-.41-.73c0-.17,1.9-7.75,4.23-16.84s4.23-16.83,4.24-17.19a1.62,1.62,0,0,0-.56-1.09c-1.15-.93-.73-1,4.54-1,6.38,0,6.5.07,5.52,3.39a4.76,4.76,0,0,0-.31,1.49c.06.06.5-.45,1-1.13,2.74-3.81,3.17-4,9.07-4,4.37,0,4.51,0,5.91.72s2.27,1.87,2.78,3.94l.22.85,1.44-2.16c2.19-3.26,2.41-3.35,8.4-3.35,4.55,0,4.94,0,6.17.62a6.87,6.87,0,0,1,1.76,1.12,6,6,0,0,1,1.26,3.76c0,.81-1.36,6.75-3.56,15.56-2,8.08-3.49,14.5-3.41,14.83a1.6,1.6,0,0,0,.67.86c1.21.65.39.79-4.67.79-5.53,0-5.83-.07-5.83-1.26,0-.35,1.42-6.22,3.15-13s3.15-12.8,3.15-13.3c0-1.91-1.65-2.8-4.58-2.47s-4,1.21-5,3.68c-.43,1.1-6,22.11-6.33,23.82a1.34,1.34,0,0,0,.5,1.6c.37.34.6.7.51.8a43.45,43.45,0,0,1-5.2.17c-5.35,0-5.65-.07-5.65-1.29,0-.36,1.42-6.18,3.15-12.93s3.15-12.76,3.15-13.35c0-2.07-1.93-3-5.11-2.38-2.1.38-3,1-3.85,2.52S198,80,198,81.41a1.25,1.25,0,0,0,.52,1.09,1.07,1.07,0,0,1,.53.66c0,.25-1.18.33-5.1.33C189.62,83.49,188.74,83.42,188.39,83.08Zm93.45-.21c-.4-.61-.36-.89.71-5.07.88-3.41,1.24-4.43,1.59-4.5s.57.17.76.58c.47,1,1.34,1.46,3.69,1.77,3,.4,10.28.17,11.52-.36a4.16,4.16,0,0,0,2.31-3.09c.3-1.32,0-2.17-.81-2.73a50.48,50.48,0,0,0-5.84-1.84c-5.77-1.6-7.27-2.32-8.23-4-.55-.95-.6-1.28-.49-3.67.24-5.54,2.89-10.9,6.21-12.59,2.09-1.06,3.5-1.19,12.85-1.19H315l-.66,2.43c-.78,2.88-1.19,3.74-2,4.19-.41.23-2.44.38-6.77.47-5.32.11-6.28.19-6.89.59a3.61,3.61,0,0,0-1.63,2.58c-.31,1.71.34,2.12,6,3.81,7.06,2.1,8.41,2.9,9.06,5.36s-.42,8.67-2.07,12.13a9,9,0,0,1-4.44,4.72l-1.75.87-10.83.07-10.82.08Z"/></svg>