<svg xmlns="http://www.w3.org/2000/svg" width="128" height="64" fill="none"><rect width="128" height="64" fill="#fff" rx="6"/><path fill="#424143" fill-rule="evenodd" d="M67.293 40.294H64.52v-7.912c0-1.666-.74-2.563-2.083-2.666-.837-.065-2.164.131-3.127.346v10.232h-2.773V28.102s3.372-.746 6.418-.744c1.317.002 2.37.467 3.156 1.25.787.783 1.18 1.874 1.18 3.273v8.413ZM114.053 40.377a5.767 5.767 0 0 1-1.419.173c-1.562 0-2.594-.345-3.097-1.035-.401-.543-.601-1.572-.601-3.085V23.742h2.736v3.588h2.429v2.22h-2.429v6.707c0 .724.093 1.202.279 1.432.219.296.683.444 1.393.444.203 0 .439-.017.709-.05v2.294Z" clip-rule="evenodd"/><path fill="#FFCB04" fill-rule="evenodd" d="M28.389 32.035s-3.246 1.247-7.251 1.247c-4.005 0-7.251-1.247-7.251-1.247s3.246-1.246 7.25-1.246c4.006 0 7.252 1.246 7.252 1.246ZM38.415 13.706S35.54 11.782 33.3 8.55C31.06 5.317 30.306 2 30.306 2s2.876 1.924 5.116 5.156c2.239 3.233 2.993 6.55 2.993 6.55ZM31.072 21.615s-3.467-.383-7.003-2.214c-3.536-1.83-5.801-4.415-5.801-4.415s3.466.384 7.002 2.215c3.536 1.83 5.802 4.414 5.802 4.414ZM38.068 38.036c2.058-.02 4.54-1.629 4.54-1.629s-5.755-1.73-5.393-6.857c1.135-8.415 7.994-15.021 16.582-16.084-.911-.125-1.841-.19-2.788-.186-10.621.046-19.193 8.469-19.146 18.811.048 10.342 8.698 18.689 19.32 18.642a19.837 19.837 0 0 0 2.609-.188c-7.537-.935-13.671-6.11-15.872-12.948M38.415 50.293S35.54 52.217 33.3 55.45C31.06 58.682 30.306 62 30.306 62s2.876-1.924 5.116-5.156c2.239-3.233 2.993-6.55 2.993-6.55ZM31.072 42.385s-3.467.383-7.003 2.214c-3.536 1.83-5.801 4.415-5.801 4.415s3.466-.384 7.002-2.215c3.536-1.83 5.802-4.414 5.802-4.414Z" clip-rule="evenodd"/><path fill="#424143" fill-rule="evenodd" d="M50.97 40.28h2.827V23.728H50.97V40.28ZM79.312 29.385c0-2.007-.99-3.01-2.964-3.01h-3.486v5.97h3.434c.946 0 1.685-.258 2.217-.776s.799-1.246.799-2.184Zm2.856 0c0 1.694-.529 3.055-1.583 4.083-1.056 1.028-2.488 1.542-4.296 1.542h-3.427v5.23h-2.827V23.686h6.052c1.959 0 3.463.506 4.51 1.518 1.047 1.011 1.571 2.405 1.571 4.18ZM92.391 33.733c0-1.246-.292-2.234-.873-2.963-.585-.73-1.357-1.095-2.32-1.095-.962 0-1.736.37-2.319 1.107-.581.738-.872 1.721-.872 2.951 0 1.246.291 2.234.872 2.964.583.73 1.357 1.095 2.319 1.095.963 0 1.735-.365 2.32-1.095.581-.73.873-1.718.873-2.964Zm2.862-.012c0 1.99-.56 3.594-1.685 4.81-1.124 1.218-2.579 1.826-4.37 1.826-1.79 0-3.247-.608-4.37-1.825-1.124-1.217-1.685-2.821-1.685-4.811 0-1.99.56-3.59 1.685-4.799 1.123-1.208 2.58-1.813 4.37-1.813 1.807 0 3.269.605 4.384 1.813 1.114 1.21 1.671 2.81 1.671 4.799ZM107.295 36.015c0 1.25-.49 2.278-1.471 3.084-.978.807-2.271 1.208-3.874 1.208-2.502 0-4.435-.74-5.803-2.22l2.102-1.751c1.048 1.02 2.273 1.53 3.674 1.53.778 0 1.394-.153 1.851-.457.456-.304.684-.686.684-1.147 0-.526-.263-.888-.786-1.085-.304-.115-1.115-.271-2.432-.47-1.588-.229-2.72-.575-3.397-1.035-.793-.559-1.189-1.398-1.189-2.516 0-1.135.48-2.085 1.444-2.85.962-.765 2.246-1.148 3.852-1.148 1.94 0 3.596.634 4.965 1.9l-1.647 1.727c-.997-.87-2.129-1.307-3.396-1.307-1.621 0-2.431.453-2.431 1.357 0 .526.37.888 1.115 1.086 1.046.163 2.085.336 3.116.517 2.415.444 3.623 1.637 3.623 3.577Z" clip-rule="evenodd"/></svg>