<svg xmlns="http://www.w3.org/2000/svg" width="128" height="64" fill="none"><rect width="128" height="64" fill="#fff" rx="6"/><path fill="#000" fill-rule="evenodd" d="M14 45.4V23.917h3.704v21.481H14Zm22.223 0 .007-12.8c0-.623-.037-1.245-.11-1.863a5.203 5.203 0 0 0-.486-1.698 3.167 3.167 0 0 0-1.07-1.234 3.26 3.26 0 0 0-1.863-.474 5.79 5.79 0 0 0-1.732.264 9.719 9.719 0 0 0-1.643.684c-.529.28-1.038.596-1.521.948-.428.43-.833.884-1.212 1.357V45.4h-3.704V23.917h3.704v2.963c.618-.455.954-1.1 1.542-1.468.57-.358 1.168-.671 1.787-.937.608-.258 1.24-.456 1.886-.593a10.114 10.114 0 0 1 2.106-.209 6.627 6.627 0 0 1 2.305.419c.766.285 1.46.736 2.029 1.323a6.677 6.677 0 0 1 1.444 2.348c.37.963.234 2.198.234 3.565v14.074h-3.703V45.4Zm17.037 0V23.917h3.704v21.481H53.26Zm35.556 0 .091-13.573a11.976 11.976 0 0 0-.132-1.84 4.218 4.218 0 0 0-.498-1.477 2.578 2.578 0 0 0-1.005-.981 3.478 3.478 0 0 0-1.68-.354 6.342 6.342 0 0 0-1.846.265 8.646 8.646 0 0 0-1.659.695c-.512.28-1 .602-1.46.963a40.35 40.35 0 0 0-1.27 1.037c-.049.152-.106.302-.17.45v14.814h-3.704V32.066a13.849 13.849 0 0 0-.228-1.99 4.491 4.491 0 0 0-.496-1.522 2.602 2.602 0 0 0-1.015-1.014 3.448 3.448 0 0 0-1.687-.364 5.974 5.974 0 0 0-1.83.276 9.02 9.02 0 0 0-1.63.705c-.509.284-.996.606-1.456.963-.456.352-.882.705-1.28 1.058L65.854 45.4h-3.704V23.917h3.704v2.963a15.883 15.883 0 0 1 3.717-2.482 10.096 10.096 0 0 1 3.645-.728 5.832 5.832 0 0 1 3.37.947c.91.613 1.61 1.49 2.005 2.514a14.262 14.262 0 0 1 3.842-2.535 11.86 11.86 0 0 1 1.977-.684 7.957 7.957 0 0 1 1.91-.242 8.946 8.946 0 0 1 2.473.34c.78.22 1.5.613 2.11 1.148a5.702 5.702 0 0 1 1.468 2.127 8.558 8.558 0 0 1 .551 3.285l.34 14.83h-4.445Zm11.489-9.67a7.92 7.92 0 0 0 .452 2.698 6.579 6.579 0 0 0 1.313 2.212 6.183 6.183 0 0 0 2.106 1.504 6.973 6.973 0 0 0 2.856.552 8.265 8.265 0 0 0 2.746-.474 14.295 14.295 0 0 0 2.459-1.11l1.125 2.747a10.811 10.811 0 0 1-3.341 1.599 13.381 13.381 0 0 1-3.739.547 10.08 10.08 0 0 1-4.532-.948 9.234 9.234 0 0 1-3.165-2.524 10.512 10.512 0 0 1-1.864-3.637 15.168 15.168 0 0 1-.606-4.31 13.96 13.96 0 0 1 .639-4.288 10.627 10.627 0 0 1 1.82-3.462 8.654 8.654 0 0 1 2.845-2.315 8.072 8.072 0 0 1 3.717-.848 8.669 8.669 0 0 1 3.749.782 7.703 7.703 0 0 1 2.79 2.227 10.189 10.189 0 0 1 1.731 3.473c.412 1.47.612 2.992.593 4.518v1.059h-13.694v-.002Zm9.154-5.181a5.897 5.897 0 0 0-.871-1.83 4.557 4.557 0 0 0-1.457-1.312 4.053 4.053 0 0 0-2.04-.496 4.321 4.321 0 0 0-2.018.463 4.787 4.787 0 0 0-1.522 1.235 5.485 5.485 0 0 0-.963 1.808 7.116 7.116 0 0 0-.331 2.182h9.482a7.564 7.564 0 0 0-.28-2.051Z" clip-rule="evenodd"/><path fill="#D10074" fill-rule="evenodd" d="M57.705 21.695h-8.89V45.4h-3.703V21.695h-9.63v-3.704h23.67l-1.447 3.704Z" clip-rule="evenodd"/></svg>