<svg xmlns="http://www.w3.org/2000/svg" viewBox="0 0 323.13 120.41"><defs><style>.a{fill:none;}.b{fill:#fc0;}.c{fill:#fefefe;}.c,.d,.e{fill-rule:evenodd;}.e{fill:red;}</style></defs><rect class="a" width="323.13" height="120.41"/><rect class="b" x="11.56" y="20.21" width="300" height="80" rx="9"/><path class="c" d="M222.06,87.7,225,74H54.51L51.6,87.71Z"/><path class="d" d="M160.53,58.4c0,3.39,2.07,5,4,6.54l3.27,2.42a11.17,11.17,0,0,1,1.73,1.46,2.32,2.32,0,0,1,.76,1.65,2.44,2.44,0,0,1-1.19,2.16c-1.3.84-3.34.84-4.57.84a22,22,0,0,1-6.15-1l-1.85,5.23A28.65,28.65,0,0,0,165,78.81a17.77,17.77,0,0,0,7.22-1.23,7.59,7.59,0,0,0,5.08-7.18,6.44,6.44,0,0,0-1.47-4.19,16.92,16.92,0,0,0-3.07-2.81l-3-2.23c-1.5-1.11-2.61-2-2.61-3.27a2.5,2.5,0,0,1,2.42-2.49,26,26,0,0,1,3.3-.12h4.69l1.16-5.3h-5.23a48.41,48.41,0,0,0-5.15.19c-4,.46-7.8,3.34-7.8,8.22"/><path class="d" d="M203,50H181.28l-1.15,5.3h7.76l-5,23.29h6.19l5-23.29h7.72Z"/><path class="d" d="M150.76,64.29c-1,4.61-2.88,9.41-8.11,9.41-5,0-5.73-4.73-4.69-9.41s2.89-9.42,8.11-9.42c5,0,5.73,4.73,4.69,9.42m-4.15-14.61c-9.91,0-13.68,6.73-15.26,14.61s1.73,14.6,10.76,14.6c9.92,0,13.69-6.73,15.26-14.6s-1.73-14.61-10.76-14.61"/><path class="d" d="M123.78,60.06a5.15,5.15,0,0,1-4.07,4.34,10.59,10.59,0,0,1-2,.19h-2.5l2-9.34h2.69a5.79,5.79,0,0,1,1.8.23c1.54.5,2.46,2,2,4.58m-.92-9.88a18.71,18.71,0,0,0-2.81-.19h-7.8L106.1,78.58h6.15l1.88-8.72h3.58a14.69,14.69,0,0,0,4.3-.54,11.35,11.35,0,0,0,7.92-9c1-5.34-1.73-9.3-7.07-10.18"/><path class="d" d="M83,67.4,89.27,56,90.88,67.4ZM93.88,50H86.5L73,73.39h-8.3l5-23.4H63.55L57.4,78.58H76.85l3.27-6H91.65l.84,6h6.19Z"/><path class="d" d="M206.46,67.4,212.76,56l1.62,11.42ZM217.37,50H210L193.54,78.58h6.8l3.27-6h11.53l.85,6h6.18Z"/><path class="e" d="M254.17,50l3.67-17.27H234.62c0,.06-4.82,22.52-4.84,22.62h5.74c0-.06,3.71-17.28,3.71-17.28H251s-3.68,17.18-3.71,17.28h17.42l-2.31,10.8H245c0,.06-3.46,16.15-3.46,16.15H228.44c0,.06-1.12,5.33-1.14,5.42h18.88l3.47-16.19h17.26c0-.06,4.6-21.44,4.62-21.53Z"/></svg>