<svg xmlns="http://www.w3.org/2000/svg" viewBox="0 0 323.13 120.41"><defs><style>.a{fill:none;}.b{fill:#fc0;}.c{fill:#fff;}.c,.d,.e{fill-rule:evenodd;}.e{fill:red;}</style></defs><rect class="a" width="323.13" height="120.41"/><rect class="b" x="11.56" y="20.21" width="300" height="80" rx="9"/><path class="c" d="M220.72,87.7,223.63,74H55.5L52.6,87.7Z"/><path class="d" d="M152.22,64.27c-1,4.62-2.88,9.42-8.1,9.42-5,0-5.73-4.73-4.69-9.42s2.88-9.41,8.11-9.41c5,0,5.72,4.73,4.68,9.41m-4.15-14.59c-9.91,0-13.67,6.72-15.25,14.59s1.73,14.6,10.76,14.6c9.91,0,13.67-6.72,15.25-14.6s-1.73-14.59-10.76-14.59"/><path class="d" d="M125.25,60.05a5.14,5.14,0,0,1-4.07,4.34,10.51,10.51,0,0,1-2,.19h-2.49l2-9.33h2.69a5.86,5.86,0,0,1,1.81.23c1.54.5,2.46,2,2,4.57m-.92-9.87a18.43,18.43,0,0,0-2.8-.2h-7.8l-6.15,28.59h6.15l1.88-8.73h3.57a14.76,14.76,0,0,0,4.31-.53,11.36,11.36,0,0,0,7.91-9c1-5.34-1.73-9.3-7.07-10.18"/><path class="d" d="M84.46,67.39,90.76,56l1.61,11.41ZM95.37,50H88L74.51,73.38h-8.3l5-23.39H65.06L58.91,78.56H78.35l3.26-6H93.14l.84,6h6.19Z"/><path class="d" d="M171,55.42a26.19,26.19,0,0,1,3.31-.12H179L180.15,50h-5.21a48.41,48.41,0,0,0-5.15.19c-4,.46-7.83,3.35-7.83,8.4,0,3.46,2,5.08,4,6.5l3.31,2.32a8.14,8.14,0,0,1,2,1.77,2.14,2.14,0,0,1,.46,1.35,2.34,2.34,0,0,1-.51,1.53c-.89,1-2.47,1.24-3.88,1.37a20.27,20.27,0,0,1-7.51-1.07l0,.13L158,77.71a26.66,26.66,0,0,0,8.4,1.16c7.74,0,12.24-3.43,12.24-8.93,0-2.78-1.92-4.62-3.89-6.09l-3.62-2.69c-1.5-1.12-2.5-1.89-2.5-3.16A2.51,2.51,0,0,1,171,55.42"/><path class="d" d="M224.18,50H206.89l-6.1,28.59h17.47l1.12-5.19h-11.3l1.54-7.11h9.79l1.12-5.14h-9.79l1.26-6h11.06Z"/><path class="d" d="M204.4,50H182.73l-1.15,5.31h7.76l-5,23.28h6.17l5-23.28h7.72Z"/><path class="e" d="M253.17,50l3.66-17.27H233.62l-4.84,22.61h5.74c0-.06,3.7-17.27,3.7-17.27H250l-3.7,17.27h17.41l-2.31,10.81H244c0,.06-3.46,16.15-3.46,16.15H227.44c0,.06-1.12,5.33-1.14,5.43h18.87c0-.06,3.48-16.2,3.48-16.2h17.26c0-.06,4.6-21.44,4.62-21.53Z"/></svg>