<svg xmlns="http://www.w3.org/2000/svg" viewBox="0 0 320 120"><defs><style>.a{fill:none;}.b{fill:#ef352f;}.c{fill:#3ba445;}.d{fill:#005d26;}</style></defs><rect class="a" width="320" height="120"/><path class="b" d="M182.07,5a.93.93,0,0,1,.59.21c.1.09.77.71.94.83a1.12,1.12,0,0,0,.69.31c.36,0,1.44-.09,1.74-.09a1.23,1.23,0,0,1,.72.2,7.27,7.27,0,0,1,1,1c.12.2.29.41-.1.48s-1.07.16-1.31.23-.3.22-.15.4.83,1,1,1.27.26.48-.12.6l-1.68.5c-.34.1-.62.13-.85-.14s-1-1.22-1.15-1.41a.81.81,0,0,0-.82-.24c-.34.08-1.38.42-1.66.52a.76.76,0,0,1-.74-.1,6.4,6.4,0,0,1-1.06-1.47c-.18-.43,0-.61.23-.71A13.46,13.46,0,0,1,180.88,7c.21,0,.19-.22,0-.37s-.55-.59-.76-.77a.34.34,0,0,1,.22-.57A10.18,10.18,0,0,1,182.07,5"/><path class="b" d="M188.91,18.45a5.86,5.86,0,0,1,1.77-.24,1,1,0,0,1,1,.59,23.1,23.1,0,0,1,2,6.38,39.74,39.74,0,0,1,.62,8,1,1,0,0,1-1,.94,8.77,8.77,0,0,1-2.11-.11,1,1,0,0,1-.76-1,51.12,51.12,0,0,0-.21-7,31.5,31.5,0,0,0-1.59-6.76.67.67,0,0,1,.23-.89"/><path class="b" d="M173.73,30.48a1.28,1.28,0,0,1-.39-1.11,20.09,20.09,0,0,1,5.64-12,18.78,18.78,0,0,1,13.07-5.64A18.37,18.37,0,0,1,205,17.15c3.3,3.3,5.71,8.47,5.71,12.46a3.15,3.15,0,0,1-1.78,3.23,23.74,23.74,0,0,1-10.73,3.35,19.09,19.09,0,0,0,6.7-4.47,3,3,0,0,0,.76-3,16.07,16.07,0,0,0-4.6-9.09,13.27,13.27,0,0,0-9.64-3.89A14.18,14.18,0,0,0,181.22,20a19.08,19.08,0,0,0-5.54,10.88c-.1.68-.39.63-.73.49a8.37,8.37,0,0,1-1.22-.93"/><path class="c" d="M189.65,105.26a39.7,39.7,0,0,1,19.94-5.64c3.73,0,9,.73,16.38,3.72a19.53,19.53,0,0,0,6.7,1.53c-4.66.75-11-.58-17.49-.58a78.61,78.61,0,0,0-17.42,2.11c-6.52,1.57-14,4.77-18.66,8.6a34.57,34.57,0,0,1,10.55-9.74"/><path class="c" d="M249.36,36.29a58,58,0,0,1-6.69-6.52C234.34,21,230,11.61,232.79,8.91s11.91,2.23,20.24,11,13.36,17.64,10.52,20.34a5.37,5.37,0,0,1-2.86,1.17C251,43,240.32,47.82,232.16,53.34c7.89-3.62,19.12-7.54,31.37-7.43a8,8,0,0,0,5.41-1.76c4.22-4.22-1.49-15.65-12.08-26.25s-22.7-15.68-27-11.35a5.51,5.51,0,0,0-1.53,4c0,.74-.08,1.74-.08,2.34,0,12.92-12,33.45-35.64,33.45a32,32,0,0,1-23.35-9.42A29,29,0,0,1,162,25a27.32,27.32,0,0,0-1.14-3.74,2.1,2.1,0,0,0-2.06-1.13c-1.61,0-3.4.83-5.37,2.21s-3.33,3.32-3.33,4.45a.84.84,0,0,0,.57.86c.15,0,.29,0,.21-.13s-.25-.62.36-1.46a6.89,6.89,0,0,1,4.85-2.36c1.27-.14,2,0,2.78,2.06a45,45,0,0,0,7.31,14.14,33.41,33.41,0,0,0,26.28,13.23c20.45,0,31.56-14.47,36.49-29.27a26.77,26.77,0,0,0,1.21-5.15c0-.16,0-.14.1,0a5.09,5.09,0,0,1,.31.55c3.22,6.74,11.43,14.81,18.79,17"/><path class="d" d="M83.16,69.52c3.5,0,5.9,1.72,5.9,5.09V88.8c0,.75.17,1.43.9,1.43s1-1.36,1-2.78h1.27a10.8,10.8,0,0,1-.31,2.77,3.94,3.94,0,0,1-3.51,2.92,3.69,3.69,0,0,1-3.27-2.91c0-.11-.08-.09-.12,0A5.11,5.11,0,0,1,80.31,93c-2.26,0-4.39-1.69-4.39-5.17,0-3.76,2.48-6.87,7.43-8.9a1.82,1.82,0,0,0,1.23-1.67V74.19c0-1.46-.7-3.1-2.55-3.1a4,4,0,0,0-2.85,1.13c-.21.22-.12.31.18.13a1.33,1.33,0,0,1,.62-.13,2,2,0,0,1,1.87,2.12s0,.08,0,.12a2.61,2.61,0,0,1-5.22,0c0-.11,0-.23,0-.34C76.64,71.92,78.76,69.52,83.16,69.52ZM81.61,82.18a8.12,8.12,0,0,0-1.21,4.37c0,1.17.17,3.84,1.94,3.84s2.24-2.55,2.24-3.14V80.83c0-.54.3-.85.24-.93s-.27,0-.41.12a8.56,8.56,0,0,0-2.8,2.16"/><path class="d" d="M101,69.67a4.47,4.47,0,0,1,1.84.35c.09.1.12.15.17-.07s1.4-2.69,3.68-2.69a1.88,1.88,0,0,1,2,1.73v.19a2,2,0,0,1-1.76,2.13,1.52,1.52,0,0,1-1.52-1.42,1.94,1.94,0,0,1,.12-.58c0-.14,0-.17-.14-.1a6.51,6.51,0,0,0-1.17,1.29c-.1.16-.06.24.13.25a.78.78,0,0,1,.38.2,8.22,8.22,0,0,1,2.84,6.64c0,3.84-2.18,6.51-4.61,7.34-1.22.41-2.36.21-3.58.67s-1.65.9-1.65,1.58.46,1.13,2.27,1.24c0,0,3.36.14,4,.2,3.46.36,5.25,2.53,5.25,5.2,0,3.69-2.62,6.72-8.74,6.72-4.89,0-7-2.16-7-4.14,0-1.73,1.16-3.17,3.3-4,.17-.07.17-.14,0-.19A3.47,3.47,0,0,1,94.27,89c0-1.66,1.26-3.32,3.78-4.41.1,0,.07-.08,0-.14-2.48-1.27-3.65-3.87-3.65-7.24,0-4.49,3-7.53,6.61-7.53Zm-2.06,7.24c0,5.73.74,7,2,7,1.42,0,2-1.09,2-6.15,0-6-.86-6.75-2-6.75s-2,1-2,5.93ZM96.46,95.8c0,1.51,1.4,3.42,4.68,3.42s5.45-1.66,5.45-3.84-2.46-2.39-3.23-2.46L99,92.61c-.77.38-2.51,1.44-2.51,3.19"/><path class="d" d="M110.33,69.89h7.75v1.36c-.57,0-1.55.23-1.21,1.59l2.44,9.54c.19.71.06,1.41.23,1.41s.14-.71.33-1.39l2.5-9.19a1.47,1.47,0,0,0-.69-1.63,2.82,2.82,0,0,0-1.27-.33V69.89h6v1.36a2.31,2.31,0,0,0-2.33,2.06l-5.39,19.58A27.82,27.82,0,0,1,117,98a4.69,4.69,0,0,1-3.75,2.51,2.78,2.78,0,0,1-2.94-2.62v-.18a2.5,2.5,0,0,1,2.42-2.55,2.13,2.13,0,0,1,2.15,2.09,1.91,1.91,0,0,1-.23,1.07c-.19.28-.38.43-.35.47s.27-.12.55-.43a5.84,5.84,0,0,0,1.2-2,37.87,37.87,0,0,0,1-3.76,3.27,3.27,0,0,0,0-1.7l-4.89-18.24c-.21-.73-.47-1.25-1.81-1.47v-1.3"/><path class="d" d="M215.91,70.4v1.29h2c.53,0,.85-.18.93-.1s-.14.26-.16,1v16.1a4.12,4.12,0,0,0,3.83,4.38,4.42,4.42,0,0,0,.63,0c4,0,5.22-3.49,5.22-6.56v-.8H227c0,3.68-.95,5-2,5a1.85,1.85,0,0,1-1.66-2.07V72.49c0-.53-.16-.82-.11-.87s.3.06.7.07h3.8v-1.8h-3.82c-.33,0-.54.17-.61.11s.11-.34.1-.59l-.09-8.92h-1.67c0,2.55-1.19,7.82-5.73,9.91"/><path class="d" d="M143.9,69.8l6.55-.19.06,3.43s-.15,1,0,1,.26-.57.46-1c.62-1.49,2.08-3.58,4.31-3.58a2.73,2.73,0,0,1,2.83,2.63v.15a2.64,2.64,0,0,1-2.43,2.83h-.17a2.2,2.2,0,0,1-2.3-2.11,2,2,0,0,1,0-.35c0-.26,0-.34-.15-.12-1.61,2.66-2.37,6.75-2.37,10.46v6.79c0,1.4.76,1.4,2.5,1.4V92.6h-9.11V91.11c1.47,0,2.09-.26,2.09-1.39v-17c0-1-.65-1.39-1.56-1.39h-.69V69.8"/><path class="d" d="M174.7,78V89.64c-.11,1.26,1.55,1.6,2.39,1.6v1.31h-9.78V91.24a1.82,1.82,0,0,0,2-1.6h0V60.84c-.06-.71-.79-1.29-2-1.3V58.15H177c8.24,0,9.51,6.32,9.51,9.27,0,2.35-1.2,10.13-10.33,10.13a5.61,5.61,0,0,1-.82,0c-.24,0-.58-.2-.67-.09s.06.28.06.58Zm0-16.8v14c0,.38-.16.55-.07.62s.24-.06.63,0c3.05,0,5.3-1.25,5.3-8.45,0-5.2-1.24-7.73-4-7.73-1,0-1.86.33-1.86,1.57"/><path class="d" d="M192.51,69.38c2.41,0,7.58,2.51,7.58,11.88,0,5.83-2.84,11.88-7.51,11.88-5.05,0-7.79-6-7.79-11.79,0-9.45,5.12-12,7.72-12Zm-2.65,12.19c0,6.17.48,10.16,2.63,10.16s2.5-4.5,2.5-10.11c0-6.79-.44-10.93-2.55-10.93-1.78,0-2.58,2.77-2.58,10.88"/><path class="d" d="M209.8,84.63c-.26-.18-2.94-2-3.64-2.43a7.38,7.38,0,0,1-3.59-6.63c0-3.13,2-6,5.06-6,2.36,0,3,1.37,3.69,1.37s1.27-1,1.45-1.37H214v8.11h-1.42c-1.42-4.88-3-6.67-4.84-6.65a2.31,2.31,0,0,0-2.42,2.19,2.41,2.41,0,0,0,0,.38c0,1.42.82,2.46,2.44,3.59L212,80a7.73,7.73,0,0,1,3.23,6.29c0,3.37-2.32,6.69-5.81,6.69-2.23,0-3-1.32-3.85-1.32s-1.22.75-1.58,1.3h-1.3V83.75H204c.8,2.9,2.11,7.66,5.35,7.66a2.72,2.72,0,0,0,2.88-2.55,2.29,2.29,0,0,0,0-.37,4.73,4.73,0,0,0-2.46-3.86"/><path class="d" d="M62,75l2.89-16.82h8.63v1.39c-1.23,0-2,.59-2,1.3V89.63c0,1.28,1.19,1.61,2,1.61v1.31H64.17V91.24c.72,0,2-.29,2-1.55V63.43a13.29,13.29,0,0,0,0-2.82,22.3,22.3,0,0,0-.42,2.82L60.57,92.55H59.14l-5-29.1a19.05,19.05,0,0,0-.42-2.81,14.76,14.76,0,0,0,0,2.82V86.83a21.55,21.55,0,0,0,.07,2.33,2.27,2.27,0,0,0,2.32,2.08v1.32H49.67V91.24a2.11,2.11,0,0,0,2.17-1.81c.07-.69.08-2.6.08-2.6V61.25c0-1.35-.94-1.72-2-1.72h-.25V58.15h9L61.56,75c.16.93,0,1.68.18,1.68A13.35,13.35,0,0,0,62,75"/><path class="d" d="M133.46,69.5c3.51,0,5.91,1.71,5.91,5.09V88.78c0,.75.17,1.43.9,1.43s1-1.36,1-2.78h1.27a11.26,11.26,0,0,1-.31,2.77,3.94,3.94,0,0,1-3.51,2.91,3.66,3.66,0,0,1-3.27-2.91c0-.1-.08-.09-.12,0a5.1,5.1,0,0,1-4.71,2.8c-2.26,0-4.39-1.7-4.39-5.18,0-3.75,2.48-6.87,7.44-8.89a1.85,1.85,0,0,0,1.22-1.67v-3.1c0-1.45-.7-3.09-2.56-3.09a4,4,0,0,0-2.84,1.12c-.21.23-.12.32.18.14a1.48,1.48,0,0,1,.62-.14,2,2,0,0,1,1.87,2.12.57.57,0,0,1,0,.13,2.61,2.61,0,1,1-5.22,0c0-.11,0-.23,0-.34C127,71.89,129.07,69.5,133.46,69.5Zm-1.54,12.65a8.15,8.15,0,0,0-1.21,4.38c0,1.16.17,3.84,1.94,3.84s2.24-2.56,2.24-3.14V80.81c0-.55.3-.85.24-.93s-.27,0-.41.11a8.81,8.81,0,0,0-2.8,2.16"/><path class="d" d="M237,69.5c3.51,0,5.9,1.71,5.9,5.09V88.78c0,.75.17,1.43.9,1.43s1-1.36,1-2.78h1.28a10.39,10.39,0,0,1-.32,2.77,3.94,3.94,0,0,1-3.51,2.91A3.65,3.65,0,0,1,239,90.2c0-.1-.09-.09-.13,0a5.08,5.08,0,0,1-4.7,2.8c-2.26,0-4.39-1.7-4.39-5.18,0-3.75,2.48-6.87,7.44-8.89a1.85,1.85,0,0,0,1.22-1.67v-3.1c0-1.45-.69-3.09-2.55-3.09A4,4,0,0,0,233,72.19c-.2.23-.11.32.18.14a1.48,1.48,0,0,1,.62-.14,2,2,0,0,1,1.87,2.21v0a2.61,2.61,0,1,1-5.22,0c0-.11,0-.23,0-.34,0-2.25,2.11-4.64,6.51-4.64Zm-1.55,12.65a8.36,8.36,0,0,0-1.21,4.38c0,1.16.17,3.84,1.94,3.84s2.24-2.56,2.24-3.14V80.81c0-.55.3-.85.24-.93s-.27,0-.41.11a8.81,8.81,0,0,0-2.8,2.16"/></svg>