<svg xmlns="http://www.w3.org/2000/svg" viewBox="0 0 323.13 120.41"><defs><style>.a{fill:none;}.b{fill:#ef352f;}.c{fill:#3ba445;}.d{fill:#005d26;}</style></defs><rect class="a" width="323.13" height="120.41"/><path class="b" d="M183.63,5.21a.92.92,0,0,1,.59.2c.1.1.77.72.94.84a1.14,1.14,0,0,0,.69.3c.37,0,1.45-.08,1.74-.08a1.29,1.29,0,0,1,.73.19c.16.13.87.8,1,1s.29.41-.1.48-1.07.16-1.31.24-.29.22-.15.4.83,1,1,1.26.26.49-.12.61l-1.67.5c-.34.09-.62.13-.85-.15s-1-1.21-1.16-1.41a.82.82,0,0,0-.81-.23c-.34.07-1.38.42-1.66.51a.76.76,0,0,1-.75-.1,6.49,6.49,0,0,1-1.05-1.47c-.19-.42,0-.6.23-.7a13.12,13.12,0,0,1,1.53-.43c.22,0,.19-.22,0-.36s-.55-.59-.75-.78-.17-.47.22-.57a9.88,9.88,0,0,1,1.65-.2"/><path class="b" d="M190.48,18.66a5.93,5.93,0,0,1,1.76-.24,1,1,0,0,1,1,.58,23.44,23.44,0,0,1,2,6.38,39.69,39.69,0,0,1,.62,8,1,1,0,0,1-.94.93,9.8,9.8,0,0,1-2.12-.1,1,1,0,0,1-.75-1,52.82,52.82,0,0,0-.21-6.95,32.21,32.21,0,0,0-1.6-6.76.68.68,0,0,1,.24-.89"/><path class="b" d="M175.3,30.69a1.28,1.28,0,0,1-.39-1.12,20.09,20.09,0,0,1,5.63-12,18.85,18.85,0,0,1,13.08-5.63,18.36,18.36,0,0,1,12.94,5.46c3.31,3.3,5.71,8.48,5.71,12.46A3.15,3.15,0,0,1,210.5,33a23.85,23.85,0,0,1-10.74,3.36,19.26,19.26,0,0,0,6.71-4.47,3,3,0,0,0,.75-3,16,16,0,0,0-4.59-9.08A13.26,13.26,0,0,0,193,15.92a14.25,14.25,0,0,0-10.2,4.32,19.15,19.15,0,0,0-5.54,10.89c-.1.68-.39.63-.73.48a7.93,7.93,0,0,1-1.21-.92"/><path class="c" d="M191.21,105.46a39.8,39.8,0,0,1,19.94-5.63c3.73,0,9,.73,16.38,3.71a19.27,19.27,0,0,0,6.7,1.53c-4.66.76-10.95-.58-17.49-.58a78.51,78.51,0,0,0-17.42,2.12c-6.52,1.56-14,4.77-18.65,8.6a34.61,34.61,0,0,1,10.54-9.75"/><path class="c" d="M250.92,36.49A55.67,55.67,0,0,1,244.24,30c-8.34-8.78-12.73-18.16-9.88-20.86s11.9,2.23,20.24,11S268,37.76,265.11,40.46a5.26,5.26,0,0,1-2.85,1.17c-9.7,1.62-20.38,6.4-28.54,11.92,7.9-3.62,19.12-7.55,31.38-7.44a7.93,7.93,0,0,0,5.4-1.75c4.22-4.22-1.48-15.66-12.08-26.25s-22.7-15.68-27-11.35a5.55,5.55,0,0,0-1.53,4c0,.74-.07,1.73-.07,2.33,0,12.92-12,33.45-35.64,33.45a32,32,0,0,1-23.36-9.41,28.88,28.88,0,0,1-7.2-11.94,29.68,29.68,0,0,0-1.14-3.74,2.1,2.1,0,0,0-2.07-1.13A9.92,9.92,0,0,0,155,22.54c-2,1.38-3.33,3.31-3.33,4.44a.86.86,0,0,0,.58.87c.14,0,.29,0,.2-.14s-.24-.61.37-1.46a6.84,6.84,0,0,1,4.84-2.35c1.28-.15,2,0,2.78,2.05a45.09,45.09,0,0,0,7.32,14.14A33.36,33.36,0,0,0,194,53.33c20.46,0,31.56-14.48,36.49-29.28a25.45,25.45,0,0,0,1.21-5.15c0-.15,0-.14.11,0s.23.4.3.55c3.2,6.81,11.45,14.84,18.77,17.06"/><path class="d" d="M84.72,69.73c3.51,0,5.9,1.71,5.9,5.09V89c0,.76.17,1.44.9,1.44s1-1.36,1-2.78h1.28a11,11,0,0,1-.31,2.77,4,4,0,0,1-3.52,2.91,3.67,3.67,0,0,1-3.26-2.91c0-.11-.08-.09-.13,0a5.1,5.1,0,0,1-4.66,2.77c-2.26,0-4.39-1.7-4.39-5.18,0-3.75,2.47-6.87,7.43-8.89a1.84,1.84,0,0,0,1.22-1.68V74.39c0-1.45-.69-3.1-2.55-3.1a4,4,0,0,0-2.84,1.13c-.21.23-.12.32.17.14a1.38,1.38,0,0,1,.62-.14,2.05,2.05,0,0,1,1.87,2.25,2.61,2.61,0,1,1-5.2-.3c0-2.25,2.11-4.64,6.51-4.64ZM83.18,82.38A8.17,8.17,0,0,0,82,86.76c0,1.16.17,3.84,2,3.84s2.23-2.56,2.23-3.14V81c0-.55.3-.85.25-.93s-.28,0-.42.11a8.67,8.67,0,0,0-2.79,2.16"/><path class="d" d="M102.54,69.87a4.38,4.38,0,0,1,1.83.36c.09.09.12.14.17-.07s1.4-2.69,3.68-2.69a1.87,1.87,0,0,1,2,1.92,1.94,1.94,0,0,1-1.76,2.12A1.51,1.51,0,0,1,107,70.09a2.59,2.59,0,0,1,.12-.58c.05-.14,0-.16-.13-.09a6.91,6.91,0,0,0-1.18,1.28c-.1.17-.05.24.14.26a.65.65,0,0,1,.37.2,8.23,8.23,0,0,1,2.85,6.63c0,3.84-2.18,6.51-4.62,7.34-1.21.41-2.36.22-3.57.68s-1.65.9-1.65,1.58.46,1.12,2.26,1.24c0,0,3.37.13,4,.19,3.46.37,5.24,2.53,5.24,5.2,0,3.69-2.61,6.72-8.74,6.72-4.88,0-7-2.15-7-4.13,0-1.74,1.16-3.18,3.3-4,.18-.06.17-.14,0-.19a3.45,3.45,0,0,1-2.46-3.2c0-1.66,1.26-3.32,3.78-4.41.1-.05.07-.09,0-.14-2.48-1.28-3.66-3.87-3.66-7.24,0-4.49,3-7.54,6.61-7.54Zm-2.07,7.24c0,5.74.75,7,2,7,1.42,0,2-1.1,2-6.15,0-6-.87-6.76-2-6.76s-2,1-2,5.93ZM98,96c0,1.51,1.4,3.43,4.68,3.43s5.45-1.66,5.45-3.85-2.46-2.38-3.22-2.46l-4.4-.31C99.77,93.2,98,94.25,98,96"/><path class="d" d="M111.89,70.09h7.75v1.36c-.57,0-1.54.23-1.2,1.59l2.43,9.54c.19.72.07,1.42.24,1.42s.13-.72.33-1.4l2.49-9.18a1.47,1.47,0,0,0-.68-1.64,2.78,2.78,0,0,0-1.28-.33V70.09h6v1.36a2.32,2.32,0,0,0-2.33,2.07l-5.4,19.58a27.12,27.12,0,0,1-1.67,5.14,4.66,4.66,0,0,1-3.74,2.51A2.77,2.77,0,0,1,111.87,98a2.47,2.47,0,0,1,2.41-2.55,2.12,2.12,0,0,1,2.15,2.09,1.94,1.94,0,0,1-.22,1.06c-.19.28-.38.44-.36.48s.28-.12.56-.43a5.76,5.76,0,0,0,1.19-2,38.64,38.64,0,0,0,1-3.77,3.08,3.08,0,0,0,0-1.7L113.7,72.9c-.21-.73-.46-1.25-1.81-1.47V70.09"/><path class="d" d="M217.47,70.6l0,1.3h2.06c.53,0,.84-.18.92-.11s-.14.27-.16,1V88.9a4.12,4.12,0,0,0,4.47,4.37c4,0,5.22-3.5,5.22-6.56v-.8h-1.46c0,3.68-.95,5-2,5s-1.66-1-1.66-2.08V72.7c0-.53-.17-.82-.11-.88s.3.06.69.08h3.81l0-1.81h-3.82c-.34,0-.55.18-.61.11s.1-.34.09-.58l-.08-8.93H223.2c0,2.55-1.19,7.82-5.73,9.91"/><path class="d" d="M145.47,70l6.55-.18.06,3.43s-.16,1,0,1,.27-.57.47-1.06c.62-1.49,2.07-3.57,4.31-3.57a2.71,2.71,0,0,1,2.82,2.78,2.64,2.64,0,0,1-2.6,2.84,2.21,2.21,0,0,1-2.28-2.47c0-.26,0-.34-.16-.12-1.61,2.66-2.37,6.75-2.37,10.47v6.79c0,1.4.77,1.4,2.5,1.4v1.44h-9.1V91.32c1.47,0,2.1-.27,2.1-1.39V72.88c0-1-.65-1.38-1.56-1.38h-.69V70"/><path class="d" d="M176.27,78.19V89.84c-.11,1.27,1.55,1.61,2.39,1.61v1.31h-9.77V91.45a1.8,1.8,0,0,0,2-1.62V61c-.06-.7-.79-1.29-2-1.3V58.36h9.63c8.23,0,9.51,6.31,9.51,9.26,0,2.35-1.2,10.13-10.33,10.13-.26,0-.58,0-.82,0s-.59-.21-.67-.1.06.29.06.58Zm0-16.8v14c0,.38-.16.55-.07.62s.24-.06.63-.06c3,0,5.29-1.24,5.29-8.45,0-5.2-1.24-7.73-4-7.73-1,0-1.86.33-1.86,1.57"/><path class="d" d="M194.08,69.58c2.4,0,7.58,2.52,7.58,11.88,0,5.83-2.85,11.88-7.51,11.88-5.05,0-7.8-6-7.8-11.78,0-9.45,5.13-12,7.73-12Zm-2.65,12.2c0,6.16.48,10.16,2.63,10.16s2.49-4.5,2.49-10.11c0-6.79-.43-10.94-2.55-10.94-1.78,0-2.57,2.77-2.57,10.89"/><path class="d" d="M211.37,84.83c-.26-.17-2.94-2-3.65-2.42a7.41,7.41,0,0,1-3.59-6.63c0-3.14,2-6,5.07-6,2.35,0,3,1.36,3.68,1.36s1.28-1,1.46-1.36h1.22v8.1h-1.42c-1.42-4.88-3-6.67-4.85-6.65a2.31,2.31,0,0,0-2.41,2.57c0,1.43.82,2.46,2.45,3.59.19.14,4,2.69,4.19,2.81a7.74,7.74,0,0,1,3.22,6.29c0,3.37-2.31,6.68-5.81,6.68-2.22,0-3-1.31-3.84-1.31s-1.23.75-1.59,1.29h-1.29V84h1.38c.8,2.89,2.11,7.65,5.36,7.65a2.72,2.72,0,0,0,2.88-2.91,4.78,4.78,0,0,0-2.46-3.87"/><path class="d" d="M63.53,75.17l2.89-16.81h8.63v1.38c-1.23,0-2,.6-2,1.3V89.83c0,1.29,1.18,1.62,2,1.62v1.31H65.73V91.45c.72,0,2-.3,2-1.56l0-26.26a14.44,14.44,0,0,0,0-2.81,18.51,18.51,0,0,0-.42,2.81L62.14,92.76H60.71l-5-29.1a21.67,21.67,0,0,0-.42-2.81,13.52,13.52,0,0,0,0,2.81V87c0,1.07,0,1.67.07,2.33a2.29,2.29,0,0,0,2.32,2.08v1.31H51.23V91.45a2.11,2.11,0,0,0,2.17-1.81c.07-.7.08-2.6.08-2.6V61.46c0-1.36-.94-1.73-2-1.73h-.26V58.36h9l2.87,16.83c.16.92,0,1.68.18,1.68a11.94,11.94,0,0,0,.22-1.7"/><path class="d" d="M135,69.7c3.51,0,5.9,1.72,5.9,5.09V89c0,.75.17,1.43.9,1.43s1-1.36,1-2.78h1.28a10.84,10.84,0,0,1-.31,2.77,4,4,0,0,1-3.52,2.92A3.66,3.66,0,0,1,137,90.41c0-.11-.08-.09-.13,0a5.1,5.1,0,0,1-4.66,2.77c-2.26,0-4.39-1.69-4.39-5.17,0-3.76,2.47-6.87,7.43-8.9a1.84,1.84,0,0,0,1.22-1.67V74.37c0-1.46-.69-3.1-2.55-3.1a4,4,0,0,0-2.84,1.13c-.21.23-.12.31.17.13a1.52,1.52,0,0,1,.62-.13,2.05,2.05,0,0,1,1.87,2.24,2.61,2.61,0,1,1-5.2-.3C128.52,72.1,130.63,69.7,135,69.7Zm-1.54,12.66a8.14,8.14,0,0,0-1.22,4.37c0,1.17.17,3.84,1.95,3.84s2.23-2.55,2.23-3.13V81c0-.54.3-.84.25-.93s-.28,0-.42.12a8.53,8.53,0,0,0-2.79,2.16"/><path class="d" d="M238.58,69.7c3.51,0,5.91,1.72,5.91,5.09V89c0,.75.16,1.43.89,1.43s1-1.36,1-2.78h1.28a10.84,10.84,0,0,1-.31,2.77,4,4,0,0,1-3.52,2.92,3.67,3.67,0,0,1-3.26-2.91c0-.11-.08-.09-.13,0a5.08,5.08,0,0,1-4.66,2.77c-2.26,0-4.39-1.69-4.39-5.17,0-3.76,2.48-6.87,7.43-8.9A1.84,1.84,0,0,0,240,77.43V74.37c0-1.46-.69-3.1-2.55-3.1a4,4,0,0,0-2.84,1.13c-.21.23-.12.31.17.13a1.54,1.54,0,0,1,.63-.13,2,2,0,0,1,1.86,2.24,2.61,2.61,0,1,1-5.2-.3c0-2.24,2.12-4.64,6.51-4.64ZM237,82.36a8.14,8.14,0,0,0-1.22,4.37c0,1.17.17,3.84,2,3.84S240,88,240,87.44V81c0-.54.3-.84.25-.93s-.28,0-.42.12A8.64,8.64,0,0,0,237,82.36"/></svg>