<svg xmlns="http://www.w3.org/2000/svg" width="128" height="64" fill="none"><rect width="128" height="64" fill="#fff" rx="6"/><path fill="#96154A" d="M6.002 45.31a5.806 5.806 0 0 0 1.303 3.46 5.898 5.898 0 0 0 3.138 1.994c1.658.406 10.207 1.33 15.264 1.33 5.056 0 13.609-.924 15.267-1.33a5.898 5.898 0 0 0 3.138-1.993 5.805 5.805 0 0 0 1.303-3.46V18.686a5.81 5.81 0 0 0-1.304-3.46 5.902 5.902 0 0 0-3.137-1.993c-1.658-.406-10.207-1.326-15.267-1.326-5.06 0-13.606.92-15.264 1.326a5.902 5.902 0 0 0-3.138 1.993 5.81 5.81 0 0 0-1.303 3.46V45.31Z"/><path fill="#fff" d="M28.74 31.313c-3.384-.596-5.641 1.2-5.641 4.114v6.666l-5.322 3.378V35.427c0-5.828 4.073-9.884 10.964-9.062v4.948ZM26.945 21.242c0 .599-.18 1.184-.515 1.681a3.049 3.049 0 0 1-1.37 1.115 3.08 3.08 0 0 1-3.33-.656 3 3 0 0 1-.662-3.298 3.032 3.032 0 0 1 1.125-1.358 3.075 3.075 0 0 1 3.857.376c.573.568.895 1.337.895 2.14Z"/><path fill="#F6ABB6" d="M30.014 30.911a.858.858 0 0 0 .192.505.871.871 0 0 0 .458.293c.737.116 1.482.18 2.229.194a16.146 16.146 0 0 0 2.233-.194c.18-.047.34-.15.457-.293a.858.858 0 0 0 .193-.505V27.02a.85.85 0 0 0-.192-.504.864.864 0 0 0-.458-.29 16.162 16.162 0 0 0-2.233-.195 16.16 16.16 0 0 0-2.23.195.864.864 0 0 0-.457.29.85.85 0 0 0-.192.504v3.892Z"/><path fill="#96154A" d="M86.686 22.626c.72.681 1.08 1.704 1.08 3.067v5.358h-2.198v-5.078a2.618 2.618 0 0 0-.595-1.848 2.172 2.172 0 0 0-1.662-.62 2.563 2.563 0 0 0-1.923.726 2.88 2.88 0 0 0-.709 2.093v4.727h-2.198v-9.349h2.092v1.207c.37-.434.842-.77 1.376-.979a5 5 0 0 1 1.871-.34 3.944 3.944 0 0 1 2.862 1.023M72.526 31.259a4.966 4.966 0 0 1-2.76-.787 4.9 4.9 0 0 1-1.851-2.178 4.846 4.846 0 0 1-.312-2.83 4.872 4.872 0 0 1 1.332-2.521 4.947 4.947 0 0 1 2.525-1.359 4.977 4.977 0 0 1 2.86.265c.907.368 1.681.994 2.227 1.8.545.805.837 1.753.837 2.722a4.83 4.83 0 0 1-1.409 3.44 4.92 4.92 0 0 1-3.449 1.448Zm.066-7.563a2.77 2.77 0 0 0-1.539.443 2.733 2.733 0 0 0-1.028 1.216 2.703 2.703 0 0 0 .574 2.983 2.776 2.776 0 0 0 3.003.607 2.75 2.75 0 0 0 1.241-1.004 2.709 2.709 0 0 0-.328-3.434 2.765 2.765 0 0 0-1.924-.811ZM93.985 45.27v-9.349H91.88v.886a4.902 4.902 0 0 0-5.119-.514 4.847 4.847 0 0 0-1.985 1.778 4.787 4.787 0 0 0 0 5.097 4.848 4.848 0 0 0 1.985 1.778 4.902 4.902 0 0 0 5.12-.514v.838h2.104Zm-5.074-1.78a2.92 2.92 0 0 1-1.611-.483 2.876 2.876 0 0 1-1.068-1.29 2.846 2.846 0 0 1-.165-1.66c.112-.557.388-1.069.793-1.47a2.925 2.925 0 0 1 3.16-.623c.53.217.984.585 1.303 1.058a2.853 2.853 0 0 1-.362 3.626 2.918 2.918 0 0 1-2.05.843ZM111.843 21.695v.938a4.903 4.903 0 0 0-5.119-.514 4.851 4.851 0 0 0-1.985 1.777 4.786 4.786 0 0 0 0 5.098 4.851 4.851 0 0 0 1.985 1.777 4.903 4.903 0 0 0 5.119-.514v.79h2.105v-9.352h-2.105Zm-2.969 7.621a2.922 2.922 0 0 1-1.612-.482 2.888 2.888 0 0 1-1.07-1.29 2.852 2.852 0 0 1 .627-3.131 2.906 2.906 0 0 1 1.484-.788 2.927 2.927 0 0 1 1.677.163c.53.218.983.586 1.302 1.058a2.86 2.86 0 0 1 .489 1.597 2.863 2.863 0 0 1-.849 2.03 2.918 2.918 0 0 1-2.048.843ZM73.29 43.464a3.09 3.09 0 0 1-1.703-.12 3.06 3.06 0 0 1-1.373-1.005l.11-.034 7.2-2.386a5.672 5.672 0 0 0-1.2-2.577 4.338 4.338 0 0 0-1.988-1.363 5.642 5.642 0 0 0-4.96.794 4.459 4.459 0 0 0-1.49 1.95 4.77 4.77 0 0 0-.262 2.529c.067.456.198.901.389 1.322.874 2.004 3.113 3.156 5.432 2.805l.227-.037a4.895 4.895 0 0 0 2.244-1.038 4.825 4.825 0 0 0 1.44-1.996l-1.775-.681a3.045 3.045 0 0 1-.912 1.199c-.4.318-.874.531-1.38.62v.018Zm-3.523-2.625a2.9 2.9 0 0 1 .437-2.212 2.665 2.665 0 0 1 1.872-1.077 2.855 2.855 0 0 1 1.788.26c.514.265.918.699 1.146 1.226l-5.24 1.803h-.003ZM78.481 41.719c.009.71.22 1.405.609 2.003.39.597.94 1.074 1.591 1.374a3.845 3.845 0 0 0 4.026-.5l-1.375-1.684a1.633 1.633 0 0 1-1.032.36 1.598 1.598 0 0 1-1.128-.447 1.567 1.567 0 0 1-.48-1.106v-9.267h-2.197l-.014 9.267ZM120.608 28.631c-.29.236-.656.364-1.031.361a1.602 1.602 0 0 1-1.129-.447 1.574 1.574 0 0 1-.478-1.107v-8.99l-2.198 1.397v7.593c.009.711.22 1.406.609 2.003a3.801 3.801 0 0 0 1.591 1.375 3.845 3.845 0 0 0 4.026-.501l-1.39-1.684ZM64.263 31.034h2.308V19.313a1.095 1.095 0 0 0-.215-.645 1.11 1.11 0 0 0-1.244-.394 1.11 1.11 0 0 0-.553.402l-3.44 4.771-3.44-4.771a1.107 1.107 0 0 0-1.241-.407 1.107 1.107 0 0 0-.557.4 1.09 1.09 0 0 0-.211.647v11.721h2.308v-7.75l.144.174c.888 1.1 2.24 2.76 2.316 2.832.185.175.431.274.688.276.256-.004.5-.103.688-.276.072-.072 1.424-1.731 2.315-2.832l.14-.174-.006 7.747ZM102.912 22.312h-2.197v8.735h2.197v-8.735ZM103.198 19.613c0-.27-.081-.533-.232-.758a1.373 1.373 0 0 0-1.412-.58 1.38 1.38 0 0 0-.705.374 1.356 1.356 0 0 0 .209 2.097 1.383 1.383 0 0 0 1.737-.17c.258-.255.403-.602.403-.963Z"/><path fill="#96154A" d="M103.202 35.935v4.563c0 1.544-1.112 2.727-2.588 2.727-1.475 0-2.586-1.166-2.586-2.727v-4.553h-2.202v4.553a4.76 4.76 0 0 0 1.36 3.44c.445.455.978.817 1.567 1.066a4.853 4.853 0 0 0 1.861.382 4.44 4.44 0 0 0 2.588-.822v1.187c0 2.385-1.93 4.226-4.473 4.226-3.048 0-4.503-1.704-4.73-3.28H91.88c.272 3.153 3.075 5.393 6.836 5.393a6.916 6.916 0 0 0 4.702-1.77 6.125 6.125 0 0 0 1.986-4.57v-9.805l-2.202-.01ZM96.696 18.383v4.25a4.905 4.905 0 0 0-5.119-.514 4.85 4.85 0 0 0-1.985 1.777 4.787 4.787 0 0 0 0 5.098 4.85 4.85 0 0 0 1.985 1.777 4.905 4.905 0 0 0 5.119-.514v.79h2.188V18.383h-2.188Zm-2.968 10.933a2.92 2.92 0 0 1-1.612-.484 2.882 2.882 0 0 1-1.068-1.29 2.852 2.852 0 0 1 .629-3.13 2.925 2.925 0 0 1 3.16-.623c.53.217.983.585 1.302 1.058.318.472.489 1.028.489 1.596-.001.762-.307 1.492-.851 2.03a2.917 2.917 0 0 1-2.05.843ZM64.862 45.27h2.869l-3.234-4.536.072-.045a4.26 4.26 0 0 0 1.484-1.388 4.21 4.21 0 0 0 .666-1.91 4.58 4.58 0 0 0-1.152-3.467 4.428 4.428 0 0 0-1.49-1.084 4.466 4.466 0 0 0-1.806-.388H58.24a2.64 2.64 0 0 0-1.845.784 2.59 2.59 0 0 0-.748 1.847V45.27h2.311v-3.906h4.129l2.776 3.906Zm-6.825-6.206h-.08v-3.572a.739.739 0 0 1 .214-.526.753.753 0 0 1 .526-.224h3.495a2.197 2.197 0 0 1 1.55.568 2.152 2.152 0 0 1 .161 3.027c-.378.425-.91.686-1.48.727h-4.387Z"/></svg>