<svg xmlns="http://www.w3.org/2000/svg" width="128" height="64" fill="none"><rect width="128" height="64" fill="#fff" rx="6"/><path fill="#EA5B08" fill-rule="evenodd" d="M10.042 17.56c.13-.043.23.086.332.157a7.818 7.818 0 0 0 10.575 0c.086-.07.203-.2.328-.145.121.09.233.19.336.301 1.173 1.173 2.306 2.326 3.471 3.49.07.071.172.173.125.286a2.768 2.768 0 0 1-.484.473 13.548 13.548 0 0 1-5.3 2.928 13.737 13.737 0 0 1-13.186-3.21c-.07-.085-.2-.171-.172-.3.093-.148.21-.28.344-.391 1.172-1.15 2.31-2.326 3.475-3.475a.614.614 0 0 1 .156-.114Z" clip-rule="evenodd"/><path fill="#E9470A" fill-rule="evenodd" d="M30.807 17.572c.102-.086.22 0 .29.086l3.705 3.706c.075.07.16.156.13.27-.065.104-.141.201-.227.289a7.861 7.861 0 0 0 .097 10.535c.114.101.2.273.059.39a312.472 312.472 0 0 1-3.765 3.773.225.225 0 0 1-.235.094.226.226 0 0 1-.14-.094 13.655 13.655 0 0 1 .086-19.03v-.019Z" clip-rule="evenodd"/><path fill="#E6035C" fill-rule="evenodd" d="M9.87 27.247c.102-.102.242-.027.317.074l3.373 3.386c.157.142.302.296.434.46.055.142-.074.243-.16.33a7.818 7.818 0 0 0 0 10.554c.058.086.172.156.16.289-.012.133-.086.125-.133.2-1.231 1.23-2.45 2.466-3.702 3.701-.07.07-.172.145-.273.086a3.337 3.337 0 0 1-.372-.39 13.432 13.432 0 0 1-2.842-4.867 13.842 13.842 0 0 1-.187-7.893 13.45 13.45 0 0 1 3.4-5.91l-.015-.02Z" clip-rule="evenodd"/><path fill="#E4022C" fill-rule="evenodd" d="M19.729 38.454c.144-.086.258.07.39.145a7.713 7.713 0 0 0 5.239 2.037 7.857 7.857 0 0 0 5.328-2.064c.102-.118.274-.22.39-.059l3.39 3.39c.168.145.321.308.457.484a.214.214 0 0 1-.086.273 13.569 13.569 0 0 1-5.914 3.347c-2.503.658-5.14.604-7.615-.157a13.682 13.682 0 0 1-5.441-3.22.211.211 0 0 1-.04-.302.205.205 0 0 1 .04-.043c1.172-1.172 2.345-2.322 3.479-3.487.14-.113.242-.242.39-.344h-.007ZM94.158 22.095a1.786 1.786 0 1 1-1.333 2.146c0-.047-.02-.09-.023-.137a1.783 1.783 0 0 1 1.36-2.01h-.004ZM54.766 30.965a6.332 6.332 0 1 0-4.624 8.521 6.254 6.254 0 0 0 4.3-3.158 6.35 6.35 0 0 0 .324-5.363Zm-4.222 5.53a3.592 3.592 0 1 1 1.72-4.393 3.628 3.628 0 0 1-1.72 4.394ZM61.912 27.118c1.763-.188 3.74-.39 5.277.633a15.03 15.03 0 0 1 5.989-.719c.891.102 1.849.344 2.455 1.063.606.72.703 1.603.703 2.467v8.252c0 .219-.03.5-.316.489-.833 0-1.665.027-2.498 0-.243 0-.274-.29-.258-.493v-7.928a2.087 2.087 0 0 0-.391-1.336 1.594 1.594 0 0 0-1.22-.473c-1.036.008-2.067.14-3.072.39v9.46a.324.324 0 0 1-.266.391h-.106c-.873.036-1.748.015-2.619-.062-.029-.2-.042-.4-.039-.602v-7.767c0-.548-.07-1.204-.57-1.564-.5-.36-1.173-.27-1.767-.242-.777.063-1.549.178-2.31.343-.098 3.257.027 6.517-.06 9.773a4.049 4.049 0 0 1-1.32.098c-.493.018-.987.009-1.478-.027-.243 0-.274-.29-.258-.477v-9.863a1.13 1.13 0 0 1 .782-1.06c1.089-.382 2.22-.633 3.37-.746h-.028ZM81.578 27.419a18.011 18.011 0 0 1 4.863-.43 4.8 4.8 0 0 1 2.443.676c.541.38.915.954 1.044 1.603.11.618.153 1.245.129 1.872v6.728c.025.454.006.91-.055 1.36-.496.07-.997.09-1.497.059-.5.028-1.002.003-1.497-.074a2.534 2.534 0 0 1-.07-.544v-7.818a2.001 2.001 0 0 0-.333-1.321 1.562 1.562 0 0 0-1.231-.489c-.899 0-1.794.101-2.67.301-.13.047-.391.047-.391.258v8.51c.015.355 0 .71-.043 1.064-.184.187-.473.117-.704.129-.688 0-1.36.027-2.052-.028-.242 0-.285-.29-.27-.492v-9.726a1.147 1.147 0 0 1 .489-1.036 7.149 7.149 0 0 1 1.845-.602ZM121.166 28.037c-.782-.747-1.924-.95-2.971-1.036a17.006 17.006 0 0 0-5.508.563c-.266.05-.52.152-.747.3-.187.2-.043.474 0 .7.062.418.173.827.329 1.22.217.03.439.006.645-.07a12.507 12.507 0 0 1 4.78-.485c.415.07.919.211 1.091.641.126.522.164 1.06.113 1.595-1.305.133-2.619.242-3.909.39-1.016.142-2.095.392-2.869 1.123a3.677 3.677 0 0 0-1.016 2.783c0 .993.246 2.056 1.004 2.736.845.806 2.068 1.017 3.202 1.122 1.696.143 3.404.003 5.054-.414a2.25 2.25 0 0 0 1.243-.743 2.61 2.61 0 0 0 .391-1.478V30.55c-.011-.891-.156-1.868-.832-2.513Zm-2.291 9.268a6.984 6.984 0 0 1-3.174.219 1.67 1.67 0 0 1-1.337-1.048 2.522 2.522 0 0 1 .145-1.907c.332-.563 1.02-.72 1.622-.782.919-.102 1.837-.22 2.767-.305-.011 1.259.016 2.549-.023 3.823ZM98.552 27.313c.781-.086 1.563-.03 2.345-.046.258 0 .629 0 .688.32.86 3.182 1.65 6.36 2.51 9.554a.265.265 0 0 0 .246-.242l2.111-9.042c.054-.184.086-.391.242-.516.311-.068.629-.093.946-.075.602 0 1.208-.027 1.81.032.301 0 .328.39.242.602l-3.186 10.945c-.054.227-.183.516-.473.485-1.262.031-2.525 0-3.776 0-.269 0-.43-.242-.5-.47-1.016-3.431-2.052-6.863-3.073-10.303-.101-.391-.344-.821-.14-1.236l.008-.008ZM93.08 27.603c.175-.196.46-.125.691-.141a20.487 20.487 0 0 1 2.244.055c.043.208.066.42.07.633v10.781a.352.352 0 0 1-.473.391c-.838.035-1.678.012-2.513-.07a2.558 2.558 0 0 1-.07-.544V28.486a3.095 3.095 0 0 1 .042-.891l.008.008Z" clip-rule="evenodd"/></svg>