<svg xmlns="http://www.w3.org/2000/svg" viewBox="0 0 320 120"><defs><style>.a{fill:none;}.b{fill:#ea5b08;}.b,.c,.d,.e{fill-rule:evenodd;}.c{fill:#e9470a;}.d{fill:#e6035c;}.e{fill:#e4022c;}</style></defs><rect class="a" width="320" height="120"/><path class="b" d="M22,23.05c.33-.11.59.22.85.4a20,20,0,0,0,27.05,0c.22-.18.52-.51.84-.37a6.3,6.3,0,0,1,.86.77c3,3,5.9,5.95,8.88,8.93.18.18.44.44.32.73a7.1,7.1,0,0,1-1.24,1.21A34.66,34.66,0,0,1,46,42.21,35.14,35.14,0,0,1,12.27,34c-.18-.22-.51-.44-.44-.77a4.25,4.25,0,0,1,.88-1c3-2.94,5.91-5.95,8.89-8.89A1.57,1.57,0,0,1,22,23.05Z"/><path class="c" d="M75.12,23.08c.26-.22.56,0,.74.22l9.48,9.48c.19.18.41.4.33.69a4.21,4.21,0,0,1-.58.74,20.11,20.11,0,0,0,.25,26.95c.29.26.51.7.15,1-3.21,3.27-6.43,6.5-9.63,9.65a.58.58,0,0,1-.81.15.54.54,0,0,1-.15-.15,34.93,34.93,0,0,1,.22-48.68Z"/><path class="d" d="M21.56,47.83c.26-.26.62-.07.81.19L31,56.68a10.33,10.33,0,0,1,1.11,1.18c.14.36-.19.62-.41.84a20,20,0,0,0,0,27c.15.22.44.4.41.74s-.22.32-.34.51c-3.15,3.15-6.27,6.31-9.47,9.47-.18.18-.44.37-.7.22a8.52,8.52,0,0,1-.95-1,34.36,34.36,0,0,1-7.27-12.45A35.41,35.41,0,0,1,12.9,63a34.41,34.41,0,0,1,8.7-15.12Z"/><path class="e" d="M46.78,76.5c.37-.22.66.18,1,.37a19.73,19.73,0,0,0,13.4,5.21A20.1,20.1,0,0,0,74.81,76.8c.26-.3.7-.56,1-.15l8.67,8.67a8.59,8.59,0,0,1,1.17,1.24.55.55,0,0,1-.22.7A34.71,34.71,0,0,1,70.3,95.82a35.53,35.53,0,0,1-19.48-.4A35,35,0,0,1,36.9,87.18a.54.54,0,0,1-.1-.77.52.52,0,0,1,.1-.11c3-3,6-5.94,8.9-8.92.36-.29.62-.62,1-.88Z"/><path class="e" d="M237.18,34.65a4.57,4.57,0,1,1-3.41,5.49c0-.12-.05-.23-.06-.35a4.56,4.56,0,0,1,3.48-5.14Z"/><path class="e" d="M136.41,57.34a16.2,16.2,0,1,0-11.83,21.8,16,16,0,0,0,11-8.08A16.25,16.25,0,0,0,136.41,57.34Zm-10.8,14.15a9.19,9.19,0,1,1,3.89-12.4,8,8,0,0,1,.51,1.16A9.28,9.28,0,0,1,125.61,71.49Z"/><path class="e" d="M154.69,47.5c4.51-.48,9.57-1,13.5,1.62a38.45,38.45,0,0,1,15.32-1.84c2.28.26,4.73.88,6.28,2.72s1.8,4.1,1.8,6.31V77.42c0,.56-.08,1.28-.81,1.25-2.13,0-4.26.07-6.39,0-.62,0-.7-.74-.66-1.26V57.13a5.34,5.34,0,0,0-1-3.42,4.08,4.08,0,0,0-3.12-1.21,33.62,33.62,0,0,0-7.86,1v24.2a.83.83,0,0,1-.68,1h-.27a51.61,51.61,0,0,1-6.7-.16A9.64,9.64,0,0,1,164,77V57.13c0-1.4-.18-3.08-1.46-4s-3-.69-4.52-.62a45.29,45.29,0,0,0-5.91.88c-.25,8.33.07,16.67-.15,25a10.36,10.36,0,0,1-3.38.25,34.15,34.15,0,0,1-3.78-.07c-.62,0-.7-.74-.66-1.22V52.12a2.89,2.89,0,0,1,2-2.71,36.93,36.93,0,0,1,8.62-1.91Z"/><path class="e" d="M205,48.27a46.08,46.08,0,0,1,12.44-1.1,12.28,12.28,0,0,1,6.25,1.73A6.58,6.58,0,0,1,226.36,53a22.63,22.63,0,0,1,.33,4.79V75a18.4,18.4,0,0,1-.14,3.48,18.87,18.87,0,0,1-3.83.15,18.19,18.19,0,0,1-3.83-.19,6.46,6.46,0,0,1-.18-1.39v-20a5.12,5.12,0,0,0-.85-3.38,4,4,0,0,0-3.15-1.25,30.76,30.76,0,0,0-6.83.77c-.33.12-1,.12-1,.66V75.62a16.47,16.47,0,0,1-.11,2.72c-.47.48-1.21.3-1.8.33-1.76,0-3.48.07-5.25-.07-.62,0-.73-.74-.69-1.26V52.46a2.93,2.93,0,0,1,1.25-2.65A18.29,18.29,0,0,1,205,48.27Z"/><path class="e" d="M306.27,49.85c-2-1.91-4.92-2.43-7.6-2.65a43.51,43.51,0,0,0-14.09,1.44h0a5.3,5.3,0,0,0-1.91.77c-.48.51-.11,1.21,0,1.79a14,14,0,0,0,.84,3.12,3.43,3.43,0,0,0,1.65-.18,32,32,0,0,1,12.23-1.24c1.06.18,2.35.54,2.79,1.64a12.45,12.45,0,0,1,.29,4.08c-3.34.34-6.7.62-10,1-2.6.36-5.36,1-7.34,2.87a9.39,9.39,0,0,0-2.6,7.12c0,2.54.63,5.26,2.57,7,2.16,2.06,5.29,2.6,8.19,2.87a39.36,39.36,0,0,0,12.93-1.06,5.76,5.76,0,0,0,3.18-1.9,6.7,6.7,0,0,0,1-3.78V56.28C308.37,54,308,51.5,306.27,49.85Zm-5.86,23.71a17.87,17.87,0,0,1-8.12.56,4.27,4.27,0,0,1-3.42-2.68,6.46,6.46,0,0,1,.37-4.88c.85-1.44,2.61-1.84,4.15-2,2.35-.26,4.7-.56,7.08-.78C300.44,67,300.51,70.3,300.41,73.56Z"/><path class="e" d="M248.42,48c2-.22,4-.08,6-.12.66,0,1.61,0,1.76.82,2.2,8.14,4.22,16.27,6.42,24.44a.68.68,0,0,0,.63-.62l5.4-23.13c.14-.47.22-1,.62-1.32a8.93,8.93,0,0,1,2.42-.19c1.54,0,3.09-.07,4.63.08.77,0,.84,1,.62,1.54l-8.15,28c-.14.58-.47,1.32-1.21,1.24-3.23.08-6.46,0-9.66,0-.69,0-1.1-.62-1.28-1.2-2.6-8.78-5.25-17.56-7.86-26.36-.26-1-.88-2.1-.36-3.16Z"/><path class="e" d="M234.42,48.74c.45-.5,1.18-.32,1.77-.36a52.38,52.38,0,0,1,5.74.14,8.83,8.83,0,0,1,.18,1.62V77.72a.9.9,0,0,1-1.21,1,46,46,0,0,1-6.43-.18,6.54,6.54,0,0,1-.18-1.39V51a7.93,7.93,0,0,1,.11-2.28Z"/></svg>