<svg xmlns="http://www.w3.org/2000/svg" viewBox="0 0 320 120"><defs><style>.a{fill:none;}.b{fill:#ea5b08;}.b,.c,.d,.e{fill-rule:evenodd;}.c{fill:#e9470a;}.d{fill:#e6035c;}.e{fill:#e4022c;}</style></defs><rect class="a" width="320" height="120"/><path class="b" d="M15.83,21.4c.35-.12.62.23.89.42a20.95,20.95,0,0,0,28.26,0c.23-.19.54-.54.88-.39a5.8,5.8,0,0,1,.89.81c3.1,3.11,6.17,6.21,9.28,9.32.19.19.46.46.34.77a7.78,7.78,0,0,1-1.3,1.26,36.29,36.29,0,0,1-14.15,7.83A36.76,36.76,0,0,1,20,41.19,36.69,36.69,0,0,1,5.67,32.83c-.19-.23-.54-.46-.46-.81a4.48,4.48,0,0,1,.92-1c3.11-3.07,6.17-6.22,9.28-9.29A1.79,1.79,0,0,1,15.83,21.4Z"/><path class="c" d="M71.33,21.43c.27-.23.58,0,.77.23L82,31.56c.2.19.43.42.35.73a5.13,5.13,0,0,1-.61.77A21,21,0,0,0,82,61.21c.31.27.54.73.16,1C78.81,65.62,75.44,69,72.1,72.29a.61.61,0,0,1-1,0A36.34,36.34,0,0,1,61,44.1,36.34,36.34,0,0,1,71.33,21.43Z"/><path class="d" d="M15.37,47.29c.27-.27.65-.08.85.19l9.05,9.05a12.06,12.06,0,0,1,1.15,1.23c.15.38-.19.65-.42.88a20.84,20.84,0,0,0,0,28.19c.15.23.46.42.42.77s-.23.34-.35.53c-3.29,3.3-6.55,6.6-9.89,9.9-.19.19-.46.38-.73.23a9.28,9.28,0,0,1-1-1,35.88,35.88,0,0,1-7.59-13,37,37,0,0,1-.54-21.09,36,36,0,0,1,9.09-15.8Z"/><path class="e" d="M41.72,77.24c.39-.23.69.19,1,.38a20.63,20.63,0,0,0,14,5.45A21,21,0,0,0,71,77.55c.27-.31.73-.58,1-.16,3,3,6,6,9.06,9.06a9.39,9.39,0,0,1,1.22,1.3c.16.27,0,.54-.23.73a36.21,36.21,0,0,1-15.76,8.94A37.07,37.07,0,0,1,45.94,97,36.56,36.56,0,0,1,31.4,88.4a.58.58,0,0,1,0-.92c3.11-3.11,6.22-6.21,9.29-9.32.38-.31.65-.65,1-.92Z"/><path class="e" d="M240.63,33.52A4.77,4.77,0,1,1,237,38.89a4.77,4.77,0,0,1,3.64-5.37Z"/><path class="e" d="M135.35,57.22A16.92,16.92,0,1,0,123,80a16.77,16.77,0,0,0,11.47-8.44A17,17,0,0,0,135.35,57.22ZM124.07,72a9.6,9.6,0,1,1,4.6-11.74A9.69,9.69,0,0,1,124.07,72Z"/><path class="e" d="M154.45,46.94c4.71-.5,10-1,14.11,1.69a40.34,40.34,0,0,1,16-1.92c2.38.27,4.94.92,6.56,2.84s1.88,4.29,1.88,6.6V78.2c0,.58-.08,1.34-.85,1.3-2.22,0-4.45.08-6.67,0-.65,0-.73-.77-.69-1.31V57a5.63,5.63,0,0,0-1-3.57,4.28,4.28,0,0,0-3.26-1.26,35,35,0,0,0-8.21,1c0,8.44,0,16.88,0,25.28a.87.87,0,0,1-1,1,53,53,0,0,1-7-.16,9.55,9.55,0,0,1-.16-1.49V57c0-1.46-.19-3.22-1.53-4.14s-3.15-.73-4.72-.65a45.92,45.92,0,0,0-6.17.92c-.27,8.7.07,17.41-.16,26.12a10.92,10.92,0,0,1-3.53.27c-1.3,0-2.64.07-3.95-.08-.65,0-.73-.77-.69-1.27V51.77a3,3,0,0,1,2.07-2.83,38.27,38.27,0,0,1,9-2Z"/><path class="e" d="M207,47.75a48,48,0,0,1,13-1.15,12.79,12.79,0,0,1,6.52,1.8,6.89,6.89,0,0,1,2.8,4.26,23.81,23.81,0,0,1,.35,5V75.71a19.19,19.19,0,0,1-.15,3.64,19.38,19.38,0,0,1-4,.15,18.79,18.79,0,0,1-4-.19,7,7,0,0,1-.19-1.46V57a5.4,5.4,0,0,0-.88-3.53,4.2,4.2,0,0,0-3.3-1.3,31.62,31.62,0,0,0-7.13.8c-.35.12-1.08.12-1,.69V76.32a16.7,16.7,0,0,1-.12,2.84c-.49.5-1.26.31-1.88.34-1.84,0-3.64.08-5.48-.07-.65,0-.77-.77-.73-1.31v-26a3.06,3.06,0,0,1,1.31-2.76A19,19,0,0,1,207,47.75Z"/><path class="e" d="M312.81,49.4c-2.11-2-5.14-2.54-7.94-2.77a45.44,45.44,0,0,0-14.72,1.5h0a5.67,5.67,0,0,0-2,.81c-.5.53-.11,1.26,0,1.87a14.94,14.94,0,0,0,.88,3.26,3.64,3.64,0,0,0,1.72-.19,33.51,33.51,0,0,1,12.78-1.3c1.11.19,2.45.57,2.91,1.72a13.2,13.2,0,0,1,.31,4.26c-3.49.35-7,.65-10.44,1-2.72.38-5.6,1.07-7.67,3A9.81,9.81,0,0,0,285.93,70c0,2.65.65,5.49,2.68,7.33,2.26,2.15,5.53,2.72,8.56,3a41,41,0,0,0,13.5-1.11A6.05,6.05,0,0,0,314,77.24a7.09,7.09,0,0,0,1-3.95V56.11C315,53.77,314.62,51.12,312.81,49.4Zm-6.13,24.77a18.57,18.57,0,0,1-8.48.58,4.45,4.45,0,0,1-3.57-2.8,6.73,6.73,0,0,1,.39-5.1c.88-1.5,2.72-1.92,4.33-2.11,2.46-.27,4.91-.58,7.4-.81C306.72,67.35,306.79,70.76,306.68,74.17Z"/><path class="e" d="M252.37,47.44c2.07-.23,4.18-.08,6.29-.12.69,0,1.68,0,1.84.85,2.3,8.51,4.41,17,6.71,25.54a.7.7,0,0,0,.65-.65L273.5,48.9c.15-.5.23-1.08.65-1.38a9.31,9.31,0,0,1,2.53-.2c1.61,0,3.23-.07,4.84.08.8,0,.88,1,.65,1.61l-8.52,29.23c-.15.61-.49,1.38-1.26,1.3-3.38.08-6.75,0-10.09,0-.73,0-1.15-.65-1.34-1.26-2.72-9.17-5.49-18.34-8.21-27.54-.27-1.08-.92-2.19-.38-3.3Z"/><path class="e" d="M237.75,48.24c.46-.53,1.23-.34,1.84-.38a55.18,55.18,0,0,1,6,.15,8.93,8.93,0,0,1,.19,1.69c0,9.59,0,19.22,0,28.81.11.76-.62,1.15-1.27,1a48.53,48.53,0,0,1-6.71-.19,7,7,0,0,1-.19-1.46V50.62a8.23,8.23,0,0,1,.11-2.38Z"/></svg>