<svg xmlns="http://www.w3.org/2000/svg" viewBox="0 0 323.13 120.41"><defs><style>.a{fill:none;}.b{fill:#ea5b08;}.b,.c,.d,.e{fill-rule:evenodd;}.c{fill:#e9470a;}.d{fill:#e6035c;}.e{fill:#e4022c;}</style></defs><rect class="a" width="323.13" height="120.41"/><path class="b" d="M17.4,21.6c.34-.11.61.23.88.42a20.93,20.93,0,0,0,28.27,0c.23-.19.53-.53.88-.38a6.22,6.22,0,0,1,.88.81c3.11,3.1,6.18,6.21,9.28,9.32.2.19.46.46.35.76a8.31,8.31,0,0,1-1.31,1.27,36.12,36.12,0,0,1-14.15,7.82A36.65,36.65,0,0,1,7.23,33c-.19-.23-.53-.46-.46-.8a4.77,4.77,0,0,1,.92-1C10.8,28.12,13.87,25,17,21.91A1.48,1.48,0,0,1,17.4,21.6Z"/><path class="c" d="M72.9,21.64c.27-.23.57,0,.76.23l9.9,9.9c.19.19.42.42.34.72a5.13,5.13,0,0,1-.61.77,21,21,0,0,0,.27,28.15c.31.27.54.73.15,1-3.33,3.37-6.71,6.71-10,10a.61.61,0,0,1-1,0A36.34,36.34,0,0,1,62.58,44.31,36.18,36.18,0,0,1,72.9,21.64Z"/><path class="d" d="M16.94,47.49c.27-.27.65-.08.84.19l9,9A11,11,0,0,1,28,58c.16.39-.19.65-.42.88a20.86,20.86,0,0,0,0,28.19c.15.23.46.43.42.77s-.23.35-.34.54c-3.3,3.3-6.56,6.6-9.9,9.89-.19.2-.46.39-.73.23a8.35,8.35,0,0,1-1-1,36.07,36.07,0,0,1-7.6-13,37,37,0,0,1-.53-21.1,36,36,0,0,1,9.09-15.8Z"/><path class="e" d="M43.29,77.45c.38-.23.69.19,1,.38a20.64,20.64,0,0,0,14,5.45,21,21,0,0,0,14.26-5.53c.27-.3.73-.57,1-.15,3,3,6,6,9,9.05A10.19,10.19,0,0,1,83.83,88c.15.26,0,.53-.23.72a36.14,36.14,0,0,1-15.77,8.94,37,37,0,0,1-20.32-.38A36.49,36.49,0,0,1,33,88.61a.57.57,0,0,1,0-.92c3.1-3.11,6.21-6.22,9.28-9.32.38-.31.65-.66,1-.92Z"/><path class="e" d="M242.19,33.72a4.77,4.77,0,1,1-3.64,5.37,4.79,4.79,0,0,1,3.64-5.37Z"/><path class="e" d="M136.91,57.42A16.94,16.94,0,1,0,136,71.77,16.9,16.9,0,0,0,136.91,57.42ZM125.63,72.15A9.59,9.59,0,0,1,115,56.31a9.88,9.88,0,0,1,4.1-2,9.59,9.59,0,0,1,6.52,17.87Z"/><path class="e" d="M156,47.15c4.72-.5,10-1,14.12,1.68a40.1,40.1,0,0,1,16-1.91c2.38.26,4.95.92,6.56,2.83s1.88,4.3,1.88,6.6V78.4c0,.58-.08,1.35-.84,1.31-2.23,0-4.45.08-6.68,0-.65,0-.73-.77-.69-1.3V57.19a5.54,5.54,0,0,0-1-3.56,4.27,4.27,0,0,0-3.26-1.27,35,35,0,0,0-8.21,1c0,8.44,0,16.88,0,25.27a.87.87,0,0,1-1,1,54.85,54.85,0,0,1-7-.15,9.53,9.53,0,0,1-.15-1.5V57.16c0-1.46-.19-3.23-1.54-4.15s-3.14-.72-4.71-.65a49.24,49.24,0,0,0-6.18.92c-.27,8.71.08,17.42-.15,26.12a10.94,10.94,0,0,1-3.53.27c-1.31,0-2.65.08-3.95-.08-.65,0-.73-.76-.69-1.26V52A3,3,0,0,1,147,49.14a38.56,38.56,0,0,1,9-2Z"/><path class="e" d="M208.56,48a48,48,0,0,1,13-1.15,12.94,12.94,0,0,1,6.52,1.8,6.93,6.93,0,0,1,2.8,4.26,23.94,23.94,0,0,1,.34,5V75.91a19.26,19.26,0,0,1-.15,3.65,46,46,0,0,1-7.9,0,6.36,6.36,0,0,1-.19-1.46V57.19a5.43,5.43,0,0,0-.88-3.52,4.21,4.21,0,0,0-3.3-1.31,31.65,31.65,0,0,0-7.14.81c-.34.11-1.07.11-1,.69V76.53a16.63,16.63,0,0,1-.11,2.83c-.5.5-1.27.31-1.88.35-1.84,0-3.64.08-5.49-.08-.65,0-.76-.76-.72-1.3v-26a3.09,3.09,0,0,1,1.3-2.77A19.69,19.69,0,0,1,208.56,48Z"/><path class="e" d="M314.38,49.6c-2.11-2-5.14-2.53-7.94-2.76a45.46,45.46,0,0,0-14.73,1.49h0a5.92,5.92,0,0,0-2,.81c-.5.54-.12,1.27,0,1.88a15.86,15.86,0,0,0,.88,3.26,4,4,0,0,0,1.73-.19A33.64,33.64,0,0,1,305,52.78c1.11.2,2.45.58,2.91,1.73.5,1.34.27,2.84.31,4.26-3.49.34-7,.65-10.43,1-2.72.39-5.6,1.08-7.67,3a9.79,9.79,0,0,0-2.65,7.37c0,2.65.65,5.48,2.69,7.32,2.26,2.15,5.52,2.73,8.55,3a41.2,41.2,0,0,0,13.5-1.11,6.14,6.14,0,0,0,3.38-1.88,7.09,7.09,0,0,0,.95-4V56.31C316.53,54,316.18,51.33,314.38,49.6Zm-6.14,24.78a18.66,18.66,0,0,1-8.47.57,4.42,4.42,0,0,1-3.57-2.8,6.74,6.74,0,0,1,.38-5.1c.88-1.49,2.72-1.92,4.34-2.11,2.45-.27,4.91-.57,7.4-.8C308.28,67.55,308.36,71,308.24,74.38Z"/><path class="e" d="M253.93,47.64c2.07-.23,4.18-.07,6.29-.11.69,0,1.69,0,1.84.84,2.3,8.52,4.41,17,6.71,25.55a.71.71,0,0,0,.66-.65q2.82-12.09,5.63-24.17c.16-.5.23-1.07.66-1.38a9.25,9.25,0,0,1,2.53-.19c1.61,0,3.22-.08,4.83.08.81,0,.88,1,.65,1.61q-4.26,14.61-8.51,29.22c-.16.62-.5,1.38-1.27,1.31-3.37.07-6.75,0-10.08,0-.73,0-1.16-.65-1.35-1.27-2.72-9.17-5.48-18.33-8.21-27.54-.26-1.07-.92-2.18-.38-3.3Z"/><path class="e" d="M239.32,48.45c.46-.54,1.23-.35,1.84-.38a50.43,50.43,0,0,1,6,.15,8,8,0,0,1,.19,1.69c0,9.59,0,19.21,0,28.8.12.77-.61,1.15-1.26,1a50.29,50.29,0,0,1-6.72-.19,7,7,0,0,1-.19-1.46V50.83a8.21,8.21,0,0,1,.12-2.38Z"/></svg>