<svg xmlns="http://www.w3.org/2000/svg" width="128" height="64" fill="none"><rect width="128" height="64" fill="#fff" rx="6"/><path fill="#FF8000" d="M51.899 33.237c.326-2.922 2.468-5.002 5.456-5.002a5.32 5.32 0 0 1 5.46 5.002h4.743a10.19 10.19 0 0 0-20.322 0h4.663Zm-10.98 1.168a5.427 5.427 0 0 1-5.442 5.408h-.141a5.32 5.32 0 0 1-5.523-5.122v-.277H25V53h4.742V42.149h.066c1.323 1.296 3.117 2.204 5.73 2.204 5.589 0 9.943-4.223 10.071-9.944l-4.69-.004Zm-11.11-1.168a5.333 5.333 0 0 1 5.527-4.994 5.487 5.487 0 0 1 5.584 4.994h4.742c-.326-5.456-4.407-9.55-9.877-9.55-2.6 0-4.676.973-5.915 2.273h-.128v-1.877H25v9.154h4.808Zm65.948 10.728h4.743v-9.551h-4.743v9.55Zm-10.33 0h4.741v-9.551h-4.742v9.55Zm-5.524-9.551h-9.229c1.12.709 2.3 1.318 3.526 1.82 1.948.714 2.645 1.168 2.645 2.08 0 .913-1.04 1.428-2.34 1.428a5.368 5.368 0 0 1-3.769-1.56l-3.116 3.12c1.816 1.82 3.702 3.055 6.95 3.055 3.443 0 7.017-2.468 7.017-6.17a5.039 5.039 0 0 0-1.684-3.773Zm-17.025 0c-.128 3.186-2.336 5.395-5.523 5.395-3.116 0-5.39-2.275-5.522-5.395H47.09a10.203 10.203 0 0 0 20.402 0h-4.614ZM100.5 24.083h-4.743v9.154h4.743v-9.154Zm-15.074 9.154h4.742v-4.994h4.355v-4.16h-4.355V17h-4.742v7.083h-3.574v4.16h3.574v4.994Zm-6.823 0a13.766 13.766 0 0 0-2.988-1.366c-1.82-.648-2.644-1.102-2.644-2.142 0-.846.846-1.428 1.952-1.428a4.848 4.848 0 0 1 3.314 1.362l3.05-3.315c-1.815-1.688-3.702-2.596-6.364-2.596s-6.435 2.142-6.435 6.17a4.993 4.993 0 0 0 1.15 3.315h8.965ZM99.785 18.106c-.326 0-1.04.586-1.04 2.86.714-.586 1.428-1.762 1.428-2.406-.048-.308-.128-.454-.388-.454ZM96.731 19.6a.388.388 0 0 0-.388.441c0 .652.648 1.04 1.362 1.172v-.185c0-.775-.388-1.428-.974-1.428Zm-1.688 1.763c.582.441 1.04.913 1.56.913a.96.96 0 0 0 .516-.133 2.305 2.305 0 0 1-1.763-2.08 1.297 1.297 0 0 1 1.375-1.37c.46.023.897.207 1.234.52.326-1.3 1.106-2.015 1.948-2.015.842 0 1.173.582 1.173 1.428 0 1.04-.974 2.729-2.147 3.38a.727.727 0 0 0 .653.322c1.04 0 1.948-.907 2.534-1.621a.546.546 0 0 1 .388-.194.438.438 0 0 1 .44.44.485.485 0 0 1-.127.322c-.587.652-1.763 1.953-3.249 1.953a1.723 1.723 0 0 1-1.432-.714 1.97 1.97 0 0 1-1.547.727c-.653 0-1.3-.44-1.887-.913l-.758-.581a.798.798 0 0 0-.44-.26.477.477 0 0 1-.52-.534.441.441 0 0 1 .44-.44h.088c.276.026.542.114.78.255.274.152.523.344.741.569v.026Z"/></svg>