<svg xmlns="http://www.w3.org/2000/svg" xmlns:xlink="http://www.w3.org/1999/xlink" viewBox="0 0 320 120"><defs><style>.a{fill:none;}.b{fill:url(#a);}.c{fill:url(#b);}.d{fill:#575756;}</style><linearGradient id="a" x1="-1036.79" y1="-34.49" x2="-1035.43" y2="-34.49" gradientTransform="matrix(97.83, -68.5, -68.5, -97.83, 99133.59, -74305.28)" gradientUnits="userSpaceOnUse"><stop offset="0" stop-color="#a21007"/><stop offset="0.24" stop-color="#b90d11"/><stop offset="0.56" stop-color="#d0091b"/><stop offset="0.75" stop-color="#d9081f"/><stop offset="1" stop-color="#d9081f"/></linearGradient><linearGradient id="b" x1="-1029.36" y1="-61.71" x2="-1028" y2="-61.71" gradientTransform="matrix(32.73, -22.91, -22.91, -32.73, 32356.73, -25549.62)" xlink:href="#a"/></defs><rect class="a" width="320" height="120"/><path class="b" d="M203.42,5h0L170.9,14.8c-12.66,27.64-42.2,55.82-65.89,63s-32.81-9.39-20-37L72.33,44.62C66.47,57.41,63.48,68.71,63.48,78v.82c.13,20.42,14.43,30,39.34,22.32C139.17,90.22,184.22,47.08,203.42,5Z"/><path class="c" d="M134.53,25.85h0L90.71,39c-6.54,14.19-1.91,22.63,10.21,19S128.13,39.87,134.53,25.85Z"/><path class="d" d="M190.22,103.56a19.76,19.76,0,0,1-3.26-.4v7.76h-5.59V85.46a23.68,23.68,0,0,1,8.17-1.36c7.22,0,11,3.67,11,9.8,0,5.72-3.54,9.66-10.35,9.66m-.68-15.79a6.47,6.47,0,0,0-2.58.41V99.62a10.75,10.75,0,0,0,2.58.4c3.54,0,5.31-2.45,5.31-6.12s-1.77-6.13-5.31-6.13m24,16.07c-6.4,0-10.07-4.22-10.07-9.94s3.54-9.8,10.07-9.8,10.08,4.22,10.08,9.8-3.68,9.94-10.08,9.94m0-16.07c-3,0-4.49,2.32-4.49,6.13s1.5,6,4.49,6,4.5-2.18,4.5-6-1.5-6.13-4.5-6.13m19.33,16.07a20.63,20.63,0,0,1-7.21-1.36l1.77-3.68a14.65,14.65,0,0,0,5.17,1.22c2,0,3.41-.81,3.41-2s-1.5-2-3.41-2.58c-2.86-.82-6.4-2-6.4-5.72,0-3.27,3-5.58,8.17-5.58a15.38,15.38,0,0,1,6.81,1.36l-1.77,3.27A10.77,10.77,0,0,0,235,87.64c-1.9,0-3.13.81-3.13,1.9,0,1.5,1.5,2,3.4,2.59,2.86,1,6.54,1.9,6.54,5.72s-3.13,6-9,6m20.29-.14c-4.36,0-6.26-2-6.26-6V88H244V84.5h2.86V80.28l5.58-1.36V84.5h4.22V88h-4.22v9.3c0,1.5,1.09,2,2.58,2a5.69,5.69,0,0,0,1.64-.27v4a8.62,8.62,0,0,1-3.54.68m-75.29-9.8c0,6.12-3.94,9.8-11,9.8a23.21,23.21,0,0,1-8.17-1.36V76.75h5.58V84.5a10.35,10.35,0,0,1,3.13-.4c6.81,0,10.48,3.94,10.48,9.8m-5.71,0c0-3.54-1.77-6.13-5.31-6.13a6.55,6.55,0,0,0-2.59.41V99.62a6.92,6.92,0,0,0,2.59.4c3.4-.13,5.31-2.31,5.31-6.12"/></svg>