<svg xmlns="http://www.w3.org/2000/svg" width="128" height="64" fill="none"><rect width="128" height="64" fill="#fff" rx="6"/><path fill="url(#a)" d="m84.464 7-15.352 4.626c-5.976 13.048-19.92 26.35-31.103 29.74-11.183 3.389-15.488-4.433-9.441-17.466l-5.986 1.803c-2.766 6.037-4.178 11.372-4.178 15.757v.387c.062 9.64 6.812 14.162 18.57 10.536C54.135 47.228 75.4 26.864 84.465 7Z"/><path fill="url(#b)" d="M51.944 16.842 31.258 23.05c-3.087 6.698-.901 10.683 4.82 8.969 5.721-1.714 12.844-8.558 15.866-15.177Z"/><path fill="#575756" d="M78.233 53.526a9.329 9.329 0 0 1-1.54-.19V57h-2.638V44.981a11.18 11.18 0 0 1 3.856-.642c3.409 0 5.193 1.733 5.193 4.627 0 2.7-1.671 4.56-4.886 4.56m-.32-7.454a3.055 3.055 0 0 0-1.219.194v5.4c.397.112.806.175 1.218.189 1.671 0 2.507-1.157 2.507-2.89 0-1.732-.836-2.893-2.507-2.893Zm11.329 7.586c-3.022 0-4.754-1.992-4.754-4.692s1.671-4.627 4.754-4.627c3.082 0 4.758 1.993 4.758 4.627 0 2.634-1.737 4.692-4.758 4.692Zm0-7.586c-1.416 0-2.12 1.095-2.12 2.894 0 1.798.708 2.832 2.12 2.832 1.411 0 2.124-1.03 2.124-2.832 0-1.804-.708-2.894-2.124-2.894Zm9.124 7.586a9.742 9.742 0 0 1-3.403-.642l.836-1.737c.771.339 1.598.534 2.44.576.944 0 1.61-.383 1.61-.944 0-.562-.708-.945-1.61-1.218-1.35-.387-3.021-.944-3.021-2.7 0-1.544 1.416-2.635 3.856-2.635a7.257 7.257 0 0 1 3.215.642l-.835 1.544a5.087 5.087 0 0 0-2.068-.533c-.897 0-1.477.382-1.477.896 0 .709.708.945 1.605 1.223 1.35.472 3.087.897 3.087 2.7 0 1.803-1.478 2.833-4.249 2.833m9.578-.066c-2.058 0-2.955-.945-2.955-2.833V46.18h-1.34v-1.652h1.35v-1.992l2.634-.642v2.634h1.992v1.653h-1.992v4.39c0 .708.514.944 1.218.944.263-.005.523-.048.774-.128v1.889a4.069 4.069 0 0 1-1.671.32M72.384 48.97c0 2.89-1.86 4.627-5.193 4.627a10.957 10.957 0 0 1-3.857-.642V40.87h2.635v3.658c.48-.138.978-.201 1.477-.188 3.215 0 4.947 1.86 4.947 4.626m-2.695 0c0-1.671-.836-2.894-2.507-2.894a3.093 3.093 0 0 0-1.222.194v5.4c.391.14.806.204 1.222.189 1.605-.062 2.507-1.09 2.507-2.89Z"/><defs><linearGradient id="a" x1="20.061" x2="82.867" y1="46.649" y2="2.672" gradientUnits="userSpaceOnUse"><stop stop-color="#A21007"/><stop offset=".24" stop-color="#B90D11"/><stop offset=".56" stop-color="#D0091B"/><stop offset=".75" stop-color="#D9081F"/><stop offset="1" stop-color="#D9081F"/></linearGradient><linearGradient id="b" x1="25.992" x2="47.004" y1="29.558" y2="14.85" gradientUnits="userSpaceOnUse"><stop stop-color="#A21007"/><stop offset=".24" stop-color="#B90D11"/><stop offset=".56" stop-color="#D0091B"/><stop offset=".75" stop-color="#D9081F"/><stop offset="1" stop-color="#D9081F"/></linearGradient></defs></svg>