<svg xmlns="http://www.w3.org/2000/svg" width="128" height="64" fill="none"><rect width="128" height="64" fill="#fff" rx="6"/><path fill="#FFCD33" fill-rule="evenodd" d="M6.539 25.064A.539.539 0 0 0 6 25.6a15.007 15.007 0 0 0 14.02 14.412c.336.023.673 0 1.013 0a15.54 15.54 0 0 0 3.245-.415 7.32 7.32 0 0 0 5.756-7.174A5.157 5.157 0 0 0 30 31.7a7.395 7.395 0 0 0-14.464-1.284 7.399 7.399 0 0 0 4.161 4.742 4.046 4.046 0 1 1 2.95 1.276 8.061 8.061 0 0 1-7.355-4.734 8 8 0 0 1-.22-6.037l.045-.12v-.078a.4.4 0 0 0-.4-.4H6.538Z" clip-rule="evenodd"/><path fill="#FFCD33" fill-rule="evenodd" d="M33.694 25.468c.255.959.381 1.947.374 2.938a11.328 11.328 0 0 1-3.952 8.608 13.518 13.518 0 0 1-2.133 1.444 8.029 8.029 0 0 0 2.717-6.036 7.91 7.91 0 0 0-.254-2.01 8.012 8.012 0 0 0-.255-4.816.372.372 0 0 1-.022-.131.408.408 0 0 1 .404-.4h2.578a.55.55 0 0 1 .543.403Z" clip-rule="evenodd"/><path fill="#1F357A" d="M38.44 33.152c0 3.484 2.054 5.445 5.272 5.445a5.831 5.831 0 0 0 3.56-1.044v-1.931h-1.045a3.08 3.08 0 0 1-2.331.935c-1.61 0-2.452-1.044-2.452-3.495 0-2.268.966-3.368 2.59-3.368a2.893 2.893 0 0 1 2.01.688h1.123v-2.028a5.988 5.988 0 0 0-3.219-.749c-3.312 0-5.52 2.051-5.52 5.562m7.436-7.485-1.41 1.534h-1.872l-1.347-1.534v-.61h1.497l.857.584.846-.584h1.425v.584M50.535 35.023c.12 1.366.748 1.721 1.87 1.721.732.023 1.45-.187 2.055-.599h.857v1.643a6.31 6.31 0 0 1-3.342.794c-2.803 0-4.258-1.56-4.258-4.117 0-2.556 1.684-4.218 4.116-4.218 2.511 0 3.799 1.337 3.799 4.065 0 .322-.03.614-.03.703l-5.067.008Zm0-1.441h2.515c-.045-1.242-.46-1.64-1.194-1.64-.63 0-1.168.323-1.321 1.64ZM56.35 37.92v-1.808h.921a2.89 2.89 0 0 0 1.871.599c.749 0 1.194-.169 1.194-.584 0-.416-.273-.569-1.392-.719-1.718-.217-2.683-.812-2.683-2.5 0-1.762 1.38-2.62 3.402-2.62a6.026 6.026 0 0 1 2.732.536V32.6h-.876a3.173 3.173 0 0 0-1.778-.49c-.748 0-1.059.199-1.059.58 0 .382.352.51 1.381.629 1.871.232 2.788.797 2.788 2.519 0 1.721-1.123 2.74-3.6 2.74a5.927 5.927 0 0 1-2.915-.645M66.369 33.376l2.503-2.994h2.302v.663l-2.223 2.526 2.541 4.229v.658h-2.59l-1.87-3.143-.66.722v2.421h-2.761V27.725h1.747c.846 0 1.014.217 1.014 1.441v4.21M76.56 37.691c-.566.629-1.318.872-2.313.872-1.426 0-2.56-.808-2.56-2.406 0-1.7 1.302-2.511 3.174-2.511a7.39 7.39 0 0 1 1.545.153v-.554c0-.703-.374-1.025-1.362-1.025a3.47 3.47 0 0 0-1.916.535H72.3v-1.871a8.231 8.231 0 0 1 3.282-.644c2.403 0 3.585.797 3.585 2.792v5.426h-1.497c-.644 0-.95-.232-1.123-.748m-.153-2.62a5.215 5.215 0 0 0-.902-.078c-.748 0-1.197.291-1.197.965a.913.913 0 0 0 1.029.98 1.703 1.703 0 0 0 1.07-.441V35.09Zm-1.64-5.24v-.497l.506-1.673h2.653v.659l-1.556 1.52h-1.61M86.687 37.815v3.125h-2.758V30.382h1.916c.415 0 .658.154.767.872a3.48 3.48 0 0 1 2.47-.999c1.534 0 3.054.995 3.054 3.94 0 3.084-1.688 4.185-3.48 4.185a3.113 3.113 0 0 1-1.98-.565m0-5.24v3.709c.33.224.723.337 1.122.322.846 0 1.55-.374 1.55-2.16 0-1.785-.674-2.129-1.498-2.129a3.39 3.39 0 0 0-1.167.258M92.757 34.458c0-2.59 1.871-4.203 4.307-4.203 2.437 0 4.293 1.624 4.293 4.203 0 2.578-1.871 4.116-4.293 4.116-2.421 0-4.307-1.545-4.307-4.116Zm5.812.03c0-1.61-.614-2.347-1.497-2.347-.883 0-1.52.749-1.52 2.347 0 1.598.614 2.283 1.52 2.283s1.497-.69 1.497-2.283ZM101.937 37.92v-1.808h.936a2.886 2.886 0 0 0 1.871.599c.748 0 1.194-.169 1.194-.584 0-.416-.274-.569-1.396-.719-1.718-.217-2.68-.812-2.68-2.5 0-1.762 1.377-2.62 3.402-2.62a5.906 5.906 0 0 1 2.728.536V32.6h-.876a3.172 3.172 0 0 0-1.777-.49c-.767 0-1.056.199-1.056.58 0 .382.348.51 1.381.629 1.872.232 2.788.797 2.788 2.519 0 1.721-1.122 2.74-3.603 2.74a5.905 5.905 0 0 1-2.912-.645m5.58-9.655-1.411 1.594h-1.871l-1.348-1.594v-.599h1.497l.857.644.843-.644h1.425v.584M108.815 30.382h.876v-2.058h2.758v2.058h1.497v1.782h-1.497v3.675c0 .722.277.954 1 .954h.535v1.59a5.49 5.49 0 0 1-1.58.217c-1.654 0-2.713-.583-2.713-2.346V32.16h-.876v-1.778ZM119.395 37.691c-.569.629-1.321.872-2.316.872-1.423 0-2.56-.808-2.56-2.406 0-1.7 1.302-2.511 3.173-2.511a7.429 7.429 0 0 1 1.55.153v-.554c0-.703-.375-1.025-1.366-1.025a3.466 3.466 0 0 0-1.916.535h-.827v-1.871a8.228 8.228 0 0 1 3.282-.644c2.406 0 3.585.797 3.585 2.792v5.426h-1.497c-.644 0-.954-.232-1.104-.748m-.154-1.179v-1.445a5.234 5.234 0 0 0-.905-.078c-.749 0-1.194.292-1.194.965a.909.909 0 0 0 .481.885c.105.055.22.089.339.1a.74.74 0 0 0 .205 0c.399-.016.78-.172 1.074-.442"/></svg>