<svg xmlns="http://www.w3.org/2000/svg" width="128" height="64" fill="none"><rect width="128" height="64" fill="#FFD541" rx="6"/><path fill="#000" d="M110.942 30.43h-2.204v7.205h2.221l-.017-7.204ZM9.604 33.224c0-.356.03-.71.091-1.06a11.64 11.64 0 0 1-1.375-4.255.414.414 0 0 0-.414-.352H6.414A.414.414 0 0 0 6 27.97v.025c.414 3.728 2.208 6.935 4.719 8.803a6.214 6.214 0 0 1-1.115-3.567m16.57-5.228v-.033a.414.414 0 0 0-.413-.414h-4.433a.414.414 0 0 0-.414.414v1.384a.414.414 0 0 0 .414.414h2.142c-1.115 4.043-4.11 6.935-7.635 6.935a3.463 3.463 0 1 1 2.402-.966 7.191 7.191 0 0 0 2.018-1.325c.515-.48.971-1.02 1.359-1.608a5.8 5.8 0 1 0-5.767 6.215c5.274-.017 9.624-4.81 10.315-11.028m10.026 2.854c0 1.06-.605 1.59-1.815 1.59h-.895v-3.144h.895c1.21 0 1.815.518 1.815 1.554Zm2.39-.083c0-2.14-1.27-3.212-3.811-3.215h-3.559v10.088h2.27v-3.476h1.082a4.337 4.337 0 0 0 2.924-.94 3.067 3.067 0 0 0 1.094-2.457Zm5.493 3.236c0 1.42-.533 2.13-1.599 2.133-1.118 0-1.657-.692-1.657-2.071a2.403 2.403 0 0 1 .414-1.533 1.488 1.488 0 0 1 1.243-.543c1.072 0 1.609.673 1.612 2.018m1.21 2.792a3.778 3.778 0 0 0 1.052-2.834 3.583 3.583 0 0 0-1.02-2.668 3.808 3.808 0 0 0-2.82-1.023 4.043 4.043 0 0 0-2.9 1.007 3.666 3.666 0 0 0-1.07 2.796 3.65 3.65 0 0 0 1.032 2.738 3.865 3.865 0 0 0 2.83 1.011 3.906 3.906 0 0 0 2.9-1.04m4.888-7.456 1.657-2.287H50.4l-1.098 1.326-1.09-1.326h-1.44l1.656 2.287h1.757Zm1.963 6.14a2.049 2.049 0 0 0-.136-.788 1.72 1.72 0 0 0-.415-.576 2.554 2.554 0 0 0-.621-.414 6.224 6.224 0 0 0-.804-.34c-.161-.054-.327-.112-.493-.161a3.637 3.637 0 0 1-.455-.187 1.116 1.116 0 0 1-.332-.24.493.493 0 0 1-.124-.34.415.415 0 0 1 .083-.265.604.604 0 0 1 .232-.228c.108-.054.224-.091.344-.112.136-.028.275-.042.414-.041.319.004.636.046.944.124.318.079.622.203.904.369v-1.723a7.605 7.605 0 0 0-.97-.212 6.317 6.317 0 0 0-.97-.074c-.396-.001-.792.042-1.18.128a3.287 3.287 0 0 0-1.007.414c-.283.18-.52.424-.691.713a1.95 1.95 0 0 0-.274 1.036c-.005.26.034.519.116.766.075.21.19.403.34.568.16.165.344.305.547.414.243.136.496.252.758.348.178.07.36.132.555.19.182.051.36.115.534.191.152.056.292.139.415.244a.456.456 0 0 1 .157.357.526.526 0 0 1-.344.493c-.295.12-.613.175-.932.161a3.598 3.598 0 0 1-1.027-.161 4.557 4.557 0 0 1-1.119-.464v1.802c.706.249 1.451.372 2.2.364.418.001.834-.043 1.243-.132a3.288 3.288 0 0 0 1.06-.414c.302-.183.556-.436.738-.738.193-.331.29-.71.281-1.094m3.513 2.378c.508.03 1.016-.06 1.483-.26v-1.658c-.22.13-.47.2-.724.203-.597 0-.891-.373-.887-1.122v-2.9h1.616v-1.657h-1.616v-2.184l-2.216.634v1.554H52.12v1.657h1.169v3.314c0 1.627.783 2.44 2.349 2.44m6.16-3.103c.013.402-.128.793-.394 1.094a1.314 1.314 0 0 1-1.019.435 1.019 1.019 0 0 1-.712-.245.803.803 0 0 1-.266-.621c0-.56.36-.882 1.082-.978l1.309-.17v.485Zm0 2.929h2.1v-4.337c0-2.052-1.027-3.077-3.082-3.074a6.48 6.48 0 0 0-1.463.182 5.7 5.7 0 0 0-1.267.414v1.657a4.346 4.346 0 0 1 2.448-.766c.854 0 1.28.394 1.28 1.18l-1.96.287c-1.656.215-2.485 1.021-2.485 2.419a2.134 2.134 0 0 0 .6 1.587 2.259 2.259 0 0 0 1.658.592 2.345 2.345 0 0 0 2.146-1.21h.029l-.004 1.069Zm12.556-1.45c.229-.436.34-.924.323-1.417a2.964 2.964 0 0 0-.182-1.073 2.588 2.588 0 0 0-.53-.828 3.887 3.887 0 0 0-.829-.646 9.5 9.5 0 0 0-1.09-.539c-.294-.12-.559-.24-.795-.356a4.311 4.311 0 0 1-.596-.348 1.57 1.57 0 0 1-.377-.381.828.828 0 0 1 0-.874c.087-.131.204-.24.34-.32a1.86 1.86 0 0 1 .534-.207c.23-.05.465-.074.7-.074.2.003.398.017.596.041.213.03.423.074.63.129.212.058.418.132.617.223.194.085.378.187.551.307v-2.071a5.606 5.606 0 0 0-1.122-.294 9.263 9.263 0 0 0-1.396-.096c-.512 0-1.022.058-1.52.174a3.923 3.923 0 0 0-1.243.539 2.697 2.697 0 0 0-.912.92c-.22.416-.328.883-.315 1.354-.015.622.19 1.23.58 1.715.48.538 1.085.95 1.76 1.202.311.128.602.252.867.372.24.108.472.236.692.381.176.112.333.252.463.415.113.154.17.34.166.53a.759.759 0 0 1-.108.414.882.882 0 0 1-.319.323 1.656 1.656 0 0 1-.534.216 3.022 3.022 0 0 1-.746.079c-.494 0-.985-.087-1.45-.257a4.255 4.255 0 0 1-1.334-.77v2.249c.41.201.847.34 1.297.414a8.44 8.44 0 0 0 1.578.14 7.36 7.36 0 0 0 1.537-.153 3.859 3.859 0 0 0 1.28-.51c.363-.231.662-.55.87-.927m1.115 1.417h2.216V26.955h-2.22l.004 10.676Zm8.472-3.633c0 1.42-.533 2.13-1.6 2.133-1.118 0-1.67-.69-1.656-2.071a2.403 2.403 0 0 1 .434-1.533 1.466 1.466 0 0 1 1.223-.539c1.071 0 1.608.673 1.611 2.018m2.266-.041a3.562 3.562 0 0 0-1.023-2.668 3.825 3.825 0 0 0-2.821-1.028 4.047 4.047 0 0 0-2.9 1.007 3.664 3.664 0 0 0-1.069 2.796 3.648 3.648 0 0 0 1.032 2.738 4.49 4.49 0 0 0 5.704-.04 3.815 3.815 0 0 0 1.048-2.835m4.752 3.7 2.68-7.204h-2.324l-1.28 4.482c-.12.407-.208.822-.261 1.243h-.058a6.764 6.764 0 0 0-.249-1.284l-1.242-4.437h-2.378l2.552 7.204 2.56-.004Zm4.449-4.333c.042-.41.208-.795.476-1.106a1.2 1.2 0 0 1 .924-.444c.829 0 1.243.518 1.243 1.55h-2.643Zm0 1.363h4.698v-.937a3.625 3.625 0 0 0-.862-2.54 3.133 3.133 0 0 0-2.444-.919 3.472 3.472 0 0 0-2.56 1.044 3.873 3.873 0 0 0-1.04 2.846 3.355 3.355 0 0 0 3.67 3.666 5.475 5.475 0 0 0 2.598-.534V35.68a3.906 3.906 0 0 1-2.072.563c-1.242 0-1.905-.526-1.976-1.57m10.08 2.97h2.216v-4.42c0-1.977-.797-2.966-2.39-2.966a2.541 2.541 0 0 0-2.312 1.313h-.041v-1.14h-2.225v7.205h2.225v-4.11a1.653 1.653 0 0 1 .372-1.122 1.194 1.194 0 0 1 .949-.448c.795 0 1.197.56 1.197 1.657l.009 4.031Zm5.306-8.666a1.065 1.065 0 0 0 .352-.829 1.026 1.026 0 0 0-.352-.828 1.515 1.515 0 0 0-1.847 0 1.045 1.045 0 0 0-.357.828 1.07 1.07 0 0 0 .357.829c.251.227.581.347.919.335.339.012.67-.103.928-.323m1.376 8.7c0 1.105-.35 1.657-1.048 1.657a1.745 1.745 0 0 1-.829-.261v1.744c.34.132.7.203 1.065.211a2.737 2.737 0 0 0 2.249-.957 3.894 3.894 0 0 0 .779-2.552v-7.1h-2.22l.004 7.258Zm2.046-8.7a1.064 1.064 0 0 0 .352-.828 1.042 1.042 0 0 0-.352-.828 1.515 1.515 0 0 0-1.839 0 1.042 1.042 0 0 0-.356.828 1.084 1.084 0 0 0 .356.829 1.465 1.465 0 0 0 1.847 0m5.721 4.316h-2.647c.042-.407.207-.791.473-1.102a1.202 1.202 0 0 1 .932-.448c.828 0 1.242.518 1.242 1.55Zm2.072 1.363v-.94a3.61 3.61 0 0 0-.862-2.54 3.128 3.128 0 0 0-2.452-.92 3.466 3.466 0 0 0-2.56 1.044 3.855 3.855 0 0 0-1.044 2.846 3.353 3.353 0 0 0 2.214 3.487 3.36 3.36 0 0 0 1.46.18 5.468 5.468 0 0 0 2.593-.535V35.68a3.895 3.895 0 0 1-2.071.563c-1.243 0-1.906-.526-1.976-1.57l4.698-.004Z"/></svg>