<svg xmlns="http://www.w3.org/2000/svg" viewBox="0 0 323.13 120.41"><defs><style>.a{fill:none;}.b{fill:#ffd541;}</style></defs><rect class="a" width="323.13" height="120.41"/><rect class="b" x="11.56" y="20.21" width="300" height="80" rx="9"/><path d="M42.3,51.56H56.46s.22,9.07-3.7,14.81c-3.1,4.55-7.41,8.4-13.72,8.4C31,74.77,26.41,69,26.41,63.28a11.33,11.33,0,0,1,11.32-11.5c7.19,0,9.36,7.52,8.28,10.83,0-3.53-2.4-8.84-8.28-8.84-11.32,0-10.67,16.58-.11,16.58,5.77,0,9.69-5.3,9.69-10.39,0-5.53-5-8.4-5-8.4"/><path d="M21.62,52.22H24a44.42,44.42,0,0,0,.66,5.09,17.19,17.19,0,0,0,1.48,3.93A9.28,9.28,0,0,0,26,64.16a12.62,12.62,0,0,0,1.07,4A22.73,22.73,0,0,1,22.71,60c-1.51-5-1.09-7.74-1.09-7.74"/><path d="M70.3,54.43a3.5,3.5,0,0,1,1.92.6,4.07,4.07,0,0,1,1.24,3.28,5,5,0,0,1-.84,2.91,4.45,4.45,0,0,1-2.14,1.62,3.93,3.93,0,0,0,1.11.09c4.6,0,7.48-2.31,7.48-5.94a5.18,5.18,0,0,0-2-4.3c-1.32-1-2.67-1.26-6-1.26H63.46a2.93,2.93,0,0,1,1,1.14c.3.57.33.93.33,2.86v12a7.3,7.3,0,0,1-.21,2.61,3,3,0,0,1-1.08,1.38h8.19c-1-1.08-1.35-2.07-1.35-4Z"/><path d="M91.09,54.1A4.59,4.59,0,0,1,95,56.2a11.52,11.52,0,0,1,1.71,6.22,7.85,7.85,0,0,1-.78,3.67,5,5,0,0,1-4.41,2.64A4.81,4.81,0,0,1,88,67.17a11.08,11.08,0,0,1-2.17-6.58,8.15,8.15,0,0,1,1.48-4.75,4.81,4.81,0,0,1,3.75-1.74M91.51,51C84.78,51,80,55.36,80,61.49s4.56,10.36,11,10.36c6.82,0,11.53-4.29,11.53-10.48S98.17,51,91.51,51"/><path d="M110.64,46.75l-4.36-2.2-2,1.2,6.31,4.09L117,45.75l-2-1.2Zm-6.31,24a16.18,16.18,0,0,0,5.89,1.08,9.3,9.3,0,0,0,5.91-1.59,5.8,5.8,0,0,0,2.46-4.93,5.54,5.54,0,0,0-2-4.29c-1.08-1-1.65-1.35-4.35-2.52-2.43-1.11-2.92-1.5-2.92-2.52,0-1.21,1-2,2.68-2a8.28,8.28,0,0,1,4.29,1.44V51.91a14.65,14.65,0,0,0-5.13-.9c-4.57,0-7.54,2.34-7.54,5.92A5.74,5.74,0,0,0,105.41,61c.87.78,1.59,1.2,4.3,2.49s3.24,1.8,3.24,3c0,1.38-1.17,2.19-3.18,2.19a10.62,10.62,0,0,1-6.46-2.31Z"/><path d="M129,54.85a6.07,6.07,0,0,1,1.68-.18A2.36,2.36,0,0,1,133.1,56l1-4.75a28,28,0,0,1-5,.15h-6l-2.25,0-1,0-.48,0L118.24,56a5.44,5.44,0,0,1,3.72-1.3,6.11,6.11,0,0,1,1.47.12V67.47a7.3,7.3,0,0,1-.21,2.61,3,3,0,0,1-1.08,1.38h8.2c-1-1.08-1.35-2.07-1.35-4Z"/><path d="M143.76,62.57h-4.17l2-6Zm1,2.82.81,2.41C146,69,146,69,146,69.48c0,.81-.24,1.17-1.23,2H154a8,8,0,0,1-2.5-4l-5.88-16h-7.45c.87.69,1.17,1.14,1.17,1.83,0,.42,0,.54-.57,2.1l-4.09,11.9a8.54,8.54,0,0,1-2.34,4.2h6.25l-.27-.24c-.66-.63-.84-1-.84-1.56a5.65,5.65,0,0,1,.45-1.86l.84-2.41Z"/><path d="M161.87,70.77a16.18,16.18,0,0,0,5.89,1.08,9.3,9.3,0,0,0,5.91-1.59,5.79,5.79,0,0,0,2.46-4.92,5.51,5.51,0,0,0-1.95-4.3c-1.08-1-1.65-1.35-4.35-2.52-2.43-1.11-2.91-1.5-2.91-2.52,0-1.21,1.05-2,2.67-2a8.28,8.28,0,0,1,4.29,1.44V51.91a14.65,14.65,0,0,0-5.13-.9c-4.57,0-7.54,2.34-7.54,5.92A5.74,5.74,0,0,0,163,61c.87.78,1.59,1.2,4.3,2.49s3.24,1.81,3.24,3c0,1.38-1.17,2.19-3.18,2.19a10.62,10.62,0,0,1-6.46-2.31Z"/><path d="M183.85,55.42a7.08,7.08,0,0,1,.22-2.61,2.93,2.93,0,0,1,1.07-1.38H177a2.93,2.93,0,0,1,1,1.14c.3.57.33.93.33,2.85V67.5a7.19,7.19,0,0,1-.21,2.58A2.87,2.87,0,0,1,177,71.46h13.27l1.14-4.23a6.64,6.64,0,0,1-4.35,1.32,7.57,7.57,0,0,1-3.22-.51Z"/><path d="M202.38,54.1a4.61,4.61,0,0,1,3.88,2.1A11.52,11.52,0,0,1,208,62.42a7.85,7.85,0,0,1-.78,3.67,5,5,0,0,1-4.42,2.64,4.81,4.81,0,0,1-3.45-1.56,11.07,11.07,0,0,1-2.16-6.58,8.22,8.22,0,0,1,1.47-4.75,4.81,4.81,0,0,1,3.75-1.74M202.8,51c-6.72,0-11.5,4.32-11.5,10.45s4.57,10.36,11,10.36c6.82,0,11.54-4.29,11.54-10.48S209.47,51,202.8,51"/><path d="M224.48,66.33l-4-11.57a11.21,11.21,0,0,1-.81-3.09v-.24h-6.85a6.49,6.49,0,0,1,1.38,2.37l4.87,13.46c.87,2.49,2.25,3.54,6.51,4.83l7-20.66h-5.43c1,.78,1.32,1.26,1.32,2.1a4.54,4.54,0,0,1-.3,1.44Z"/><path d="M239.65,62.3h1.8a2.26,2.26,0,0,1,2.29,1.11V59.18a4.78,4.78,0,0,1-.91.15h-3.18V54.4h1.92c1.71,0,2.47.3,3.22,1.26V51.28a3.44,3.44,0,0,1-1,.15H232.8a2.84,2.84,0,0,1,1,1.14c.3.57.33.93.33,2.83V67.47a7.41,7.41,0,0,1-.21,2.61,3,3,0,0,1-1.08,1.38h13.46l1.11-4.59c-1.11,1.2-2.31,1.65-4.48,1.65a8.26,8.26,0,0,1-3.24-.45Z"/><path d="M251.9,59l6.19,8.08c1.86,2.46,2.19,2.79,4,3.75a10.64,10.64,0,0,0,3.76,1.29V55.48c0-2,.33-3,1.35-4h-5.83c1,1,1.35,2.07,1.35,4v8.26l-9.36-12.31H247a7.7,7.7,0,0,1,1.41,2.22,5.43,5.43,0,0,1,.33,2.5V67.41c0,2-.33,3-1.35,4h5.83c-1-1-1.36-2.07-1.36-4Z"/><path d="M276.46,71.46a2.93,2.93,0,0,1-1-1.14c-.3-.6-.33-.9-.33-2.85v-12a7.19,7.19,0,0,1,.21-2.61,3,3,0,0,1,1.08-1.38h-8.13a2.93,2.93,0,0,1,1,1.14c.3.57.33.93.33,2.85v12a7.3,7.3,0,0,1-.21,2.61,3.08,3.08,0,0,1-1.08,1.38Z"/><path d="M284.63,55.42a7.3,7.3,0,0,1,.21-2.61,3,3,0,0,1,1.08-1.38h-8.14a2.93,2.93,0,0,1,1,1.14c.3.57.34.93.34,2.85v14c0,3.21-.13,4-.79,5.55a12.61,12.61,0,0,1-1.65,2.89,12.13,12.13,0,0,0,5.23-1.9c2.07-1.22,2.76-2.46,2.76-4.95Z"/><path d="M293.85,62.3h1.8a2.24,2.24,0,0,1,2.28,1.11V59.18a4.58,4.58,0,0,1-.9.15h-3.18V54.4h1.92c1.71,0,2.46.3,3.21,1.26V51.28a3.39,3.39,0,0,1-1.05.15H287a2.93,2.93,0,0,1,1,1.14c.3.57.33.93.33,2.83V67.47a7.41,7.41,0,0,1-.21,2.61A3,3,0,0,1,287,71.46h13.45l1.11-4.59c-1.11,1.2-2.31,1.65-4.47,1.65a8.26,8.26,0,0,1-3.24-.45Z"/></svg>