<svg xmlns="http://www.w3.org/2000/svg" width="128" height="64" fill="none"><rect width="128" height="64" fill="#FFD403" rx="6"/><path fill="#000" d="M46.607 14.207c.371.002.518.002.884.008a.392.392 0 0 1 .393.392.382.382 0 0 1-.35.392c-7.928 1.081-13.76 7.973-13.515 15.97.245 7.997 6.487 14.52 14.465 15.115 7.98.595 15.12-4.929 16.548-12.801a.388.388 0 0 1 .363-.349c.192.003.35.154.361.346a18.963 18.963 0 0 1-35.663 8.866L14 14.206h32.607Zm19.106 2.87c.378.02.753.068 1.124.145l-.573 1.948a2.12 2.12 0 0 0-1.2-.504 1.853 1.853 0 0 0-1.358.647 2.896 2.896 0 0 0-.772 1.475l-.864 4.624-1.922.004 1.529-8.186h1.919l-.13.711a3.394 3.394 0 0 1 2.247-.865Zm-11.95-2.863-.795 4.319h4.448l.796-4.319h2.025l-2.069 11.197h-2.01l.956-5.212h-4.449l-.959 5.212H49.69l2.056-11.197h2.018Zm15.593 3.013 1.376 4.96 2.881-4.96h2.216l-5.273 8.338h-.688l-2.507-8.338h1.995Zm11.014-.154a8.418 8.418 0 0 1 2.988.382l-.948 5.022a3.378 3.378 0 0 0-.051.628 6.887 6.887 0 0 0 .259 2.308h-1.193c-.357 0-.622-.272-.795-.818a3.326 3.326 0 0 1-2.438.97 2.757 2.757 0 0 1-2.064-.748 2.871 2.871 0 0 1-.726-2.087 5.961 5.961 0 0 1 1.406-3.99 4.475 4.475 0 0 1 3.562-1.667Zm-.169 1.562c-.857 0-1.644.473-2.047 1.229a5.204 5.204 0 0 0-.765 2.82 1.159 1.159 0 0 0 1.3 1.322c.628-.051 1.179-.441 1.436-1.017.413-.677.78-2.078 1.1-4.2a3.824 3.824 0 0 0-1.023-.154Zm25.231-.744-1.338-1.151a13.639 13.639 0 0 1-1.957 1.956l-1.444 1.254.986-6.08h-1.88l-2.005 11.542h1.919l.543-3.104.323-.268 2.591 3.371h2.263l-3.378-4.425c2.028-1.788 3.154-2.82 3.377-3.095Zm-16.485-3.134-.573 2.469h2.24l-.329 1.536H88.03l-.829 3.632c-.06.238-.093.48-.1.726 0 .56.317.84.948.84a4.216 4.216 0 0 0 1.377-.397v1.72a7.167 7.167 0 0 1-2.247.283 1.996 1.996 0 0 1-1.498-.582 2.076 2.076 0 0 1-.565-1.513c0-.204.022-.406.068-.604l.925-4.105h-.948l.328-1.536h.948l.324-1.674 2.186-.795Zm5.957 2.316c.854.055 1.69.273 2.462.642l-.887 1.75a2.678 2.678 0 0 0-1.681-.802c-.291-.007-.578.07-.826.221a.656.656 0 0 0-.344.58c-.004.301.27.592.826.872.554.28.98.504 1.276.672.293.162.543.393.726.673.19.287.289.625.282.97a2.542 2.542 0 0 1-1.016 2.134c-.75.544-1.66.82-2.586.78a5.124 5.124 0 0 1-2.63-.758l1.01-1.735a2.786 2.786 0 0 0 1.874.902c.343.014.68-.088.956-.29a.938.938 0 0 0 .382-.787c0-.275-.24-.538-.718-.787-.479-.249-.902-.476-1.268-.68a2.386 2.386 0 0 1-.84-.757 1.83 1.83 0 0 1-.284-.994 2.238 2.238 0 0 1 .948-1.894 3.81 3.81 0 0 1 2.338-.712Zm-.714 15.62a2.25 2.25 0 0 0-.952 1.904c-.003.353.096.7.284.998.217.318.506.578.845.76a50.9 50.9 0 0 0 1.274.683c.482.25.722.514.722.792a.94.94 0 0 1-.384.79 1.524 1.524 0 0 1-.96.292 2.799 2.799 0 0 1-1.881-.905l-1.014 1.746c.795.488 1.708.75 2.641.76a4.124 4.124 0 0 0 2.595-.783 2.553 2.553 0 0 0 1.022-2.142 1.704 1.704 0 0 0-.284-.976 2.044 2.044 0 0 0-.73-.675 30.03 30.03 0 0 0-1.282-.676c-.558-.281-.834-.573-.83-.875a.658.658 0 0 1 .346-.582c.25-.153.537-.23.83-.223a2.69 2.69 0 0 1 1.689.806l.89-1.757a6.722 6.722 0 0 0-2.472-.647 3.823 3.823 0 0 0-2.35.71Zm18.865-10.216.945-5.022a8.42 8.42 0 0 0-2.986-.382 4.479 4.479 0 0 0-3.562 1.667 5.97 5.97 0 0 0-1.406 3.99 2.87 2.87 0 0 0 .726 2.087 2.758 2.758 0 0 0 2.064.748 3.323 3.323 0 0 0 2.438-.97c.173.546.438.818.795.818h1.192a6.894 6.894 0 0 1-.258-2.308c-.003-.21.015-.42.052-.628Zm-2.288.512a1.725 1.725 0 0 1-1.435 1.017 1.16 1.16 0 0 1-1.299-1.322 5.21 5.21 0 0 1 .764-2.82 2.323 2.323 0 0 1 2.049-1.23c.346.005.691.057 1.024.154-.321 2.123-.689 3.524-1.103 4.201Zm-19.597 9.82a3.388 3.388 0 0 0-2.45-.83 4.397 4.397 0 0 0-3.44 1.535 5.474 5.474 0 0 0-1.359 3.763 3.186 3.186 0 0 0 .868 2.403c.668.585 1.54.883 2.426.829a4.389 4.389 0 0 0 3.47-1.546 5.607 5.607 0 0 0 1.344-3.815 3.086 3.086 0 0 0-.86-2.34Zm-1.843 5.028a2.146 2.146 0 0 1-1.897 1.106c-1.008 0-1.513-.586-1.513-1.758a4.57 4.57 0 0 1 .707-2.542 2.168 2.168 0 0 1 1.889-1.098c1.007 0 1.511.553 1.511 1.658a4.853 4.853 0 0 1-.697 2.634Zm-9.658-5.858a3.556 3.556 0 0 0-2.12.791 3.971 3.971 0 0 0-.176-.783l-1.875.337c.09.447.137.902.138 1.358 0 .333-.031.664-.093.991l-1.685 8.99 2.03-.755.534-2.776a3.515 3.515 0 0 0 1.616.376 4.58 4.58 0 0 0 3.57-1.497 5.51 5.51 0 0 0 1.352-3.84c.001-2.128-1.095-3.192-3.29-3.192Zm.476 5.996a2.903 2.903 0 0 1-2.311.914c-.41.03-.813-.112-1.113-.391l.767-4.062a2.3 2.3 0 0 1 .76-.545c.274-.15.578-.237.89-.253a1.81 1.81 0 0 1 1.33.475c.33.33.505.785.483 1.251.06.94-.226 1.87-.806 2.611Zm32.899-.568.953-5.044a8.465 8.465 0 0 0-3.002-.384 4.493 4.493 0 0 0-3.578 1.674 5.989 5.989 0 0 0-1.413 4.008 2.884 2.884 0 0 0 .729 2.096c.557.527 1.308.8 2.074.752a3.338 3.338 0 0 0 2.449-.976c.172.548.438.822.798.822h1.198a6.907 6.907 0 0 1-.258-2.32c-.003-.21.014-.42.05-.628Zm-2.295.517c-.259.579-.812.97-1.444 1.021a1.166 1.166 0 0 1-1.305-1.33 5.238 5.238 0 0 1 .768-2.834 2.333 2.333 0 0 1 2.057-1.236 3.83 3.83 0 0 1 1.03.154c-.322 2.134-.691 3.542-1.106 4.222v.003Zm-6.652-8.272-2.198.798-.324 1.682h-.951l-.331 1.543h.953l-.929 4.123c-.046.199-.07.402-.07.606a2.089 2.089 0 0 0 .569 1.52c.398.397.944.608 1.505.583a7.215 7.215 0 0 0 2.257-.284v-1.726a4.223 4.223 0 0 1-1.382.4c-.635 0-.952-.282-.952-.845.007-.246.04-.49.1-.73l.829-3.647h2.264l.33-1.543h-2.25l.58-2.48Zm-7.165.308-1.137-1.005H94.55l1.206 2.144h1.875l2.064-2.144h-1.22l-1.542 1.005Z"/></svg>