<svg xmlns="http://www.w3.org/2000/svg" width="128" height="64" fill="none"><rect width="128" height="64" fill="#fff" rx="6"/><path fill="#fff" d="M92.088 38.222a22.614 22.614 0 0 0-3.171-11.58c.921-6.59-.808-12.619-5.297-16.122a13.52 13.52 0 0 0-6-2.641c-3.597-3.766-8.081-5.945-12.912-5.877a16.226 16.226 0 0 0-9.26 3.221 19.155 19.155 0 0 0-11.153 3.414c-10.584 7.487-11.237 24.828-1.433 38.701 9.806 13.873 25.73 18.14 37.25 11.733a15.242 15.242 0 0 0 4.994-4.46 22.832 22.832 0 0 0 6.982-16.39Z"/><path fill="url(#a)" d="M81.278 20.27c9.814 13.908 10.375 32.404-1.14 38.81-11.516 6.406-27.464 2.176-37.275-11.743-9.81-13.918-9.152-31.215 1.432-38.71C54.878 1.13 71.447 6.36 81.278 20.27Z" style="mix-blend-mode:multiply"/><path fill="url(#b)" d="M86 29.803c.278 15.562-8.8 28.347-20.275 28.555-11.475.208-21.008-12.244-21.306-27.806-.297-15.563 8.815-28.347 20.29-28.55C76.184 1.8 85.737 14.24 86 29.803Z" style="mix-blend-mode:multiply"/><path fill="url(#c)" d="M82.233 41.77c-8.671 11.087-22.089 15.076-29.982 8.917-7.892-6.158-7.272-20.156 1.388-31.244C62.3 8.354 75.728 4.361 83.621 10.525c7.893 6.163 7.273 20.155-1.388 31.244Z" style="mix-blend-mode:multiply"/><path fill="#fff" d="M92.088 38.221A22.733 22.733 0 1 1 69.351 15.49a22.682 22.682 0 0 1 22.737 22.732Z"/><path fill="url(#d)" d="M54.06 30.912c.228-.034.585-.074 1.06-.128.6-.065 1.202-.092 1.805-.085.543 0 1.085.05 1.62.15a4.177 4.177 0 0 1 1.486.569c.454.288.823.691 1.07 1.169.297.617.437 1.298.406 1.982.02.61-.09 1.216-.326 1.779-.19.442-.484.831-.857 1.135-.363.281-.78.486-1.225.604a5.63 5.63 0 0 1-1.412.178h-.584a2.76 2.76 0 0 1-.411-.054v3.518c-.265.05-.502.084-.714.103-.207 0-.406.03-.585.03-.44-.006-.88-.05-1.313-.133l-.02-10.817Zm2.612 5.099c.08.03.166.046.253.044.126.008.254.008.38 0a1.367 1.367 0 0 0 1.462-1.526 2.036 2.036 0 0 0-.124-.763c-.08-.19-.201-.36-.356-.495a1.332 1.332 0 0 0-.53-.263 2.645 2.645 0 0 0-.634-.04h-.208a1.965 1.965 0 0 0-.243 0v3.043Z"/><path fill="url(#e)" d="M61.998 37.87a5.34 5.34 0 0 1 .253-1.685c.15-.482.402-.926.738-1.303.335-.369.75-.655 1.214-.838a4.389 4.389 0 0 1 1.674-.298 4.458 4.458 0 0 1 1.695.298c.464.183.879.47 1.214.837.336.378.588.822.738 1.303.172.545.256 1.114.249 1.685a5.159 5.159 0 0 1-.249 1.655 3.47 3.47 0 0 1-.738 1.284 3.277 3.277 0 0 1-1.214.822c-.541.202-1.117.3-1.695.287a4.493 4.493 0 0 1-1.674-.287 3.275 3.275 0 0 1-1.214-.822 3.469 3.469 0 0 1-.738-1.284 5.15 5.15 0 0 1-.253-1.655Zm5.197 0a2.754 2.754 0 0 0-.327-1.487 1.095 1.095 0 0 0-.99-.496 1.086 1.086 0 0 0-.992.495 3.572 3.572 0 0 0 0 2.944 1.082 1.082 0 0 0 .992.495 1.09 1.09 0 0 0 .99-.495 2.74 2.74 0 0 0 .327-1.457Z"/><path fill="url(#f)" d="M74.836 36.844c.282.072.558.17.823.292.236.11.45.261.634.446.183.19.325.416.416.664.11.305.162.627.154.952.002.37-.08.739-.239 1.075a2.304 2.304 0 0 1-.693.857c-.338.26-.72.454-1.13.575a5.103 5.103 0 0 1-1.55.212 8.126 8.126 0 0 1-1.343-.104 7.661 7.661 0 0 1-1.313-.366c.06-.722.25-1.427.56-2.081.648.297 1.352.45 2.065.45h.377c.12-.006.238-.028.352-.064a.796.796 0 0 0 .248-.144.329.329 0 0 0 .094-.242.316.316 0 0 0-.194-.297 2.762 2.762 0 0 0-.45-.174l-1.025-.287a2.908 2.908 0 0 1-1.334-.769 2.036 2.036 0 0 1-.525-1.485 2.393 2.393 0 0 1 .238-1.071 2.48 2.48 0 0 1 .689-.828 3.182 3.182 0 0 1 1.035-.495c.43-.125.876-.187 1.324-.183.42.003.84.045 1.253.124.455.079.905.195 1.342.346-.025.352-.09.7-.193 1.036-.1.34-.227.672-.38.991a6.862 6.862 0 0 0-.992-.302c-.345-.085-.7-.13-1.055-.134-.496 0-.71.129-.71.391a.282.282 0 0 0 .164.258c.12.063.246.113.377.149l.981.207Z"/><path fill="url(#g)" d="M79.79 36.056h-2.234a3.569 3.569 0 0 1-.099-.565V34.5c.02-.187.052-.373.1-.555h7.015c.047.182.08.368.1.555 0 .174.025.342.025.496 0 .153 0 .331-.025.495-.019.19-.052.38-.1.565h-2.23v5.663c-.262.04-.495.07-.712.094-.191.021-.383.031-.575.03-.174 0-.357 0-.57-.03-.214-.03-.441-.055-.694-.094v-5.663Z"/><path fill="url(#h)" d="M54.07 44.176h.496v2.23h1.14v.436H54.07v-2.666Z"/><path fill="url(#i)" d="M56.376 44.178h.495v1.674a.519.519 0 0 0 .58.55.528.528 0 0 0 .574-.55v-1.69h.496v1.69a1.065 1.065 0 0 1-2.127 0l-.018-1.674Z"/><path fill="url(#j)" d="m60.05 45.48-.788-1.304h.55l.357.65c.085.153.17.322.17.322.046-.11.099-.218.157-.324l.367-.648h.55l-.797 1.304.842 1.362h-.545l-.407-.714c-.09-.149-.163-.312-.163-.312s-.074.164-.164.312l-.41.714h-.536l.818-1.362Z"/><path fill="url(#k)" d="M62.22 44.176h1.582v.417h-1.1v.688h.886v.412h-.886v.713h1.16v.436h-1.64v-2.666h-.001Z"/><path fill="url(#l)" d="M64.862 44.176h.496l.495 1.309c.06.153.129.386.129.386s.07-.232.128-.386l.496-1.309h.496l.302 2.666h-.496l-.114-1.487v-.405s-.079.252-.139.405l-.42.992h-.418l-.425-.992a5.663 5.663 0 0 1-.145-.41v.41l-.113 1.487h-.495l.223-2.666Z"/><path fill="url(#m)" d="M68.355 44.176h.946c.496 0 .813.248.813.684a.62.62 0 0 1-.317.56.615.615 0 0 1 .426.62c0 .53-.426.767-.912.767h-.956v-2.631Zm.946 1.08a.312.312 0 0 0 .328-.336.307.307 0 0 0-.338-.327h-.455v.663h.465Zm.05 1.15a.382.382 0 0 0 0-.763h-.495v.763h.495Z"/><path fill="url(#n)" d="M72.294 44.132a1.335 1.335 0 0 1 1.362 1.349 1.363 1.363 0 1 1-2.725 0 1.333 1.333 0 0 1 1.363-1.349Zm0 2.29a.89.89 0 0 0 .867-.941.872.872 0 1 0-1.74 0 .891.891 0 0 0 .873.94Z"/><path fill="url(#o)" d="M74.475 44.178h.495v1.674a.52.52 0 0 0 .58.55.531.531 0 0 0 .574-.55v-1.69h.496v1.69a1.065 1.065 0 0 1-2.126 0l-.02-1.675Z"/><path fill="url(#p)" d="M77.601 44.178h.853c.179-.014.36.01.53.073a.813.813 0 0 1 0 1.442.54.54 0 0 1 .089.129l.545.991h-.535l-.525-.991h-.46v.991H77.6v-2.636Zm.912 1.238a.381.381 0 0 0 .416-.417c0-.252-.109-.406-.496-.406h-.362v.823h.442Z"/><path fill="url(#q)" d="M81.58 44.132c.361-.018.715.103.99.337l-.237.356a1.134 1.134 0 0 0-.7-.252.855.855 0 0 0-.905.907.876.876 0 0 0 .88.94.988.988 0 0 0 .665-.272v-.297h-.406v-.411h.837v1.402h-.436v-.238a1.11 1.11 0 0 1-.763.282 1.297 1.297 0 0 1-1.293-1.367 1.328 1.328 0 0 1 1.367-1.387Z"/><defs><linearGradient id="a" x1="74.162" x2="47.56" y1="46.718" y2="18.332" gradientUnits="userSpaceOnUse"><stop stop-color="#F9BA00"/><stop offset=".28" stop-color="#FABE00"/><stop offset=".57" stop-color="#FBCB00"/><stop offset=".86" stop-color="#FDDF00"/><stop offset="1" stop-color="#FFEC00"/></linearGradient><linearGradient id="b" x1="75.674" x2="62.953" y1="6.268" y2="36.636" gradientUnits="userSpaceOnUse"><stop stop-color="#5EC4EC"/><stop offset="1" stop-color="#009CD1"/></linearGradient><linearGradient id="c" x1="6350.62" x2="3453.12" y1="3750.22" y2="3939.3" gradientUnits="userSpaceOnUse"><stop stop-color="#5EC4EC"/><stop offset="1" stop-color="#009CD1"/></linearGradient><linearGradient id="d" x1="52.243" x2="87.689" y1="36.258" y2="36.258" gradientUnits="userSpaceOnUse"><stop stop-color="#1FA12E"/><stop offset="1" stop-color="#008736"/></linearGradient><linearGradient id="e" x1="554.923" x2="1111.13" y1="849.511" y2="849.511" gradientUnits="userSpaceOnUse"><stop stop-color="#1FA12E"/><stop offset="1" stop-color="#008736"/></linearGradient><linearGradient id="f" x1="468.03" x2="916.495" y1="846.463" y2="846.463" gradientUnits="userSpaceOnUse"><stop stop-color="#1FA12E"/><stop offset="1" stop-color="#008736"/></linearGradient><linearGradient id="g" x1="536.4" x2="1054.27" y1="823.099" y2="823.099" gradientUnits="userSpaceOnUse"><stop stop-color="#1FA12E"/><stop offset="1" stop-color="#008736"/></linearGradient><linearGradient id="h" x1="157.734" x2="274.706" y1="351.498" y2="351.498" gradientUnits="userSpaceOnUse"><stop stop-color="#1FA12E"/><stop offset="1" stop-color="#008736"/></linearGradient><linearGradient id="i" x1="192.394" x2="345.896" y1="353.502" y2="353.502" gradientUnits="userSpaceOnUse"><stop stop-color="#1FA12E"/><stop offset="1" stop-color="#008736"/></linearGradient><linearGradient id="j" x1="200.277" x2="359.43" y1="351.498" y2="351.498" gradientUnits="userSpaceOnUse"><stop stop-color="#1FA12E"/><stop offset="1" stop-color="#008736"/></linearGradient><linearGradient id="k" x1="166.198" x2="283.524" y1="351.498" y2="351.498" gradientUnits="userSpaceOnUse"><stop stop-color="#1FA12E"/><stop offset="1" stop-color="#008736"/></linearGradient><linearGradient id="l" x1="239.923" x2="437.712" y1="351.498" y2="351.498" gradientUnits="userSpaceOnUse"><stop stop-color="#1FA12E"/><stop offset="1" stop-color="#008736"/></linearGradient><linearGradient id="m" x1="186.842" x2="320.542" y1="347.5" y2="347.5" gradientUnits="userSpaceOnUse"><stop stop-color="#1FA12E"/><stop offset="1" stop-color="#008736"/></linearGradient><linearGradient id="n" x1="243.71" x2="438.672" y1="356.634" y2="356.634" gradientUnits="userSpaceOnUse"><stop stop-color="#1FA12E"/><stop offset="1" stop-color="#008736"/></linearGradient><linearGradient id="o" x1="210.514" x2="363.975" y1="353.503" y2="353.503" gradientUnits="userSpaceOnUse"><stop stop-color="#1FA12E"/><stop offset="1" stop-color="#008736"/></linearGradient><linearGradient id="p" x1="205.472" x2="349.717" y1="348.486" y2="348.486" gradientUnits="userSpaceOnUse"><stop stop-color="#1FA12E"/><stop offset="1" stop-color="#008736"/></linearGradient><linearGradient id="q" x1="238.31" x2="416.76" y1="361.96" y2="361.96" gradientUnits="userSpaceOnUse"><stop stop-color="#1FA12E"/><stop offset="1" stop-color="#008736"/></linearGradient></defs></svg>