<svg width="128" height="64" viewBox="0 0 128 64" fill="none" xmlns="http://www.w3.org/2000/svg">
<rect width="128" height="64" rx="6" fill="white"/>
<path d="M74.0302 7C74.1279 6.99986 74.2227 7.03359 74.2984 7.09546C74.3438 7.13636 74.6484 7.41818 74.7256 7.47273C74.8107 7.55465 74.9215 7.60446 75.0393 7.61364C75.2029 7.61364 75.6938 7.57273 75.8302 7.57273C75.946 7.56836 76.0604 7.60013 76.1574 7.66364C76.3234 7.80002 76.4756 7.95226 76.612 8.11818C76.6665 8.20909 76.7438 8.30455 76.5665 8.33637C76.3893 8.36819 76.0802 8.40909 75.9711 8.44091C75.862 8.47273 75.8347 8.54091 75.9029 8.62273C75.9711 8.70455 76.2802 9.07728 76.3574 9.20001C76.4347 9.32273 76.4756 9.41819 76.3029 9.47273L75.5393 9.70001C75.3847 9.74546 75.2574 9.7591 75.1529 9.63637C75.0483 9.51364 74.6984 9.08182 74.6302 8.99546C74.5844 8.94435 74.5252 8.90705 74.4594 8.88777C74.3935 8.8685 74.3236 8.86801 74.2574 8.88637C74.1029 8.92273 73.6302 9.07728 73.5029 9.12273C73.4477 9.14475 73.3877 9.15213 73.3287 9.14416C73.2698 9.1362 73.2139 9.11316 73.1665 9.07728C72.975 8.87853 72.8128 8.65355 72.6847 8.40909C72.6029 8.21364 72.6847 8.13182 72.7893 8.08637C73.0189 8.01355 73.2526 7.95435 73.4893 7.90909C73.5847 7.90909 73.5756 7.80909 73.4893 7.74091C73.4029 7.67273 73.2393 7.47273 73.1438 7.39091C73.1241 7.36969 73.1108 7.34338 73.1053 7.31495C73.0999 7.28653 73.1025 7.25715 73.1129 7.23014C73.1233 7.20314 73.1411 7.17961 73.1643 7.16223C73.1874 7.14484 73.215 7.13431 73.2438 7.13182C73.5016 7.06534 73.7647 7.02123 74.0302 7Z" fill="#EF352F"/>
<path d="M77.1391 13.1137C77.4002 13.0365 77.6715 12.9997 77.9437 13.0046C78.0379 12.9965 78.1324 13.0179 78.2139 13.066C78.2953 13.1141 78.3598 13.1864 78.3982 13.2728C78.8403 14.1903 79.1465 15.1672 79.3073 16.1728C79.5237 17.3723 79.6181 18.5907 79.5891 19.8092C79.5822 19.9249 79.5312 20.0337 79.4467 20.1131C79.3622 20.1925 79.2506 20.2367 79.1346 20.2365C78.814 20.2585 78.492 20.2417 78.1755 20.1865C78.0746 20.1616 77.9854 20.1029 77.9225 20.0202C77.8596 19.9375 77.827 19.8357 77.83 19.7319C77.871 18.6704 77.8391 17.6073 77.7346 16.5501C77.6077 15.5023 77.3653 14.4718 77.0119 13.4774C76.9744 13.4093 76.9644 13.3295 76.9838 13.2543C77.0032 13.1791 77.0507 13.1142 77.1164 13.0728" fill="#EF352F"/>
<path d="M70.2393 18.5818C70.1716 18.518 70.1201 18.4389 70.0893 18.3511C70.0585 18.2633 70.0491 18.1694 70.0621 18.0773C70.2747 16.0214 71.1785 14.0984 72.6257 12.6227C74.1929 11.0217 76.3266 10.1009 78.5666 10.0591C80.7775 10.0686 82.8944 10.9546 84.453 12.5227C85.953 14.0227 87.0485 16.3727 87.0485 18.1864C87.085 18.4851 87.0265 18.7877 86.8812 19.0513C86.736 19.3148 86.5114 19.5259 86.2394 19.6546C84.7589 20.5453 83.0863 21.0675 81.3621 21.1773C82.5102 20.7243 83.5484 20.0316 84.4075 19.1455C84.5836 18.971 84.7088 18.7519 84.7697 18.5116C84.8306 18.2714 84.8248 18.0191 84.753 17.7818C84.5226 16.2142 83.7887 14.7641 82.6621 13.65C82.0883 13.0755 81.4045 12.6228 80.6515 12.319C79.8986 12.0151 79.092 11.8665 78.2803 11.8818C77.4172 11.8777 76.562 12.047 75.7656 12.3796C74.9692 12.7122 74.2477 13.2014 73.6439 13.8182C72.2855 15.1464 71.4008 16.8838 71.1257 18.7636C71.0802 19.0727 70.9484 19.05 70.7939 18.9864C70.5965 18.8627 70.4109 18.7212 70.2393 18.5636" fill="#EF352F"/>
<path d="M77.4754 52.5728C80.2164 50.9309 83.3441 50.0462 86.539 50.0092C88.2345 50.0092 90.63 50.341 93.9845 51.7001C94.9506 52.1101 95.9817 52.3455 97.03 52.3955C94.9118 52.7364 92.03 52.1319 89.08 52.1319C86.413 52.1551 83.7571 52.4768 81.1618 53.091C78.1981 53.8046 74.7981 55.2592 72.6799 57.0001C73.9509 55.205 75.5847 53.6967 77.4754 52.5728Z" fill="#3BA445"/>
<path d="M104.617 21.2226C103.525 20.3181 102.508 19.327 101.576 18.259C97.7894 14.2726 95.8167 10.0044 97.0849 8.77716C98.353 7.54989 102.499 9.7908 106.285 13.7772C110.071 17.7635 112.358 21.7954 111.067 23.0226C110.695 23.3235 110.243 23.5084 109.767 23.5545C105.362 24.2726 100.508 26.4636 96.7985 28.9727C100.385 27.3272 105.489 25.5454 111.058 25.5954C111.948 25.639 112.823 25.3543 113.517 24.7954C115.435 22.8772 112.839 17.6817 108.026 12.8635C103.212 8.04534 97.7076 5.73625 95.753 7.70443C95.5216 7.94574 95.3409 8.23093 95.2214 8.54319C95.102 8.85546 95.0463 9.18848 95.0576 9.52262C95.0576 9.85898 95.0212 10.3135 95.0212 10.5863C95.0212 16.459 89.5667 25.7908 78.8212 25.7908C76.8545 25.8319 74.8998 25.4736 73.0755 24.7377C71.2512 24.0017 69.5952 22.9033 68.2075 21.509C66.6828 19.9985 65.55 18.1386 64.9075 16.0908C64.7756 15.5125 64.6024 14.9444 64.3893 14.3908C64.3022 14.2216 64.1666 14.0823 63.9997 13.9908C63.8329 13.8993 63.6425 13.8597 63.453 13.8772C62.7211 13.8772 61.9075 14.2544 61.012 14.8817C60.1166 15.509 59.4984 16.3908 59.4984 16.9045C59.492 16.9891 59.5139 17.0736 59.5609 17.1444C59.6078 17.2152 59.677 17.2683 59.7575 17.2954C59.8257 17.2954 59.8893 17.2954 59.853 17.2363C59.8166 17.1772 59.7393 16.9545 60.0166 16.5726C60.293 16.2548 60.6307 15.9959 61.0095 15.8116C61.3883 15.6273 61.8004 15.5213 62.2211 15.4999C62.7984 15.4363 63.1302 15.4999 63.4848 16.4363C64.2016 18.7591 65.3268 20.9356 66.8075 22.8636C68.2076 24.7112 70.0121 26.2137 72.0826 27.2561C74.1532 28.2985 76.435 28.853 78.753 28.8772C88.0485 28.8772 93.0985 22.2999 95.3394 15.5726C95.5996 14.8124 95.7838 14.0283 95.8894 13.2317C95.8894 13.159 95.8894 13.1681 95.9349 13.2317C95.987 13.3121 96.034 13.3955 96.0758 13.4817C97.5394 16.5454 101.271 20.2135 104.617 21.209" fill="#3BA445"/>
<path d="M29.0709 36.3275C30.6619 36.3275 31.7528 37.1093 31.7528 38.6412V45.0912C31.7528 45.4321 31.83 45.7412 32.1619 45.7412C32.4937 45.7412 32.6164 45.123 32.6164 44.4775H33.1937C33.2013 44.9016 33.1539 45.3248 33.0528 45.7366C32.9576 46.0961 32.7528 46.4171 32.4669 46.6549C32.181 46.8928 31.8281 47.0357 31.4573 47.0639C31.1008 47.0309 30.7643 46.8847 30.4968 46.6467C30.2294 46.4087 30.0451 46.0914 29.9709 45.7412C29.9709 45.6912 29.9346 45.7003 29.9164 45.7412C29.7153 46.1322 29.4074 46.458 29.0284 46.6809C28.6494 46.9038 28.2149 47.0145 27.7755 47.0003C26.7482 47.0003 25.78 46.2321 25.78 44.6503C25.78 42.9412 26.9073 41.5275 29.1573 40.6048C29.3167 40.5503 29.4557 40.4483 29.5556 40.3127C29.6555 40.177 29.7116 40.0141 29.7164 39.8457V38.4502C29.7164 37.7866 29.3982 37.0412 28.5573 37.0412C28.3182 37.0374 28.0807 37.0808 27.8584 37.1689C27.6361 37.2571 27.4334 37.3882 27.2619 37.5548C27.1664 37.6548 27.2073 37.6957 27.3437 37.6139C27.4315 37.5718 27.5282 37.5515 27.6255 37.5548C27.8659 37.57 28.0905 37.68 28.2499 37.8607C28.4093 38.0414 28.4904 38.278 28.4755 38.5184C28.4755 38.5184 28.4755 38.5548 28.4755 38.573C28.4755 38.8876 28.3505 39.1894 28.128 39.4119C27.9055 39.6344 27.6038 39.7593 27.2891 39.7593C26.9745 39.7593 26.6727 39.6344 26.4502 39.4119C26.2278 39.1894 26.1028 38.8876 26.1028 38.573C26.1028 38.523 26.1028 38.4684 26.1028 38.4184C26.1073 37.4184 27.0709 36.3275 29.0709 36.3275ZM28.3664 42.0821C27.9982 42.6785 27.8074 43.3675 27.8164 44.0684C27.8164 44.6003 27.8937 45.8139 28.6982 45.8139C29.5028 45.8139 29.7164 44.6548 29.7164 44.3866V41.4684C29.7164 41.223 29.8528 41.0821 29.8255 41.0457C29.7982 41.0093 29.7028 41.0457 29.6391 41.1003C29.1512 41.3354 28.7177 41.6698 28.3664 42.0821Z" fill="#005D26"/>
<path d="M37.1802 36.3956C37.4671 36.389 37.7521 36.4432 38.0166 36.5547C38.0575 36.6001 38.0711 36.6229 38.0938 36.5229C38.1166 36.4229 38.7302 35.3001 39.7666 35.3001C39.9911 35.2851 40.2125 35.3592 40.3827 35.5065C40.5529 35.6537 40.6582 35.8621 40.6757 36.0865V36.1729C40.6925 36.4062 40.6187 36.637 40.4697 36.8173C40.3207 36.9976 40.1079 37.1136 39.8756 37.141C39.7 37.1414 39.5308 37.0749 39.4025 36.955C39.2742 36.8351 39.1963 36.6708 39.1847 36.4956C39.1893 36.4054 39.2077 36.3165 39.2393 36.2319C39.2393 36.1683 39.2393 36.1547 39.1756 36.1865C38.9729 36.3572 38.794 36.5545 38.6438 36.7729C38.5984 36.8456 38.6166 36.882 38.7029 36.8865C38.7679 36.9 38.8277 36.9315 38.8756 36.9774C39.3064 37.349 39.6466 37.8141 39.8703 38.3371C40.094 38.8602 40.1954 39.4274 40.1666 39.9956C40.1666 41.7411 39.1756 42.9547 38.0711 43.332C37.5166 43.5183 36.9984 43.4274 36.4438 43.6365C35.8893 43.8456 35.6938 44.0456 35.6938 44.3547C35.6938 44.6638 35.9029 44.8683 36.7256 44.9183C36.7256 44.9183 38.2529 44.982 38.5438 45.0092C40.1166 45.1729 40.9302 46.1592 40.9302 47.3729C40.9302 49.0502 39.7393 50.4274 36.9575 50.4274C34.7347 50.4274 33.7756 49.4456 33.7756 48.5456C33.7756 47.7592 34.3029 47.1047 35.2756 46.7274C35.3529 46.6956 35.3529 46.6638 35.2756 46.6411C34.9534 46.5517 34.6678 46.3622 34.4603 46.0999C34.2528 45.8376 34.134 45.5162 34.1211 45.182C34.1211 44.4274 34.6938 43.6729 35.8393 43.1774C35.8847 43.1774 35.8711 43.1411 35.8393 43.1138C34.712 42.5365 34.1802 41.3547 34.1802 39.8229C34.1802 37.782 35.5438 36.4001 37.1847 36.4001L37.1802 36.3956ZM36.2438 39.6865C36.2438 42.2911 36.5802 42.8683 37.1529 42.8683C37.7984 42.8683 38.062 42.3729 38.062 40.0729C38.062 37.3456 37.6711 37.0047 37.1529 37.0047C36.6347 37.0047 36.2438 37.4592 36.2438 39.7001V39.6865ZM35.1165 48.2729C35.1165 48.9593 35.7529 49.8274 37.2438 49.8274C38.7347 49.8274 39.7211 49.0729 39.7211 48.082C39.7211 47.0911 38.6029 46.9956 38.2529 46.9638L36.2711 46.8229C35.9211 46.9956 35.1302 47.4774 35.1302 48.2729" fill="#005D26"/>
<path d="M41.421 36.4956H44.9437V37.1138C44.6846 37.1138 44.2391 37.2183 44.3937 37.8365L45.5028 42.1729C45.5891 42.4956 45.5301 42.8138 45.6073 42.8138C45.6846 42.8138 45.671 42.4911 45.7573 42.182L46.8937 38.0047C46.929 37.8639 46.9175 37.7154 46.8609 37.5817C46.8043 37.4481 46.7057 37.3365 46.5801 37.2638C46.4021 37.1691 46.2043 37.1177 46.0028 37.1138V36.4956H48.7301V37.1138C48.4686 37.11 48.2152 37.2039 48.0193 37.377C47.8235 37.5502 47.6992 37.7902 47.671 38.0502L45.221 46.9502C45.0406 47.7474 44.7833 48.5253 44.4528 49.2729C44.2875 49.5911 44.0447 49.8624 43.7467 50.0618C43.4488 50.2613 43.1054 50.3823 42.7482 50.4138C42.5822 50.4236 42.4159 50.4006 42.2588 50.346C42.1017 50.2915 41.957 50.2064 41.8328 50.0958C41.7087 49.9851 41.6076 49.8511 41.5353 49.7013C41.4631 49.5515 41.4211 49.3889 41.4119 49.2229V49.1411C41.4057 48.842 41.5178 48.5525 41.7237 48.3355C41.9297 48.1185 42.2129 47.9915 42.5119 47.982C42.7671 47.9796 43.013 48.078 43.196 48.2559C43.379 48.4338 43.4844 48.6768 43.4891 48.932C43.5025 49.1008 43.4661 49.2699 43.3846 49.4184C43.2982 49.5456 43.2119 49.6138 43.2255 49.632C43.2391 49.6502 43.3482 49.5775 43.4755 49.4365C43.7166 49.1733 43.9021 48.8641 44.021 48.5275C44.2017 47.9659 44.3534 47.3955 44.4755 46.8184C44.5436 46.5653 44.5436 46.2987 44.4755 46.0456L42.2528 37.7547C42.1573 37.4229 42.0391 37.1865 41.43 37.0865V36.4956" fill="#005D26"/>
<path d="M89.4121 36.7275V37.3138H90.3212C90.5621 37.3138 90.7076 37.232 90.7439 37.2684C90.7803 37.3047 90.6803 37.3865 90.6712 37.7229V45.0411C90.6388 45.5358 90.8038 46.0232 91.1301 46.3964C91.4565 46.7696 91.9175 46.9982 92.4121 47.032C92.5074 47.0388 92.6031 47.0388 92.6985 47.032C94.5167 47.032 95.0712 45.4457 95.0712 44.0502V43.6866H94.453C94.453 45.3593 94.0212 45.9593 93.5439 45.9593C93.432 45.9486 93.3233 45.9156 93.2244 45.8622C93.1254 45.8087 93.0382 45.736 92.9678 45.6483C92.8975 45.5606 92.8455 45.4596 92.8148 45.3514C92.7841 45.2432 92.7755 45.13 92.7894 45.0184V37.6775C92.7894 37.4365 92.7167 37.3047 92.7394 37.282C92.7621 37.2593 92.8757 37.3093 93.0576 37.3138H94.7848V36.4956H93.0485C92.8985 36.4956 92.803 36.5729 92.7712 36.5456C92.7394 36.5184 92.8212 36.3911 92.8167 36.2775L92.7758 32.2229H92.0167C92.0167 33.382 91.4758 35.7775 89.4121 36.7275Z" fill="#005D26"/>
<path d="M56.6802 36.4546L59.6575 36.3682L59.6847 37.9273C59.6847 37.9273 59.6165 38.3819 59.6847 38.3819C59.7529 38.3819 59.8029 38.1228 59.8938 37.9273C60.1756 37.2501 60.8393 36.3001 61.8529 36.3001C62.0159 36.294 62.1785 36.3201 62.3314 36.3769C62.4843 36.4337 62.6244 36.5201 62.7439 36.6311C62.8634 36.7421 62.9598 36.8756 63.0276 37.024C63.0955 37.1723 63.1334 37.3325 63.1393 37.4955V37.5637C63.1631 37.8807 63.0602 38.1942 62.8531 38.4353C62.646 38.6765 62.3517 38.8257 62.0347 38.8501H61.9575C61.8257 38.8562 61.6941 38.8361 61.5702 38.7912C61.4462 38.7462 61.3324 38.6772 61.2352 38.588C61.138 38.4989 61.0595 38.3914 61.004 38.2718C60.9485 38.1521 60.9173 38.0227 60.912 37.891C60.9074 37.838 60.9074 37.7848 60.912 37.7319C60.912 37.6137 60.912 37.5773 60.8438 37.6773C60.112 38.8864 59.7666 40.7455 59.7666 42.4319V45.5183C59.7666 46.1546 60.112 46.1546 60.9029 46.1546V46.8183H56.762V46.141C57.4302 46.141 57.712 46.0228 57.712 45.5092V37.7819C57.712 37.3273 57.4165 37.1501 57.0029 37.1501H56.6893V36.4546" fill="#005D26"/>
<path d="M70.6801 40.1819V45.4728C70.6301 46.0456 71.3847 46.2001 71.7665 46.2001V46.7956H67.321V46.2001C67.5378 46.2231 67.7549 46.1596 67.9252 46.0235C68.0954 45.8873 68.205 45.6894 68.2301 45.4728V32.3819C68.2029 32.0592 67.871 31.7955 67.321 31.791V31.1592H71.7256C75.4711 31.1592 76.0483 34.0319 76.0483 35.3728C76.0483 36.441 75.5029 39.9774 71.3529 39.9774C71.2288 39.9865 71.1042 39.9865 70.9801 39.9774C70.8711 39.9774 70.7165 39.8865 70.6756 39.9365C70.6347 39.9865 70.7029 40.0637 70.7029 40.2001L70.6801 40.1819ZM70.6801 32.5455V38.9092C70.6801 39.0819 70.6074 39.1592 70.6483 39.191C70.6892 39.2228 70.7574 39.1637 70.9347 39.191C72.3211 39.191 73.3438 38.6228 73.3438 35.3501C73.3438 32.9865 72.7801 31.8365 71.5256 31.8365C71.0711 31.8365 70.6801 31.9865 70.6801 32.5501" fill="#005D26"/>
<path d="M78.7757 36.2638C79.8712 36.2638 82.2212 37.4047 82.2212 41.6638C82.2212 44.3138 80.9303 47.0638 78.8075 47.0638C76.5121 47.0638 75.2666 44.3365 75.2666 41.7047C75.2666 37.4092 77.5939 36.2501 78.7757 36.2501V36.2638ZM77.5712 41.8047C77.5712 44.6092 77.7893 46.4229 78.7666 46.4229C79.7439 46.4229 79.903 44.3774 79.903 41.8274C79.903 38.741 79.703 36.8592 78.7439 36.8592C77.9348 36.8592 77.5712 38.1183 77.5712 41.8047Z" fill="#005D26"/>
<path d="M86.6347 43.1954C86.5166 43.1136 85.2984 42.2864 84.9802 42.0909C84.4624 41.7817 84.0376 41.3385 83.7504 40.8082C83.4632 40.2778 83.3243 39.6799 83.3484 39.0773C83.3484 37.6545 84.2575 36.35 85.6484 36.35C86.7211 36.35 87.012 36.9727 87.3256 36.9727C87.6393 36.9727 87.9029 36.5182 87.9847 36.35H88.5438V40.0363H87.8984C87.2529 37.8182 86.5347 37.0045 85.6984 37.0136C85.4206 37 85.1487 37.0972 84.9425 37.2838C84.7362 37.4705 84.6125 37.7313 84.5984 38.0091C84.5938 38.0666 84.5938 38.1243 84.5984 38.1818C84.5984 38.8273 84.9711 39.3 85.7075 39.8136L87.6347 41.0909C88.0892 41.4163 88.4596 41.8455 88.7149 42.3427C88.9703 42.84 89.1033 43.391 89.1029 43.95C89.1029 45.4818 88.0484 46.9909 86.462 46.9909C85.4484 46.9909 85.0984 46.3909 84.712 46.3909C84.3256 46.3909 84.1575 46.7318 83.9938 46.9818H83.4029V42.7954H83.9984C84.362 44.1136 84.9575 46.2773 86.4302 46.2773C86.5923 46.2871 86.7547 46.265 86.9082 46.212C87.0617 46.1591 87.2032 46.0765 87.3248 45.9688C87.4464 45.8612 87.5455 45.7307 87.6166 45.5847C87.6878 45.4388 87.7294 45.2802 87.7393 45.1182C87.7438 45.0622 87.7438 45.006 87.7393 44.95C87.7166 44.5868 87.6021 44.2353 87.4066 43.9285C87.211 43.6216 86.9407 43.3694 86.6211 43.1954" fill="#005D26"/>
<path d="M19.4527 38.8183L20.7663 31.1728H24.6891V31.8046C24.13 31.8046 23.78 32.0728 23.78 32.3955V45.4683C23.78 46.0501 24.3209 46.2001 24.6891 46.2001V46.7956H20.4391V46.2001C20.7663 46.2001 21.3482 46.0683 21.3482 45.4956V33.5592C21.3936 33.1331 21.3936 32.7034 21.3482 32.2774C21.2572 32.7001 21.1935 33.1283 21.1573 33.5592L18.8027 46.7956H18.1527L15.88 33.5683C15.8482 33.1384 15.7844 32.7114 15.6891 32.291C15.6481 32.7173 15.6481 33.1465 15.6891 33.5728V44.1956C15.6805 44.5489 15.6912 44.9025 15.7209 45.2547C15.7428 45.5171 15.8643 45.7611 16.0603 45.9369C16.2564 46.1127 16.5122 46.2068 16.7754 46.2001V46.8001H13.8481V46.2001C14.0852 46.2093 14.3172 46.1302 14.4994 45.9783C14.6816 45.8263 14.801 45.6122 14.8345 45.3774C14.8663 45.0638 14.8709 44.1956 14.8709 44.1956V32.5683C14.8709 31.9546 14.4436 31.7865 13.9618 31.7865H13.8481V31.1592H17.9391L19.2527 38.8183C19.3254 39.241 19.2527 39.5819 19.3345 39.5819C19.3901 39.3301 19.4296 39.0751 19.4527 38.8183Z" fill="#005D26"/>
<path d="M51.9346 36.3184C53.53 36.3184 54.6209 37.0956 54.6209 38.632V45.082C54.6209 45.4229 54.6982 45.732 55.03 45.732C55.3618 45.732 55.4846 45.1138 55.4846 44.4684H56.0618C56.0672 44.8923 56.0199 45.3152 55.9209 45.7275C55.8249 46.0861 55.6198 46.4061 55.334 46.6431C55.0481 46.88 54.6957 47.0223 54.3255 47.0502C53.9683 47.0193 53.6306 46.8739 53.3628 46.6355C53.0949 46.3972 52.9112 46.0787 52.8391 45.7275C52.8391 45.682 52.8027 45.6866 52.7846 45.7275C52.5858 46.1213 52.2788 46.4503 51.8995 46.6758C51.5203 46.9012 51.0846 47.0138 50.6436 47.0002C49.6164 47.0002 48.6482 46.2275 48.6482 44.6457C48.6482 42.9411 49.7755 41.5229 52.03 40.6047C52.1875 40.5478 52.3245 40.4452 52.4233 40.3099C52.5221 40.1747 52.5782 40.013 52.5846 39.8456V38.4365C52.5846 37.7775 52.2664 37.032 51.4209 37.032C50.9402 37.0244 50.4761 37.2074 50.13 37.5411C50.0346 37.6456 50.0755 37.6865 50.2118 37.6047C50.3001 37.5634 50.3962 37.5416 50.4936 37.5411C50.7341 37.5563 50.9587 37.6663 51.1181 37.847C51.2775 38.0277 51.3586 38.2643 51.3437 38.5047C51.3459 38.5244 51.3459 38.5442 51.3437 38.5638C51.3437 38.7196 51.313 38.8739 51.2533 39.0178C51.1937 39.1618 51.1063 39.2925 50.9962 39.4027C50.886 39.5129 50.7552 39.6003 50.6113 39.6599C50.4673 39.7195 50.3131 39.7502 50.1573 39.7502C50.0015 39.7502 49.8472 39.7195 49.7033 39.6599C49.5593 39.6003 49.4286 39.5129 49.3184 39.4027C49.2082 39.2925 49.1208 39.1618 49.0612 39.0178C49.0016 38.8739 48.9709 38.7196 48.9709 38.5638C48.9709 38.5138 48.9709 38.4593 48.9709 38.4093C48.9982 37.4047 49.9391 36.3184 51.9346 36.3184ZM51.2346 42.0684C50.8662 42.6664 50.6754 43.3569 50.6846 44.0593C50.6846 44.5866 50.7618 45.8047 51.5664 45.8047C52.3709 45.8047 52.5846 44.6411 52.5846 44.3775V41.4593C52.5846 41.2093 52.7209 41.0729 52.6937 41.0366C52.6664 41.0002 52.5709 41.0366 52.5073 41.0866C52.0211 41.3244 51.5881 41.6584 51.2346 42.0684Z" fill="#005D26"/>
<path d="M98.9986 36.3183C100.594 36.3183 101.68 37.0956 101.68 38.632V45.082C101.68 45.4229 101.758 45.732 102.09 45.732C102.421 45.732 102.544 45.1138 102.544 44.4684H103.126C103.134 44.8927 103.085 45.3162 102.98 45.7275C102.884 46.0861 102.679 46.4061 102.393 46.643C102.108 46.88 101.755 47.0223 101.385 47.0502C101.029 47.0182 100.693 46.8721 100.427 46.6338C100.161 46.3955 99.9787 46.0776 99.9077 45.7275C99.9077 45.682 99.8668 45.6865 99.8486 45.7275C99.6511 46.1213 99.345 46.4505 98.9664 46.676C98.5879 46.9015 98.1527 47.014 97.7123 47.0002C96.685 47.0002 95.7168 46.2275 95.7168 44.6456C95.7168 42.9411 96.8441 41.5229 99.0986 40.6047C99.2561 40.5478 99.3931 40.4451 99.4919 40.3099C99.5907 40.1747 99.6468 40.013 99.6532 39.8456V38.4365C99.6532 37.7774 99.3395 37.032 98.4941 37.032C98.2523 37.0252 98.0115 37.0667 97.7859 37.1541C97.5604 37.2415 97.3545 37.3731 97.1804 37.5411C97.0895 37.6456 97.1304 37.6865 97.2623 37.6047C97.3505 37.5633 97.4466 37.5416 97.5441 37.5411C97.6669 37.5484 97.7869 37.5805 97.897 37.6356C98.007 37.6906 98.1047 37.7674 98.1842 37.8614C98.2636 37.9553 98.3232 38.0643 98.3593 38.182C98.3954 38.2996 98.4072 38.4233 98.3941 38.5456C98.3941 38.8603 98.2691 39.162 98.0466 39.3845C97.8241 39.607 97.5224 39.732 97.2077 39.732C96.8931 39.732 96.5913 39.607 96.3688 39.3845C96.1463 39.162 96.0213 38.8603 96.0213 38.5456C96.0213 38.4956 96.0213 38.4411 96.0213 38.3911C96.0213 37.3683 96.9804 36.282 98.9804 36.282L98.9986 36.3183ZM98.2941 42.0684C97.9304 42.6685 97.7401 43.3576 97.7441 44.0593C97.7441 44.5865 97.8213 45.8047 98.6259 45.8047C99.4304 45.8047 99.6441 44.6411 99.6441 44.3775V41.4593C99.6441 41.2093 99.7804 41.0729 99.7532 41.0365C99.7259 41.0002 99.6304 41.0365 99.5668 41.0865C99.0806 41.3244 98.6476 41.6584 98.2941 42.0684Z" fill="#005D26"/>
</svg>
