<svg xmlns="http://www.w3.org/2000/svg" width="128" height="64" fill="none"><rect width="128" height="64" fill="#FC0" rx="6"/><path fill="#FEFEFE" fill-rule="evenodd" d="m90.406 44 1.275-5.978H17.316L16.006 44h74.4Z" clip-rule="evenodd"/><path fill="#000" fill-rule="evenodd" d="M63.57 31.215c0 1.475.908 2.181 1.746 2.849l1.422 1.056c.273.187.528.4.76.637a1.011 1.011 0 0 1 .335.72 1.064 1.064 0 0 1-.519.943c-.571.37-1.457.37-1.994.37a9.703 9.703 0 0 1-2.688-.436l-.807 2.265c1.187.35 2.42.519 3.656.502a7.854 7.854 0 0 0 3.155-.537 3.317 3.317 0 0 0 2.213-3.137 2.845 2.845 0 0 0-.637-1.829 7.605 7.605 0 0 0-1.344-1.222l-1.288-.96c-.654-.488-1.143-.872-1.143-1.427a1.1 1.1 0 0 1 1.06-1.104c.48-.044.963-.06 1.445-.047h2.046l.502-2.318h-2.282c-.75-.011-1.5.016-2.247.083-1.746.201-3.404 1.462-3.404 3.592M82.068 27.54h-9.456l-.506 2.317h3.39L73.314 40.02h2.701l2.182-10.163h3.373l.498-2.317ZM59.294 33.78c-.437 2.012-1.257 4.11-3.54 4.11-2.181 0-2.5-2.063-2.046-4.11.454-2.046 1.257-4.11 3.539-4.11 2.182 0 2.5 2.064 2.047 4.11Zm-1.811-6.375c-4.329 0-5.974 2.937-6.66 6.375-.684 3.439.756 6.371 4.696 6.371 4.324 0 5.97-2.932 6.659-6.37.69-3.44-.755-6.376-4.695-6.376ZM47.52 31.934a2.239 2.239 0 0 1-1.78 1.894c-.287.058-.58.087-.872.088h-1.091l.873-4.076h1.173c.267-.008.534.026.79.1.672.218 1.074.873.873 1.994m-.371-4.298a8.793 8.793 0 0 0-1.222-.083h-3.408l-2.684 12.48h2.684l.825-3.809h1.558a6.219 6.219 0 0 0 1.88-.236 4.952 4.952 0 0 0 3.456-3.927c.437-2.33-.755-4.058-3.089-4.447M29.708 35.137l2.75-4.979.706 4.98h-3.456Zm4.766-7.597h-3.225l-5.887 10.216H21.74l2.182-10.216h-2.679l-2.684 12.48h8.483l1.423-2.618h5.031l.371 2.618h2.701l-2.094-12.48ZM83.595 35.137l2.749-4.979.707 4.98h-3.456Zm4.765-7.597h-3.22l-7.17 12.48h2.967l1.427-2.618h5.027l.371 2.618h2.701L88.36 27.54Z" clip-rule="evenodd"/><path fill="red" fill-rule="evenodd" d="M104.418 27.536 106.015 20H95.887c0 .026-2.108 9.831-2.116 9.87h2.526c0-.026 1.615-7.536 1.615-7.536h5.118l-1.619 7.537h7.584l-1.012 4.712h-7.558c0 .03-1.51 7.052-1.51 7.052H93.19c0 .026-.488 2.326-.497 2.365h8.234c0-.026 1.519-7.065 1.519-7.065h7.527c0-.026 2.011-9.355 2.02-9.399h-7.575Z" clip-rule="evenodd"/></svg>