<svg xmlns="http://www.w3.org/2000/svg" viewBox="0 0 320 120"><defs><style>.a{fill:none;}.b{fill:#004a8e;}.b,.c,.d{fill-rule:evenodd;}.c{fill:#fff;}.d{fill:#d3200c;}</style></defs><rect class="a" width="320" height="120"/><polygon class="b" points="10 96.02 310 96.02 310 23.98 10 23.98 10 96.02"/><path class="c" d="M130.87,60.13c0-.34,0-.68,0-1H10V60.9H130.89c0-.25,0-.52,0-.77"/><path class="c" d="M189.05,59.11c0,.34,0,.68,0,1s0,.52,0,.77H310V59.11H189.05"/><path class="d" d="M189.07,60.09A29.1,29.1,0,1,1,160,30.54a29.31,29.31,0,0,1,29.11,29.55"/><polyline class="c" points="150.75 63.94 152.81 61.84 175.87 60.79 176.9 59.74 154.18 59.74 141.79 45.06 183.09 59.04 169.33 73.03 141.79 73.03 144.55 70.22 167.6 69.18 168.62 68.13 146.61 68.13 148.68 66.02 171.73 64.98 172.76 63.94 150.75 63.94"/><path class="c" d="M200.18,37h3.14c2.69,0,5.15.8,5.15,3.8s-2.11,4-4.75,4h-1.06v4.76h-2.48Zm2.48,5.81h.87c1.24,0,2.36-.41,2.36-1.86s-1.09-2-2.36-2h-.87v3.82Z"/><path class="c" d="M220.13,36.83c3.88,0,6.05,2.66,6.05,6.45s-2.13,6.53-6.05,6.53-6.06-2.68-6.06-6.53S216.18,36.83,220.13,36.83Zm0,11c2.52,0,3.46-2.28,3.46-4.55s-1-4.47-3.46-4.47-3.48,2.27-3.48,4.47.94,4.55,3.48,4.55Z"/><path class="c" d="M239.52,39.35a6.37,6.37,0,0,0-2.52-.54,1.73,1.73,0,0,0-1.95,1.74c0,2.17,5.42,1.26,5.42,5.47,0,2.75-2.14,3.79-4.63,3.79a11,11,0,0,1-3.18-.48l.24-2.28a5.72,5.72,0,0,0,2.79.78c.95,0,2.19-.49,2.19-1.62,0-2.39-5.41-1.39-5.41-5.56,0-2.8,2.14-3.82,4.31-3.82a9.11,9.11,0,0,1,3,.45l-.23,2.07"/><polyline class="c" points="249.4 39.02 245.86 39.02 245.86 37.04 255.42 37.04 255.42 39.02 251.87 39.02 251.87 49.59 249.4 49.59 249.4 39.02"/><polyline class="c" points="261.43 37.04 268.73 37.04 268.73 39.02 263.9 39.02 263.9 42.11 268.31 42.11 268.31 44.09 263.9 44.09 263.9 47.62 268.77 47.62 268.77 49.59 261.43 49.59 261.43 37.04"/><path class="c" d="M282.34,39.35a6.31,6.31,0,0,0-2.5-.54,1.73,1.73,0,0,0-2,1.74c0,2.17,5.42,1.26,5.42,5.47,0,2.75-2.15,3.79-4.65,3.79a10.88,10.88,0,0,1-3.16-.48l.23-2.28a5.74,5.74,0,0,0,2.78.78c.95,0,2.2-.49,2.2-1.62,0-2.39-5.4-1.39-5.4-5.56,0-2.8,2.14-3.82,4.31-3.82a9.11,9.11,0,0,1,3,.45l-.24,2.07"/><path class="c" d="M209.37,82.78a12.62,12.62,0,0,1-2.81.4c-4,0-6.77-2-6.77-6.28s2.58-6.7,6.77-6.7a8,8,0,0,1,2.8.52l-.18,2.12a5,5,0,0,0-2.67-.66c-2.55,0-4.14,2-4.14,4.55s1.55,4.47,4.19,4.47a7,7,0,0,0,2.72-.52l.09,2.1"/><path class="c" d="M219.16,70.42H222L226.83,83h-2.75L223,80.08h-5L216.93,83h-2.57Zm1.38,2.51h0l-1.79,5.18h3.6l-1.78-5.18Z"/><polyline class="c" points="232.72 70.42 235.77 70.42 240.47 79.8 240.51 79.8 240.51 70.42 242.89 70.42 242.89 82.95 239.85 82.95 235.14 73.58 235.09 73.58 235.09 82.95 232.72 82.95 232.72 70.42"/><path class="c" d="M253.61,70.42h2.79L261.25,83H258.5l-1.05-2.87h-5L251.36,83h-2.57ZM255,72.93h0l-1.79,5.18h3.63L255,72.93Z"/><path class="c" d="M267.28,70.42h3.39c3.78,0,7.12,1.29,7.12,6.26S274.45,83,270.67,83h-3.39ZM269.75,81h1.39a4.3,4.3,0,0,0,0-8.59h-1.39V81Z"/><path class="c" d="M288,70.42h2.82L295.69,83h-2.76l-1.06-2.87h-5L285.79,83h-2.58Zm1.37,2.51h0l-1.79,5.18h3.61l-1.79-5.18Z"/><path class="c" d="M34.6,49.41a12.21,12.21,0,0,1-2.81.4c-4,0-6.78-2-6.78-6.28s2.58-6.7,6.78-6.7a8.1,8.1,0,0,1,2.78.52l-.16,2.12a5.12,5.12,0,0,0-2.67-.66c-2.56,0-4.15,2-4.15,4.54s1.56,4.48,4.2,4.48a6.77,6.77,0,0,0,2.71-.52l.1,2.1"/><path class="c" d="M44.39,37h2.8L52,49.59H49.3l-1.06-2.87h-5l-1.08,2.87H39.58Zm1.37,2.52h0l-1.8,5.18h3.61l-1.78-5.18Z"/><polyline class="c" points="57.95 37.04 60.98 37.04 65.7 46.43 65.73 46.43 65.73 37.04 68.1 37.04 68.1 49.59 65.08 49.59 60.35 40.21 60.31 40.21 60.31 49.59 57.95 49.59 57.95 37.04"/><path class="c" d="M78.83,37h2.8l4.85,12.55H83.73l-1.07-2.87h-5l-1.07,2.87H74Zm1.37,2.52h0l-1.79,5.18H82L80.2,39.56Z"/><path class="c" d="M92.5,37h3.38c3.78,0,7.13,1.3,7.13,6.28s-3.35,6.27-7.13,6.27H92.5ZM95,47.62h1.39a4.07,4.07,0,0,0,4.06-4.3A4.06,4.06,0,0,0,96.36,39H95v8.59Z"/><path class="c" d="M113.25,37h2.8l4.84,12.55h-2.73l-1.06-2.87h-5L111,49.59h-2.58Zm1.37,2.52h0l-1.79,5.18h3.62l-1.79-5.18Z"/><path class="c" d="M25.4,70.42h3.13c2.69,0,5.15.79,5.15,3.78s-2.11,4-4.77,4h-1V83H25.4Zm2.47,5.8h.87c1.23,0,2.35-.41,2.35-1.87s-1.07-2-2.35-2h-.87v3.83Z"/><path class="c" d="M45.32,70.2c3.88,0,6.06,2.66,6.06,6.45s-2.12,6.53-6.06,6.53-6-2.69-6-6.53S41.41,70.2,45.32,70.2Zm0,11c2.54,0,3.48-2.27,3.48-4.55s-1-4.47-3.48-4.47-3.46,2.26-3.46,4.47.93,4.55,3.46,4.55Z"/><path class="c" d="M64.72,72.71a6.31,6.31,0,0,0-2.51-.53,1.73,1.73,0,0,0-2,1.75c0,2.16,5.42,1.25,5.42,5.45,0,2.75-2.14,3.8-4.64,3.8a10.83,10.83,0,0,1-3.16-.49l.22-2.26a6,6,0,0,0,2.8.77c.94,0,2.19-.49,2.19-1.62,0-2.38-5.42-1.4-5.42-5.55,0-2.81,2.14-3.83,4.33-3.83a9.14,9.14,0,0,1,3,.45l-.24,2.06"/><polyline class="c" points="74.62 72.39 71.07 72.39 71.07 70.42 80.63 70.42 80.63 72.39 77.09 72.39 77.09 82.95 74.62 82.95 74.62 72.39"/></svg>