<svg xmlns="http://www.w3.org/2000/svg" width="128" height="64" fill="none"><rect width="128" height="64" fill="#C00" rx="6"/><path fill="#FFF500" fill-rule="evenodd" stroke="#FFF500" stroke-width=".8" d="m27.223 15.24-.187.655-7.362 22.36h5.87l2.936-9.687c12.782 11.357 29.967 15.52 40.987 13.374 15.595-3.039 26.934-7.986 38.859-28.932l-22.897-.44c-.312-.054.454 4.408-1.062 8.719-2.08 5.906-4.558 9.269-9.078 11.475 8.058-10.935 3.775-18.706-1.665-22.676-2.95-2.152-6.356-2.97-8.056-3.065-10.543-.589-18.79 10.308-15.504 19.837.276.8 1.151 2.31 2.378 3.64 2.446 2.65 5.767 5.144 4.885 3.76-1.53-2.399-5.972-7.16-4.679-12.271 2.792-11.032 20.464-8.893 20.44 1.957-.017 6.84-5.354 12.019-11.557 13.275-7.3 1.478-14.7-.526-20.674-3.636-3.35-1.745-6.11-3.357-8.786-5.752-.414-.371 7.065.301 12.005-2.442 3.965-2.202 6.005-7.388 2.594-10.334-4.976-4.298-18.45-1.934-25.402-.877l.022 1 5.933.06Z" clip-rule="evenodd"/><path fill="#0062A6" fill-rule="evenodd" stroke="#FFF500" stroke-width=".8" d="M93.188 12.72C90.032 23.882 82.07 33.393 71.724 34.876c6.41-3.922 5.152-2.66 7.188-4.536 1.799-1.657 3.1-3.695 3.849-5.169 1.85-3.643 2.828-6.88 2.627-12.574l7.8.121Z" clip-rule="evenodd"/><path fill="#C00" fill-rule="evenodd" stroke="#FFF500" stroke-width=".8" d="M76.972 40.187c6.445-3.855 12.085-7.492 15.014-10.908 4.881-5.693 5.075-7.065 8.418-16.42l7.922.151c-5.444 8.533-8.31 13.309-14.777 18.726-4.012 3.36-10.368 6.703-16.577 8.451ZM29.36 25.325l2.803-10.303c14.737-2.474 16.51 11.515-2.803 10.303Z" clip-rule="evenodd"/><path fill="#fff" d="M24.493 54.183h-1.516l1.542-7.359h2.992c.53 0 .952.064 1.26.189.31.125.556.332.737.622.18.29.271.635.271 1.036 0 .372-.072.734-.216 1.085a2.56 2.56 0 0 1-.53.843c-.209.21-.434.372-.674.48-.242.108-.566.192-.975.248-.237.035-.682.05-1.335.05h-.968l-.588 2.806Zm.838-4.026h.468c.798 0 1.333-.05 1.6-.15a1.297 1.297 0 0 0 .863-1.21.747.747 0 0 0-.117-.436.66.66 0 0 0-.331-.248c-.142-.053-.46-.079-.951-.079h-1.085l-.447 2.123Zm4.984 1.14c0-.434.067-.893.197-1.375.17-.646.43-1.206.78-1.682.35-.475.792-.85 1.323-1.126.532-.278 1.137-.415 1.817-.415.91 0 1.645.283 2.206.848.562.566.841 1.317.841 2.248 0 .778-.182 1.529-.547 2.255-.365.727-.86 1.285-1.485 1.676-.627.392-1.335.588-2.125.588-.685 0-1.26-.156-1.727-.466-.464-.312-.793-.698-.988-1.159a3.562 3.562 0 0 1-.292-1.393Zm1.496-.03c0 .506.154.929.463 1.27.308.34.712.512 1.215.512.407 0 .8-.135 1.177-.404.377-.27.687-.677.934-1.225.244-.547.368-1.08.368-1.599 0-.58-.156-1.033-.466-1.362-.312-.33-.708-.495-1.191-.495-.738 0-1.34.344-1.804 1.035a3.985 3.985 0 0 0-.696 2.268Zm6.256.531 1.44-.075c.02.46.098.77.235.929.221.262.63.392 1.225.392.495 0 .854-.09 1.075-.265.22-.179.332-.393.332-.643a.694.694 0 0 0-.272-.553c-.127-.11-.477-.29-1.047-.537-.57-.248-.987-.454-1.25-.62a1.827 1.827 0 0 1-.62-.644 1.844 1.844 0 0 1-.226-.929c0-.62.225-1.132.674-1.542.449-.408 1.098-.612 1.948-.612.863 0 1.531.203 2.004.607.473.406.734.944.782 1.617l-1.451.066c-.038-.352-.165-.622-.383-.81-.217-.186-.538-.28-.963-.28-.418 0-.717.073-.895.22a.689.689 0 0 0-.27.558c0 .21.083.385.247.522.163.14.526.333 1.088.578.848.364 1.386.66 1.618.887.344.336.517.766.517 1.29 0 .65-.257 1.205-.771 1.664-.514.46-1.229.69-2.147.69-.632 0-1.18-.106-1.643-.318-.464-.213-.792-.507-.982-.886-.19-.379-.279-.812-.265-1.306Zm2.011 2.932h1.547l-.15.733c-.203.961-.804 1.472-1.808 1.537l.161-.783c.404-.051.63-.24.677-.569h-.617l.19-.918Zm7.817-.547h-1.517l1.285-6.129h-2.157l.255-1.23h5.799l-.256 1.23h-2.13l-1.28 6.13Zm7.134-1.626h-2.918l-.882 1.626h-1.556l4.16-7.359h1.683l1.194 7.36h-1.436l-.245-1.627Zm-.186-1.225-.427-2.962-1.777 2.962h2.204Zm6.81 2.851h-1.515l1.54-7.359h3.268c.562 0 1 .059 1.313.174.313.116.567.327.759.635.192.307.288.68.288 1.119 0 .625-.187 1.143-.562 1.549-.376.406-.943.658-1.702.756.194.172.377.402.547.687.339.575.714 1.39 1.13 2.44h-1.627c-.13-.415-.386-1.063-.768-1.944-.207-.474-.428-.795-.663-.957-.144-.098-.394-.146-.752-.146h-.617l-.639 3.046Zm.869-4.151h.803c.814 0 1.354-.048 1.62-.146.265-.096.474-.248.625-.456.149-.209.224-.424.224-.652 0-.27-.108-.47-.325-.603-.134-.08-.423-.12-.869-.12h-1.665l-.413 1.977Zm5.486 1.264c0-.433.067-.892.197-1.374.17-.646.43-1.206.78-1.682.349-.475.791-.85 1.322-1.126.533-.278 1.138-.415 1.818-.415.91 0 1.645.283 2.205.848.562.566.842 1.317.842 2.248 0 .778-.182 1.529-.547 2.255-.365.727-.86 1.285-1.485 1.676-.628.392-1.335.588-2.125.588-.685 0-1.261-.156-1.727-.466-.465-.312-.793-.698-.989-1.159a3.56 3.56 0 0 1-.291-1.393Zm1.496-.029c0 .506.154.929.462 1.27.309.34.713.512 1.215.512.408 0 .8-.135 1.177-.404.377-.27.687-.677.934-1.225.245-.547.368-1.08.368-1.599 0-.58-.156-1.033-.466-1.362-.312-.33-.707-.495-1.19-.495-.739 0-1.34.344-1.805 1.035a3.985 3.985 0 0 0-.695 2.268Zm10.256 2.916h-1.436l-.266-6.149-1.17 6.15h-1.365l1.537-7.36h2.157l.226 5.156 2.51-5.156h2.185l-1.542 7.36h-1.382l1.452-6.105-2.906 6.104Zm9.151-1.626h-2.918l-.882 1.626h-1.556l4.16-7.359h1.683l1.194 7.36h-1.436l-.245-1.627Zm-.187-1.225-.427-2.962-1.776 2.962h2.203Zm.02-5.837-.883.893h-1.184l1.49-1.512h1.345l.614 1.512h-.994l-.387-.893Zm8.655 8.688h-1.412L94 49.24l-1.034 4.944h-1.41l1.536-7.359h1.415l1.992 4.925 1.03-4.925h1.405l-1.535 7.36Zm6.36-1.626h-2.918l-.882 1.626h-1.556l4.16-7.359h1.683l1.194 7.36h-1.436l-.245-1.627Zm-.187-1.225-.427-2.962-1.776 2.962h2.203Zm-1.717-6.28h.698c.077.272.18.46.308.568.129.106.293.16.49.16.398 0 .728-.242.989-.727h.663c-.137.46-.36.819-.668 1.074a1.58 1.58 0 0 1-1.028.38c-.393 0-.715-.121-.97-.363-.254-.243-.415-.606-.482-1.091Z"/></svg>