<svg xmlns="http://www.w3.org/2000/svg" viewBox="0 0 323.13 120.41"><defs><style>.a{fill:none;}.b{fill:#fd0;}.c{fill:#231f20;}</style></defs><rect class="a" width="323.13" height="120.41"/><rect class="b" x="71.56" y="5.21" width="180" height="110" rx="9"/><path class="c" d="M123.05,26.81H97.42a4.88,4.88,0,0,0-4.18,1.75,4.89,4.89,0,0,0-.66,4.05c.64,2.18,11.73,20.89,14,24.61,0,0,0,.06.06.1l3.7,6.21-.21-6.1h0c-.53-10.29,5.44-22,13.93-27.49l5.37-3.14ZM107.2,52.25C102.29,43.93,96,33.09,95.58,31.73a1.85,1.85,0,0,1,.16-1.31c.33-.43,1.19-.49,1.68-.49H118.9A36.71,36.71,0,0,0,107.2,52.25Z"/><path class="c" d="M230.41,29.32a4,4,0,0,0-3.7-2.33h-36c-.23.31-22.61,31.67-24.41,34.08l-1.62,2.23c-3.73,5.21-7.25,10.13-14.49,10.13a13.44,13.44,0,0,1-13.25-13.05,13.06,13.06,0,0,1,3.88-9.45A12.93,12.93,0,0,1,150.15,47a13.46,13.46,0,0,1,12.16,7.71l.08.14.77,1.34,1.64-2.39h0l9.79-14.26,1.8-2.62c-6-5.66-16.68-11.68-26.24-11.68a35,35,0,0,0,0,70c20.73,0,37-14.35,47.47-25.14,8.22-8.48,31.37-35.15,31.61-35.41l0,0C231.26,32.11,230.75,30.1,230.41,29.32Zm-3.94,3.76c-3.1,3.57-23.51,27-31.08,34.81-16.2,16.73-30.15,24.19-45.23,24.19a31.88,31.88,0,1,1,0-63.75c7.74,0,16.37,4.41,22.1,9.08l-8.94,13a16.41,16.41,0,0,0-13.11-6.56,16.46,16.46,0,0,0-16.4,16.6,16.58,16.58,0,0,0,16.37,16.08c8.85,0,13.2-6.08,17-11.44l1.57-2.17c1.64-2.19,19.22-26.81,23.53-32.84h34.31a.93.93,0,0,1,.92.46c.19.42,0,1.33-1.08,2.51Z"/></svg>