<svg xmlns="http://www.w3.org/2000/svg" viewBox="0 0 320 120"><defs><style>.a{fill:none;}.b{fill:#ffcd00;}.c{fill:#193c6b;}</style></defs><rect class="a" width="320" height="120"/><rect class="b" x="10" y="20" width="300" height="80" rx="9"/><path class="c" d="M67.51,75a3.75,3.75,0,1,0,3.74-3.75A3.74,3.74,0,0,0,67.51,75m26-11.26A21.73,21.73,0,0,1,72,82.52h-.75A7.51,7.51,0,1,1,78.74,75v0a7.6,7.6,0,0,1-.47,2.63,18.41,18.41,0,0,0,4.22-2.25V75A11.25,11.25,0,1,0,71.25,86.27a26.23,26.23,0,0,0,26-22.52Zm-37.25,0h-11A26.37,26.37,0,0,0,58.56,83a15,15,0,0,1-2.29-8ZM101.22,60a30,30,0,1,1-59.93,0H60v5.08a15,15,0,0,1,25.94,7A18,18,0,0,0,90,61V60Z"/><path class="c" d="M71.25,48.2H69.41v-7a3.75,3.75,0,0,0-1.92,7H62.6a7.56,7.56,0,0,1,.23-6.85,3.63,3.63,0,0,0-.92-.12,3.76,3.76,0,0,0-1.94,7H55.09a7.49,7.49,0,0,1,10.54-9.72,7.47,7.47,0,0,1,3.75-1,7.21,7.21,0,0,1,1.84.24,7.09,7.09,0,0,1,1.84-.24,7.39,7.39,0,0,1,3.75,1A7.49,7.49,0,0,1,87,41.22a7.56,7.56,0,0,1,.28,7H82.55a3.76,3.76,0,0,0-1.93-7,3.57,3.57,0,0,0-.92.12,7.5,7.5,0,0,1,.23,6.85H75.05a3.75,3.75,0,0,0-1.93-7v7Z"/><path class="c" d="M55.09,51.48a2.26,2.26,0,1,1,2.26,2.26h0a2.26,2.26,0,0,1-2.26-2.26"/><path class="c" d="M82.86,51.48a2.27,2.27,0,1,1,2.27,2.26h0a2.27,2.27,0,0,1-2.27-2.26"/><path class="c" d="M75.93,51.48a2.26,2.26,0,1,1,2.26,2.26h0a2.26,2.26,0,0,1-2.26-2.26"/><path class="c" d="M69,51.48a2.27,2.27,0,1,1,2.26,2.26h0A2.26,2.26,0,0,1,69,51.48"/><path class="c" d="M62.05,51.48a2.27,2.27,0,1,1,2.27,2.26h0A2.27,2.27,0,0,1,62,51.48"/><path class="c" d="M60,55H82.49v3.76H60Z"/><path class="c" d="M70.63,33.36v-.92H69.38V31.22h1.25V30h1.25v1.25h1.25v1.25H71.88v.92a1.84,1.84,0,1,1-1.25,0"/><path class="c" d="M143.22,68.42c-3.73,2.23-8.27,4-11.86,4.16-3.87.19-8.13-.5-9.32-4.38-1.76-5.7,1.75-13,6.31-15.4,6.33-3.37,11.58-1.55,13.38.3l1.32-6.8a23.42,23.42,0,0,0-7.71-1.68c-9.55,0-14.14,4.65-17,8.52-3.22,4.34-7.52,15.29.48,22.85,2.38,2.26,6.73,3.64,10.85,3.36a25.43,25.43,0,0,0,14.29-5,8.88,8.88,0,0,0,.66,1.16q2.49,3.49,9.06,3.54c7.29,0,12.1-2.86,13.57-11.09l.47-2.74a6.76,6.76,0,0,1,.15-.88,18.26,18.26,0,0,0,.19-2.56c0-6.22-3.8-8.92-10.54-8.92-7.22,0-11.91,2.82-13.54,11,4-2.59,7.84-5.26,12.88-5.26,2.79,0,3.64,1.12,3.64,3.21a12.92,12.92,0,0,1-.22,2.48.48.48,0,0,1-.05.26l-.5,2.71c-.9,4.4-2.1,5.94-5.51,5.94-2.6,0-3.57-.88-3.57-3.12a17.78,17.78,0,0,1,.23-2.82c.1-.55.79-3.76.79-3.76s-4.7,2.63-8.46,4.87"/><path class="c" d="M188.29,52.93a13.4,13.4,0,0,0-8.74,2.69l.35-2h-7l-4.41,24.81h7.62l3.21-18a30.07,30.07,0,0,1,7.89-1.12Z"/><path class="c" d="M206,52.93a13.46,13.46,0,0,0-8.74,2.69l.38-2h-7L186.2,78.43h7.61l3.21-18a30.07,30.07,0,0,1,7.89-1.12Z"/><path class="c" d="M269.94,58c1.89,0,4.87.19,8,.5l.77-4.58a37,37,0,0,0-8.9-1c-5.8,0-11.41,1.23-11.41,7.78,0,3.62,2.05,5.78,5.84,7.28l1.86.73c2.67,1.12,3.25,1.51,3.25,2.7,0,2.12-2,2.54-4.41,2.54-3.67,0-5.14-.3-8.39-.45L255.77,78a40.91,40.91,0,0,0,8.75,1c7.07,0,12.45-2.12,12.45-8.59,0-3.47-1.74-5.39-6.07-7.09l-2.09-.81c-2.05-.84-2.86-1.27-2.86-2.31,0-2.12,2.2-2.2,4-2.2"/><path class="c" d="M247.55,64.64l-.55,2.7c-.85,4.39-2,5.93-5.45,5.93-2.59,0-3.6-.89-3.6-3.12a13.25,13.25,0,0,1,.27-2.81l.55-2.7c.81-4.39,2.08-5.93,5.41-5.93,2.79,0,3.6,1.11,3.6,3.2a13.13,13.13,0,0,1-.23,2.73m-2.71-11.71c-7.24,0-11.91,2.81-13.5,11l-.5,2.39a17.35,17.35,0,0,0-.31,3.81c0,5.93,3.59,8.9,10.44,8.9,7.31,0,12.11-2.85,13.58-11.06l.46-2.73a23.18,23.18,0,0,0,.35-3.43c0-6.21-3.79-8.9-10.52-8.9"/><path class="c" d="M221.28,63.91h-8.93l.12-.35c.46-2.7,1.58-5.24,5.3-5.24,2.94,0,3.78,1.47,3.78,3.31a14.48,14.48,0,0,1-.27,2.28m-2.82-11c-7.23,0-12.38,3-13.84,11.71l-.2,1.31a25.22,25.22,0,0,0-.46,4.16c0,6.28,3.82,8.94,11,8.94A46.74,46.74,0,0,0,225,78l.81-5c-4.68.31-6.85.43-9.44.43-4,0-5.1-1-5.1-3a15.41,15.41,0,0,1,.3-2.35H228a29.56,29.56,0,0,0,.73-6c0-5.4-2.94-9.09-10.25-9.09"/></svg>