<svg xmlns="http://www.w3.org/2000/svg" viewBox="0 0 320 120"><defs><style>.a{fill:none;}.b{fill:#003a77;}.b,.c{fill-rule:evenodd;}.c{fill:#fdb813;}</style></defs><rect class="a" width="320" height="120"/><path class="b" d="M125.61,5.47h95.56V81.24H125.61ZM98.39,6.7l3.26,3.3v2.31l-3.26-2.14Zm7.54-1.06h6.27c.5,0,1.58.11,1.78-.64h.41V8.31a4.37,4.37,0,0,1-1.33.36,4.83,4.83,0,0,1,1.64,3.9c0,2.06-1.14,3.67-3.31,3.67s-3.4-1.39-3.73-3.47l-.42-2.93c0-.72-.39-1.14-.83-1.14-1.17,0-1.4,1.06-1.4,2.12s.28,1.67,1.62,2v3.06c-3.06-.33-4.07-2.34-4.07-5.34C102.56,8.4,103.29,5.64,105.93,5.64Zm2.9,3.06a5.2,5.2,0,0,1,.64,2.17c.14,1.34.53,2.2,1.75,2.2a1.28,1.28,0,0,0,1.32-1.24,1.48,1.48,0,0,0,0-.21,3,3,0,0,0-1-2.5c-.86-.64-1.59-.39-2.67-.42Zm2,16h3.59v3.17H98.86V24.65h8.46l-4.39-3.87V16.86l4.45,4.28,7-4.37v3.76l-4.87,2.87Zm-4.39,5.87v3.12c-1.26.33-1.51.89-1.51,2.23s.39,2,1.14,2c.37,0,.7-.39.89-1.26s.45-1.78.64-2.75c.42-1.89,1.17-3.62,3.23-3.62,2.81,0,3.9,2.28,3.9,5.34,0,2.68-.86,5.79-3.9,5.79v-3.2c1,0,1.62-.92,1.62-2.73,0-.64-.09-2.08-1.17-2.08-.39,0-.73.5-.92,1.33s-.45,1.92-.61,2.81c-.5,1.84-1.23,3.4-3.26,3.43-2.75,0-3.9-2.42-3.9-4.87,0-3.43,1.28-5.29,3.85-5.49Zm0,12.86h7.93v3.15h-7c-1.23,0-2.34.33-2.34,2.11a2.46,2.46,0,0,0,2.35,2.55h6.94v3.11H102.93v-3h1.67v-.08a4.07,4.07,0,0,1-2-3.65c0-2.36,1.4-4.23,3.86-4.23ZM111.06,60V56.74c2.65.73,3.62,2.62,3.62,5.26,0,3.87-2,6-6.29,6-3.48,0-5.85-2-5.85-5.71,0-5,4.32-5.84,7-5.7v8.24c2.12,0,2.81-1.17,2.79-2.79a2,2,0,0,0-1.25-2.12Zm-3.51,4.7V60c-1.41.25-2.47.86-2.47,2.33s.85,2.13,2.49,2.32Zm-4.64,4L114.39,73v3.34l-11.46,4.29V77.12l7.82-2.51L102.93,72V68.6Zm5.73,12.53c3.92,0,6,2.61,6,6.23s-2.2,6.15-6,6.15a5.75,5.75,0,0,1-6.1-6.15c0-3.62,2.17-6.3,6.12-6.3Zm0,3.28c-1.61,0-3.56.64-3.56,3s1.92,2.87,3.56,2.87,3.54-.42,3.54-2.87-1.91-3.07-3.52-3.07Zm-9.8,11.38h15.53V99H98.86Zm10.86,19v-3.2c2,0,2.5-1.92,2.48-3.45,0-1.34-.26-3.43-2-3.43-.87,0-1.62.62-2,3a28.94,28.94,0,0,1-1.17,4.48c-.58,1.78-2.14,2.37-3.78,2.37-3.48,0-4.79-3.09-4.79-6.18,0-4.59,2.62-6.26,5-6.37v3.28c-1.92.14-2.4,1.61-2.4,3.34,0,1.28.45,2.81,1.92,2.81,1.12,0,1.42-.78,1.62-1.72l.92-4c.66-2.84,1.61-4.31,4.2-4.31,3.53,0,5,3,5,6.43s-1.25,6.93-5.12,6.93Zm97.61-5.15-1.53,4.57h-4.7l7.68-21.88H214l7.65,21.88h-4.93l-1.36-4.57Zm3.95-12.25L208.54,106H214l-2.64-8.49ZM196.7,96.21v18h-4v-18H186V92.29h17.28v3.9ZM181,88.56h-3.64L175.24,91l-2.09-2.45h-3.67l3,3.51c-3.28.64-6.09,2.58-6.09,6.51,0,2.86,1.28,4.53,3.37,5.31a42.08,42.08,0,0,0,6.45,1.65c3.82.75,4.23,1.64,4.23,2.78,0,1.78-1.64,2.76-4.87,2.76s-4.92-1.42-4.92-3.51H166c0,5.62,5,7.24,9.88,7.24,3.87,0,9.21-1.48,9.21-7.07,0-3.73-1.75-4.88-6.15-5.91l-5.65-1.28c-1.37-.36-2.45-.69-2.45-2.31,0-2,2.23-2.7,4-2.7,3.14,0,4.56,1.28,4.76,3.37h4.7A7.26,7.26,0,0,0,178,92.05l2.92-3.5Zm-37.71,14.86c0-6.73,4.87-11.8,10.44-11.8s10.41,4.62,10.41,11.8S159.18,115,153.7,115s-10.44-4.84-10.44-11.58Zm4.28,0c0,3.87,2,7.77,6.07,7.77s6.21-4,6.21-7.77-2.14-8-6.21-8S147.57,99.49,147.57,103.42Zm-18,3v7.83h-3.92v-22H135c4.12,0,6.48,2.84,6.48,7.12s-2.78,6.93-6.65,6.93Zm0-3.78h4.93a3.26,3.26,0,1,0,.36-6.51H129.5v6.51"/><path class="c" d="M173.37,30a9.94,9.94,0,1,1-9.9,10v0A10,10,0,0,1,173.37,30ZM129.76,9.76c.3,8.63,3.67,17.84,8.38,26.33C148.46,54.74,161,61.42,173.37,61.42a21.53,21.53,0,1,0-15.83-36.21,57.47,57.47,0,0,0,2.25,10.13,14.43,14.43,0,0,1,13.58-9.63,14.2,14.2,0,0,1,0,28.39c-16.75,0-21.32-24.19-21.37-44.34ZM156.92,20a25.9,25.9,0,0,1,16.45-6A26.22,26.22,0,0,1,198,31.83c2.09-2.31,7.1-13.16,8-22.07H156.42a69.15,69.15,0,0,0,.5,10.27ZM217.05,9.76h-6.77c-1.47,12.22-6.73,23.16-11.13,28.36V39.9a25.91,25.91,0,0,1-3.32,12.7C206.52,43.47,216.8,24.34,217.05,9.76Zm-.17,18.4c-4.79,13.16-12.55,23.88-22,30.45l22,13.14Zm-86.95.11v43.5l21.93-13.13c-9.38-6.54-17.18-17.26-21.93-30.37Zm60.67,33,26.28,15.64H129.93L156.2,61.25a35.57,35.57,0,0,0,17.17,4.48,36.55,36.55,0,0,0,17.23-4.45"/></svg>