<svg xmlns="http://www.w3.org/2000/svg" viewBox="0 0 320 120"><defs><style>.a{fill:none;}.b{fill:#ffdc00;}</style></defs><rect class="a" width="320" height="120"/><path class="a" d="M193.56,80.51q-2.17,2-4.23,3.66Q191.39,82.48,193.56,80.51Z"/><path class="a" d="M197.13,77.2c-.53.5-1,1-1.58,1.48C196.08,78.2,196.6,77.7,197.13,77.2Z"/><path class="a" d="M174.05,94.37c-1.14.55-2.25,1-3.36,1.49C171.8,95.42,172.91,94.92,174.05,94.37Z"/><path class="a" d="M212.48,61.08c-.87,1-1.73,2-2.58,2.88C210.75,63,211.61,62.06,212.48,61.08Z"/><path class="a" d="M178.68,91.84c-1.18.71-2.35,1.36-3.49,2C176.33,93.2,177.5,92.55,178.68,91.84Z"/><path class="a" d="M184.82,87.71q-1.92,1.41-3.73,2.61C182.3,89.52,183.55,88.65,184.82,87.71Z"/><path class="a" d="M187.4,85.74l-2.58,2Z"/><path class="a" d="M218,54.77l-1.72,2Z"/><path class="a" d="M102,22.88h0c-.25.29-.51.59-.76.9A7.88,7.88,0,0,1,102,22.88Z"/><path class="a" d="M100.88,24.19a38.14,38.14,0,0,0-2.4,3.31C99.25,26.32,100.06,25.22,100.88,24.19Z"/><path class="a" d="M77.23,23.76a1.21,1.21,0,0,0,.19.52L91.66,46.13,77.42,24.28A1.21,1.21,0,0,1,77.23,23.76Z"/><path class="a" d="M94.4,35.45c-.14.34-.27.69-.4,1C94.13,36.14,94.26,35.79,94.4,35.45Z"/><path class="a" d="M98.48,27.5A45.43,45.43,0,0,0,95.91,32,45.43,45.43,0,0,1,98.48,27.5Z"/><polygon class="a" points="201.61 22.88 176.53 61.37 201.61 22.88 201.61 22.88"/><path class="a" d="M118.19,84.09c-.74-1-1.44-2-2.09-3.06C116.75,82.09,117.45,83.11,118.19,84.09Z"/><path class="a" d="M157.2,39.83a24.63,24.63,0,0,0-3.67-.92A24.63,24.63,0,0,1,157.2,39.83Z"/><path class="a" d="M198.62,75.76c.76-.74,1.52-1.5,2.3-2.28Z"/><path class="a" d="M121.85,88.22a35.5,35.5,0,0,1-2.51-2.69A35.5,35.5,0,0,0,121.85,88.22Z"/><path class="a" d="M166.33,97.38c-1.08.32-2.15.59-3.21.82A32.89,32.89,0,0,0,166.33,97.38Z"/><path class="a" d="M159.92,98.78c-1.42.2-2.84.35-4.27.44C157.08,99.13,158.5,99,159.92,98.78Z"/><path class="a" d="M146,99.11q-2.07-.21-4.05-.6Q143.93,98.9,146,99.11Z"/><path class="a" d="M129.25,93.81a35.46,35.46,0,0,1-3.14-2A35.46,35.46,0,0,0,129.25,93.81Z"/><path class="a" d="M132.62,95.55c-1.16-.53-2.28-1.11-3.37-1.74C130.34,94.44,131.46,95,132.62,95.55Z"/><path class="a" d="M169.59,96.29c-.73.28-1.46.53-2.18.76C168.13,96.82,168.86,96.57,169.59,96.29Z"/><path class="b" d="M94.4,35.45c.46-1.17,1-2.31,1.51-3.41a46,46,0,0,1,2.57-4.54c.77-1.18,1.58-2.28,2.4-3.31l.33-.41c.25-.31.51-.61.76-.9H78.18a1.12,1.12,0,0,0-.54.12.73.73,0,0,0-.41.76,1.21,1.21,0,0,0,.19.52L91.66,46.13c.07-.59.15-1.18.25-1.76A43.8,43.8,0,0,1,94,36.49C94.13,36.14,94.26,35.79,94.4,35.45Z"/><path class="b" d="M241.82,22.88H201.61L176.53,61.37q-.74,1.14-1.47,2.22a62.8,62.8,0,0,1-8.79,10.84A29.58,29.58,0,0,1,163.15,77a21.41,21.41,0,0,1-12.93,4.08c-12.12,0-21.49-8.42-21.49-21s9.09-21.46,21-21.49a22.57,22.57,0,0,1,3.85.33,24.63,24.63,0,0,1,3.67.92,20.13,20.13,0,0,1,6,3.14l9.58-14.77c-.73-.58-1.48-1.13-2.27-1.66a34.28,34.28,0,0,0-9.28-4.32c-1-.29-2-.54-3-.76a40.59,40.59,0,0,0-6.59-.78h-1.75c-23,0-39.7,17.05-39.42,40A39.76,39.76,0,0,0,116.1,81c.65,1.06,1.35,2.08,2.09,3.06.37.49.76,1,1.15,1.44a35.5,35.5,0,0,0,2.51,2.69,37,37,0,0,0,7.4,5.59c1.09.63,2.21,1.21,3.37,1.74a41.81,41.81,0,0,0,9.33,3q2,.39,4.05.6c1.38.14,2.79.22,4.22.24,1.84,0,3.64,0,5.43-.13,1.43-.09,2.85-.24,4.27-.44,1.06-.16,2.13-.35,3.2-.58s2.13-.5,3.21-.82q.54-.15,1.08-.33c.72-.23,1.45-.48,2.18-.76.37-.13.73-.28,1.1-.43,1.11-.44,2.22-.94,3.36-1.49l1.14-.58c1.14-.59,2.31-1.24,3.49-2,.79-.48,1.59-1,2.41-1.52,1.21-.8,2.46-1.67,3.73-2.61.84-.62,1.7-1.28,2.58-2,.63-.5,1.28-1,1.93-1.57q2.05-1.69,4.23-3.66c.66-.59,1.32-1.2,2-1.83s1-1,1.58-1.48l1.49-1.44c.76-.74,1.52-1.5,2.3-2.28l2.35-2.4,1.61-1.69c1.63-1.71,3.29-3.52,5-5.43.85-.93,1.71-1.9,2.58-2.88,1.22-1.38,2.47-2.82,3.75-4.3l1.72-2c7.25-8.52,15.35-18.61,24.52-30.57a1.09,1.09,0,0,0,.22-.49.81.81,0,0,0,0-.22C242.66,23.13,242.35,22.88,241.82,22.88Z"/><path d="M114.89,17.23H77.5c-3.75,0-6.24,2.51-6.24,5.79a7,7,0,0,0,1.5,4.52L95.12,61.06C94.45,42.59,103.2,26.44,114.89,17.23Zm-23,27.14c-.1.58-.18,1.17-.25,1.76L77.42,24.28a1.21,1.21,0,0,1-.19-.52.73.73,0,0,1,.41-.76,1.12,1.12,0,0,1,.54-.12H102c-.25.29-.51.59-.76.9l-.33.41a38.14,38.14,0,0,0-2.4,3.31,45.69,45.69,0,0,0-2.6,4.5c-.54,1.1-1,2.24-1.51,3.41-.14.34-.27.69-.4,1a43,43,0,0,0-2.09,8Z"/><path d="M242.5,17.23H198.59L172.21,57.75c-8.1,12.46-13.61,17.65-22,17.65-8.93,0-15.85-5.87-15.85-15.3s6.56-15.87,15.54-15.87c6.43,0,11.11,3.4,14.39,7.16l15.92-24C173.32,20.08,162.86,15,149.76,15c-26,0-45.26,19.71-45,45.72C105,86,124.22,104.72,150.2,105c26.48.29,45.6-10.9,96.46-77,1.58-2.06,2.06-3.25,2.06-5C248.74,19.74,246.25,17.23,242.5,17.23Zm.19,6.48a1.09,1.09,0,0,1-.22.49C233.3,36.2,225.2,46.25,218,54.77l-1.72,2c-1.28,1.48-2.53,2.92-3.75,4.3-.87,1-1.73,2-2.58,2.88q-2.58,2.86-5,5.43l-1.61,1.69-2.35,2.4c-.78.78-1.54,1.54-2.3,2.28l-1.49,1.44c-.53.5-1,1-1.58,1.48s-1.33,1.24-2,1.83q-2.17,2-4.23,3.66c-.65.54-1.3,1.07-1.93,1.57l-2.58,2q-1.92,1.41-3.73,2.61c-.82.53-1.62,1-2.41,1.52-1.18.71-2.35,1.36-3.49,2l-1.14.58c-1.14.55-2.25,1-3.36,1.49-.37.15-.73.3-1.1.43-.73.28-1.46.53-2.18.76l-1.08.33c-1.08.32-2.15.59-3.21.82s-2.14.42-3.2.58c-1.42.2-2.84.35-4.27.44-1.79.11-3.59.15-5.43.13a41.78,41.78,0,0,1-4.22-.24q-2.07-.21-4-.6a41.81,41.81,0,0,1-9.33-3c-1.16-.53-2.28-1.11-3.37-1.74a37,37,0,0,1-7.4-5.59,35.5,35.5,0,0,1-2.51-2.69c-.39-.47-.78-1-1.15-1.44-.74-1-1.44-2-2.09-3.06a39.7,39.7,0,0,1-5.67-20.34c-.28-23,16.46-40,39.42-40h1.75a40.59,40.59,0,0,1,6.59.78c1,.22,2.05.47,3,.76a34.28,34.28,0,0,1,9.28,4.32c.79.53,1.54,1.08,2.27,1.66L163.19,43a20.13,20.13,0,0,0-6-3.14,24.63,24.63,0,0,0-3.67-.92,22.57,22.57,0,0,0-3.85-.33c-11.86,0-21,8.89-21,21.49s9.37,21,21.49,21a21.63,21.63,0,0,0,13-4.1,29.3,29.3,0,0,0,3.12-2.54,62.8,62.8,0,0,0,8.79-10.84q.74-1.08,1.47-2.22l25.08-38.49h40.21c.53,0,.84.25.88.61A.61.61,0,0,1,242.69,23.71Z"/></svg>