<svg xmlns="http://www.w3.org/2000/svg" width="128" height="64" fill="none"><rect width="128" height="64" fill="#fff" rx="6"/><path fill="#EF352F" d="M74.03 7c.098 0 .193.034.268.095.046.041.35.323.428.378a.51.51 0 0 0 .313.14c.164 0 .655-.04.791-.04a.559.559 0 0 1 .327.09c.166.137.319.29.455.455.055.091.132.187-.045.218-.178.032-.487.073-.596.105-.109.032-.136.1-.068.182.068.082.377.454.454.577.078.123.119.218-.054.273l-.764.227c-.154.045-.282.06-.386-.064a43.57 43.57 0 0 1-.523-.64.369.369 0 0 0-.373-.11c-.154.037-.627.191-.754.237a.345.345 0 0 1-.337-.046 2.909 2.909 0 0 1-.481-.668c-.082-.195 0-.277.104-.323.23-.072.464-.132.7-.177.096 0 .087-.1 0-.168-.086-.068-.25-.268-.345-.35a.155.155 0 0 1 .1-.26c.258-.066.52-.11.786-.131ZM77.14 13.114c.26-.078.531-.114.804-.11a.455.455 0 0 1 .454.269 10.5 10.5 0 0 1 .91 2.9c.216 1.2.31 2.418.281 3.636a.454.454 0 0 1-.454.427c-.321.023-.643.006-.96-.05a.455.455 0 0 1-.345-.454c.041-1.062.01-2.125-.095-3.182a14.316 14.316 0 0 0-.723-3.073.305.305 0 0 1 .104-.404"/><path fill="#EF352F" d="M70.24 18.582a.582.582 0 0 1-.178-.505 9.132 9.132 0 0 1 2.564-5.454 8.536 8.536 0 0 1 5.94-2.564 8.35 8.35 0 0 1 5.887 2.464c1.5 1.5 2.596 3.85 2.596 5.663a1.432 1.432 0 0 1-.81 1.469 10.791 10.791 0 0 1-4.877 1.522 8.678 8.678 0 0 0 3.046-2.032 1.364 1.364 0 0 0 .345-1.363 7.305 7.305 0 0 0-2.09-4.132 6.03 6.03 0 0 0-4.383-1.768 6.446 6.446 0 0 0-4.636 1.936 8.673 8.673 0 0 0-2.518 4.946c-.046.309-.178.286-.332.222a3.813 3.813 0 0 1-.555-.422"/><path fill="#3BA445" d="M77.475 52.573a18.044 18.044 0 0 1 9.064-2.564c1.695 0 4.091.332 7.445 1.691.967.41 1.998.645 3.046.695-2.118.341-5-.263-7.95-.263a35.732 35.732 0 0 0-7.918.959c-2.964.714-6.364 2.168-8.482 3.91a15.715 15.715 0 0 1 4.795-4.428ZM104.617 21.223a26.316 26.316 0 0 1-3.041-2.964c-3.787-3.986-5.76-8.255-4.491-9.482 1.268-1.227 5.414 1.014 9.2 5 3.786 3.987 6.073 8.018 4.782 9.246-.372.3-.824.485-1.3.532-4.405.718-9.259 2.909-12.968 5.418 3.586-1.646 8.69-3.428 14.259-3.378a3.637 3.637 0 0 0 2.459-.8c1.918-1.918-.678-7.113-5.491-11.932-4.814-4.818-10.318-7.127-12.273-5.159a2.506 2.506 0 0 0-.695 1.819c0 .336-.037.79-.037 1.063 0 5.873-5.454 15.205-16.2 15.205a14.547 14.547 0 0 1-10.614-4.282 13.181 13.181 0 0 1-3.3-5.418 12.42 12.42 0 0 0-.518-1.7.954.954 0 0 0-.936-.514c-.732 0-1.546.377-2.441 1.005-.895.627-1.514 1.509-1.514 2.022a.382.382 0 0 0 .26.391c.068 0 .131 0 .095-.059-.036-.059-.114-.282.164-.663A3.132 3.132 0 0 1 62.22 15.5c.577-.064.91 0 1.264.936a20.455 20.455 0 0 0 3.323 6.428 15.188 15.188 0 0 0 11.945 6.013c9.296 0 14.346-6.577 16.586-13.304.26-.76.445-1.545.55-2.341 0-.073 0-.064.046 0 .052.08.099.164.14.25 1.464 3.063 5.196 6.732 8.542 7.727"/><path fill="#005D26" d="M29.07 36.328c1.592 0 2.683.781 2.683 2.313v6.45c0 .341.077.65.409.65.332 0 .454-.618.454-1.264h.578c.007.425-.04.848-.141 1.26a1.79 1.79 0 0 1-1.596 1.327 1.678 1.678 0 0 1-1.486-1.323c0-.05-.036-.04-.055 0a2.322 2.322 0 0 1-2.14 1.26c-1.028 0-1.996-.769-1.996-2.35 0-1.71 1.127-3.123 3.377-4.046a.827.827 0 0 0 .56-.76V38.45c0-.663-.319-1.409-1.16-1.409a1.819 1.819 0 0 0-1.295.514c-.096.1-.055.14.082.059a.604.604 0 0 1 .281-.06.91.91 0 0 1 .85.964v.055a1.186 1.186 0 0 1-2.372 0v-.155c.004-1 .968-2.09 2.968-2.09Zm-.704 5.754a3.691 3.691 0 0 0-.55 1.986c0 .532.078 1.746.882 1.746.805 0 1.018-1.16 1.018-1.427v-2.919c0-.245.137-.386.11-.422-.028-.037-.123 0-.187.054-.488.235-.921.57-1.273.982ZM37.18 36.396c.287-.007.572.047.837.159.04.045.054.068.077-.032s.636-1.223 1.673-1.223a.854.854 0 0 1 .909.787v.086a.91.91 0 0 1-.8.968.69.69 0 0 1-.691-.645.882.882 0 0 1 .054-.264c0-.064 0-.077-.063-.045-.203.17-.382.367-.532.586-.046.073-.027.109.059.113a.353.353 0 0 1 .173.091 3.736 3.736 0 0 1 1.29 3.019c0 1.745-.99 2.959-2.095 3.336-.554.186-1.073.095-1.627.304-.555.21-.75.41-.75.719s.209.513 1.032.563c0 0 1.527.064 1.818.091 1.573.164 2.386 1.15 2.386 2.364 0 1.677-1.19 3.054-3.972 3.054-2.223 0-3.182-.981-3.182-1.881 0-.787.527-1.441 1.5-1.819.077-.031.077-.063 0-.086a1.577 1.577 0 0 1-1.155-1.459c0-.755.573-1.51 1.718-2.005.046 0 .032-.036 0-.063-1.127-.578-1.659-1.76-1.659-3.291 0-2.041 1.364-3.423 3.005-3.423l-.005-.004Zm-.936 3.29c0 2.605.336 3.182.909 3.182.645 0 .909-.495.909-2.795 0-2.727-.39-3.068-.91-3.068-.517 0-.908.454-.908 2.695v-.014Zm-1.127 8.587c0 .686.636 1.554 2.127 1.554 1.49 0 2.477-.754 2.477-1.745 0-.99-1.118-1.086-1.468-1.118l-1.982-.141c-.35.173-1.14.654-1.14 1.45M41.421 36.496h3.523v.618c-.26 0-.705.104-.55.723l1.109 4.336c.086.323.027.64.104.64.078 0 .064-.322.15-.631l1.137-4.177a.668.668 0 0 0-.314-.741 1.282 1.282 0 0 0-.577-.15v-.618h2.727v.618a1.05 1.05 0 0 0-1.059.936l-2.45 8.9a12.65 12.65 0 0 1-.768 2.323 2.131 2.131 0 0 1-1.705 1.14 1.264 1.264 0 0 1-1.336-1.19v-.082a1.136 1.136 0 0 1 1.1-1.159.968.968 0 0 1 .977.95.868.868 0 0 1-.104.486c-.087.128-.173.196-.16.214.014.018.123-.054.25-.195.242-.264.427-.573.546-.91.18-.561.332-1.132.454-1.709.069-.253.069-.52 0-.772l-2.222-8.291c-.096-.332-.214-.569-.823-.669v-.59M89.412 36.727v.587h.91c.24 0 .386-.082.422-.046.036.037-.064.118-.073.455v7.318a1.873 1.873 0 0 0 2.027 1.991c1.819 0 2.373-1.586 2.373-2.982v-.363h-.618c0 1.672-.432 2.272-.91 2.272a.841.841 0 0 1-.754-.94v-7.341c0-.241-.072-.373-.05-.396.023-.023.137.027.319.032h1.727v-.818h-1.736c-.15 0-.246.077-.278.05-.032-.028.05-.155.046-.268l-.041-4.055h-.76c0 1.159-.54 3.555-2.604 4.505ZM56.68 36.455l2.977-.087.028 1.56s-.069.454 0 .454c.068 0 .118-.26.209-.455.282-.677.945-1.627 1.959-1.627a1.24 1.24 0 0 1 1.286 1.196v.068a1.2 1.2 0 0 1-1.104 1.286h-.077a1 1 0 0 1-1.046-.959.919.919 0 0 1 0-.16c0-.117 0-.154-.068-.054-.732 1.21-1.077 3.069-1.077 4.755v3.086c0 .637.345.637 1.136.637v.663h-4.141v-.677c.668 0 .95-.118.95-.632v-7.727c0-.455-.296-.632-.71-.632h-.313v-.695M70.68 40.182v5.29c-.05.574.705.728 1.086.728v.596h-4.445V46.2a.828.828 0 0 0 .91-.727V32.382c-.028-.323-.36-.586-.91-.591v-.632h4.405c3.745 0 4.322 2.873 4.322 4.214 0 1.068-.545 4.604-4.695 4.604-.124.01-.249.01-.373 0-.109 0-.264-.09-.304-.04-.041.05.027.127.027.263l-.023-.018Zm0-7.637v6.364c0 .173-.073.25-.032.282.041.032.11-.027.287 0 1.386 0 2.409-.568 2.409-3.84 0-2.364-.564-3.514-1.818-3.514-.455 0-.846.15-.846.713M78.776 36.264c1.095 0 3.445 1.14 3.445 5.4 0 2.65-1.29 5.4-3.413 5.4-2.296 0-3.541-2.727-3.541-5.36 0-4.295 2.327-5.454 3.509-5.454v.014Zm-1.205 5.54c0 2.805.218 4.619 1.196 4.619.977 0 1.136-2.046 1.136-4.596 0-3.086-.2-4.968-1.16-4.968-.808 0-1.172 1.26-1.172 4.946ZM86.635 43.195a79.18 79.18 0 0 0-1.655-1.104 3.355 3.355 0 0 1-1.632-3.014c0-1.422.91-2.727 2.3-2.727 1.073 0 1.364.623 1.678.623.313 0 .577-.455.659-.623h.559v3.686h-.646c-.645-2.218-1.363-3.032-2.2-3.022a1.05 1.05 0 0 0-1.1.995 1.082 1.082 0 0 0 0 .173c0 .645.373 1.118 1.11 1.632l1.927 1.277a3.514 3.514 0 0 1 1.468 2.859c0 1.532-1.055 3.04-2.641 3.04-1.014 0-1.364-.6-1.75-.6-.386 0-.555.342-.718.592h-.591v-4.187h.595c.364 1.319.96 3.482 2.432 3.482a1.236 1.236 0 0 0 1.31-1.327 2.15 2.15 0 0 0-1.119-1.755M19.453 38.818l1.313-7.645h3.923v.632c-.559 0-.909.268-.909.59v13.073c0 .582.54.732.91.732v.596h-4.25V46.2c.326 0 .908-.132.908-.704V33.559a6.049 6.049 0 0 0 0-1.282c-.09.423-.154.851-.19 1.282l-2.355 13.237h-.65L15.88 33.568a8.671 8.671 0 0 0-.19-1.277 6.694 6.694 0 0 0 0 1.282v10.623c-.01.353.001.707.03 1.059a1.032 1.032 0 0 0 1.055.945v.6h-2.927v-.6a.959.959 0 0 0 .986-.823c.032-.313.037-1.181.037-1.181V32.568c0-.613-.427-.781-.91-.781h-.113v-.628h4.091l1.314 7.66c.072.422 0 .763.081.763.056-.252.096-.507.119-.764ZM51.935 36.318c1.595 0 2.686.778 2.686 2.314v6.45c0 .34.077.65.409.65.332 0 .455-.618.455-1.264h.577c.005.424-.042.847-.141 1.26a1.791 1.791 0 0 1-1.596 1.322 1.663 1.663 0 0 1-1.486-1.322c0-.046-.036-.041-.054 0A2.319 2.319 0 0 1 50.644 47c-1.028 0-1.996-.773-1.996-2.354 0-1.705 1.127-3.123 3.382-4.041a.84.84 0 0 0 .555-.76v-1.408c0-.66-.319-1.405-1.164-1.405a1.818 1.818 0 0 0-1.291.51c-.095.104-.055.145.082.063a.673.673 0 0 1 .282-.064.91.91 0 0 1 .85.964 1.185 1.185 0 0 1-1.64 1.155 1.185 1.185 0 0 1-.733-1.096v-.155c.027-1.004.968-2.09 2.964-2.09Zm-.7 5.75a3.703 3.703 0 0 0-.55 1.991c0 .528.077 1.746.881 1.746.805 0 1.019-1.164 1.019-1.428V41.46c0-.25.136-.386.109-.422-.028-.037-.123 0-.187.05-.486.237-.919.571-1.272.981ZM98.999 36.318c1.595 0 2.681.778 2.681 2.314v6.45c0 .34.078.65.41.65.331 0 .454-.618.454-1.264h.582a4.73 4.73 0 0 1-.146 1.26 1.79 1.79 0 0 1-1.595 1.322 1.658 1.658 0 0 1-1.477-1.322c0-.046-.041-.041-.06 0A2.309 2.309 0 0 1 97.713 47c-1.027 0-1.995-.773-1.995-2.354 0-1.705 1.127-3.123 3.382-4.041a.841.841 0 0 0 .554-.76v-1.408c0-.66-.314-1.405-1.159-1.405a1.819 1.819 0 0 0-1.314.51c-.09.104-.05.145.082.063a.671.671 0 0 1 .282-.064.909.909 0 0 1 .85 1.005 1.186 1.186 0 1 1-2.373 0v-.155c0-1.023.96-2.109 2.96-2.109l.018.036Zm-.705 5.75a3.8 3.8 0 0 0-.55 1.991c0 .528.077 1.746.882 1.746.804 0 1.018-1.164 1.018-1.428V41.46c0-.25.136-.386.11-.423-.028-.036-.124 0-.187.05-.486.238-.92.572-1.273.982Z"/></svg>