<svg xmlns="http://www.w3.org/2000/svg" viewBox="0 0 320 120"><defs><style>.a{fill:none;}.b{fill:#fc0;}.c{fill:#fff;}.c,.d,.e{fill-rule:evenodd;}.e{fill:red;}</style></defs><rect class="a" width="320" height="120"/><rect class="b" x="10" y="20" width="300" height="80" rx="9"/><path class="c" d="M219.16,87.5l2.9-13.71H53.94L51,87.5Z"/><path class="d" d="M150.66,64.07c-1,4.61-2.88,9.41-8.11,9.41-5,0-5.72-4.72-4.68-9.41s2.88-9.41,8.1-9.41c5,0,5.73,4.72,4.69,9.41m-4.15-14.6c-9.91,0-13.68,6.73-15.25,14.6S133,78.67,142,78.67c9.91,0,13.67-6.73,15.25-14.6s-1.73-14.6-10.76-14.6"/><path class="d" d="M123.69,59.84a5.16,5.16,0,0,1-4.07,4.35,11.2,11.2,0,0,1-2,.19h-2.5l2-9.34h2.69a5.85,5.85,0,0,1,1.81.23c1.53.5,2.45,2,2,4.57M122.77,50a20.3,20.3,0,0,0-2.81-.19h-7.79L106,78.36h6.15L114,69.64h3.57a14.22,14.22,0,0,0,4.3-.54,11.34,11.34,0,0,0,7.92-8.95c1-5.34-1.73-9.3-7.07-10.18"/><path class="d" d="M82.89,67.18l6.3-11.41,1.62,11.41ZM93.8,49.78H86.43L72.94,73.18H64.65l5-23.4H63.49L57.34,78.36H76.79l3.26-6H91.57l.85,6h6.19Z"/><path class="d" d="M169.45,55.21a28.16,28.16,0,0,1,3.31-.11h4.67l1.15-5.32h-5.2a46.76,46.76,0,0,0-5.16.2c-4,.46-7.82,3.35-7.82,8.39,0,3.47,2,5.09,4,6.51l3.31,2.31a7.86,7.86,0,0,1,2,1.77,2.13,2.13,0,0,1,.47,1.35,2.3,2.3,0,0,1-.51,1.53c-.89,1-2.47,1.24-3.88,1.37a20,20,0,0,1-7.51-1.06v.12l-1.85,5.24a27.15,27.15,0,0,0,8.4,1.15c7.75,0,12.25-3.42,12.25-8.93,0-2.77-1.93-4.62-3.89-6.08L169.53,61c-1.5-1.12-2.5-1.89-2.5-3.16a2.52,2.52,0,0,1,2.42-2.58"/><path class="d" d="M222.61,49.78H205.33l-6.11,28.58H216.7l1.11-5.18H206.52l1.53-7.11h9.8L219,60.92h-9.79l1.27-6h11Z"/><path class="d" d="M202.83,49.78H181.16L180,55.08h7.76l-5,23.28H189l5-23.28h7.73Z"/><path class="e" d="M251.61,49.77l3.66-17.27H232.06c0,.06-4.83,22.53-4.85,22.62H233c0-.06,3.7-17.27,3.7-17.27h11.72l-3.7,17.27H262.1l-2.32,10.8H242.46c0,.07-3.46,16.16-3.46,16.16H225.88c0,.06-1.13,5.33-1.14,5.42H243.6c0-.06,3.49-16.19,3.49-16.19h17.25c0-.06,4.6-21.45,4.62-21.54Z"/></svg>