<svg width="128" height="64" viewBox="0 0 128 64" fill="none" xmlns="http://www.w3.org/2000/svg">
<rect width="128" height="64" rx="6" fill="white"/>
<path d="M92.0879 38.2219C92.0934 34.1469 90.9977 30.1461 88.9167 26.6426C89.8385 20.0525 88.1091 14.023 83.6202 10.5197C81.867 9.16036 79.8063 8.2533 77.6198 7.87851C74.0228 4.11343 69.5389 1.93357 64.7079 2.00231C61.3631 2.09558 58.129 3.22058 55.4484 5.22325C51.4661 5.17403 47.5674 6.36734 44.2948 8.63715C33.7111 16.1242 33.0576 33.4654 42.862 47.3381C52.6681 61.2115 68.5922 65.4777 80.1119 59.0714C82.0866 57.9733 83.7925 56.4499 85.106 54.6115C87.3089 52.4869 89.0622 49.941 90.2616 47.1254C91.461 44.3097 92.0821 41.2816 92.0879 38.2211V38.2219Z" fill="white"/>
<path style="mix-blend-mode:multiply" d="M81.2776 20.2697C91.0919 34.1779 91.6526 52.6736 80.1379 59.0799C68.6224 65.4862 52.6743 61.2556 42.8632 47.3374C33.053 33.4193 33.7114 16.122 44.2952 8.62659C54.8782 1.12958 71.4466 6.36142 81.2776 20.2697Z" fill="url(#paint0_linear_14_13758)"/>
<path style="mix-blend-mode:multiply" d="M86 29.8032C86.2775 45.3654 77.2002 58.1497 65.7253 58.3576C54.2495 58.5655 44.7168 46.1141 44.4194 30.5519C44.1221 14.9889 53.2341 2.20536 64.7091 2.00245C76.184 1.79953 85.7375 14.2402 86 29.8032Z" fill="url(#paint1_linear_14_13758)"/>
<path style="mix-blend-mode:multiply" d="M82.2326 41.7692C73.562 52.8574 60.144 56.8461 52.2511 50.6875C44.3591 44.5289 44.9786 30.5312 53.6392 19.443C62.2999 8.354 75.7278 4.36117 83.6207 10.5248C91.5136 16.6883 90.8941 30.6802 82.2334 41.7692H82.2326Z" fill="url(#paint2_linear_14_13758)"/>
<path d="M92.0881 38.2211C92.0883 42.7171 90.7553 47.1122 88.2576 50.8507C85.76 54.5891 82.2099 57.5029 78.0562 59.2238C73.9026 60.9446 69.332 61.3952 64.9223 60.5185C60.5126 59.6417 56.4619 57.4771 53.2824 54.2983C50.1029 51.1195 47.9374 47.0693 47.0597 42.6598C46.182 38.2503 46.6316 33.6795 48.3515 29.5255C50.0714 25.3715 52.9845 21.8208 56.7224 19.3223C60.4603 16.8239 64.8551 15.4899 69.3511 15.4891C72.3385 15.4819 75.298 16.0649 78.0595 17.2047C80.821 18.3445 83.3302 20.0185 85.4429 22.1308C87.5556 24.243 89.2302 26.7518 90.3706 29.5131C91.511 32.2743 92.0947 35.2337 92.0881 38.2211Z" fill="white"/>
<path d="M54.0605 30.9123C54.2883 30.8775 54.6453 30.8378 55.1207 30.7839C55.7203 30.7193 56.3216 30.692 56.9245 30.6994C57.4678 30.6994 58.0095 30.7491 58.5445 30.8485C59.072 30.9411 59.5767 31.1343 60.0312 31.4175C60.485 31.7057 60.8544 32.1091 61.1012 32.5869C61.3977 33.204 61.5377 33.8848 61.507 34.5689C61.5275 35.1784 61.4162 35.7852 61.1807 36.3479C60.991 36.7899 60.6969 37.1792 60.3235 37.4825C59.9608 37.7641 59.5442 37.9695 59.0994 38.0871C58.6381 38.206 58.1636 38.2658 57.6873 38.2652H57.1026C56.9645 38.2573 56.8272 38.239 56.6918 38.2105V41.7288C56.4268 41.7785 56.1899 41.8125 55.9779 41.8323C55.7708 41.8323 55.572 41.8621 55.3931 41.8621C54.9525 41.8562 54.5132 41.8116 54.0804 41.7288L54.0605 30.9123ZM56.6719 36.0108C56.7525 36.0416 56.8382 36.0568 56.9245 36.0555C57.0512 36.063 57.1788 36.063 57.3055 36.0555C57.507 36.0708 57.7094 36.0412 57.8981 35.9689C58.0868 35.8966 58.2571 35.7835 58.3969 35.6375C58.5366 35.4916 58.6423 35.3165 58.7064 35.1249C58.7704 34.9332 58.7912 34.7298 58.7673 34.5291C58.775 34.2692 58.7328 34.0103 58.6431 33.7663C58.5638 33.5762 58.442 33.4067 58.2869 33.271C58.1322 33.1449 57.951 33.0552 57.7569 33.0085C57.5478 32.9698 57.3348 32.9565 57.1225 32.9688H56.9146C56.8338 32.9638 56.7527 32.9638 56.6719 32.9688V36.0108Z" fill="url(#paint3_linear_14_13758)"/>
<path d="M61.9982 37.8691C61.9917 37.2977 62.077 36.7289 62.2508 36.1845C62.4012 35.7027 62.6528 35.2586 62.9887 34.8817C63.3241 34.5132 63.7391 34.2266 64.2029 34.0444C64.7363 33.8368 65.3052 33.7355 65.8775 33.7463C66.4564 33.7347 67.0319 33.8359 67.5721 34.0444C68.0359 34.2266 68.4508 34.5132 68.7862 34.8809C69.1216 35.2586 69.3742 35.7025 69.5242 36.1845C69.6965 36.7292 69.7804 37.2979 69.7726 37.8691C69.7804 38.4306 69.6965 38.9895 69.5242 39.5239C69.3734 39.9999 69.1217 40.4378 68.7862 40.8076C68.4488 41.17 68.0337 41.4512 67.5721 41.6301C67.0305 41.8323 66.4555 41.9298 65.8775 41.9174C65.3061 41.929 64.7377 41.8315 64.2029 41.6301C63.7412 41.4512 63.326 41.17 62.9887 40.8076C62.6532 40.4378 62.4015 39.9999 62.2508 39.5239C62.0769 38.9898 61.9916 38.4308 61.9982 37.8691ZM67.1952 37.8691C67.228 37.3527 67.1146 36.8375 66.8681 36.3825C66.7619 36.2193 66.6141 36.0874 66.44 36.0004C66.2659 35.9133 66.0717 35.8742 65.8775 35.8872C65.683 35.8731 65.4883 35.9117 65.3139 35.9988C65.1394 36.086 64.9917 36.2185 64.8861 36.3825C64.677 36.8449 64.5689 37.3467 64.5689 37.8542C64.5689 38.3618 64.677 38.8635 64.8861 39.326C64.9913 39.4903 65.139 39.6231 65.3135 39.7103C65.4881 39.7975 65.683 39.8358 65.8775 39.8212C66.0718 39.8347 66.2662 39.7959 66.4404 39.7088C66.6146 39.6217 66.7623 39.4895 66.8681 39.326C67.1099 38.88 67.2232 38.3757 67.1952 37.8691Z" fill="url(#paint4_linear_14_13758)"/>
<path d="M74.8363 36.8439C75.1179 36.9159 75.3937 37.0145 75.6587 37.1363C75.8947 37.2464 76.1092 37.3971 76.2931 37.5818C76.4761 37.7723 76.6178 37.9984 76.7089 38.2461C76.819 38.5508 76.8712 38.873 76.8629 39.1977C76.8646 39.5687 76.7834 39.9365 76.6244 40.2727C76.4661 40.6103 76.2282 40.9045 75.9312 41.1299C75.5931 41.3892 75.2101 41.5841 74.8015 41.7047C74.2984 41.855 73.7752 41.9268 73.2502 41.9175C72.8009 41.9199 72.3521 41.885 71.9085 41.8132C71.4607 41.7305 71.0211 41.6079 70.595 41.4471C70.6554 40.7254 70.845 40.0204 71.1548 39.3658C71.8029 39.6629 72.5075 39.8166 73.2204 39.8164H73.5973C73.7165 39.8097 73.835 39.7882 73.9492 39.7518C74.0404 39.7195 74.1232 39.6706 74.1969 39.6085C74.2284 39.5766 74.253 39.5387 74.2693 39.4969C74.2855 39.4552 74.293 39.4106 74.2913 39.3658C74.2924 39.3026 74.2746 39.2404 74.24 39.1874C74.2055 39.1344 74.1558 39.093 74.0975 39.0685C73.9527 38.9975 73.8019 38.9393 73.6469 38.8946L72.6216 38.608C72.1162 38.4762 71.6556 38.2107 71.2882 37.8394C71.1063 37.6391 70.9662 37.4045 70.876 37.1494C70.7859 36.8942 70.7475 36.6237 70.7631 36.3536C70.7581 35.9825 70.8401 35.6165 71.0008 35.2827C71.1664 34.9597 71.4025 34.6781 71.6899 34.4553C72.0021 34.2288 72.3529 34.061 72.7251 33.96C73.1551 33.8351 73.6009 33.7734 74.0486 33.777C74.4692 33.7803 74.8887 33.8219 75.3017 33.9012C75.7572 33.9799 76.207 34.0959 76.6443 34.2474C76.6194 34.5986 76.554 34.9464 76.4513 35.2827C76.3519 35.6231 76.2244 35.9552 76.0703 36.2741C75.7479 36.1485 75.4165 36.0474 75.0789 35.9718C74.7335 35.887 74.3795 35.8419 74.0238 35.8376C73.5277 35.8376 73.3148 35.9668 73.3148 36.2294C73.3144 36.2834 73.3296 36.3365 73.3585 36.3821C73.3875 36.4278 73.4289 36.4642 73.478 36.4869C73.5981 36.5499 73.724 36.5996 73.8548 36.636L74.8363 36.8431V36.8439Z" fill="url(#paint5_linear_14_13758)"/>
<path d="M79.7909 36.0562H77.5564C77.5082 35.8709 77.4749 35.682 77.457 35.4913V34.9952V34.5C77.4761 34.3128 77.5092 34.1273 77.5564 33.9451H84.5722C84.6195 34.1273 84.6526 34.3128 84.6716 34.5C84.6716 34.6739 84.6965 34.842 84.6965 34.9961C84.6965 35.1493 84.6965 35.3274 84.6716 35.4913C84.6534 35.6818 84.6203 35.8707 84.5722 36.0562H82.3427V41.7195C82.0801 41.7585 81.8474 41.7883 81.6296 41.8131C81.4387 41.8343 81.2468 41.8442 81.0548 41.8429C80.8809 41.8429 80.6978 41.8429 80.485 41.8131C80.2713 41.7833 80.0436 41.7585 79.7909 41.7195V36.0562Z" fill="url(#paint6_linear_14_13758)"/>
<path d="M54.0708 44.176H54.5661V46.4056H55.7057V46.8421H54.0708V44.176Z" fill="url(#paint7_linear_14_13758)"/>
<path d="M56.3755 44.1778H56.8708V45.8517C56.8656 45.9278 56.8773 46.0042 56.905 46.0753C56.9327 46.1464 56.9758 46.2105 57.0312 46.2631C57.0866 46.3156 57.1529 46.3553 57.2254 46.3792C57.2979 46.4032 57.3747 46.4108 57.4505 46.4016C57.5255 46.4082 57.6011 46.3986 57.6721 46.3736C57.7431 46.3487 57.808 46.3088 57.8624 46.2568C57.9168 46.2047 57.9595 46.1417 57.9876 46.0718C58.0157 46.0019 58.0285 45.9269 58.0253 45.8517V44.1621H58.5206V45.8517C58.5037 46.1221 58.3843 46.376 58.1868 46.5615C57.9893 46.7471 57.7285 46.8504 57.4576 46.8504C57.1866 46.8504 56.9258 46.7471 56.7283 46.5615C56.5308 46.376 56.4114 46.1221 56.3945 45.8517L56.3755 44.1778Z" fill="url(#paint8_linear_14_13758)"/>
<path d="M60.0508 45.4796L59.2624 44.176H59.8123L60.1693 44.8254C60.2538 44.9786 60.3382 45.1475 60.3382 45.1475C60.3846 45.0374 60.4376 44.9297 60.4964 44.8245L60.8633 44.176H61.4133L60.6157 45.4796L61.458 46.8421H60.913L60.5064 46.1281C60.4169 45.9791 60.3432 45.8159 60.3432 45.8159C60.3432 45.8159 60.2687 45.9799 60.1792 46.1281L59.7684 46.8421H59.2334L60.0508 45.4796Z" fill="url(#paint9_linear_14_13758)"/>
<path d="M62.2209 44.176H63.802V44.5926H62.7021V45.2809H63.5883V45.6925H62.7021V46.4056H63.8616V46.8421H62.2218V44.176H62.2209Z" fill="url(#paint10_linear_14_13758)"/>
<path d="M64.8623 44.176H65.3576L65.8528 45.4846C65.9125 45.6378 65.982 45.8706 65.982 45.8706C65.982 45.8706 66.0516 45.6387 66.1104 45.4846L66.6065 44.176H67.1018L67.4041 46.8421H66.908L66.7945 45.3554V44.9496C66.7945 44.9496 66.715 45.2022 66.6554 45.3554L66.2346 46.3468H65.8172L65.3915 45.3554C65.3269 45.2022 65.2474 44.9446 65.2474 44.9446V45.3554L65.1339 46.8421H64.6387L64.8615 44.176H64.8623Z" fill="url(#paint11_linear_14_13758)"/>
<path d="M68.3547 44.176H69.3014C69.7967 44.176 70.1139 44.4245 70.1139 44.8601C70.1173 44.9736 70.0896 45.0858 70.0337 45.1845C69.9777 45.2832 69.8957 45.3647 69.7967 45.42C69.9263 45.4614 70.0386 45.5448 70.1158 45.6569C70.193 45.769 70.2308 45.9036 70.2232 46.0395C70.2232 46.5696 69.7967 46.8073 69.3113 46.8073H68.3547V44.176ZM69.3014 45.256C69.3457 45.2583 69.39 45.251 69.4314 45.2348C69.4727 45.2186 69.5101 45.1937 69.541 45.1619C69.572 45.1301 69.5958 45.092 69.6109 45.0503C69.626 45.0085 69.632 44.964 69.6285 44.9198C69.6316 44.8751 69.625 44.8304 69.609 44.7886C69.593 44.7468 69.5681 44.709 69.536 44.6779C69.5039 44.6467 69.4654 44.6229 69.4231 44.6082C69.3809 44.5935 69.336 44.5882 69.2914 44.5926H68.8359V45.256H69.3014ZM69.3511 46.4056C69.4522 46.4056 69.5492 46.3654 69.6208 46.2939C69.6923 46.2224 69.7325 46.1253 69.7325 46.0242C69.7325 45.923 69.6923 45.826 69.6208 45.7545C69.5492 45.683 69.4522 45.6428 69.3511 45.6428H68.8558V46.4056H69.3511Z" fill="url(#paint12_linear_14_13758)"/>
<path d="M72.2939 44.1322C72.4726 44.1287 72.6501 44.1611 72.816 44.2275C72.982 44.2939 73.1329 44.3928 73.2599 44.5185C73.3869 44.6442 73.4875 44.7941 73.5556 44.9594C73.6236 45.1246 73.6579 45.3018 73.6563 45.4805C73.6563 45.8418 73.5128 46.1884 73.2573 46.4439C73.0018 46.6994 72.6552 46.8429 72.2939 46.8429C71.9326 46.8429 71.586 46.6994 71.3305 46.4439C71.075 46.1884 70.9315 45.8418 70.9315 45.4805C70.9294 45.3017 70.9634 45.1243 71.0313 44.9588C71.0992 44.7934 71.1997 44.6433 71.3269 44.5175C71.454 44.3917 71.6051 44.2928 71.7712 44.2266C71.9374 44.1604 72.1151 44.1283 72.2939 44.1322ZM72.2939 46.4213C72.4132 46.4182 72.5306 46.3912 72.6392 46.3418C72.7478 46.2925 72.8455 46.2219 72.9263 46.1342C73.0072 46.0465 73.0696 45.9434 73.1099 45.8311C73.1502 45.7188 73.1676 45.5996 73.161 45.4805C73.1716 45.3599 73.1569 45.2385 73.118 45.1238C73.0791 45.0092 73.0168 44.904 72.935 44.8147C72.8532 44.7255 72.7538 44.6542 72.643 44.6055C72.5322 44.5567 72.4125 44.5316 72.2914 44.5316C72.1704 44.5316 72.0507 44.5567 71.9399 44.6055C71.8291 44.6542 71.7296 44.7255 71.6479 44.8147C71.5661 44.904 71.5037 45.0092 71.4648 45.1238C71.4259 45.2385 71.4113 45.3599 71.4218 45.4805C71.4151 45.6 71.4325 45.7197 71.4731 45.8324C71.5137 45.945 71.5766 46.0484 71.658 46.1362C71.7394 46.224 71.8377 46.2945 71.9469 46.3435C72.0562 46.3925 72.1742 46.419 72.2939 46.4213Z" fill="url(#paint13_linear_14_13758)"/>
<path d="M74.4746 44.1778H74.9699V45.8517C74.965 45.9278 74.9769 46.004 75.0047 46.075C75.0326 46.1459 75.0757 46.2099 75.131 46.2624C75.1863 46.3149 75.2525 46.3545 75.3248 46.3786C75.3972 46.4026 75.4739 46.4105 75.5496 46.4016C75.6246 46.408 75.7001 46.3984 75.7711 46.3734C75.842 46.3483 75.9069 46.3085 75.9612 46.2565C76.0156 46.2044 76.0583 46.1414 76.0864 46.0716C76.1146 46.0019 76.1275 45.9269 76.1244 45.8517V44.1621H76.6197V45.8517C76.6013 46.1209 76.4813 46.3732 76.2841 46.5574C76.0868 46.7416 75.827 46.8441 75.5571 46.8441C75.2872 46.8441 75.0274 46.7416 74.8301 46.5574C74.6329 46.3732 74.5129 46.1209 74.4945 45.8517L74.4746 44.177V44.1778Z" fill="url(#paint14_linear_14_13758)"/>
<path d="M77.6011 44.1777H78.4541C78.633 44.1636 78.8144 44.1884 78.9842 44.2514C79.1157 44.3202 79.2259 44.4238 79.3028 44.5508C79.3797 44.6778 79.4203 44.8234 79.4203 44.9719C79.4203 45.1204 79.3797 45.266 79.3028 45.393C79.2259 45.5201 79.1157 45.6236 78.9842 45.6925C79.0198 45.7314 79.0505 45.7753 79.0728 45.8217L79.6178 46.813H79.0828L78.5577 45.8217H78.0972V46.813H77.6011V44.1768V44.1777ZM78.5129 45.4158C78.5689 45.4211 78.6254 45.4139 78.6783 45.3948C78.7312 45.3757 78.7792 45.3452 78.8189 45.3054C78.8586 45.2656 78.889 45.2175 78.908 45.1646C78.927 45.1117 78.9341 45.0552 78.9287 44.9992C78.9287 44.7466 78.8202 44.5934 78.4334 44.5934H78.0715V45.4158H78.5129Z" fill="url(#paint15_linear_14_13758)"/>
<path d="M81.5791 44.1322C81.9411 44.1139 82.2947 44.2349 82.5705 44.4693L82.3328 44.8254C82.1348 44.6651 81.8885 44.5761 81.6338 44.5728C81.5128 44.5655 81.3917 44.584 81.2785 44.627C81.1652 44.6701 81.0623 44.7366 80.9767 44.8224C80.891 44.9081 80.8246 45.011 80.7816 45.1243C80.7387 45.2376 80.7204 45.3587 80.7277 45.4797C80.7189 45.6005 80.7352 45.7218 80.7756 45.8359C80.816 45.9501 80.8795 46.0547 80.9623 46.143C81.0451 46.2314 81.1453 46.3017 81.2566 46.3495C81.3679 46.3972 81.4878 46.4214 81.6089 46.4205C81.8574 46.4164 82.0934 46.3187 82.2732 46.1481V45.8515H81.8673V45.4399H82.7038V46.8421H82.2682V46.7129V46.6044C82.0587 46.7914 81.7861 46.892 81.5054 46.886C81.3294 46.8856 81.1554 46.8494 80.9938 46.7796C80.8322 46.7098 80.6865 46.6079 80.5655 46.4801C80.4445 46.3523 80.3508 46.2013 80.29 46.0361C80.2291 45.871 80.2025 45.6952 80.2117 45.5194C80.2034 45.3367 80.233 45.1543 80.2985 44.9835C80.364 44.8128 80.4641 44.6574 80.5925 44.5272C80.7209 44.3969 80.8748 44.2946 81.0445 44.2266C81.2143 44.1587 81.3963 44.1265 81.5791 44.1322Z" fill="url(#paint16_linear_14_13758)"/>
<defs>
<linearGradient id="paint0_linear_14_13758" x1="74.1623" y1="46.7179" x2="47.56" y2="18.3325" gradientUnits="userSpaceOnUse">
<stop stop-color="#F9BA00"/>
<stop offset="0.28" stop-color="#FABE00"/>
<stop offset="0.57" stop-color="#FBCB00"/>
<stop offset="0.86" stop-color="#FDDF00"/>
<stop offset="1" stop-color="#FFEC00"/>
</linearGradient>
<linearGradient id="paint1_linear_14_13758" x1="75.6738" y1="6.26776" x2="62.9533" y2="36.636" gradientUnits="userSpaceOnUse">
<stop stop-color="#5EC4EC"/>
<stop offset="1" stop-color="#009CD1"/>
</linearGradient>
<linearGradient id="paint2_linear_14_13758" x1="6350.62" y1="3750.22" x2="3453.12" y2="3939.3" gradientUnits="userSpaceOnUse">
<stop stop-color="#5EC4EC"/>
<stop offset="1" stop-color="#009CD1"/>
</linearGradient>
<linearGradient id="paint3_linear_14_13758" x1="52.2426" y1="36.2584" x2="87.6886" y2="36.2584" gradientUnits="userSpaceOnUse">
<stop stop-color="#1FA12E"/>
<stop offset="1" stop-color="#008736"/>
</linearGradient>
<linearGradient id="paint4_linear_14_13758" x1="554.923" y1="849.511" x2="1111.13" y2="849.511" gradientUnits="userSpaceOnUse">
<stop stop-color="#1FA12E"/>
<stop offset="1" stop-color="#008736"/>
</linearGradient>
<linearGradient id="paint5_linear_14_13758" x1="468.03" y1="846.463" x2="916.495" y2="846.463" gradientUnits="userSpaceOnUse">
<stop stop-color="#1FA12E"/>
<stop offset="1" stop-color="#008736"/>
</linearGradient>
<linearGradient id="paint6_linear_14_13758" x1="536.4" y1="823.099" x2="1054.27" y2="823.099" gradientUnits="userSpaceOnUse">
<stop stop-color="#1FA12E"/>
<stop offset="1" stop-color="#008736"/>
</linearGradient>
<linearGradient id="paint7_linear_14_13758" x1="157.734" y1="351.498" x2="274.706" y2="351.498" gradientUnits="userSpaceOnUse">
<stop stop-color="#1FA12E"/>
<stop offset="1" stop-color="#008736"/>
</linearGradient>
<linearGradient id="paint8_linear_14_13758" x1="192.394" y1="353.502" x2="345.896" y2="353.502" gradientUnits="userSpaceOnUse">
<stop stop-color="#1FA12E"/>
<stop offset="1" stop-color="#008736"/>
</linearGradient>
<linearGradient id="paint9_linear_14_13758" x1="200.277" y1="351.498" x2="359.43" y2="351.498" gradientUnits="userSpaceOnUse">
<stop stop-color="#1FA12E"/>
<stop offset="1" stop-color="#008736"/>
</linearGradient>
<linearGradient id="paint10_linear_14_13758" x1="166.198" y1="351.498" x2="283.524" y2="351.498" gradientUnits="userSpaceOnUse">
<stop stop-color="#1FA12E"/>
<stop offset="1" stop-color="#008736"/>
</linearGradient>
<linearGradient id="paint11_linear_14_13758" x1="239.923" y1="351.498" x2="437.712" y2="351.498" gradientUnits="userSpaceOnUse">
<stop stop-color="#1FA12E"/>
<stop offset="1" stop-color="#008736"/>
</linearGradient>
<linearGradient id="paint12_linear_14_13758" x1="186.842" y1="347.5" x2="320.542" y2="347.5" gradientUnits="userSpaceOnUse">
<stop stop-color="#1FA12E"/>
<stop offset="1" stop-color="#008736"/>
</linearGradient>
<linearGradient id="paint13_linear_14_13758" x1="243.71" y1="356.634" x2="438.672" y2="356.634" gradientUnits="userSpaceOnUse">
<stop stop-color="#1FA12E"/>
<stop offset="1" stop-color="#008736"/>
</linearGradient>
<linearGradient id="paint14_linear_14_13758" x1="210.514" y1="353.503" x2="363.975" y2="353.503" gradientUnits="userSpaceOnUse">
<stop stop-color="#1FA12E"/>
<stop offset="1" stop-color="#008736"/>
</linearGradient>
<linearGradient id="paint15_linear_14_13758" x1="205.472" y1="348.486" x2="349.717" y2="348.486" gradientUnits="userSpaceOnUse">
<stop stop-color="#1FA12E"/>
<stop offset="1" stop-color="#008736"/>
</linearGradient>
<linearGradient id="paint16_linear_14_13758" x1="238.31" y1="361.96" x2="416.76" y2="361.96" gradientUnits="userSpaceOnUse">
<stop stop-color="#1FA12E"/>
<stop offset="1" stop-color="#008736"/>
</linearGradient>
</defs>
</svg>
