<svg xmlns="http://www.w3.org/2000/svg" viewBox="0 0 320 120"><defs><style>.a{fill:none;}.b{fill:#0498ba;}.b,.c{fill-rule:evenodd;}.c{fill:#0598ba;}</style></defs><rect class="a" width="320" height="120"/><path class="b" d="M24.81,46.47c3.68,0,7.35,0,11,0,.63,0,.76.25.73.8s0,1.27,0,1.94c.13,0,.26,0,.33-.07a14.42,14.42,0,0,1,23.32,5.6c2.64,6.94,2.14,13.67-2.87,19.53C52.06,80.4,42,80.7,37,76.71a2.22,2.22,0,0,0-.45-.19v11c-3.56,0-7.12,0-10.68,0-.8,0-1.07-.1-1.06-1Q24.84,66.48,24.81,46.47Zm11.46,15.8a6.3,6.3,0,0,0,6.4,6.67,6.21,6.21,0,0,0,6.47-6.21c.07-4.15-2.42-6.93-6.25-7A6.25,6.25,0,0,0,36.27,62.27Z"/><path class="b" d="M295.19,78.46c-3.29-.22-6.59,0-9.89-.09a6.81,6.81,0,0,0-1,0c-.73.1-.91-.25-.86-.91s0-1.26,0-2c-.67.55-1.21,1-1.8,1.48-5.5,4-14.24,3.07-18.92-2-5.85-6.38-5.82-18-.07-24.42,5.21-5.84,15.18-6.57,20.39-2.41a2.05,2.05,0,0,0,.4.13c0-2.83,0-5.59,0-8.35,0-.85.3-1.08,1-1.22,3.13-.58,6.25-1.21,9.37-1.82.18,0,.38,0,.47-.23.77-.17.93.13.92.9Q295.17,58,295.19,78.46ZM270.86,62.31c0,3.92,2.6,6.66,6.35,6.67a6.26,6.26,0,0,0,6.52-6.63,6.2,6.2,0,0,0-6.49-6.51A6.11,6.11,0,0,0,270.86,62.31Z"/><path class="b" d="M213.26,45.33a24.1,24.1,0,0,1,9.46,1.78c6.76,2.9,10.32,9.07,9.73,16.41-.7,8.78-6.68,13.88-14.56,15.37a23.23,23.23,0,0,1-13.68-1.36c-7-3-10-8.87-9.66-16,.52-10.14,7.92-14.91,15.83-16C211.49,45.43,212.61,45.38,213.26,45.33Zm-6.26,17a6.45,6.45,0,1,0,12.9,0c0-4-2.64-6.68-6.49-6.67A6.26,6.26,0,0,0,207,62.37Z"/><path class="b" d="M82.8,45.33c4.91.12,9.51,1.23,13.38,4.47a14.58,14.58,0,0,1,5.23,10.35c.42,4.73-.45,9.13-3.62,12.84a17.89,17.89,0,0,1-10.31,5.78,23.52,23.52,0,0,1-14-1.16C65.93,74.53,63,67.93,63.68,60.53,64.49,52.25,70.31,47.3,78,45.81A25,25,0,0,1,82.8,45.33Zm-.2,10.41c-3.84,0-6.52,2.65-6.6,6.6a6.38,6.38,0,0,0,6.51,6.59,6.6,6.6,0,0,0,.09-13.19Z"/><path class="c" d="M170.88,49c3.87-3.78,8.43-4.39,13.31-3.08,4.43,1.19,6.51,4.52,7.34,8.8a18.43,18.43,0,0,1,.28,3.48c0,6.34,0,12.69,0,19,0,.85-.17,1.17-1.1,1.15-3.23-.06-6.46,0-9.68,0-.88,0-1.15-.22-1.15-1.12,0-5.3,0-10.59-.05-15.88a9.06,9.06,0,0,0-.15-1.56C179.15,57,178,56,175.28,56.12a4.2,4.2,0,0,0-4.45,4.14c-.26,3-.08,5.93-.1,8.89,0,2.74,0,5.49,0,8.23,0,.8-.25,1-1,1q-5,0-9.91,0c-.72,0-1-.18-.94-.93q0-15,0-30.08c0-.83.29-1,1-1,3.23,0,6.46.05,9.69,0,.94,0,1.28.25,1.17,1.19A2.29,2.29,0,0,0,170.88,49Z"/><path class="c" d="M119.77,45.36a56.21,56.21,0,0,1,11,1.26c.74.18.89.41.7,1.14-.6,2.35-1.16,4.73-1.65,7.11-.18.89-.51.92-1.28.69a25.79,25.79,0,0,0-11.2-1.23,5.5,5.5,0,0,0-.87.21c-.7.21-1.25.62-1.24,1.4s.63,1.16,1.32,1.31c2.53.57,5.13.72,7.64,1.37A21.39,21.39,0,0,1,128.13,60c3.48,1.65,5,4.36,4.92,8.21-.14,4.55-2.47,7.48-6.52,9.23a26.93,26.93,0,0,1-10.23,1.83,43.61,43.61,0,0,1-12.89-1.67c-.69-.2-.88-.41-.67-1.15.69-2.49,1.32-5,1.91-7.52.19-.81.48-.87,1.21-.59A27.52,27.52,0,0,0,118,70.38a4.78,4.78,0,0,0,1.63-.37,1.41,1.41,0,0,0,1-1.37,1.35,1.35,0,0,0-1-1.32,17.66,17.66,0,0,0-4.07-.79,28.82,28.82,0,0,1-7-1.65A9.15,9.15,0,0,1,106,49.34c2.92-2.52,6.48-3.34,10.17-3.75C117.46,45.45,118.77,45.42,119.77,45.36Z"/><path class="c" d="M135.22,58.75c0-6.15,0-12.31,0-18.47,0-.86.22-1.06,1.05-1.05,3.27.05,6.54.06,9.8,0,.9,0,1.06.3,1,1.09-.05,1.73,0,3.46,0,5.18,0,.78.26,1,1,.94,3,0,5.94,0,8.9,0,.78,0,1,.11.59.9q-2.31,4.18-4.54,8.41a1.08,1.08,0,0,1-1.15.66c-1.24,0-2.48,0-3.72,0-.85,0-1.06.22-1.06,1.06,0,6.5,0,13,0,19.49,0,1.46,0,1.46-1.44,1.46-3.08,0-6.16,0-9.24,0-.92,0-1.19-.21-1.19-1.16C135.24,71.07,135.22,64.91,135.22,58.75Z"/><path class="b" d="M247,49.85c2.7-3.63,6.28-4.11,10.14-3.82.7.06,1,.33,1,1.12-.12,3-.18,6.08-.23,9.11,0,.72-.24.9-.95.72a12.22,12.22,0,0,0-4.13-.34C249,57,247,59,247,62.94c0,4.73,0,9.46,0,14.18,0,.95-.16,1.3-1.21,1.27-3.18-.07-6.38,0-9.57,0-.72,0-1.05-.1-1.05-1q0-15,0-30.06c0-.72.18-1,.93-1q5,.06,10,0c.71,0,.91.23.86.9S247,48.8,247,49.85Z"/></svg>