<svg xmlns="http://www.w3.org/2000/svg" viewBox="0 0 323.13 120.41"><defs><style>.a{fill:none;}.b{fill:#ffdc00;}</style></defs><rect class="a" width="323.13" height="120.41"/><path class="a" d="M195.12,80.72q-2.18,1.95-4.23,3.66Q192.95,82.67,195.12,80.72Z"/><path class="a" d="M198.7,77.4l-1.58,1.49Z"/><path class="a" d="M175.61,94.57c-1.13.56-2.25,1.05-3.35,1.5C173.36,95.62,174.48,95.13,175.61,94.57Z"/><path class="a" d="M214,61.28c-.87,1-1.73,1.95-2.57,2.89C212.31,63.23,213.17,62.27,214,61.28Z"/><path class="a" d="M180.25,92c-1.19.71-2.35,1.37-3.5,2C177.9,93.41,179.06,92.75,180.25,92Z"/><path class="a" d="M186.38,87.92q-1.9,1.41-3.73,2.61Q184.48,89.33,186.38,87.92Z"/><path class="a" d="M189,85.94q-1.31,1-2.58,2Q187.65,87,189,85.94Z"/><path class="a" d="M219.51,55l-1.72,2Z"/><path class="a" d="M103.54,23.08h0c-.26.29-.51.6-.76.9C103,23.68,103.28,23.37,103.54,23.08Z"/><path class="a" d="M102.45,24.39c-.83,1-1.63,2.14-2.4,3.32C100.82,26.53,101.62,25.42,102.45,24.39Z"/><path class="a" d="M78.79,24a1.17,1.17,0,0,0,.2.52L93.22,46.33,79,24.48A1.17,1.17,0,0,1,78.79,24Z"/><path class="a" d="M96,35.66c-.13.34-.27.68-.4,1C95.69,36.34,95.83,36,96,35.66Z"/><path class="a" d="M100.05,27.71a44.77,44.77,0,0,0-2.58,4.54A44.77,44.77,0,0,1,100.05,27.71Z"/><polygon class="a" points="203.18 23.08 178.1 61.57 203.18 23.08 203.18 23.08"/><path class="a" d="M119.75,84.29c-.74-1-1.44-2-2.08-3.05C118.31,82.29,119,83.31,119.75,84.29Z"/><path class="a" d="M158.76,40a23.9,23.9,0,0,0-3.66-.92A23.9,23.9,0,0,1,158.76,40Z"/><path class="a" d="M200.19,76c.75-.73,1.52-1.5,2.29-2.28C201.71,74.46,200.94,75.23,200.19,76Z"/><path class="a" d="M123.41,88.43c-.88-.86-1.71-1.76-2.5-2.7C121.7,86.67,122.53,87.57,123.41,88.43Z"/><path class="a" d="M167.9,97.59c-1.08.31-2.15.58-3.22.81C165.75,98.17,166.82,97.9,167.9,97.59Z"/><path class="a" d="M161.48,99c-1.41.21-2.84.35-4.27.44C158.64,99.33,160.07,99.19,161.48,99Z"/><path class="a" d="M147.57,99.31a40.69,40.69,0,0,1-4-.59A40.69,40.69,0,0,0,147.57,99.31Z"/><path class="a" d="M130.82,94c-1.09-.63-2.14-1.31-3.15-2C128.68,92.71,129.73,93.39,130.82,94Z"/><path class="a" d="M134.19,95.76c-1.16-.53-2.29-1.11-3.37-1.74C131.9,94.65,133,95.23,134.19,95.76Z"/><path class="a" d="M171.16,96.5c-.74.27-1.46.52-2.18.76C169.7,97,170.42,96.77,171.16,96.5Z"/><path class="b" d="M96,35.66c.46-1.18,1-2.31,1.51-3.41a44.77,44.77,0,0,1,2.58-4.54c.77-1.18,1.57-2.29,2.4-3.32l.33-.41c.25-.3.5-.61.76-.9H79.74a1.26,1.26,0,0,0-.54.12.75.75,0,0,0-.41.76,1.17,1.17,0,0,0,.2.52L93.22,46.33c.07-.59.16-1.17.25-1.76a44.25,44.25,0,0,1,2.09-7.88C95.69,36.34,95.83,36,96,35.66Z"/><path class="b" d="M243.39,23.08H203.17L178.1,61.57c-.5.76-1,1.51-1.48,2.23a63,63,0,0,1-8.79,10.83,28,28,0,0,1-3.11,2.55,21.58,21.58,0,0,1-12.94,4.07c-12.11,0-21.49-8.41-21.49-21s9.09-21.46,21-21.49a22.61,22.61,0,0,1,3.86.34,23.9,23.9,0,0,1,3.66.92,19.46,19.46,0,0,1,6,3.14l9.59-14.77c-.73-.58-1.49-1.14-2.27-1.66a34,34,0,0,0-9.28-4.33c-1-.29-2-.54-3-.75a40.18,40.18,0,0,0-6.58-.78c-.58,0-1.16,0-1.76,0-22.95,0-39.7,17.06-39.42,40a39.74,39.74,0,0,0,5.68,20.35c.64,1.05,1.34,2.07,2.08,3.05.38.49.76,1,1.16,1.44.79.94,1.62,1.84,2.5,2.7A37.2,37.2,0,0,0,127.67,92c1,.72,2.06,1.4,3.15,2s2.21,1.21,3.37,1.74a41.5,41.5,0,0,0,9.33,3,40.69,40.69,0,0,0,4,.59c1.38.14,2.78.22,4.21.24,1.84,0,3.65,0,5.43-.13,1.43-.09,2.86-.23,4.27-.44,1.07-.15,2.13-.34,3.2-.58s2.14-.5,3.22-.81l1.08-.33c.72-.24,1.44-.49,2.18-.76l1.1-.43c1.1-.45,2.22-.94,3.35-1.5q.57-.27,1.14-.57c1.15-.59,2.31-1.25,3.5-2,.79-.48,1.59-1,2.4-1.51q1.83-1.2,3.73-2.61,1.27-.94,2.58-2c.63-.5,1.28-1,1.93-1.56q2.06-1.71,4.23-3.66l2-1.83,1.58-1.49L200.19,76c.75-.73,1.52-1.5,2.29-2.28s1.56-1.57,2.36-2.4l1.61-1.68c1.62-1.72,3.29-3.52,5-5.43.84-.94,1.7-1.9,2.57-2.89q1.85-2.07,3.75-4.29l1.72-2c7.26-8.51,15.35-18.6,24.53-30.56a1.31,1.31,0,0,0,.22-.49.91.91,0,0,0,0-.23C244.23,23.34,243.92,23.08,243.39,23.08Z"/><path d="M116.45,17.44H79.07c-3.76,0-6.24,2.51-6.24,5.78a7.08,7.08,0,0,0,1.49,4.52L96.69,61.26C96,42.79,104.76,26.64,116.45,17.44Zm-23,27.13c-.09.59-.18,1.17-.25,1.76L79,24.48a1.17,1.17,0,0,1-.2-.52.75.75,0,0,1,.41-.76,1.26,1.26,0,0,1,.54-.12h23.8c-.26.29-.51.6-.76.9l-.33.41c-.83,1-1.63,2.14-2.4,3.32a44.77,44.77,0,0,0-2.58,4.54c-.54,1.1-1,2.23-1.51,3.41-.13.34-.27.68-.4,1A44.25,44.25,0,0,0,93.47,44.57Z"/><path d="M244.06,17.44H200.15L173.78,58c-8.11,12.45-13.61,17.65-22,17.65-8.92,0-15.84-5.88-15.84-15.31s6.55-15.87,15.53-15.87c6.43,0,11.11,3.4,14.39,7.17l15.92-24c-6.89-7.28-17.36-12.35-30.45-12.35-26,0-45.27,19.71-45,45.71.29,25.28,19.46,44,45.44,44.28,26.49.28,45.6-10.9,96.46-77,1.58-2.06,2.06-3.24,2.06-5C250.3,20,247.82,17.44,244.06,17.44Zm.2,6.48a1.31,1.31,0,0,1-.22.49c-9.18,12-17.27,22.05-24.53,30.56l-1.72,2q-1.9,2.22-3.75,4.29c-.87,1-1.73,1.95-2.57,2.89-1.73,1.91-3.4,3.71-5,5.43l-1.61,1.68c-.8.83-1.58,1.62-2.36,2.4s-1.54,1.55-2.29,2.28L198.7,77.4l-1.58,1.49-2,1.83q-2.18,1.95-4.23,3.66c-.65.54-1.3,1.06-1.93,1.56q-1.31,1-2.58,2-1.9,1.41-3.73,2.61c-.81.53-1.61,1-2.4,1.51-1.19.71-2.35,1.37-3.5,2q-.57.3-1.14.57c-1.13.56-2.25,1.05-3.35,1.5l-1.1.43c-.74.27-1.46.52-2.18.76l-1.08.33c-1.08.31-2.15.58-3.22.81s-2.13.43-3.2.58c-1.41.21-2.84.35-4.27.44-1.78.12-3.59.15-5.43.13-1.43,0-2.83-.1-4.21-.24a40.69,40.69,0,0,1-4-.59,41.5,41.5,0,0,1-9.33-3c-1.16-.53-2.29-1.11-3.37-1.74s-2.14-1.31-3.15-2a37.2,37.2,0,0,1-4.26-3.56c-.88-.86-1.71-1.76-2.5-2.7-.4-.47-.78-1-1.16-1.44-.74-1-1.44-2-2.08-3.05A39.74,39.74,0,0,1,112,60.89c-.28-23,16.47-40,39.42-40,.6,0,1.18,0,1.76,0a40.18,40.18,0,0,1,6.58.78c1,.21,2.06.46,3,.75a34,34,0,0,1,9.28,4.33c.78.52,1.54,1.08,2.27,1.66l-9.59,14.77a19.46,19.46,0,0,0-6-3.14,23.9,23.9,0,0,0-3.66-.92,22.61,22.61,0,0,0-3.86-.34c-11.86,0-21,8.9-21,21.49s9.38,21,21.49,21a21.58,21.58,0,0,0,12.94-4.07,28,28,0,0,0,3.11-2.55,63,63,0,0,0,8.79-10.83c.49-.72,1-1.47,1.48-2.23l25.07-38.49h40.22c.53,0,.84.26.88.61A.91.91,0,0,1,244.26,23.92Z"/></svg>