<svg xmlns="http://www.w3.org/2000/svg" viewBox="0 0 323.13 120.41"><defs><style>.a{fill:none;}.b{fill:#eedc00;}.c{fill:#0047bb;fill-rule:evenodd;}</style></defs><rect class="a" width="323.13" height="120.41"/><rect class="b" x="11.56" y="20.21" width="300" height="80" rx="9"/><path class="c" d="M141.23,67.19c0,2.71.67,5,3.64,5,2.21,0,3.59-1,3.89-3h7.36a7.61,7.61,0,0,1-4,5.84,12.43,12.43,0,0,1-6.66,1.63c-8.4,0-11.75-3.59-11.75-11.81,0-6.64,5-10.4,11.3-10.4,8.53,0,11.25,4.88,11.25,12.69Zm7.53-4.26a5.49,5.49,0,0,0-1-3.13A3,3,0,0,0,145,58.47c-2.77.12-3.43,2.08-3.64,4.46h7.36"/><path class="c" d="M41.56,76.08V45.94H55.45c7.4,0,12.26,2.38,12.26,9.69s-4.86,9.68-12.26,9.68H49.93V76.08ZM54.24,59.47c3.3-.13,4.68-1.63,4.68-3.84s-1.38-3.72-4.68-3.84H49.93v7.68h4.31"/><path class="c" d="M92.41,65.6c0,7.73-5.64,11.11-12.21,11.11S68,73.33,68,65.6,73.63,54.5,80.2,54.5,92.41,57.88,92.41,65.6ZM80.2,72.12c3.35,0,4.06-3.55,4.06-6.52s-.71-6.51-4.06-6.51-4.06,3.55-4.06,6.51.71,6.52,4.06,6.52"/><path class="c" d="M106.26,61.6a2.63,2.63,0,0,0-.5-1.76,2.77,2.77,0,0,0-2.18-.75A1.72,1.72,0,0,0,101.7,61c0,1.54,3.22,1.46,8.2,3,2.51.79,4.22,2.33,4.22,5.76,0,5.55-5.23,7-10,7-5.14,0-10.16-1-10.12-7.43h7.53a2.28,2.28,0,0,0,.54,1.88,2.54,2.54,0,0,0,1.88,1c1.55,0,2.68-.59,2.68-1.92,0-3.72-12.42-1.51-12.42-9.1,0-5.18,5.52-6.6,9.7-6.6,5,0,9.58,1.29,9.92,7.1h-7.53"/><path class="c" d="M119.35,55.12V52l8-3v6.17h4.6v5h-4.6v8.3c0,.55-.33,3.26,1.51,3.26a24.92,24.92,0,0,0,3.05-.12v4.71a21.94,21.94,0,0,1-4.27.42c-5.39,0-8.65-.75-8.24-7.18V60.14h-4.09v-5h4.09"/><path class="c" d="M159.72,54.91h4v21h-4Zm-.38-9.21h4.74V50h-4.74V45.7"/><path class="c" d="M170.1,54.91V50.43l4-1.25v5.73l4.87-.12v3l-4.87,0V71.29c0,1.51,1.18,2.22,2.6,2.22a8.86,8.86,0,0,0,2.1-.25v3.06c-.92,0-1.8.25-2.73.25a14.24,14.24,0,0,1-2.68-.21A3.82,3.82,0,0,1,171,75c-.71-1-.92-1.09-.92-3.9V57.72l-3.61,0v-3l3.61.12"/><path class="c" d="M194.6,63c0-3.65-.21-5.79-4.45-5.79-2,0-3.9,1.18-3.94,3.36H182c.21-4.61,3.82-6.24,8-6.24,4.32,0,8.6,1.29,8.6,7.16v10c0,.92,0,2.68.17,4.44h-2.68c-.38,0-1.1.21-1.14-.29-.08-1-.17-1.89-.21-2.85h-.08c-1.3,2.64-3.65,3.77-6.55,3.77-3.65,0-7.34-1.89-7.34-6C180.75,64.67,186,63,191,63Zm-4,2.76c-2.43.13-5.66,1-5.66,4.06,0,2.6,1.8,3.9,4.15,3.9,4.7,0,5.58-4.06,5.5-8h-4"/><path class="c" d="M202.55,45.7h4V75.94h-4V45.7"/><path class="c" d="M211.49,54.91h4v21h-4Zm-.38-9.21h4.74V50h-4.74V45.7"/><path class="c" d="M232.92,63c0-3.65-.21-5.79-4.45-5.79-2,0-3.9,1.18-3.94,3.36h-4.2c.21-4.61,3.82-6.24,8-6.24,4.32,0,8.6,1.29,8.6,7.16v10c0,.92,0,2.68.17,4.44h-2.69c-.37,0-1.09.21-1.13-.29-.08-1-.17-1.89-.21-2.85H233c-1.3,2.64-3.65,3.77-6.55,3.77-3.65,0-7.34-1.89-7.34-6,0-5.91,5.24-7.62,10.24-7.62Zm-4,2.76c-2.43.13-5.66,1-5.66,4.06,0,2.6,1.8,3.9,4.15,3.9,4.7,0,5.58-4.06,5.5-8h-4"/><path class="c" d="M244.93,58H245a7.33,7.33,0,0,1,6.38-3.72c1.47,0,8,.37,8,7.12V75.94h-4V62.71c0-3.48-1.47-5.37-4.83-5.37a5.51,5.51,0,0,0-3.86,1.55c-.59.59-1.68,1.51-1.68,5.61V75.94h-4v-21h3.9V58"/><path class="c" d="M266.71,66.18c-.29,3.69,1.22,7.5,5.29,7.5,3.1,0,4.66-1.22,5.12-4.27h4.19c-.63,4.77-4.32,7.16-9.36,7.16-6.75,0-9.43-4.78-9.43-11s3.1-11.31,9.77-11.31c6.29.12,9.27,4.1,9.27,9.92v2Zm10.66-2.76c.08-3.52-1.51-6.25-5.37-6.25-3.32,0-5.29,2.81-5.29,6.25h10.66"/></svg>