<svg xmlns="http://www.w3.org/2000/svg" width="128" height="64" fill="none"><rect width="128" height="64" fill="#FFDC00" rx="6"/><path fill="#000" d="M45.96 14.891H31.004c-1.5 0-2.496 1.004-2.496 2.316a2.801 2.801 0 0 0 .6 1.808l8.944 13.408c-.268-7.388 3.232-13.848 7.908-17.532Zm-9.2 10.856c-.04.232-.072.468-.1.704l-5.688-8.74a.485.485 0 0 1-.076-.208.293.293 0 0 1 .164-.304.447.447 0 0 1 .216-.048h9.528c-.1.116-.204.236-.304.36l-.132.164c-.343.424-.664.866-.96 1.324-.38.58-.727 1.18-1.04 1.8-.216.44-.4.896-.604 1.364-.056.136-.108.276-.16.4a17.197 17.197 0 0 0-.836 3.2l-.008-.016ZM97.004 14.89H79.44L68.888 31.1c-3.24 4.984-5.444 7.06-8.8 7.06-3.572 0-6.34-2.348-6.34-6.12 0-3.772 2.625-6.348 6.217-6.348 2.571 0 4.444 1.36 5.755 2.864l6.368-9.6c-2.755-2.924-6.94-4.956-12.18-4.956-10.4 0-18.104 7.884-18 18.288.096 10.112 7.785 17.6 18.176 17.712 10.593.116 18.24-4.36 38.584-30.8.632-.824.825-1.3.825-2 .008-1.304-.989-2.308-2.489-2.308Zm.076 2.593a.435.435 0 0 1-.087.196c-3.668 4.8-6.908 8.82-9.788 12.228l-.689.8c-.512.592-1.012 1.168-1.5 1.72-.348.4-.692.8-1.032 1.152-.688.763-1.354 1.487-2 2.172l-.643.676-.94.96a97.6 97.6 0 0 1-.92.912l-.596.576c-.213.2-.4.4-.633.592-.231.192-.531.496-.8.732a33.745 33.745 0 0 1-1.692 1.464c-.26.216-.52.428-.772.628l-1.031.8a37.99 37.99 0 0 1-1.492 1.044c-.329.212-.648.4-.965.608-.472.284-.94.544-1.395.8l-.457.232c-.456.22-.9.4-1.343.596-.149.06-.293.12-.44.172-.292.112-.584.212-.872.304l-.432.132c-.433.128-.86.236-1.285.328-.423.092-.855.168-1.28.232-.568.08-1.136.14-1.708.176a30 30 0 0 1-2.171.052 16.701 16.701 0 0 1-1.688-.096 16.47 16.47 0 0 1-1.6-.24 16.72 16.72 0 0 1-3.733-1.2 15.864 15.864 0 0 1-1.347-.696 14.797 14.797 0 0 1-2.96-2.236c-.354-.341-.689-.7-1.005-1.076-.155-.188-.312-.4-.46-.576-.295-.4-.575-.8-.835-1.224a15.88 15.88 0 0 1-2.268-8.136c-.112-9.2 6.584-16 15.768-16h.7c.885.032 1.767.136 2.636.312.4.088.82.188 1.2.304 1.316.387 2.568.97 3.712 1.728.316.212.616.432.907.664l-3.864 5.904a8.053 8.053 0 0 0-2.4-1.256c-.479-.16-.97-.283-1.468-.368a9.032 9.032 0 0 0-1.54-.132c-4.743 0-8.4 3.556-8.4 8.596s3.748 8.4 8.596 8.4a8.651 8.651 0 0 0 5.2-1.64c.44-.31.856-.65 1.248-1.016a25.118 25.118 0 0 0 3.516-4.336c.198-.288.394-.584.589-.888l10.032-15.396h16.084c.212 0 .336.1.352.244a.24.24 0 0 1-.008.076Z"/></svg>