<svg xmlns="http://www.w3.org/2000/svg" viewBox="0 0 320 120"><defs><style>.a{fill:none;}.b{fill:#fff;}.c{fill:#15569c;}.d{fill:#ed192d;}</style></defs><rect class="a" width="320" height="120"/><path class="b" d="M81.28,87.4,92.93,32.6H16.65L5,87.4Z"/><path class="c" d="M90.42,34.61H18.27v.24s42.41,8.71,43.25,8.86c9.75,1.72,9.44,3.6,9.44,3.6,6.83,0,7.67.24,8.87,1.23,3.59,3-2.25,11.84-2.25,11.84-.84.62-63.93,25-63.93,25h66L90.41,34.62Zm13.83,0-2.74,12.9c-1,4.46,2,6.48,7,6.48s8.84-2,9.8-6.48l2.79-12.9h-4.21s-2.12,9.93-2.49,11.63c-.63,3-2.2,4.75-5.28,4.75s-3.87-1.8-3.21-4.75c-.08.29,2.5-11.63,2.5-11.63Zm20.9,0-4,19h3.72l2.94-14.12h.09l4.7,14.12h5.28l4-19h-3.72l-3,14.29h0l-4.52-14.29Zm20.75,0-4,19h4.19l4-19Zm7,0-.67,3h5.92l-3.4,16H159l3.39-16h5.92l.64-3Zm18.82,0-4.07,19h13.8l.64-3h-9.58l1.09-5.2H182l.6-2.82h-8.35l1.06-5h9.58l.63-3Zm16.82,0-4,19h8.6c5.31,0,10.4-3.5,11.55-10.34.82-4.86-1.12-8.69-6.88-8.69Zm31.55,0c-4.93,0-7.38,1.76-7.75,4.49-.61,4.56,7.46,7.27,6.85,10-.37,1.6-2.34,1.52-3.93,1.52H210.1l-.64,3h6.42c5.26,0,7.54-1.89,8-4.49.77-4.67-7.43-7.09-6.79-10.11.21-.93,1.24-1.41,3.53-1.41h4.48l.66-3Zm7.78,0-.66,3h5.92l-3.4,16h4.19l3.4-16h5.92l.64-3Zm20.45,0-10.91,19h4.2L250,38.39l1.67,12.23h-6l-1.64,3h12.3l-3-19Zm9.65,0-.67,3h5.92l-3.4,16H264l3.39-16h5.92l.64-3Zm18.79,0-4.06,19h13.8l.64-3h-9.59l1.09-5.2H287l.61-2.82h-8.35l1.06-5h9.58l.63-3H276.77Zm23,0c-4.94,0-7.38,1.76-7.75,4.49-.61,4.56,7.46,7.27,6.85,10-.38,1.6-2.34,1.52-3.93,1.52h-5.18l-.63,3h6.42c5.25,0,7.54-1.89,8-4.49.77-4.67-7.43-7.09-6.79-10.11.21-.93,1.25-1.41,3.53-1.41h4.47l.68-3Zm-107.63,3h4.27c3.48,0,4.72,2.58,4.19,5.6-.74,4.28-3.47,7.38-8.22,7.38h-3ZM52.93,46.35H15.78l-8.28,39s25.38-12.42,28.5-14A186.56,186.56,0,0,1,59.27,61a115.54,115.54,0,0,1,12-3.26c1.5-.27,2.13-.52,2.11-.8,0-.8-1.56-.85-4.11-.73-7.78.37-22.69,6.3-27,8.57l-4.85-15h31c1-2.92-9.79-3.34-15.52-3.39ZM69.34,50c-.23,0-.42.15-.68.5a2.45,2.45,0,0,1-1,.83,18.61,18.61,0,0,1-4.62.83c-1.13.09-1.43.21-1.45.64s.17.61,1.78.61c3.71,0,10.38-1.4,12.39-.76,1.06.34.21,2.23-.66,4.72-.34,1,.32.89.71.47a16.33,16.33,0,0,0,2.3-5.21c.27-2.29-1.7-2.63-4.41-2.63Zm54.85,16c-5.89,0-10.8,3.07-12.24,9.84-1.13,5.41,2.16,9.87,8,9.87s10.72-2.94,12.21-9.87C133.4,70.19,130,66,124.19,66Zm168,0c-5.84,0-11.46,3-12.89,9.84s2.86,9.87,8.71,9.87a30.75,30.75,0,0,0,4.7-.42l1-3.27a20.46,20.46,0,0,1-5.1.67c-3.8,0-5.94-2.55-5-6.85S287.71,69,291.5,69a15,15,0,0,1,4.46.61l.37-3.21a24.36,24.36,0,0,0-4.17-.42Zm-149.72.34c-4.94,0-7.39,1.75-7.76,4.49-.61,4.56,7.46,7.27,6.85,10-.37,1.59-2.34,1.51-3.93,1.51h-5.17l-.64,3h6.42c5.26,0,7.54-1.89,8-4.49.77-4.67-7.43-7.08-6.79-10.11.21-.93,1.25-1.4,3.54-1.4h4.47l.67-3Zm7.77,0-.66,3h5.92l-3.4,16h4.19l3.4-16h5.92l.63-3Zm61.25,0c-4.94,0-7.38,1.75-7.75,4.49-.61,4.56,7.45,7.27,6.85,10-.37,1.59-2.34,1.51-3.93,1.51h-5.17l-.64,3h6.42c5.25,0,7.54-1.89,8-4.49.77-4.67-7.42-7.08-6.8-10.11.22-.93,1.26-1.4,3.54-1.4h4.48l.66-3Zm9.26,0-4.06,19h13.8l.63-3h-9.58l1.09-5.2H231l.61-2.82h-8.36l1.06-4.95h9.58l.64-3Zm16.81,0-4,19h4.19l3.4-16h3.76c2.34,0,2.55,1.3,2.31,2.49-.45,2.26-2.41,3.16-4.56,3.16a10.68,10.68,0,0,1-1.6,0l3.46,10.43h4.59L246,77.21a6.14,6.14,0,0,0,5.44-6c.25-3.18-1.24-4.85-4.95-4.85Zm62.19,0-4.05,19h13.8l.63-3h-9.57l1.08-5.2H310l.61-2.82h-8.36l1.07-4.95h9.57l.64-3Zm-202.2,0-4,19h4.19l3.4-16h3.42c1.54,0,2.6.76,2.15,2.83a3.93,3.93,0,0,1-4.14,3.11c-.63,0-1.32-.08-1.85-.13l.21,2.76c.61,0,1.33.15,2,.15,3.77,0,7.08-2.17,7.86-5.78.5-2.39,0-6-4.09-6Zm73.17,0-10.9,19H164l8.36-15.26L174,82.34h-6l-1.65,3h12.31l-3-19Zm14.21,0-4,19H193.8l.66-3h-8.67l3.39-16Zm68.68,0,2.87,19h4.95l10.84-19h-4.15L259.74,81.6l-2-15.26Zm21.18,0-4,19H275l4-19ZM123.53,69c3.87,0,5.17,3,4.35,6.82-.91,4.3-3.45,6.85-7.25,6.85s-5.23-3.16-4.41-6.85C117.22,71.52,119.73,69,123.53,69Z"/><path class="d" d="M99,59.29l-.29,1.41h216l.29-1.41Z"/></svg>