<svg xmlns="http://www.w3.org/2000/svg" xmlns:xlink="http://www.w3.org/1999/xlink" viewBox="0 0 320 120"><defs><style>.a{fill:none;}.b{fill:#afafb0;}.c{fill:url(#a);}.d{fill:#fff;}.e{fill:#000963;}</style><radialGradient id="a" cx="-283.59" cy="-726.48" r="17.2" gradientTransform="matrix(3.97, -0.09, -0.09, -3.77, 1197.81, -2719.93)" gradientUnits="userSpaceOnUse"><stop offset="0" stop-color="#ffc429"/><stop offset="1" stop-color="#f26f23"/></radialGradient></defs><rect class="a" width="320" height="120"/><path class="b" d="M128.68,5c13.36,0,34.88,8.46,49.13,16.33,15.74,8.76,37.86,26.42,37.86,38.6,0,12.91-22.71,30.13-37.86,38.59C164,106.09,142.93,115,129.12,115a18.9,18.9,0,0,1-8.9-1.78c-10.84-6.09-15.89-31.92-15.89-53.29a128.62,128.62,0,0,1,3.86-31.77c3-11.28,7.13-18.71,12-21.53A19,19,0,0,1,128.68,5"/><path class="c" d="M212,60.22C212,51,194.59,34.84,176,24.6,154.51,12.87,130.16,6,122.15,10.34,113.09,15.39,108,40.63,108,60.22c0,19.75,4.75,44.69,14.11,49.88,8.61,4.75,31.91-2.23,53.73-14.4C194.89,85.46,212,70,212,60.22"/><path class="d" d="M187.61,69.57l-.15-9.35c0-2.08-1-2.9-2.37-3a6.25,6.25,0,0,0-3.57,1.64V69.43a.14.14,0,0,1-.14.14h-4.16s-.15,0-.15-.14V54.58c0-.3.15-.44.45-.44h3.71s.15,0,.15.14c0,.53,0,1,0,1.57a8.81,8.81,0,0,1,2.08-1.27,7.65,7.65,0,0,1,3-.59c3.42,0,5.2,1.93,5.2,5.64v9.94a.15.15,0,0,1-.15.15l-3.86-.15m7.72,0h0l-.15-22.86c0-.14,0-.14.15-.14a14.23,14.23,0,0,1,3.27,2.22,3.31,3.31,0,0,1,.89,2.23V69.28a.15.15,0,0,1-.15.15h-4"/><path class="e" d="M149.76,61.86c0,5.49-3.57,8-8,8s-8-2.52-8-8,3.57-8,8-8,8,2.52,8,8m-4.46,0c0-3-1.48-4.16-3.41-4.16s-3.41,1.34-3.41,4.16c0,2.67,1.48,4.15,3.41,4.15S145.3,64.68,145.3,61.86ZM170.69,50c0-.15,0-.15-.15-.15a11.7,11.7,0,0,0-3.27,2.23,3.27,3.27,0,0,0-.89,2.22v10c0,4.31,2.53,5.64,5.2,5.64.67,0,3.39-.09,3.41-1V66c0-.15,0-.15-.15-.15a9.66,9.66,0,0,1-1.78.45c-1.33,0-2.22-.59-2.22-2.82V57.85c0-.15,0-.15.15-.15h3.71c.14,0,.14,0,.14-.15v-3a.38.38,0,0,0-.44-.44H171c-.15,0-.15,0-.15-.15ZM117.1,54.73a.48.48,0,0,1,.44-.45h5.79c5.79,0,8.76,3.42,8.76,7.87s-3.26,7.57-8.76,7.57h-1.78c-.15,0-.15,0-.15.15v7.28c0,.14,0,.14-.14.14A11.5,11.5,0,0,1,118,75.07a3.31,3.31,0,0,1-.89-2.23Zm10.69,7.13c0-1.93-1.19-3.72-4.46-3.72h-1.78c-.15,0-.15,0-.15.15v7.13c0,.15,0,.15.15.15h1.78c3.86,0,4.46-2.68,4.46-3.71Zm34.44-.6a18.52,18.52,0,0,0-4.16-1.33c-1.34-.3-2.38-.6-2.38-1.34s.75-1.19,1.79-1.19a16.79,16.79,0,0,1,5.34,1c.15,0,.3,0,.3-.15v-3a.44.44,0,0,0-.3-.44,20.31,20.31,0,0,0-4.75-.89,8,8,0,0,0-4.9,1.33,4.23,4.23,0,0,0-1.78,3.57c0,3.41,2.82,4,5.49,4.6.45.15.3.15.45.15,1.19.29,2.52.59,2.52,1.48a1.1,1.1,0,0,1-.3.74,2.54,2.54,0,0,1-1.78.45,27,27,0,0,1-5.79-1c-.14,0-.14.15-.14.15v3a.55.55,0,0,0,.29.44,20.9,20.9,0,0,0,5.35.89c4.6,0,7-1.78,7-5a4.49,4.49,0,0,0-2.22-3.42"/><path class="d" d="M135.06,50.13c-.3,0-.59,0-.59-.45V47.9a.7.7,0,0,1,.74-.74h13.21a.7.7,0,0,1,.74.74v1.63c0,.45-.15.6-.59.6Zm11.88-4.75h-.3v-.3c.45-1.34,1.93-5.49,1.93-5.49a.53.53,0,0,0-.3-.74l-.74-.3h-.15c-.15,0-.29,0-.29.15-.3.74-.45,1.19-.75,1.93,0,.15-.15.15-.29.15h-1.49c-.15,0-.15,0-.3-.15v-.3a26.26,26.26,0,0,1,1.34-3.56c.15-.15.3-.6.89-.6h.3c.44.15,1,.3,1.63.45a15.39,15.39,0,0,0,1.49.44,1.91,1.91,0,0,1,1.18,2.68c-.15.59-1,3.11-1.63,4.6-.19.44-.27,1-.74,1Zm-6.09.15c-.3,0-.3-.3-.3-.45s-.15-7.87-.15-8.91a.49.49,0,0,1,.45-.44h2.08a.47.47,0,0,1,.44.44c0,1-.14,8.76-.14,8.91s0,.45-.3.45Zm-6.09,0c-.5-.06-.56-.68-.74-1-.59-1.49-1.33-3.86-1.63-4.6-.3-1-.3-2.23,1.19-2.68.44-.15,1-.29,1.48-.44.59-.15,1.19-.3,1.63-.45h.3a1,1,0,0,1,.89.6,24.54,24.54,0,0,1,1.34,3.56v.3a.54.54,0,0,1-.3.14h-1.48c-.15,0-.3,0-.3-.14-.3-.75-.45-1.34-.74-1.93a.52.52,0,0,0-.3-.15H136l-.74.29a.55.55,0,0,0-.3.75s1.49,4.15,1.93,5.49v.3h-2.08Zm7-11.3c-.15,0-.13,0-.3-.13a12,12,0,0,1-1.63-1.64s-.15-.15,0-.44a10.34,10.34,0,0,1,1.78-1.78h.3A10,10,0,0,1,143.67,32a.27.27,0,0,1,0,.44A8.44,8.44,0,0,1,142,34.1c-.21.15-.16.13-.3.13Z"/></svg>