<svg xmlns="http://www.w3.org/2000/svg" viewBox="0 0 323.13 120.41"><defs><style>.a{fill:none;}.b{fill:#0498ba;}.b,.c{fill-rule:evenodd;}.c{fill:#0598ba;}</style></defs><rect class="a" width="323.13" height="120.41"/><path class="b" d="M26.38,46.67c3.67,0,7.35,0,11-.05.62,0,.76.25.73.8s0,1.27,0,1.95c.14,0,.27,0,.33-.07a14.41,14.41,0,0,1,23.32,5.6c2.64,6.94,2.15,13.67-2.87,19.53-5.29,6.18-15.35,6.47-20.37,2.48a2.14,2.14,0,0,0-.45-.18v11c-3.56,0-7.12,0-10.68,0-.8,0-1.06-.11-1.06-1Q26.41,66.68,26.38,46.67ZM37.83,62.48a6.31,6.31,0,0,0,6.4,6.67,6.22,6.22,0,0,0,6.48-6.21c.07-4.15-2.42-6.93-6.26-7A6.25,6.25,0,0,0,37.83,62.48Z"/><path class="b" d="M296.76,78.67c-3.3-.22-6.6,0-9.9-.1a8.51,8.51,0,0,0-1,0c-.73.09-.91-.25-.86-.91s0-1.26,0-2c-.67.56-1.2,1-1.79,1.48-5.51,4-14.25,3.07-18.93-2-5.84-6.38-5.82-18-.07-24.42,5.21-5.83,15.18-6.56,20.4-2.41a1.31,1.31,0,0,0,.39.13c0-2.82.05-5.59,0-8.35,0-.84.3-1.08,1-1.21,3.13-.58,6.25-1.21,9.38-1.82.18,0,.38,0,.47-.23.77-.17.92.13.92.9Q296.74,58.17,296.76,78.67ZM272.42,62.52c0,3.92,2.6,6.65,6.36,6.67a6.27,6.27,0,0,0,6.52-6.63A6.22,6.22,0,0,0,278.8,56,6.12,6.12,0,0,0,272.42,62.52Z"/><path class="b" d="M214.82,45.53a24.33,24.33,0,0,1,9.47,1.79c6.76,2.89,10.31,9.06,9.72,16.41-.7,8.78-6.67,13.88-14.55,15.36a23.31,23.31,0,0,1-13.68-1.35c-7-3-10-8.88-9.66-16,.52-10.15,7.91-14.91,15.82-16C213.05,45.63,214.18,45.58,214.82,45.53Zm-6.25,17a6.31,6.31,0,0,0,6.49,6.58,6.24,6.24,0,0,0,6.4-6.53c0-4-2.64-6.69-6.48-6.67A6.24,6.24,0,0,0,208.57,62.57Z"/><path class="b" d="M84.36,45.54c4.92.12,9.51,1.23,13.38,4.46A14.63,14.63,0,0,1,103,60.36c.41,4.73-.46,9.13-3.63,12.84A17.8,17.8,0,0,1,89.05,79a23.51,23.51,0,0,1-14-1.15c-7.54-3.09-10.52-9.69-9.79-17.09.82-8.28,6.64-13.22,14.31-14.72A24.28,24.28,0,0,1,84.36,45.54ZM84.17,56a6.6,6.6,0,1,0,6.38,6.7A6.33,6.33,0,0,0,84.17,56Z"/><path class="c" d="M172.44,49.22c3.88-3.78,8.43-4.39,13.32-3.08,4.43,1.19,6.51,4.51,7.33,8.8a18.34,18.34,0,0,1,.29,3.47c0,6.35,0,12.69,0,19,0,.84-.16,1.16-1.09,1.15q-4.85-.09-9.69,0c-.87,0-1.15-.21-1.14-1.12,0-5.29,0-10.59-.05-15.88a8.18,8.18,0,0,0-.16-1.56c-.55-2.85-1.69-3.8-4.41-3.7s-4.23,1.52-4.46,4.14c-.26,3-.07,5.92-.1,8.89,0,2.74,0,5.48,0,8.22,0,.8-.24,1-1,1-3.3,0-6.61,0-9.91,0-.73,0-1-.18-1-.94q0-15,0-30.07c0-.84.29-1,1-1,3.23,0,6.46.05,9.68,0,1,0,1.29.26,1.17,1.19A2.39,2.39,0,0,0,172.44,49.22Z"/><path class="c" d="M121.33,45.57a55.65,55.65,0,0,1,11,1.26c.74.17.88.4.7,1.13-.6,2.36-1.17,4.73-1.65,7.12-.18.89-.51.92-1.28.68a25.81,25.81,0,0,0-11.2-1.23,6.13,6.13,0,0,0-.87.21c-.71.21-1.26.62-1.25,1.4s.63,1.16,1.33,1.32c2.52.57,5.12.72,7.63,1.37a22.51,22.51,0,0,1,3.93,1.35,8,8,0,0,1,4.91,8.21c-.13,4.56-2.46,7.49-6.52,9.23a26.9,26.9,0,0,1-10.23,1.84A44,44,0,0,1,105,77.78c-.69-.19-.87-.41-.67-1.15q1-3.73,1.92-7.51c.19-.81.48-.87,1.21-.59a27.77,27.77,0,0,0,12.09,2.06,4.85,4.85,0,0,0,1.64-.38,1.41,1.41,0,0,0,1-1.36,1.37,1.37,0,0,0-1-1.33,17.66,17.66,0,0,0-4.07-.79,28.37,28.37,0,0,1-7-1.64,9.15,9.15,0,0,1-2.52-15.54C110.46,47,114,46.2,117.72,45.8,119,45.65,120.34,45.63,121.33,45.57Z"/><path class="c" d="M136.78,59c0-6.16,0-12.32,0-18.48,0-.85.22-1,1.06-1,3.26.05,6.53.06,9.8,0,.89,0,1,.29,1,1.09-.06,1.72,0,3.45,0,5.18,0,.77.26.94,1,.94,3,0,5.93,0,8.9,0,.78,0,1,.11.59.91q-2.31,4.17-4.54,8.41a1.12,1.12,0,0,1-1.16.66c-1.23,0-2.48,0-3.71,0-.85-.06-1.07.21-1.06,1.06,0,6.49,0,13,0,19.49,0,1.45,0,1.45-1.44,1.45-3.08,0-6.16,0-9.24,0-.93,0-1.2-.2-1.19-1.16C136.8,71.28,136.78,65.12,136.78,59Z"/><path class="b" d="M248.58,50.05c2.69-3.63,6.28-4.11,10.14-3.81.7,0,1,.32,1,1.12-.12,3-.18,6.07-.24,9.11,0,.72-.23.9-.95.72a12.2,12.2,0,0,0-4.13-.34c-3.89.33-5.81,2.38-5.83,6.29,0,4.73,0,9.46,0,14.19,0,.94-.16,1.3-1.21,1.27-3.19-.08-6.38,0-9.57,0-.73,0-1.06-.1-1-1q0-15,0-30.06c0-.73.18-1,.93-1,3.34,0,6.68,0,10,0,.72,0,.91.23.87.9S248.58,49,248.58,50.05Z"/></svg>