<svg xmlns="http://www.w3.org/2000/svg" width="128" height="64" fill="none"><rect width="128" height="64" fill="#004A8E" rx="6"/><path fill="#fff" fill-rule="evenodd" d="M51.571 32.209v-.427H0v.756h51.58v-.329M76.394 31.774v.755H128v-.755H76.394Z" clip-rule="evenodd"/><path fill="#D3200C" fill-rule="evenodd" d="M76.403 32.192A12.415 12.415 0 1 1 64 19.584a12.506 12.506 0 0 1 12.42 12.608" clip-rule="evenodd"/><path fill="#fff" fill-rule="evenodd" d="m60.053 33.835.88-.896 9.838-.448.44-.448h-9.694l-5.287-6.264 17.622 5.965-5.871 5.97H56.23l1.177-1.2 9.835-.444.435-.448h-9.391l.883-.9 9.835-.444.44-.443h-9.392ZM81.143 22.34h1.34c1.148 0 2.197.342 2.197 1.622s-.9 1.706-2.026 1.706H82.2V27.7h-1.058V22.34Zm1.058 2.48h.372c.529 0 1.007-.176 1.007-.794 0-.62-.465-.854-1.007-.854H82.2V24.82ZM89.655 22.268c1.656 0 2.582 1.135 2.582 2.752 0 1.617-.91 2.786-2.582 2.786-1.672 0-2.585-1.144-2.585-2.786 0-1.643.9-2.752 2.585-2.752Zm0 4.693c1.075 0 1.476-.973 1.476-1.941 0-.969-.426-1.907-1.476-1.907s-1.485.968-1.485 1.907c0 .938.401 1.941 1.485 1.941ZM97.928 23.343a2.72 2.72 0 0 0-1.075-.23.739.739 0 0 0-.832.742c0 .926 2.313.537 2.313 2.334 0 1.173-.914 1.617-1.976 1.617a4.692 4.692 0 0 1-1.357-.205l.103-.973a2.44 2.44 0 0 0 1.19.333c.405 0 .934-.209.934-.691 0-1.02-2.308-.593-2.308-2.372 0-1.195.913-1.63 1.84-1.63.433-.008.866.057 1.28.192l-.099.883M102.144 23.202h-1.51v-.845h4.078v.845h-1.514v4.51h-1.054v-4.51ZM107.277 22.357h3.114v.845h-2.061v1.318h1.882v.845h-1.882v1.507h2.078v.84h-3.131v-5.355ZM116.198 23.343a2.692 2.692 0 0 0-1.067-.23.74.74 0 0 0-.853.742c0 .926 2.313.537 2.313 2.334 0 1.173-.918 1.617-1.984 1.617a4.646 4.646 0 0 1-1.349-.205l.098-.973c.361.21.769.325 1.187.333.405 0 .938-.209.938-.691 0-1.02-2.304-.593-2.304-2.372 0-1.195.913-1.63 1.839-1.63.435-.008.867.057 1.28.192l-.102.883M85.064 41.873a5.382 5.382 0 0 1-1.198.17c-1.707 0-2.889-.853-2.889-2.679 0-1.826 1.1-2.858 2.889-2.858.408.002.813.077 1.194.221l-.077.905a2.133 2.133 0 0 0-1.139-.282c-1.088 0-1.766.854-1.766 1.942s.661 1.907 1.788 1.907c.397.004.792-.071 1.16-.222l.038.896ZM89.241 36.6h1.212l2.06 5.367H91.34l-.46-1.246h-2.134l-.456 1.246h-1.097l2.048-5.368Zm.589 1.07-.764 2.21h1.536l-.76-2.21h-.012ZM95.027 36.6h1.301l2.005 4.002h.018v-4.003h1.015v5.347H98.07l-2.01-3.998h-.02v3.998h-1.012v-5.347ZM103.94 36.6h1.191l2.069 5.367h-1.173l-.448-1.225h-2.134l-.465 1.225h-1.096l2.056-5.368Zm.593 1.07-.763 2.21h1.548l-.785-2.21ZM109.773 36.6h1.446c1.613 0 3.038.55 3.038 2.67s-1.425 2.697-3.038 2.697h-1.446v-5.368Zm1.054 4.514h.593a1.835 1.835 0 0 0 0-3.665h-.593v3.665ZM118.613 36.6h1.203l2.078 5.367h-1.178l-.452-1.225h-2.133l-.461 1.225h-1.101l2.044-5.368Zm.584 1.07-.763 2.21h1.54l-.764-2.21h-.013ZM10.496 27.635c-.392.103-.794.16-1.2.17-1.706 0-2.892-.852-2.892-2.679 0-1.826 1.1-2.858 2.893-2.858.405.004.807.079 1.186.222l-.068.904a2.184 2.184 0 0 0-1.14-.281c-1.092 0-1.77.853-1.77 1.937 0 1.083.665 1.911 1.792 1.911.396.006.79-.07 1.156-.222l.043.896ZM14.673 22.34h1.194l2.053 5.372h-1.152l-.453-1.225h-2.133l-.46 1.225H12.62l2.052-5.372Zm.584 1.075-.768 2.21h1.54l-.759-2.21h-.013ZM20.459 22.357h1.292l2.014 4.007h.013v-4.007h1.011v5.355h-1.288l-2.018-4.002h-.018v4.002H20.46v-5.355ZM29.367 22.34h1.195l2.07 5.355h-1.174l-.456-1.225h-2.134l-.456 1.225h-1.105l2.06-5.355Zm.585 1.075-.764 2.21h1.532l-.768-2.192v-.018ZM35.2 22.34h1.442c1.613 0 3.042.555 3.042 2.68s-1.43 2.675-3.042 2.675H35.2V22.34Zm1.066 4.531h.593a1.736 1.736 0 0 0 1.733-1.834 1.732 1.732 0 0 0-1.745-1.843h-.58v3.677ZM44.053 22.34h1.195l2.065 5.355h-1.165l-.452-1.225h-2.133l-.47 1.242h-1.1l2.06-5.372Zm.585 1.075-.764 2.21h1.545l-.764-2.21h-.017ZM6.57 36.6h1.336c1.148 0 2.197.337 2.197 1.612 0 1.276-.9 1.707-2.035 1.707h-.427v2.048h-1.07v-5.368Zm1.054 2.474h.372c.524 0 1.002-.175 1.002-.798s-.456-.853-1.002-.853h-.372V39.074ZM15.07 36.506c1.655 0 2.585 1.135 2.585 2.752 0 1.617-.904 2.786-2.585 2.786s-2.56-1.148-2.56-2.786c0-1.639.892-2.752 2.56-2.752Zm0 4.693c1.084 0 1.485-.969 1.485-1.941 0-.973-.427-1.908-1.485-1.908s-1.476.965-1.476 1.908c0 .942.396 1.94 1.476 1.94ZM23.347 37.577a2.691 2.691 0 0 0-1.07-.227.74.74 0 0 0-.854.747c0 .922 2.313.533 2.313 2.325 0 1.174-.914 1.622-1.98 1.622a4.621 4.621 0 0 1-1.349-.21l.094-.964a2.56 2.56 0 0 0 1.195.329c.401 0 .934-.21.934-.691 0-1.016-2.312-.598-2.312-2.368 0-1.2.913-1.634 1.847-1.634.435-.008.867.057 1.28.192l-.102.879M27.571 37.44h-1.515v-.84h4.08v.84h-1.511v4.506H27.57V37.44Z" clip-rule="evenodd"/></svg>