<svg xmlns="http://www.w3.org/2000/svg" width="128" height="64" fill="none"><rect width="128" height="64" fill="#fff" rx="6"/><path fill="#2A6B9B" fill-rule="evenodd" d="M44.76 31.766c-1.906-1.905-4.745-4.562-4.745-4.562-.238-.233-.289-.47.105-.47h13.004L55.562 18H36.157c-5.504 0-8.734 2.43-8.734 6.117 0 1.325.216 3.405 1.92 5.11 2.555 2.554 7.639 7.28 8.376 8.028.237.234.288.475-.11.475H23.25L20.933 46h21.931c4.171 0 6.726-3.814 6.726-6.058 0-3.46-1.01-4.354-4.832-8.176ZM66.847 18h-10.31l-7.814 28h18.613c8.423 0 13.441-9.57 13.441-15.872C80.788 21.416 73.701 18 66.847 18Zm-1.595 19.708h-5.11l3.066-10.985h3.558c2.887 0 4.898 1.755 4.898 3.967 0 5.24-4.576 7.029-6.412 7.029v-.011ZM98.306 18H94.42c-9.471 0-10.88 6.934-12.044 11.058L77.63 46h8.946l2.314-8.281h6.339L92.942 46h8.948l4.657-16.69c2.661-9.533-5.66-11.31-8.24-11.31Zm-.317 9.963-.964 3.446h-6.35l1.062-3.763a2.383 2.383 0 0 1 2.256-1.825h1.985c1.135.011 2.296 1.07 2 2.142h.011Z" clip-rule="evenodd"/></svg>