<svg xmlns="http://www.w3.org/2000/svg" xmlns:xlink="http://www.w3.org/1999/xlink" viewBox="0 0 323.13 120.41"><defs><style>.a{fill:none;}.b{fill:#afafb0;}.c{fill:url(#a);}.d{fill:#fff;}.e{fill:#000963;}</style><radialGradient id="a" cx="-282.02" cy="-726.28" r="17.2" gradientTransform="matrix(3.97, -0.09, -0.09, -3.77, 1193.18, -2718.81)" gradientUnits="userSpaceOnUse"><stop offset="0" stop-color="#ffc429"/><stop offset="1" stop-color="#f26f23"/></radialGradient></defs><rect class="a" width="323.13" height="120.41"/><path class="b" d="M130.24,5.21c13.36,0,34.89,8.46,49.14,16.32,15.73,8.76,37.85,26.43,37.85,38.6,0,12.92-22.71,30.14-37.85,38.6-13.81,7.57-34.89,16.48-48.69,16.48a19,19,0,0,1-8.91-1.79c-10.84-6.08-15.88-31.91-15.88-53.29a128.15,128.15,0,0,1,3.86-31.77c3-11.28,7.12-18.7,12-21.52a19,19,0,0,1,8.46-1.63"/><path class="c" d="M213.52,60.43c0-9.21-17.37-25.39-35.92-35.63-21.53-11.73-45.87-18.56-53.89-14.25-9.06,5-14.1,30.28-14.1,49.88s4.75,44.68,14.1,49.88c8.61,4.75,31.92-2.23,53.74-14.4,19-10.25,36.07-25.68,36.07-35.48"/><path class="d" d="M189.18,69.78,189,60.43c0-2.08-1-2.9-2.38-3a6.23,6.23,0,0,0-3.56,1.63V69.63a.15.15,0,0,1-.15.15h-4.16a.14.14,0,0,1-.14-.15V54.79c0-.3.14-.45.44-.45h3.71a.15.15,0,0,1,.15.15c0,.52,0,1,0,1.57A8.54,8.54,0,0,1,185,54.79a7.49,7.49,0,0,1,3-.6c3.41,0,5.19,1.93,5.19,5.64v10s0,.15-.14.15l-3.86-.15m7.71,0h0l-.14-22.86c0-.15,0-.15.14-.15A13.81,13.81,0,0,1,200.16,49a3.27,3.27,0,0,1,.89,2.22V69.48a.15.15,0,0,1-.15.15h-4"/><path class="e" d="M151.32,62.06c0,5.49-3.56,8-8,8s-8-2.53-8-8,3.56-8,8-8,8,2.53,8,8m-4.45,0c0-3-1.49-4.16-3.42-4.16S140,59.24,140,62.06s1.48,4.16,3.41,4.16C145.38,66.37,146.87,64.88,146.87,62.06Zm25.38-11.88c0-.14,0-.14-.15-.14a11.61,11.61,0,0,0-3.26,2.22,3.27,3.27,0,0,0-.89,2.23v9.95c0,4.3,2.52,5.64,5.19,5.64.67,0,3.4-.1,3.42-1V66.22c0-.15,0-.15-.15-.15a10.31,10.31,0,0,1-1.78.44c-1.34,0-2.23-.59-2.23-2.82V58.05c0-.15,0-.15.15-.15h3.71c.15,0,.15,0,.15-.14v-3a.4.4,0,0,0-.45-.45h-3.41c-.15,0-.15,0-.15-.15Zm-53.59,4.76a.48.48,0,0,1,.45-.45h5.79c5.79,0,8.76,3.41,8.76,7.87s-3.27,7.57-8.76,7.57h-1.78c-.15,0-.15,0-.15.15v7.27c0,.15,0,.15-.15.15a11.7,11.7,0,0,1-3.27-2.23,3.27,3.27,0,0,1-.89-2.22Zm10.69,7.12c0-1.93-1.19-3.71-4.45-3.71h-1.78c-.15,0-.15,0-.15.15v7.12c0,.15,0,.15.15.15h1.78c3.86,0,4.45-2.67,4.45-3.71Zm34.44-.59a17.92,17.92,0,0,0-4.16-1.34c-1.33-.3-2.37-.59-2.37-1.34s.74-1.18,1.78-1.18a16.42,16.42,0,0,1,5.34,1c.15,0,.3,0,.3-.15v-3a.43.43,0,0,0-.3-.45,20.62,20.62,0,0,0-4.75-.89,8,8,0,0,0-4.89,1.34A4.23,4.23,0,0,0,153,59.09c0,3.42,2.83,4,5.5,4.6.44.15.29.15.44.15,1.19.3,2.53.6,2.53,1.49a1.14,1.14,0,0,1-.3.74,2.57,2.57,0,0,1-1.78.44,26.84,26.84,0,0,1-5.79-1,.15.15,0,0,0-.15.15v3a.57.57,0,0,0,.3.45,20.88,20.88,0,0,0,5.34.89c4.6,0,7-1.78,7-5.05a4.48,4.48,0,0,0-2.23-3.41"/><path class="d" d="M136.63,50.33c-.3,0-.6,0-.6-.44V48.11a.71.71,0,0,1,.74-.75H150a.71.71,0,0,1,.74.75v1.63c0,.44-.15.59-.6.59Zm11.87-4.75h-.3v-.29c.45-1.34,1.93-5.5,1.93-5.5a.54.54,0,0,0-.29-.74l-.75-.3H149c-.15,0-.3,0-.3.15-.3.74-.45,1.19-.74,1.93,0,.15-.15.15-.3.15h-1.48c-.15,0-.15,0-.3-.15v-.29A24,24,0,0,1,147.17,37c.14-.15.29-.59.89-.59h.29c.45.15,1,.3,1.64.44.44.15.89.3,1.48.45a1.91,1.91,0,0,1,1.19,2.67c-.15.6-1,3.12-1.64,4.6-.18.45-.27,1-.74,1Zm-6.09.15c-.29,0-.29-.3-.29-.44s-.15-7.87-.15-8.91a.48.48,0,0,1,.44-.45h2.08a.48.48,0,0,1,.45.45c0,1-.15,8.76-.15,8.91s0,.44-.3.44Zm-6.08,0c-.5-.06-.56-.68-.74-1-.6-1.48-1.34-3.86-1.64-4.6-.29-1-.29-2.23,1.19-2.67.45-.15,1-.3,1.49-.45s1.18-.29,1.63-.44h.3a1,1,0,0,1,.89.59,25.43,25.43,0,0,1,1.33,3.56V41a.52.52,0,0,1-.3.15H139c-.15,0-.3,0-.3-.15-.29-.74-.44-1.34-.74-1.93a.52.52,0,0,0-.3-.15h-.14l-.75.3a.54.54,0,0,0-.29.74s1.48,4.16,1.93,5.49v.3h-2.08Zm7-11.29c-.15,0-.12,0-.29-.14a11.42,11.42,0,0,1-1.63-1.63s-.15-.15,0-.45a9.68,9.68,0,0,1,1.78-1.78h.29a10.33,10.33,0,0,1,1.79,1.78.29.29,0,0,1,0,.45,8.44,8.44,0,0,1-1.64,1.63c-.2.15-.15.14-.3.14Z"/></svg>