<svg width="128" height="64" viewBox="0 0 128 64" fill="none" xmlns="http://www.w3.org/2000/svg">
<rect width="128" height="64" rx="6" fill="white"/>
<path d="M45.9833 6H23.9709C23.9709 6 21.1904 6 21.1904 8.83696V64H48.6866V8.83696C48.7639 8.75815 48.7639 6 45.9833 6Z" fill="#EF3E33"/>
<path d="M24.7432 25.0703H30.5359L34.5522 38.1518L38.5685 25.0703H44.3612V45.0866H40.4994V29.7198L35.9425 45.0866H33.0075L28.605 29.7198V45.0866H24.7432V25.0703Z" fill="white"/>
<path d="M74.9674 6H52.955C52.955 6 50.2517 6 50.2517 8.83696V64H77.7479V8.83696C77.6707 8.75815 77.6707 6 74.9674 6Z" fill="#006330"/>
<path d="M56.6621 25.0703H63.9996C68.0931 25.0703 71.4915 26.41 71.4915 31.1382C71.4915 35.8665 68.3248 37.285 64.2313 37.285H61.0646V45.0866H56.7393L56.6621 25.0703ZM60.9874 33.5812H63.8451C65.3898 33.5812 66.8573 33.0296 66.8573 31.1382C66.8573 29.0893 64.7719 28.7741 63.15 28.7741H60.9101C60.9874 28.7741 60.9874 33.5812 60.9874 33.5812Z" fill="white"/>
<path d="M104.086 6H82.0735C82.0735 6 79.293 6 79.293 8.83696V64H106.789V8.83696C106.866 8.75815 106.866 6 104.086 6Z" fill="#2FB457"/>
<path d="M87.248 25.0703H91.5733V40.9888H99.6059V45.0866H87.248V25.0703Z" fill="white"/>
</svg>
