<svg xmlns="http://www.w3.org/2000/svg" viewBox="0 0 320 120"><defs><style>.a{fill:none;}.b{fill:#ffd541;}</style></defs><rect class="a" width="320" height="120"/><rect class="b" x="10" y="20" width="300" height="80" rx="9"/><path d="M273.32,55.39H268V72.78h5.36ZM28.7,62.13a14.59,14.59,0,0,1,.22-2.56A28.1,28.1,0,0,1,25.6,49.3h0a1,1,0,0,0-1-.85H21a1,1,0,0,0-1,1h0v.06c1,9,5.33,16.74,11.39,21.25a15,15,0,0,1-2.69-8.61m40-12.62v-.08a1,1,0,0,0-1-1H57a1,1,0,0,0-1,1v3.34a1,1,0,0,0,1,1h5.17c-2.69,9.76-9.92,16.74-18.43,16.74a8.36,8.36,0,1,1,5.8-2.33A17.36,17.36,0,0,0,54.41,65a21.34,21.34,0,0,0,3.28-3.88,14,14,0,1,0-13.92,15C56.5,76.08,67,64.51,68.67,49.5m24.2,6.89q0,3.84-4.38,3.84H86.33V52.64h2.16q4.38,0,4.38,3.75m5.77-.2q0-7.75-9.2-7.76H80.85V72.78h5.48V64.39h2.61A10.47,10.47,0,0,0,96,62.12a7.41,7.41,0,0,0,2.64-5.93M111.9,64q0,5.14-3.86,5.15c-2.7,0-4-1.67-4-5a5.8,5.8,0,0,1,1-3.7,3.59,3.59,0,0,1,3-1.31q3.88,0,3.89,4.87m2.92,6.74a9.12,9.12,0,0,0,2.54-6.84,8.65,8.65,0,0,0-2.46-6.44A9.19,9.19,0,0,0,108.12,55a9.76,9.76,0,0,0-7,2.43,8.85,8.85,0,0,0-2.58,6.75,8.81,8.81,0,0,0,2.49,6.61,9.33,9.33,0,0,0,6.83,2.44,9.43,9.43,0,0,0,7-2.51m11.8-18,4-5.52h-3.48l-2.65,3.2-2.63-3.2h-3.48l4,5.52Zm4.74,14.82a4.94,4.94,0,0,0-.33-1.9,4.15,4.15,0,0,0-1-1.39,6.16,6.16,0,0,0-1.5-1,15,15,0,0,0-1.94-.82c-.39-.13-.79-.27-1.19-.39a8.75,8.75,0,0,1-1.1-.45,2.69,2.69,0,0,1-.8-.58,1.19,1.19,0,0,1-.3-.82,1,1,0,0,1,.2-.64A1.46,1.46,0,0,1,124,59a3,3,0,0,1,.83-.27,4.68,4.68,0,0,1,1-.1,9.7,9.7,0,0,1,2.28.3,8.13,8.13,0,0,1,2.18.89V55.66a18.39,18.39,0,0,0-2.34-.51,15.27,15.27,0,0,0-2.34-.18,13,13,0,0,0-2.85.31,7.93,7.93,0,0,0-2.43,1A5.15,5.15,0,0,0,118.66,58,4.71,4.71,0,0,0,118,60.5a5.54,5.54,0,0,0,.28,1.85,4.07,4.07,0,0,0,.82,1.37,5.36,5.36,0,0,0,1.32,1,12.58,12.58,0,0,0,1.83.84c.43.17.87.32,1.34.46a9.9,9.9,0,0,1,1.29.46,3.22,3.22,0,0,1,1,.59,1.1,1.1,0,0,1,.38.86,1.27,1.27,0,0,1-.83,1.19,5.35,5.35,0,0,1-2.25.39,8.68,8.68,0,0,1-2.48-.39A11,11,0,0,1,118,68v4.35a15.46,15.46,0,0,0,5.31.88,13.87,13.87,0,0,0,3-.32,7.94,7.94,0,0,0,2.56-1,5.23,5.23,0,0,0,1.78-1.78,5,5,0,0,0,.68-2.64m8.48,5.74a7.91,7.91,0,0,0,3.58-.63v-4a3.57,3.57,0,0,1-1.75.49c-1.44,0-2.15-.9-2.14-2.71v-7h3.9v-4h-3.9V50.11l-5.35,1.53v3.75h-2.82v4h2.82v8q0,5.89,5.67,5.89m14.87-7.49a3.8,3.8,0,0,1-.95,2.64,3.17,3.17,0,0,1-2.46,1.05,2.46,2.46,0,0,1-1.72-.59,1.94,1.94,0,0,1-.64-1.5c0-1.35.87-2.13,2.61-2.36l3.16-.41Zm0,7.07h5.07V62.39q0-7.43-7.44-7.42a15.65,15.65,0,0,0-3.53.44,13.76,13.76,0,0,0-3.06,1v4a10.49,10.49,0,0,1,5.91-1.85q3.09,0,3.09,2.85L150,62.1q-6,.78-6,5.84a5.15,5.15,0,0,0,1.45,3.83,5.45,5.45,0,0,0,4,1.43,5.66,5.66,0,0,0,5.18-2.92h.07ZM185,69.36a6.87,6.87,0,0,0,.78-3.42,7.16,7.16,0,0,0-.44-2.59,6.25,6.25,0,0,0-1.28-2,9.39,9.39,0,0,0-2-1.56,22.94,22.94,0,0,0-2.63-1.3c-.71-.29-1.35-.58-1.92-.86a10.4,10.4,0,0,1-1.44-.84,3.79,3.79,0,0,1-.91-.92,2,2,0,0,1,0-2.11,2.52,2.52,0,0,1,.82-.77,4.49,4.49,0,0,1,1.29-.5,8,8,0,0,1,1.69-.18,13.93,13.93,0,0,1,1.44.1,13.21,13.21,0,0,1,1.52.31,9.82,9.82,0,0,1,1.49.54,7.89,7.89,0,0,1,1.33.74V49a13.53,13.53,0,0,0-2.71-.71,22.37,22.37,0,0,0-3.37-.23,16.14,16.14,0,0,0-3.67.42,9.47,9.47,0,0,0-3,1.3A6.51,6.51,0,0,0,169.79,52a6.62,6.62,0,0,0-.76,3.27,6.35,6.35,0,0,0,1.4,4.14,10.71,10.71,0,0,0,4.25,2.9c.75.31,1.45.61,2.09.9a11.79,11.79,0,0,1,1.67.92,4.58,4.58,0,0,1,1.12,1,2.09,2.09,0,0,1,.4,1.28,1.83,1.83,0,0,1-.26,1,2.13,2.13,0,0,1-.77.78,4,4,0,0,1-1.29.52,7.3,7.3,0,0,1-1.8.19,10.16,10.16,0,0,1-3.5-.62,10.27,10.27,0,0,1-3.22-1.86v5.43a11.15,11.15,0,0,0,3.13,1,20.37,20.37,0,0,0,3.81.34,17.76,17.76,0,0,0,3.71-.37,9.31,9.31,0,0,0,3.09-1.23,6.27,6.27,0,0,0,2.1-2.24m2.69,3.42H193V47h-5.36ZM208.1,64q0,5.14-3.86,5.15-4.05,0-4-5a5.8,5.8,0,0,1,1.05-3.7,3.54,3.54,0,0,1,2.95-1.3q3.88,0,3.89,4.87m5.47-.1a8.6,8.6,0,0,0-2.47-6.44A9.23,9.23,0,0,0,204.32,55a9.77,9.77,0,0,0-7,2.43,8.85,8.85,0,0,0-2.58,6.75,8.81,8.81,0,0,0,2.49,6.61A10.84,10.84,0,0,0,211,70.69a9.21,9.21,0,0,0,2.53-6.84M225,72.78l6.47-17.39h-5.61l-3.09,10.82a18.68,18.68,0,0,0-.63,3H222a16.33,16.33,0,0,0-.6-3.1l-3-10.71h-5.74l6.16,17.39Zm10.74-10.46a4.84,4.84,0,0,1,1.15-2.67,2.9,2.9,0,0,1,2.23-1.07c2,0,3,1.25,3,3.74Zm0,3.29h11.34V63.35A8.75,8.75,0,0,0,245,57.22,7.56,7.56,0,0,0,239.1,55a8.38,8.38,0,0,0-6.18,2.52,9.35,9.35,0,0,0-2.51,6.87,8.1,8.1,0,0,0,8.86,8.85,13.22,13.22,0,0,0,6.27-1.29V68.06a9.43,9.43,0,0,1-5,1.36c-3,0-4.6-1.27-4.77-3.79M260.1,72.8h5.35V62.13q0-7.16-5.77-7.16a6.13,6.13,0,0,0-5.58,3.17H254V55.39h-5.37V72.78H254V62.86a4,4,0,0,1,.9-2.71,2.88,2.88,0,0,1,2.29-1.08c1.92,0,2.89,1.35,2.89,4Zm12.81-20.92a2.58,2.58,0,0,0,.85-2,2.51,2.51,0,0,0-.85-2,3.66,3.66,0,0,0-4.46,0,2.52,2.52,0,0,0-.86,2,2.6,2.6,0,0,0,.86,2,3.15,3.15,0,0,0,2.22.81,3.27,3.27,0,0,0,2.24-.78m3.32,21q0,4-2.53,4a4.21,4.21,0,0,1-2-.63v4.21a7.54,7.54,0,0,0,2.57.51,6.61,6.61,0,0,0,5.43-2.31,9.4,9.4,0,0,0,1.88-6.16V55.39h-5.36Zm4.94-21a2.58,2.58,0,0,0,.85-2,2.51,2.51,0,0,0-.85-2,3.66,3.66,0,0,0-4.44,0,2.51,2.51,0,0,0-.86,2,2.63,2.63,0,0,0,.86,2,3.54,3.54,0,0,0,4.46,0M295,62.33h-6.39a4.87,4.87,0,0,1,1.14-2.66A2.91,2.91,0,0,1,292,58.59c2,0,3,1.25,3,3.74m5,3.29V63.35a8.71,8.71,0,0,0-2.08-6.13A7.55,7.55,0,0,0,292,55a8.37,8.37,0,0,0-6.18,2.52,9.31,9.31,0,0,0-2.52,6.87,8.11,8.11,0,0,0,8.87,8.85,13.21,13.21,0,0,0,6.26-1.29V68.06a9.41,9.41,0,0,1-5,1.36c-3,0-4.6-1.27-4.77-3.79Z"/></svg>