<svg xmlns="http://www.w3.org/2000/svg" width="128" height="64" fill="none"><rect width="128" height="64" fill="#fff" rx="6"/><path fill="#15569C" d="M35.668 21.786H6.808v.096s16.964 3.484 17.3 3.544c3.9.688 3.776 1.44 3.776 1.44 2.732 0 3.068.096 3.548.492 1.436 1.2-.9 4.736-.9 4.736-.336.248-25.572 10-25.572 10h26.4l4.304-20.304.004-.004Zm5.532 0-1.096 5.16c-.4 1.784.8 2.592 2.8 2.592 2 0 3.536-.8 3.92-2.592l1.116-5.16h-1.684s-.848 3.972-.996 4.652c-.252 1.2-.88 1.9-2.112 1.9-1.232 0-1.548-.72-1.284-1.9-.032.116 1-4.652 1-4.652H41.2Zm8.36 0-1.6 7.6h1.488l1.176-5.648h.036l1.88 5.648h2.112l1.6-7.6h-1.488l-1.2 5.716-1.808-5.716H49.56Zm8.3 0-1.6 7.6h1.676l1.6-7.6H57.86Zm2.8 0-.268 1.2h2.368l-1.36 6.4h1.7l1.356-6.4h2.368l.256-1.2h-6.42Zm7.528 0-1.628 7.6h5.52l.256-1.2h-3.832l.436-2.08h3.36l.24-1.128H69.2l.424-2h3.832l.252-1.2-5.52.008Zm6.728 0-1.6 7.6h3.44c2.124 0 4.16-1.4 4.62-4.136.328-1.944-.448-3.476-2.752-3.476l-3.708.012Zm12.62 0c-1.972 0-2.952.704-3.1 1.796-.244 1.824 2.984 2.908 2.74 4-.148.64-.936.608-1.572.608H83.54l-.256 1.2h2.568c2.104 0 3.016-.756 3.2-1.796.308-1.868-2.972-2.836-2.716-4.044.084-.372.496-.564 1.412-.564h1.792l.264-1.2h-2.268Zm3.112 0-.264 1.2h2.368l-1.36 6.4h1.676l1.36-6.4h2.368l.256-1.2h-6.404Zm8.18 0-4.364 7.6h1.68l3.356-6.088.668 4.892h-2.4l-.656 1.2h4.92l-1.2-7.6-2.004-.004Zm3.86 0-.268 1.2h2.368l-1.36 6.4h1.672l1.356-6.4h2.368l.256-1.2h-6.392Zm7.516 0-1.624 7.6h5.52l.256-1.2h-3.836l.436-2.08h3.344l.244-1.128h-3.34l.424-2h3.832l.252-1.2h-5.504l-.004.008Zm9.2 0c-1.976 0-2.952.704-3.1 1.796-.244 1.824 2.984 2.908 2.74 4-.152.64-.936.608-1.572.608H115.4l-.252 1.2h2.568c2.1 0 3.016-.756 3.2-1.796.308-1.868-2.972-2.836-2.716-4.044.084-.372.5-.564 1.412-.564h1.788l.272-1.2h-2.268Zm-43.052 1.2h1.708c1.392 0 1.888 1.032 1.676 2.24-.296 1.712-1.388 2.952-3.288 2.952h-1.2l1.104-5.192Zm-55.68 3.496H5.812L2.5 42.082s10.152-4.968 11.4-5.6a74.632 74.632 0 0 1 9.308-4.14 46.223 46.223 0 0 1 4.8-1.304c.6-.108.852-.208.844-.32 0-.32-.624-.34-1.644-.292-3.112.148-9.076 2.52-10.8 3.428l-1.94-6h12.4c.4-1.168-3.916-1.336-6.208-1.356l.012-.016Zm6.564 1.46c-.092 0-.168.06-.272.2a.98.98 0 0 1-.4.332c-.6.188-1.22.3-1.848.332-.452.036-.572.084-.58.256-.008.172.068.244.712.244 1.484 0 4.152-.56 4.956-.304.424.136.084.892-.264 1.888-.136.4.128.356.284.188a6.53 6.53 0 0 0 .92-2.084c.108-.916-.68-1.052-1.764-1.052h-1.744Zm21.94 6.4c-2.356 0-4.32 1.228-4.896 3.936-.452 2.164.864 3.948 3.2 3.948 2.336 0 4.288-1.176 4.884-3.948.496-2.26-.864-3.936-3.188-3.936Zm67.2 0c-2.336 0-4.584 1.2-5.156 3.936-.572 2.736 1.144 3.948 3.484 3.948.63-.008 1.259-.064 1.88-.168l.4-1.308a8.178 8.178 0 0 1-2.04.268c-1.52 0-2.376-1.02-2-2.74.376-1.72 1.64-2.736 3.156-2.736a6 6 0 0 1 1.784.244l.148-1.284a9.744 9.744 0 0 0-1.668-.168l.012.008Zm-59.888.136c-1.976 0-2.956.7-3.104 1.796-.244 1.824 2.984 2.908 2.74 4-.148.636-.936.604-1.572.604h-2.068l-.256 1.2h2.568c2.104 0 3.016-.756 3.2-1.796.308-1.868-2.972-2.832-2.716-4.044.084-.372.5-.56 1.416-.56h1.788l.268-1.2h-2.264Zm3.108 0-.264 1.2H61.7l-1.36 6.4h1.676l1.36-6.4h2.368l.252-1.2h-6.4Zm24.5 0c-1.976 0-2.952.7-3.1 1.796-.244 1.824 2.98 2.908 2.74 4-.148.636-.936.604-1.572.604h-2.068l-.256 1.2h2.568c2.1 0 3.016-.756 3.2-1.796.308-1.868-2.968-2.832-2.72-4.044.088-.372.504-.56 1.416-.56h1.792l.264-1.2h-2.264Zm3.704 0-1.624 7.6h5.52l.252-1.2h-3.832l.436-2.08H91.9l.244-1.128H88.8l.424-1.98h3.832l.256-1.2-5.512-.012Zm6.724 0-1.6 7.6H94.6l1.36-6.4h1.504c.936 0 1.02.52.924.996-.18.904-.964 1.264-1.824 1.264a4.273 4.273 0 0 1-.64 0l1.384 4.172h1.836L97.9 38.826a2.456 2.456 0 0 0 2.176-2.4c.1-1.272-.496-1.94-1.98-1.94l-3.572-.008Zm24.876 0-1.62 7.6h5.52l.252-1.2h-3.828l.432-2.08h3.344l.244-1.128H120.4l.428-1.98h3.828l.256-1.2-5.512-.012Zm-80.88 0-1.6 7.6h1.676l1.36-6.4h1.368c.616 0 1.04.304.86 1.132a1.572 1.572 0 0 1-1.656 1.244c-.252 0-.528-.032-.74-.052l.084 1.104c.244 0 .532.06.8.06 1.508 0 2.832-.868 3.144-2.312.2-.956 0-2.4-1.636-2.4l-3.66.024Zm29.268 0-4.36 7.6H65.1l3.344-6.104.656 4.904h-2.4l-.66 1.2h4.924l-1.2-7.6h-1.976Zm5.684 0-1.6 7.6h5.148l.264-1.2h-3.468l1.356-6.4h-1.7Zm27.472 0 1.148 7.6h1.98l4.336-7.6h-1.66l-3.352 6.104-.8-6.104h-1.652Zm8.472 0-1.6 7.6h1.684l1.6-7.6h-1.684Zm-60.504 1.064c1.548 0 2.068 1.2 1.74 2.728-.364 1.72-1.38 2.74-2.9 2.74s-2.092-1.264-1.764-2.74c.4-1.72 1.404-2.728 2.924-2.728Z"/><path fill="#ED192D" d="m39.1 31.658-.116.564h86.4l.116-.564H39.1Z"/></svg>