<svg xmlns="http://www.w3.org/2000/svg" width="128" height="64" fill="none"><rect width="128" height="64" fill="#E3282B" rx="6"/><path fill="#fff" d="M22.933 54.829v-9.325h2.937c.694 0 1.312.09 1.854.271.542.18.97.48 1.283.898.314.419.47.989.47 1.711 0 .685-.156 1.25-.47 1.697-.314.447-.737.78-1.269.998-.532.219-1.136.328-1.81.328h-1.341v3.422h-1.654Zm1.654-4.748h1.212c1.369 0 2.053-.566 2.053-1.697 0-.59-.18-.993-.542-1.212-.351-.228-.874-.342-1.568-.342h-1.155v3.25ZM33.635 55c-.58 0-1.122-.143-1.626-.428a3.38 3.38 0 0 1-1.226-1.255c-.314-.55-.47-1.212-.47-1.981 0-.78.156-1.44.47-1.982.314-.552.723-.97 1.226-1.255a3.166 3.166 0 0 1 1.626-.442c.589 0 1.136.147 1.64.442.503.285.912.703 1.226 1.255.313.541.47 1.202.47 1.982 0 .77-.157 1.43-.47 1.981a3.38 3.38 0 0 1-1.227 1.255 3.272 3.272 0 0 1-1.64.428Zm0-1.34c.513 0 .917-.214 1.212-.642.294-.428.442-.989.442-1.682 0-.704-.148-1.27-.442-1.697-.295-.428-.7-.642-1.212-.642-.514 0-.918.214-1.212.642-.285.428-.428.993-.428 1.697 0 .694.143 1.254.428 1.682.294.428.698.642 1.212.642ZM41.517 55a3.491 3.491 0 0 1-1.725-.428 3.275 3.275 0 0 1-1.212-1.255c-.295-.55-.442-1.212-.442-1.981 0-.78.161-1.44.485-1.982.323-.552.75-.97 1.283-1.255a3.586 3.586 0 0 1 1.74-.442c.446 0 .836.076 1.168.228.333.152.628.338.884.556l-.798 1.07a2.18 2.18 0 0 0-.556-.371 1.351 1.351 0 0 0-.613-.143 1.73 1.73 0 0 0-1.383.642c-.352.428-.528.993-.528 1.697 0 .694.171 1.254.513 1.682.352.428.804.642 1.355.642.276 0 .532-.057.77-.171.247-.124.47-.267.67-.428l.67 1.083a3.307 3.307 0 0 1-1.084.642 3.54 3.54 0 0 1-1.197.214ZM44.624 54.829v-.884l3.308-4.82h-2.938v-1.297h4.99v.87l-3.293 4.819H50.1v1.312h-5.475ZM53.968 55c-.808 0-1.383-.233-1.725-.699-.333-.475-.5-1.088-.5-1.839v-3.336h-.997v-1.227l1.083-.07.2-1.911h1.368v1.91h1.783v1.298h-1.782v3.336c0 .817.327 1.226.983 1.226.124 0 .252-.014.385-.043.133-.038.247-.076.343-.114l.285 1.212a4.65 4.65 0 0 1-.656.171 3.296 3.296 0 0 1-.77.086ZM58.043 55c-.608 0-1.107-.19-1.497-.57-.38-.38-.57-.875-.57-1.483 0-.751.328-1.331.984-1.74.656-.418 1.701-.703 3.136-.855-.009-.37-.109-.69-.299-.955-.18-.276-.508-.414-.984-.414-.342 0-.68.067-1.012.2a6.948 6.948 0 0 0-.955.484l-.6-1.097c.39-.248.828-.462 1.313-.642a4.534 4.534 0 0 1 1.568-.271c.874 0 1.526.261 1.953.784.438.514.656 1.26.656 2.239v4.149h-1.354l-.114-.77h-.057c-.314.266-.652.49-1.013.67a2.49 2.49 0 0 1-1.155.27Zm.528-1.283c.285 0 .542-.067.77-.2a5.07 5.07 0 0 0 .755-.57v-1.569c-.95.124-1.61.31-1.981.556-.371.238-.556.533-.556.884 0 .314.095.542.285.685.19.142.432.214.727.214ZM66.695 54.829v-9.325h2.938c.693 0 1.311.09 1.853.271.542.18.97.48 1.283.898.314.419.47.989.47 1.711 0 .685-.156 1.25-.47 1.697-.314.447-.737.78-1.269.998-.532.219-1.136.328-1.81.328h-1.34v3.422h-1.655Zm1.654-4.748h1.212c1.369 0 2.053-.566 2.053-1.697 0-.59-.18-.993-.541-1.212-.352-.228-.875-.342-1.569-.342H68.35v3.25ZM77.397 55c-.58 0-1.122-.143-1.626-.428a3.38 3.38 0 0 1-1.226-1.255c-.313-.55-.47-1.212-.47-1.981 0-.78.157-1.44.47-1.982.314-.552.723-.97 1.227-1.255a3.166 3.166 0 0 1 1.625-.442c.59 0 1.136.147 1.64.442.503.285.912.703 1.226 1.255.313.541.47 1.202.47 1.982 0 .77-.157 1.43-.47 1.981a3.38 3.38 0 0 1-1.227 1.255 3.272 3.272 0 0 1-1.64.428Zm0-1.34c.513 0 .917-.214 1.212-.642.294-.428.442-.989.442-1.682 0-.704-.148-1.27-.442-1.697-.295-.428-.699-.642-1.212-.642s-.917.214-1.212.642c-.285.428-.428.993-.428 1.697 0 .694.143 1.254.428 1.682.295.428.699.642 1.212.642ZM83.953 55c-.58 0-.993-.176-1.24-.528-.238-.351-.357-.831-.357-1.44v-8.27h1.64v8.356c0 .2.038.342.114.428a.34.34 0 0 0 .242.114h.1c.038-.01.09-.02.157-.029l.214 1.226a2.57 2.57 0 0 1-.87.143ZM88.18 55c-.475 0-.95-.09-1.426-.271a4.752 4.752 0 0 1-1.226-.699l.77-1.055c.314.238.628.428.941.57.314.143.647.214.998.214.38 0 .66-.08.842-.242a.772.772 0 0 0 .27-.599c0-.2-.076-.361-.228-.485a1.85 1.85 0 0 0-.556-.342 12.468 12.468 0 0 0-.713-.3 7.73 7.73 0 0 1-.912-.413 2.375 2.375 0 0 1-.727-.641c-.19-.266-.285-.594-.285-.984 0-.618.228-1.122.684-1.511.456-.39 1.074-.585 1.853-.585.495 0 .937.086 1.326.257.39.17.728.366 1.013.584l-.756.998c-.247-.18-.499-.323-.756-.427a1.849 1.849 0 0 0-.784-.172c-.352 0-.613.077-.784.229a.675.675 0 0 0-.257.541c0 .276.143.485.428.628a8.6 8.6 0 0 0 .998.413c.323.114.637.257.941.428.304.162.556.375.756.642.209.266.313.617.313 1.055 0 .599-.232 1.112-.698 1.54-.466.418-1.14.627-2.025.627ZM92.367 54.829V44.763h1.611v6.287h.043l2.595-3.222h1.797l-2.396 2.852 2.638 4.149h-1.782l-1.797-3.037-1.097 1.255v1.782h-1.612ZM101.374 55c-.608 0-1.107-.19-1.497-.57-.38-.38-.57-.875-.57-1.483 0-.751.328-1.331.983-1.74.656-.418 1.702-.703 3.137-.855a1.674 1.674 0 0 0-.299-.955c-.181-.276-.509-.414-.984-.414-.342 0-.68.067-1.012.2a6.928 6.928 0 0 0-.956.484l-.599-1.097a7 7 0 0 1 1.312-.642 4.533 4.533 0 0 1 1.569-.271c.874 0 1.525.261 1.953.784.437.514.656 1.26.656 2.239v4.149h-1.355l-.114-.77h-.057c-.314.266-.651.49-1.012.67-.352.18-.737.27-1.155.27Zm.527-1.283c.286 0 .542-.067.77-.2.238-.143.49-.333.756-.57v-1.569c-.95.124-1.611.31-1.982.556-.37.238-.556.533-.556.884 0 .314.095.542.285.685.19.142.433.214.727.214ZM56.464 17.47c.624 1.12-.628 3.009-2.797 4.216-2.169 1.208-4.433 1.28-5.057.159-.624-1.12.628-3.008 2.797-4.216 2.169-1.208 4.433-1.28 5.057-.159Z"/><path fill="#FFE51F" d="M43.59 21.593c.259.162-.083.843 0 1.958.07.952.411 1.72.558 1.957 1.047 1.688 7.463 1.11 12.304-2.517.262-.195 6.483-4.943 5.034-8.109-.824-1.8-4.664-1.227-4.754-2.237-.041-.458 1.184-1.058 3.635-2.237 2.39-1.15 3.245-1.375 4.195-1.398 1.029-.025 2.07-.05 2.517.56.794 1.083-1.128 3.033-2.797 6.99-1.143 2.709-2.283 5.412-1.678 8.389.08.389.875 4.037 3.915 5.872 5.66 3.416 14.723-2.093 17.058-5.033 1.15-1.449 2.715-2.59 3.635-4.195.26-.453.791-1.45 1.398-1.398.478.04.781.71.84.839.332.737.395 2.439-3.636 6.99-3.401 3.842-5.102 5.762-8.11 7.271-1.028.517-6.997 3.4-13.701 1.678l-.037-.01a28.71 28.71 0 0 1-2.92-1.047c-1.616-.684-5.03-2.635-5.433-2.858-3.783-2.1-7.652-4.248-11.185-3.355-.42.106-2.099.574-4.195.28-1.553-.22-1.857-.65-1.957-.84-.408-.775.239-1.978.839-3.075.8-1.464 1.664-2.283 2.796-3.356 1.278-1.212 1.57-1.186 1.678-1.119Z"/><path fill="#FFE51F" d="M79.867 19.017c1.377 1.928.309 5.052-2.386 6.976-2.695 1.924-5.995 1.92-7.372-.007-1.377-1.928-.308-5.051 2.386-6.975 2.695-1.925 5.995-1.921 7.372.006Z"/></svg>