<svg xmlns="http://www.w3.org/2000/svg" width="128" height="64" fill="none"><rect width="128" height="64" fill="#fff" rx="6"/><path fill="#003A77" fill-rule="evenodd" d="M47.733 6.222h45.174v35.819H47.733V6.222Zm-12.867.582 1.54 1.56v1.092l-1.54-1.012v-1.64Zm3.564-.501h2.964c.236 0 .747.052.842-.303h.193v1.565c-.199.09-.411.147-.628.17a2.284 2.284 0 0 1 .775 1.844c0 .973-.539 1.734-1.565 1.734-1.026 0-1.607-.657-1.763-1.64l-.199-1.385c0-.34-.184-.539-.392-.539-.553 0-.662.501-.662 1.002s.133.79.766.946v1.446c-1.447-.156-1.924-1.106-1.924-2.524 0-1.012.345-2.316 1.593-2.316Zm1.371 1.446c.175.316.278.666.302 1.026.067.633.251 1.04.828 1.04a.605.605 0 0 0 .624-.586.685.685 0 0 0 0-.1 1.418 1.418 0 0 0-.473-1.181c-.407-.303-.752-.185-1.262-.199H39.8Zm.945 7.564h1.697v1.498h-7.355V15.29h4l-2.076-1.83v-1.852l2.103 2.023 3.31-2.066v1.777l-2.302 1.357.623.615Zm-2.075 2.775v1.474c-.596.156-.714.421-.714 1.055 0 .633.185.945.54.945.174 0 .33-.184.42-.596.09-.41.213-.84.302-1.3.2-.893.554-1.71 1.527-1.71 1.329 0 1.844 1.077 1.844 2.524 0 1.267-.407 2.737-1.844 2.737v-1.513c.473 0 .766-.435.766-1.29 0-.303-.042-.984-.553-.984-.184 0-.345.236-.435.629-.09.392-.212.907-.288 1.328-.236.87-.582 1.607-1.541 1.622-1.3 0-1.844-1.144-1.844-2.303 0-1.62.605-2.5 1.82-2.595v-.023Zm0 6.079h3.749v1.489h-3.31c-.58 0-1.105.156-1.105.998a1.163 1.163 0 0 0 1.11 1.205h3.281v1.47h-5.384v-1.418h.79v-.038a1.924 1.924 0 0 1-.946-1.725c0-1.116.662-2 1.825-2l-.01.019ZM40.855 32v-1.541c1.253.345 1.712 1.239 1.712 2.487 0 1.829-.946 2.836-2.974 2.836-1.645 0-2.766-.946-2.766-2.7 0-2.363 2.043-2.76 3.31-2.694v3.895c1.002 0 1.328-.553 1.319-1.319a.945.945 0 0 0-.591-1.002l-.01.038Zm-1.66 2.222V32c-.666.118-1.167.407-1.167 1.102 0 .694.402 1.006 1.177 1.096l-.01.024Zm-2.193 1.89 5.427 2.033v1.58l-5.417 2.027v-1.659l3.697-1.187-3.697-1.233v-1.608l-.01.048Zm2.71 5.924c1.852 0 2.835 1.234 2.835 2.945 0 1.711-1.04 2.907-2.836 2.907a2.719 2.719 0 0 1-2.883-2.907c0-1.711 1.025-2.978 2.893-2.978l-.01.033Zm0 1.55c-.762 0-1.684.303-1.684 1.419 0 1.115.908 1.356 1.683 1.356.776 0 1.674-.198 1.674-1.356 0-1.159-.903-1.452-1.664-1.452l-.01.034Zm-4.634 5.38h7.342v1.47h-7.332l-.01-1.47Zm5.134 8.982v-1.513c.946 0 1.182-.907 1.173-1.63 0-.634-.123-1.622-.946-1.622-.411 0-.766.293-.945 1.418a13.67 13.67 0 0 1-.553 2.118c-.275.841-1.012 1.12-1.787 1.12-1.645 0-2.265-1.46-2.265-2.921 0-2.17 1.239-2.96 2.364-3.011v1.55c-.908.066-1.135.761-1.135 1.579 0 .605.213 1.328.908 1.328.53 0 .671-.368.766-.813l.435-1.89c.312-1.343.76-2.038 1.985-2.038 1.669 0 2.364 1.418 2.364 3.04 0 1.621-.591 3.276-2.42 3.276l.056.009Zm46.143-2.434-.723 2.16H83.41l3.63-10.343h2.478l3.616 10.343h-2.33l-.643-2.16h-3.806Zm1.867-5.792-1.285 4.023h2.58l-1.247-4.013-.047-.01Zm-6.882-.605v8.51h-1.891v-8.51H76.28v-1.853h8.17v1.844l-3.111.01Zm-7.422-3.616h-1.721l-1.002 1.154-.988-1.159h-1.735l1.418 1.66c-1.55.302-2.879 1.22-2.879 3.077 0 1.352.605 2.142 1.593 2.51.994.34 2.014.601 3.05.78 1.805.355 1.999.775 1.999 1.314 0 .842-.775 1.305-2.302 1.305-1.527 0-2.326-.671-2.326-1.66h-2.198c0 2.658 2.364 3.424 4.67 3.424 1.83 0 4.354-.7 4.354-3.343 0-1.763-.827-2.307-2.907-2.794l-2.671-.605c-.648-.17-1.158-.326-1.158-1.092 0-.945 1.054-1.276 1.89-1.276 1.485 0 2.156.605 2.25 1.593h2.223a3.432 3.432 0 0 0-2.978-3.238l1.38-1.655.038.005ZM56.09 52.526c0-3.182 2.302-5.578 4.935-5.578 2.633 0 4.922 2.184 4.922 5.578S63.603 58 61.012 58c-2.59 0-4.935-2.288-4.935-5.474h.014Zm2.023 0c0 1.83.946 3.673 2.87 3.673 1.924 0 2.935-1.891 2.935-3.673s-1.011-3.782-2.935-3.782c-1.924 0-2.87 1.924-2.87 3.782Zm-8.509 1.418v3.701h-1.853v-10.4h4.42c1.948 0 3.064 1.343 3.064 3.366 0 2.024-1.315 3.276-3.144 3.276l-2.487.057Zm0-1.787h2.33a1.541 1.541 0 1 0 .171-3.077h-2.534v3.077" clip-rule="evenodd"/><path fill="#FDB813" fill-rule="evenodd" d="M70.31 17.818a4.7 4.7 0 1 1-4.679 4.727 4.727 4.727 0 0 1 4.68-4.727ZM49.696 8.25c.142 4.08 1.735 8.434 3.962 12.447 4.878 8.817 10.806 11.974 16.654 11.974a10.177 10.177 0 1 0-7.483-17.117 27.17 27.17 0 0 0 1.063 4.789 6.822 6.822 0 0 1 6.42-4.553 6.713 6.713 0 0 1 0 13.421c-7.918 0-10.079-11.435-10.102-20.96H49.695Zm12.84 4.841a12.243 12.243 0 0 1 7.776-2.836 12.395 12.395 0 0 1 11.643 8.428c.988-1.092 3.357-6.22 3.782-10.433H62.298a32.685 32.685 0 0 0 .237 4.855v-.014Zm28.425-4.84h-3.2c-.696 5.776-3.182 10.948-5.262 13.406v.841c0 2.103-.54 4.17-1.57 6.004 5.054-4.316 9.913-13.36 10.032-20.252Zm-.08 8.697c-2.265 6.221-5.933 11.29-10.4 14.395l10.4 6.212V16.948ZM49.775 17v20.564l10.367-6.207C55.708 28.266 52.02 23.197 49.776 17Zm28.68 15.6 12.423 7.394H49.776l12.418-7.403a16.815 16.815 0 0 0 8.117 2.118 17.279 17.279 0 0 0 8.145-2.104" clip-rule="evenodd"/></svg>