<svg xmlns="http://www.w3.org/2000/svg" width="128" height="64" fill="none"><rect width="128" height="64" fill="#fff" rx="6"/><path fill="#AFAFB0" d="M46.922 2.009c7.285 0 19.02 4.613 26.79 8.904 8.582 4.777 20.644 14.406 20.644 21.048 0 7.04-12.383 16.429-20.644 21.042-7.53 4.128-19.02 8.986-26.55 8.986a10.279 10.279 0 0 1-4.853-.97c-5.91-3.321-8.664-17.406-8.664-29.058a70.276 70.276 0 0 1 2.104-17.324c1.636-6.15 3.888-10.202 6.544-11.74a10.322 10.322 0 0 1 4.629-.888Z"/><path fill="url(#a)" d="M92.355 32.119c0-5.027-9.494-13.84-19.63-19.423C61.006 6.3 47.729 2.554 43.36 4.92c-4.94 2.754-7.715 16.517-7.715 27.199 0 10.77 2.59 24.368 7.693 27.199 4.695 2.59 17.4-1.216 29.298-7.853 10.388-5.583 19.718-14.013 19.718-19.346Z"/><path fill="#fff" d="m79.055 37.217-.081-5.098c0-1.134-.546-1.581-1.293-1.636a3.386 3.386 0 0 0-1.946.894v5.764a.076.076 0 0 1-.077.076H73.39s-.082 0-.082-.076v-8.097c0-.164.082-.24.245-.24h2.023s.082 0 .082.076v.856a4.647 4.647 0 0 1 1.134-.692 4.11 4.11 0 0 1 1.636-.322c1.865 0 2.836 1.052 2.836 3.075v5.42a.082.082 0 0 1-.082.082l-2.105-.082m4.21 0-.082-12.465c0-.076 0-.076.082-.076a7.632 7.632 0 0 1 1.783 1.21c.308.33.481.765.485 1.216v9.957a.081.081 0 0 1-.082.082h-2.18"/><path fill="#000963" d="M58.417 33.013c0 2.994-1.947 4.362-4.363 4.362-2.415 0-4.362-1.374-4.362-4.362s1.947-4.362 4.362-4.362c2.416 0 4.363 1.374 4.363 4.362Zm-2.432 0c0-1.636-.807-2.268-1.86-2.268-1.052 0-1.859.73-1.859 2.268 0 1.456.807 2.263 1.86 2.263 1.052 0 1.859-.725 1.859-2.263Zm13.844-6.467c0-.082 0-.082-.081-.082a6.42 6.42 0 0 0-1.783 1.216c-.31.328-.483.76-.486 1.21v5.454c0 2.35 1.38 3.075 2.836 3.075.365 0 1.848-.05 1.86-.545V35.27c0-.082 0-.082-.083-.082-.314.114-.64.196-.97.245-.725 0-1.21-.322-1.21-1.537v-3.07c0-.082 0-.082.081-.082h2.023c.076 0 .076 0 .076-.082v-1.636a.206.206 0 0 0-.169-.24H70c-.082 0-.082 0-.082-.081l-.088-2.16Zm-29.221 2.58a.257.257 0 0 1 .24-.246h3.157c3.157 0 4.777 1.865 4.777 4.291 0 2.427-1.778 4.128-4.777 4.128h-.97c-.082 0-.082 0-.082.082v3.97c0 .076 0 .076-.077.076a6.297 6.297 0 0 1-1.777-1.21A1.804 1.804 0 0 1 40.613 39l-.005-9.875Zm5.829 3.887c0-1.052-.649-2.028-2.432-2.028h-.97c-.082 0-.082 0-.082.082v3.887c0 .082 0 .082.081.082h.971c2.105 0 2.432-1.461 2.432-2.023Zm18.78-.327a10.09 10.09 0 0 0-2.269-.725c-.73-.164-1.298-.327-1.298-.73 0-.404.41-.65.976-.65a9.151 9.151 0 0 1 2.912.546c.082 0 .164 0 .164-.082v-1.636a.235.235 0 0 0-.164-.24 11.313 11.313 0 0 0-2.59-.485 4.362 4.362 0 0 0-2.672.725 2.312 2.312 0 0 0-.97 1.947c0 1.859 1.537 2.18 2.993 2.508.245.082.164.082.245.082.65.158 1.375.321 1.375.807 0 .15-.06.295-.164.403-.28.202-.628.29-.97.245a14.788 14.788 0 0 1-3.158-.545c-.076 0-.076.082-.076.082v1.636a.3.3 0 0 0 .158.24c.947.289 1.928.452 2.917.485 2.509 0 3.817-.97 3.817-2.726a2.453 2.453 0 0 0-1.21-1.865"/><path fill="#fff" d="M50.401 26.617c-.163 0-.322 0-.322-.245V25.4a.382.382 0 0 1 .36-.404h7.247a.38.38 0 0 1 .404.36v.933c0 .245-.082.327-.322.327H50.4Zm6.478-2.59h-.163v-.164c.245-.73 1.052-2.993 1.052-2.993a.289.289 0 0 0-.126-.387h-.038l-.403-.164h-.082c-.082 0-.158 0-.158.082-.164.403-.245.648-.41 1.052 0 .082-.08.082-.157.082h-.813c-.082 0-.082 0-.163-.082v-.163c.196-.664.44-1.313.73-1.942.082-.081.164-.327.486-.327h.163c.24.082.546.164.89.245.343.082.544.175.812.24a1.042 1.042 0 0 1 .643 1.462c-.082.322-.545 1.696-.889 2.508-.103.24-.147.545-.403.545l-.97.006Zm-3.32.082c-.164 0-.164-.164-.164-.246 0-.082-.082-4.291-.082-4.858a.262.262 0 0 1 .245-.24h1.135a.25.25 0 0 1 .24.24c0 .545-.077 4.776-.077 4.858 0 .082 0 .246-.163.246h-1.135Zm-3.321 0c-.273-.033-.306-.371-.404-.546-.322-.812-.725-2.104-.889-2.508-.163-.545-.163-1.216.65-1.461.24-.082.544-.159.806-.24.262-.082.649-.164.889-.246h.163a.546.546 0 0 1 .486.328c.295.626.539 1.275.73 1.94v.164a.267.267 0 0 1-.163.077h-.807c-.082 0-.164 0-.164-.077-.163-.409-.245-.73-.403-1.052a.312.312 0 0 0-.164-.082h-.054l-.404.158a.302.302 0 0 0-.194.272.3.3 0 0 0 .02.115s.812 2.263 1.052 2.994v.164h-1.15Zm3.816-6.162c-.081 0-.07 0-.163-.071a6.548 6.548 0 0 1-.889-.894s-.082-.082 0-.24c.284-.36.61-.687.97-.97h.164c.36.277.682.6.96.959a.148.148 0 0 1 .057.155.146.146 0 0 1-.024.052l-.033.033c-.26.343-.566.647-.91.905-.115.082-.088.07-.164.07h.032Z"/><defs><radialGradient id="a" cx="0" cy="0" r="1" gradientTransform="matrix(37.23383 -.84409 .80159 35.35902 51.644 23.501)" gradientUnits="userSpaceOnUse"><stop stop-color="#FFC429"/><stop offset="1" stop-color="#F26F23"/></radialGradient></defs></svg>