<svg xmlns="http://www.w3.org/2000/svg" width="128" height="64" fill="none"><rect width="128" height="64" fill="#fff" rx="6"/><path fill="#CA151D" fill-rule="evenodd" d="M55.587 14.14c.59.212 1.601.544 2.376.62 1.231.119 2.306-.088 2.914-.388l.05.462c-.45.451-1.332.84-2.38.994-.757.111-1.611-.006-2.173-.1-.564-.094-1.635-.343-3.212.008-1.576.35-3.146 1.463-3.805 2.035-.167.169-.41.39-.615.59.416.012.894.06 1.395.143.406.068 1.773.392 2.126.433 1.181.139 2.232-.008 2.815-.339l-.006.435c-.28.501-1.512.822-3.101.832-.473.054-2.242-.112-2.39-.112-.727 0-1.347.236-1.586.567-.985 1.143-.132 3.675 1.963 5.74l-6.911.255c-.31.024-1.8.028-2.006.017-2.802-.156-4.525-1.25-4.39-2.445.04-.338.208-.748.637-.92l7.166-2.823c1.191-1.744 3.345-3.95 6.498-5.695a23.113 23.113 0 0 1 3.957-1.752s1.11-.333 3.176-1.175c1.927-.786 3.157-2.471 3.424-2.793l.141.952c-.108.321-.826 2.112-2.557 3.193-1.757 1.098-3.403 1.249-3.506 1.266Z" clip-rule="evenodd"/><path fill="#CA151D" d="M47.136 33.459a147.661 147.661 0 0 0-5.095-.088C27.853 33.37 15.302 35.41 6 38.79c8.4-4.617 20.028-8.017 33.066-9.44a128.9 128.9 0 0 1 6.805-.533l1.265 4.64ZM84.863 37.925l.018-.04c5.507 1.384 10.75 3.1 15.605 5.062 8.614 3.48 16.011 7.74 21.514 12.324-8.393-5.037-20.152-9.392-33.88-12.106 0 0-1.437-.278-1.92-.368l-1.337-4.872Z"/><path fill="#CA151D" fill-rule="evenodd" d="M53.97 31.13a.385.385 0 0 0-.337-.255h-5.721l-.602-2.14h5.882c1.54 0 2.45.597 2.89 2.28.533 2.04 1.002 3.736 1.319 4.9h-2.149L53.97 31.13ZM71.145 30.875l-.574-2.14h7.965l.564 2.14h-.341a.338.338 0 0 0-.337.443l1.245 4.596h-2.16l-1.285-4.783a.386.386 0 0 0-.335-.255h-4.742ZM60.149 29.341l2.977 2.364c.239.185.496.059.539-.222l.423-2.748h2.349l-.781 4.754a.443.443 0 0 0 .129.323l2.672 2.102H65.45l-5.405-4.284c-.299-.232-.653.006-.551.37l1.054 3.914h-2.153l-1.522-5.67c-.214-.768-.026-1.33.495-1.618 1.008-.368 1.925.062 2.782.715ZM67.387 28.735h2.145l1.928 7.179h-2.151l-1.922-7.179ZM66.017 40.24a.386.386 0 0 0-.335-.254h-5.443l-.604-2.14h5.604c1.54 0 2.45.598 2.89 2.28.533 2.04 1.003 3.735 1.32 4.9h-2.15l-1.282-4.785ZM74.168 42.885a.336.336 0 0 0 .328-.442c-.5-1.907-.939-3.491-1.24-4.598h2.149l1.282 4.785a.386.386 0 0 0 .336.255h1.906a.338.338 0 0 0 .336-.442l-1.232-4.598h2.153l1.323 4.958c.325 1.2-.394 2.222-1.545 2.222l-7.254.002c-1.54 0-2.45-.6-2.89-2.281-.535-2.041-1.002-3.736-1.32-4.9h2.15l1.281 4.785a.384.384 0 0 0 .336.254h1.9ZM81.19 37.846h2.153l.954 3.573h-2.148l-.958-3.573ZM52.78 38.452l2.978 2.364c.239.185.497.06.539-.223l.423-2.747h2.349l-.78 4.754a.429.429 0 0 0 .128.324l2.67 2.102H58.08l-5.405-4.285c-.297-.231-.654.006-.551.37l1.056 3.915h-2.155l-1.52-5.671c-.217-.766-.028-1.331.494-1.618 1.005-.367 1.925.062 2.782.715ZM48.703 40.125c.28 1.066.333 1.267.36 1.349l.038.121.139.498.17.709c.324 1.2-.395 2.224-1.547 2.224h-2.516l-.582-2.14h2.063a.338.338 0 0 0 .337-.443l-.613-2.287c-.076-.096-.185-.17-.296-.17h-7.522l-1.047-3.873h2.165l.397 1.493c.039.14.196.24.328.24h5.21c1.567 0 2.478.598 2.916 2.28Z" clip-rule="evenodd"/></svg>