<svg xmlns="http://www.w3.org/2000/svg" viewBox="0 0 320 120"><defs><style>.a{fill:none;}.b{fill:#ffd541;}</style></defs><rect class="a" width="320" height="120"/><rect class="b" x="10" y="20" width="300" height="80" rx="9"/><path d="M40.74,51.36H54.89s.22,9.06-3.7,14.81c-3.1,4.54-7.4,8.4-13.72,8.4-8,0-12.63-5.75-12.63-11.5A11.34,11.34,0,0,1,36,51.58h.14c7.18,0,9.36,7.51,8.27,10.83,0-3.54-2.39-8.84-8.27-8.84-11.33,0-10.67,16.58-.11,16.58,5.77,0,9.69-5.31,9.69-10.39,0-5.53-5-8.4-5-8.4"/><path d="M20.05,52h2.4a45.81,45.81,0,0,0,.65,5.08A18.18,18.18,0,0,0,24.58,61a8.89,8.89,0,0,0-.15,3,12.69,12.69,0,0,0,1.07,4,23,23,0,0,1-4.36-8.18c-1.51-5-1.09-7.74-1.09-7.74"/><path d="M68.74,54.23a3.57,3.57,0,0,1,1.92.6,4.08,4.08,0,0,1,1.23,3.27,5,5,0,0,1-.84,2.9,4.42,4.42,0,0,1-2.13,1.63,4.13,4.13,0,0,0,1.11.09c4.59,0,7.48-2.31,7.48-5.95a5.15,5.15,0,0,0-2.05-4.29c-1.32-1-2.67-1.26-5.94-1.26H61.89a3,3,0,0,1,1,1.14c.3.57.33.93.33,2.85v12A7.25,7.25,0,0,1,63,69.87a3,3,0,0,1-1.08,1.39h8.2a5.14,5.14,0,0,1-1.35-4.06Z"/><path d="M89.52,53.9A4.57,4.57,0,0,1,93.4,56a11.49,11.49,0,0,1,1.71,6.22,7.84,7.84,0,0,1-.78,3.66,5,5,0,0,1-4.41,2.64A4.8,4.8,0,0,1,86.46,67a10.94,10.94,0,0,1-2.16-6.57,8.14,8.14,0,0,1,1.47-4.75,4.83,4.83,0,0,1,3.75-1.74m.42-3.06c-6.72,0-11.5,4.32-11.5,10.45s4.57,10.36,11,10.36c6.82,0,11.53-4.3,11.53-10.48S96.62,50.88,90,50.88"/><path d="M109.07,46.54l-4.35-2.19-2,1.2,6.3,4.08,6.4-4.08-2-1.2Zm-6.3,24a16.21,16.21,0,0,0,5.88,1.08A9.35,9.35,0,0,0,114.57,70a5.82,5.82,0,0,0,2.43-4.9,5.55,5.55,0,0,0-2-4.29c-1.08-1-1.65-1.36-4.36-2.53-2.43-1.11-2.91-1.5-2.91-2.52,0-1.2,1-2,2.67-2a8.28,8.28,0,0,1,4.3,1.44V51.71a14.53,14.53,0,0,0-5.14-.9c-4.56,0-7.53,2.34-7.53,5.91a5.76,5.76,0,0,0,1.74,4.12c.87.78,1.59,1.2,4.29,2.49s3.25,1.8,3.25,3c0,1.38-1.18,2.19-3.19,2.19a10.68,10.68,0,0,1-6.46-2.31Z"/><path d="M127.42,54.65a5.93,5.93,0,0,1,1.68-.18,2.36,2.36,0,0,1,2.44,1.35l1-4.74a27.84,27.84,0,0,1-5,.15H117.8l-1.17,4.68a5.46,5.46,0,0,1,3.73-1.29,6,6,0,0,1,1.47.12V67.26a7.17,7.17,0,0,1-.21,2.61,3.05,3.05,0,0,1-1.09,1.39h8.2a5.06,5.06,0,0,1-1.35-4.06Z"/><path d="M142.2,62.37H138l2-6Zm1,2.82.81,2.4c.42,1.23.42,1.23.42,1.68,0,.82-.24,1.17-1.23,2h9.19a8.06,8.06,0,0,1-2.49-4l-5.89-16h-7.45c.88.69,1.18,1.14,1.18,1.83,0,.42,0,.54-.58,2.1l-4.08,11.89a8.6,8.6,0,0,1-2.34,4.21H137l-.3-.3a2,2,0,0,1-.84-1.57,5.7,5.7,0,0,1,.45-1.86l.84-2.4Z"/><path d="M160.31,70.57a16.21,16.21,0,0,0,5.88,1.08,9.35,9.35,0,0,0,5.92-1.59,5.81,5.81,0,0,0,2.46-4.93,5.53,5.53,0,0,0-1.95-4.29c-1.08-1-1.65-1.36-4.36-2.53-2.43-1.11-2.91-1.5-2.91-2.52,0-1.2,1.05-2,2.67-2a8.28,8.28,0,0,1,4.3,1.44V51.71a14.53,14.53,0,0,0-5.14-.9c-4.56,0-7.54,2.34-7.54,5.91a5.81,5.81,0,0,0,1.75,4.12c.87.78,1.59,1.2,4.29,2.49s3.24,1.8,3.24,3c0,1.38-1.17,2.19-3.18,2.19a10.68,10.68,0,0,1-6.46-2.31Z"/><path d="M182.29,55.22a7.17,7.17,0,0,1,.21-2.61,2.94,2.94,0,0,1,1.08-1.38h-8.14a2.82,2.82,0,0,1,1,1.14c.3.57.33.93.33,2.85V67.29a7,7,0,0,1-.21,2.58,2.91,2.91,0,0,1-1.08,1.39h13.28l1.1-4.26a6.63,6.63,0,0,1-4.36,1.32,7.5,7.5,0,0,1-3.21-.51Z"/><path d="M200.82,53.9a4.62,4.62,0,0,1,3.87,2.1,11.49,11.49,0,0,1,1.71,6.22,7.84,7.84,0,0,1-.78,3.66,5,5,0,0,1-4.41,2.64A4.81,4.81,0,0,1,197.76,67a11,11,0,0,1-2.17-6.57,8.14,8.14,0,0,1,1.47-4.75,4.83,4.83,0,0,1,3.76-1.74m.42-3.06c-6.73,0-11.5,4.32-11.5,10.45s4.56,10.36,11,10.36c6.82,0,11.53-4.3,11.53-10.48s-4.35-10.33-11-10.33"/><path d="M222.92,66.12l-4-11.56a11.1,11.1,0,0,1-.81-3.09v-.24h-6.84a6.57,6.57,0,0,1,1.38,2.37l4.86,13.45c.87,2.49,2.26,3.54,6.52,4.84l7-20.66h-5.44c1,.78,1.32,1.26,1.32,2.1a4.46,4.46,0,0,1-.3,1.44Z"/><path d="M238.09,62.1h1.8a2.23,2.23,0,0,1,2.28,1.11V59a4.57,4.57,0,0,1-.9.15h-3.18V54.2H240c1.71,0,2.46.3,3.21,1.26V51.08a3.7,3.7,0,0,1-1.05.15H231.24a3,3,0,0,1,1,1.14c.3.57.33.93.33,2.82V67.26a7.4,7.4,0,0,1-.21,2.61,3,3,0,0,1-1.08,1.39h13.45l1.11-4.6c-1.11,1.2-2.31,1.65-4.47,1.65a8.3,8.3,0,0,1-3.24-.45Z"/><path d="M250.34,58.76l6.19,8.08c1.86,2.46,2.19,2.79,4,3.75a10.47,10.47,0,0,0,3.75,1.3V55.28c0-2,.33-3,1.35-4.05H259.8c1,1.05,1.35,2.07,1.35,4.05v8.26l-9.37-12.31h-6.31a7.51,7.51,0,0,1,1.42,2.22,5.42,5.42,0,0,1,.33,2.49V67.2c0,2-.33,3-1.36,4.06h5.83c-1-1.05-1.35-2.08-1.35-4.06Z"/><path d="M274.9,71.26a3,3,0,0,1-1-1.14c-.3-.61-.33-.91-.33-2.86v-12a7.17,7.17,0,0,1,.21-2.61,2.94,2.94,0,0,1,1.08-1.38h-8.14a3,3,0,0,1,1,1.14c.3.57.33.93.33,2.85v12a7.23,7.23,0,0,1-.21,2.62,2.94,2.94,0,0,1-1.08,1.38Z"/><path d="M283.06,55.22a7.18,7.18,0,0,1,.22-2.61,2.94,2.94,0,0,1,1.08-1.38h-8.14a2.82,2.82,0,0,1,1,1.14c.3.57.33.93.33,2.85v14c0,3.22-.12,4-.78,5.56a12.29,12.29,0,0,1-1.65,2.88,12.23,12.23,0,0,0,5.22-1.89c2.07-1.23,2.76-2.46,2.76-5Z"/><path d="M292.28,62.1h1.8a2.24,2.24,0,0,1,2.29,1.11V59a4.67,4.67,0,0,1-.91.15h-3.18V54.2h1.92c1.71,0,2.47.3,3.22,1.26V51.08a3.7,3.7,0,0,1-1.05.15H285.44a3,3,0,0,1,1,1.14c.29.57.32.93.32,2.82V67.26a7.4,7.4,0,0,1-.21,2.61,3,3,0,0,1-1.07,1.39h13.45l1.11-4.6c-1.11,1.2-2.31,1.65-4.47,1.65a8.16,8.16,0,0,1-3.25-.45Z"/></svg>