<svg xmlns="http://www.w3.org/2000/svg" width="128" height="64" fill="none"><rect width="128" height="64" fill="#EEDC00" rx="6"/><path fill="#0047BB" fill-rule="evenodd" d="M54.678 34.745c0 1.243.307 2.292 1.668 2.292 1.018 0 1.65-.458 1.783-1.375h3.373a3.484 3.484 0 0 1-1.833 2.681c-.926.531-1.982.79-3.048.748-3.855 0-5.385-1.65-5.385-5.418 0-3.043 2.291-4.767 5.174-4.767 3.91 0 5.156 2.242 5.156 5.821l-6.888.019Zm3.45-1.952c0-.514-.16-1.016-.457-1.434a1.375 1.375 0 0 0-1.265-.615c-1.265.055-1.572.958-1.669 2.049h3.374M9 38.815V24.997h6.366c3.392 0 5.615 1.09 5.615 4.44 0 3.351-2.223 4.442-5.615 4.442h-2.53v4.936H9Zm5.807-7.617c1.517-.055 2.15-.747 2.15-1.76s-.624-1.7-2.15-1.76h-1.97v3.52h1.97ZM32.306 34.012c0 3.538-2.59 5.092-5.6 5.092-3.012 0-5.597-1.553-5.597-5.092 0-3.538 2.59-5.092 5.597-5.092 3.006 0 5.6 1.554 5.6 5.092Zm-5.6 2.984c1.535 0 1.86-1.627 1.86-2.984 0-1.356-.325-2.984-1.86-2.984-1.536 0-1.834 1.628-1.834 2.984 0 1.357.326 2.984 1.834 2.984ZM38.65 32.174a1.173 1.173 0 0 0-.23-.802 1.264 1.264 0 0 0-.994-.344.789.789 0 0 0-.866.862c0 .706 1.476.67 3.758 1.375a2.48 2.48 0 0 1 1.939 2.64c0 2.548-2.397 3.208-4.583 3.208-2.36 0-4.662-.458-4.639-3.41H36.5a1.07 1.07 0 0 0 .252.862 1.169 1.169 0 0 0 .862.458c.71 0 1.228-.266 1.228-.88 0-1.7-5.692-.687-5.692-4.17 0-2.375 2.53-3.026 4.446-3.026 2.291 0 4.39.596 4.542 3.255h-3.451M44.654 29.209v-1.453l3.644-1.375v2.832h2.108v2.292h-2.108v3.809c0 .247-.156 1.49.687 1.49.468.008.937-.01 1.403-.056v2.164c-.645.123-1.3.188-1.957.192-2.475 0-3.97-.348-3.777-3.295v-4.304h-1.88v-2.292h1.88M63.152 29.113h1.834v9.625h-1.834v-9.625Zm-.174-4.226h2.177v1.98h-2.177v-1.98ZM67.91 29.112V27.06l1.833-.577v2.63l2.228-.06v1.376h-2.228v6.192c0 .687.536 1.013 1.192 1.013.324 0 .647-.038.962-.115v1.403c-.426 0-.83.114-1.251.114a6.957 6.957 0 0 1-1.233-.096 1.765 1.765 0 0 1-1.077-.632c-.325-.459-.422-.5-.422-1.783v-6.128l-1.654.023v-1.375l1.654.06M79.125 32.797c0-1.668-.096-2.649-2.04-2.649-.916 0-1.787.537-1.805 1.536h-1.92c.091-2.113 1.746-2.86 3.666-2.86s3.942.596 3.942 3.281v4.607c0 .426 0 1.233.078 2.035h-1.233c-.174 0-.5.096-.518-.133-.041-.459-.078-.862-.096-1.306h-.042a3.09 3.09 0 0 1-2.997 1.727c-1.673 0-3.364-.861-3.364-2.75 0-2.704 2.401-3.492 4.688-3.492l1.641.005Zm-1.833 1.27c-1.118.055-2.599.458-2.599 1.86 0 1.188.83 1.784 1.907 1.784 2.154 0 2.557-1.861 2.516-3.667h-1.833M82.792 24.887h1.833v13.86h-1.833v-13.86ZM86.88 29.113h1.834v9.625H86.88v-9.625Zm-.17-4.226h2.173v1.98h-2.172v-1.98ZM96.702 32.797c0-1.668-.096-2.649-2.04-2.649-.916 0-1.787.537-1.805 1.536h-1.925c.096-2.113 1.75-2.86 3.666-2.86s3.942.596 3.942 3.281v4.607c0 .426 0 1.233.078 2.035h-1.233c-.174 0-.5.096-.518-.133-.041-.459-.078-.862-.096-1.306h-.041a3.09 3.09 0 0 1-2.998 1.727c-1.673 0-3.364-.861-3.364-2.75 0-2.704 2.402-3.492 4.689-3.492l1.645.005Zm-1.833 1.27c-1.119.055-2.599.458-2.599 1.86 0 1.188.83 1.784 1.907 1.784 2.15 0 2.557-1.861 2.516-3.667H94.86M102.212 30.533h.036a3.356 3.356 0 0 1 2.924-1.71c.67 0 3.667.175 3.667 3.264v6.66h-1.833v-6.064c0-1.595-.674-2.457-2.209-2.457a2.5 2.5 0 0 0-1.77.71c-.27.267-.77.693-.77 2.572v5.239h-1.833v-9.625h1.792v1.42M112.194 34.287c-.138 1.687.554 3.433 2.42 3.433 1.425 0 2.136-.555 2.346-1.957h1.925c-.288 2.19-1.98 3.282-4.29 3.282-3.093 0-4.326-2.187-4.326-5.042 0-2.856 1.425-5.184 4.482-5.184 2.874.064 4.249 1.888 4.249 4.551v.917h-6.806Zm4.881-1.27c.041-1.613-.692-2.86-2.461-2.86-1.517 0-2.42 1.288-2.42 2.86h4.881Z" clip-rule="evenodd"/></svg>