<svg xmlns="http://www.w3.org/2000/svg" width="128" height="64" fill="none"><rect width="128" height="64" fill="#FC0" rx="6"/><path fill="#231F20" fill-rule="evenodd" d="M108.932 37.763c-8.491 0-11.804-7.421-11.352-13.016l2.505-.79a9.994 9.994 0 0 0 1.242 6.544 6.875 6.875 0 0 1 5.414-8.044c.476-.091.96-.133 1.444-.125 3.833 0 7.008 2.802 6.991 6.815.585-1.78.932-3.63 1.031-5.5L122 25.082c-.481 6.755-5.552 12.68-13.068 12.68Zm8.285 3.906-3.274-3.313h3.24l3.279 3.313h-3.245Zm-4.378 0-3.301-3.313h3.253l3.279 3.313h-3.231Zm-7.306 0h-3.244l3.275-3.313h3.248l-3.279 3.313Zm-7.623 0 3.279-3.313h3.244l-3.274 3.313H97.91Zm10.313-16.982a4.606 4.606 0 1 0 4.598 4.606 4.607 4.607 0 0 0-4.61-4.598M90.94 38.446c-1.46 0-2.268-.902-2.268-2.325v-3.648h-1.384v-1.366h1.384v-1.44l1.873-.597v2.037H92.2v1.366h-1.655v3.356c0 .61.16 1.178.86 1.178.297.01.593-.053.86-.185l.046 1.47a4.68 4.68 0 0 1-1.37.154Zm-7.305 0a8.45 8.45 0 0 1-2.122-.313l.111-1.526a4.103 4.103 0 0 0 1.831.468c.477 0 1.242-.176 1.242-.86 0-1.404-3.253-.429-3.253-3.037 0-1.556 1.354-2.239 2.823-2.239.686.008 1.369.1 2.033.27l-.12 1.415a4.568 4.568 0 0 0-1.66-.314c-.498 0-1.104.185-1.104.803 0 1.14 3.253.43 3.253 3.008 0 1.69-1.49 2.35-3.008 2.35l-.026-.025Zm-6.737 0c-2.377 0-3.76-1.658-3.76-3.73 0-2.376 1.658-3.816 3.76-3.816a3.623 3.623 0 0 1 3.768 3.816c0 2.072-1.38 3.73-3.768 3.73Zm-7.494-3.867h-.83v3.695h-1.95v-9.711h2.483c2.123 0 4.06.614 4.06 2.939s-1.654 3.077-3.75 3.077h-.013Zm-9.79 2.488A4.83 4.83 0 0 0 62 36.34v1.525a4.937 4.937 0 0 1-2.484.58c-2.368 0-3.751-1.37-3.751-3.73 0-2.07 1.104-3.798 3.338-3.798 2.665 0 3.438 1.83 3.438 4.348h-4.997c.086 1.156.89 1.81 2.05 1.81l.02-.01Zm-4.726 1.207h-1.865V34.45c0-.86 0-2.071-1.22-2.071-1.354 0-1.655 1.465-1.655 2.385v3.515H48.28V27.824h1.87v4.254a2.69 2.69 0 0 1 2.264-1.143c1.719 0 2.44 1.207 2.44 2.827l.035 4.512Zm-9.454.172c-2.359 0-3.545-1.611-3.545-3.794 0-2.071 1.246-3.73 3.48-3.73.614-.01 1.225.07 1.814.236l-.172 1.483a2.75 2.75 0 0 0-1.241-.267c-1.165 0-1.904.92-1.904 2.278s.632 2.337 1.942 2.337a3.79 3.79 0 0 0 1.44-.335l.051 1.543a5.949 5.949 0 0 1-1.865.245v.004Zm-7.275 0a8.444 8.444 0 0 1-2.1-.296l.107-1.526a4.135 4.135 0 0 0 1.847.469c.473 0 1.242-.177 1.242-.86 0-1.405-3.248-.43-3.248-3.038 0-1.555 1.353-2.239 2.819-2.239a8.6 8.6 0 0 1 2.036.271l-.124 1.414a4.502 4.502 0 0 0-1.68-.314c-.499 0-1.096.185-1.096.804 0 1.138 3.248.43 3.248 3.008 0 1.688-1.49 2.35-3.008 2.35l-.043-.043Zm-4.408 0c-1.466 0-2.278-.902-2.278-2.325v-3.648H30.09v-1.366h1.375v-1.44l1.873-.597v2.037h1.654v1.366h-1.654v3.356c0 .61.163 1.178.86 1.178.297.014.593-.05.859-.185l.06 1.47c-.446.116-.906.169-1.366.154Zm-4.5-.172h-1.787v-.954h-.03a3.008 3.008 0 0 1-2.355 1.126c-1.719 0-2.44-1.203-2.44-2.819V31.09h1.877v3.842c0 .881 0 2.067 1.212 2.067 1.35 0 1.659-1.465 1.659-2.385v-3.506h1.873l-.008 7.167ZM18.87 37.093a4.86 4.86 0 0 0 2.389-.727v1.526a4.954 4.954 0 0 1-2.48.554c-2.371 0-3.75-1.37-3.75-3.73 0-2.07 1.104-3.798 3.312-3.798 2.669 0 3.438 1.83 3.438 4.348H16.79c.082 1.156.894 1.81 2.071 1.81l.009.017ZM8.673 38.29H6v-9.728h2.664c3.008 0 5.62 1.001 5.62 4.873 0 3.871-2.633 4.855-5.62 4.855h.009Zm9.806-5.985c-1.049 0-1.577.73-1.659 1.688H20c-.056-.906-.473-1.688-1.521-1.688Zm-9.454-2.218h-1.07v6.67h1.083a3.188 3.188 0 0 0 3.214-3.159v-.159a3.178 3.178 0 0 0-3.214-3.352h-.013Zm60.22 0h-.684v2.97h.684c.984 0 1.86-.31 1.86-1.453s-.838-1.517-1.848-1.517h-.012Zm7.644 2.303c-1.216 0-1.805 1.058-1.805 2.15 0 1.18.383 2.483 1.805 2.483s1.814-1.29 1.814-2.484c.012-1.113-.572-2.148-1.801-2.148h-.013Zm-17.678-.085c-1.044 0-1.573.73-1.654 1.688h3.18c-.052-.906-.473-1.688-1.522-1.688" clip-rule="evenodd"/></svg>