<svg xmlns="http://www.w3.org/2000/svg" width="128" height="64" fill="none"><rect width="128" height="64" fill="#fff" rx="6"/><path fill="#EF3E33" d="M45.983 6H23.971s-2.78 0-2.78 2.837V64h27.496V8.837C48.764 8.758 48.764 6 45.983 6Z"/><path fill="#fff" d="M24.743 25.07h5.793l4.016 13.082L38.57 25.07h5.792v20.017H40.5V29.72l-4.556 15.367h-2.935L28.605 29.72v15.367h-3.862V25.07Z"/><path fill="#006330" d="M74.967 6H52.955s-2.703 0-2.703 2.837V64h27.496V8.837C77.67 8.758 77.67 6 74.968 6Z"/><path fill="#fff" d="M56.662 25.07H64c4.093 0 7.492 1.34 7.492 6.068 0 4.729-3.167 6.147-7.26 6.147h-3.167v7.802h-4.326l-.077-20.017Zm4.325 8.511h2.858c1.545 0 3.012-.551 3.012-2.443 0-2.049-2.085-2.364-3.707-2.364h-2.24c.077 0 .077 4.807.077 4.807Z"/><path fill="#2FB457" d="M104.086 6H82.073s-2.78 0-2.78 2.837V64h27.496V8.837c.077-.079.077-2.837-2.703-2.837Z"/><path fill="#fff" d="M87.248 25.07h4.325V40.99h8.033v4.098H87.248V25.07Z"/></svg>