<svg xmlns="http://www.w3.org/2000/svg" width="128" height="64" fill="none"><rect width="128" height="64" fill="#fff" rx="6"/><path fill="#006CA5" d="M59.49 9.186c3.48 0 8.763-.752 11.92-.752 3.801 0 7.28.516 10.695 3.114.129.086.215.065.086-.107-1.783-2.298-5.305-6.787-12.628-6.787-4.038 0-8.527 1.353-13.703 1.353-3.135 0-7.28-.58-10.459-1.997-.086-.043-.107.064-.043.107 4.06 3.136 7.84 5.069 14.132 5.069ZM81.117 17.175c.086-.021.129-.086 0-.129-1.976-.472-4.21-.58-6.658-.58-.816 0-1.546.022-3.436.022-5.412 0-11.232-.773-15.292-3.028-.107-.065-.171.043-.086.107 4.06 3.286 8.913 5.39 14.905 5.39 1.783-.02 6.164-.407 10.567-1.782Z"/><path fill="#006CA5" d="M91.748 15.521c-2.985 2.427-5.369 6.851-9.02 8.763-2.663 1.396-5.691 1.869-7.087 2.04-.172.022-.322-.064 0-.193 2.856-1.095 6.056-2.298 9.192-7.517 3.114-5.176 4.66-5.992 6.013-6.894-1.353-1.203-4.23-2.942-9.493-3.179-.107 0-.214-.15 0-.214.516-.172 1.934-.237 2.277-.237 4.704 0 9.192 1.031 12.328 4.017.709.665.537.837.086.988-.58.193-1.46.493-2.663 1.245 1.245.988 3.05 2.942 4.123 4.36.473.644.236 1.46.473 2.04.193.494 3.028 3.029 5.025 4.876a42.929 42.929 0 0 1 1.74 1.74c.601.622.73.686.73 1.073 0 .902-1.868 1.59-1.868 2.32 0 .622.687.945.687 1.417 0 .43-.322.988-.602 1.439.494.3.945.515.945 1.138 0 .601-.408.967-.408 1.59 0 1.352 1.117 2.19 1.117 3.436 0 1.245-.794 2.405-2.663 3.007-2.212.73-4.188.987-5.992 1.18-2.019.237-6.1-.02-10.416 4.704-2.792 3.05-6.078 7.066-9.085 8.913-1.911 1.181-3.93 2.126-7.946 2.427-.13 0-.15-.107-.022-.15 4.36-1.482 7.023-4.468 8.484-5.928 3.436-3.436 6.25-9.364 11.833-9.922.043 0 .043-.022 0-.043-2.577-.473-6.035-1.761-7.667-4.854-.064-.129.043-.15.107-.086 1.547 1.332 4.017 2.964 9.686 2.964 1.182 0 3.63-.215 6.186-.709 3.071-.601 5.047-1.374 5.047-2.577 0-.709-.516-2.341-.967-3.48-.622-1.524-1.116-2.662-1.116-4.445 0-1.482.214-1.804.214-2.47 0-1.568-1.782-4.682-4.467-6.035-2.147.322-4.489.022-5.24-.129-.236-.043-.237-.107-.065-.3 1.89-2.084 3.415-2.685 3.995-2.943-.73-1.589-1.546-2.985-2.448-4.166-.323.215-.666.494-1.053.794Z"/><path fill="#006CA5" d="M74.309 14.405c2.9 0 7.087.15 10.438 1.718.086.043.15-.043.107-.129-2.792-4.531-8.977-5.455-11.941-5.455-6.314 0-8.763.473-11.662.473-5.348 0-9.6-1.375-12.5-3.48-.064-.043-.128.043-.064.086 6.271 6.379 14.647 6.83 20.51 6.83 1.268 0 4.017-.043 5.112-.043ZM22.528 41.487V27.699h8.484v2.663h-5.22v3.844h5.09v2.663h-5.09v4.425h5.263v2.663h-6.057a2.457 2.457 0 0 1-2.47-2.47ZM53.304 30.362v13.616h-3.328V30.362h-4.253v-.988c0-.923.752-1.675 1.675-1.675H57.3v2.663h-3.995ZM43.082 41.916 39.538 31.5l-4.252 12.478h-2.77l5.626-16.107c.215-.086.795-.15 1.138-.15 1.117 0 2.427.171 3.243 2.448l4.897 13.81h-1.181c-1.052-.022-2.534-.237-3.157-2.063ZM65.804 40.026h-5.82l-1.332 3.93h-2.77l5.627-16.107c.215-.086.794-.15 1.138-.15 1.181 0 2.427.172 3.243 2.448l4.897 13.81h-1.203c-1.052 0-2.534-.236-3.136-2.062l-.644-1.869ZM60.821 37.6h4.145l-2.061-6.1-2.084 6.1ZM28.177 51.753h1.46c-.064-.408-.3-.644-.73-.644-.3 0-.644.193-.73.644Zm-.022.58c.086.58.516.816.881.816s.644-.107.86-.258l.278.623c-.386.215-.773.3-1.224.3-1.074 0-1.74-.708-1.74-1.675 0-.987.71-1.696 1.697-1.696 1.052 0 1.632.687 1.632 1.675 0 .064 0 .15-.021.215h-2.363ZM54.872 50.464c-.966 0-1.74.709-1.74 1.697 0 .988.774 1.675 1.74 1.675.967 0 1.74-.687 1.74-1.675 0-1.01-.795-1.697-1.74-1.697Zm0 2.556c-.472 0-.837-.387-.837-.88 0-.495.365-.881.837-.881.473 0 .838.386.838.88s-.365.881-.838.881ZM52.38 49.197c-.3-.236-.75-.343-1.223-.343h-1.482v4.875h1.01v-1.804h.45c.516 0 .967-.129 1.267-.365.322-.258.516-.645.516-1.203.021-.515-.194-.923-.537-1.16Zm-.75 1.718-.946.172V49.67h.28c.236 0 .45.021.622.129a.67.67 0 0 1 .3.558c0 .236-.107.451-.257.558ZM22.528 49.348c0-.28.215-.494.494-.494h.494v1.89h1.998v-1.396c0-.28.214-.494.494-.494h.494v4.875h-1.01v-2.17h-1.997v2.17h-.967v-4.381ZM31.677 48.36h.43v5.369h-.924v-4.854c0-.28.215-.515.494-.515ZM33.589 48.36h.43v5.369h-.945v-4.854c0-.28.236-.515.515-.515ZM40.59 50.464c-.386 0-.73.13-.966.516v-.408H38.7v3.178h.924v-1.632c0-.494.236-.86.687-.86.451 0 .602.323.602.774v1.697h.923v-1.912c-.021-.837-.43-1.353-1.246-1.353ZM45.38 52.14c0-.537.408-.967.923-.967.236 0 .494.022.816.215v-.773a2.176 2.176 0 0 0-.923-.172c-.988 0-1.783.687-1.783 1.697 0 .987.795 1.675 1.783 1.675.322 0 .687-.065.945-.172v-.773c-.258.172-.537.215-.816.215a.926.926 0 0 1-.946-.946ZM58.76 51.731c-.215-.064-.602-.107-.602-.386 0-.193.236-.28.408-.28.13 0 .258.022.387.065.086.043.3.086.408-.15l.15-.322c-.279-.194-.666-.28-.988-.28-.644 0-1.288.344-1.288 1.031 0 .559.408.773.752.86.365.107.708.171.708.472 0 .215-.236.322-.45.322-.173 0-.387-.022-.58-.15a.356.356 0 0 0-.495.129l-.193.322c.408.322.838.43 1.246.43.708 0 1.396-.366 1.396-1.139.043-.537-.365-.816-.86-.924ZM61.015 49.476h.43v1.074h.6v.773h-.6v2.406h-.924v-2.406h-.408v-.773h.408v-.58c-.022-.257.215-.494.494-.494ZM43.296 50.55h.43v3.179h-.924v-2.685c0-.279.215-.494.494-.494ZM35.672 51.753h1.482c-.064-.408-.3-.644-.73-.644-.322 0-.666.193-.752.644Zm-.021.58c.086.58.515.816.88.816s.645-.107.86-.258l.279.623c-.387.215-.774.3-1.246.3-1.074 0-1.74-.708-1.74-1.675 0-.987.71-1.696 1.697-1.696 1.052 0 1.632.687 1.632 1.675 0 .064 0 .15-.021.215H35.65ZM43.833 49.412c0 .28-.214.494-.472.494a.482.482 0 0 1-.473-.494c0-.258.215-.494.473-.494a.511.511 0 0 1 .472.494Z"/></svg>