<svg xmlns="http://www.w3.org/2000/svg" width="128" height="64" fill="none"><rect width="128" height="64" fill="#FFD200" rx="6"/><path fill="#020202" d="M47.212 28.599c0-3.46 1.095-6.747 3.134-9.458h-5.965a18.432 18.432 0 0 0-.196 7.516c.955 5.315 3.179 9.285 6.107 12.018.553.434.825.673.781.272a15.75 15.75 0 0 1-3.861-10.348Zm25.837-10.261a14.32 14.32 0 0 0-10.186-4.252 14.3 14.3 0 0 0-10.184 4.252 14.535 14.535 0 0 0-4.22 10.25c0 4.002 1.616 7.636 4.22 10.25a14.319 14.319 0 0 0 10.184 4.252 14.3 14.3 0 0 0 10.186-4.252 14.535 14.535 0 0 0 4.219-10.25c0-3.992-1.616-7.625-4.22-10.25Zm-20.392 2.744-.185.662s1.584 1.301 2.42 2.017c.823.705 1.637 1.519 1.637 1.519l.954-2.137-1.637-1.41-.564-.564s.108-.108.336-.401c.228-.293.369-.781.238-1.183-.097-.336-.596-.846-.77-1.02a12.503 12.503 0 0 1 7.778-2.7c3.145 0 6.009 1.16 8.221 3.07h-.13c-.206 0-.78 0-1.497.195-.716.195-1.236.64-1.703 1.225-.466.586-.694 1.703-.694 1.758 0 .054-.054 0-.054 0s-.065-.315-.239-.846c-.173-.532-.629-1.28-.89-1.682-.27-.412-.574-.716-.628-.89-.044-.173.13-.357.238-.574.109-.217.065-.26 0-.39-.076-.13-.618-.326-.922-.37-.303-.043-.716-.14-1.594-.14-.879 0-1.182.076-1.736.152-.553.075-1.583.293-1.898.607-.314.315-.303.607-.303.922 0 .304.184.89.347 1.052.162.163.466.141.466.141.499.033.814-.152 1.074-.336a.887.887 0 0 1 .412-.098c.163 0 .575 0 .575.608a.797.797 0 0 1-.77.835c-.282 0-.477-.065-.716-.109-.239-.043-.694-.152-.835-.152-.141 0-.315.185-.315.326 0 .14.033.401.12.564.097.163.412.293.878.293s.835-.054 1.106-.087c.272-.032.37.043.39.108.012.022-.01.12-.064.174-.076.087-.271.087-.835.087s-1.562.032-2.246.716c-.683.683-1.66 2.766-1.66 2.766-.097 0-1.225.195-2.082.195-.857 0-2.43-.13-2.43-.13s.022-.705-.205-1.313c-.206-.52-.89-.716-1.085-.759.401-.976.9-1.877 1.497-2.7Zm16.758 6.703c-.098.37-.39.749-.879 1.02-.488.26-1.269.239-1.811.152-.542-.098-1.323-.586-1.714-.976-.39-.39-.314-.467-.314-.467s.206-.043.477-.39c.271-.347.596-.597.76-.76.162-.162.411-.564.878-1.713.455-1.15.488-1.768.488-1.768s.314.293.542.607c.228.315.608.814.944 1.323.336.51.629 1.454.705 1.823.097.347.021.78-.076 1.15ZM56.247 36.8c-.108-.108-.336-.239-.803-.282-.466-.054-.933.152-1.225.325-.206.13-.37.413-.456.575a12.74 12.74 0 0 1-3.525-8.818c0-.477.032-.955.076-1.421l.14.878s2.094-.13 2.593-.13c.488 0 4.22-.065 4.697-.097.477-.022 1.323-.022 1.323-.022s.434.347.803.65c.38.305 1.226 1.15 1.226 1.15l.53.532.012.044s-.13-.066-.39-.098a4.588 4.588 0 0 0-1.14-.011c-.585.054-1.345.228-2.017.9-.673.673-.792 1.53-.792 2.094 0 .564.25 1.063.5 1.42.248.358.726.63.726.63s-.434.488-.77.835c-.337.336-.922 1.041-.922 1.041l-.282.282c0-.01-.185-.369-.304-.477Zm11.855.998c-.032.097-.423.152-.889.293-.466.14-.879.39-1.063.922-.184.531-.022 1.052.032 1.355.033.207.152.37.218.456-1.118.325-2.31.51-3.537.51-2.082 0-4.382-.575-6.074-1.54l.998.032s.347-.455.64-.813c.293-.358 1.573-1.844 1.822-2.137.25-.293.89-.965 1.042-1.128l.195-.195s0-.087-.087-.217-.26-.26-.434-.38c-.184-.12-.293-.217-.314-.336-.022-.12.195-.39.434-.738.25-.347.965-1.052 1.29-1.41.315-.358.543-.445.543-.445.032.12.065.326.293 1.052.227.716.64 1.161 1.117 1.638.477.478 1.29.684 2.082.738.781.054 1.53-.163 1.53-.163l.195 2.202c0-.032 0 .206-.033.304Zm3.688-.195c-.553.553-1.42 1.323-2.072 1.768l.575-.749s-.097-.087-.13-.564c-.032-.477.033-2.05.098-3.037.065-.976.13-2.983.13-2.983l-.022-.097s-.282 0-.748.032c-.466.033-1.193.033-1.486-.01-.293-.044-.575-.304-.575-.304-.325-.25-.477-.5-.477-.5s0-.032.39-.032 1.128-.184 1.768-.369c.64-.184 1.248-.564 1.812-1.063.564-.488.737-1.236.857-1.713.119-.467.13-.868.021-1.67-.108-.793-.542-1.715-.748-2.083-.206-.358-.879-1.194-1.215-1.378-.336-.184-.336-.206-.336-.206l2.494-2.712a12.76 12.76 0 0 1 3.363 8.645c0 3.536-1.41 6.714-3.699 9.025Zm10.554-22.55H71.183c2.961 1.974 5.738 5 6.757 9.338.326 1.367.564 2.766.564 4.209 0 4.089-1.55 7.82-4.1 10.619.065.097.152.162.26.076 3.124-2.061 7.192-6.508 8.548-11.704 1.225-4.75.466-9.078-.868-12.539ZM60.466 9.509a2.37 2.37 0 0 0-.727-.347c.163-.12.293-.271.38-.445a.938.938 0 0 0 .075-.575c-.075-.347-.249-.575-.52-.683a1.611 1.611 0 0 0-.879-.076c-.347.065-.629.238-.846.499-.227.26-.314.585-.25.976.044.217.142.401.283.542.14.152.303.26.488.358-.195.13-.336.282-.434.467-.108.195-.13.412-.087.661.033.196.12.358.239.488.12.13.26.239.412.315a1.69 1.69 0 0 0 1.03.13c.402-.076.738-.26.987-.542.25-.282.348-.64.272-1.085a1.234 1.234 0 0 0-.423-.683Zm-2.083-.738a.473.473 0 0 1-.184-.293.596.596 0 0 1 .021-.314.708.708 0 0 1 .141-.25.924.924 0 0 1 .51-.26.894.894 0 0 1 .608.141c.173.12.293.304.336.553a.683.683 0 0 1-.033.423.98.98 0 0 1-.27.347c-.099-.01-.218-.032-.359-.054a2.838 2.838 0 0 1-.412-.098 1.395 1.395 0 0 1-.358-.195Zm1.746 2.473a.9.9 0 0 1-.564.337 1 1 0 0 1-.78-.163.917.917 0 0 1-.456-.662.866.866 0 0 1 .065-.531c.076-.152.174-.282.315-.413.14.022.292.033.466.055.163.021.325.054.488.108a1 1 0 0 1 .412.217.72.72 0 0 1 .217.423.715.715 0 0 1-.163.63Zm11.064-2.126c-.39-.195-.76-.217-1.106-.076-.358.141-.64.413-.846.814a1.65 1.65 0 0 0-.185.987c.033.347.206.607.543.78.195.099.38.142.542.12.163-.032.336-.087.52-.184-.119.217-.26.445-.4.672a1.553 1.553 0 0 1-.565.532c-.25.14-.488.152-.716.032-.14-.065-.228-.184-.293-.325a.826.826 0 0 1-.032-.228c0-.076.01-.14.054-.217.065-.12.13-.228.206-.336l-.401-.098a.853.853 0 0 0-.12.196c-.13.26-.13.498 0 .726.12.228.293.402.532.52.586.294 1.117.272 1.573-.042.434-.304.792-.727 1.063-1.28.12-.239.228-.478.314-.727.076-.239.109-.477.109-.716 0-.477-.26-.857-.792-1.15Zm.174.868c-.022.12-.055.25-.098.369a4.94 4.94 0 0 1-.163.336 2.58 2.58 0 0 1-.195.325c-.076.12-.174.217-.271.304a.907.907 0 0 1-.336.174.569.569 0 0 1-.39-.054.384.384 0 0 1-.174-.228.674.674 0 0 1-.022-.293c.022-.109.054-.206.108-.315.044-.108.087-.206.13-.293l.044-.086a6.53 6.53 0 0 1 .195-.326c.065-.12.152-.238.25-.336a.965.965 0 0 1 .314-.217c.109-.043.217-.032.347.022.13.065.217.162.26.26a.99.99 0 0 1 0 .358Zm-7.81-2.191 2.278.325c-.586.5-1.03.987-1.356 1.486-.326.5-.564 1.128-.738 1.899l.944.14c.174-1.442.781-2.646 1.822-3.611l.076-.521-2.82-.423-.206.705ZM52.873 9.628c.022.26-.032.51-.141.727-.12.217-.282.412-.488.575l.184.336c.272-.195.467-.445.597-.76l1.724 3.081.716-.401-2.136-3.818-.456.26ZM22.564 55.03v-6.54h4.26v.98h-3.1v1.67h1.07c.467 0 .884.06 1.25.18.374.12.667.317.88.59.22.267.33.63.33 1.09 0 .473-.103.86-.31 1.16-.206.3-.493.52-.86.66-.36.14-.776.21-1.25.21h-2.27Zm1.16-.9h.97c.947 0 1.42-.37 1.42-1.11 0-.367-.123-.627-.37-.78-.24-.153-.596-.23-1.07-.23h-.95v2.12ZM29.64 55.03v-5.56h-2.01v-.98h3.17v2.53h.89c.466 0 .89.067 1.27.2.386.133.693.343.92.63.226.28.34.647.34 1.1 0 .493-.107.893-.32 1.2-.214.307-.507.53-.88.67-.367.14-.79.21-1.27.21h-2.11Zm1.16-.93h.85c.473 0 .83-.087 1.07-.26.24-.18.36-.47.36-.87 0-.68-.497-1.02-1.49-1.02h-.79v2.15ZM35.225 55.15c-.14 0-.263-.007-.37-.02a1.422 1.422 0 0 1-.29-.07l.22-1.05a.73.73 0 0 1 .13.03c.047.007.097.01.15.01a.522.522 0 0 0 .31-.1c.094-.073.187-.227.28-.46.1-.24.2-.603.3-1.09.134-.647.257-1.29.37-1.93.114-.647.23-1.307.35-1.98h3.55v6.54h-1.16v-5.56h-1.49c-.093.527-.186 1.04-.28 1.54-.086.5-.176 1.003-.27 1.51-.133.7-.28 1.24-.44 1.62-.16.38-.35.643-.57.79-.22.147-.483.22-.79.22ZM41.88 55.03v-6.54h3.95v.98h-2.79v5.56h-1.16ZM47.723 51.55l-.23.8h1.67l-.23-.8c-.107-.347-.21-.703-.31-1.07-.093-.367-.187-.73-.28-1.09h-.04c-.087.367-.18.733-.28 1.1-.094.36-.194.713-.3 1.06Zm-2.19 3.48 2.13-6.54h1.36l2.13 6.54h-1.22l-.51-1.77h-2.2l-.51 1.77h-1.18ZM51.959 55.03v-6.54h2.06c.487 0 .92.063 1.3.19s.68.337.9.63c.22.293.33.693.33 1.2 0 .48-.11.877-.33 1.19a1.98 1.98 0 0 1-.89.7c-.373.153-.797.23-1.27.23h-.94v2.4h-1.16Zm1.16-3.33h.85c.96 0 1.44-.397 1.44-1.19 0-.413-.127-.697-.38-.85-.247-.16-.613-.24-1.1-.24h-.81v2.28ZM60.39 55.15c-.547 0-1.044-.13-1.49-.39a2.811 2.811 0 0 1-1.07-1.14c-.26-.507-.39-1.12-.39-1.84 0-.713.133-1.323.4-1.83.273-.513.636-.903 1.09-1.17a2.85 2.85 0 0 1 1.5-.41c.413 0 .78.083 1.1.25.32.167.583.36.79.58l-.62.75a1.953 1.953 0 0 0-.56-.41c-.2-.107-.427-.16-.68-.16-.354 0-.67.097-.95.29-.274.187-.49.457-.65.81-.154.353-.23.777-.23 1.27 0 .747.163 1.333.49 1.76.326.42.763.63 1.31.63.293 0 .553-.06.78-.18.226-.127.433-.29.62-.49l.62.73a2.85 2.85 0 0 1-.92.71c-.34.16-.72.24-1.14.24ZM63.541 55.03v-6.54h1.16v2.66h.92l.89-1.58c.173-.313.34-.557.5-.73.16-.173.327-.293.5-.36a1.528 1.528 0 0 1 .83-.09c.087.007.16.027.22.06l-.19 1.05a.616.616 0 0 0-.15-.02.67.67 0 0 0-.11-.01.584.584 0 0 0-.38.13c-.107.087-.247.277-.42.57l-.78 1.39 2.19 3.47h-1.23l-1.87-2.94h-.92v2.94h-1.16ZM69.547 55.03v-6.54h1.15v2.84c0 .367-.017.747-.05 1.14-.034.393-.067.757-.1 1.09h.04l.68-1.39 2.05-3.68h1.23v6.54h-1.15v-2.86c0-.367.016-.74.05-1.12.04-.38.073-.743.1-1.09h-.04l-.67 1.38-2.06 3.69h-1.23ZM78.209 55.03v-6.54h4.88v6.54h-1.16v-5.56h-2.56v5.56h-1.16ZM87.292 55.15c-.567 0-1.067-.137-1.5-.41a2.855 2.855 0 0 1-1.02-1.18c-.24-.513-.36-1.123-.36-1.83 0-.707.12-1.31.36-1.81.247-.5.587-.883 1.02-1.15.433-.267.933-.4 1.5-.4.573 0 1.077.133 1.51.4.433.267.77.65 1.01 1.15.247.5.37 1.103.37 1.81 0 .707-.123 1.317-.37 1.83-.24.507-.577.9-1.01 1.18-.433.273-.937.41-1.51.41Zm0-1.01c.513 0 .923-.217 1.23-.65.307-.44.46-1.027.46-1.76 0-.733-.153-1.307-.46-1.72a1.448 1.448 0 0 0-1.23-.63c-.513 0-.923.21-1.23.63-.307.413-.46.987-.46 1.72s.153 1.32.46 1.76c.307.433.717.65 1.23.65ZM91.49 55.03v-6.54h1.14v5.56h1.91v-5.56h1.12v5.56h1.91v-5.56h1.14v5.56h.76v.72l-.11 2.14h-1.02v-1.88h-6.85ZM100.436 55.03v-6.54h1.15v2.84c0 .367-.017.747-.05 1.14-.034.393-.067.757-.1 1.09h.04l.68-1.39 2.05-3.68h1.23v6.54h-1.15v-2.86c0-.367.016-.74.05-1.12.04-.38.073-.743.1-1.09h-.04l-.67 1.38-2.06 3.69h-1.23Z"/></svg>