<svg xmlns="http://www.w3.org/2000/svg" viewBox="0 0 320 120"><defs><style>.a{fill:none;}.b{fill:#fd0;}.c{fill:#231f20;}</style></defs><rect class="a" width="320" height="120"/><rect class="b" x="70" y="5" width="180" height="110" rx="9"/><path class="c" d="M121.49,26.6H95.85a4.88,4.88,0,0,0-4.18,1.75,4.88,4.88,0,0,0-.65,4c.64,2.24,11.72,20.94,14,24.65l.07.09,3.7,6.22-.22-6.1h0c-.53-10.3,5.44-22,13.94-27.5l5.36-3.14ZM105.64,52.05C100.73,43.72,94.46,32.89,94,31.52a1.79,1.79,0,0,1,.17-1.3c.32-.43,1.19-.5,1.67-.5h21.48A36.75,36.75,0,0,0,105.64,52.05Z"/><path class="c" d="M228.84,29.11a4,4,0,0,0-3.69-2.33h-36c-.22.32-22.6,31.67-24.41,34.09l-1.61,2.22c-3.73,5.21-7.25,10.13-14.5,10.13a13.2,13.2,0,1,1,12.13-18.69l.09.15.76,1.34,1.65-2.4h0L173,39.31l1.81-2.62C168.84,31,158.15,25,148.6,25a35,35,0,0,0,0,70c20.73,0,37-14.35,47.47-25.13,8.21-8.48,31.37-35.15,31.6-35.42h0C229.7,31.9,229.18,29.89,228.84,29.11Zm-3.94,3.76c-3.1,3.57-23.51,27-31.07,34.82-16.21,16.73-30.16,24.18-45.24,24.18a31.88,31.88,0,0,1,0-63.75c7.74,0,16.38,4.42,22.1,9.08l-8.94,13a16.38,16.38,0,0,0-29.5,10v.08a16.57,16.57,0,0,0,16.36,16.07c8.85,0,13.2-6.07,17-11.43l1.58-2.17c1.64-2.19,19.22-26.81,23.53-32.84H225a.93.93,0,0,1,.92.46c.18.41,0,1.33-1.09,2.5Z"/></svg>