<svg xmlns="http://www.w3.org/2000/svg" viewBox="0 0 320 120"><defs><style>.a{fill:none;}.b{fill:#ffcd33;fill-rule:evenodd;}.c{fill:#1f357a;}</style></defs><rect class="a" width="320" height="120"/><path class="b" d="M6.44,41.79A1.44,1.44,0,0,0,5,43.22,40.1,40.1,0,0,0,42.46,81.73c.9.06,1.8,0,2.71,0a41.51,41.51,0,0,0,8.67-1.11A19.56,19.56,0,0,0,69.22,61.45a13.79,13.79,0,0,0-.09-1.93,19.76,19.76,0,0,0-38.65-3.43A19.77,19.77,0,0,0,41.6,68.76a10.81,10.81,0,1,1,7.88,3.41A21.54,21.54,0,0,1,29.83,59.52a21,21,0,0,1-1.21-3.44,21.38,21.38,0,0,1,.62-12.69l.12-.32v-.21a1.07,1.07,0,0,0-1.07-1.07H6.44"/><path class="b" d="M79,42.87a29.71,29.71,0,0,1,1,7.85,30.27,30.27,0,0,1-10.56,23,36.13,36.13,0,0,1-5.7,3.86A21.45,21.45,0,0,0,71,61.45a21.14,21.14,0,0,0-.68-5.37A21.06,21.06,0,0,0,71,50.72a21.41,21.41,0,0,0-1.36-7.51,1,1,0,0,1-.06-.35,1.09,1.09,0,0,1,1.08-1.07h6.89A1.47,1.47,0,0,1,79,42.87"/><path class="c" d="M91.68,63.4c0,9.31,5.49,14.55,14.09,14.55a15.58,15.58,0,0,0,9.51-2.79V70h-2.79a8.23,8.23,0,0,1-6.23,2.5c-4.3,0-6.55-2.79-6.55-9.34,0-6.06,2.58-9,6.92-9A7.73,7.73,0,0,1,112,56h3V50.58a16,16,0,0,0-8.6-2c-8.85,0-14.75,5.48-14.75,14.86m19.87-20-3.77,4.1h-5l-3.6-4.1V41.81h4l2.29,1.56,2.26-1.56h3.81v1.56"/><path class="c" d="M124,68.4c.32,3.65,2,4.6,5,4.6a9.26,9.26,0,0,0,5.49-1.6h2.29v4.39a16.86,16.86,0,0,1-8.93,2.12c-7.49,0-11.38-4.17-11.38-11s4.5-11.27,11-11.27c6.71,0,10.15,3.57,10.15,10.86,0,.86-.08,1.64-.08,1.88Zm0-3.85h6.72c-.12-3.32-1.23-4.38-3.19-4.38-1.68,0-3.12.86-3.53,4.38"/><path class="c" d="M139.54,76.14V71.31H142a7.72,7.72,0,0,0,5,1.6c2,0,3.19-.45,3.19-1.56s-.73-1.52-3.72-1.92c-4.59-.58-7.17-2.17-7.17-6.68,0-4.71,3.69-7,9.09-7a16.1,16.1,0,0,1,7.3,1.43v4.75h-2.34a8.48,8.48,0,0,0-4.75-1.31c-2,0-2.83.53-2.83,1.55s.94,1.36,3.69,1.68c5,.62,7.45,2.13,7.45,6.73s-3,7.32-9.62,7.32a15.84,15.84,0,0,1-7.79-1.72"/><path class="c" d="M166.31,64,173,56h6.15v1.77l-5.94,6.75L180,75.82v1.76h-6.92l-5-8.4-1.76,1.93v6.47h-7.38V48.9h4.67c2.26,0,2.71.58,2.71,3.85V64"/><path class="c" d="M193.54,75.53c-1.51,1.68-3.52,2.33-6.18,2.33-3.81,0-6.84-2.16-6.84-6.43,0-4.54,3.48-6.71,8.48-6.71a19.75,19.75,0,0,1,4.13.41V63.65c0-1.88-1-2.74-3.64-2.74a9.27,9.27,0,0,0-5.12,1.43h-2.21v-5a22,22,0,0,1,8.77-1.72c6.42,0,9.58,2.13,9.58,7.46v14.5h-4c-1.72,0-2.54-.62-3-2m-.41-7a13.93,13.93,0,0,0-2.41-.21c-2,0-3.2.78-3.2,2.58a2.44,2.44,0,0,0,2.75,2.62,4.55,4.55,0,0,0,2.86-1.18Zm-4.38-14V53.25l1.35-4.47h7.09v1.76L193,54.6h-4.3"/><path class="c" d="M220.6,75.86v8.35h-7.37V56h5.12c1.11,0,1.76.41,2.05,2.33a9.3,9.3,0,0,1,6.6-2.67c4.1,0,8.16,2.66,8.16,10.53,0,8.24-4.51,11.18-9.3,11.18a8.32,8.32,0,0,1-5.29-1.51m0-14v9.91a5,5,0,0,0,3,.86c2.26,0,4.14-1,4.14-5.77s-1.8-5.69-4-5.69a9.06,9.06,0,0,0-3.12.69"/><path class="c" d="M236.82,66.89c0-6.92,5-11.23,11.51-11.23S259.8,60,259.8,66.89s-5,11-11.47,11-11.51-4.13-11.51-11m15.53.08c0-4.3-1.64-6.27-4-6.27s-4.06,2-4.06,6.27,1.64,6.1,4.06,6.1,4-1.84,4-6.1"/><path class="c" d="M261.35,76.14V71.31h2.5a7.72,7.72,0,0,0,5,1.6c2,0,3.19-.45,3.19-1.56s-.73-1.52-3.73-1.92c-4.59-.58-7.16-2.17-7.16-6.68,0-4.71,3.68-7,9.09-7a15.78,15.78,0,0,1,7.29,1.43v4.75h-2.34a8.48,8.48,0,0,0-4.75-1.31c-2.05,0-2.82.53-2.82,1.55s.93,1.36,3.69,1.68c5,.62,7.45,2.13,7.45,6.73s-3,7.32-9.63,7.32a15.78,15.78,0,0,1-7.78-1.72m14.91-25.8-3.77,4.26h-5l-3.6-4.26v-1.6h4l2.29,1.72,2.25-1.72h3.81v1.56"/><path class="c" d="M279.73,56h2.34V50.5h7.37V56h4v4.76h-4v9.82c0,1.93.74,2.55,2.67,2.55h1.43v4.25a14.67,14.67,0,0,1-4.22.58c-4.42,0-7.25-1.56-7.25-6.27V60.75h-2.34V56"/><path class="c" d="M308,75.53c-1.52,1.68-3.53,2.33-6.19,2.33-3.8,0-6.84-2.16-6.84-6.43,0-4.54,3.48-6.71,8.48-6.71a19.84,19.84,0,0,1,4.14.41V63.65c0-1.88-1-2.74-3.65-2.74a9.27,9.27,0,0,0-5.12,1.43h-2.21v-5a22,22,0,0,1,8.77-1.72c6.43,0,9.58,2.13,9.58,7.46v14.5h-4c-1.72,0-2.55-.62-2.95-2m-.41-3.15V68.57a14,14,0,0,0-2.42-.21c-2,0-3.19.78-3.19,2.58a2.42,2.42,0,0,0,2.19,2.63,2,2,0,0,0,.55,0,4.5,4.5,0,0,0,2.87-1.18"/></svg>