<svg xmlns="http://www.w3.org/2000/svg" viewBox="0 0 320 120"><defs><style>.a{fill:none;}.b{fill:#ff8000;}</style></defs><rect class="a" width="320" height="120"/><path class="b" d="M132.58,60c.74-6.63,5.6-11.35,12.38-11.35A12.08,12.08,0,0,1,157.35,60h10.76A23.12,23.12,0,0,0,122,60Zm-24.91,2.65A12.31,12.31,0,0,1,95,74.91,12.08,12.08,0,0,1,82.46,62.67H71.55v42.17H82.31V80.22h.15c3,2.94,7.07,5,13,5,12.68,0,22.56-9.58,22.85-22.56ZM82.46,60A12.1,12.1,0,0,1,95,48.67,12.45,12.45,0,0,1,107.67,60h10.76c-.74-12.38-10-21.67-22.41-21.67-5.9,0-10.61,2.21-13.42,5.16h-.29V39.23H71.55V60ZM232.09,84.34h10.76V62.67H232.09Zm-23.44,0h10.76V62.67H208.65ZM196.12,62.67H175.18a50.49,50.49,0,0,0,8,4.13c4.42,1.62,6,2.65,6,4.72s-2.36,3.24-5.31,3.24a12.17,12.17,0,0,1-8.55-3.54l-7.07,7.08c4.12,4.13,8.4,6.93,15.77,6.93,7.81,0,15.92-5.6,15.92-14A11.42,11.42,0,0,0,196.12,62.67Zm-38.63,0c-.29,7.23-5.3,12.24-12.53,12.24-7.07,0-12.23-5.16-12.53-12.24H121.67a23.15,23.15,0,0,0,46.29,0Zm85.36-23.44H232.09V60h10.76ZM208.65,60h10.76V48.67h9.88V39.23h-9.88V23.16H208.65V39.23h-8.11v9.44h8.11Zm-15.48,0a31,31,0,0,0-6.78-3.1c-4.13-1.47-6-2.5-6-4.86,0-1.92,1.92-3.24,4.43-3.24a11,11,0,0,1,7.52,3.09l6.92-7.52c-4.12-3.83-8.4-5.89-14.44-5.89-6.19,0-14.6,4.86-14.6,14A11.32,11.32,0,0,0,172.83,60Z"/><path class="b" d="M241.23,25.67c-.74,0-2.36,1.33-2.36,6.49,1.62-1.33,3.24-4,3.24-5.46C242,26,241.82,25.67,241.23,25.67Zm-6.93,3.39c-.59,0-.88.44-.88,1,0,1.48,1.47,2.36,3.09,2.66V32.3C236.51,30.54,235.63,29.06,234.3,29.06Zm-3.83,4c1.32,1,2.36,2.07,3.54,2.07a2.23,2.23,0,0,0,1.17-.3,5.23,5.23,0,0,1-4-4.72A2.94,2.94,0,0,1,234.3,27a4.43,4.43,0,0,1,2.8,1.18c.74-2.95,2.51-4.57,4.42-4.57s2.66,1.32,2.66,3.24c0,2.36-2.21,6.19-4.87,7.67a1.64,1.64,0,0,0,1.48.73c2.36,0,4.42-2.06,5.75-3.68a1.24,1.24,0,0,1,.88-.44,1,1,0,0,1,1,1,1.09,1.09,0,0,1-.29.73c-1.33,1.48-4,4.43-7.37,4.43a3.91,3.91,0,0,1-3.25-1.62A4.47,4.47,0,0,1,234,37.32c-1.48,0-2.95-1-4.28-2.07-.59-.44-1.33-1-1.77-1.32a1.79,1.79,0,0,0-1-.59,1.08,1.08,0,0,1-1.18-1.18,1,1,0,0,1,1.18-1,4.24,4.24,0,0,1,1.77.58A7.07,7.07,0,0,1,230.47,33Z"/></svg>