<svg width="128" height="64" viewBox="0 0 128 64" fill="none" xmlns="http://www.w3.org/2000/svg">
<rect width="128" height="64" rx="6" fill="#FFD200"/>
<path d="M47.2118 28.5989C47.2118 25.1388 48.3073 21.8523 50.3464 19.1406H44.3808C43.8493 21.4075 43.6974 23.924 44.1855 26.6573C45.14 31.9722 47.3636 35.942 50.2922 38.6754C50.8454 39.1093 51.1165 39.3479 51.0732 38.9466C48.6652 36.1698 47.2118 32.547 47.2118 28.5989ZM73.0485 18.3379C70.4453 15.7131 66.8333 14.0861 62.8635 14.0861C58.8827 14.0861 55.2817 15.7131 52.6785 18.3379C50.0753 20.9628 48.4591 24.5965 48.4591 28.588C48.4591 32.5904 50.0753 36.2241 52.6785 38.8381C55.2817 41.463 58.8936 43.09 62.8635 43.09C66.8442 43.09 70.4453 41.463 73.0485 38.8381C75.6516 36.2132 77.2678 32.5796 77.2678 28.588C77.2678 24.5965 75.6516 20.9628 73.0485 18.3379ZM52.6568 21.0821L52.4724 21.7438C52.4724 21.7438 54.056 23.0454 54.8912 23.7613C55.7155 24.4663 56.529 25.2798 56.529 25.2798L57.4835 23.143L55.8457 21.7329L55.2817 21.1689C55.2817 21.1689 55.3901 21.0605 55.6179 20.7676C55.8457 20.4747 55.9867 19.9866 55.8565 19.5853C55.7589 19.2491 55.26 18.7393 55.0864 18.5657C57.234 16.8736 59.924 15.8649 62.8635 15.8649C66.009 15.8649 68.8725 17.0255 71.0852 18.9345H70.955C70.749 18.9345 70.1741 18.9345 69.4582 19.1297C68.7423 19.325 68.2217 19.7697 67.7553 20.3554C67.2889 20.9411 67.0611 22.0583 67.0611 22.1126C67.0611 22.1668 67.0069 22.1126 67.0069 22.1126C67.0069 22.1126 66.9418 21.798 66.7682 21.2665C66.5947 20.7351 66.1391 19.9866 65.8788 19.5853C65.6077 19.1731 65.3039 18.8694 65.2497 18.6959C65.2063 18.5223 65.3799 18.3379 65.4883 18.121C65.5968 17.9041 65.5534 17.8607 65.4883 17.7305C65.4124 17.6004 64.8701 17.4051 64.5664 17.3617C64.2627 17.3184 63.8505 17.2207 62.9719 17.2207C62.0933 17.2207 61.7896 17.2967 61.2365 17.3726C60.6833 17.4485 59.6529 17.6655 59.3383 17.98C59.0237 18.2946 59.0346 18.5874 59.0346 18.902C59.0346 19.2057 59.219 19.7914 59.3817 19.9541C59.5444 20.1168 59.8481 20.0951 59.8481 20.0951C60.347 20.1276 60.6616 19.9432 60.9219 19.7589C61.0195 19.7046 61.1714 19.6612 61.3341 19.6612C61.4968 19.6612 61.909 19.6612 61.909 20.2686C61.909 20.8761 61.4209 21.1038 61.1388 21.1038C60.8568 21.1038 60.6616 21.0388 60.423 20.9954C60.1843 20.952 59.7288 20.8435 59.5878 20.8435C59.4468 20.8435 59.2732 21.0279 59.2732 21.1689C59.2732 21.3099 59.3058 21.5702 59.3925 21.7329C59.4902 21.8956 59.8047 22.0258 60.2711 22.0258C60.7375 22.0258 61.1063 21.9716 61.3775 21.939C61.6486 21.9065 61.7463 21.9824 61.7679 22.0475C61.7788 22.0692 61.7571 22.1668 61.7029 22.221C61.6269 22.3078 61.4317 22.3078 60.8677 22.3078C60.3036 22.3078 59.3058 22.3404 58.6224 23.0237C57.9391 23.707 56.9629 25.7896 56.9629 25.7896C56.8653 25.7896 55.7372 25.9848 54.8803 25.9848C54.0234 25.9848 52.4507 25.8547 52.4507 25.8547C52.4507 25.8547 52.4724 25.1496 52.2446 24.5422C52.0385 24.0216 51.3552 23.8263 51.1599 23.783C51.5613 22.8068 52.0602 21.9065 52.6568 21.0821ZM69.4148 27.7854C69.3172 28.1542 69.0243 28.5338 68.5362 28.805C68.0482 29.0653 67.2672 29.0436 66.7249 28.9568C66.1825 28.8592 65.4016 28.3711 65.0111 27.9806C64.6206 27.5901 64.6965 27.5142 64.6965 27.5142C64.6965 27.5142 64.9026 27.4708 65.1738 27.1237C65.445 26.7766 65.7704 26.5272 65.9331 26.3645C66.0958 26.2018 66.3452 25.8004 66.8116 24.6507C67.2672 23.5009 67.2997 22.8827 67.2997 22.8827C67.2997 22.8827 67.6143 23.1755 67.8421 23.4901C68.0698 23.8047 68.4495 24.3036 68.7857 24.8134C69.122 25.3232 69.4148 26.2668 69.4908 26.6356C69.5884 26.9827 69.5124 27.4166 69.4148 27.7854ZM56.247 36.7989C56.1385 36.6905 55.9108 36.5603 55.4444 36.5169C54.9779 36.4627 54.5115 36.6688 54.2187 36.8423C54.0126 36.9725 53.8499 37.2545 53.7631 37.4172C51.5829 35.1285 50.238 32.0264 50.238 28.5989C50.238 28.1216 50.2705 27.6444 50.3139 27.178L50.4549 28.0565C50.4549 28.0565 52.5483 27.9264 53.0472 27.9264C53.5353 27.9264 57.2666 27.8613 57.7438 27.8288C58.2211 27.8071 59.0671 27.8071 59.0671 27.8071C59.0671 27.8071 59.501 28.1542 59.8698 28.4579C60.2494 28.7616 61.0955 29.6076 61.0955 29.6076L61.6269 30.1391L61.6378 30.1825C61.6378 30.1825 61.5076 30.1174 61.2473 30.0849C60.9978 30.0523 60.6941 30.0198 60.1084 30.074C59.5227 30.1282 58.7634 30.3018 58.0909 30.9743C57.4184 31.6468 57.2991 32.5037 57.2991 33.0677C57.2991 33.6317 57.5486 34.1307 57.7981 34.4886C58.0475 34.8465 58.5248 35.1177 58.5248 35.1177C58.5248 35.1177 58.0909 35.6058 57.7547 35.9529C57.4184 36.2891 56.8327 36.9942 56.8327 36.9942L56.5507 37.2762C56.5507 37.2653 56.3663 36.9074 56.247 36.7989ZM68.1024 37.7968C68.0698 37.8944 67.6794 37.9487 67.213 38.0897C66.7466 38.2307 66.3344 38.4802 66.15 39.0116C65.9656 39.5431 66.1283 40.0638 66.1825 40.3675C66.2151 40.5736 66.3344 40.7363 66.3995 40.823C65.2823 41.1484 64.0891 41.3328 62.8635 41.3328C60.7809 41.3328 58.4814 40.758 56.7893 39.7926L57.7872 39.8251C57.7872 39.8251 58.1343 39.3696 58.4272 39.0116C58.72 38.6537 59.9999 37.1677 60.2494 36.8749C60.4989 36.582 61.1388 35.9095 61.2907 35.7468C61.4425 35.595 61.4859 35.5516 61.4859 35.5516C61.4859 35.5516 61.4859 35.4648 61.3992 35.3346C61.3124 35.2045 61.1388 35.0743 60.9653 34.955C60.7809 34.8357 60.6724 34.7381 60.6507 34.6188C60.629 34.4994 60.846 34.2283 61.0846 33.8812C61.3341 33.5341 62.05 32.8291 62.3754 32.4711C62.6899 32.1132 62.9177 32.0264 62.9177 32.0264C62.9502 32.1457 62.9828 32.3518 63.2105 33.0785C63.4383 33.7944 63.8505 34.2391 64.3278 34.7164C64.805 35.1936 65.6185 35.3997 66.4103 35.4539C67.1913 35.5082 67.9397 35.2912 67.9397 35.2912L68.1349 37.4931C68.1349 37.4606 68.1349 37.6992 68.1024 37.7968ZM71.7902 37.6016C71.2371 38.1548 70.3693 38.9249 69.7185 39.3696L70.2934 38.6212C70.2934 38.6212 70.1958 38.5344 70.1632 38.0571C70.1307 37.5799 70.1958 36.0071 70.2609 35.0201C70.3259 34.0439 70.391 32.0373 70.391 32.0373L70.3693 31.9396C70.3693 31.9396 70.0873 31.9396 69.6209 31.9722C69.1545 32.0047 68.4278 32.0047 68.1349 31.9613C67.8421 31.9179 67.5601 31.6576 67.5601 31.6576C67.2347 31.4081 67.0828 31.1587 67.0828 31.1587C67.0828 31.1587 67.0828 31.1261 67.4733 31.1261C67.8638 31.1261 68.6013 30.9417 69.2413 30.7573C69.8812 30.573 70.4886 30.1933 71.0527 29.6944C71.6167 29.2063 71.7902 28.4579 71.9096 27.9806C72.0289 27.5142 72.0397 27.1129 71.9312 26.3102C71.8228 25.5184 71.3889 24.5965 71.1828 24.2277C70.9767 23.8697 70.3042 23.0345 69.968 22.8501C69.6318 22.6658 69.6318 22.6441 69.6318 22.6441L72.1265 19.9324C74.209 22.2102 75.4889 25.2364 75.4889 28.5772C75.4889 32.1132 74.0789 35.2912 71.7902 37.6016ZM82.344 15.0514H71.1828C74.144 17.0255 76.9207 20.0517 77.9403 24.3904C78.2657 25.757 78.5043 27.1563 78.5043 28.5989C78.5043 32.688 76.9532 36.4193 74.4043 39.2177C74.4694 39.3153 74.5561 39.3804 74.6646 39.2937C77.7884 37.2328 81.8559 32.7857 83.2118 27.5901C84.4374 22.8393 83.6782 18.5115 82.344 15.0514Z" fill="#020202"/>
<path d="M60.4657 9.50877C60.2487 9.35691 60.0101 9.2376 59.7389 9.16167C59.9016 9.04236 60.0318 8.89051 60.1186 8.71696C60.2053 8.54342 60.227 8.34818 60.1945 8.14209C60.1186 7.795 59.945 7.56722 59.6738 7.45875C59.3918 7.35029 59.099 7.32859 58.7953 7.38282C58.4482 7.4479 58.1662 7.62145 57.9492 7.88177C57.7215 8.14209 57.6347 8.46749 57.6998 8.85797C57.7431 9.0749 57.8408 9.25929 57.9818 9.4003C58.1228 9.55215 58.2855 9.66062 58.4699 9.75824C58.2746 9.8884 58.1336 10.0403 58.036 10.2246C57.9275 10.4199 57.9058 10.6368 57.9492 10.8863C57.9818 11.0815 58.0685 11.2442 58.1879 11.3744C58.3072 11.5045 58.4482 11.613 58.6 11.6889C58.9363 11.8408 59.2725 11.8842 59.6305 11.8191C60.0318 11.7432 60.368 11.5588 60.6175 11.2768C60.867 10.9948 60.9646 10.6368 60.8887 10.1921C60.8127 9.89925 60.6717 9.67147 60.4657 9.50877ZM58.3831 8.7712C58.2855 8.69527 58.2204 8.59765 58.1987 8.47834C58.177 8.35902 58.1879 8.25056 58.2204 8.16378C58.2529 8.06616 58.2963 7.99024 58.3614 7.91431C58.5024 7.7733 58.676 7.68653 58.8712 7.65399C59.099 7.6323 59.3051 7.67568 59.4786 7.795C59.6522 7.91431 59.7715 8.0987 59.8149 8.34818C59.8474 8.51088 59.8365 8.65188 59.7823 8.7712C59.7281 8.89051 59.6413 9.00982 59.5111 9.11829C59.4135 9.10744 59.2942 9.08575 59.1532 9.06405C59.0122 9.04236 58.882 9.00982 58.741 8.96644C58.6 8.9122 58.4807 8.84712 58.3831 8.7712ZM60.1294 11.2442C59.9884 11.4286 59.7932 11.5371 59.5654 11.5805C59.2834 11.6347 59.023 11.5805 58.7844 11.4178C58.5349 11.2768 58.3831 11.049 58.3289 10.7561C58.2963 10.5609 58.318 10.3765 58.3939 10.2246C58.4699 10.0728 58.5675 9.94263 58.7085 9.81247C58.8495 9.83417 59.0014 9.84501 59.1749 9.86671C59.3376 9.8884 59.5003 9.92094 59.663 9.97517C59.8257 10.0186 59.9667 10.0945 60.0752 10.1921C60.1836 10.2897 60.2596 10.4307 60.2921 10.6151C60.3355 10.8646 60.2813 11.0707 60.1294 11.2442ZM71.193 9.11829C70.8025 8.92305 70.4337 8.90136 70.0866 9.04236C69.7287 9.18337 69.4467 9.45453 69.2406 9.85586C69.0779 10.1704 69.0128 10.4958 69.0562 10.8429C69.0887 11.19 69.2623 11.4503 69.5985 11.6239C69.7938 11.7215 69.9782 11.7649 70.1409 11.7432C70.3036 11.7106 70.4771 11.6564 70.6615 11.5588C70.5422 11.7757 70.4012 12.0035 70.2602 12.2313C70.1083 12.4591 69.9239 12.6434 69.6961 12.7628C69.4467 12.9038 69.208 12.9146 68.9803 12.7953C68.8393 12.7302 68.7525 12.6109 68.6874 12.4699C68.6657 12.394 68.6549 12.318 68.6549 12.2421C68.6549 12.1662 68.6657 12.1011 68.7091 12.0252C68.7742 11.9059 68.8393 11.7974 68.9152 11.6889L68.5139 11.5913C68.4705 11.6456 68.4271 11.7106 68.3945 11.7866C68.2644 12.0469 68.2644 12.2855 68.3945 12.5133C68.5139 12.7411 68.6874 12.9146 68.926 13.0339C69.5118 13.3268 70.0432 13.3051 70.4988 12.9905C70.9327 12.6868 71.2906 12.2638 71.5618 11.7106C71.6811 11.472 71.7895 11.2334 71.8763 10.9839C71.9522 10.7453 71.9848 10.5067 71.9848 10.268C71.9848 9.79078 71.7245 9.41115 71.193 9.11829ZM71.3665 9.98602C71.3448 10.1053 71.3123 10.2355 71.2689 10.3548C71.2147 10.4741 71.1604 10.5934 71.1062 10.6911C71.052 10.7995 70.9869 10.908 70.911 11.0164C70.835 11.1358 70.7374 11.2334 70.6398 11.3202C70.5313 11.4069 70.4229 11.4612 70.3036 11.4937C70.1842 11.5262 70.0541 11.5045 69.9131 11.4395C69.8155 11.3744 69.7612 11.2985 69.7395 11.2117C69.707 11.1141 69.707 11.0165 69.7178 10.9188C69.7395 10.8104 69.7721 10.7127 69.8263 10.6043C69.8697 10.4958 69.9131 10.3982 69.9565 10.3114L69.9998 10.2246C70.0541 10.127 70.1192 10.0186 70.1951 9.89925C70.2602 9.77993 70.3469 9.66062 70.4446 9.563C70.5422 9.46538 70.6506 9.38945 70.7591 9.34607C70.8676 9.30268 70.976 9.31353 71.1062 9.36776C71.2364 9.43284 71.3231 9.53046 71.3665 9.62808C71.3882 9.73655 71.3882 9.85586 71.3665 9.98602ZM63.5569 7.795L65.8347 8.1204C65.249 8.61934 64.8043 9.10744 64.4789 9.60639C64.1535 10.1053 63.9149 10.7344 63.7413 11.5045L64.685 11.6456C64.8585 10.203 65.466 8.99897 66.5072 8.03362L66.5832 7.51299L63.763 7.08997L63.5569 7.795ZM52.873 9.62808C52.8947 9.8884 52.8405 10.1379 52.732 10.3548C52.6127 10.5717 52.45 10.767 52.2439 10.9297L52.4283 11.2659C52.6995 11.0707 52.8947 10.8212 53.0249 10.5067L54.7495 13.5871L55.4654 13.1858L53.3286 9.36776L52.873 9.62808Z" fill="#020202"/>
<path d="M22.5645 55.03V48.49H26.8245V49.47H23.7245V51.14H24.7945C25.2611 51.14 25.6778 51.2 26.0445 51.32C26.4178 51.44 26.7111 51.6366 26.9245 51.91C27.1445 52.1766 27.2545 52.54 27.2545 53C27.2545 53.4733 27.1511 53.86 26.9445 54.16C26.7378 54.46 26.4511 54.68 26.0845 54.82C25.7245 54.96 25.3078 55.03 24.8345 55.03H22.5645ZM23.7245 54.13H24.6945C25.6411 54.13 26.1145 53.76 26.1145 53.02C26.1145 52.6533 25.9911 52.3933 25.7445 52.24C25.5045 52.0866 25.1478 52.01 24.6745 52.01H23.7245V54.13Z" fill="#020202"/>
<path d="M29.6392 55.03V49.47H27.6292V48.49H30.7992V51.02H31.6892C32.1559 51.02 32.5792 51.0866 32.9592 51.22C33.3459 51.3533 33.6526 51.5633 33.8792 51.85C34.1059 52.13 34.2192 52.4966 34.2192 52.95C34.2192 53.4433 34.1126 53.8433 33.8992 54.15C33.6859 54.4566 33.3926 54.68 33.0192 54.82C32.6526 54.96 32.2292 55.03 31.7492 55.03H29.6392ZM30.7992 54.1H31.6492C32.1226 54.1 32.4792 54.0133 32.7192 53.84C32.9592 53.66 33.0792 53.37 33.0792 52.97C33.0792 52.29 32.5826 51.95 31.5892 51.95H30.7992V54.1Z" fill="#020202"/>
<path d="M35.2253 55.15C35.0853 55.15 34.962 55.1433 34.8553 55.13C34.7553 55.1166 34.6586 55.0933 34.5653 55.06L34.7853 54.01C34.832 54.0166 34.8753 54.0266 34.9153 54.04C34.962 54.0466 35.012 54.05 35.0653 54.05C35.1786 54.05 35.282 54.0166 35.3753 53.95C35.4686 53.8766 35.562 53.7233 35.6553 53.49C35.7553 53.25 35.8553 52.8866 35.9553 52.4C36.0886 51.7533 36.212 51.11 36.3253 50.47C36.4386 49.8233 36.5553 49.1633 36.6753 48.49H40.2253V55.03H39.0653V49.47H37.5753C37.482 49.9966 37.3886 50.51 37.2953 51.01C37.2086 51.51 37.1186 52.0133 37.0253 52.52C36.892 53.22 36.7453 53.76 36.5853 54.14C36.4253 54.52 36.2353 54.7833 36.0153 54.93C35.7953 55.0766 35.532 55.15 35.2253 55.15Z" fill="#020202"/>
<path d="M41.8809 55.03V48.49H45.8309V49.47H43.0409V55.03H41.8809Z" fill="#020202"/>
<path d="M47.7228 51.55L47.4928 52.35H49.1628L48.9328 51.55C48.8261 51.2033 48.7228 50.8466 48.6228 50.48C48.5295 50.1133 48.4361 49.75 48.3428 49.39H48.3028C48.2161 49.7566 48.1228 50.1233 48.0228 50.49C47.9295 50.85 47.8295 51.2033 47.7228 51.55ZM45.5328 55.03L47.6628 48.49H49.0228L51.1528 55.03H49.9328L49.4228 53.26H47.2228L46.7128 55.03H45.5328Z" fill="#020202"/>
<path d="M51.959 55.03V48.49H54.019C54.5057 48.49 54.939 48.5533 55.319 48.68C55.699 48.8066 55.999 49.0166 56.219 49.31C56.439 49.6033 56.549 50.0033 56.549 50.51C56.549 50.99 56.439 51.3866 56.219 51.7C55.999 52.0133 55.7023 52.2466 55.329 52.4C54.9557 52.5533 54.5323 52.63 54.059 52.63H53.119V55.03H51.959ZM53.119 51.7H53.969C54.929 51.7 55.409 51.3033 55.409 50.51C55.409 50.0966 55.2823 49.8133 55.029 49.66C54.7823 49.5 54.4157 49.42 53.929 49.42H53.119V51.7Z" fill="#020202"/>
<path d="M60.3893 55.15C59.8426 55.15 59.346 55.02 58.8993 54.76C58.4526 54.5 58.096 54.12 57.8293 53.62C57.5693 53.1133 57.4393 52.5 57.4393 51.78C57.4393 51.0666 57.5726 50.4566 57.8393 49.95C58.1126 49.4366 58.476 49.0466 58.9293 48.78C59.3826 48.5066 59.8826 48.37 60.4293 48.37C60.8426 48.37 61.2093 48.4533 61.5293 48.62C61.8493 48.7866 62.1126 48.98 62.3193 49.2L61.6993 49.95C61.5326 49.7766 61.346 49.64 61.1393 49.54C60.9393 49.4333 60.7126 49.38 60.4593 49.38C60.106 49.38 59.7893 49.4766 59.5093 49.67C59.236 49.8566 59.0193 50.1266 58.8593 50.48C58.706 50.8333 58.6293 51.2566 58.6293 51.75C58.6293 52.4966 58.7926 53.0833 59.1193 53.51C59.446 53.93 59.8826 54.14 60.4293 54.14C60.7226 54.14 60.9826 54.08 61.2093 53.96C61.436 53.8333 61.6426 53.67 61.8293 53.47L62.4493 54.2C62.1826 54.5066 61.876 54.7433 61.5293 54.91C61.1893 55.07 60.8093 55.15 60.3893 55.15Z" fill="#020202"/>
<path d="M63.541 55.03V48.49H64.701V51.15H65.621L66.511 49.57C66.6843 49.2566 66.851 49.0133 67.011 48.84C67.171 48.6666 67.3377 48.5466 67.511 48.48C67.6843 48.4066 67.8843 48.37 68.111 48.37C68.1843 48.37 68.261 48.3766 68.341 48.39C68.4277 48.3966 68.501 48.4166 68.561 48.45L68.371 49.5C68.3177 49.4866 68.2677 49.48 68.221 49.48C68.181 49.4733 68.1443 49.47 68.111 49.47C67.9643 49.47 67.8377 49.5133 67.731 49.6C67.6243 49.6866 67.4843 49.8766 67.311 50.17L66.531 51.56L68.721 55.03H67.491L65.621 52.09H64.701V55.03H63.541Z" fill="#020202"/>
<path d="M69.5469 55.03V48.49H70.6969V51.33C70.6969 51.6966 70.6802 52.0766 70.6469 52.47C70.6135 52.8633 70.5802 53.2266 70.5469 53.56H70.5869L71.2669 52.17L73.3169 48.49H74.5469V55.03H73.3969V52.17C73.3969 51.8033 73.4135 51.43 73.4469 51.05C73.4869 50.67 73.5202 50.3066 73.5469 49.96H73.5069L72.8369 51.34L70.7769 55.03H69.5469Z" fill="#020202"/>
<path d="M78.209 55.03V48.49H83.089V55.03H81.929V49.47H79.369V55.03H78.209Z" fill="#020202"/>
<path d="M87.292 55.15C86.7253 55.15 86.2253 55.0133 85.792 54.74C85.3586 54.46 85.0186 54.0666 84.7719 53.56C84.5319 53.0466 84.412 52.4366 84.412 51.73C84.412 51.0233 84.5319 50.42 84.7719 49.92C85.0186 49.42 85.3586 49.0366 85.792 48.77C86.2253 48.5033 86.7253 48.37 87.292 48.37C87.8653 48.37 88.3686 48.5033 88.8019 48.77C89.2353 49.0366 89.572 49.42 89.812 49.92C90.0586 50.42 90.182 51.0233 90.182 51.73C90.182 52.4366 90.0586 53.0466 89.812 53.56C89.572 54.0666 89.2353 54.46 88.8019 54.74C88.3686 55.0133 87.8653 55.15 87.292 55.15ZM87.292 54.14C87.8053 54.14 88.2153 53.9233 88.5219 53.49C88.8286 53.05 88.9819 52.4633 88.9819 51.73C88.9819 50.9966 88.8286 50.4233 88.5219 50.01C88.2153 49.59 87.8053 49.38 87.292 49.38C86.7786 49.38 86.3686 49.59 86.062 50.01C85.7553 50.4233 85.602 50.9966 85.602 51.73C85.602 52.4633 85.7553 53.05 86.062 53.49C86.3686 53.9233 86.7786 54.14 87.292 54.14Z" fill="#020202"/>
<path d="M91.4902 55.03V48.49H92.6302V54.05H94.5402V48.49H95.6602V54.05H97.5702V48.49H98.7102V54.05H99.4702V54.77L99.3602 56.91H98.3402V55.03H91.4902Z" fill="#020202"/>
<path d="M100.436 55.03V48.49H101.586V51.33C101.586 51.6966 101.569 52.0766 101.536 52.47C101.502 52.8633 101.469 53.2266 101.436 53.56H101.476L102.156 52.17L104.206 48.49H105.436V55.03H104.286V52.17C104.286 51.8033 104.302 51.43 104.336 51.05C104.376 50.67 104.409 50.3066 104.436 49.96H104.396L103.726 51.34L101.666 55.03H100.436Z" fill="#020202"/>
</svg>
