<svg xmlns="http://www.w3.org/2000/svg" viewBox="0 0 323.13 120.41"><defs><style>.a{fill:none;}.b{fill:#ff8000;}</style></defs><rect class="a" width="323.13" height="120.41"/><path class="b" d="M134.14,60.22c.74-6.63,5.61-11.35,12.39-11.35a12.07,12.07,0,0,1,12.38,11.35h10.76a23.12,23.12,0,0,0-46.14,0Zm-24.91,2.66A12.3,12.3,0,0,1,96.55,75.11,12.09,12.09,0,0,1,84,62.88H73.11V105H83.87V80.42H84c3,3,7.08,5,13,5,12.68,0,22.56-9.58,22.85-22.55ZM84,60.22A12.1,12.1,0,0,1,96.55,48.87a12.45,12.45,0,0,1,12.68,11.35H120c-.74-12.38-10-21.67-22.41-21.67-5.89,0-10.61,2.22-13.41,5.16h-.3V39.44H73.11V60.22ZM233.65,84.55h10.76V62.88H233.65Zm-23.44,0H221V62.88H210.21ZM197.68,62.88H176.75a52.14,52.14,0,0,0,8,4.13c4.42,1.62,6,2.65,6,4.71S188.4,75,185.45,75a12.16,12.16,0,0,1-8.55-3.54l-7.08,7.07c4.13,4.13,8.4,6.93,15.77,6.93,7.82,0,15.93-5.6,15.93-14A11.39,11.39,0,0,0,197.68,62.88Zm-38.62,0c-.3,7.22-5.31,12.23-12.53,12.23S134.29,70,134,62.88H123.24a23.15,23.15,0,0,0,46.29,0Zm85.35-23.44H233.65V60.22h10.76Zm-34.2,20.78H221V48.87h9.87V39.44H221V23.37H210.21V39.44h-8.1v9.43h8.1Zm-15.48,0A31.47,31.47,0,0,0,188,57.13c-4.12-1.48-6-2.51-6-4.87,0-1.91,1.92-3.24,4.42-3.24a11,11,0,0,1,7.52,3.1l6.93-7.52c-4.13-3.83-8.4-5.9-14.45-5.9s-14.59,4.87-14.59,14a11.34,11.34,0,0,0,2.65,7.51Z"/><path class="b" d="M242.79,25.88c-.73,0-2.36,1.32-2.36,6.48,1.63-1.32,3.25-4,3.25-5.45C243.53,26.17,243.38,25.88,242.79,25.88Zm-6.93,3.39c-.59,0-.88.44-.88,1,0,1.47,1.47,2.36,3.1,2.65v-.44C238.08,30.74,237.19,29.27,235.86,29.27Zm-3.83,4c1.33,1,2.36,2.06,3.54,2.06a2.38,2.38,0,0,0,1.18-.29,5.22,5.22,0,0,1-4-4.72,2.94,2.94,0,0,1,3.09-3.1,4.46,4.46,0,0,1,2.81,1.18c.73-2.95,2.5-4.57,4.42-4.57,1.77,0,2.65,1.33,2.65,3.24,0,2.36-2.21,6.2-4.86,7.67a1.62,1.62,0,0,0,1.47.74c2.36,0,4.42-2.07,5.75-3.69a1.3,1.3,0,0,1,.89-.44,1,1,0,0,1,1,1,1.12,1.12,0,0,1-.3.74c-1.32,1.47-4,4.42-7.37,4.42a3.9,3.9,0,0,1-3.24-1.62,4.51,4.51,0,0,1-3.54,1.62c-1.47,0-2.95-1-4.28-2.06-.59-.44-1.32-1-1.76-1.33a1.9,1.9,0,0,0-1-.59,1.08,1.08,0,0,1-1.18-1.18,1.05,1.05,0,0,1,1.18-1,4.26,4.26,0,0,1,1.77.59A6.83,6.83,0,0,1,232,33.25Z"/></svg>