<svg xmlns="http://www.w3.org/2000/svg" width="128" height="64" fill="none"><rect width="128" height="64" fill="#FC0" rx="6"/><path fill="#fff" fill-rule="evenodd" d="m89.824 44 1.266-5.983H17.728L16.445 44h73.38Z" clip-rule="evenodd"/><path fill="#000" fill-rule="evenodd" d="M59.933 33.776c-.436 2.012-1.257 4.106-3.539 4.106-2.181 0-2.496-2.06-2.042-4.106.454-2.047 1.257-4.106 3.535-4.106 2.181 0 2.5 2.06 2.046 4.106Zm-1.81-6.37c-4.325 0-5.97 2.936-6.655 6.37-.685 3.434.76 6.37 4.686 6.37 4.325 0 5.965-2.936 6.655-6.37.69-3.434-.755-6.37-4.695-6.37M48.165 31.93a2.252 2.252 0 0 1-1.776 1.898c-.288.054-.58.082-.873.083h-1.091l.873-4.075h1.173a2.55 2.55 0 0 1 .79.1c.668.218 1.07.873.873 1.994m-.37-4.294a8.854 8.854 0 0 0-1.227-.083h-3.4l-2.692 12.459h2.684l.807-3.806h1.558a6.206 6.206 0 0 0 1.876-.235 4.949 4.949 0 0 0 3.456-3.906c.437-2.33-.755-4.058-3.085-4.442M30.361 35.133l2.75-4.979.706 4.98h-3.456Zm4.76-7.593h-3.215l-5.887 10.211h-3.617l2.181-10.21h-2.688l-2.683 12.47h8.487l1.423-2.617h5.027l.37 2.618h2.702l-2.1-12.472ZM68.132 29.91c.48-.044.963-.06 1.445-.048h2.038l.501-2.322h-2.269a20.415 20.415 0 0 0-2.251.088c-1.746.2-3.413 1.462-3.413 3.66 0 1.515.873 2.222 1.746 2.841l1.444 1.009c.333.205.628.467.873.772a.93.93 0 0 1 .205.589c.009.242-.07.48-.223.668-.388.436-1.077.54-1.693.597a8.728 8.728 0 0 1-3.277-.462v.052l-.807 2.287c1.188.358 2.425.527 3.665.502 3.382 0 5.346-1.493 5.346-3.897 0-1.209-.842-2.016-1.698-2.653l-1.597-1.157c-.654-.488-1.09-.824-1.09-1.378a1.1 1.1 0 0 1 1.055-1.126M91.33 27.54h-7.54l-2.667 12.472h7.628l.484-2.26h-4.927l.668-3.103h4.276l.502-2.248h-4.272l.555-2.618h4.8l.493-2.243ZM82.698 27.54h-9.456l-.506 2.313h3.386L73.94 40.012h2.723l2.182-10.159h3.373l.48-2.313Z" clip-rule="evenodd"/><path fill="red" fill-rule="evenodd" d="M103.984 27.536 105.581 20H95.453c0 .026-2.107 9.831-2.116 9.87h2.526c0-.026 1.615-7.536 1.615-7.536h5.114l-1.614 7.537h7.584l-1.013 4.712h-7.558c0 .03-1.51 7.052-1.51 7.052h-5.724c0 .026-.494 2.326-.498 2.365h8.23c0-.026 1.523-7.065 1.523-7.065h7.527c0-.026 2.007-9.36 2.016-9.399h-7.571Z" clip-rule="evenodd"/></svg>