<svg xmlns="http://www.w3.org/2000/svg" viewBox="0 0 320 120"><defs><style>.a{fill:none;}.b{fill:#fc0;}.c{fill:#fefefe;}.c,.d,.e{fill-rule:evenodd;}.e{fill:red;}</style></defs><rect class="a" width="320" height="120"/><rect class="b" x="10" y="20" width="300" height="80" rx="9"/><path class="c" d="M220.5,87.5l2.92-13.7H53L50,87.5Z"/><path class="d" d="M159,58.2c0,3.38,2.08,5,4,6.53l3.26,2.42A11.61,11.61,0,0,1,168,68.61a2.32,2.32,0,0,1,.77,1.65,2.44,2.44,0,0,1-1.19,2.16c-1.31.85-3.34.85-4.57.85a22.23,22.23,0,0,1-6.16-1L155,77.46a28.31,28.31,0,0,0,8.38,1.15,18,18,0,0,0,7.23-1.23,7.6,7.6,0,0,0,5.07-7.19A6.52,6.52,0,0,0,174.22,66a17.44,17.44,0,0,0-3.08-2.8L168.19,61c-1.5-1.12-2.62-2-2.62-3.27A2.52,2.52,0,0,1,168,55.2a28.16,28.16,0,0,1,3.31-.11H176l1.15-5.31h-5.23a49.15,49.15,0,0,0-5.15.19c-4,.46-7.8,3.35-7.8,8.23"/><path class="d" d="M201.39,49.78H179.72l-1.16,5.31h7.77l-5,23.29h6.19l5-23.29h7.73Z"/><path class="d" d="M149.2,64.08c-1,4.61-2.88,9.42-8.11,9.42-5,0-5.73-4.73-4.69-9.42s2.88-9.42,8.11-9.42c5,0,5.73,4.73,4.69,9.42m-4.15-14.61c-9.92,0-13.69,6.73-15.26,14.61s1.73,14.6,10.76,14.6c9.91,0,13.68-6.72,15.26-14.6s-1.73-14.61-10.76-14.61"/><path class="d" d="M122.22,59.85a5.13,5.13,0,0,1-4.08,4.34,10.36,10.36,0,0,1-2,.2h-2.5l2-9.34h2.69a5.85,5.85,0,0,1,1.81.23c1.54.5,2.46,2,2,4.57M121.29,50a20.16,20.16,0,0,0-2.8-.19h-7.81l-6.15,28.6h6.15l1.89-8.73h3.57a14.25,14.25,0,0,0,4.31-.54,11.35,11.35,0,0,0,7.92-9c1-5.34-1.73-9.3-7.08-10.19"/><path class="d" d="M81.4,67.19l6.3-11.41,1.62,11.41ZM92.32,49.78H84.93L71.44,73.19h-8.3l5-23.41H62l-6.15,28.6H75.29l3.26-6H90.08l.85,6h6.19Z"/><path class="d" d="M204.89,67.19l6.3-11.41,1.62,11.41Zm10.92-17.41h-7.38L192,78.38h6.8l3.27-6h11.52l.85,6h6.19Z"/><path class="e" d="M252.61,49.77l3.66-17.27H233.06c0,.06-4.83,22.53-4.85,22.62H234c0-.06,3.7-17.27,3.7-17.27h11.73l-3.71,17.27H263.1l-2.32,10.8H243.46c0,.07-3.46,16.16-3.46,16.16H226.88c0,.06-1.12,5.33-1.14,5.42h18.87c0-.06,3.48-16.19,3.48-16.19h17.25c0-.06,4.61-21.44,4.63-21.54Z"/></svg>