<svg xmlns="http://www.w3.org/2000/svg" width="128" height="64" fill="none"><rect width="128" height="64" fill="#FC0" rx="6"/><path fill="#fff" fill-rule="evenodd" d="m89.392 44 1.274-5.978H18.134L16.868 44h72.524Z" clip-rule="evenodd"/><path fill="#000" fill-rule="evenodd" d="M36.649 27.55h-2.697l-2.684 12.466h2.697l2.684-12.467ZM46.105 27.55H38.56l-2.662 12.466h7.623l.489-2.26h-4.931l.672-3.103h4.272l.489-2.247h-4.277l.555-2.618h4.826l.489-2.239ZM28.38 34.003c-.319 1.488-1.209 3.268-3.15 3.67-.361.061-.726.09-1.092.087h-1.274l1.676-7.898h1.156c.326-.003.651.02.973.07 1.776.3 2.147 2.107 1.71 4.07Zm-1.039-6.367c-.54-.061-1.084-.09-1.627-.087h-3.408l-2.667 12.467h4.495c.42.004.84-.018 1.257-.066 3.517-.436 5.236-2.984 5.73-5.58.702-3.622-.568-6.271-3.78-6.734ZM90.92 27.55h-9.47l-.502 2.308h3.386l-2.181 10.158h2.696l2.182-10.158H90.4l.52-2.309ZM68.202 33.802c-.436 2.012-1.256 4.106-3.534 4.106-2.182 0-2.5-2.064-2.047-4.106.454-2.042 1.257-4.106 3.535-4.106 2.182 0 2.5 2.06 2.046 4.106Zm-1.85-6.388c-4.324 0-5.97 2.932-6.654 6.366-.685 3.434.755 6.371 4.69 6.371 4.325 0 5.97-2.937 6.655-6.37.685-3.435-.755-6.367-4.69-6.367ZM72.417 31.215c0 1.474.908 2.181 1.746 2.849l1.427 1.056c.27.188.524.401.755.637a1.007 1.007 0 0 1 .331.72 1.064 1.064 0 0 1-.519.943c-.567.366-1.453.366-1.994.366a9.481 9.481 0 0 1-2.68-.436l-.802 2.282c1.185.35 2.416.519 3.652.502a7.703 7.703 0 0 0 3.15-.537 3.304 3.304 0 0 0 2.222-3.15 2.84 2.84 0 0 0-.633-1.829 7.737 7.737 0 0 0-1.34-1.222l-1.309-.973c-.654-.484-1.139-.873-1.139-1.427a1.1 1.1 0 0 1 1.056-1.086c.479-.048.96-.066 1.44-.053h2.047l.502-2.312H78.05c-.75-.013-1.5.016-2.247.087-1.746.2-3.404 1.457-3.404 3.582M56.394 31.939a2.25 2.25 0 0 1-1.776 1.894c-.288.053-.58.081-.873.083H52.65l.873-4.072h1.174c.265-.01.53.024.785.1.672.219 1.074.873.873 1.995m-.362-4.303a8.235 8.235 0 0 0-1.227-.087h-3.399L48.684 40.02h2.683l.82-3.805h1.558a6.215 6.215 0 0 0 1.881-.235 4.956 4.956 0 0 0 3.452-3.928c.436-2.325-.755-4.053-3.085-4.438" clip-rule="evenodd"/><path fill="red" fill-rule="evenodd" d="M103.556 27.536 105.158 20H95.025c0 .026-2.103 9.831-2.112 9.87h2.5c0-.026 1.615-7.536 1.615-7.536h5.119l-1.615 7.537h7.597l-1.008 4.712h-7.553c0 .03-1.51 7.052-1.51 7.052h-5.725c0 .026-.493 2.326-.502 2.365h8.239c0-.026 1.514-7.065 1.514-7.065h7.532c0-.026 2.007-9.36 2.016-9.399h-7.576Z" clip-rule="evenodd"/></svg>