<svg xmlns="http://www.w3.org/2000/svg" viewBox="0 0 320 120"><defs><style>.a{fill:none;}.b{fill:#fc0;}</style></defs><rect class="a" width="320" height="120"/><rect class="b" x="70" y="5" width="180" height="110" rx="9"/><path d="M124.49,86.28,110.93,100h13.43l13.56-13.72ZM129.05,100h13.42L156,86.28H142.61Zm81.51-68.64-23.82-5.93a90.63,90.63,0,0,1-4.28,22.77C182.52,31.58,169.4,20,153.53,20c-17.63,0-31.72,15.12-28.37,33.79-2.82-4.36-6.9-13.88-5.22-27.07L109.6,30c-1.83,23.18,11.78,53.79,47,53.8C187.68,83.82,208.66,59.33,210.56,31.36Zm-57,36.49a19.07,19.07,0,1,1,19.07-19.07h0a19.07,19.07,0,0,1-19.07,19.07Zm23.68,18.43L190.82,100h13.43L190.69,86.28Zm-18.11,0L172.71,100h13.43L172.58,86.28Z"/></svg>