<svg xmlns="http://www.w3.org/2000/svg" width="128" height="64" fill="none"><rect width="128" height="64" fill="#fff" rx="6"/><path fill="#00A0D6" fill-rule="evenodd" d="M9.922 26.77h4.4c.252 0 .304.1.292.32-.012.22 0 .507 0 .775a.192.192 0 0 0 .132-.028 5.768 5.768 0 0 1 9.328 2.24c1.056 2.776.856 5.468-1.148 7.812-2.104 2.452-6.128 2.572-8.128.976a.904.904 0 0 0-.18-.076v4.4h-4.272c-.32 0-.428-.04-.424-.4.008-5.344.008-10.684 0-16.02Zm4.584 6.32a2.52 2.52 0 0 0 2.368 2.663h.192a2.478 2.478 0 0 0 2.584-2.48c.028-1.66-.968-2.772-2.5-2.8a2.5 2.5 0 0 0-2.648 2.344c0 .092 0 .164.004.272ZM118.074 39.565c-1.316-.088-2.636 0-3.956-.036a3.336 3.336 0 0 0-.4 0c-.292.04-.364-.1-.344-.364.02-.264 0-.504 0-.8l-.72.592c-2.2 1.6-5.696 1.228-7.568-.8-2.34-2.552-2.328-7.2-.028-9.768 2.084-2.336 6.072-2.628 8.156-.964.051.023.105.041.16.052v-3.34c0-.34.12-.432.4-.488 1.252-.232 2.5-.484 3.748-.728.072 0 .152 0 .188-.092.308-.068.372.052.368.36a6876.94 6876.94 0 0 0-.004 16.376Zm-9.732-6.46c0 1.568 1.04 2.664 2.54 2.668a2.505 2.505 0 0 0 2.612-2.4v-.26a2.48 2.48 0 0 0-2.348-2.604h-.248a2.445 2.445 0 0 0-2.324 1.403c-.136.29-.214.605-.228.925-.008.096-.008.18-.004.268ZM85.302 26.313a9.656 9.656 0 0 1 3.784.712c2.704 1.16 4.128 3.628 3.892 6.564-.28 3.512-2.672 5.552-5.824 6.148a9.296 9.296 0 0 1-5.472-.544c-2.8-1.2-4-3.548-3.864-6.4.208-4.056 3.168-5.964 6.332-6.4.444-.04.892-.06 1.152-.08Zm-2.504 6.8a2.58 2.58 0 1 0 5.16 0c0-1.6-1.056-2.672-2.596-2.668a2.504 2.504 0 0 0-2.564 2.436v.248-.016ZM33.118 26.313c1.964.048 3.804.492 5.352 1.788a5.84 5.84 0 0 1 2.092 4.14c.168 1.892-.18 3.652-1.448 5.136a7.147 7.147 0 0 1-4.124 2.312 9.415 9.415 0 0 1-5.6-.464c-3.02-1.232-4.192-3.872-3.92-6.832.324-3.312 2.652-5.292 5.728-5.888.632-.125 1.275-.19 1.92-.192Zm-.08 4.164a2.64 2.64 0 0 0-.172 5.276h.136a2.64 2.64 0 0 0 .036-5.276ZM68.35 27.781c1.548-1.512 3.372-1.756 5.324-1.232 1.772.476 2.604 1.808 2.936 3.52.081.46.119.926.112 1.392v7.6c0 .34-.068.468-.44.46-1.292-.024-2.584 0-3.872 0-.352 0-.46-.088-.46-.448v-6.352a3.63 3.63 0 0 0-.06-.624c-.212-1.116-.672-1.516-1.76-1.468a1.68 1.68 0 0 0-1.776 1.576.562.562 0 0 0 0 .08c-.104 1.2-.032 2.372-.04 3.556v3.292c0 .32-.1.4-.4.4H63.95c-.288 0-.4-.072-.376-.372V27.13c0-.332.116-.4.4-.4 1.292 0 2.584.02 3.876 0 .376 0 .512.1.468.476a.92.92 0 0 0 .032.576ZM47.906 26.325a22.61 22.61 0 0 1 4.4.504c.296.072.356.164.28.456-.24.94-.464 1.892-.66 2.844-.072.356-.204.368-.512.276a10.325 10.325 0 0 0-4.48-.492 2.46 2.46 0 0 0-.348.084c-.28.084-.5.248-.496.56.004.312.252.464.528.524 1.012.228 2.052.288 3.056.548.542.132 1.07.317 1.576.552 1.392.66 2 1.744 1.968 3.284-.056 1.82-.988 2.992-2.608 3.692a10.756 10.756 0 0 1-4.092.732 17.407 17.407 0 0 1-5.156-.668c-.276-.08-.352-.164-.268-.46.276-.996.528-2 .764-3.008.076-.324.192-.348.484-.236 1.537.631 3.198.905 4.856.8.224-.01.445-.061.652-.148a.565.565 0 0 0 .4-.548.537.537 0 0 0-.4-.528 7.062 7.062 0 0 0-1.628-.316 11.65 11.65 0 0 1-2.8-.66 3.66 3.66 0 0 1-1.024-6.2c1.168-1.008 2.592-1.336 4.068-1.5.516-.056 1.04-.068 1.44-.092ZM54.086 31.681v-7.388c0-.344.088-.424.42-.42 1.308.02 2.616.024 3.92 0 .36 0 .424.12.4.436v2.072c0 .312.104.4.4.376h3.572c.312 0 .4.044.236.36a216.095 216.095 0 0 0-1.816 3.364.432.432 0 0 1-.46.264H59.27c-.34 0-.424.088-.424.424v7.812c0 .584 0 .584-.576.584h-3.696c-.368 0-.476-.084-.476-.464-.004-2.492-.012-4.956-.012-7.42ZM98.798 28.121c1.08-1.452 2.512-1.644 4.056-1.528.28.024.4.132.4.448-.048 1.2-.072 2.432-.092 3.644 0 .288-.096.36-.4.288a4.89 4.89 0 0 0-1.652-.136c-1.512.144-2.312.944-2.312 2.52v5.672c0 .38-.064.52-.484.508-1.272-.028-2.552 0-3.828 0-.288 0-.42-.04-.42-.4V27.113c0-.288.072-.4.372-.4h4c.284 0 .364.092.344.36-.02.268.016.628.016 1.048Z" clip-rule="evenodd"/></svg>