<svg xmlns="http://www.w3.org/2000/svg" viewBox="0 0 320 120"><defs><style>.a{fill:none;}.b{fill:#eedc00;}.c{fill:#0047bb;fill-rule:evenodd;}</style></defs><rect class="a" width="320" height="120"/><rect class="b" x="10" y="20" width="300" height="80" rx="9"/><path class="c" d="M139.66,67c0,2.71.67,5,3.64,5,2.22,0,3.6-1,3.89-3h7.36a7.6,7.6,0,0,1-4,5.85,12.38,12.38,0,0,1-6.65,1.63c-8.41,0-11.75-3.6-11.75-11.82,0-6.64,5-10.4,11.29-10.4,8.53,0,11.25,4.89,11.25,12.7Zm7.53-4.26a5.4,5.4,0,0,0-1-3.13,3,3,0,0,0-2.76-1.34c-2.76.12-3.43,2.09-3.64,4.47h7.36"/><path class="c" d="M40,75.88V45.73H53.89c7.4,0,12.25,2.38,12.25,9.69s-4.85,9.69-12.25,9.69H48.37V75.88ZM52.67,59.26c3.31-.12,4.69-1.63,4.69-3.84S56,51.71,52.67,51.58h-4.3v7.68h4.3"/><path class="c" d="M90.85,65.4c0,7.72-5.65,11.11-12.22,11.11S66.42,73.12,66.42,65.4s5.65-11.11,12.21-11.11S90.85,57.68,90.85,65.4ZM78.63,71.91c3.35,0,4.06-3.55,4.06-6.51s-.71-6.51-4.06-6.51-4,3.55-4,6.51.71,6.51,4,6.51"/><path class="c" d="M104.69,61.39a2.56,2.56,0,0,0-.5-1.75,2.76,2.76,0,0,0-2.17-.75,1.72,1.72,0,0,0-1.89,1.51,2.29,2.29,0,0,0,0,.37c0,1.54,3.22,1.46,8.2,3a5.41,5.41,0,0,1,4.23,5.76c0,5.56-5.23,7-10,7-5.15,0-10.17-1-10.12-7.44H100a2.33,2.33,0,0,0,.55,1.88,2.55,2.55,0,0,0,1.88,1c1.55,0,2.68-.58,2.68-1.92,0-3.71-12.42-1.5-12.42-9.1,0-5.18,5.52-6.6,9.7-6.6,5,0,9.58,1.3,9.91,7.1h-7.53"/><path class="c" d="M117.79,54.92V51.75l7.95-3v6.18h4.6v5h-4.6v8.31c0,.54-.34,3.25,1.5,3.25a26.09,26.09,0,0,0,3.06-.12v4.72a23.59,23.59,0,0,1-4.27.42c-5.4,0-8.66-.76-8.24-7.19V59.93h-4.1v-5h4.1"/><path class="c" d="M158.15,54.71h4v21h-4Zm-.38-9.22h4.75v4.32h-4.75V45.49"/><path class="c" d="M168.53,54.71V50.23l4-1.26v5.74l4.86-.13v3l-4.86,0V71.09c0,1.5,1.17,2.21,2.6,2.21a8.74,8.74,0,0,0,2.1-.25v3.06c-.93,0-1.81.25-2.73.25a15.17,15.17,0,0,1-2.69-.21,3.85,3.85,0,0,1-2.35-1.38c-.71-1-.92-1.09-.92-3.89V57.51l-3.61.05v-3l3.61.13"/><path class="c" d="M193,62.75c0-3.64-.21-5.78-4.45-5.78-2,0-3.9,1.17-3.94,3.35h-4.19c.2-4.61,3.81-6.24,8-6.24s8.6,1.3,8.6,7.16V71.29c0,.93,0,2.69.17,4.44H194.5c-.38,0-1.09.21-1.13-.29-.09-1-.17-1.88-.21-2.85h-.09a6.74,6.74,0,0,1-6.54,3.77c-3.65,0-7.34-1.88-7.34-6,0-5.9,5.24-7.62,10.23-7.62Zm-4,2.77c-2.44.12-5.67,1-5.67,4.06,0,2.59,1.81,3.89,4.16,3.89,4.7,0,5.58-4.06,5.49-8h-4"/><path class="c" d="M201,45.49h4V75.73h-4V45.49"/><path class="c" d="M209.92,54.71h4v21h-4Zm-.37-9.22h4.74v4.32h-4.74V45.49"/><path class="c" d="M231.35,62.75c0-3.64-.21-5.78-4.45-5.78-2,0-3.9,1.17-3.94,3.35h-4.2c.21-4.61,3.82-6.24,8-6.24s8.6,1.3,8.6,7.16V71.29c0,.93,0,2.69.17,4.44h-2.69c-.38,0-1.09.21-1.13-.29-.09-1-.17-1.88-.21-2.85h-.09a6.74,6.74,0,0,1-6.54,3.77c-3.65,0-7.34-1.88-7.34-6,0-5.9,5.24-7.62,10.23-7.62Zm-4,2.77c-2.44.12-5.67,1-5.67,4.06,0,2.59,1.81,3.89,4.16,3.89,4.69,0,5.58-4.06,5.49-8h-4"/><path class="c" d="M243.37,57.81h.08a7.32,7.32,0,0,1,6.38-3.73c1.46,0,8,.38,8,7.12V75.73h-4V62.5c0-3.48-1.47-5.36-4.82-5.36a5.45,5.45,0,0,0-3.86,1.55c-.59.58-1.68,1.51-1.68,5.61V75.73h-4v-21h3.91v3.1"/><path class="c" d="M265.15,66c-.3,3.68,1.21,7.49,5.28,7.49,3.11,0,4.66-1.21,5.12-4.27h4.2c-.63,4.78-4.32,7.16-9.36,7.16-6.75,0-9.44-4.77-9.44-11s3.11-11.31,9.78-11.31C277,54.21,280,58.19,280,64v2Zm10.65-2.77c.09-3.52-1.51-6.24-5.37-6.24-3.31,0-5.28,2.81-5.28,6.24H275.8"/></svg>