<svg xmlns="http://www.w3.org/2000/svg" width="128" height="64" fill="none"><rect width="128" height="64" fill="#fff" rx="6"/><path fill="#DF0024" d="M57.404 51.448A34.555 34.555 0 0 1 47.728 53c-10.92 0-16.677-6.72-16.677-16.8 0-10.08 5.757-16.8 16.677-16.8 3.282.055 6.54.577 9.675 1.551l-1.315 6.72c-2.94-.904-4.901-1.294-7.253-1.294-5.594 0-7.975 4.14-7.975 9.823 0 5.682 2.381 9.823 7.98 9.823 2.352 0 4.313-.39 7.253-1.295l1.31 6.72ZM71.55 27.024v16.34c0 2.195 1.483 2.842 2.965 2.842.943.003 1.884-.083 2.811-.257v6.522a50.39 50.39 0 0 1-6.734.494c-6.8 0-8.37-3.617-8.37-8.72V15.832L71.574 11v9.047h5.761v6.977H71.55ZM91.172 27.024v16.34c0 2.195 1.482 2.842 2.964 2.842.944.003 1.885-.083 2.812-.257v6.522a50.39 50.39 0 0 1-6.735.494c-6.799 0-8.37-3.617-8.37-8.72V15.832L91.172 11v9.047h5.756v6.977h-5.756Z"/></svg>