<svg xmlns="http://www.w3.org/2000/svg" width="128" height="64" fill="none"><rect width="128" height="64" fill="#fff" rx="6"/><path fill="#015198" d="M39.312 18.802H57.784c1.51-.029 3.008.259 4.4.845.907.367 1.7.969 2.3 1.744a3.676 3.676 0 0 1-.148 4.612 8.84 8.84 0 0 1-3.812 2.712 16.184 16.184 0 0 1-6.2 1.143h-8.828c-.62 2.152-1.236 4.28-1.852 6.42h-9.348l5.016-17.476Zm7.144 7.713c.152 0 .228.023.304.023 2.156 0 4.312.02 6.468 0 .485-.029.963-.129 1.42-.296a2.632 2.632 0 0 0 1.664-1.524 1.724 1.724 0 0 0-1.08-2.46 2.54 2.54 0 0 0-.8-.14H47.72c-.428 1.485-.84 2.9-1.264 4.393v.004ZM76.72 29.863c-.62 2.164-1.228 4.272-1.84 6.4h-9.348c1.672-5.836 3.34-11.644 5.016-17.488H89.064a9.888 9.888 0 0 1 4.972 1.18 4.516 4.516 0 0 1 2.244 2.588c.464 1.492-.052 2.744-1.04 3.844-1.264 1.404-2.904 2.188-4.672 2.744-1.686.507-3.44.751-5.2.724H77.16l-.44.008Zm.968-3.368c.095.02.191.034.288.044 2.184 0 4.368.028 6.548 0a3.412 3.412 0 0 0 2.576-1.104c1.144-1.272.716-2.828-.892-3.252a2.376 2.376 0 0 0-.584-.06h-6.272c-.128 0-.256 0-.4.02-.428 1.432-.836 2.864-1.264 4.352ZM101.768 18.803h9.352c-1.248 4.36-2.488 8.68-3.744 13.072H122l-1.264 4.4h-23.98c1.676-5.84 3.344-11.652 5.012-17.472ZM30.928 31.462l-1.38 4.8H8.496l1.38-4.8h21.052ZM10.288 30.026l1.14-3.968H32.48l-1.14 3.968H10.288ZM11.852 24.583l.852-2.98h21.052l-.856 2.984-21.048-.004ZM13.132 20.123l.376-1.32H34.5a.904.904 0 0 1 0 .208c-.104.364-.212.728-.324 1.104l-21.044.008ZM101.752 43.319h-1.032l.208-.768h1.976c-.24.852-.472 1.664-.708 2.5h-.644v-.4a7.458 7.458 0 0 1-1.224.512c-1.272.292-2.116-.46-2.028-1.76a3.392 3.392 0 0 1 2.72-3.156c.377-.05.76-.034 1.132.048.692.148 1.024.684.936 1.452h-.912c-.32-.74-.908-.932-1.648-.536a2.668 2.668 0 0 0-1.2 2.4.836.836 0 0 0 .716.736 1.562 1.562 0 0 0 1.708-1.028ZM46.58 45.063h-.98c-.312-1.088-.624-2.164-.936-3.244h-.092l-.972 3.244h-.916l1.356-4.72h1.044c.304 1.053.605 2.1.904 3.144h.1c.304-1.044.604-2.088.916-3.152h.912l-1.336 4.728ZM72.152 42.803c.4.336.288.74.2 1.136-.088.396-.152.72-.236 1.116h-.992l.312-1.644c-.552-.328-1.108-.168-1.68-.2l-.556 1.844h-.96l1.36-4.696c.952 0 1.88-.036 2.8 0a.876.876 0 0 1 .76 1.124 1.815 1.815 0 0 1-1.008 1.32Zm-.1-1.548c-.556-.224-1.124-.092-1.712-.104L70 42.427h.932a3.13 3.13 0 0 0 .512-.028c.524-.088.784-.536.608-1.14v-.004ZM14.08 42.803a.756.756 0 0 1 .272.916c-.052.22-.132.428-.172.648-.04.22-.04.436-.06.684h-1.036c.056-.305.104-.596.16-.885.032-.151.092-.3.116-.455.04-.26-.056-.46-.336-.472h-1.328c-.088.3-.172.6-.26.9-.088.3-.18.603-.276.92h-.956l1.352-4.709c.956 0 1.876-.032 2.8 0a.801.801 0 0 1 .776.92 1.685 1.685 0 0 1-1.052 1.532Zm-2.14-.4c.552 0 1.048.028 1.54 0a.756.756 0 0 0 .608-.692c.04-.297-.088-.505-.4-.52-.452-.029-.912 0-1.392 0l-.356 1.212ZM15.104 43.603c0-1.868 1.436-3.42 3.16-3.412 1.2 0 1.856.736 1.676 1.928a3.6 3.6 0 0 1-1.3 2.436 2.773 2.773 0 0 1-2.24.616 1.395 1.395 0 0 1-1.296-1.568Zm1.016-.328c0 .8.472 1.236 1.16 1.06.351-.096.674-.276.94-.524a2.46 2.46 0 0 0 .704-1.628c.092-.9-.492-1.38-1.352-1.08-.27.097-.517.252-.72.456a2.688 2.688 0 0 0-.732 1.728v-.012ZM38.124 43.602c.056-1.476.96-3.16 2.824-3.368.35-.034.704-.005 1.044.088a1.296 1.296 0 0 1 .98 1.16 3.388 3.388 0 0 1-2.8 3.704c-.35.042-.704.015-1.044-.08-.684-.192-1.016-.704-1.004-1.504Zm3.836-1.412c0-.856-.4-1.232-1.088-1.128-.29.054-.563.173-.8.348a2.505 2.505 0 0 0-.916 1.792c-.12.908.504 1.416 1.364 1.104a1.95 1.95 0 0 0 .636-.4 2.644 2.644 0 0 0 .804-1.72v.004ZM93.34 43.579c.1-1.748 1.252-3.424 3.28-3.372 1.06.028 1.664.672 1.58 1.724-.104 1.3-.8 2.72-2.288 3.136a3.27 3.27 0 0 1-1.276.092c-.896-.12-1.312-.668-1.296-1.58Zm3.86-1.468c0-.72-.348-1.116-.984-1.056a2.025 2.025 0 0 0-.904.328 2.469 2.469 0 0 0-.916 1.68 1.045 1.045 0 0 0 .288 1.116 1.076 1.076 0 0 0 1.2.072c.2-.094.384-.22.544-.372a2.843 2.843 0 0 0 .772-1.768ZM104.732 43.643h.8c.212.696.512.86 1.284.732a.8.8 0 0 0 .784-.932c-.192-.076-.4-.184-.64-.256-.34-.104-.692-.164-1.028-.276a.855.855 0 0 1-.685-.796.845.845 0 0 1 .065-.368 2.076 2.076 0 0 1 2-1.536c.235-.018.472-.007.704.032.82.144 1.128.608.964 1.464h-.844c-.264-.648-.564-.8-1.256-.644-.44.1-.632.364-.592.884.164.06.352.144.544.2.4.116.8.2 1.176.332a.803.803 0 0 1 .584.41.798.798 0 0 1 .024.714 1.997 1.997 0 0 1-1.668 1.54c-.463.08-.937.08-1.4 0a1.02 1.02 0 0 1-.816-1.5ZM36.4 41.719h-.8c-.252-.656-.644-.848-1.296-.648a.672.672 0 0 0-.512.896c.144.052.312.124.484.176.288.084.58.164.876.228 1.128.248 1.2.976.68 1.796-.564.908-1.48 1.104-2.48 1.028a2.162 2.162 0 0 1-.572-.132 1.003 1.003 0 0 1-.596-1.388c.086-.017.173-.028.26-.032h.608c0 .4.132.684.532.732.492.06.988.072 1.356-.34.276-.312.188-.616-.22-.748-.408-.132-.8-.216-1.2-.336-.76-.22-.964-.624-.72-1.348.352-1.064 1.568-1.624 2.824-1.332a1.064 1.064 0 0 1 .776 1.448ZM27.948 43.663h.828c.208.632.36.744.968.736.684 0 .976-.204 1.16-.848a2.61 2.61 0 0 0-.504-.3c-.372-.124-.76-.196-1.136-.312-.712-.22-.908-.62-.676-1.332a2.084 2.084 0 0 1 1.96-1.392c.366-.018.733.028 1.084.136a.983.983 0 0 1 .568 1.364h-.864c-.032-.304-.1-.596-.448-.656a1.295 1.295 0 0 0-1.2.236c-.348.34-.252.676.216.8.4.112.8.204 1.2.324.704.216.908.624.684 1.332a2.224 2.224 0 0 1-2.044 1.452 3.782 3.782 0 0 1-.9-.06c-.784-.144-1.083-.638-.896-1.48ZM24.768 44.238H27.4l-.224.8h-3.6l1.352-4.708H28.4l-.22.8h-2.528l-.288 1.012h2.308l-.224.828h-2.312l-.368 1.268ZM81.512 42.166l-.228.837h-2.32l-.352 1.2h2.644l-.244.843h-3.6c.46-1.6.908-3.148 1.356-4.72h3.496l-.236.8h-2.52l-.308 1.04h2.312ZM67.824 45.067h-1.056l-.056-.924h-1.768l-.608.932h-1.024l3.036-4.732h1.156c.096 1.576.212 3.124.32 4.724Zm-2.348-1.816h1.152v-1.712l-.088-.028-1.064 1.74ZM50 40.355h1.12a.574.574 0 0 1 .048.14c.104 1.508.204 3.012.308 4.556H50.4l-.048-.912H48.58l-.58.928h-1.04L50 40.355Zm.284 1.2-.1-.032-1.056 1.72h1.156v-1.688ZM76.36 43.487h.904a2.697 2.697 0 0 1-3.14 1.648 1.261 1.261 0 0 1-.924-.856c-.596-1.876 1.244-4.216 3.2-4.072.972.068 1.516.716 1.32 1.624h-.88c-.256-.8-.852-1.008-1.576-.568a2.763 2.763 0 0 0-1.06 2.448.744.744 0 0 0 .8.652 1.321 1.321 0 0 0 1.012-.456c.128-.136.236-.284.344-.42ZM119.084 41.843h-.88c-.304-.872-1.084-1.068-1.792-.428a2.75 2.75 0 0 0-.872 2.084c0 .656.48.984 1.124.836a1.691 1.691 0 0 0 1.04-.856h.9c-.344 1.256-2.148 2.112-3.296 1.6a1.31 1.31 0 0 1-.8-1.016c-.324-1.648 1.04-3.6 2.7-3.82.39-.043.784 0 1.156.124a1.136 1.136 0 0 1 .72 1.476ZM60.82 40.362c.876 0 1.728-.032 2.576 0a.8.8 0 0 1 .724.8 2.072 2.072 0 0 1-1.9 2.165h-1.268l-.5 1.712h-.98c.452-1.56.9-3.113 1.348-4.677Zm.36 2.176c.428 0 .8.029 1.128 0a.856.856 0 0 0 .748-.667c.132-.445 0-.689-.488-.72h-.98c-.132.451-.26.875-.388 1.387h-.02ZM7.344 40.359c.876 0 1.716-.036 2.548 0a.888.888 0 0 1 .772 1.02 2.096 2.096 0 0 1-2.12 1.964H7.48l-.504 1.708H6l1.344-4.692Zm.364 2.196h.956a.9.9 0 0 0 .936-.8c.084-.352 0-.552-.368-.592a9.493 9.493 0 0 0-1.124 0l-.4 1.392ZM20.7 45.059h-.972c.452-1.6.896-3.136 1.348-4.704h3.376l-.22.8h-2.4l-.312 1.088h2.08l-.228.848h-2.084l-.588 1.968ZM110.88 41.158h-1.428l.232-.8h3.848l-.196.8h-1.448l-1.136 3.932h-.98l1.108-3.932ZM84.968 45.063H81.6l1.348-4.716h.98l-1.1 3.88H85.2l-.232.836ZM89.2 45.055l1.344-4.7h.984c-.368 1.292-.724 2.552-1.1 3.876H92.8c-.092.308-.164.556-.24.824H89.2ZM53.248 40.343h.98c-.368 1.292-.724 2.552-1.1 3.88h2.352l-.22.836h-3.364l1.352-4.716ZM37.092 45.066h-.988l1.352-4.716h.98c-.436 1.58-.892 3.133-1.344 4.716ZM104.18 40.347h.988c-.456 1.6-.9 3.136-1.348 4.708h-.988c.452-1.568.892-3.116 1.348-4.708ZM114.824 40.35c-.456 1.6-.904 3.157-1.352 4.712h-.984l1.352-4.712h.984Z"/></svg>