<svg xmlns="http://www.w3.org/2000/svg" viewBox="0 0 320 120"><defs><style>.a{fill:none;}.b{fill:#015198;}</style></defs><rect class="a" width="320" height="120"/><path class="b" d="M98.28,27c.38,0,.66,0,1,0h45.18a27,27,0,0,1,11,2.11,13.84,13.84,0,0,1,5.75,4.36A9.19,9.19,0,0,1,160.84,45a22.1,22.1,0,0,1-9.53,6.78,40.45,40.45,0,0,1-15.5,2.86c-6.74,0-13.48,0-20.22,0h-1.85c-1.55,5.38-3.09,10.7-4.63,16.05H85.74Zm17.86,19.28c.38,0,.57.06.76.06,5.39,0,10.78.05,16.17,0a12.56,12.56,0,0,0,3.55-.74,6.58,6.58,0,0,0,4.16-3.81,4.31,4.31,0,0,0-2.7-6.15,6.36,6.36,0,0,0-2-.35c-5.2,0-10.39,0-15.59,0H119.3C118.23,39,117.2,42.54,116.14,46.27Z"/><path class="b" d="M191.8,54.65c-1.55,5.41-3.07,10.68-4.6,16H163.83c4.18-14.59,8.35-29.11,12.54-43.72h1.1q22.6,0,45.19,0a24.72,24.72,0,0,1,12.43,2.95,11.29,11.29,0,0,1,5.61,6.47c1.16,3.73-.13,6.86-2.6,9.61-3.16,3.51-7.26,5.47-11.68,6.86a42.79,42.79,0,0,1-13,1.81c-6.84,0-13.68,0-20.52,0Zm2.42-8.42a6.44,6.44,0,0,0,.72.11c5.46,0,10.92.07,16.37,0a8.53,8.53,0,0,0,6.44-2.76c2.86-3.18,1.79-7.07-2.23-8.13a5.94,5.94,0,0,0-1.46-.15q-7.84,0-15.68,0c-.32,0-.64,0-1,.05C196.31,38.93,195.29,42.51,194.22,46.23Z"/><path class="b" d="M254.42,27H277.8c-3.12,10.9-6.22,21.7-9.36,32.68H305l-3.16,11H241.89C246.08,56.08,250.25,41.55,254.42,27Z"/><path class="b" d="M77.32,58.65l-3.45,12H21.24l3.45-12Z"/><path class="b" d="M25.72,55.06l2.85-9.92H81.2l-2.85,9.92Z"/><path class="b" d="M29.63,41.45,31.76,34H84.39l-2.14,7.46Z"/><path class="b" d="M32.83,30.3,33.77,27H86.25a2.25,2.25,0,0,1,0,.52c-.26.91-.53,1.82-.81,2.76Z"/><path class="b" d="M254.38,88.29H251.8l.52-1.92h4.94c-.6,2.13-1.18,4.16-1.77,6.25h-1.61v-1a18.59,18.59,0,0,1-3.06,1.28c-3.18.73-5.29-1.15-5.07-4.4a8.48,8.48,0,0,1,6.8-7.89,8.16,8.16,0,0,1,2.83.12c1.73.37,2.56,1.71,2.34,3.63h-2.28c-.8-1.85-2.27-2.33-4.12-1.34a6.66,6.66,0,0,0-3,6,2.09,2.09,0,0,0,1.79,1.84A3.9,3.9,0,0,0,254.38,88.29Z"/><path class="b" d="M116.45,92.65H114c-.78-2.72-1.56-5.41-2.34-8.11h-.23L109,92.65h-2.29l3.39-11.8h2.61q1.14,3.95,2.26,7.86l.25,0c.76-2.61,1.51-5.22,2.29-7.88h2.28Z"/><path class="b" d="M180.38,87c1,.84.72,1.85.5,2.84s-.38,1.8-.59,2.79h-2.48l.78-4.11c-1.38-.82-2.77-.42-4.2-.5L173,92.63h-2.4L174,80.89c2.38,0,4.7-.09,7,0a2.19,2.19,0,0,1,1.9,2.81A4.54,4.54,0,0,1,180.38,87Zm-.25-3.87c-1.39-.56-2.81-.23-4.28-.26L175,86.06h2.33a7.79,7.79,0,0,0,1.28-.07C179.92,85.77,180.57,84.65,180.13,83.14Z"/><path class="b" d="M35.2,87a1.89,1.89,0,0,1,.68,2.29c-.13.55-.33,1.07-.43,1.62s-.1,1.09-.15,1.71H32.71c.14-.76.26-1.49.4-2.21.08-.38.23-.75.29-1.14.1-.65-.14-1.15-.84-1.18-1.08,0-2.15,0-3.32,0-.22.75-.43,1.5-.65,2.25s-.45,1.51-.69,2.3H25.51l3.38-11.77c2.39,0,4.69-.08,7,0a2,2,0,0,1,1.94,2.3A4.21,4.21,0,0,1,35.2,87ZM29.85,86c1.38,0,2.62.07,3.85,0a1.89,1.89,0,0,0,1.52-1.73c.1-.74-.22-1.26-1-1.3-1.13-.07-2.28,0-3.48,0Z"/><path class="b" d="M37.76,89c0-4.67,3.59-8.55,7.9-8.53,3,0,4.64,1.84,4.19,4.82a9,9,0,0,1-3.25,6.09A6.93,6.93,0,0,1,41,92.92,3.49,3.49,0,0,1,37.76,89Zm2.54-.82c0,2,1.18,3.09,2.9,2.65a5.59,5.59,0,0,0,2.35-1.31,6.15,6.15,0,0,0,1.76-4.07c.23-2.25-1.23-3.45-3.38-2.7a4.88,4.88,0,0,0-1.8,1.14A6.72,6.72,0,0,0,40.3,88.21Z"/><path class="b" d="M95.31,89c.14-3.69,2.4-7.9,7.06-8.42a7.19,7.19,0,0,1,2.61.22,3.24,3.24,0,0,1,2.45,2.9,8.47,8.47,0,0,1-7,9.26,6.77,6.77,0,0,1-2.61-.2C96.11,92.28,95.28,91,95.31,89Zm9.59-3.53c0-2.14-1-3.08-2.72-2.82a4.81,4.81,0,0,0-2,.87A6.26,6.26,0,0,0,97.89,88c-.3,2.27,1.26,3.54,3.41,2.76a4.88,4.88,0,0,0,1.59-1A6.61,6.61,0,0,0,104.9,85.46Z"/><path class="b" d="M233.35,88.94c.25-4.37,3.13-8.56,8.2-8.43,2.65.07,4.16,1.68,3.95,4.31-.26,3.25-2,6.8-5.72,7.84a8.18,8.18,0,0,1-3.19.23C234.35,92.59,233.31,91.22,233.35,88.94ZM243,85.27c0-1.8-.87-2.79-2.46-2.64a5.06,5.06,0,0,0-2.26.82,6.17,6.17,0,0,0-2.29,4.2,2.61,2.61,0,0,0,.72,2.79,2.69,2.69,0,0,0,3,.18,5.05,5.05,0,0,0,1.36-.93A7.11,7.11,0,0,0,243,85.27Z"/><path class="b" d="M261.83,89.1h2c.53,1.74,1.28,2.15,3.21,1.83A2,2,0,0,0,269,88.6c-.48-.19-1-.46-1.6-.64-.85-.26-1.73-.41-2.57-.69a2.13,2.13,0,0,1-1.55-2.91,5.2,5.2,0,0,1,5-3.84,7.4,7.4,0,0,1,1.76.08c2.05.36,2.82,1.52,2.41,3.66h-2.11c-.66-1.62-1.41-2-3.14-1.61-1.1.25-1.58.91-1.48,2.21.41.15.88.36,1.36.5,1,.29,2,.5,2.94.83A2,2,0,0,1,271.54,89a5,5,0,0,1-4.17,3.85,10.28,10.28,0,0,1-3.5,0A2.55,2.55,0,0,1,261.83,89.1Z"/><path class="b" d="M91,84.29H89c-.63-1.64-1.61-2.12-3.24-1.62a1.68,1.68,0,0,0-1.28,2.24c.36.13.78.31,1.21.44.72.21,1.45.41,2.19.57,2.82.62,3,2.44,1.7,4.49-1.41,2.27-3.7,2.76-6.2,2.57a5.41,5.41,0,0,1-1.43-.33,2.51,2.51,0,0,1-1.49-3.47,4.44,4.44,0,0,1,.65-.08h1.52c0,1,.33,1.71,1.33,1.83,1.23.15,2.47.18,3.39-.85.69-.78.47-1.54-.55-1.87s-2-.54-3-.84C81.9,86.82,81.39,85.81,82,84c.88-2.66,3.92-4.06,7.06-3.33A2.66,2.66,0,0,1,91,84.29Z"/><path class="b" d="M69.87,89.15h2.07c.52,1.58.9,1.86,2.42,1.84,1.71,0,2.44-.51,2.9-2.12A6.54,6.54,0,0,0,76,88.12c-.93-.31-1.9-.49-2.84-.78-1.78-.55-2.27-1.55-1.69-3.33a5.21,5.21,0,0,1,4.9-3.48,8,8,0,0,1,2.71.34,2.46,2.46,0,0,1,1.42,3.41H78.34c-.08-.76-.25-1.49-1.12-1.64a3.24,3.24,0,0,0-3,.59c-.87.85-.63,1.69.54,2,1,.28,2,.51,3,.81,1.76.54,2.27,1.56,1.71,3.33A5.56,5.56,0,0,1,74.36,93a9.44,9.44,0,0,1-2.25-.15Q69.17,92.31,69.87,89.15Z"/><path class="b" d="M61.92,90.59H68.5l-.56,2h-9l3.38-11.77H71l-.55,2H64.13l-.72,2.53h5.77l-.56,2.07H62.84Z"/><path class="b" d="M203.78,85.41l-.57,2.09h-5.8l-.88,3h6.61l-.61,2.11h-9c1.15-4,2.27-7.87,3.39-11.8h8.74l-.59,2h-6.3L198,85.41Z"/><path class="b" d="M169.56,92.66h-2.64l-.14-2.31h-4.42l-1.52,2.33h-2.56l7.59-11.83h2.89C169,84.79,169.29,88.66,169.56,92.66Zm-5.87-4.54h2.88V83.84l-.22-.07Z"/><path class="b" d="M125,80.88h2.8a1.43,1.43,0,0,1,.12.35c.26,3.77.51,7.53.77,11.39H126l-.12-2.28h-4.43L120,92.66H117.4Zm.71,3-.25-.08-2.64,4.3h2.89Z"/><path class="b" d="M190.9,88.71h2.26a6.74,6.74,0,0,1-7.85,4.12A3.15,3.15,0,0,1,183,90.69c-1.49-4.69,3.11-10.54,8-10.18,2.43.17,3.79,1.79,3.3,4.06H192.1c-.64-2-2.13-2.52-3.94-1.42a6.91,6.91,0,0,0-2.65,6.12,1.86,1.86,0,0,0,2,1.63,3.3,3.3,0,0,0,2.53-1.14C190.36,89.42,190.63,89.05,190.9,88.71Z"/><path class="b" d="M297.71,84.6h-2.2c-.76-2.18-2.71-2.67-4.48-1.07a6.85,6.85,0,0,0-2.18,5.21c0,1.64,1.2,2.46,2.81,2.09a4.23,4.23,0,0,0,2.6-2.14h2.25c-.86,3.14-5.37,5.28-8.24,4a3.29,3.29,0,0,1-2-2.54c-.81-4.12,2.6-9,6.75-9.55a6.77,6.77,0,0,1,2.89.31A2.85,2.85,0,0,1,297.71,84.6Z"/><path class="b" d="M152.05,80.9c2.19,0,4.32-.08,6.44,0a2,2,0,0,1,1.81,2,5.18,5.18,0,0,1-4.75,5.41c-1,0-2.08,0-3.17,0l-1.25,4.28h-2.45C149.81,88.69,150.93,84.81,152.05,80.9Zm.9,5.44c1.07,0,2,.07,2.82,0a2.14,2.14,0,0,0,1.87-1.67c.33-1.11,0-1.72-1.22-1.8-.78,0-1.56,0-2.45,0C153.64,84,153.32,85.06,153,86.34Z"/><path class="b" d="M18.36,80.89c2.19,0,4.29-.09,6.37,0a2.22,2.22,0,0,1,1.93,2.55,5.24,5.24,0,0,1-5.3,4.91H18.7l-1.26,4.27H15Zm.91,5.49c1,0,1.67,0,2.39,0a2.25,2.25,0,0,0,2.34-2c.21-.88,0-1.38-.92-1.48a23.8,23.8,0,0,0-2.81,0Z"/><path class="b" d="M51.75,92.64H49.32c1.13-4,2.24-7.84,3.37-11.76h8.44l-.55,2h-6l-.78,2.72H59l-.57,2.12H53.22Z"/><path class="b" d="M277.2,82.89h-3.57l.58-2h9.62l-.49,2h-3.62l-2.84,9.83h-2.45Z"/><path class="b" d="M212.42,92.65H204l3.37-11.79h2.45l-2.75,9.7H213Z"/><path class="b" d="M223,92.63l3.36-11.75h2.46c-.92,3.23-1.81,6.38-2.75,9.69H232c-.23.77-.41,1.39-.6,2.06Z"/><path class="b" d="M133.12,80.85h2.45c-.92,3.23-1.81,6.38-2.75,9.7h5.88l-.55,2.09h-8.41Z"/><path class="b" d="M92.73,92.66H90.26l3.38-11.79h2.45C95,84.82,93.86,88.7,92.73,92.66Z"/><path class="b" d="M260.45,80.86h2.47c-1.14,4-2.25,7.84-3.37,11.77h-2.47C258.21,88.71,259.31,84.84,260.45,80.86Z"/><path class="b" d="M287.06,80.87c-1.14,4-2.26,7.89-3.38,11.78h-2.46c1.15-4,2.26-7.88,3.38-11.78Z"/></svg>