<svg width="128" height="64" viewBox="0 0 128 64" fill="none" xmlns="http://www.w3.org/2000/svg">
<rect width="128" height="64" rx="6" fill="white"/>
<path d="M39.3119 18.8025C39.4639 18.8025 39.5759 18.8025 39.7119 18.8025H57.7839C59.2934 18.7731 60.7924 19.0607 62.1839 19.6465C63.0913 20.0142 63.8849 20.616 64.4839 21.3905C64.9896 22.0605 65.2506 22.8835 65.2237 23.7226C65.1968 24.5616 64.8835 25.3662 64.3359 26.0025C63.3318 27.2324 62.0151 28.1692 60.5239 28.7145C58.5522 29.4986 56.4456 29.8873 54.3239 29.8585C51.6279 29.8585 48.9319 29.8585 46.2359 29.8585H45.4959C44.8759 32.0105 44.2599 34.1385 43.6439 36.2785H34.2959L39.3119 18.8025ZM46.4559 26.5145C46.6079 26.5145 46.6839 26.5385 46.7599 26.5385C48.9159 26.5385 51.0719 26.5585 53.2279 26.5385C53.7131 26.509 54.1914 26.4093 54.6479 26.2425C55.0209 26.1277 55.3637 25.9314 55.6515 25.6678C55.9393 25.4042 56.1649 25.08 56.3119 24.7185C56.4309 24.4898 56.497 24.2373 56.5055 23.9797C56.514 23.7221 56.4647 23.4658 56.361 23.2298C56.2574 22.9938 56.1022 22.784 55.9068 22.6159C55.7114 22.4478 55.4808 22.3256 55.2319 22.2585C54.9745 22.1692 54.7043 22.122 54.4319 22.1185C52.3519 22.1185 50.2759 22.1185 48.1959 22.1185H47.7199C47.2919 23.6025 46.8799 25.0185 46.4559 26.5105V26.5145Z" fill="#015198"/>
<path d="M76.72 29.8626C76.1 32.0266 75.492 34.1346 74.88 36.2626H65.532C67.204 30.4266 68.872 24.6186 70.548 18.7746H70.988C77.0146 18.7746 83.04 18.7746 89.064 18.7746C90.7961 18.7255 92.5107 19.1324 94.036 19.9546C95.0948 20.4891 95.9009 21.4187 96.28 22.5426C96.744 24.0346 96.228 25.2866 95.24 26.3866C93.976 27.7906 92.336 28.5746 90.568 29.1306C88.8822 29.6379 87.1282 29.8821 85.368 29.8546C82.632 29.8546 79.896 29.8546 77.16 29.8546L76.72 29.8626ZM77.688 26.4946C77.7831 26.5147 77.8792 26.5294 77.976 26.5386C80.16 26.5386 82.344 26.5666 84.524 26.5386C85.007 26.5475 85.4865 26.4536 85.9306 26.2633C86.3746 26.073 86.7732 25.7905 87.1 25.4346C88.244 24.1626 87.816 22.6066 86.208 22.1826C86.0165 22.1385 85.8204 22.1184 85.624 22.1226C83.5333 22.1226 81.4427 22.1226 79.352 22.1226C79.224 22.1226 79.096 22.1226 78.952 22.1426C78.524 23.5746 78.116 25.0066 77.688 26.4946Z" fill="#015198"/>
<path d="M101.768 18.8026H111.12C109.872 23.1626 108.632 27.4826 107.376 31.8746H122L120.736 36.2746H96.7561C98.4321 30.4346 100.1 24.6226 101.768 18.8026Z" fill="#015198"/>
<path d="M30.9281 31.4625L29.5481 36.2625H8.49609L9.87609 31.4625H30.9281Z" fill="#015198"/>
<path d="M10.2881 30.0265L11.4281 26.0585H32.4801L31.3401 30.0265H10.2881Z" fill="#015198"/>
<path d="M11.8521 24.5827L12.7041 21.6027H33.7561L32.9001 24.5867L11.8521 24.5827Z" fill="#015198"/>
<path d="M13.1321 20.1226L13.5081 18.8026H34.5001C34.5081 18.8717 34.5081 18.9415 34.5001 19.0106C34.3961 19.3746 34.2881 19.7386 34.1761 20.1146L13.1321 20.1226Z" fill="#015198"/>
<path d="M101.752 43.3186H100.72L100.928 42.5506H102.904C102.664 43.4026 102.432 44.2146 102.196 45.0506H101.552V44.6506C101.16 44.8574 100.75 45.0287 100.328 45.1626C99.056 45.4546 98.212 44.7026 98.3 43.4026C98.3377 42.6489 98.6257 41.9293 99.1183 41.3577C99.611 40.7861 100.28 40.3951 101.02 40.2466C101.397 40.1964 101.78 40.2127 102.152 40.2946C102.844 40.4426 103.176 40.9786 103.088 41.7466H102.176C101.856 41.0066 101.268 40.8146 100.528 41.2106C100.134 41.4687 99.8146 41.8268 99.6038 42.2484C99.3929 42.6701 99.2978 43.1401 99.328 43.6106C99.3485 43.7954 99.43 43.9681 99.5597 44.1014C99.6894 44.2347 99.8598 44.321 100.044 44.3466C100.404 44.4014 100.772 44.3287 101.084 44.141C101.396 43.9532 101.632 43.6623 101.752 43.3186V43.3186Z" fill="#015198"/>
<path d="M46.5801 45.0626H45.6001C45.2881 43.9746 44.9761 42.8986 44.6641 41.8186H44.5721L43.6001 45.0626H42.6841L44.0401 40.3426H45.0841C45.3881 41.3959 45.6894 42.4439 45.9881 43.4866H46.0881C46.3921 42.4426 46.6921 41.3986 47.0041 40.3346H47.9161L46.5801 45.0626Z" fill="#015198"/>
<path d="M72.152 42.8027C72.552 43.1387 72.44 43.5426 72.352 43.9386C72.264 44.3346 72.2 44.6587 72.116 45.0547H71.124L71.436 43.4107C70.884 43.0827 70.328 43.2427 69.756 43.2107L69.2 45.0547H68.24L69.6 40.3587C70.552 40.3587 71.48 40.3227 72.4 40.3587C72.5293 40.3704 72.6544 40.4107 72.7663 40.4767C72.8781 40.5428 72.9738 40.6328 73.0466 40.7404C73.1193 40.848 73.1672 40.9704 73.1868 41.0988C73.2065 41.2271 73.1973 41.3583 73.16 41.4827C73.1091 41.767 72.991 42.0351 72.8157 42.2646C72.6404 42.4942 72.4129 42.6787 72.152 42.8027ZM72.052 41.2547C71.496 41.0307 70.928 41.1627 70.34 41.1507L70 42.4267H70.932C71.1031 42.4314 71.2744 42.422 71.444 42.3987C71.968 42.3107 72.228 41.8627 72.052 41.2587V41.2547Z" fill="#015198"/>
<path d="M14.0801 42.8025C14.224 42.9005 14.3296 43.0452 14.3792 43.2121C14.4287 43.379 14.4192 43.5579 14.3521 43.7185C14.3001 43.9385 14.2201 44.1465 14.1801 44.3665C14.1401 44.5865 14.1401 44.8025 14.1201 45.0505H13.0841C13.1401 44.7465 13.1881 44.4545 13.2441 44.1665C13.2761 44.0145 13.3361 43.8665 13.3601 43.7105C13.4001 43.4505 13.3041 43.2505 13.0241 43.2385C12.5921 43.2385 12.1641 43.2385 11.6961 43.2385C11.6081 43.5385 11.5241 43.8385 11.4361 44.1385C11.3481 44.4385 11.2561 44.7425 11.1601 45.0585H10.2041L11.5561 40.3505C12.5121 40.3505 13.4321 40.3185 14.3561 40.3505C14.47 40.3527 14.5822 40.3791 14.6851 40.4281C14.788 40.4771 14.8792 40.5475 14.9527 40.6346C15.0262 40.7217 15.0802 40.8235 15.1111 40.9332C15.1421 41.0428 15.1492 41.1579 15.1321 41.2705C15.1264 41.6009 15.0236 41.9224 14.8366 42.1948C14.6495 42.4672 14.3864 42.6786 14.0801 42.8025V42.8025ZM11.9401 42.4025C12.4921 42.4025 12.9881 42.4305 13.4801 42.4025C13.6435 42.3703 13.7917 42.285 13.9017 42.1598C14.0116 42.0347 14.0772 41.8767 14.0881 41.7105C14.1281 41.4145 14.0001 41.2065 13.6881 41.1905C13.2361 41.1625 12.7761 41.1905 12.2961 41.1905L11.9401 42.4025Z" fill="#015198"/>
<path d="M15.104 43.6026C15.104 41.7346 16.54 40.1826 18.264 40.1906C19.464 40.1906 20.12 40.9266 19.94 42.1186C19.8943 42.5902 19.7559 43.0481 19.5328 43.4662C19.3098 43.8842 19.0063 44.2541 18.64 44.5546C18.3334 44.8132 17.9744 45.0022 17.5877 45.1086C17.2009 45.2149 16.7957 45.2361 16.4 45.1706C16.2098 45.1584 16.0241 45.1075 15.8544 45.0208C15.6846 44.9342 15.5344 44.8137 15.413 44.6668C15.2916 44.5199 15.2015 44.3497 15.1484 44.1667C15.0952 43.9836 15.0801 43.7917 15.104 43.6026V43.6026ZM16.12 43.2746C16.12 44.0746 16.592 44.5106 17.28 44.3346C17.6313 44.239 17.954 44.0592 18.22 43.8106C18.649 43.3743 18.9 42.7939 18.924 42.1826C19.016 41.2826 18.432 40.8026 17.572 41.1026C17.3014 41.1997 17.0555 41.3554 16.852 41.5586C16.4083 42.0279 16.1485 42.6413 16.12 43.2866V43.2746Z" fill="#015198"/>
<path d="M38.1241 43.6024C38.1801 42.1264 39.0841 40.4424 40.9481 40.2344C41.2985 40.1996 41.6524 40.2294 41.9921 40.3224C42.2567 40.3881 42.4938 40.5356 42.6698 40.7439C42.8457 40.9521 42.9515 41.2106 42.9721 41.4824C43.0648 42.3403 42.8267 43.2012 42.3064 43.8895C41.7861 44.5778 41.0227 45.0417 40.1721 45.1864C39.8222 45.2279 39.4676 45.2008 39.1281 45.1064C38.4441 44.9144 38.1121 44.4024 38.1241 43.6024ZM41.9601 42.1904C41.9601 41.3344 41.5601 40.9584 40.8721 41.0624C40.5823 41.1157 40.3086 41.2347 40.0721 41.4104C39.8038 41.6295 39.5838 41.9019 39.4261 42.2104C39.2685 42.5188 39.1765 42.8566 39.1561 43.2024C39.0361 44.1104 39.6601 44.6184 40.5201 44.3064C40.756 44.2156 40.972 44.0797 41.1561 43.9064C41.6278 43.4524 41.9143 42.8395 41.9601 42.1864V42.1904Z" fill="#015198"/>
<path d="M93.34 43.5786C93.44 41.8306 94.592 40.1546 96.62 40.2066C97.68 40.2346 98.284 40.8786 98.2 41.9306C98.096 43.2306 97.4 44.6506 95.912 45.0666C95.4969 45.181 95.0633 45.2122 94.636 45.1586C93.74 45.0386 93.324 44.4906 93.34 43.5786ZM97.2 42.1106C97.2 41.3906 96.852 40.9946 96.216 41.0546C95.8927 41.0897 95.5826 41.2023 95.312 41.3826C95.0552 41.5876 94.8419 41.8417 94.6846 42.1302C94.5273 42.4187 94.4292 42.7357 94.396 43.0626C94.3292 43.2564 94.3209 43.4655 94.3721 43.664C94.4233 43.8624 94.5318 44.0414 94.684 44.1786C94.8542 44.3087 95.0593 44.385 95.2731 44.3978C95.4868 44.4107 95.6996 44.3594 95.884 44.2506C96.0845 44.1572 96.2683 44.0316 96.428 43.8786C96.8835 43.3972 97.1566 42.7719 97.2 42.1106Z" fill="#015198"/>
<path d="M104.732 43.6426H105.532C105.744 44.3386 106.044 44.5026 106.816 44.3746C106.932 44.3739 107.046 44.348 107.151 44.2988C107.256 44.2496 107.349 44.1782 107.423 44.0896C107.498 44.001 107.552 43.8972 107.583 43.7855C107.613 43.6738 107.619 43.5568 107.6 43.4426C107.408 43.3666 107.2 43.2586 106.96 43.1866C106.62 43.0826 106.268 43.0226 105.932 42.9106C105.808 42.886 105.692 42.8342 105.59 42.7589C105.489 42.6837 105.406 42.5869 105.346 42.4755C105.287 42.3641 105.253 42.2409 105.247 42.1149C105.241 41.9888 105.263 41.863 105.312 41.7466C105.431 41.3069 105.691 40.9184 106.053 40.6409C106.414 40.3635 106.857 40.2123 107.312 40.2106C107.547 40.1932 107.784 40.2039 108.016 40.2426C108.836 40.3866 109.144 40.8506 108.98 41.7066H108.136C107.872 41.0586 107.572 40.9066 106.88 41.0626C106.44 41.1626 106.248 41.4266 106.288 41.9466C106.452 42.0066 106.64 42.0906 106.832 42.1466C107.232 42.2626 107.632 42.3466 108.008 42.4786C108.131 42.4971 108.247 42.5438 108.349 42.615C108.45 42.6862 108.533 42.78 108.592 42.889C108.651 42.998 108.684 43.1192 108.688 43.243C108.692 43.3668 108.668 43.4899 108.616 43.6026C108.527 43.9981 108.32 44.3572 108.022 44.6322C107.724 44.9072 107.349 45.0852 106.948 45.1426C106.485 45.2226 106.011 45.2226 105.548 45.1426C105.379 45.1289 105.216 45.0734 105.074 44.981C104.932 44.8886 104.815 44.7622 104.734 44.6133C104.653 44.4645 104.611 44.2977 104.61 44.1282C104.61 43.9588 104.652 43.7918 104.732 43.6426Z" fill="#015198"/>
<path d="M36.4001 41.7186H35.6001C35.3481 41.0626 34.9561 40.8706 34.3041 41.0706C34.2072 41.0879 34.1152 41.1262 34.0348 41.1829C33.9543 41.2397 33.8873 41.3134 33.8384 41.3988C33.7896 41.4843 33.7601 41.5795 33.7521 41.6776C33.7441 41.7757 33.7578 41.8744 33.7921 41.9666C33.9361 42.0186 34.1041 42.0906 34.2761 42.1426C34.5641 42.2266 34.8561 42.3066 35.1521 42.3706C36.2801 42.6186 36.3521 43.3466 35.8321 44.1666C35.2681 45.0746 34.3521 45.2706 33.3521 45.1946C33.1563 45.1768 32.9639 45.1324 32.7801 45.0626C32.6441 45.0185 32.519 44.9458 32.4134 44.8494C32.3077 44.753 32.2238 44.6352 32.1674 44.5038C32.111 44.3724 32.0833 44.2304 32.0861 44.0874C32.089 43.9444 32.1224 43.8037 32.1841 43.6746C32.2699 43.6576 32.3568 43.6469 32.4441 43.6426H33.0521C33.0521 44.0426 33.1841 44.3266 33.5841 44.3746C34.0761 44.4346 34.5721 44.4466 34.9401 44.0346C35.2161 43.7226 35.1281 43.4186 34.7201 43.2866C34.3121 43.1546 33.9201 43.0706 33.5201 42.9506C32.7601 42.7306 32.5561 42.3266 32.8001 41.6026C33.1521 40.5386 34.3681 39.9786 35.6241 40.2706C35.7781 40.3013 35.9234 40.3658 36.0496 40.4593C36.1758 40.5528 36.2797 40.6731 36.3538 40.8115C36.428 40.9499 36.4706 41.103 36.4786 41.2599C36.4866 41.4167 36.4598 41.5734 36.4001 41.7186V41.7186Z" fill="#015198"/>
<path d="M27.9479 43.6626H28.7759C28.9839 44.2946 29.1359 44.4066 29.7439 44.3986C30.4279 44.3986 30.7199 44.1946 30.9039 43.5506C30.7477 43.432 30.5786 43.3313 30.3999 43.2506C30.0279 43.1266 29.6399 43.0546 29.2639 42.9386C28.5519 42.7186 28.3559 42.3186 28.5879 41.6066C28.7308 41.2005 28.996 40.8487 29.3469 40.5995C29.6979 40.3502 30.1174 40.2157 30.5479 40.2146C30.9143 40.1974 31.281 40.2434 31.6319 40.3506C31.7643 40.3955 31.8856 40.468 31.9877 40.5635C32.0899 40.659 32.1705 40.7751 32.2242 40.9041C32.278 41.0332 32.3036 41.1722 32.2994 41.312C32.2952 41.4517 32.2613 41.589 32.1999 41.7146H31.3359C31.3039 41.4106 31.2359 41.1186 30.8879 41.0586C30.6839 40.9961 30.4676 40.9849 30.2583 41.0261C30.049 41.0673 29.853 41.1595 29.6879 41.2946C29.3399 41.6346 29.4359 41.9706 29.9039 42.0946C30.3039 42.2066 30.7039 42.2986 31.1039 42.4186C31.8079 42.6346 32.0119 43.0426 31.7879 43.7506C31.6327 44.1701 31.3546 44.533 30.99 44.792C30.6254 45.0511 30.1911 45.1941 29.7439 45.2026C29.4426 45.2186 29.1404 45.1984 28.8439 45.1426C28.0599 44.9986 27.7612 44.5052 27.9479 43.6626Z" fill="#015198"/>
<path d="M24.7679 44.2384H27.3999L27.1759 45.0384H23.5759L24.9279 40.3304H28.3999L28.1799 41.1304H25.6519L25.3639 42.1424H27.6719L27.4479 42.9704H25.1359L24.7679 44.2384Z" fill="#015198"/>
<path d="M81.5121 42.1665L81.2841 43.0025H78.9641L78.6121 44.2025H81.2561L81.0121 45.0465H77.4121C77.8721 43.4465 78.3201 41.8985 78.7681 40.3265H82.2641L82.0281 41.1265H79.5081L79.2001 42.1665H81.5121Z" fill="#015198"/>
<path d="M67.824 45.0667H66.768L66.712 44.1427H64.944L64.336 45.0747H63.312L66.348 40.3427H67.504C67.6 41.9187 67.716 43.4667 67.824 45.0667ZM65.476 43.2507H66.628V41.5387L66.54 41.5107L65.476 43.2507Z" fill="#015198"/>
<path d="M50 40.3546H51.12C51.142 40.399 51.1581 40.4461 51.168 40.4946C51.272 42.0026 51.372 43.5066 51.476 45.0506H50.4L50.352 44.1386H48.58L48 45.0666H46.96L50 40.3546ZM50.284 41.5546L50.184 41.5226L49.128 43.2426H50.284V41.5546Z" fill="#015198"/>
<path d="M76.36 43.4867H77.264C77.0283 44.0946 76.5804 44.5966 76.0031 44.8996C75.4257 45.2026 74.7582 45.2861 74.124 45.1347C73.9084 45.0856 73.7095 44.9806 73.5473 44.8304C73.3851 44.6801 73.2653 44.4899 73.2 44.2787C72.604 42.4027 74.444 40.0627 76.4 40.2067C77.372 40.2747 77.916 40.9227 77.72 41.8307H76.84C76.584 41.0307 75.988 40.8227 75.264 41.2627C74.8951 41.5481 74.6044 41.9223 74.4191 42.3503C74.2338 42.7783 74.1597 43.2463 74.204 43.7106C74.2271 43.9017 74.3234 44.0763 74.4725 44.1979C74.6217 44.3195 74.8122 44.3785 75.004 44.3627C75.1956 44.3647 75.3855 44.3249 75.5602 44.2462C75.735 44.1674 75.8905 44.0516 76.016 43.9067C76.144 43.7707 76.252 43.6227 76.36 43.4867Z" fill="#015198"/>
<path d="M119.084 41.8427H118.204C117.9 40.9707 117.12 40.7747 116.412 41.4147C116.127 41.6801 115.902 42.0032 115.751 42.3626C115.601 42.722 115.529 43.1093 115.54 43.4987C115.54 44.1547 116.02 44.4827 116.664 44.3347C116.887 44.2708 117.094 44.1619 117.273 44.0146C117.452 43.8674 117.598 43.6849 117.704 43.4787H118.604C118.26 44.7347 116.456 45.5907 115.308 45.0787C115.098 44.9925 114.915 44.8537 114.775 44.6757C114.634 44.4977 114.543 44.2865 114.508 44.0627C114.184 42.4147 115.548 40.4627 117.208 40.2427C117.598 40.1998 117.992 40.2421 118.364 40.3667C118.51 40.4138 118.645 40.4899 118.76 40.5904C118.876 40.6909 118.971 40.8138 119.038 40.9516C119.105 41.0894 119.144 41.2393 119.152 41.3924C119.16 41.5455 119.137 41.6987 119.084 41.8427Z" fill="#015198"/>
<path d="M60.8199 40.3625C61.6959 40.3625 62.5479 40.3305 63.3959 40.3625C63.5947 40.3815 63.7791 40.474 63.9131 40.6221C64.0471 40.7701 64.1208 40.9628 64.1199 41.1625C64.1456 41.6991 63.9618 42.2248 63.6073 42.6285C63.2528 43.0322 62.7554 43.2825 62.2199 43.3265C61.8199 43.3265 61.3879 43.3265 60.9519 43.3265L60.4519 45.0385H59.4719C59.9239 43.4785 60.3719 41.9265 60.8199 40.3625ZM61.1799 42.5385C61.6079 42.5385 61.9799 42.5665 62.3079 42.5385C62.487 42.52 62.6557 42.4454 62.79 42.3255C62.9243 42.2056 63.0173 42.0464 63.0559 41.8705C63.1879 41.4265 63.0559 41.1825 62.5679 41.1505C62.2559 41.1505 61.9439 41.1505 61.5879 41.1505C61.4559 41.6025 61.3279 42.0265 61.1999 42.5385H61.1799Z" fill="#015198"/>
<path d="M7.344 40.3587C8.22 40.3587 9.06 40.3227 9.892 40.3587C10.0106 40.3728 10.1251 40.4107 10.2287 40.4701C10.3323 40.5296 10.4228 40.6093 10.4949 40.7045C10.567 40.7997 10.6191 40.9085 10.6481 41.0243C10.6772 41.1402 10.6826 41.2607 10.664 41.3787C10.6302 41.9155 10.3912 42.4188 9.99659 42.7844C9.60197 43.15 9.08189 43.3499 8.544 43.3427H7.48L6.976 45.0507H6L7.344 40.3587ZM7.708 42.5547C8.108 42.5547 8.376 42.5547 8.664 42.5547C8.89246 42.5652 9.11636 42.4884 9.29022 42.3398C9.46407 42.1912 9.57483 41.982 9.6 41.7547C9.684 41.4027 9.6 41.2027 9.232 41.1627C8.85766 41.1405 8.48234 41.1405 8.108 41.1627L7.708 42.5547Z" fill="#015198"/>
<path d="M20.7 45.0586H19.728C20.18 43.4586 20.624 41.9226 21.076 40.3546H24.452L24.232 41.1546H21.832L21.52 42.2426H23.6L23.372 43.0906H21.288L20.7 45.0586Z" fill="#015198"/>
<path d="M110.88 41.1585H109.452L109.684 40.3585H113.532L113.336 41.1585H111.888L110.752 45.0905H109.772L110.88 41.1585Z" fill="#015198"/>
<path d="M84.9681 45.0626H81.6001L82.9481 40.3466H83.9281L82.8281 44.2266H85.2001L84.9681 45.0626Z" fill="#015198"/>
<path d="M89.2 45.0546L90.544 40.3546H91.528C91.16 41.6466 90.804 42.9066 90.428 44.2306H92.8C92.708 44.5386 92.6359 44.7866 92.5599 45.0546H89.2Z" fill="#015198"/>
<path d="M53.248 40.3427H54.228C53.86 41.6347 53.504 42.8947 53.128 44.2227H55.48L55.26 45.0587H51.896L53.248 40.3427Z" fill="#015198"/>
<path d="M37.092 45.0665H36.104L37.456 40.3505H38.436C38 41.9305 37.544 43.4825 37.092 45.0665Z" fill="#015198"/>
<path d="M104.18 40.3466H105.168C104.712 41.9466 104.268 43.4826 103.82 45.0546H102.832C103.284 43.4866 103.724 41.9386 104.18 40.3466Z" fill="#015198"/>
<path d="M114.824 40.3505C114.368 41.9505 113.92 43.5065 113.472 45.0625H112.488C112.948 43.4625 113.392 41.9105 113.84 40.3505H114.824Z" fill="#015198"/>
</svg>
