<svg width="128" height="64" viewBox="0 0 128 64" fill="none" xmlns="http://www.w3.org/2000/svg">
<rect width="128" height="64" rx="6" fill="#34A02E"/>
<path fill-rule="evenodd" clip-rule="evenodd" d="M18.5772 20.055C18.5497 20.0826 18.4121 20.0826 18.2745 20.0826C18.1369 20.0826 18.0268 20.1101 18.0268 20.1376C18.0268 20.1651 17.9167 20.1926 17.7791 20.1926C17.6415 20.1926 17.5314 20.1926 17.5039 20.2202C17.5039 20.2477 17.4213 20.2752 17.3388 20.2752C17.2287 20.2752 17.1461 20.3027 17.1461 20.3302C17.1186 20.3578 17.0635 20.3578 16.981 20.3578C16.8984 20.3578 16.8434 20.3853 16.8159 20.4128C16.8159 20.4403 16.7058 20.4679 16.5682 20.4954C16.4306 20.4954 16.3205 20.5229 16.3205 20.5504C16.293 20.5779 16.2654 20.6055 16.2104 20.6055C16.1003 20.6055 15.8802 20.688 15.8802 20.7431C15.8802 20.7706 15.8526 20.7706 15.7976 20.7706C15.7426 20.7706 15.4398 20.9082 15.1096 21.0733C14.8069 21.2384 14.5041 21.376 14.4766 21.376C14.4491 21.376 14.394 21.4311 14.3665 21.4586C14.339 21.5136 14.2564 21.5687 14.2289 21.5687C14.1739 21.5687 14.1464 21.5687 14.1464 21.5962C14.1464 21.6237 14.0913 21.6512 14.0638 21.6512C14.0088 21.6512 13.9537 21.7063 13.8987 21.7338C13.8712 21.7888 13.8161 21.8439 13.7886 21.8439C13.7611 21.8439 13.6785 21.8989 13.6235 21.9815C13.5409 22.0365 13.4583 22.1191 13.4308 22.1191C13.4033 22.1191 13.3207 22.1741 13.2657 22.2292C13.2107 22.2842 13.1281 22.3393 13.1006 22.3393C13.0731 22.3393 12.9079 22.4769 12.7428 22.6695C12.5502 22.8346 12.4126 22.9722 12.385 22.9722C12.3025 22.9722 11.8071 23.4951 11.8071 23.5502C11.8071 23.5777 11.6695 23.7153 11.5319 23.8804C11.3668 24.018 11.2567 24.1831 11.2567 24.2107C11.2567 24.2382 11.1741 24.3207 11.0916 24.4033C11.009 24.4859 10.9264 24.5959 10.9264 24.6235C10.9264 24.651 10.8714 24.706 10.8439 24.7611C10.7888 24.7886 10.7338 24.8436 10.7338 24.8712C10.7338 24.8987 10.7063 24.9537 10.6512 25.0088C10.5962 25.0363 10.5687 25.0913 10.5687 25.1464C10.5687 25.1739 10.5136 25.2289 10.4586 25.284C10.4311 25.3115 10.376 25.3665 10.376 25.394C10.376 25.4766 10.2659 25.7243 10.1559 25.8344C10.0733 25.9445 9.88066 26.3297 9.88066 26.4123C9.88066 26.4398 9.77058 26.6875 9.55041 27.1278C9.52289 27.1554 9.49537 27.293 9.46785 27.4031C9.46785 27.5131 9.44033 27.6232 9.41281 27.6507C9.38529 27.6507 9.35777 27.7333 9.35777 27.8159C9.35777 27.8984 9.35777 27.981 9.33025 28.0085C9.30273 28.0085 9.27521 28.0911 9.27521 28.1736C9.27521 28.2287 9.24769 28.3112 9.22017 28.3388C9.19264 28.3388 9.19264 28.4488 9.19264 28.5589C9.19264 28.669 9.16512 28.7791 9.1376 28.7791C9.11008 28.8066 9.08256 28.9167 9.08256 29.0543C9.08256 29.1919 9.08256 29.302 9.05504 29.302C9.02752 29.302 9 29.8524 9 30.8156C9 31.8064 9.02752 32.3292 9.05504 32.3292C9.08256 32.3292 9.08256 32.4393 9.08256 32.5769C9.08256 32.7145 9.11008 32.8521 9.1376 32.8797C9.16512 32.8797 9.19264 33.0173 9.19264 33.1549C9.19264 33.2925 9.19264 33.4026 9.22017 33.4026C9.24769 33.4026 9.27521 33.4576 9.27521 33.5402C9.27521 33.6502 9.30273 33.7328 9.33025 33.7328C9.35777 33.7603 9.35777 33.8429 9.35777 33.9254C9.35777 34.008 9.38529 34.0906 9.41281 34.0906C9.44033 34.1181 9.46785 34.2282 9.46785 34.3383C9.49537 34.4483 9.52289 34.5859 9.55041 34.6135C9.74306 34.9987 9.77058 35.1088 9.77058 35.1639C9.77058 35.2189 10.1559 35.962 10.321 36.2372C10.376 36.3197 10.4586 36.4849 10.5136 36.5949C10.5687 36.6775 10.6237 36.7876 10.6788 36.8426C10.7063 36.8702 10.7338 36.9252 10.7338 36.9527C10.7338 36.9802 10.8164 37.0628 10.8714 37.1454C10.954 37.2004 11.009 37.283 11.009 37.3105C11.009 37.338 11.064 37.4206 11.1466 37.4756C11.2017 37.5306 11.2567 37.6132 11.2567 37.6407C11.2567 37.6683 11.3393 37.7783 11.4769 37.9159C11.6145 38.026 11.697 38.1636 11.697 38.1911C11.697 38.2462 12.4951 39.0443 12.5502 39.0443C12.5777 39.0443 12.7153 39.1544 12.8529 39.292C12.9905 39.4296 13.1281 39.5397 13.1556 39.5397C13.1831 39.5397 13.2657 39.5947 13.3483 39.6773C13.4033 39.7598 13.4859 39.8149 13.5134 39.8149C13.5409 39.8149 13.6235 39.8699 13.706 39.9525C13.7611 40.035 13.8436 40.0901 13.8987 40.0901C13.9262 40.0901 13.9812 40.1176 14.0088 40.1726C14.0638 40.2277 14.1464 40.2827 14.2289 40.3102C14.3115 40.3102 14.394 40.3653 14.4491 40.4203C14.4766 40.4754 14.5592 40.5029 14.5867 40.5029C14.6142 40.5029 14.6417 40.5304 14.6417 40.5579C14.6417 40.5854 14.6693 40.5854 14.7243 40.5854C14.7793 40.5854 14.8344 40.613 14.8344 40.6405C14.8619 40.668 15.7976 41.1359 15.8802 41.1359C15.9352 41.1359 16.1829 41.2459 16.348 41.3285C16.4031 41.356 16.4581 41.3835 16.5131 41.3835C16.5682 41.3835 16.6232 41.3835 16.6507 41.4111C16.6507 41.4386 16.7333 41.4661 16.8159 41.4661C16.8984 41.4661 16.981 41.4936 17.0085 41.5211C17.0085 41.5487 17.0911 41.5487 17.2012 41.5487C17.2837 41.5487 17.3388 41.5762 17.3388 41.6037C17.3388 41.6312 17.4213 41.6587 17.5039 41.6587C17.5864 41.6587 17.669 41.6587 17.6965 41.6863C17.6965 41.7138 17.8341 41.7413 17.9717 41.7413C18.1093 41.7413 18.2194 41.7688 18.2469 41.7963C18.2469 41.8239 18.4121 41.8239 18.5772 41.8239C18.7698 41.8239 18.9074 41.8514 18.935 41.8789C18.9625 41.9339 21.054 41.9339 21.0816 41.8789C21.1091 41.8514 21.2467 41.8239 21.4393 41.8239C21.6045 41.8239 21.7696 41.8239 21.7696 41.7963C21.7971 41.7688 21.9072 41.7413 22.0173 41.7413C22.1273 41.7413 22.2099 41.7138 22.2099 41.6863C22.2099 41.6587 22.2925 41.6587 22.4026 41.6587C22.5126 41.6587 22.6227 41.6312 22.6502 41.6037C22.6502 41.5762 22.7328 41.5487 22.8429 41.5487C22.9254 41.5487 23.008 41.5487 23.008 41.5211C23.0355 41.4936 23.0906 41.4661 23.1456 41.4661C23.2007 41.4661 23.2557 41.4386 23.2557 41.4111C23.2557 41.3835 23.3383 41.3835 23.4208 41.3835C23.5034 41.3835 23.5859 41.356 23.6135 41.3285C23.6135 41.301 23.696 41.2735 23.7511 41.2735C23.8061 41.2735 23.8611 41.2735 23.8887 41.2459C23.8887 41.2184 23.9712 41.1909 24.0263 41.1909C24.0813 41.1909 24.1639 41.1634 24.2464 41.1083C24.329 41.0808 24.4116 41.0533 24.4391 41.0533C24.5216 41.0533 24.7418 40.9432 24.7418 40.9157C24.7418 40.8882 24.7693 40.8606 24.8244 40.8606C24.8794 40.8606 24.962 40.8331 25.017 40.8056C25.0996 40.7506 25.3748 40.9432 25.3748 41.0808C25.3748 41.1083 25.4298 41.1909 25.4849 41.2459C25.5399 41.301 25.5949 41.356 25.5949 41.3835C25.5949 41.4111 25.65 41.4661 25.705 41.5211C25.7601 41.5487 25.7876 41.6037 25.7876 41.6587C25.7876 41.6863 25.8151 41.7413 25.8702 41.7963C25.9252 41.8239 25.9802 41.8789 25.9802 41.9064C25.9802 41.9339 26.0078 41.989 26.0353 42.0165C26.0903 42.044 26.1454 42.1266 26.1729 42.1816C26.2554 42.3468 26.338 42.4844 26.4481 42.5944C26.5031 42.677 26.5582 42.7596 26.5582 42.7871C26.5582 42.8146 26.6132 42.8697 26.6682 42.9247C26.6958 42.9522 26.7508 43.0073 26.7508 43.0623C26.7508 43.0898 26.7783 43.1449 26.8334 43.1724C26.8609 43.1999 26.9159 43.2825 26.9435 43.31C27.026 43.4751 27.1086 43.6127 27.1911 43.6953C27.2187 43.7503 27.2462 43.8054 27.2462 43.8329C27.2462 43.8329 27.3287 43.9154 27.3838 43.998C27.4664 44.053 27.5214 44.1356 27.5214 44.1631C27.5214 44.2182 27.5764 44.2732 27.604 44.3007C27.714 44.3833 27.7966 44.5209 27.8516 44.6585C27.8792 44.7135 27.9067 44.7686 27.9342 44.7961C27.9617 44.7961 28.0168 44.8787 28.0443 44.9337L28.0718 45.0438H29.7506C30.6863 45.0438 31.4293 45.0163 31.4293 45.0163C31.4293 44.9887 31.3743 44.9337 31.3468 44.8511C31.2917 44.7961 31.2367 44.686 31.1816 44.6035C31.1266 44.5209 31.0716 44.4383 31.044 44.4383C31.044 44.4383 31.0165 44.4108 31.0165 44.3558C31.0165 44.3282 30.9615 44.2457 30.9339 44.2182C30.8789 44.1906 30.8239 44.1356 30.8239 44.1081C30.8239 44.0806 30.7963 43.998 30.7413 43.9705C30.6863 43.9154 30.6587 43.8604 30.6587 43.8329C30.6587 43.8054 30.6037 43.7228 30.5211 43.6678C30.4111 43.5301 30.3285 43.4201 30.2459 43.2274C30.2184 43.1724 30.1634 43.1173 30.1359 43.0623C30.0808 43.0348 30.0533 42.9797 30.0533 42.9522C30.0533 42.9247 29.9982 42.8697 29.9707 42.8146C29.9157 42.7871 29.8606 42.7045 29.8606 42.677C29.8606 42.6495 29.8331 42.5944 29.7781 42.5394C29.723 42.5119 29.6955 42.4293 29.6955 42.4018C29.6955 42.3743 29.6405 42.2917 29.5579 42.2367C29.5029 42.1816 29.4203 42.0991 29.3928 42.044C29.3378 41.9064 29.2552 41.7688 29.1726 41.6863C29.1176 41.6587 29.0901 41.5762 29.0901 41.5487C29.0901 41.5211 29.035 41.4661 29.0075 41.4111C28.9525 41.3835 28.8974 41.3285 28.8974 41.301C28.8974 41.2735 28.8699 41.2184 28.8149 41.1634C28.7598 41.1359 28.7323 41.0533 28.7323 41.0258C28.7323 40.9982 28.6773 40.9157 28.6222 40.8606C28.5397 40.8056 28.4846 40.7506 28.4846 40.6955C28.4846 40.668 28.4571 40.613 28.4021 40.5854C28.347 40.5304 28.3195 40.4754 28.3195 40.4478C28.3195 40.3928 28.2644 40.3378 28.2094 40.3102C28.1819 40.2552 28.1268 40.2001 28.1268 40.1726C28.1268 40.1176 28.0718 40.0625 28.0443 40.035C27.9892 39.98 27.9342 39.9249 27.9342 39.8699C27.9342 39.8424 27.9067 39.7873 27.8792 39.7598C27.8241 39.7323 27.7691 39.6497 27.7691 39.6222C27.6865 39.4571 27.604 39.347 27.5214 39.2644C27.4113 39.1544 27.5214 38.8516 27.714 38.8516C27.7691 38.8516 28.4846 38.1361 28.4846 38.0811C28.4846 38.0535 28.5947 37.9159 28.7598 37.7783C28.8974 37.6407 29.0075 37.5031 29.0075 37.4756C29.0075 37.4481 29.0625 37.3655 29.1176 37.3105C29.2552 37.1729 29.3378 37.0628 29.4203 36.8977C29.4203 36.8426 29.4754 36.7876 29.5304 36.7325C29.5579 36.705 29.5854 36.65 29.5854 36.6225C29.5854 36.5949 29.613 36.5399 29.668 36.5124C29.6955 36.4849 29.8056 36.3197 29.8606 36.1546C29.9432 36.017 30.0258 35.8519 30.0533 35.8519C30.1083 35.8244 30.2459 35.5492 30.2459 35.4941C30.2459 35.4666 30.301 35.329 30.356 35.2189C30.4111 35.0813 30.4661 34.9437 30.4661 34.8887C30.4661 34.8611 30.4936 34.8061 30.5211 34.8061C30.5487 34.7786 30.5487 34.7235 30.5487 34.6685C30.5487 34.5859 30.5762 34.5309 30.6037 34.5309C30.6312 34.5034 30.6587 34.4483 30.6587 34.3658C30.6587 34.3107 30.6587 34.2557 30.6863 34.2557C30.7138 34.2557 30.7413 34.2006 30.7413 34.1181C30.7413 34.063 30.7688 33.9805 30.7963 33.9805C30.8239 33.9805 30.8239 33.9254 30.8239 33.8429C30.8239 33.7328 30.8514 33.6502 30.8789 33.6502C30.9064 33.6227 30.9339 33.5402 30.9339 33.4576C30.9339 33.375 30.934 33.2925 30.9615 33.2925C30.989 33.2649 31.0165 33.1549 31.0165 33.0448C31.0165 32.9072 31.044 32.7971 31.0716 32.7696C31.1266 32.7145 31.1266 32.2467 31.1266 30.7881C31.1266 29.302 31.1266 28.8341 31.0716 28.8066C31.044 28.7791 31.0165 28.669 31.0165 28.5589C31.0165 28.4764 30.989 28.3938 30.9615 28.3663C30.934 28.3663 30.9339 28.2837 30.9339 28.2012C30.9339 28.0911 30.9064 28.0085 30.8789 28.0085C30.8514 27.981 30.8239 27.8984 30.8239 27.8159C30.8239 27.7333 30.8239 27.6507 30.7963 27.6507C30.7688 27.6507 30.7413 27.5957 30.7413 27.5131C30.7413 27.4581 30.7138 27.3755 30.6863 27.3755C30.6587 27.3755 30.6587 27.3205 30.6587 27.2654C30.6587 27.2104 30.6312 27.1554 30.6037 27.1278C30.5762 27.1278 30.5487 27.0728 30.5487 27.0178C30.5487 26.9627 30.4936 26.8251 30.4386 26.6875C30.356 26.5499 30.2735 26.3573 30.2735 26.2747C30.2459 26.1646 30.2184 26.1096 30.1909 26.1096C30.1634 26.1096 30.1359 26.0545 30.1359 25.9995C30.1359 25.9445 30.1359 25.9169 30.1083 25.9169C30.0808 25.9169 30.0533 25.8894 30.0533 25.8619C30.0533 25.8069 30.0258 25.7518 29.9707 25.7243C29.9432 25.6968 29.8606 25.5867 29.8331 25.4766C29.7781 25.3665 29.6955 25.2564 29.668 25.2289C29.6405 25.2014 29.5854 25.1464 29.5854 25.1188C29.5854 25.0913 29.5579 25.0363 29.5304 25.0088C29.4754 24.9537 29.4203 24.8987 29.3928 24.8436C29.3102 24.6235 29.2277 24.5134 29.0625 24.3758C28.98 24.2932 28.8974 24.2107 28.8974 24.1831C28.8974 24.1006 27.2462 22.4218 27.1636 22.4218C27.1636 22.4218 27.0535 22.3668 26.971 22.2842C26.8884 22.1741 26.8059 22.1191 26.7783 22.1191C26.7508 22.1191 26.6682 22.064 26.6407 22.009C26.5857 21.9815 26.5306 21.9264 26.5031 21.9264C26.4756 21.9264 26.393 21.8714 26.338 21.8164C26.283 21.7338 26.1454 21.6512 26.0353 21.5962C25.9252 21.5687 25.8151 21.4861 25.7876 21.4586C25.7601 21.4036 25.705 21.376 25.6775 21.376C25.6225 21.376 25.2922 21.2109 25.2922 21.1834C25.2922 21.1559 25.2372 21.1559 25.1821 21.1559C25.1271 21.1559 25.0996 21.1283 25.0996 21.1008C25.0996 21.0733 25.0721 21.0458 25.017 21.0458C24.962 21.0458 24.9069 21.0458 24.9069 21.0183C24.8794 20.9632 24.3015 20.688 24.2189 20.688C24.1914 20.688 24.1364 20.6605 24.1088 20.633C24.1088 20.6055 24.0263 20.6055 23.9712 20.6055C23.9162 20.6055 23.8611 20.5779 23.8336 20.5504C23.8336 20.5229 23.7235 20.4954 23.6135 20.4954C23.5034 20.4679 23.3933 20.4403 23.3658 20.4128C23.3658 20.3853 23.2832 20.3578 23.2006 20.3578C23.1181 20.3578 23.0355 20.3578 23.008 20.3302C23.008 20.3027 22.9254 20.2752 22.8154 20.2752C22.7328 20.2752 22.6778 20.2477 22.6778 20.2202C22.6778 20.1926 22.5677 20.1926 22.4576 20.1926C22.3475 20.1926 22.2374 20.1651 22.2374 20.1376C22.2099 20.1101 22.0723 20.0826 21.9072 20.0826C21.7421 20.0826 21.6045 20.0826 21.6045 20.055C21.6045 20.0275 21.0816 20 20.0908 20C19.1551 20 18.5772 20.0275 18.5772 20.055ZM63.8486 30.733V41.1909H66.7383V37.8334C66.7383 35.962 66.7658 34.4483 66.7933 34.4483C66.8484 34.4483 67.0135 34.641 67.0135 34.696C67.0135 34.7235 67.0961 34.8336 67.1786 34.9162C67.2612 34.9987 67.3438 35.1088 67.3438 35.1364C67.3438 35.1364 67.4263 35.2464 67.5364 35.3565C67.619 35.4391 67.7015 35.5492 67.7015 35.5767C67.7015 35.6042 67.7841 35.6868 67.8666 35.7693C67.9492 35.8519 68.0318 35.962 68.0318 35.9895C68.0318 36.017 68.1143 36.1271 68.2244 36.2097C68.307 36.3197 68.3895 36.4023 68.3895 36.4573C68.3895 36.4849 68.4721 36.5674 68.5547 36.65C68.6372 36.7325 68.7198 36.8151 68.7198 36.8426C68.7198 36.8977 68.8023 36.9802 68.9124 37.0903C68.995 37.1729 69.0776 37.283 69.0776 37.3105C69.0776 37.338 69.1601 37.4206 69.2702 37.5306C69.3803 37.6407 69.4628 37.7233 69.4628 37.7508C69.4628 37.7783 69.5179 37.8884 69.628 37.971C69.7105 38.0535 69.7656 38.1361 69.7656 38.1636C69.7656 38.2187 69.8481 38.3012 69.9582 38.3838C70.0683 38.4663 70.1509 38.5764 70.1509 38.604C70.1509 38.6315 70.2059 38.714 70.316 38.7966C70.3985 38.8792 70.4536 38.9892 70.4536 39.0168C70.4536 39.0443 70.5362 39.1544 70.6462 39.2369C70.7563 39.347 70.8389 39.4571 70.8389 39.4846L71.004 39.7048C71.1141 39.7873 71.1966 39.8974 71.1966 39.9249C71.1966 39.9525 71.2792 40.0625 71.3618 40.1451C71.4443 40.2277 71.5269 40.3102 71.5269 40.3378C71.5269 40.3653 71.6095 40.4754 71.692 40.5854C71.8021 40.668 71.8847 40.7781 71.8847 40.8056C71.8847 40.8331 71.9672 40.9157 72.0498 41.0258L72.2424 41.1909H75.6825L75.6275 41.0533C75.5724 40.9982 75.5174 40.8882 75.4348 40.8331C75.3798 40.7781 75.3247 40.6955 75.3247 40.668C75.3247 40.6405 75.2422 40.5304 75.1596 40.4478C75.0771 40.3653 74.9945 40.2827 74.9945 40.2552C74.9945 40.2277 74.9119 40.1176 74.8294 40.035C74.7193 39.9249 74.6367 39.8149 74.6367 39.7873C74.6367 39.7598 74.5542 39.6773 74.4716 39.5947C74.389 39.5121 74.3065 39.4021 74.3065 39.4021C74.3065 39.3745 74.2239 39.2644 74.1414 39.1819C74.0313 39.0718 73.9487 38.9617 73.9487 38.9342C73.9487 38.9067 73.8661 38.8241 73.7836 38.7416C73.701 38.659 73.6185 38.5764 73.6185 38.5489C73.6185 38.5214 73.5634 38.4388 73.4809 38.3563C73.4258 38.2737 73.3433 38.1911 73.3433 38.1636C73.3433 38.1636 73.2607 38.0535 73.1781 37.971C73.0681 37.8609 72.9855 37.7508 72.9855 37.7233C72.9855 37.6958 72.9029 37.6132 72.8204 37.5306C72.7378 37.4481 72.6552 37.338 72.6552 37.3105C72.6552 37.283 72.5727 37.1729 72.4901 37.0903C72.38 36.9802 72.2975 36.8977 72.2975 36.8426C72.2975 36.8151 72.2149 36.7325 72.1323 36.65C72.0498 36.5674 71.9672 36.4849 71.9672 36.4573C71.9672 36.4023 71.8847 36.3197 71.8021 36.2097C71.692 36.1271 71.6095 36.017 71.6095 35.9895C71.6095 35.962 71.5544 35.8794 71.4719 35.8244C71.3893 35.7693 71.3342 35.6868 71.3342 35.6592C71.3342 35.6042 71.2517 35.5216 71.1691 35.4391C71.0866 35.3565 71.004 35.2464 71.004 35.2189C71.004 35.1914 70.9214 35.1088 70.8389 34.9987C70.7288 34.8887 70.6462 34.8061 70.6462 34.7786C70.6462 34.7511 70.5637 34.6685 70.4536 34.5584C70.371 34.4759 70.2885 34.3658 70.2885 34.3383C70.2885 34.3107 70.2334 34.2282 70.1509 34.1731L70.0408 34.0355L70.3435 33.7328C70.5086 33.5677 70.6462 33.4301 70.6462 33.4026C70.6462 33.375 70.8664 33.1273 71.1416 32.8797C71.3893 32.6045 71.6095 32.3843 71.6095 32.3568C71.6095 32.3292 71.8296 32.1091 72.1048 31.8339C72.3525 31.5587 72.5727 31.3385 72.5727 31.311C72.5727 31.2835 72.7928 31.0358 73.0681 30.7881C73.3157 30.5129 73.5359 30.2652 73.5359 30.2652C73.5359 30.2377 73.7285 30.0175 73.9762 29.7698C74.2239 29.5221 74.4166 29.302 74.4166 29.302C74.4166 29.2745 74.6092 29.0268 74.8569 28.7791C75.1321 28.5314 75.3247 28.3112 75.3247 28.2837C75.3247 28.2562 75.3798 28.1736 75.4623 28.0911C75.7376 27.8434 75.7651 27.8434 73.7836 27.8434C72.0498 27.8709 71.9672 27.8709 71.9122 27.9535C71.8847 28.0085 71.637 28.2837 71.3342 28.5589C71.059 28.8616 70.8389 29.1093 70.8389 29.1369C70.8389 29.1369 70.6187 29.3845 70.3435 29.6597C70.0958 29.9074 69.8757 30.1551 69.8757 30.1826C69.8757 30.2102 69.628 30.4578 69.3528 30.733C69.05 31.0358 68.8024 31.2835 68.8024 31.311C68.8024 31.3385 68.5822 31.5862 68.307 31.8614C68.0318 32.1366 67.8116 32.3843 67.8116 32.4118C67.8116 32.4393 67.5639 32.687 67.2887 32.9897L66.7383 33.5126V20.2752H63.8486V30.733ZM47.3363 21.9815C47.1987 22.0365 47.061 22.1191 47.0335 22.1466C46.9234 22.2017 46.7583 22.3668 46.7583 22.4493C46.7583 22.4769 46.7308 22.5319 46.6758 22.5319C46.6207 22.5594 46.4831 22.8346 46.4831 22.9447C46.4831 22.9722 46.4556 23.0273 46.4281 23.0548C46.4006 23.0548 46.373 23.275 46.373 23.5502C46.373 23.8254 46.4006 24.0455 46.4281 24.0731C46.4556 24.0731 46.4831 24.1281 46.4831 24.1831C46.4831 24.2382 46.5106 24.3483 46.5657 24.3758C46.6207 24.4308 46.6482 24.4859 46.6482 24.5134C46.6482 24.6235 47.1436 25.0363 47.3638 25.1464C47.5014 25.2014 47.639 25.2564 47.6665 25.284C47.7766 25.339 48.5196 25.339 48.5747 25.284C48.5747 25.2564 48.6297 25.2289 48.7123 25.2289C48.7673 25.2289 48.8224 25.2014 48.8224 25.1739C48.8224 25.1464 48.8499 25.1464 48.8774 25.1464C48.9324 25.1464 49.015 25.0638 49.0976 25.0088C49.1526 24.9262 49.2352 24.8712 49.2627 24.8712C49.3453 24.8712 49.4553 24.7335 49.4553 24.651C49.4553 24.6235 49.4829 24.5684 49.5104 24.5684C49.6205 24.4859 49.7856 24.1281 49.7856 23.9355C49.7856 23.8529 49.7856 23.7428 49.8131 23.7428C49.8406 23.7153 49.8681 23.6327 49.8681 23.5502C49.8681 23.4676 49.8406 23.385 49.8131 23.385C49.7856 23.385 49.7856 23.3025 49.7856 23.1924C49.7856 23.0823 49.7581 22.9722 49.7305 22.9722C49.703 22.9447 49.6755 22.8897 49.6755 22.8346C49.6755 22.7796 49.648 22.6695 49.5929 22.642C49.5379 22.5869 49.5104 22.5319 49.5104 22.5044C49.5104 22.4493 49.1801 22.1191 49.0976 22.1191C49.0701 22.1191 49.015 22.064 48.9875 22.009C48.9325 21.9815 48.8499 21.9264 48.7948 21.9264C48.7398 21.9264 48.6572 21.8989 48.6572 21.8714C48.5747 21.7613 47.5564 21.8439 47.3363 21.9815ZM21.2192 22.9722C21.2467 22.9997 21.3568 23.0273 21.4944 23.0273C21.632 23.0273 21.7696 23.0548 21.7696 23.0823C21.7971 23.1098 21.9072 23.1098 22.0173 23.1098C22.1273 23.1098 22.2099 23.1374 22.2099 23.1649C22.2099 23.1924 22.2649 23.2199 22.32 23.2199C22.375 23.2199 22.4576 23.2199 22.4576 23.2474C22.4851 23.275 22.5402 23.3025 22.5952 23.3025C22.6502 23.3025 22.7328 23.33 22.7328 23.3575C22.7603 23.385 22.8154 23.385 22.8704 23.385C22.9254 23.385 23.008 23.4126 23.008 23.4401C23.0355 23.4676 23.0906 23.4951 23.1456 23.4951C23.2007 23.4951 23.2557 23.4951 23.2557 23.5226C23.2557 23.5502 23.3107 23.5777 23.3383 23.5777C23.3933 23.5777 23.4759 23.6052 23.5034 23.6602C23.5584 23.6878 23.641 23.7153 23.696 23.7153C23.7511 23.7153 23.8336 23.7428 23.8611 23.7978C23.8887 23.8254 24.0538 23.9079 24.2189 23.9905C24.3565 24.0731 24.5216 24.1556 24.5492 24.1831C24.5767 24.2382 24.6317 24.2657 24.6592 24.2657C24.6868 24.2657 24.7693 24.3207 24.8519 24.4033C24.9069 24.4859 24.9895 24.5409 25.0445 24.5409C25.0721 24.5409 25.1271 24.5959 25.1821 24.651C25.2372 24.706 25.3197 24.7611 25.3473 24.7611C25.4023 24.7611 26.393 25.7518 26.393 25.8069C26.393 25.8344 26.4756 25.9445 26.5582 26.027C26.6683 26.1371 26.7508 26.2197 26.7508 26.2472C26.7508 26.2747 26.7783 26.3297 26.8334 26.3848C26.9159 26.4674 26.971 26.5774 27.1086 26.8251C27.1361 26.9352 27.2187 27.0453 27.2462 27.1003C27.3012 27.1278 27.3563 27.2379 27.3838 27.3205C27.4388 27.4031 27.4663 27.4856 27.4939 27.4856C27.5214 27.4856 27.5214 27.5407 27.5214 27.6232C27.5214 27.6783 27.5489 27.7608 27.5764 27.7608C27.659 27.7883 27.7966 28.2012 27.8241 28.4213C27.8516 28.5589 27.8792 28.669 27.9067 28.6965C27.9342 28.6965 27.9342 28.7791 27.9342 28.8616C27.9342 28.9167 27.9617 28.9992 27.9892 29.0268C28.0168 29.0268 28.0443 29.1093 28.0443 29.1919C28.0443 29.2745 28.0443 29.357 28.0718 29.3845C28.0993 29.3845 28.1268 29.5497 28.1268 29.7148C28.1268 29.9074 28.1544 30.045 28.1819 30.0726C28.2094 30.0726 28.2094 30.4028 28.2094 30.8707C28.2094 31.366 28.2094 31.6412 28.1819 31.6412C28.1544 31.6412 28.1268 31.8064 28.1268 31.999C28.1268 32.1916 28.0993 32.3568 28.0718 32.3568C28.0443 32.3843 28.0443 32.4668 28.0443 32.5769C28.0443 32.6595 28.0168 32.7696 27.9892 32.7696C27.9617 32.7971 27.9342 32.8521 27.9342 32.9072C27.9342 32.9622 27.9342 33.0448 27.9067 33.0448C27.8792 33.0723 27.8516 33.1824 27.8241 33.32C27.8241 33.4576 27.7691 33.6502 27.714 33.7328C27.659 33.8154 27.6315 33.953 27.6315 33.9805C27.6315 34.0355 27.604 34.0906 27.5764 34.0906C27.5764 34.0906 27.4388 34.3107 27.3287 34.5309C27.0535 35.1088 26.9985 35.1639 26.9159 35.274C26.8884 35.3015 26.8334 35.384 26.8334 35.4116C26.8334 35.4116 26.7783 35.4941 26.6958 35.5492C26.6407 35.6042 26.5582 35.6868 26.5582 35.7143C26.5582 35.7693 26.4756 35.8519 26.393 35.962C26.283 36.0721 26.2004 36.1546 26.2004 36.1821C26.2004 36.2097 26.0903 36.3197 25.9802 36.4573C25.7325 36.705 25.5949 36.705 25.5949 36.4849C25.5949 36.4573 25.5674 36.4298 25.5399 36.4023C25.4849 36.4023 25.4573 36.3197 25.4298 36.2647C25.3473 36.0996 25.2647 35.962 25.1821 35.8794C25.1271 35.8244 25.0996 35.7693 25.0996 35.7418C25.0996 35.7143 25.0721 35.6592 25.017 35.6317C24.962 35.5767 24.9069 35.5216 24.9069 35.4941C24.9069 35.4391 24.8794 35.384 24.8244 35.3565C24.7693 35.3015 24.7418 35.2464 24.7418 35.1914C24.7418 35.1639 24.7143 35.1088 24.6592 35.0813C24.4666 34.9437 24.4116 34.641 24.5492 34.5859C24.7143 34.5034 24.8519 34.4208 24.962 34.3383C24.9895 34.3107 25.0721 34.2557 25.0721 34.2557C25.0996 34.2557 25.1821 34.2282 25.2097 34.1731C25.2647 34.1181 25.3197 34.0906 25.3473 34.0906C25.3748 34.0906 25.4573 34.0355 25.4849 33.9805C25.5399 33.9254 25.5949 33.8979 25.6225 33.8979C25.65 33.8979 25.7326 33.8429 25.7601 33.7878C25.8151 33.7603 25.8977 33.6778 25.9527 33.6502C26.1178 33.5952 26.0628 33.5126 25.8702 33.4851C25.7601 33.4851 25.705 33.4576 25.705 33.4301C25.705 33.4026 25.6225 33.4026 25.5399 33.4026C25.4573 33.4026 25.3748 33.375 25.3473 33.3475C25.3473 33.32 25.2647 33.2925 25.1821 33.2925C25.0721 33.2925 24.9895 33.2925 24.9895 33.2649C24.962 33.2374 24.8794 33.2099 24.7968 33.2099C24.7143 33.2099 24.6317 33.1824 24.6317 33.1549C24.6317 33.1273 24.5767 33.1273 24.4941 33.1273C24.384 33.1273 24.3015 33.0998 24.3015 33.0723C24.274 33.0448 24.1914 33.0173 24.1088 33.0173C24.0263 33.0173 23.9437 33.0173 23.9437 32.9897C23.9162 32.9622 23.7511 32.9347 23.5584 32.9072C23.3658 32.9072 23.2006 32.8521 23.2006 32.8521C23.1731 32.8246 23.0906 32.7971 23.008 32.7971C22.9254 32.7971 22.8429 32.7696 22.8429 32.7421C22.8154 32.7145 22.7328 32.7145 22.6502 32.7145C22.5677 32.7145 22.4851 32.687 22.4851 32.6595C22.4851 32.632 22.4026 32.6045 22.32 32.6045C22.2374 32.6045 22.1549 32.6045 22.1549 32.5769C22.1273 32.5494 22.0448 32.5219 21.9622 32.5219C21.8797 32.5219 21.7971 32.4944 21.7696 32.4668C21.7696 32.4393 21.687 32.4393 21.5769 32.4393C21.4944 32.4393 21.4393 32.4118 21.4393 32.3843C21.4393 32.3568 21.3568 32.3292 21.2467 32.3292H21.0816L21.3292 32.1091C21.5219 31.8889 21.687 31.6412 21.5769 31.7238C21.5494 31.7238 21.5219 31.7788 21.5219 31.8064C21.5219 31.8614 20.9715 32.4393 20.8889 32.4393C20.8614 32.4393 20.8339 32.4393 20.8064 32.4668C20.8064 32.4944 20.8064 32.5219 20.8614 32.4944C20.944 32.4668 20.9715 32.9072 20.8889 32.9622C20.8614 32.9622 20.8339 33.2099 20.8339 33.4851C20.8339 33.7878 20.8064 33.9805 20.7788 33.9805C20.7513 33.9805 20.7513 34.2006 20.7513 34.5309C20.7513 34.8336 20.7238 35.0538 20.6963 35.0538C20.6688 35.0538 20.6412 35.2464 20.6412 35.5492C20.6412 35.8244 20.6412 36.0721 20.6137 36.0721C20.5862 36.0996 20.5587 36.3197 20.5587 36.5949C20.5587 36.8977 20.5311 37.1178 20.5036 37.1454C20.4486 37.1729 20.4486 37.283 20.5311 37.283C20.6137 37.283 20.8614 37.1729 20.9164 37.0903C20.9164 37.0903 20.9715 37.0353 21.0265 37.0078C21.1916 36.9527 21.3017 36.8702 21.3843 36.7876C21.4393 36.7325 21.4944 36.705 21.5219 36.705C21.5769 36.705 21.632 36.65 21.6595 36.5949C21.687 36.5399 21.7421 36.5124 21.7696 36.5124C21.7971 36.5124 21.8797 36.4573 21.9347 36.3748L22.0723 36.2647L22.1824 36.3748C22.2099 36.4298 22.2925 36.5124 22.32 36.5674C22.375 36.6225 22.4026 36.6775 22.4026 36.7325C22.4026 36.7601 22.4026 36.7876 22.4301 36.7876C22.4576 36.7876 22.4851 36.8151 22.4851 36.8426C22.4851 36.8702 22.5126 36.9527 22.5677 37.0078C22.6227 37.0353 22.6778 37.0903 22.6778 37.1178C22.6778 37.1454 22.7053 37.2004 22.7328 37.2554C22.8154 37.338 22.8979 37.4756 22.9805 37.6407C23.008 37.6958 23.063 37.7508 23.0906 37.8059C23.1456 37.8334 23.1731 37.8884 23.1731 37.9159C23.1731 37.9435 23.2007 37.9985 23.2557 38.0535C23.3107 38.0811 23.3658 38.1636 23.3658 38.1911C23.3658 38.2187 23.3107 38.2462 23.2557 38.2462C23.2007 38.2462 23.1731 38.2737 23.1731 38.3012C23.1731 38.3287 23.1456 38.3563 23.0906 38.3563C23.0355 38.3563 22.9805 38.3563 22.9805 38.3838C22.9805 38.4113 22.9254 38.4388 22.8704 38.4388C22.8154 38.4388 22.7603 38.4663 22.7328 38.4939C22.7328 38.5214 22.6502 38.5214 22.5952 38.5214C22.5402 38.5214 22.4851 38.5489 22.4576 38.5764C22.4576 38.604 22.375 38.6315 22.2925 38.6315C22.2099 38.6315 22.1273 38.6315 22.0998 38.659C22.0723 38.6865 21.8797 38.7416 21.6595 38.7416C21.4669 38.7691 21.2742 38.7966 21.2742 38.8241C21.2467 38.8516 19.1001 38.8516 19.0726 38.8241C19.0726 38.7966 18.8524 38.7691 18.6322 38.7416C18.3845 38.714 18.1919 38.6865 18.1644 38.659C18.1369 38.6315 18.0543 38.6315 17.9717 38.6315C17.8892 38.6315 17.8066 38.604 17.7791 38.5764C17.7791 38.5489 17.6965 38.5214 17.5864 38.5214C17.5039 38.5214 17.4488 38.5214 17.4488 38.4939C17.4488 38.4663 17.3938 38.4388 17.3388 38.4388C17.3112 38.4388 17.1736 38.3838 17.0911 38.3563C17.0085 38.3012 16.8984 38.2462 16.8709 38.2462C16.7883 38.2462 15.9077 37.8059 15.8251 37.7233C15.7976 37.6958 15.7426 37.6682 15.715 37.6682C15.6875 37.6682 15.6325 37.6132 15.5774 37.5582C15.5499 37.5031 15.4674 37.4756 15.4398 37.4756C15.4123 37.4756 15.3573 37.4481 15.3022 37.393C15.2747 37.338 15.1921 37.283 15.1646 37.283C15.1371 37.283 15.0545 37.2279 14.972 37.1454C14.8894 37.0353 14.7793 36.9802 14.7518 36.9802C14.6968 36.9802 13.8712 36.1271 13.8712 36.0721C13.8712 36.0445 13.7611 35.9345 13.651 35.8244C13.5409 35.7143 13.4583 35.6042 13.4583 35.5767C13.4583 35.5492 13.4033 35.4666 13.3483 35.4391C13.3207 35.384 13.2657 35.329 13.2657 35.3015C13.2657 35.274 13.2382 35.2189 13.1831 35.1914C13.1556 35.1364 13.0731 35.0263 13.0455 34.9162C12.9905 34.8061 12.9355 34.7235 12.9079 34.696C12.8529 34.6685 12.5777 34.1181 12.5777 34.0355C12.5777 34.008 12.5226 33.9254 12.4951 33.8429C12.4401 33.7328 12.385 33.6227 12.385 33.5677C12.385 33.5402 12.385 33.4851 12.3575 33.4576C12.33 33.4576 12.3025 33.375 12.3025 33.32C12.3025 33.2649 12.275 33.2099 12.2474 33.2099C12.2199 33.2099 12.2199 33.1273 12.2199 33.0448C12.2199 32.9622 12.1924 32.8797 12.1649 32.8797C12.1374 32.8521 12.1098 32.7421 12.1098 32.632C12.1098 32.5219 12.1098 32.4118 12.0823 32.4118C12.0548 32.3843 12.0273 32.2467 12.0273 32.1091C12.0273 31.9715 11.9997 31.8339 11.9722 31.8064C11.9447 31.8064 11.9447 31.4486 11.9447 30.9257C11.9447 30.3753 11.9447 30.045 11.9722 30.0175C11.9997 30.0175 12.0273 29.8524 12.0273 29.6873C12.0273 29.5221 12.0548 29.4121 12.0823 29.4121C12.1098 29.4121 12.1098 29.302 12.1098 29.1919C12.1098 29.0818 12.1374 28.9717 12.1649 28.9717C12.1924 28.9442 12.2199 28.8616 12.2199 28.7791C12.2199 28.6965 12.2199 28.614 12.2474 28.614C12.275 28.5864 12.3025 28.5314 12.3025 28.4488C12.3025 28.3938 12.33 28.3388 12.3575 28.3388C12.385 28.3388 12.385 28.3112 12.385 28.2562C12.385 28.2012 12.4401 28.0911 12.4951 28.0085C12.5226 27.9259 12.5777 27.8159 12.5777 27.7883C12.5777 27.7333 12.6052 27.6232 12.6602 27.5407C12.7153 27.4306 12.7978 27.2654 12.8529 27.1278C12.9079 27.0178 12.9905 26.9077 13.018 26.9077C13.0455 26.8802 13.0731 26.8251 13.0731 26.7701C13.0731 26.7426 13.1006 26.6875 13.1281 26.6875C13.1556 26.6875 13.1831 26.66 13.1831 26.605C13.1831 26.5774 13.2382 26.4949 13.3207 26.4398C13.3758 26.3573 13.4583 26.3022 13.4583 26.2747C13.4583 26.2197 13.5134 26.1646 13.5684 26.1096C13.6235 26.0545 13.6785 25.972 13.6785 25.9445C13.6785 25.8894 14.7793 24.7611 14.8619 24.7611C14.8894 24.7611 14.972 24.706 15.0545 24.6235C15.1371 24.5134 15.2472 24.4583 15.2747 24.4583C15.3022 24.4583 15.3573 24.4033 15.4123 24.3483C15.4398 24.3207 15.4949 24.2657 15.5224 24.2657C15.5499 24.2657 15.605 24.2107 15.66 24.1831C15.6875 24.1281 15.7426 24.0731 15.7701 24.0731C15.8251 24.0731 15.8802 24.0455 15.9077 23.9905C15.9627 23.963 16.1278 23.8529 16.2654 23.7978C16.4306 23.7153 16.6232 23.6327 16.7333 23.5777C16.8159 23.5226 16.9259 23.4951 16.981 23.4951C17.036 23.4951 17.0911 23.4676 17.0911 23.4401C17.1186 23.4126 17.1736 23.385 17.2287 23.385C17.2837 23.385 17.3388 23.385 17.3388 23.3575C17.3388 23.33 17.4213 23.3025 17.4764 23.3025C17.5589 23.3025 17.614 23.275 17.614 23.2474C17.614 23.2199 17.669 23.2199 17.724 23.2199C17.8066 23.2199 17.8616 23.1924 17.8892 23.1649C17.8892 23.1374 17.9992 23.1098 18.1093 23.1098C18.2194 23.1098 18.3295 23.1098 18.3295 23.0823C18.357 23.0548 18.4396 23.0273 18.5497 23.0273C18.6322 23.0273 18.7423 22.9997 18.7423 22.9722C18.7698 22.9447 19.2377 22.9447 19.9807 22.9447C20.7513 22.9447 21.2192 22.9447 21.2192 22.9722ZM57.6015 27.5131C57.5739 27.5407 57.4363 27.5682 57.2437 27.5682C57.0786 27.5682 56.9134 27.5957 56.9134 27.6232C56.8859 27.6507 56.7758 27.6507 56.6657 27.6507C56.5557 27.6507 56.4731 27.6783 56.4731 27.7058C56.4731 27.7333 56.3905 27.7608 56.308 27.7608C56.2254 27.7608 56.1429 27.7608 56.1429 27.7883C56.1153 27.8159 56.0603 27.8434 56.0053 27.8434C55.9227 27.8434 55.8677 27.8709 55.8677 27.8984C55.8401 27.9259 55.7851 27.9259 55.73 27.9259C55.62 27.9259 55.2897 28.0911 55.2897 28.1186C55.2897 28.1461 55.2347 28.1736 55.1796 28.1736C55.1521 28.1736 55.0971 28.1736 55.0971 28.2012C55.0971 28.2287 55.042 28.2562 55.0145 28.2562C54.9595 28.2562 54.9044 28.2837 54.9044 28.2837C54.9044 28.3112 54.8494 28.3663 54.7393 28.3938C54.6567 28.4213 54.5467 28.5039 54.5191 28.5314C54.4641 28.5864 54.4091 28.614 54.3815 28.614C54.354 28.614 54.299 28.669 54.2439 28.724C54.2164 28.7791 54.1338 28.8066 54.1063 28.8066C54.0788 28.8066 53.9962 28.8616 53.9412 28.9167C53.8862 28.9717 53.8311 29.0268 53.8036 29.0268C53.721 29.0268 52.7578 30.0175 52.7578 30.0726C52.7578 30.1001 52.7028 30.1826 52.6202 30.2652C52.5377 30.3202 52.4826 30.4028 52.4826 30.4303C52.4826 30.4578 52.4551 30.5129 52.4 30.5404C52.3725 30.5954 52.29 30.7055 52.2624 30.7881C52.2074 30.8982 52.1248 31.0358 52.0698 31.1183C51.8772 31.4486 51.7946 31.6137 51.7946 31.6963C51.7946 31.7513 51.7671 31.8064 51.7396 31.8064C51.712 31.8339 51.712 31.8889 51.712 31.944C51.712 31.999 51.6845 32.0816 51.657 32.0816C51.6295 32.1091 51.602 32.1641 51.602 32.2192C51.602 32.2742 51.602 32.3292 51.5744 32.3292C51.5469 32.3292 51.5194 32.4118 51.5194 32.4668C51.5194 32.5494 51.4919 32.6045 51.4643 32.6045C51.4368 32.6045 51.4368 32.687 51.4368 32.7696C51.4368 32.8521 51.4093 32.9347 51.3818 32.9622C51.3543 32.9622 51.3267 33.0998 51.3267 33.2374C51.3267 33.375 51.3267 33.4851 51.2992 33.5126C51.2717 33.5126 51.2442 33.953 51.2442 34.6135C51.2442 35.274 51.2717 35.6868 51.2992 35.7143C51.3267 35.7143 51.3267 35.8519 51.3267 35.9895C51.3267 36.1271 51.3543 36.2372 51.3818 36.2647C51.4093 36.2647 51.4368 36.3473 51.4368 36.4573C51.4368 36.5399 51.4368 36.5949 51.4643 36.5949C51.4919 36.5949 51.5194 36.65 51.5194 36.705C51.5194 36.7876 51.5469 36.8426 51.5744 36.8702C51.602 36.8702 51.602 36.9252 51.602 36.9802C51.602 37.0078 51.6845 37.1729 51.7396 37.3105C51.8221 37.4481 51.8772 37.6132 51.8772 37.6407C51.8772 37.6958 51.9322 37.7783 51.9872 37.8609C52.0423 37.9435 52.1248 38.0811 52.1799 38.1636C52.2074 38.2462 52.29 38.3563 52.3175 38.3838C52.3725 38.4113 52.4 38.4663 52.4 38.4939C52.4 38.5214 52.4551 38.6315 52.5377 38.6865C52.5927 38.7691 52.6753 38.8516 52.6753 38.8792C52.6753 38.9067 52.7303 38.9892 52.8404 39.0718C52.9229 39.1544 52.978 39.2644 52.978 39.292C52.978 39.347 53.5559 39.8974 53.611 39.8974C53.6385 39.8974 53.7486 39.98 53.8311 40.0901C53.9412 40.2001 54.0513 40.2827 54.0788 40.2827C54.1063 40.2827 54.1614 40.3378 54.2164 40.3928C54.2715 40.4478 54.354 40.5029 54.3815 40.5029C54.4091 40.5029 54.4641 40.5304 54.5191 40.5854C54.5467 40.6405 54.6567 40.6955 54.7393 40.723C54.8494 40.7781 54.9044 40.8056 54.9044 40.8331C54.9044 40.8606 54.9595 40.8606 55.0145 40.8606C55.042 40.8606 55.0971 40.8882 55.0971 40.9157C55.0971 40.9432 55.1521 40.9707 55.1796 40.9707C55.2347 40.9707 55.2897 40.9707 55.2897 40.9982C55.2897 41.0533 55.62 41.1909 55.73 41.1909C55.7851 41.1909 55.8401 41.2184 55.8677 41.2459C55.8677 41.2735 55.9227 41.2735 56.0053 41.2735C56.0603 41.2735 56.1153 41.301 56.1429 41.3285C56.1429 41.356 56.2254 41.3835 56.308 41.3835C56.3905 41.3835 56.4731 41.3835 56.4731 41.4111C56.4731 41.4386 56.5557 41.4661 56.6657 41.4661C56.7758 41.4661 56.8859 41.4936 56.9134 41.5211C56.9134 41.5487 57.3538 41.5487 58.0143 41.5487C58.7023 41.5487 59.0876 41.5487 59.0876 41.5211C59.0876 41.4936 59.1701 41.4661 59.2802 41.4661C59.3903 41.4661 59.5004 41.4386 59.5279 41.4111C59.5279 41.3835 59.6105 41.3835 59.7205 41.3835C59.8031 41.3835 59.8857 41.356 59.8857 41.3285C59.9132 41.301 59.9957 41.2735 60.0783 41.2735C60.1609 41.2735 60.2434 41.2735 60.271 41.2459C60.271 41.2184 60.326 41.1909 60.3535 41.1909C60.4086 41.1909 60.4911 41.1634 60.5737 41.1083C60.6562 41.0808 60.7388 41.0533 60.7663 41.0533C60.8214 41.0533 61.7571 40.5854 61.7846 40.5304C61.7846 40.5304 61.8396 40.5029 61.8947 40.5029C61.9497 40.5029 61.9772 40.4754 61.9772 40.4478C61.9772 40.4203 62.0048 40.4203 62.0598 40.4203C62.1148 40.4203 62.1148 40.2001 62.1148 38.7691C62.1148 37.3105 62.1148 37.1178 62.0598 37.1178C62.0048 37.1178 61.9772 37.1178 61.9772 37.1454C61.9772 37.1729 61.9497 37.2004 61.8947 37.2004C61.8396 37.2004 61.7846 37.2279 61.7571 37.283C61.702 37.338 61.647 37.393 61.6195 37.393C61.5919 37.393 61.5094 37.4206 61.4819 37.4756C61.4268 37.5031 61.3167 37.5857 61.2342 37.6407C61.1516 37.6683 61.0415 37.7233 61.0415 37.7508C61.014 37.7783 60.9039 37.8334 60.7938 37.8884C60.4361 38.0535 60.1609 38.1911 60.1609 38.2187C60.1333 38.2462 60.1058 38.2462 60.0508 38.2462C59.9957 38.2462 59.9682 38.2737 59.9682 38.3012C59.9682 38.3287 59.8857 38.3563 59.8306 38.3563C59.7481 38.3563 59.693 38.3563 59.693 38.3838C59.693 38.4113 59.638 38.4388 59.5829 38.4388C59.5004 38.4388 59.4453 38.4663 59.4453 38.4939C59.4178 38.5214 59.3353 38.5214 59.2527 38.5214C59.1701 38.5214 59.0876 38.5489 59.06 38.5764C59.06 38.604 58.9775 38.6315 58.8674 38.6315C58.7848 38.6315 58.7298 38.6315 58.7298 38.659C58.7298 38.6865 58.4821 38.714 58.0693 38.714C57.6565 38.714 57.3813 38.6865 57.3813 38.659C57.3538 38.6315 57.2712 38.6315 57.1886 38.6315C57.1061 38.6315 57.0235 38.604 56.996 38.5764C56.996 38.5489 56.9134 38.5214 56.8584 38.5214C56.8034 38.5214 56.7483 38.5214 56.7483 38.4939C56.7483 38.4663 56.7208 38.4388 56.6657 38.4388C56.5557 38.4388 55.9502 38.1361 55.8677 38.0535C55.8401 37.9985 55.7851 37.971 55.7576 37.971C55.7025 37.971 54.7393 37.0078 54.7393 36.9527C54.7393 36.9252 54.7118 36.8702 54.6567 36.8426C54.6292 36.7876 54.5467 36.6775 54.4916 36.5674C54.4366 36.4573 54.3815 36.3197 54.354 36.2647C54.3265 36.2372 54.3265 36.1546 54.3265 36.0996C54.3265 36.0445 54.299 36.017 54.2715 36.017C54.2439 36.017 54.2164 35.962 54.2164 35.9069C54.2164 35.8519 54.2164 35.8244 54.1889 35.8244C54.1614 35.8244 54.1339 35.7418 54.1339 35.6592C54.1339 35.5767 54.1063 35.4941 54.0788 35.4941C54.0513 35.4666 54.0513 35.329 54.0513 35.1914C54.0513 35.0538 54.0238 34.9437 53.9962 34.9437C53.9687 34.9437 53.9412 34.7511 53.9412 34.3933C53.9412 34.0906 53.9687 33.8429 53.9962 33.8429C54.0238 33.8154 54.0513 33.7053 54.0513 33.5952C54.0513 33.4851 54.0513 33.4026 54.0788 33.4026C54.1063 33.4026 54.1339 33.32 54.1339 33.2649C54.1339 33.1824 54.1614 33.1273 54.1614 33.1273C54.2164 33.1273 54.3265 32.9072 54.3265 32.7971C54.3265 32.7696 54.354 32.6595 54.4091 32.6045C54.4641 32.5219 54.5191 32.4118 54.5467 32.3568C54.5742 32.3017 54.6292 32.2467 54.6567 32.1916C54.6843 32.1641 54.7393 32.1091 54.7393 32.0816C54.7393 32.0265 55.5649 31.2009 55.62 31.2009C55.6475 31.2009 55.7025 31.1459 55.7576 31.0908C55.8401 31.0358 56.2254 30.8156 57.0235 30.4303C57.1886 30.3753 59.3352 30.3753 59.4178 30.4578C59.4453 30.4854 59.5279 30.5129 59.5829 30.5129C59.638 30.5129 59.693 30.5129 59.693 30.5404C59.693 30.5679 59.7205 30.5954 59.8031 30.5954C59.8581 30.5954 59.9132 30.623 59.9407 30.6505C59.9407 30.678 60.0233 30.678 60.0783 30.678C60.1334 30.678 60.1884 30.7055 60.2159 30.733C60.2159 30.7606 60.271 30.7881 60.326 30.7881C60.4086 30.7881 60.9865 31.0633 61.014 31.1183C61.014 31.1183 61.0415 31.1459 61.069 31.1459C61.1241 31.1459 61.702 31.4211 61.7296 31.4761C61.7571 31.5036 62.0048 31.6412 62.0873 31.6412C62.0873 31.6412 62.1148 30.9257 62.1148 30.045V28.4764L61.8672 28.3388C61.7295 28.2837 61.6195 28.2287 61.6195 28.2012C61.6195 28.1736 61.5644 28.1736 61.5094 28.1736C61.4819 28.1736 61.4268 28.1461 61.4268 28.1186C61.4268 28.0911 61.3718 28.0635 61.3167 28.0635C61.2617 28.0635 61.1791 28.0635 61.1791 28.036C61.1516 28.0085 61.0415 27.981 60.9314 27.9535C60.7938 27.9535 60.6838 27.8984 60.6562 27.8984C60.6562 27.8709 60.6012 27.8434 60.5462 27.8434C60.4636 27.8434 60.4086 27.8159 60.4086 27.7883C60.381 27.7608 60.2985 27.7608 60.2159 27.7608C60.1334 27.7608 60.0508 27.7333 60.0508 27.7058C60.0508 27.6783 59.9682 27.6507 59.8581 27.6507C59.7481 27.6507 59.638 27.6507 59.6105 27.6232C59.6105 27.5957 59.4453 27.5682 59.2802 27.5682C59.1151 27.5682 59.005 27.5407 59.005 27.5131C59.005 27.4856 58.7298 27.4856 58.317 27.4856C57.9042 27.4856 57.6015 27.4856 57.6015 27.5131ZM84.2965 27.5131C84.2689 27.5407 84.1313 27.5682 83.9937 27.5682C83.8561 27.5682 83.7185 27.5957 83.691 27.6232C83.691 27.6507 83.5809 27.6507 83.4709 27.6507C83.3608 27.6507 83.2507 27.6783 83.2507 27.7058C83.2232 27.7333 83.1681 27.7608 83.0856 27.7608C83.0305 27.7608 82.9755 27.7608 82.9755 27.7883C82.9755 27.8159 82.948 27.8434 82.8929 27.8434C82.8379 27.8434 82.7553 27.8709 82.7278 27.8984C82.6727 27.8984 82.4526 28.0085 82.2324 28.1186C82.0398 28.2287 81.8196 28.3388 81.7921 28.3663C81.7646 28.4213 81.7095 28.4488 81.682 28.4488C81.627 28.4488 81.5719 28.4764 81.5444 28.5314C81.5169 28.5864 81.4618 28.614 81.4343 28.614C81.3793 28.614 80.1409 29.8249 80.1409 29.8799C80.1409 29.9074 80.0858 29.99 80.0033 30.0726C79.9207 30.1276 79.8656 30.2377 79.8656 30.2652C79.8656 30.2927 79.8381 30.3202 79.8106 30.3202C79.7831 30.3202 79.7831 29.8799 79.7831 29.0818V27.8434H76.9209V45.0438H79.7831V41.9339C79.7831 38.714 79.7831 38.6315 79.9482 38.9342C79.9757 38.9892 80.0583 39.0993 80.1133 39.1544L80.2234 39.3195C80.2234 39.3745 81.1866 40.3102 81.2142 40.3102C81.2417 40.3102 81.3242 40.3653 81.4068 40.4478C81.4894 40.5304 81.627 40.613 81.7095 40.668C81.7921 40.6955 81.9022 40.7506 81.9022 40.7781C81.9572 40.8331 82.7003 41.1909 82.7828 41.1909C82.8379 41.1909 82.8929 41.2184 82.8929 41.2459C82.8929 41.2735 82.948 41.2735 83.003 41.2735C83.058 41.2735 83.1406 41.301 83.1406 41.3285C83.1681 41.356 83.2507 41.3835 83.3333 41.3835C83.4158 41.3835 83.4984 41.3835 83.5259 41.4111C83.5259 41.4386 83.636 41.4661 83.7461 41.4661C83.8561 41.4661 83.9387 41.4936 83.9387 41.5211C83.9387 41.5487 84.269 41.5487 84.8194 41.5487C85.3423 41.5487 85.7 41.5487 85.7275 41.5211C85.7275 41.4936 85.8101 41.4661 85.9202 41.4661C86.0303 41.4661 86.1128 41.4386 86.1404 41.4111C86.1404 41.3835 86.2229 41.3835 86.3055 41.3835C86.388 41.3835 86.4706 41.356 86.4981 41.3285C86.4981 41.301 86.5807 41.2735 86.6357 41.2735C86.6908 41.2735 86.7458 41.2735 86.7733 41.2459C86.7733 41.2184 86.8834 41.1909 86.966 41.1634C87.0761 41.1634 87.1586 41.1083 87.1586 41.1083C87.1586 41.0808 87.1861 41.0533 87.2412 41.0533C87.2962 41.0533 87.3513 41.0258 87.3513 41.0258C87.3513 40.9982 87.4889 40.9157 87.6265 40.8606C87.7641 40.7781 87.9017 40.6955 87.9292 40.668C87.9567 40.613 88.0118 40.5854 88.0393 40.5854C88.0668 40.5854 88.1769 40.5304 88.2319 40.4478C88.3145 40.3928 88.397 40.3102 88.4246 40.3102C88.4796 40.3102 89.5804 39.2094 89.5804 39.1544C89.5804 39.1268 89.663 39.0443 89.718 38.9617C89.8006 38.9067 89.8556 38.7966 89.8556 38.7691C89.8556 38.7416 89.8832 38.6865 89.9382 38.659C89.9657 38.6315 90.0483 38.5214 90.1033 38.4113C90.1309 38.3012 90.2134 38.1911 90.2409 38.1636C90.296 38.1361 90.3235 38.0535 90.351 37.9985C90.351 37.9159 90.3785 37.8609 90.4061 37.8334C90.4611 37.8059 90.6537 37.4206 90.6537 37.338C90.6537 37.283 90.6537 37.2279 90.6813 37.2279C90.7088 37.2004 90.7363 37.1454 90.7363 37.0903C90.7363 37.0353 90.7638 36.9527 90.7913 36.9527C90.8189 36.9252 90.8189 36.8702 90.8189 36.8151C90.8189 36.7601 90.8464 36.705 90.8739 36.705C90.9014 36.705 90.9289 36.6225 90.9289 36.5399C90.9289 36.4573 90.9289 36.3748 90.9565 36.3473C90.984 36.3473 91.0115 36.2647 91.0115 36.1821C91.0115 36.0996 91.039 35.9895 91.0666 35.962C91.1216 35.9344 91.1216 35.5492 91.1216 34.4759C91.1216 33.375 91.1216 33.0173 91.0666 32.9622C91.039 32.9347 91.0115 32.8521 91.0115 32.7696C91.0115 32.687 90.984 32.6045 90.9565 32.6045C90.9289 32.6045 90.9289 32.5494 90.9289 32.4668C90.9289 32.3568 90.9014 32.2742 90.8739 32.2742C90.8464 32.2467 90.8189 32.1916 90.8189 32.1366C90.8189 32.0816 90.8189 31.999 90.7913 31.999C90.7638 31.9715 90.7363 31.9164 90.7363 31.8889C90.7363 31.8064 90.6537 31.6137 90.5987 31.5587C90.5437 31.5036 90.4611 31.311 90.4611 31.2284C90.4611 31.2009 90.4336 31.1459 90.4061 31.1183C90.4061 31.1183 90.3235 30.9532 90.2409 30.8156C90.1584 30.6505 90.0758 30.4854 90.0208 30.4578C89.9932 30.4303 89.9657 30.3753 89.9657 30.3478C89.9657 30.3202 89.8832 30.2377 89.8281 30.1551C89.7456 30.1001 89.6905 30.0175 89.6905 29.99C89.6905 29.9074 88.4796 28.724 88.4246 28.724C88.397 28.724 88.3145 28.669 88.2594 28.5864C88.2044 28.5314 88.0668 28.4488 87.9567 28.3938C87.8466 28.3388 87.7366 28.2837 87.7366 28.2562C87.709 28.2012 87.1586 27.9259 87.0761 27.9259C87.0485 27.9259 86.9385 27.8984 86.8559 27.8434C86.7733 27.7883 86.6357 27.7608 86.5532 27.7608C86.4981 27.7608 86.4156 27.7333 86.4156 27.7058C86.388 27.6783 86.3055 27.6507 86.2229 27.6507C86.1404 27.6507 86.0578 27.6507 86.0578 27.6232C86.0578 27.5957 85.9202 27.5682 85.7551 27.5682C85.5899 27.5682 85.4523 27.5407 85.4523 27.5131C85.4248 27.4856 85.1771 27.4856 84.8744 27.4856C84.5442 27.4856 84.2965 27.4856 84.2965 27.5131ZM98.0568 27.5131C98.0293 27.5407 97.8917 27.5682 97.7265 27.5682C97.5614 27.5682 97.4238 27.5957 97.4238 27.6232C97.4238 27.6507 97.3688 27.6507 97.2862 27.6507C97.1761 27.6507 97.0936 27.6783 97.0936 27.7058C97.066 27.7333 97.011 27.7608 96.9284 27.7608C96.8459 27.7608 96.7358 27.7883 96.6532 27.8434L96.323 27.9535C96.2129 27.981 96.1579 28.0085 96.1579 28.036C96.1579 28.0635 96.1028 28.0635 96.0478 28.0635C95.9927 28.0635 95.9652 28.0911 95.9652 28.1186C95.9652 28.1461 95.9377 28.1736 95.8827 28.1736C95.8276 28.1736 95.7726 28.2012 95.7451 28.2562C95.7175 28.3112 95.6625 28.3388 95.635 28.3388C95.6075 28.3388 95.5249 28.3938 95.4974 28.4488C95.4423 28.5039 95.3873 28.5314 95.3598 28.5314C95.3047 28.5314 95.2222 28.5864 95.1671 28.669C95.0846 28.7516 95.002 28.8066 94.9745 28.8066C94.9194 28.8066 93.9562 29.7698 93.9562 29.8524C93.9562 29.8799 93.8737 29.9625 93.7911 30.045C93.7085 30.1276 93.626 30.2377 93.626 30.2652C93.626 30.2927 93.5985 30.3478 93.5434 30.4028C93.4884 30.4303 93.4333 30.5129 93.4333 30.5404C93.4333 30.5679 93.4058 30.623 93.3508 30.6505C93.2957 30.678 93.2682 30.733 93.2682 30.7881C93.2682 30.8431 93.2407 30.8707 93.2132 30.8707C93.1856 30.8707 93.1581 30.8982 93.1581 30.9532C93.1581 31.0083 93.1581 31.0633 93.1306 31.0633C93.1031 31.0633 93.0756 31.1183 93.048 31.2009C92.993 31.2835 92.938 31.4211 92.9104 31.4761C92.8829 31.5587 92.8554 31.6412 92.8554 31.6688C92.8554 31.7238 92.8003 31.8064 92.7453 31.9164C92.6903 31.999 92.6627 32.1091 92.6627 32.1641C92.6627 32.2192 92.6352 32.2467 92.6077 32.2467C92.5802 32.2467 92.5802 32.3292 92.5802 32.4118C92.5802 32.4944 92.5527 32.5769 92.5251 32.6045C92.4976 32.6045 92.4701 32.687 92.4701 32.7696C92.4701 32.8521 92.4701 32.9347 92.4426 32.9622C92.4151 32.9622 92.3875 33.1273 92.3875 33.2925C92.3875 33.4576 92.36 33.5677 92.3325 33.5677C92.305 33.5677 92.305 33.8979 92.305 34.4759C92.305 35.0263 92.305 35.384 92.3325 35.384C92.36 35.4116 92.3875 35.5492 92.3875 35.6868C92.3875 35.8244 92.4151 35.962 92.4426 35.9895C92.4701 35.9895 92.4701 36.0996 92.4701 36.2097C92.4701 36.3197 92.4976 36.4298 92.5251 36.4573C92.5527 36.4573 92.5802 36.5399 92.5802 36.6225C92.5802 36.705 92.5802 36.7876 92.6077 36.7876C92.6352 36.7876 92.6627 36.8426 92.6627 36.8977C92.6627 36.9527 92.6903 37.0353 92.7178 37.0353C92.7453 37.0628 92.7453 37.1178 92.7453 37.1454C92.7453 37.2004 92.8004 37.3105 92.8554 37.4206C92.9104 37.5031 92.938 37.6132 92.938 37.6407C92.938 37.7233 93.1031 38.0811 93.1306 38.0811C93.1581 38.0811 93.1581 38.1086 93.1581 38.1361C93.1581 38.1911 93.2132 38.2462 93.2407 38.3012C93.2957 38.3287 93.3783 38.4388 93.4058 38.5489C93.4608 38.6315 93.5159 38.714 93.5434 38.7691C93.5985 38.7966 93.626 38.8516 93.626 38.8792C93.626 38.9067 93.681 38.9892 93.7361 39.0443C93.7911 39.0993 93.8461 39.1544 93.8461 39.1819C93.8461 39.2644 94.8644 40.2827 94.947 40.2827C94.9745 40.2827 95.0295 40.3378 95.0846 40.3928C95.1396 40.4478 95.2222 40.5029 95.2497 40.5029C95.2772 40.5029 95.3598 40.5579 95.3873 40.5854C95.4423 40.6405 95.4974 40.6955 95.5249 40.6955C95.5524 40.6955 95.635 40.723 95.6625 40.7781C95.7175 40.8331 95.7726 40.8606 95.8001 40.8606C95.8551 40.8606 95.8827 40.8882 95.8827 40.9157C95.8827 40.9432 95.9102 40.9707 95.9652 40.9707C96.0203 40.9707 96.0478 40.9707 96.0478 40.9982C96.0478 41.0533 96.2955 41.1359 96.378 41.1359C96.4056 41.1359 96.5156 41.1634 96.5707 41.2184C96.6532 41.2459 96.7633 41.2735 96.8459 41.2735C96.9009 41.2735 96.9835 41.301 97.011 41.3285C97.011 41.356 97.066 41.3835 97.1486 41.3835C97.2036 41.3835 97.2587 41.3835 97.2587 41.4111C97.2587 41.4386 97.3688 41.4661 97.5064 41.4661C97.644 41.4661 97.7541 41.4936 97.7816 41.5211C97.8091 41.5762 99.4879 41.5762 99.5154 41.5211C99.5429 41.4936 99.6255 41.4661 99.7631 41.4661C99.8732 41.4661 99.9557 41.4386 99.9832 41.4111C99.9832 41.3835 100.066 41.3835 100.148 41.3835C100.203 41.3835 100.286 41.356 100.313 41.3285C100.313 41.301 100.369 41.2735 100.451 41.2735C100.506 41.2735 100.561 41.2735 100.589 41.2459C100.589 41.2184 100.644 41.1909 100.699 41.1909C100.836 41.1909 101.469 40.8882 101.579 40.7781C101.607 40.723 101.662 40.6955 101.717 40.6955C101.745 40.6955 101.8 40.6405 101.827 40.5854C101.882 40.5579 101.937 40.5029 101.965 40.5029C101.992 40.5029 102.075 40.4203 102.157 40.3378C102.24 40.2552 102.322 40.1726 102.35 40.1726C102.433 40.1726 103.066 39.5397 103.066 39.4571C103.066 39.4296 103.148 39.347 103.258 39.2644C103.368 39.1819 103.451 39.0718 103.451 39.0443C103.451 38.9617 103.643 38.7691 103.699 38.7966C103.699 38.7966 103.726 39.347 103.726 40.0075V41.1909H106.561V27.8434H103.726V29.0818C103.726 29.7423 103.699 30.3202 103.699 30.3202C103.643 30.3753 103.533 30.2377 103.533 30.1826C103.533 30.1276 103.506 30.0726 103.451 30.045C103.396 30.0175 103.341 29.9625 103.341 29.935C103.341 29.8524 102.212 28.7516 102.13 28.6965C102.075 28.6965 102.02 28.6415 101.965 28.614C101.937 28.5589 101.882 28.5314 101.855 28.5314C101.827 28.5314 101.772 28.5039 101.745 28.4488C101.717 28.3938 101.634 28.3388 101.607 28.3388C101.552 28.3388 101.524 28.3388 101.497 28.3112C101.497 28.2837 101.332 28.2012 101.139 28.0911C100.919 28.0085 100.726 27.8984 100.671 27.8984C100.644 27.8709 100.561 27.8434 100.506 27.8434C100.451 27.8434 100.396 27.8159 100.396 27.7883C100.369 27.7608 100.286 27.7608 100.203 27.7608C100.121 27.7608 100.038 27.7333 100.038 27.7058C100.038 27.6783 99.9832 27.6507 99.9007 27.6507C99.7906 27.6507 99.708 27.6507 99.708 27.6232C99.6805 27.5957 99.5704 27.5682 99.4328 27.5682C99.2952 27.5682 99.1851 27.5407 99.1851 27.5131C99.1851 27.4856 98.965 27.4856 98.6347 27.4856C98.3045 27.4856 98.0568 27.4856 98.0568 27.5131ZM114.487 27.5131C114.459 27.5407 114.294 27.5682 114.129 27.5682C113.964 27.5682 113.799 27.5957 113.799 27.6232C113.771 27.6507 113.661 27.6507 113.551 27.6507C113.441 27.6507 113.331 27.6783 113.331 27.7058C113.303 27.7333 113.221 27.7608 113.138 27.7608C113.056 27.7608 112.973 27.7608 112.973 27.7883C112.973 27.8159 112.918 27.8434 112.835 27.8434C112.725 27.8434 112.643 27.8709 112.643 27.8984C112.615 27.9259 112.56 27.9259 112.505 27.9259C112.45 27.9259 112.312 27.981 112.175 28.0635C112.065 28.1186 111.927 28.1736 111.872 28.1736C111.817 28.1736 111.79 28.1736 111.79 28.2012C111.79 28.2287 111.762 28.2562 111.707 28.2562C111.68 28.2562 111.597 28.2837 111.569 28.3388C111.514 28.3938 111.432 28.4488 111.349 28.4764C111.267 28.5314 111.184 28.5864 111.129 28.614C111.047 28.6965 110.909 28.7791 110.771 28.8341C110.716 28.8616 110.579 28.9717 110.469 29.1093C110.359 29.2194 110.248 29.302 110.221 29.302C110.138 29.302 109.588 29.8799 109.588 29.935C109.588 29.9625 109.505 30.045 109.423 30.1276C109.34 30.2102 109.258 30.3202 109.258 30.3478C109.258 30.3753 109.23 30.4303 109.175 30.4854C109.12 30.5129 109.093 30.5954 109.093 30.623C109.093 30.6505 109.065 30.7055 109.01 30.733C108.982 30.7606 108.9 30.8982 108.845 31.0083C108.68 31.3385 108.652 31.366 108.625 31.366C108.597 31.366 108.57 31.4211 108.57 31.4761C108.57 31.5036 108.542 31.6412 108.487 31.7238C108.432 31.8064 108.405 31.9164 108.405 31.9715C108.405 32.0265 108.377 32.0816 108.35 32.0816C108.322 32.1091 108.294 32.1641 108.294 32.2192C108.294 32.2742 108.294 32.3568 108.267 32.3568C108.239 32.3843 108.212 32.4393 108.212 32.4944C108.212 32.5494 108.184 32.6045 108.157 32.6045C108.129 32.6045 108.129 32.687 108.129 32.7696C108.129 32.8521 108.102 32.9347 108.074 32.9622C108.047 32.9622 108.019 33.0998 108.019 33.2374C108.019 33.375 108.019 33.4851 107.992 33.5126C107.964 33.5126 107.937 33.953 107.937 34.6135C107.937 35.274 107.964 35.6868 107.992 35.7143C108.019 35.7143 108.019 35.8519 108.019 35.9895C108.019 36.1271 108.047 36.2372 108.074 36.2647C108.102 36.2647 108.129 36.3473 108.129 36.4023C108.129 36.4573 108.129 36.5124 108.157 36.5124C108.184 36.5124 108.212 36.5674 108.212 36.65C108.212 36.7325 108.239 36.8702 108.294 36.9527C108.35 37.0353 108.405 37.1454 108.405 37.1729C108.405 37.2279 108.68 37.8059 108.735 37.8334C108.735 37.8609 108.762 37.9159 108.79 37.9985C108.79 38.0535 108.845 38.1636 108.9 38.1911C108.955 38.2462 108.982 38.3287 108.982 38.3287C108.982 38.3563 109.038 38.4113 109.093 38.4663C109.148 38.4939 109.175 38.5764 109.175 38.604C109.175 38.6315 109.258 38.7416 109.368 38.8241C109.45 38.9342 109.533 39.0168 109.533 39.0443C109.533 39.1268 110.414 40.0075 110.496 40.0075C110.524 40.0075 110.606 40.0625 110.661 40.1451C110.744 40.2001 110.826 40.2827 110.854 40.2827C110.881 40.2827 110.936 40.3102 110.991 40.3653C111.047 40.4203 111.157 40.5029 111.267 40.5579C111.377 40.613 111.487 40.668 111.487 40.723C111.514 40.7506 111.569 40.7781 111.624 40.7781C111.652 40.7781 111.707 40.8056 111.707 40.8331C111.707 40.8606 111.735 40.8606 111.79 40.8606C111.845 40.8606 111.872 40.8882 111.872 40.9157C111.872 40.9432 112.092 41.0533 112.175 41.0533C112.202 41.0533 112.285 41.0808 112.368 41.1083C112.45 41.1634 112.533 41.1909 112.588 41.1909C112.643 41.1909 112.725 41.2184 112.725 41.2459C112.753 41.2735 112.808 41.2735 112.863 41.2735C112.918 41.2735 113 41.301 113 41.3285C113.028 41.356 113.111 41.3835 113.221 41.3835C113.303 41.3835 113.413 41.3835 113.413 41.4111C113.441 41.4386 113.551 41.4661 113.689 41.4661C113.826 41.4661 113.936 41.4936 113.936 41.5211C113.936 41.5487 114.294 41.5487 114.872 41.5487C115.45 41.5487 115.78 41.5487 115.78 41.5211C115.78 41.4936 115.89 41.4661 116.028 41.4661C116.165 41.4661 116.303 41.4386 116.303 41.4111C116.33 41.3835 116.413 41.3835 116.496 41.3835C116.578 41.3835 116.661 41.356 116.688 41.3285C116.688 41.301 116.771 41.2735 116.853 41.2735C116.936 41.2735 117.019 41.2735 117.019 41.2459C117.019 41.2184 117.101 41.1909 117.239 41.1634C117.349 41.1634 117.514 41.1083 117.596 41.0533C117.679 40.9982 117.789 40.9707 117.817 40.9707C117.899 40.9707 118.284 40.7781 118.284 40.723C118.312 40.6955 118.34 40.6955 118.395 40.6955C118.45 40.6955 118.477 40.668 118.477 40.6405C118.477 40.6405 118.587 40.5579 118.752 40.5029L119 40.3928V38.714C119 37.1178 118.972 36.9802 118.862 37.1454C118.835 37.1729 118.78 37.2004 118.725 37.2004C118.697 37.2004 118.642 37.2279 118.615 37.283C118.587 37.338 118.532 37.393 118.477 37.393C118.45 37.393 118.395 37.4206 118.34 37.4756C118.312 37.5306 118.257 37.5582 118.202 37.5582C118.147 37.5582 118.119 37.5857 118.119 37.6132C118.119 37.6132 118.037 37.6683 117.954 37.6958C117.872 37.7508 117.762 37.8059 117.734 37.8609C117.679 37.8884 117.624 37.9435 117.596 37.9435C117.569 37.9435 117.431 37.9985 117.321 38.0535C117.184 38.1086 117.074 38.1636 117.046 38.1636C116.963 38.1636 116.743 38.2737 116.743 38.3012C116.743 38.3287 116.688 38.3563 116.606 38.3563C116.523 38.3563 116.468 38.3563 116.468 38.3838C116.468 38.4113 116.413 38.4388 116.358 38.4388C116.303 38.4388 116.22 38.4663 116.22 38.4939C116.193 38.5214 116.11 38.5214 116.028 38.5214C115.945 38.5214 115.863 38.5489 115.863 38.5764C115.835 38.604 115.725 38.6315 115.615 38.6315C115.505 38.6315 115.422 38.6315 115.422 38.659C115.422 38.6865 115.202 38.714 114.899 38.714C114.597 38.714 114.349 38.6865 114.349 38.659C114.321 38.6315 114.211 38.6315 114.101 38.6315C113.991 38.6315 113.881 38.604 113.881 38.5764C113.854 38.5489 113.771 38.5214 113.689 38.5214C113.606 38.5214 113.523 38.5214 113.523 38.4939C113.523 38.4663 113.496 38.4388 113.441 38.4388C113.386 38.4388 113.358 38.4113 113.358 38.3838C113.358 38.3563 113.303 38.3563 113.276 38.3563C113.166 38.3563 112.918 38.2187 112.863 38.1636C112.835 38.1361 112.78 38.0811 112.725 38.0535C112.67 38.0535 112.588 37.9985 112.533 37.971C112.368 37.8609 111.514 37.0078 111.514 36.9527C111.514 36.9252 111.487 36.8702 111.432 36.8426C111.377 36.7601 111.102 36.2372 111.102 36.1546C111.102 36.1271 111.074 36.0996 111.047 36.0996C111.019 36.0996 111.019 36.0721 111.019 36.017C111.019 35.962 110.991 35.9069 110.964 35.9069C110.936 35.9069 110.909 35.8519 110.909 35.7693C110.909 35.6592 110.909 35.5767 110.881 35.5767C110.854 35.5492 110.826 35.4666 110.826 35.384C110.826 35.3015 110.799 35.2189 110.771 35.2189C110.744 35.1914 110.744 34.8887 110.744 34.4208C110.744 33.9805 110.744 33.6502 110.771 33.6502C110.799 33.6227 110.826 33.5402 110.826 33.4576C110.826 33.375 110.854 33.2925 110.881 33.2925C110.909 33.2925 110.909 33.2649 110.909 33.2099C110.909 33.1549 110.964 33.0448 111.019 32.9622C111.047 32.8521 111.129 32.687 111.184 32.5769C111.239 32.4393 111.322 32.3292 111.349 32.3017C111.404 32.2742 111.432 32.2192 111.432 32.1916C111.432 32.1091 112.395 31.1459 112.45 31.1459C112.478 31.1459 112.533 31.1183 112.56 31.0908C112.588 31.0358 112.78 30.9257 112.973 30.8431C113.166 30.733 113.331 30.6505 113.331 30.623C113.358 30.623 113.386 30.5954 113.441 30.5954C113.496 30.5954 113.551 30.5679 113.551 30.5404C113.578 30.5129 113.633 30.5129 113.716 30.5129C113.771 30.5129 113.854 30.4854 113.881 30.4578C113.936 30.4028 114.239 30.4028 115.092 30.4028C115.973 30.4028 116.248 30.4028 116.275 30.4578C116.275 30.4854 116.33 30.5129 116.413 30.5129C116.468 30.5129 116.523 30.5129 116.551 30.5404C116.551 30.5679 116.606 30.5954 116.688 30.5954C116.743 30.5954 116.798 30.623 116.826 30.6505C116.826 30.678 116.881 30.678 116.963 30.678C117.019 30.678 117.074 30.7055 117.101 30.733C117.101 30.7606 117.156 30.7881 117.239 30.7881C117.294 30.7881 117.349 30.7881 117.349 30.8156C117.349 30.8431 117.376 30.8707 117.431 30.8707C117.486 30.8707 117.514 30.8982 117.514 30.9257C117.514 30.9532 117.569 30.9532 117.624 30.9532C117.679 30.9532 117.707 30.9807 117.707 31.0083C117.707 31.0083 117.762 31.0633 117.844 31.0908C118.257 31.2559 118.752 31.5311 118.807 31.5862C118.972 31.8064 119 31.7238 118.972 30.045V28.4213L118.835 28.3388C118.752 28.3112 118.67 28.2562 118.615 28.2562C118.56 28.2562 118.45 28.2287 118.367 28.1736C118.284 28.1186 118.174 28.0635 118.119 28.0635C118.064 28.0635 118.037 28.0635 118.037 28.036C118.037 28.0085 117.927 27.981 117.789 27.9535C117.679 27.9535 117.569 27.8984 117.541 27.8984C117.541 27.8709 117.459 27.8434 117.404 27.8434C117.349 27.8434 117.294 27.8159 117.266 27.7883C117.266 27.7608 117.184 27.7608 117.101 27.7608C116.991 27.7608 116.908 27.7333 116.908 27.7058C116.881 27.6783 116.798 27.6507 116.688 27.6507C116.606 27.6507 116.496 27.6507 116.496 27.6232C116.468 27.5957 116.303 27.5682 116.11 27.5682C115.918 27.5682 115.78 27.5407 115.78 27.5131C115.78 27.4856 115.532 27.4856 115.147 27.4856C114.762 27.4856 114.487 27.4856 114.487 27.5131ZM33.1631 32.2192C33.1631 35.1088 33.1906 36.5949 33.2182 36.5949C33.2457 36.5949 33.2732 36.7325 33.2732 36.8977C33.2732 37.0628 33.2732 37.2004 33.3007 37.2279C33.3282 37.2279 33.3558 37.3105 33.3558 37.4206C33.3558 37.5031 33.3833 37.5582 33.4108 37.5582C33.4383 37.5582 33.4383 37.6407 33.4383 37.6958C33.4383 37.7783 33.4934 37.9159 33.5484 37.9985C33.5759 38.0811 33.631 38.1911 33.631 38.2187C33.631 38.2462 33.6585 38.3563 33.686 38.4113C33.7411 38.4939 33.7961 38.6315 33.8236 38.714C33.8511 38.7966 33.9062 38.8516 33.9062 38.8516C33.9337 38.8516 33.9612 38.9067 33.9612 38.9342C33.9612 38.9892 33.9612 39.0443 33.9887 39.0443C34.0163 39.0443 34.0438 39.0718 34.0438 39.1268C34.0438 39.1544 34.0988 39.2369 34.1263 39.2644C34.1814 39.292 34.2364 39.347 34.2364 39.3745C34.2364 39.4021 34.319 39.5121 34.4291 39.6222C34.5392 39.7323 34.6492 39.8424 34.6492 39.8699C34.6492 39.9525 34.8694 40.1726 34.9244 40.1726C34.952 40.1726 35.0896 40.2827 35.1996 40.3928C35.3097 40.5029 35.4198 40.5854 35.4473 40.5854C35.4749 40.5854 35.5299 40.6405 35.5574 40.6955C35.5849 40.723 35.6675 40.7781 35.695 40.7781C35.7501 40.7781 35.7776 40.8056 35.7776 40.8331C35.7776 40.8606 35.8326 40.8606 35.8877 40.8606C35.9152 40.8606 35.9702 40.8882 35.9702 40.9157C35.9977 40.9707 36.4931 41.1909 36.6032 41.1909C36.6582 41.1909 36.7133 41.2184 36.7408 41.2459C36.7408 41.2735 36.7958 41.2735 36.8784 41.2735C36.9335 41.2735 36.9885 41.301 37.016 41.3285C37.016 41.356 37.0986 41.3835 37.1811 41.3835C37.2637 41.3835 37.3463 41.3835 37.3463 41.4111C37.3463 41.4386 37.4288 41.4661 37.5389 41.4661C37.649 41.4661 37.7591 41.4936 37.7866 41.5211C37.8141 41.5762 39.9607 41.5762 39.9607 41.5211C39.9607 41.4936 40.0433 41.4661 40.1534 41.4661C40.2634 41.4661 40.3735 41.4386 40.401 41.4111C40.401 41.3835 40.4836 41.3835 40.5937 41.3835C40.6763 41.3835 40.7588 41.356 40.7588 41.3285C40.7863 41.301 40.8414 41.2735 40.8964 41.2735C40.9515 41.2735 41.034 41.2459 41.0891 41.2184C41.1441 41.1634 41.1991 41.1359 41.2542 41.1359C41.3368 41.1359 41.7771 40.9157 41.8321 40.8331C41.8872 40.8056 41.9147 40.7781 41.9422 40.7781C41.9972 40.7781 42.0523 40.723 42.1073 40.6955C42.1349 40.6405 42.1899 40.5854 42.2174 40.5854C42.2725 40.5854 42.355 40.5304 42.4101 40.4478C42.4926 40.3928 42.5752 40.3102 42.6027 40.3102C42.6577 40.3102 43.2632 39.7048 43.2632 39.6497C43.2632 39.6222 43.3182 39.5397 43.3733 39.4846C43.4558 39.4296 43.5109 39.347 43.5384 39.292C43.621 39.1268 43.7035 38.9892 43.7861 38.9067C43.8136 38.8516 43.8687 38.7691 43.8962 38.6865C43.9512 38.604 43.9787 38.5214 44.0063 38.5214C44.0338 38.5214 44.0338 38.4939 44.0338 38.4388C44.0338 38.3838 44.0613 38.3563 44.0888 38.3563C44.1163 38.3563 44.1439 38.2737 44.1439 38.2187C44.1439 38.1361 44.1439 38.0811 44.1714 38.0811C44.1989 38.0811 44.2264 38.026 44.2264 37.971C44.2264 37.8884 44.2539 37.8334 44.2815 37.8334C44.309 37.8059 44.309 37.7508 44.309 37.6958C44.309 37.6407 44.3365 37.5582 44.364 37.5306C44.3915 37.5306 44.4191 37.283 44.4466 37.0353C44.4466 36.7601 44.4741 36.5399 44.5016 36.5399C44.5291 36.5124 44.5567 34.5584 44.5567 32.1641V27.8434H41.8046V31.7788C41.8046 34.3933 41.7771 35.7418 41.7496 35.7418C41.722 35.7418 41.6945 35.8519 41.6945 36.017C41.6945 36.1821 41.6945 36.3473 41.667 36.3473C41.6395 36.3748 41.612 36.4849 41.612 36.5949C41.612 36.705 41.5844 36.7876 41.5569 36.7876C41.5294 36.7876 41.5294 36.8151 41.5294 36.8702C41.5294 36.9252 41.3368 37.3105 41.1441 37.6958C40.979 37.971 40.5662 38.3012 40.1534 38.5214L39.713 38.7416H38.8324C38.1719 38.7416 37.9242 38.714 37.8967 38.6865C37.8692 38.659 37.7866 38.6315 37.7315 38.6315C37.6765 38.6315 37.6215 38.604 37.6215 38.5764C37.6215 38.5489 37.5664 38.5214 37.5389 38.5214C37.4839 38.5214 37.4288 38.5214 37.4288 38.4939C37.4288 38.4663 37.4013 38.4388 37.3738 38.4388C37.3463 38.4388 37.2637 38.3838 37.2362 38.3563C37.1811 38.3012 37.1261 38.2462 37.0986 38.2462C37.0435 38.2462 36.6582 37.8884 36.6582 37.8059C36.6582 37.7783 36.6307 37.7233 36.5757 37.6958C36.5206 37.6407 36.4656 37.5306 36.4381 37.4481C36.383 37.3655 36.3555 37.283 36.328 37.283C36.3005 37.283 36.3005 37.2554 36.3005 37.2004C36.3005 37.1454 36.273 37.1178 36.2454 37.1178C36.2179 37.1178 36.1904 37.0353 36.1904 36.9527C36.1904 36.8702 36.1904 36.7876 36.1354 36.7601C36.1078 36.7325 36.0803 36.4573 36.0803 36.0996C36.0528 35.7693 36.0253 35.4941 35.9977 35.4666C35.9977 35.4666 35.9702 33.7328 35.9702 31.6412V27.8434H33.1631V32.2192ZM46.7583 34.5309V41.1909H49.5104V27.8434H46.7583V34.5309ZM19.5404 29.1644C19.2102 29.2194 18.6322 29.6873 18.6322 29.8524C18.6322 29.9074 18.6322 29.9074 18.6597 29.8524C18.7148 29.7698 19.045 29.4121 19.1276 29.4121C19.1551 29.4121 19.1826 29.3845 19.1826 29.357C19.1826 29.3295 19.2102 29.302 19.2652 29.302C19.3202 29.302 19.3753 29.302 19.3753 29.2745C19.3753 29.2469 19.4303 29.2194 19.5129 29.2194C19.5679 29.2194 19.6505 29.1919 19.6505 29.1644C19.6505 29.1369 19.623 29.1369 19.623 29.1369C19.623 29.1369 19.5679 29.1369 19.5404 29.1644ZM20.4761 29.1644C20.4761 29.1919 20.5036 29.2194 20.5587 29.2194C20.7788 29.2194 21.5219 29.7698 21.5219 29.935C21.5219 29.9625 21.5494 30.0175 21.5769 30.0175C21.687 30.1001 21.5219 29.8524 21.3292 29.6322C21.054 29.3845 20.4761 29.0543 20.4761 29.1644ZM18.5221 29.9625C18.4121 30.1276 18.357 30.2377 18.357 30.3753C18.357 30.4303 18.3295 30.5129 18.302 30.5404C18.2745 30.5404 18.2745 30.7055 18.2745 30.9257C18.2745 31.1183 18.2745 31.2835 18.302 31.311C18.3295 31.311 18.357 31.366 18.357 31.4211C18.357 31.5036 18.4671 31.7513 18.4946 31.7513C18.5221 31.7513 18.5497 31.7788 18.5497 31.8064C18.5497 31.8889 18.99 32.3568 19.1276 32.4118C19.1826 32.4118 19.2377 32.4668 19.2377 32.4668C19.2377 32.4944 19.2652 32.5219 19.2927 32.5219C19.3202 32.5219 19.2927 32.4944 19.2652 32.4393C19.2102 32.3843 19.1551 32.3292 19.1276 32.3292C19.045 32.3292 18.6047 31.8614 18.5221 31.6963C18.4946 31.6137 18.4671 31.5587 18.4396 31.5587C18.4121 31.5587 18.4121 31.5036 18.4121 31.4211C18.4121 31.3385 18.3845 31.2835 18.357 31.2835C18.3295 31.2835 18.302 31.1183 18.302 30.9257C18.302 30.7055 18.3295 30.5404 18.357 30.5404C18.3845 30.5129 18.4121 30.4303 18.4121 30.3478C18.4121 30.2652 18.4121 30.1826 18.4396 30.1826C18.4671 30.1826 18.4946 30.1551 18.4946 30.1001C18.4946 30.045 18.5221 29.99 18.5497 29.99C18.5772 29.9625 18.6047 29.9625 18.5772 29.935C18.5497 29.9074 18.5221 29.935 18.5221 29.9625ZM84.4891 30.2377C84.4891 30.2652 84.5992 30.2652 84.7093 30.2652C84.8194 30.2652 84.9294 30.2927 84.9294 30.3202C84.957 30.3478 85.067 30.3753 85.1771 30.3753C85.2872 30.4028 85.3973 30.4303 85.4248 30.4578L85.7 30.623C85.8376 30.678 85.9752 30.7606 86.0027 30.8156C86.0303 30.8431 86.0853 30.8707 86.1128 30.8707C86.1404 30.8707 86.2504 30.9532 86.333 31.0358C86.4156 31.1183 86.4981 31.2009 86.5257 31.2009C86.6082 31.2009 87.1586 31.7513 87.1586 31.8064C87.1586 31.8339 87.2137 31.9164 87.2962 31.999C87.3788 32.054 87.4338 32.1366 87.4338 32.1916C87.4338 32.2192 87.4613 32.2742 87.5164 32.3292C87.5714 32.3568 87.6265 32.4393 87.6265 32.4668C87.6265 32.4944 87.6265 32.5219 87.654 32.5219C87.6815 32.5219 87.709 32.5494 87.709 32.6045C87.709 32.632 87.7365 32.7145 87.7916 32.7971C87.8466 32.8521 87.9017 33.0173 87.9292 33.1273C87.9292 33.2374 87.9567 33.3475 87.9842 33.375C88.0118 33.375 88.0393 33.4576 88.0393 33.5677C88.0393 33.6502 88.0393 33.7328 88.0668 33.7328C88.0943 33.7603 88.1218 34.063 88.1218 34.5309C88.1218 34.9712 88.0943 35.274 88.0668 35.3015C88.0393 35.3015 88.0393 35.384 88.0393 35.4941C88.0393 35.5767 88.0118 35.6592 87.9842 35.6592C87.9567 35.6868 87.9292 35.7693 87.9292 35.8794C87.8742 36.0996 87.7916 36.3197 87.7366 36.3197C87.7366 36.3197 87.709 36.3748 87.709 36.4298C87.709 36.4849 87.6815 36.5124 87.654 36.5124C87.6265 36.5124 87.6265 36.5399 87.6265 36.5949C87.6265 36.65 87.5714 36.705 87.5164 36.7325C87.4613 36.7601 87.4338 36.8151 87.4338 36.8426C87.4338 36.8702 87.4063 36.9527 87.3513 37.0078C87.2962 37.0353 87.2412 37.0903 87.2412 37.1178C87.2412 37.2004 86.4706 37.971 86.388 37.971C86.3605 37.971 86.3055 38.026 86.2229 38.1086C86.1679 38.1911 86.0303 38.2737 85.9477 38.3012C85.8651 38.3287 85.7826 38.3838 85.7826 38.4113C85.7826 38.4113 85.7551 38.4388 85.7 38.4388C85.645 38.4388 85.5899 38.4663 85.5899 38.4939C85.5899 38.5214 85.5624 38.5214 85.5074 38.5214C85.4523 38.5214 85.4248 38.5489 85.4248 38.5764C85.4248 38.6315 85.1496 38.714 84.9019 38.7416C84.7918 38.7691 84.6818 38.7966 84.6542 38.8241C84.6542 38.8241 84.4891 38.8516 84.324 38.8516C84.1313 38.8516 83.9937 38.8792 83.9662 38.9067C83.9662 38.9342 83.8561 38.9342 83.7461 38.9342C83.636 38.9342 83.5259 38.9342 83.5259 38.9067C83.4984 38.8792 83.3333 38.8516 83.1681 38.8516C83.003 38.8516 82.8379 38.8241 82.8379 38.8241C82.8104 38.7966 82.7003 38.7691 82.5627 38.7416C82.315 38.714 81.9297 38.5489 81.9022 38.4663C81.8747 38.4663 81.8471 38.4388 81.7921 38.4388C81.7371 38.4388 81.7095 38.4113 81.7095 38.3838C81.7095 38.3563 81.6545 38.3563 81.627 38.3563C81.5719 38.3563 81.5169 38.3012 81.4618 38.2462C81.4343 38.2187 81.3793 38.1636 81.3518 38.1636C81.3242 38.1636 81.2417 38.0811 81.1591 37.9985C81.0766 37.9159 80.9665 37.8334 80.939 37.8334C80.8839 37.8334 80.4711 37.4206 80.4711 37.3655C80.4711 37.338 80.3885 37.2279 80.306 37.1454C80.2234 37.0628 80.1409 36.9802 80.1409 36.9527C80.1409 36.9252 80.1133 36.8702 80.0583 36.8426C80.0033 36.7876 79.9482 36.7325 79.9482 36.6775C79.9482 36.65 79.9482 36.5949 79.9207 36.5949C79.8932 36.5949 79.8656 36.5674 79.8656 36.5124C79.8656 36.4573 79.8381 36.4298 79.8381 36.4023C79.7831 36.4023 79.5904 36.017 79.5904 35.9345C79.5904 35.8794 79.5629 35.8244 79.5354 35.7968C79.5354 35.7693 79.4804 35.5767 79.4804 35.384C79.4528 35.1639 79.4253 34.9987 79.3978 34.9712C79.3703 34.9712 79.3703 34.7511 79.3703 34.5309C79.3703 34.2832 79.3703 34.063 79.3978 34.063C79.4253 34.0355 79.4528 33.8704 79.4804 33.6502C79.4804 33.4576 79.5354 33.2649 79.5354 33.2374C79.5629 33.2099 79.5904 33.1549 79.5904 33.0998C79.5904 33.0173 79.7831 32.632 79.8381 32.632C79.8381 32.6045 79.8656 32.5769 79.8656 32.5219C79.8656 32.4668 79.8932 32.4393 79.9207 32.4393C79.9482 32.4393 79.9482 32.4118 79.9482 32.3568C79.9482 32.3292 80.0033 32.2742 80.0583 32.2192C80.1133 32.1916 80.1409 32.1091 80.1409 32.0816C80.1409 32.0265 81.1041 31.0633 81.1591 31.0633C81.1866 31.0633 81.2692 30.9807 81.3518 30.9257C81.4068 30.8431 81.5169 30.7881 81.5444 30.7881C81.5719 30.7881 81.5994 30.7606 81.5994 30.733C81.5994 30.7055 81.6545 30.678 81.7095 30.678C81.7371 30.678 81.7921 30.678 81.7921 30.6505C81.8196 30.5954 82.2049 30.4303 82.3976 30.3753C82.5352 30.3753 82.6177 30.3478 82.6452 30.3202C82.6452 30.2927 82.7553 30.2652 82.8654 30.2652C82.9755 30.2652 83.0856 30.2652 83.0856 30.2377C83.0856 30.2102 83.3333 30.1826 83.7736 30.1826C84.1589 30.1826 84.4616 30.2102 84.4891 30.2377ZM100.561 30.3202C100.589 30.3478 100.699 30.3753 100.836 30.3753C101.057 30.4028 101.442 30.5679 101.524 30.6505C101.524 30.6505 101.607 30.7055 101.717 30.733C101.8 30.7881 101.882 30.8431 101.937 30.8982C101.965 30.9257 102.02 30.9532 102.047 30.9532C102.075 30.9532 102.157 31.0083 102.212 31.0908C102.267 31.1459 102.322 31.2009 102.35 31.2009C102.433 31.2009 102.983 31.7513 102.983 31.8064C102.983 31.8339 103.066 31.944 103.176 32.054C103.258 32.1366 103.341 32.2467 103.341 32.2742C103.341 32.3017 103.368 32.3568 103.423 32.3843C103.506 32.4668 103.754 32.9622 103.754 33.0723C103.754 33.1273 103.781 33.1824 103.809 33.1824C103.836 33.2099 103.864 33.2925 103.864 33.375C103.864 33.4576 103.864 33.5402 103.891 33.5677C103.919 33.5677 103.946 33.6778 103.946 33.7878C103.946 33.8979 103.974 33.9805 104.001 33.9805C104.029 33.9805 104.029 34.2282 104.029 34.6135C104.029 34.9987 104.029 35.2189 104.001 35.2189C103.974 35.2189 103.946 35.329 103.946 35.4391C103.946 35.5492 103.919 35.6592 103.891 35.6592C103.864 35.6868 103.864 35.7418 103.864 35.7968C103.864 35.8519 103.836 35.9345 103.809 35.9345C103.781 35.962 103.754 36.017 103.754 36.0445C103.754 36.1546 103.506 36.6775 103.423 36.7325C103.368 36.7876 103.341 36.8151 103.341 36.8426C103.341 36.8977 103.313 36.9527 103.258 37.0078C103.203 37.0353 103.176 37.0903 103.176 37.1178C103.176 37.2004 102.185 38.1636 102.13 38.1636C102.102 38.1636 102.047 38.1911 102.02 38.2187C101.992 38.2737 101.8 38.3838 101.607 38.4663C101.414 38.5764 101.249 38.659 101.249 38.6865C101.222 38.6865 101.112 38.714 101.001 38.7416C100.891 38.7691 100.781 38.7966 100.754 38.8241C100.754 38.8241 100.644 38.8516 100.534 38.8516C100.424 38.8516 100.313 38.8792 100.313 38.9067C100.286 38.9342 100.011 38.9342 99.6805 38.9342C99.3227 38.9342 99.0751 38.9342 99.0751 38.9067C99.0751 38.8792 98.9925 38.8516 98.8824 38.8516C98.7723 38.8516 98.6622 38.8241 98.6622 38.8241C98.6347 38.7966 98.5246 38.7691 98.387 38.7416C98.1394 38.714 97.7541 38.5489 97.7265 38.4663C97.699 38.4663 97.6715 38.4388 97.6165 38.4388C97.5889 38.4388 97.5064 38.3838 97.4789 38.3563C97.4513 38.3012 97.3688 38.2462 97.3413 38.2462C97.3137 38.2462 97.2587 38.2187 97.2037 38.1636C97.1761 38.1086 97.1211 38.0811 97.0936 38.0811C97.0385 38.0811 96.2955 37.338 96.2955 37.2554C96.2955 37.2279 96.2404 37.1729 96.1854 37.1178C96.1028 37.0628 96.0478 36.9802 96.0478 36.9527C96.0478 36.9252 96.0203 36.8702 95.9652 36.8426C95.9102 36.7876 95.8827 36.7325 95.8827 36.6775C95.8827 36.65 95.8551 36.5949 95.8276 36.5949C95.8001 36.5949 95.69 36.3748 95.69 36.2922C95.69 36.2647 95.6625 36.1546 95.6075 36.0721C95.5524 35.9895 95.4974 35.8794 95.4974 35.8244C95.4974 35.7693 95.4974 35.7143 95.4699 35.7143C95.4423 35.6868 95.4148 35.6042 95.4148 35.4941C95.4148 35.4116 95.3873 35.3015 95.3598 35.3015C95.3322 35.274 95.3323 34.9712 95.3323 34.5309C95.3323 34.063 95.3322 33.7603 95.3598 33.7328C95.3873 33.7328 95.4148 33.6502 95.4148 33.5677C95.4148 33.5126 95.4423 33.4301 95.4699 33.4301C95.4974 33.4026 95.4974 33.3475 95.4974 33.2925C95.4974 33.2099 95.5249 33.1549 95.5524 33.1549C95.5799 33.1273 95.6075 33.0723 95.6075 33.0173C95.6075 32.9347 95.7726 32.5494 95.8276 32.5219C95.8551 32.5219 95.8827 32.4668 95.8827 32.4393C95.8827 32.3843 95.9102 32.3292 95.9652 32.3017C96.0203 32.2467 96.0478 32.1916 96.0478 32.1641C96.0478 32.1091 97.1211 31.0633 97.1761 31.0633C97.2036 31.0633 97.2587 31.0083 97.2862 30.9532C97.3413 30.8982 97.3963 30.8707 97.4513 30.8707C97.4789 30.8707 97.5339 30.8431 97.5339 30.8156C97.5339 30.7881 97.5614 30.7881 97.6165 30.7881C97.644 30.7881 97.699 30.733 97.7541 30.678C97.7816 30.623 97.8366 30.5954 97.8917 30.5954C97.9467 30.5954 98.0568 30.5679 98.1394 30.5129C98.2219 30.4578 98.4146 30.4028 98.5522 30.3753C98.6898 30.3753 98.7998 30.3478 98.7998 30.3202C98.7998 30.2652 100.534 30.2652 100.561 30.3202ZM21.7421 30.8431C21.7421 31.0908 21.7421 31.2559 21.7145 31.311C21.687 31.3385 21.6595 31.366 21.6595 31.3935C21.6595 31.4211 21.687 31.3935 21.7421 31.366C21.7971 31.2835 21.8246 30.4028 21.7696 30.4028C21.7421 30.4028 21.7421 30.5954 21.7421 30.8431Z" fill="white"/>
<path fill-rule="evenodd" clip-rule="evenodd" d="M19.6498 29.164C19.6498 29.1915 19.5672 29.219 19.5122 29.219C19.4296 29.219 19.3746 29.2466 19.3746 29.2741C19.3746 29.3016 19.3195 29.3016 19.2645 29.3016C19.2095 29.3016 19.1819 29.3291 19.1819 29.3566C19.1819 29.3842 19.1544 29.4117 19.1269 29.4117C19.0443 29.4117 18.6866 29.7694 18.6866 29.8245C18.6866 29.852 18.6315 29.9071 18.5765 29.9621C18.5214 29.9896 18.4939 30.0447 18.4939 30.0997C18.4939 30.1547 18.4664 30.1823 18.4389 30.1823C18.4114 30.1823 18.4114 30.2648 18.4114 30.3474C18.4114 30.4299 18.3838 30.5125 18.3563 30.54C18.3288 30.54 18.3013 30.7052 18.3013 30.9253C18.3013 31.118 18.3288 31.2831 18.3563 31.2831C18.3838 31.2831 18.4114 31.3381 18.4114 31.4207C18.4114 31.5032 18.4114 31.5583 18.4389 31.5583C18.4664 31.5583 18.4939 31.6133 18.5214 31.6959C18.604 31.861 19.0443 32.3289 19.1269 32.3289C19.1544 32.3289 19.2095 32.3839 19.2645 32.439C19.292 32.494 19.3746 32.5215 19.4296 32.5215C19.5122 32.5215 19.5397 32.549 19.5397 32.5766C19.5397 32.6316 20.5029 32.6316 20.5304 32.549C20.558 32.549 20.613 32.5215 20.6405 32.5215C20.9433 32.5215 21.7964 31.6133 21.6863 31.4207C21.6588 31.3932 21.6863 31.3381 21.7138 31.3106C21.8239 31.173 21.7413 30.3474 21.6037 30.0722C21.3836 29.6594 20.8332 29.219 20.558 29.219C20.5029 29.219 20.4754 29.1915 20.4754 29.164C20.4754 29.1365 20.3103 29.1365 20.0626 29.1365C19.8149 29.1365 19.6498 29.1365 19.6498 29.164Z" fill="white"/>
</svg>
