<svg xmlns="http://www.w3.org/2000/svg" width="128" height="64" fill="none"><rect width="128" height="64" fill="#34A02E" rx="6"/><path fill="#fff" fill-rule="evenodd" d="M18.577 20.055c-.027.028-.165.028-.303.028-.137 0-.247.027-.247.055 0 .027-.11.055-.248.055-.137 0-.248 0-.275.027 0 .028-.083.055-.165.055-.11 0-.193.028-.193.055-.027.028-.082.028-.165.028s-.138.027-.165.055c0 .027-.11.055-.248.082-.137 0-.248.028-.248.055-.027.028-.055.055-.11.055-.11 0-.33.083-.33.138 0 .028-.027.028-.082.028-.055 0-.358.137-.688.302-.303.165-.606.303-.633.303-.028 0-.083.055-.11.083-.028.055-.11.11-.138.11-.055 0-.083 0-.083.027 0 .028-.055.055-.082.055-.055 0-.11.055-.165.083-.028.055-.083.11-.11.11-.028 0-.11.055-.165.137-.083.055-.166.138-.193.138-.028 0-.11.055-.165.11-.055.055-.138.11-.165.11-.028 0-.193.138-.358.33-.193.166-.33.303-.358.303-.082 0-.578.523-.578.578 0 .028-.138.165-.275.33-.165.138-.275.303-.275.33 0 .028-.083.11-.165.193-.083.083-.166.193-.166.22 0 .028-.055.083-.082.138-.055.028-.11.083-.11.11 0 .028-.028.083-.083.138a.151.151 0 0 0-.082.137c0 .028-.055.083-.11.138-.028.027-.083.082-.083.11 0 .083-.11.33-.22.44-.083.11-.275.496-.275.578 0 .028-.11.276-.33.716-.028.027-.056.165-.083.275 0 .11-.028.22-.055.248-.028 0-.055.082-.055.165 0 .082 0 .165-.028.193-.027 0-.055.082-.055.165a.295.295 0 0 1-.055.165c-.027 0-.027.11-.027.22s-.028.22-.055.22c-.028.028-.055.138-.055.275 0 .138 0 .248-.028.248-.027 0-.055.55-.055 1.514 0 .99.028 1.513.055 1.513.028 0 .028.11.028.248s.027.275.055.303c.027 0 .055.137.055.275 0 .137 0 .248.027.248.028 0 .055.055.055.137 0 .11.028.193.055.193.028.027.028.11.028.192 0 .083.027.166.055.166.027.027.055.137.055.247.027.11.055.248.082.276.193.385.22.495.22.55 0 .055.386.798.551 1.073.055.083.138.248.193.358.055.083.11.193.165.248a.21.21 0 0 1 .055.11c0 .027.082.11.137.192.083.055.138.138.138.165 0 .028.055.11.138.166.055.055.11.137.11.165 0 .027.082.137.22.275.137.11.22.248.22.275 0 .055.798.853.853.853.028 0 .165.11.303.248.138.138.275.248.303.248.027 0 .11.055.192.137.055.083.138.138.165.138.028 0 .11.055.193.138.055.082.138.137.193.137.027 0 .082.028.11.083.055.055.137.11.22.137.083 0 .165.055.22.11.028.055.11.083.138.083a.06.06 0 0 1 .055.055c0 .027.027.027.082.027.055 0 .11.028.11.056.028.027.964.495 1.046.495.055 0 .303.11.468.192.055.028.11.055.165.055.055 0 .11 0 .138.028 0 .028.082.055.165.055.082 0 .165.028.193.055 0 .028.082.028.192.028.083 0 .138.027.138.055 0 .027.082.055.165.055.082 0 .165 0 .192.027 0 .028.138.055.276.055.137 0 .247.028.275.055 0 .028.165.028.33.028.193 0 .33.027.358.055.027.055 2.119.055 2.147 0 .027-.028.165-.055.357-.055.166 0 .33 0 .33-.028.028-.027.138-.055.248-.055.11 0 .193-.027.193-.055 0-.027.082-.027.193-.027.11 0 .22-.028.247-.055 0-.028.083-.055.193-.055.082 0 .165 0 .165-.028a.21.21 0 0 1 .138-.055c.055 0 .11-.027.11-.055s.082-.028.165-.028c.082 0 .165-.027.192-.055 0-.027.083-.055.138-.055.055 0 .11 0 .138-.027 0-.028.082-.055.137-.055a.439.439 0 0 0 .22-.083c.083-.027.166-.055.193-.055.083 0 .303-.11.303-.137 0-.028.027-.055.082-.055a.51.51 0 0 0 .193-.055c.083-.055.358.137.358.275 0 .027.055.11.11.165.055.055.11.11.11.137 0 .028.055.083.11.138a.151.151 0 0 1 .083.138c0 .027.027.082.082.137.055.028.11.083.11.11 0 .028.028.083.055.11.055.028.11.11.138.166.082.165.165.302.275.412.055.083.11.166.11.193 0 .028.055.083.11.138.028.027.083.082.083.137 0 .028.027.083.082.11.028.028.083.11.11.138.083.165.166.303.248.385.028.055.055.11.055.138 0 0 .083.082.138.165.082.055.137.138.137.165 0 .055.055.11.083.138.11.082.193.22.248.357.027.056.055.11.082.138.028 0 .083.083.11.138l.028.11h1.679c.935 0 1.678-.028 1.678-.028 0-.027-.055-.082-.082-.165-.055-.055-.11-.165-.165-.248-.055-.082-.11-.165-.138-.165 0 0-.027-.027-.027-.082 0-.028-.055-.11-.083-.138-.055-.027-.11-.082-.11-.11 0-.027-.028-.11-.083-.137-.055-.056-.082-.11-.082-.138 0-.028-.055-.11-.138-.165a1.722 1.722 0 0 1-.275-.44c-.028-.056-.083-.11-.11-.166-.055-.027-.083-.082-.083-.11 0-.027-.055-.082-.082-.137-.055-.028-.11-.11-.11-.138 0-.027-.028-.083-.083-.138-.055-.027-.082-.11-.082-.137 0-.028-.056-.11-.138-.165-.055-.055-.138-.138-.165-.193a1.129 1.129 0 0 0-.22-.358c-.055-.027-.083-.11-.083-.137 0-.028-.055-.083-.082-.138-.055-.028-.11-.083-.11-.11 0-.028-.028-.083-.083-.138-.055-.027-.083-.11-.083-.137 0-.028-.055-.11-.11-.165-.082-.055-.137-.11-.137-.165 0-.028-.028-.083-.083-.11-.055-.056-.082-.11-.082-.138 0-.055-.056-.11-.11-.138-.028-.055-.083-.11-.083-.137 0-.055-.055-.11-.083-.138-.055-.055-.11-.11-.11-.165a.209.209 0 0 0-.055-.11c-.055-.028-.11-.11-.11-.138a1.335 1.335 0 0 0-.248-.358c-.11-.11 0-.412.193-.412.055 0 .77-.716.77-.77 0-.029.11-.166.276-.304.137-.137.247-.275.247-.302 0-.028.055-.11.11-.166a1.45 1.45 0 0 0 .303-.412c0-.055.055-.11.11-.166a.208.208 0 0 0 .055-.11c0-.027.028-.082.083-.11.027-.027.138-.192.193-.357.082-.138.165-.303.192-.303.055-.028.193-.303.193-.358 0-.027.055-.165.11-.275.055-.138.11-.275.11-.33 0-.028.028-.083.055-.083.028-.027.028-.082.028-.137 0-.083.027-.138.055-.138.027-.028.055-.083.055-.165 0-.055 0-.11.027-.11.028 0 .055-.055.055-.138 0-.055.028-.138.055-.138.028 0 .028-.055.028-.137 0-.11.027-.193.055-.193.027-.027.055-.11.055-.192 0-.083 0-.166.027-.166.028-.027.056-.137.056-.247 0-.138.027-.248.055-.275.055-.056.055-.523.055-1.982 0-1.486 0-1.954-.055-1.981-.028-.028-.055-.138-.055-.248 0-.083-.028-.165-.055-.193-.028 0-.028-.082-.028-.165 0-.11-.028-.192-.055-.192-.028-.028-.055-.11-.055-.193s0-.165-.028-.165c-.027 0-.055-.055-.055-.138 0-.055-.027-.138-.055-.138-.027 0-.027-.055-.027-.11a.21.21 0 0 0-.055-.137c-.028 0-.055-.055-.055-.11s-.055-.193-.11-.33c-.083-.138-.166-.33-.166-.413-.027-.11-.055-.165-.082-.165-.028 0-.055-.055-.055-.11s0-.083-.028-.083a.06.06 0 0 1-.055-.055.151.151 0 0 0-.082-.138.65.65 0 0 1-.138-.247 1.235 1.235 0 0 0-.165-.248c-.027-.028-.083-.083-.083-.11a.208.208 0 0 0-.055-.11c-.055-.055-.11-.11-.137-.165a.971.971 0 0 0-.33-.468c-.083-.083-.166-.165-.166-.193 0-.082-1.65-1.761-1.733-1.761 0 0-.11-.055-.193-.138-.083-.11-.165-.165-.193-.165-.027 0-.11-.055-.137-.11-.055-.027-.11-.083-.138-.083-.027 0-.11-.055-.165-.11-.055-.082-.193-.165-.303-.22a.65.65 0 0 1-.247-.137c-.028-.055-.083-.083-.11-.083-.056 0-.386-.165-.386-.193 0-.027-.055-.027-.11-.027s-.082-.028-.082-.055c0-.028-.028-.055-.083-.055-.055 0-.11 0-.11-.028-.028-.055-.605-.33-.688-.33a.21.21 0 0 1-.11-.055c0-.027-.083-.027-.138-.027a.21.21 0 0 1-.137-.056c0-.027-.11-.055-.22-.055-.11-.027-.22-.055-.248-.082 0-.028-.083-.055-.165-.055-.083 0-.166 0-.193-.028 0-.027-.083-.055-.193-.055-.082 0-.137-.027-.137-.055 0-.027-.11-.027-.22-.027s-.22-.028-.22-.055c-.028-.028-.166-.055-.33-.055-.166 0-.303 0-.303-.028 0-.027-.523-.055-1.514-.055-.936 0-1.514.027-1.514.055ZM63.85 30.733v10.458h2.89v-3.358c0-1.871.027-3.385.054-3.385.055 0 .22.193.22.248 0 .028.083.138.166.22.082.083.165.193.165.22 0 0 .082.11.192.22.083.083.165.193.165.22 0 .028.083.11.166.193.082.083.165.193.165.22 0 .028.082.138.192.22.083.11.165.193.165.248 0 .028.083.11.166.193.082.083.165.165.165.193 0 .055.082.137.192.247.083.083.166.193.166.22 0 .028.082.11.192.22s.193.193.193.22c0 .028.055.138.165.221.082.083.138.165.138.193 0 .055.082.137.192.22.11.082.193.192.193.22 0 .028.055.11.165.193a.522.522 0 0 1 .138.22c0 .027.082.137.192.22.11.11.193.22.193.248l.165.22c.11.082.193.192.193.22 0 .028.082.138.165.22.082.083.165.165.165.193 0 .027.082.137.165.247.11.083.193.193.193.22 0 .028.082.11.165.22l.192.166h3.44l-.055-.138c-.055-.055-.11-.165-.192-.22-.055-.055-.11-.137-.11-.165 0-.027-.083-.138-.165-.22-.083-.083-.165-.165-.165-.193 0-.027-.083-.137-.166-.22-.11-.11-.192-.22-.192-.248 0-.027-.083-.11-.165-.192-.083-.083-.165-.193-.165-.193 0-.028-.083-.138-.166-.22-.11-.11-.192-.22-.192-.248 0-.027-.083-.11-.165-.192-.083-.083-.166-.166-.166-.193 0-.028-.055-.11-.137-.193-.055-.082-.138-.165-.138-.192 0 0-.082-.11-.165-.193-.11-.11-.192-.22-.192-.248 0-.027-.083-.11-.166-.192-.082-.083-.165-.193-.165-.22 0-.028-.082-.138-.165-.22-.11-.11-.192-.193-.192-.248 0-.028-.083-.11-.166-.193-.082-.083-.165-.165-.165-.193 0-.055-.082-.137-.165-.247-.11-.083-.193-.193-.193-.22 0-.028-.055-.11-.137-.166-.083-.055-.138-.137-.138-.165 0-.055-.082-.137-.165-.22-.082-.083-.165-.193-.165-.22 0-.028-.083-.11-.165-.22-.11-.11-.193-.193-.193-.22 0-.028-.082-.11-.192-.22-.083-.083-.165-.193-.165-.22 0-.028-.056-.11-.138-.166l-.11-.138.303-.302c.165-.165.302-.303.302-.33 0-.028.22-.276.496-.523.247-.276.468-.496.468-.523 0-.028.22-.248.495-.523.248-.275.468-.495.468-.523 0-.027.22-.275.495-.523.248-.275.468-.523.468-.523 0-.027.192-.248.44-.495.248-.248.44-.468.44-.468 0-.027.193-.275.44-.523.276-.248.469-.468.469-.495 0-.028.055-.11.137-.193.276-.248.303-.248-1.678-.248-1.734.028-1.817.028-1.872.11-.027.056-.275.33-.578.606-.275.303-.495.55-.495.578 0 0-.22.247-.495.523-.248.247-.468.495-.468.523 0 .027-.248.275-.523.55-.303.303-.55.55-.55.578 0 .027-.22.275-.496.55-.275.276-.495.523-.495.55 0 .028-.248.276-.523.579l-.55.523V20.275h-2.89v10.458Zm-16.513-8.752a1.315 1.315 0 0 0-.303.166c-.11.055-.275.22-.275.302 0 .028-.027.083-.082.083-.055.027-.193.303-.193.413a.209.209 0 0 1-.055.11c-.027 0-.055.22-.055.495s.028.495.055.523c.028 0 .055.055.055.11s.028.165.083.193c.055.055.082.11.082.137 0 .11.496.523.716.633.137.055.275.11.303.138.11.055.853.055.908 0 0-.028.055-.055.137-.055.055 0 .11-.028.11-.055 0-.028.028-.028.055-.028.055 0 .138-.082.22-.137.056-.083.138-.138.166-.138.082 0 .192-.137.192-.22 0-.027.028-.083.055-.083.11-.082.276-.44.276-.633 0-.082 0-.192.027-.192.028-.028.055-.11.055-.193 0-.082-.027-.165-.055-.165-.027 0-.027-.083-.027-.193s-.028-.22-.056-.22a.21.21 0 0 1-.054-.137c0-.055-.028-.166-.083-.193-.055-.055-.083-.11-.083-.138 0-.055-.33-.385-.412-.385-.028 0-.083-.055-.11-.11-.056-.027-.138-.083-.193-.083-.055 0-.138-.027-.138-.055-.082-.11-1.1-.027-1.32.11Zm-26.117.991c.028.028.138.055.275.055.138 0 .276.028.276.055.027.028.137.028.247.028.11 0 .193.027.193.055 0 .027.055.055.11.055s.138 0 .138.027a.21.21 0 0 0 .137.055c.055 0 .138.028.138.056.027.027.082.027.137.027.055 0 .138.028.138.055a.21.21 0 0 0 .138.055c.055 0 .11 0 .11.028 0 .027.055.055.082.055.055 0 .138.027.165.082a.509.509 0 0 0 .193.055c.055 0 .138.028.165.083.028.027.193.11.358.193.137.082.303.165.33.192.028.055.083.083.11.083.028 0 .11.055.193.137.055.083.137.138.192.138.028 0 .083.055.138.11.055.055.138.11.165.11.055 0 1.046.99 1.046 1.046 0 .027.083.138.165.22.11.11.193.193.193.22 0 .028.027.083.082.138.083.082.138.192.276.44.027.11.11.22.137.275.055.028.11.138.138.22.055.083.082.166.11.166.027 0 .027.055.027.137 0 .055.028.138.055.138.083.027.22.44.248.66.028.138.055.248.083.276.027 0 .027.082.027.165 0 .055.028.137.055.165.028 0 .055.082.055.165 0 .082 0 .165.028.192.027 0 .055.166.055.33 0 .193.027.331.055.359.027 0 .027.33.027.798 0 .495 0 .77-.027.77-.028 0-.055.165-.055.358 0 .193-.028.358-.055.358-.028.027-.028.11-.028.22 0 .083-.027.193-.055.193a.21.21 0 0 0-.055.137c0 .055 0 .138-.027.138-.028.027-.055.137-.083.275 0 .138-.055.33-.11.413a.634.634 0 0 0-.082.248c0 .054-.028.11-.056.11 0 0-.137.22-.247.44-.276.578-.33.633-.413.743-.028.027-.083.11-.083.138 0 0-.055.082-.137.137-.055.055-.138.138-.138.165 0 .055-.082.138-.165.248-.11.11-.193.193-.193.22 0 .028-.11.138-.22.275-.247.248-.385.248-.385.028 0-.028-.028-.055-.055-.083-.055 0-.083-.082-.11-.137a1.553 1.553 0 0 0-.248-.386c-.055-.055-.082-.11-.082-.137 0-.028-.028-.083-.083-.11-.055-.055-.11-.11-.11-.138a.151.151 0 0 0-.083-.138c-.055-.055-.082-.11-.082-.165 0-.027-.028-.082-.083-.11-.192-.137-.247-.44-.11-.495a2.72 2.72 0 0 0 .413-.248c.027-.027.11-.082.11-.082.028 0 .11-.028.138-.083.055-.055.11-.082.137-.082.028 0 .11-.056.138-.11.055-.056.11-.083.137-.083.028 0 .11-.055.138-.11.055-.028.138-.11.193-.138.165-.055.11-.137-.083-.165-.11 0-.165-.027-.165-.055 0-.027-.082-.027-.165-.027s-.165-.028-.193-.056c0-.027-.082-.055-.165-.055-.11 0-.192 0-.192-.027-.028-.028-.11-.055-.193-.055s-.165-.028-.165-.055c0-.028-.055-.028-.138-.028-.11 0-.192-.027-.192-.055-.028-.027-.11-.055-.193-.055s-.165 0-.165-.027c-.028-.028-.193-.055-.386-.083-.192 0-.357-.055-.357-.055-.028-.027-.11-.055-.193-.055s-.165-.027-.165-.055c-.028-.027-.11-.027-.193-.027-.082 0-.165-.028-.165-.056 0-.027-.082-.054-.165-.054s-.165 0-.165-.028c-.028-.028-.11-.055-.193-.055-.082 0-.165-.028-.192-.055 0-.028-.083-.028-.193-.028-.083 0-.138-.027-.138-.055 0-.027-.082-.055-.192-.055h-.165l.247-.22c.193-.22.358-.468.248-.385-.028 0-.055.055-.055.082 0 .055-.55.633-.633.633-.028 0-.055 0-.083.028 0 .027 0 .055.055.027.083-.027.11.413.028.468-.028 0-.055.248-.055.523 0 .303-.028.495-.055.495-.028 0-.028.22-.028.55 0 .304-.027.524-.055.524-.027 0-.055.192-.055.495 0 .275 0 .523-.027.523-.028.028-.055.248-.055.523 0 .303-.028.523-.055.55-.055.028-.055.138.027.138.083 0 .33-.11.385-.193 0 0 .055-.055.11-.082a.887.887 0 0 0 .358-.22c.055-.055.11-.083.138-.083.055 0 .11-.055.138-.11.027-.055.082-.083.11-.083.027 0 .11-.055.165-.137l.137-.11.11.11c.028.055.11.137.138.192.055.056.083.11.083.166 0 .027 0 .055.027.055a.06.06 0 0 1 .055.055c0 .027.028.11.083.165.055.027.11.082.11.11 0 .027.027.082.055.137.082.083.165.22.247.386.028.055.083.11.11.165.056.027.083.082.083.11 0 .028.028.083.083.138.055.027.11.11.11.137 0 .028-.055.055-.11.055s-.083.028-.083.055c0 .028-.027.055-.082.055-.056 0-.11 0-.11.028 0 .027-.056.055-.11.055a.21.21 0 0 0-.138.055c0 .027-.083.027-.138.027a.21.21 0 0 0-.137.055c0 .028-.083.056-.165.056-.083 0-.166 0-.193.027-.028.028-.22.083-.44.083-.193.027-.386.055-.386.082-.027.028-2.174.028-2.201 0 0-.027-.22-.055-.44-.082-.248-.028-.441-.055-.469-.083-.027-.027-.11-.027-.192-.027-.083 0-.165-.028-.193-.056 0-.027-.082-.055-.193-.055-.082 0-.137 0-.137-.027 0-.028-.055-.055-.11-.055-.028 0-.165-.055-.248-.083a.783.783 0 0 0-.22-.11c-.083 0-.963-.44-1.046-.523a.209.209 0 0 0-.11-.055c-.027 0-.082-.055-.138-.11-.027-.055-.11-.082-.137-.082-.028 0-.083-.028-.138-.083-.027-.055-.11-.11-.137-.11-.028 0-.11-.055-.193-.138-.083-.11-.193-.165-.22-.165-.055 0-.88-.853-.88-.908 0-.028-.11-.138-.221-.248-.11-.11-.193-.22-.193-.247 0-.028-.055-.11-.11-.138-.027-.055-.082-.11-.082-.138 0-.027-.028-.082-.083-.11-.027-.055-.11-.165-.137-.275a1.033 1.033 0 0 0-.138-.22c-.055-.027-.33-.578-.33-.66 0-.028-.055-.11-.083-.193-.055-.11-.11-.22-.11-.275 0-.028 0-.083-.027-.11-.028 0-.056-.083-.056-.138 0-.055-.027-.11-.055-.11-.027 0-.027-.083-.027-.165 0-.083-.028-.165-.055-.165-.028-.028-.055-.138-.055-.248 0-.11 0-.22-.028-.22-.027-.028-.055-.165-.055-.303 0-.138-.027-.275-.055-.303-.027 0-.027-.357-.027-.88 0-.55 0-.881.027-.909.028 0 .055-.165.055-.33s.028-.275.055-.275c.028 0 .028-.11.028-.22s.027-.22.055-.22c.027-.028.055-.11.055-.193 0-.082 0-.165.027-.165.028-.028.056-.083.056-.165 0-.055.027-.11.054-.11.028 0 .028-.028.028-.083 0-.055.055-.165.11-.247.028-.083.083-.193.083-.22 0-.056.027-.166.082-.248.055-.11.138-.276.193-.413.055-.11.138-.22.165-.22a.21.21 0 0 0 .055-.138c0-.027.028-.082.055-.082.028 0 .055-.028.055-.083 0-.028.055-.11.138-.165.055-.083.137-.138.137-.165 0-.055.055-.11.11-.165.056-.055.11-.138.11-.165 0-.056 1.101-1.184 1.184-1.184.027 0 .11-.055.193-.137.082-.11.192-.166.22-.166.027 0 .082-.055.137-.11.028-.027.083-.082.11-.082.028 0 .083-.055.138-.083.027-.055.083-.11.11-.11.055 0 .11-.027.138-.082.055-.028.22-.138.357-.193.166-.083.358-.165.468-.22a.522.522 0 0 1 .248-.083c.055 0 .11-.027.11-.055a.21.21 0 0 1 .138-.055c.055 0 .11 0 .11-.027 0-.028.082-.056.137-.056.083 0 .138-.027.138-.055 0-.027.055-.027.11-.027.083 0 .138-.028.165-.055 0-.028.11-.055.22-.055s.22 0 .22-.028c.028-.027.11-.055.22-.055.083 0 .193-.027.193-.055.028-.027.496-.027 1.239-.027.77 0 1.238 0 1.238.027Zm36.383 4.541c-.028.028-.166.055-.358.055-.165 0-.33.028-.33.055-.028.028-.138.028-.248.028-.11 0-.193.027-.193.055 0 .027-.082.055-.165.055s-.165 0-.165.027a.21.21 0 0 1-.138.055c-.082 0-.137.028-.137.055-.028.028-.083.028-.138.028-.11 0-.44.165-.44.193 0 .027-.055.055-.11.055-.028 0-.083 0-.083.027 0 .028-.055.055-.083.055a.285.285 0 0 0-.11.028c0 .027-.055.082-.165.11a.763.763 0 0 0-.22.137c-.055.055-.11.083-.137.083-.028 0-.083.055-.138.11-.028.055-.11.083-.138.083-.027 0-.11.055-.165.11-.055.055-.11.11-.137.11-.083 0-1.046.99-1.046 1.046 0 .027-.055.11-.138.192-.082.055-.137.138-.137.165 0 .028-.028.083-.083.11-.027.055-.11.166-.138.248-.055.11-.137.248-.192.33-.193.33-.275.496-.275.578 0 .055-.028.11-.055.11-.028.028-.028.083-.028.138 0 .055-.028.138-.055.138a.21.21 0 0 0-.055.137c0 .055 0 .11-.028.11-.027 0-.055.083-.055.138 0 .082-.027.138-.055.138-.027 0-.027.082-.027.165 0 .082-.028.165-.055.192-.028 0-.055.138-.055.275 0 .138 0 .248-.028.276-.027 0-.055.44-.055 1.1 0 .661.028 1.074.055 1.101.028 0 .028.138.028.276 0 .137.027.247.055.275.027 0 .055.082.055.192 0 .083 0 .138.027.138.028 0 .055.055.055.11 0 .083.028.138.055.165.028 0 .028.055.028.11 0 .028.083.193.138.33.082.138.137.303.137.33 0 .056.055.138.11.22.055.084.138.221.193.304.027.082.11.192.138.22.055.027.082.082.082.11 0 .027.055.138.138.193.055.082.137.165.137.192 0 .028.055.11.165.193a.522.522 0 0 1 .138.22c0 .055.578.605.633.605.028 0 .138.083.22.193.11.11.22.193.248.193.027 0 .082.055.137.11.056.055.138.11.166.11.027 0 .082.027.137.082.028.056.138.11.22.138.11.055.165.083.165.11 0 .028.055.028.11.028.028 0 .083.027.083.055 0 .027.055.055.083.055.055 0 .11 0 .11.027 0 .055.33.193.44.193a.21.21 0 0 1 .138.055c0 .027.055.027.137.027a.21.21 0 0 1 .138.055c0 .028.082.055.165.055s.165 0 .165.028.083.055.193.055.22.028.247.055c0 .028.44.028 1.101.028.688 0 1.074 0 1.074-.028 0-.027.082-.055.192-.055s.22-.027.248-.055c0-.028.083-.028.193-.028.082 0 .165-.027.165-.055.027-.027.11-.055.192-.055.083 0 .165 0 .193-.027 0-.028.055-.055.082-.055a.439.439 0 0 0 .22-.083c.083-.027.166-.055.193-.055.055 0 .991-.468 1.019-.523 0 0 .055-.027.11-.027s.082-.028.082-.055c0-.028.028-.028.083-.028.055 0 .055-.22.055-1.65 0-1.46 0-1.652-.055-1.652s-.083 0-.083.027c0 .028-.027.055-.082.055a.151.151 0 0 0-.138.083c-.055.055-.11.11-.137.11-.028 0-.11.028-.138.083-.055.027-.165.11-.248.165-.082.027-.193.082-.193.11a1.583 1.583 0 0 1-.247.137c-.358.166-.633.303-.633.33-.028.028-.055.028-.11.028s-.083.028-.083.055c0 .028-.082.055-.137.055-.083 0-.138 0-.138.028 0 .027-.055.055-.11.055-.083 0-.138.027-.138.055-.027.027-.11.027-.192.027-.083 0-.165.028-.193.055 0 .028-.083.056-.193.056-.082 0-.137 0-.137.027 0 .028-.248.055-.66.055-.413 0-.689-.027-.689-.055-.027-.027-.11-.027-.192-.027-.083 0-.166-.028-.193-.056 0-.027-.083-.055-.138-.055-.055 0-.11 0-.11-.027 0-.028-.027-.055-.082-.055-.11 0-.716-.303-.798-.386-.028-.054-.083-.082-.11-.082-.056 0-1.019-.963-1.019-1.018 0-.028-.027-.083-.082-.11-.028-.055-.11-.166-.165-.276-.055-.11-.11-.247-.138-.302-.027-.028-.027-.11-.027-.165 0-.056-.028-.083-.055-.083-.028 0-.056-.055-.056-.11s0-.083-.027-.083c-.028 0-.055-.082-.055-.165 0-.082-.028-.165-.055-.165-.028-.027-.028-.165-.028-.303 0-.137-.027-.247-.055-.247-.027 0-.055-.193-.055-.55 0-.303.028-.551.055-.551.028-.028.055-.138.055-.248 0-.11 0-.192.028-.192.027 0 .055-.083.055-.138 0-.083.027-.138.027-.138.055 0 .166-.22.166-.33 0-.027.027-.137.082-.192.055-.083.11-.193.138-.248.027-.055.082-.11.11-.165.027-.028.082-.083.082-.11 0-.056.826-.881.881-.881.028 0 .083-.055.138-.11.082-.055.467-.275 1.265-.66.166-.056 2.312-.056 2.395.027.027.027.11.055.165.055.055 0 .11 0 .11.027 0 .028.028.055.11.055a.21.21 0 0 1 .138.056c0 .027.082.027.137.027a.21.21 0 0 1 .138.055c0 .028.055.055.11.055.083 0 .66.275.688.33 0 0 .027.028.055.028.055 0 .633.275.66.33.028.028.276.165.358.165 0 0 .028-.715.028-1.596v-1.569l-.248-.137c-.137-.055-.247-.11-.247-.138 0-.027-.056-.027-.11-.027-.028 0-.083-.028-.083-.055 0-.028-.055-.055-.11-.055s-.138 0-.138-.028c-.027-.027-.138-.055-.248-.083-.137 0-.247-.055-.275-.055 0-.027-.055-.055-.11-.055-.082 0-.137-.027-.137-.055-.028-.027-.11-.027-.193-.027s-.165-.028-.165-.055c0-.028-.083-.055-.193-.055s-.22 0-.247-.028c0-.027-.166-.055-.33-.055-.166 0-.276-.027-.276-.055 0-.027-.275-.027-.688-.027-.413 0-.715 0-.715.027Zm26.694 0c-.027.028-.165.055-.302.055-.138 0-.275.028-.303.055 0 .028-.11.028-.22.028s-.22.027-.22.055c-.028.027-.083.055-.165.055-.055 0-.11 0-.11.027 0 .028-.028.055-.083.055a.295.295 0 0 0-.165.055c-.055 0-.275.11-.496.22-.192.11-.412.22-.44.248-.027.055-.082.083-.11.083a.151.151 0 0 0-.138.082c-.027.055-.082.083-.11.083-.055 0-1.293 1.21-1.293 1.266 0 .027-.055.11-.138.193a.357.357 0 0 0-.137.192.06.06 0 0 1-.055.055c-.028 0-.028-.44-.028-1.238v-1.239h-2.862v17.2h2.862v-3.11c0-3.219 0-3.301.165-2.999.028.055.11.165.165.22l.11.165c0 .055.964.991.991.991.028 0 .11.055.193.138.082.082.22.165.303.22.082.028.192.083.192.11.055.055.798.413.88.413.056 0 .11.027.11.055 0 .027.056.027.111.027s.138.028.138.055c.027.028.11.055.192.055.083 0 .165 0 .193.028 0 .028.11.055.22.055s.193.028.193.055c0 .028.33.028.88.028.523 0 .881 0 .909-.028 0-.027.082-.055.192-.055s.193-.027.22-.055c0-.028.083-.028.165-.028.083 0 .166-.027.193-.055 0-.027.083-.055.138-.055.055 0 .11 0 .137-.027 0-.028.11-.055.193-.083.11 0 .193-.055.193-.055 0-.027.027-.055.082-.055.055 0 .11-.027.11-.027 0-.028.138-.11.275-.165a3.16 3.16 0 0 0 .303-.193c.028-.055.083-.083.11-.083a.357.357 0 0 0 .193-.137c.082-.055.165-.138.193-.138.055 0 1.155-1.1 1.155-1.156 0-.027.083-.11.138-.192a.357.357 0 0 0 .138-.193c0-.027.027-.082.082-.11.028-.027.11-.138.165-.248.028-.11.11-.22.138-.247.055-.028.082-.11.11-.166 0-.082.028-.137.055-.165.055-.027.248-.412.248-.495 0-.055 0-.11.027-.11a.21.21 0 0 0 .055-.138c0-.055.028-.137.055-.137.028-.028.028-.083.028-.138 0-.055.027-.11.055-.11.027 0 .055-.082.055-.165s0-.165.028-.193c.027 0 .055-.082.055-.165 0-.082.027-.193.055-.22.055-.028.055-.413.055-1.486 0-1.101 0-1.459-.055-1.514-.028-.027-.055-.11-.055-.192 0-.083-.028-.166-.055-.166-.028 0-.028-.055-.028-.137 0-.11-.028-.193-.055-.193a.21.21 0 0 1-.055-.137c0-.055 0-.138-.028-.138a.209.209 0 0 1-.055-.11.707.707 0 0 0-.137-.33.707.707 0 0 1-.138-.33.21.21 0 0 0-.055-.11s-.083-.166-.165-.303c-.083-.165-.165-.33-.22-.358a.208.208 0 0 1-.055-.11c0-.028-.083-.11-.138-.193-.082-.055-.138-.138-.138-.165 0-.083-1.21-1.266-1.265-1.266-.028 0-.11-.055-.166-.138a1.443 1.443 0 0 0-.302-.192c-.11-.055-.22-.11-.22-.138-.028-.055-.578-.33-.66-.33a.55.55 0 0 1-.221-.083.627.627 0 0 0-.303-.082c-.055 0-.137-.028-.137-.055-.028-.028-.11-.055-.193-.055s-.165 0-.165-.028c0-.027-.138-.055-.303-.055-.165 0-.303-.027-.303-.055-.027-.027-.275-.027-.578-.027-.33 0-.578 0-.578.027Zm13.76 0c-.027.028-.164.055-.33.055-.165 0-.302.028-.302.055 0 .028-.055.028-.138.028-.11 0-.192.027-.192.055-.028.027-.083.055-.166.055a.53.53 0 0 0-.275.082l-.33.11c-.11.028-.165.056-.165.083 0 .027-.055.027-.11.027s-.083.028-.083.056c0 .027-.027.055-.082.055a.151.151 0 0 0-.138.082c-.028.055-.083.083-.11.083-.028 0-.11.055-.138.11-.055.055-.11.082-.137.082-.055 0-.138.055-.193.138-.082.083-.165.138-.192.138-.056 0-1.019.963-1.019 1.045 0 .028-.082.11-.165.193-.082.083-.165.193-.165.22 0 .028-.028.083-.083.138-.055.027-.11.11-.11.137 0 .028-.027.083-.082.11a.151.151 0 0 0-.083.138c0 .055-.027.083-.055.083-.027 0-.055.027-.055.082 0 .055 0 .11-.027.11-.028 0-.055.055-.083.138-.055.082-.11.22-.138.275-.027.083-.055.165-.055.193 0 .055-.055.137-.11.247a.523.523 0 0 0-.082.248c0 .055-.028.083-.055.083-.028 0-.028.082-.028.165 0 .082-.027.165-.055.193-.027 0-.055.082-.055.165 0 .082 0 .165-.027.192-.028 0-.055.165-.055.33 0 .166-.028.276-.056.276-.027 0-.027.33-.027.908 0 .55 0 .908.027.908.028.028.056.165.056.303 0 .137.027.275.055.303.027 0 .027.11.027.22s.028.22.055.247c.028 0 .055.083.055.166 0 .082 0 .165.028.165.027 0 .055.055.055.11s.027.137.055.137c.027.028.027.083.027.11 0 .055.055.165.11.276a.55.55 0 0 1 .083.22c0 .082.165.44.193.44.027 0 .027.028.027.055 0 .055.055.11.083.165.055.028.137.138.165.248.055.083.11.165.137.22.055.028.083.083.083.11 0 .028.055.11.11.165.055.055.11.11.11.138 0 .082 1.018 1.1 1.101 1.1.028 0 .082.056.138.11.055.056.137.11.165.11.027 0 .11.056.137.083.055.056.11.11.138.11.027 0 .11.028.137.083.055.055.11.083.138.083.055 0 .083.027.083.055 0 .027.027.055.082.055.055 0 .083 0 .083.027 0 .055.248.138.33.138.028 0 .138.027.193.082a.978.978 0 0 0 .275.055c.055 0 .138.028.165.055 0 .028.055.055.138.055.055 0 .11 0 .11.028s.11.055.247.055c.138 0 .248.028.276.055.027.055 1.706.055 1.733 0 .028-.027.11-.055.248-.055.11 0 .193-.027.22-.055 0-.028.083-.028.165-.028a.293.293 0 0 0 .165-.055c0-.027.056-.055.138-.055.055 0 .11 0 .138-.027 0-.028.055-.055.11-.055.137 0 .77-.303.88-.413a.152.152 0 0 1 .138-.082c.028 0 .083-.055.11-.11.055-.028.11-.083.138-.083.027 0 .11-.083.192-.165.083-.083.165-.165.193-.165.083 0 .716-.633.716-.716 0-.027.082-.11.192-.193.11-.082.193-.192.193-.22 0-.082.192-.275.248-.247 0 0 .027.55.027 1.21v1.184h2.835V27.843h-2.835v1.239c0 .66-.027 1.238-.027 1.238-.056.055-.166-.082-.166-.137a.151.151 0 0 0-.082-.138c-.055-.028-.11-.083-.11-.11 0-.083-1.129-1.183-1.211-1.238-.055 0-.11-.055-.165-.083-.028-.055-.083-.083-.11-.083-.028 0-.083-.027-.11-.082-.028-.055-.111-.11-.138-.11-.055 0-.083 0-.11-.028 0-.027-.165-.11-.358-.22-.22-.082-.413-.193-.468-.193a.293.293 0 0 0-.165-.055c-.055 0-.11-.027-.11-.055-.027-.027-.11-.027-.193-.027-.082 0-.165-.028-.165-.055 0-.028-.055-.055-.137-.055-.11 0-.193 0-.193-.028-.028-.027-.138-.055-.275-.055-.138 0-.248-.027-.248-.055 0-.027-.22-.027-.55-.027-.33 0-.578 0-.578.027Zm16.431 0c-.028.028-.193.055-.358.055-.165 0-.33.028-.33.055-.028.028-.138.028-.248.028-.11 0-.22.027-.22.055-.028.027-.11.055-.193.055-.082 0-.165 0-.165.027 0 .028-.055.055-.138.055-.11 0-.192.028-.192.055-.028.028-.083.028-.138.028-.055 0-.193.055-.33.138-.11.055-.248.11-.303.11-.055 0-.082 0-.082.027 0 .028-.028.055-.083.055-.027 0-.11.028-.138.083a.596.596 0 0 1-.22.137 2.49 2.49 0 0 1-.22.138c-.082.082-.22.165-.358.22a1.208 1.208 0 0 0-.302.275c-.11.11-.221.193-.248.193-.083 0-.633.578-.633.633 0 .027-.083.11-.165.193-.083.082-.165.192-.165.22 0 .027-.028.082-.083.137-.055.028-.082.11-.082.138 0 .027-.028.082-.083.11-.028.028-.11.165-.165.275-.165.33-.193.358-.22.358-.028 0-.055.055-.055.11a.637.637 0 0 1-.083.248.521.521 0 0 0-.082.247c0 .055-.028.11-.055.11a.208.208 0 0 0-.056.138c0 .055 0 .138-.027.138a.208.208 0 0 0-.055.137c0 .055-.028.11-.055.11-.028 0-.028.083-.028.166 0 .082-.027.165-.055.192-.027 0-.055.138-.055.275 0 .138 0 .248-.027.276-.028 0-.055.44-.055 1.1 0 .661.027 1.074.055 1.101.027 0 .027.138.027.276 0 .137.028.247.055.275.028 0 .055.082.055.137 0 .055 0 .11.028.11.027 0 .055.055.055.138 0 .083.027.22.082.303a.768.768 0 0 1 .111.22c0 .055.275.633.33.66 0 .028.027.083.055.166 0 .054.055.165.11.192a.398.398 0 0 1 .082.138c0 .027.056.082.111.137.055.028.082.11.082.138 0 .028.083.138.193.22.082.11.165.193.165.22 0 .083.881.964.963.964.028 0 .11.054.165.137.083.055.165.138.193.138.027 0 .082.027.137.082.056.055.166.138.276.193.11.055.22.11.22.165a.207.207 0 0 0 .137.055c.028 0 .083.028.083.055 0 .028.028.028.083.028.055 0 .082.027.082.055 0 .027.22.137.303.137.027 0 .11.028.193.055a.437.437 0 0 0 .22.083c.055 0 .137.027.137.055.028.027.083.027.138.027.055 0 .137.028.137.055.028.028.111.055.221.055.082 0 .192 0 .192.028.028.028.138.055.276.055.137 0 .247.028.247.055 0 .028.358.028.936.028.578 0 .908 0 .908-.028 0-.027.11-.055.248-.055.137 0 .275-.027.275-.055.027-.028.11-.028.193-.028.082 0 .165-.027.192-.055 0-.027.083-.055.165-.055.083 0 .166 0 .166-.027 0-.028.082-.055.22-.083.11 0 .275-.055.357-.11a.551.551 0 0 1 .221-.082c.082 0 .467-.193.467-.248.028-.027.056-.027.111-.027s.082-.028.082-.055c0 0 .11-.083.275-.138l.248-.11v-1.679c0-1.596-.028-1.734-.138-1.569a.208.208 0 0 1-.137.055c-.028 0-.083.028-.11.083-.028.055-.083.11-.138.11-.027 0-.082.028-.137.083a.153.153 0 0 1-.138.082c-.055 0-.083.028-.083.055 0 0-.082.055-.165.083-.082.055-.192.11-.22.165-.055.027-.11.083-.138.083a1.36 1.36 0 0 0-.275.11c-.137.055-.247.11-.275.11-.083 0-.303.11-.303.137 0 .028-.055.055-.137.055-.083 0-.138 0-.138.028 0 .027-.055.055-.11.055s-.138.027-.138.055c-.027.027-.11.027-.192.027-.083 0-.165.028-.165.055-.028.028-.138.056-.248.056-.11 0-.193 0-.193.027 0 .028-.22.055-.523.055-.302 0-.55-.027-.55-.055-.028-.027-.138-.027-.248-.027-.11 0-.22-.028-.22-.056-.027-.027-.11-.055-.192-.055-.083 0-.166 0-.166-.027 0-.028-.027-.055-.082-.055-.055 0-.083-.028-.083-.055 0-.028-.055-.028-.082-.028-.11 0-.358-.137-.413-.192-.028-.028-.083-.083-.138-.11-.055 0-.137-.056-.192-.083-.165-.11-1.019-.963-1.019-1.018 0-.028-.027-.083-.082-.11-.055-.083-.33-.606-.33-.688 0-.028-.028-.055-.055-.055-.028 0-.028-.028-.028-.083 0-.055-.028-.11-.055-.11-.028 0-.055-.055-.055-.138 0-.11 0-.192-.028-.192-.027-.028-.055-.11-.055-.193s-.027-.165-.055-.165c-.027-.028-.027-.33-.027-.798 0-.44 0-.77.027-.77.028-.028.055-.11.055-.193s.028-.166.055-.166c.028 0 .028-.027.028-.082 0-.055.055-.165.11-.248.028-.11.11-.275.165-.385a.992.992 0 0 1 .165-.275c.055-.028.083-.083.083-.11 0-.083.963-1.046 1.018-1.046a.205.205 0 0 0 .11-.055c.028-.055.22-.165.413-.248.193-.11.358-.192.358-.22.027 0 .055-.028.11-.028s.11-.027.11-.055c.027-.027.082-.027.165-.027a.293.293 0 0 0 .165-.055c.055-.055.358-.055 1.211-.055.881 0 1.156 0 1.183.055 0 .027.055.055.138.055.055 0 .11 0 .138.027 0 .028.055.055.137.055.055 0 .11.028.138.056 0 .027.055.027.137.027.056 0 .111.027.138.055 0 .028.055.055.138.055.055 0 .11 0 .11.028 0 .027.027.055.082.055.055 0 .083.027.083.055 0 .027.055.027.11.027s.083.028.083.055c0 0 .055.055.137.083.413.165.908.44.963.495.165.22.193.138.165-1.541v-1.624l-.137-.082c-.083-.028-.165-.083-.22-.083a.524.524 0 0 1-.248-.082c-.083-.055-.193-.11-.248-.11-.055 0-.082 0-.082-.028 0-.027-.11-.055-.248-.083-.11 0-.22-.055-.248-.055 0-.027-.082-.055-.137-.055a.212.212 0 0 1-.138-.055c0-.027-.082-.027-.165-.027-.11 0-.193-.028-.193-.055-.027-.028-.11-.055-.22-.055-.082 0-.192 0-.192-.028-.028-.027-.193-.055-.386-.055-.192 0-.33-.027-.33-.055 0-.027-.248-.027-.633-.027s-.66 0-.66.027ZM33.163 32.22c0 2.89.028 4.376.055 4.376.028 0 .055.138.055.303 0 .165 0 .302.028.33.027 0 .055.082.055.193 0 .082.027.137.055.137.027 0 .027.083.027.138 0 .082.055.22.11.303.028.082.083.192.083.22a.7.7 0 0 0 .055.192c.055.083.11.22.138.303a.387.387 0 0 0 .082.138c.028 0 .055.055.055.082 0 .055 0 .11.028.11.027 0 .055.028.055.083 0 .027.055.11.082.137.055.028.11.083.11.11 0 .028.083.138.193.248.11.11.22.22.22.248 0 .083.22.303.275.303.028 0 .166.11.276.22.11.11.22.192.247.192.028 0 .083.056.11.11.028.028.11.083.138.083.055 0 .083.028.083.055 0 .028.055.028.11.028.027 0 .082.027.082.055.028.055.523.275.633.275a.21.21 0 0 1 .138.055c0 .027.055.027.137.027a.21.21 0 0 1 .138.055c0 .028.083.055.165.055.083 0 .165 0 .165.028s.083.055.193.055.22.028.248.055c.027.055 2.174.055 2.174 0 0-.027.082-.055.192-.055s.22-.027.248-.055c0-.028.083-.028.193-.028.082 0 .165-.027.165-.055a.21.21 0 0 1 .137-.055.511.511 0 0 0 .193-.055c.055-.055.11-.082.165-.082.083 0 .523-.22.578-.303.055-.027.083-.055.11-.055.055 0 .11-.055.165-.082.028-.055.083-.11.11-.11.056 0 .138-.056.193-.138.083-.055.165-.138.193-.138.055 0 .66-.605.66-.66 0-.028.055-.11.11-.165a.516.516 0 0 0 .165-.193c.083-.165.166-.303.248-.385.028-.055.083-.138.11-.22.055-.083.083-.166.11-.166.028 0 .028-.027.028-.082 0-.055.027-.083.055-.083.027 0 .055-.082.055-.137 0-.083 0-.138.027-.138.028 0 .055-.055.055-.11 0-.083.028-.138.056-.138.027-.027.027-.082.027-.137 0-.055.028-.138.055-.165.028 0 .055-.248.083-.496 0-.275.027-.495.055-.495.027-.028.055-1.982.055-4.376v-4.32h-2.752v3.935c0 2.614-.028 3.963-.055 3.963-.028 0-.056.11-.056.275 0 .165 0 .33-.027.33-.028.028-.055.138-.055.248 0 .11-.028.193-.055.193-.028 0-.028.027-.028.082 0 .055-.192.44-.385.826-.165.275-.578.605-.99.825l-.441.22h-.88c-.661 0-.909-.027-.936-.054a.295.295 0 0 0-.166-.055c-.055 0-.11-.028-.11-.056 0-.027-.055-.055-.082-.055-.055 0-.11 0-.11-.027a.06.06 0 0 0-.055-.055c-.028 0-.11-.055-.138-.083-.055-.055-.11-.11-.137-.11-.055 0-.44-.358-.44-.44 0-.028-.028-.083-.083-.11a.721.721 0 0 1-.138-.248c-.055-.083-.083-.165-.11-.165-.028 0-.028-.028-.028-.083 0-.055-.027-.082-.055-.082-.027 0-.055-.083-.055-.165 0-.083 0-.165-.055-.193-.027-.027-.055-.303-.055-.66-.027-.33-.055-.606-.082-.633 0 0-.028-1.734-.028-3.826v-3.798h-2.807v4.376Zm13.595 2.312v6.66h2.752V27.843h-2.752v6.688ZM19.54 29.164c-.33.055-.908.523-.908.688 0 .055 0 .055.028 0 .055-.082.385-.44.468-.44.027 0 .055-.027.055-.055 0-.027.027-.055.082-.055.055 0 .11 0 .11-.027 0-.028.055-.056.138-.056.055 0 .137-.027.137-.055 0-.027-.027-.027-.027-.027s-.055 0-.083.027Zm.936 0c0 .028.028.055.083.055.22 0 .963.55.963.716 0 .027.027.082.055.082.11.083-.055-.165-.248-.385-.275-.248-.853-.578-.853-.468Zm-1.954.798c-.11.166-.165.276-.165.413a.295.295 0 0 1-.055.165c-.027 0-.027.166-.027.386 0 .192 0 .358.027.385.027 0 .055.055.055.11 0 .083.11.33.138.33a.06.06 0 0 1 .055.055c0 .083.44.55.578.606.055 0 .11.055.11.055a.06.06 0 0 0 .055.055c.027 0 0-.028-.028-.083-.055-.055-.11-.11-.137-.11-.083 0-.523-.468-.606-.633-.027-.082-.055-.137-.082-.137-.028 0-.028-.055-.028-.138 0-.082-.027-.137-.055-.137-.027 0-.055-.166-.055-.358 0-.22.027-.386.055-.386.027-.027.055-.11.055-.192 0-.083 0-.165.028-.165.027 0 .055-.028.055-.083 0-.055.027-.11.055-.11.027-.027.055-.027.027-.055-.027-.028-.055 0-.055.027Zm65.967.276c0 .027.11.027.22.027s.22.028.22.055c.028.028.138.055.248.055.11.028.22.055.248.083l.275.165c.138.055.275.138.303.193a.21.21 0 0 0 .11.055c.027 0 .137.082.22.165.083.082.165.165.193.165.082 0 .633.55.633.605 0 .028.055.11.137.193.083.055.138.138.138.193 0 .027.027.082.082.137.055.028.11.11.11.138 0 .027 0 .055.028.055s.055.027.055.083c0 .027.028.11.083.192.055.055.11.22.137.33 0 .11.028.22.055.248.028 0 .055.083.055.193 0 .082 0 .165.028.165.027.027.055.33.055.798 0 .44-.028.743-.055.77-.028 0-.028.083-.028.193 0 .083-.027.165-.055.165-.027.028-.055.11-.055.22-.055.22-.137.44-.192.44 0 0-.028.056-.028.11 0 .056-.028.083-.055.083-.028 0-.028.028-.028.083 0 .055-.055.11-.11.138-.055.027-.082.082-.082.11 0 .027-.028.11-.083.165-.055.027-.11.082-.11.11 0 .082-.77.853-.853.853-.028 0-.083.055-.165.138a.629.629 0 0 1-.275.192c-.083.028-.165.083-.165.11 0 0-.028.028-.083.028-.055 0-.11.027-.11.055 0 .027-.028.027-.083.027-.055 0-.082.028-.082.055 0 .056-.275.138-.523.166-.11.027-.22.055-.248.082 0 0-.165.028-.33.028-.193 0-.33.027-.358.055 0 .027-.11.027-.22.027s-.22 0-.22-.027c-.028-.028-.193-.055-.358-.055-.165 0-.33-.028-.33-.028-.028-.027-.138-.055-.275-.082-.248-.028-.633-.193-.66-.276-.028 0-.056-.027-.11-.027-.056 0-.084-.028-.084-.055 0-.028-.055-.028-.082-.028-.055 0-.11-.055-.165-.11-.028-.027-.083-.082-.11-.082-.028 0-.11-.083-.193-.166-.082-.082-.193-.165-.22-.165-.055 0-.468-.412-.468-.468 0-.027-.083-.137-.165-.22-.083-.082-.165-.165-.165-.192 0-.028-.028-.083-.083-.11-.055-.055-.11-.11-.11-.166 0-.027 0-.082-.027-.082-.028 0-.055-.028-.055-.083 0-.055-.028-.082-.028-.11-.055 0-.248-.385-.248-.468a.21.21 0 0 0-.055-.137c0-.028-.055-.22-.055-.413-.027-.22-.055-.385-.082-.413-.028 0-.028-.22-.028-.44 0-.248 0-.468.028-.468.027-.028.055-.193.082-.413 0-.192.055-.385.055-.413a.21.21 0 0 0 .055-.137c0-.083.193-.468.248-.468 0-.027.028-.055.028-.11s.027-.083.055-.083c.027 0 .027-.027.027-.082 0-.028.055-.083.11-.138.055-.027.083-.11.083-.137 0-.056.963-1.019 1.018-1.019.028 0 .11-.082.193-.137a.357.357 0 0 1 .192-.138.06.06 0 0 0 .055-.055c0-.027.055-.055.11-.055.028 0 .083 0 .083-.027.028-.056.413-.22.606-.276.137 0 .22-.027.247-.055 0-.027.11-.055.22-.055s.22 0 .22-.027c0-.028.248-.055.689-.055.385 0 .688.027.715.055Zm16.072.082c.028.028.138.055.275.055.221.028.606.193.688.276 0 0 .083.055.193.082.083.055.165.11.22.165a.212.212 0 0 0 .11.055c.028 0 .11.055.165.138.055.055.11.11.138.11.083 0 .633.55.633.605 0 .028.083.138.193.248.082.083.165.193.165.22 0 .028.027.083.082.11.083.083.331.578.331.688 0 .055.027.11.055.11.027.028.055.11.055.193s0 .165.027.193c.028 0 .055.11.055.22s.028.193.055.193c.028 0 .028.247.028.633 0 .385 0 .605-.028.605-.027 0-.055.11-.055.22s-.027.22-.055.22c-.027.028-.027.083-.027.138 0 .055-.028.138-.055.138a.205.205 0 0 0-.055.11c0 .11-.248.633-.331.688-.055.055-.082.082-.082.11 0 .055-.028.11-.083.165-.055.027-.082.082-.082.11 0 .082-.991 1.046-1.046 1.046a.205.205 0 0 0-.11.055c-.028.055-.22.165-.413.247-.193.11-.358.193-.358.22-.027 0-.137.028-.248.056-.11.027-.22.055-.247.082 0 0-.11.028-.22.028s-.221.027-.221.055c-.027.027-.302.027-.633.027-.357 0-.605 0-.605-.027 0-.028-.082-.055-.193-.055-.11 0-.22-.028-.22-.028-.027-.027-.137-.055-.275-.082-.248-.028-.633-.193-.66-.276-.028 0-.056-.027-.11-.027-.028 0-.11-.055-.138-.083-.028-.055-.11-.11-.138-.11-.027 0-.082-.027-.137-.082-.028-.055-.083-.083-.11-.083-.055 0-.798-.743-.798-.826 0-.027-.056-.082-.11-.137-.083-.055-.138-.138-.138-.165 0-.028-.028-.083-.083-.11-.055-.055-.082-.11-.082-.166 0-.027-.028-.082-.055-.082-.028 0-.138-.22-.138-.303a.55.55 0 0 0-.082-.22c-.056-.083-.11-.193-.11-.248 0-.055 0-.11-.028-.11-.028-.027-.055-.11-.055-.22 0-.082-.028-.193-.055-.193-.028-.027-.028-.33-.028-.77 0-.468 0-.77.028-.798.027 0 .055-.083.055-.165 0-.055.027-.138.055-.138.027-.027.027-.083.027-.138 0-.082.028-.137.055-.137a.21.21 0 0 0 .055-.138c0-.082.166-.468.22-.495.028 0 .056-.055.056-.083 0-.055.027-.11.082-.137.055-.055.083-.11.083-.138 0-.055 1.073-1.1 1.128-1.1.028 0 .083-.056.11-.11.055-.056.11-.083.165-.083.028 0 .083-.028.083-.055 0-.028.027-.028.082-.028.028 0 .083-.055.138-.11a.151.151 0 0 1 .138-.083.523.523 0 0 0 .247-.082c.083-.055.276-.11.413-.138.138 0 .248-.027.248-.055 0-.055 1.734-.055 1.761 0Zm-78.819.523c0 .248 0 .413-.027.468-.028.027-.055.055-.055.082 0 .028.027 0 .082-.027.055-.082.083-.963.028-.963-.028 0-.028.192-.028.44Z" clip-rule="evenodd"/><path fill="#fff" fill-rule="evenodd" d="M19.65 29.164c0 .027-.083.055-.138.055-.082 0-.137.028-.137.055 0 .028-.055.028-.11.028-.056 0-.083.027-.083.055a.06.06 0 0 1-.055.055c-.083 0-.44.357-.44.413 0 .027-.056.082-.11.137a.151.151 0 0 0-.083.138c0 .055-.028.082-.055.082-.028 0-.028.083-.028.165 0 .083-.027.165-.055.193-.027 0-.055.165-.055.385 0 .193.028.358.055.358.028 0 .055.055.055.138 0 .082 0 .137.028.137.027 0 .055.055.082.138.083.165.523.633.606.633.027 0 .082.055.138.11.027.055.11.083.165.083.082 0 .11.027.11.055 0 .055.963.055.99-.028.028 0 .083-.027.11-.027.303 0 1.156-.909 1.046-1.101-.027-.028 0-.083.028-.11.11-.138.027-.964-.11-1.239-.22-.413-.77-.853-1.046-.853-.055 0-.083-.027-.083-.055 0-.027-.165-.027-.412-.027-.248 0-.413 0-.413.027Z" clip-rule="evenodd"/></svg>