<svg xmlns="http://www.w3.org/2000/svg" viewBox="0 0 320 120"><defs><style>.a{fill:none;}.b{fill:#2a6b9b;fill-rule:evenodd;}</style></defs><rect class="a" width="320" height="120"/><path class="b" d="M107.28,59.36c-5.22-5.22-13-12.5-13-12.5-.65-.64-.79-1.29.29-1.29H130.2l6.68-23.93H83.71c-15.08,0-23.93,6.66-23.93,16.76,0,3.63.59,9.33,5.26,14,7,7,20.93,19.95,22.95,22,.65.64.79,1.3-.3,1.3H48.34L42,98.36h60.09c11.43,0,18.43-10.45,18.43-16.6C120.52,72.28,117.75,69.83,107.28,59.36Z"/><path class="b" d="M167.8,21.64H139.55L118.14,98.36h51c23.08,0,36.83-26.22,36.83-43.49C206,31,186.58,21.64,167.8,21.64Zm-4.37,54h-14l8.4-30.1h9.75c7.91,0,13.42,4.81,13.42,10.87C181,70.77,168.46,75.67,163.43,75.67Z"/><path class="b" d="M254,21.64H243.35c-25.95,0-29.81,19-33,30.3l-13,46.42h24.51l6.34-22.69h17.37L239.3,98.36h24.52l12.76-45.73C283.87,26.51,261.07,21.64,254,21.64Zm-.87,27.3-2.64,9.44H233.09L236,48.07a6.53,6.53,0,0,1,6.18-5h5.44C250.73,43.1,253.91,46,253.1,48.94Z"/></svg>