<svg xmlns="http://www.w3.org/2000/svg" width="128" height="64" fill="none"><rect width="128" height="64" fill="#56C271" rx="6"/><path fill="url(#a)" fill-rule="evenodd" stroke="#fff" stroke-width="1.8" d="M63.13 8.672h13.812v13.885c-.008 6.693-5.41 12.115-12.071 12.115H51.058V20.8c0-6.699 5.405-12.13 12.072-12.13Z" clip-rule="evenodd"/><path fill="url(#b)" fill-rule="evenodd" d="M70.656 17.61c-.963-1.677-2.854-2.616-5.13-2.616a9.488 9.488 0 0 0-8.261 5.456h-1.006a1.226 1.226 0 0 1-1.053-.608 1.238 1.238 0 0 1-.018-1.22c3.61-5.929 13.035-7.678 15.468-1.011Z" clip-rule="evenodd"/><path fill="#fff" fill-rule="evenodd" d="M70.656 17.604h2.854a8.283 8.283 0 0 0-8.012-5.334 11.936 11.936 0 0 0-10.266 6.301c3.567-5.885 12.999-7.613 15.424-.967ZM57.372 25.733h-2.854c1.12 3.226 4.281 5.326 7.998 5.326a11.935 11.935 0 0 0 10.231-6.18c-3.025 5.054-12.471 7.757-15.375.854ZM73.14 21.346a2.208 2.208 0 0 0-1.877-.896H56.281a1.24 1.24 0 0 1-1.003-.538 1.253 1.253 0 0 1-.146-1.133c-.194.388-.363.788-.507 1.198a2.217 2.217 0 0 0 .257 2.05c.435.602 1.137.95 1.877.932H71.74c.4.035.76.26.969.605.209.346.24.77.087 1.144.234-.444.437-.904.606-1.377a2.16 2.16 0 0 0-.264-1.985Z" clip-rule="evenodd"/><path fill="url(#c)" fill-rule="evenodd" d="M71.698 22.959h-.963a9.466 9.466 0 0 1-8.248 5.448 5.7 5.7 0 0 1-5.115-2.674c2.918 6.91 12.4 4.186 15.382-.875.216-.387.217-.859.002-1.247a1.27 1.27 0 0 0-1.058-.652Z" clip-rule="evenodd"/><path fill="#fff" d="M52.215 52.407a.238.238 0 0 1-.237.24h-.797a.238.238 0 0 1-.238-.24V44.73a.24.24 0 0 1 .238-.239h.777a.237.237 0 0 1 .238.239l.02 7.678Zm-2.773-7.761h-.698a.326.326 0 0 0-.347.179l-2.411 5.85-2.412-5.835a.346.346 0 0 0-.352-.195h-.708a.232.232 0 0 0-.188.095.324.324 0 0 0-.044.343l3.015 7.285c.056.15.19.257.347.278h.678a.451.451 0 0 0 .352-.293l3.02-7.285a.31.31 0 0 0-.054-.343.242.242 0 0 0-.198-.095v.015Zm-8.131.572-.312.572a.284.284 0 0 1-.06.075.38.38 0 0 1-.44.054.99.99 0 0 0-.183-.094 2.18 2.18 0 0 0-2.062.192 2.202 2.202 0 0 0-.979 1.833v4.557a.239.239 0 0 1-.238.244h-.777a.243.243 0 0 1-.243-.244V44.87a.243.243 0 0 1 .243-.239h.178a.798.798 0 0 1 .827.672 3.098 3.098 0 0 1 2.199-.92h.084a3 3 0 0 1 1.258.273c.07.03.213.105.416.22a.244.244 0 0 1 .089.328v.015Zm-18.655 2.567-.267-.045c-.847-.149-1.902-.338-1.926-1.07a.748.748 0 0 1 .227-.567 2.393 2.393 0 0 1 1.674-.497h.05a3.034 3.034 0 0 1 1.802.462c.04.025.134.1.258.2a.38.38 0 0 0 .495-.035l.312-.339a.38.38 0 0 0 .1-.328.423.423 0 0 0-.14-.229 5.551 5.551 0 0 0-.361-.289 4.333 4.333 0 0 0-2.476-.696h-.07a3.599 3.599 0 0 0-2.555.876c-.396.392-.61.934-.589 1.492 0 1.757 1.728 2.045 3.11 2.28 1.485.238 2.194.497 2.174 1.183-.04 1.035-1.431 1.145-2.026 1.145a3.454 3.454 0 0 1-1.659-.408 2.656 2.656 0 0 1-.772-.667.356.356 0 0 0-.292-.144.385.385 0 0 0-.253.094l-.386.348a.38.38 0 0 0-.045.498c.269.333.586.623.941.86a4.554 4.554 0 0 0 2.476.668c3.021 0 3.303-1.796 3.318-2.349.075-1.906-1.832-2.229-3.12-2.443Zm75.768 3.568a3.995 3.995 0 0 0 .792-5.652l.58-.677a.256.256 0 0 0 0-.294.815.815 0 0 0-1.293-.06l-.198.24a4.034 4.034 0 0 0-2.045-.588c-2.249 0-3.754 1.567-3.754 3.906a3.706 3.706 0 0 0 1.038 2.758 3.67 3.67 0 0 0 2.716 1.118c1.163 0 2.52.498 2.52 1.945 0 1.822-1.926 1.99-2.516 1.99-1.094 0-2.317-.447-2.476-1.696v-.19a.243.243 0 0 0-.237-.238h-.773a.239.239 0 0 0-.233.239v.065c-.004.074-.004.149 0 .224.174 1.756 1.64 2.885 3.744 2.885 2.333 0 3.784-1.248 3.784-3.249a2.893 2.893 0 0 0-1.654-2.726h.005Zm-2.125-.548a2.43 2.43 0 0 1-1.796-.747 2.455 2.455 0 0 1-.68-1.83c0-1.259.644-2.607 2.476-2.607 1.486 0 2.476 1.025 2.476 2.607a2.572 2.572 0 0 1-2.48 2.577h.004Zm12.519-6.175h-.332a.83.83 0 0 0-.601.238.84.84 0 0 0-.251.598 3.714 3.714 0 0 0-2.709-1.1 3.948 3.948 0 0 0-2.873 1.184 3.993 3.993 0 0 0-1.143 2.902 3.995 3.995 0 0 0 1.126 2.921 3.953 3.953 0 0 0 2.881 1.199 3.604 3.604 0 0 0 2.718-1.16v.995c0 .132.107.24.238.24h.922a.243.243 0 0 0 .237-.24V44.87a.243.243 0 0 0-.218-.239h.005Zm-3.828 6.658a2.686 2.686 0 0 1-1.984-.82 2.713 2.713 0 0 1-.759-2.016 2.785 2.785 0 0 1 2.778-2.791 2.785 2.785 0 0 1 2.778 2.79 2.713 2.713 0 0 1-.785 2.045 2.684 2.684 0 0 1-2.033.792h.005Zm-28.51 0a.406.406 0 0 0-.336-.254.396.396 0 0 0-.168.035l-.248.104a1.976 1.976 0 0 1-.663.135c-.907 0-1.06-.463-1.06-1.433v-4.13h2.278a.243.243 0 0 0 .237-.239v-.647a.243.243 0 0 0-.237-.238h-2.278v-2.135a.238.238 0 0 0-.238-.239h-.272a.75.75 0 0 0-.748.746v1.637H71.31a.243.243 0 0 0-.238.24v.646c.003.131.108.236.238.239h1.436v4.13c0 1.796.758 2.672 2.327 2.672a2.908 2.908 0 0 0 1.016-.2c.084-.03.247-.104.495-.218a.24.24 0 0 0 .119-.314l-.223-.537Zm7.082-6.15-.336.607a.377.377 0 0 1-.352.194.385.385 0 0 1-.183-.045.92.92 0 0 0-.188-.094 2.205 2.205 0 0 0-2.072.191 2.227 2.227 0 0 0-.999 1.834v4.582a.243.243 0 0 1-.237.244h-.778a.243.243 0 0 1-.238-.244V44.87a.243.243 0 0 1 .238-.239h.223a.798.798 0 0 1 .827.672 3.098 3.098 0 0 1 2.199-.92h.084c.434-.001.863.092 1.258.273.161.076.318.16.47.254.088.045.123.151.08.239l.004-.01Zm-13.187 2.737v4.532a.24.24 0 0 1-.238.24h-.782a.243.243 0 0 1-.238-.24V47.93a2.3 2.3 0 0 0-.624-1.691 2.434 2.434 0 0 0-1.733-.602h-.05a2.307 2.307 0 0 0-1.69.708 2.33 2.33 0 0 0-.647 1.72v4.343a.243.243 0 0 1-.238.24h-.782a.238.238 0 0 1-.238-.24V44.9c0-.148.12-.269.267-.269h.134a.803.803 0 0 1 .832.687 3.394 3.394 0 0 1 2.377-.965c2.204 0 3.645 1.368 3.645 3.533l.005-.01Zm-35.685.413c0-1.921-1.233-3.98-3.937-3.98a3.951 3.951 0 0 0-2.898 1.185 3.99 3.99 0 0 0-1.138 2.929 3.911 3.911 0 0 0 1.115 2.949 3.873 3.873 0 0 0 2.921 1.156 4.444 4.444 0 0 0 3.06-1.145 5.37 5.37 0 0 0 .278-.313.37.37 0 0 0 .074-.328.388.388 0 0 0-.143-.22l-.362-.288a.36.36 0 0 0-.233-.084.395.395 0 0 0-.287.129 2.565 2.565 0 0 1-.238.259 3.52 3.52 0 0 1-2.149.796 2.632 2.632 0 0 1-2.689-2.1h6.562c.035-.31.055-.623.06-.935l.004-.01Zm-6.626 0c0-1.403.788-2.697 2.694-2.697 1.753 0 2.699.995 2.699 2.697h-5.393Zm33.61 0c0-1.921-1.233-3.98-3.937-3.98a3.952 3.952 0 0 0-2.898 1.185 3.99 3.99 0 0 0-1.138 2.929 3.912 3.912 0 0 0 1.115 2.949 3.872 3.872 0 0 0 2.921 1.156 4.444 4.444 0 0 0 3.06-1.145 5.37 5.37 0 0 0 .278-.313.39.39 0 0 0 .08-.328.398.398 0 0 0-.15-.22l-.356-.288a.386.386 0 0 0-.238-.084.396.396 0 0 0-.287.129 2.587 2.587 0 0 1-.238.259 3.52 3.52 0 0 1-2.149.796 2.632 2.632 0 0 1-2.689-2.1h6.567s.054-.503.054-.935l.005-.01Zm-6.626 0c0-1.403.783-2.622 2.69-2.622 1.752 0 2.703.94 2.703 2.622h-5.393Zm36.438 0c0-1.921-1.233-3.98-3.937-3.98a3.953 3.953 0 0 0-2.899 1.185 3.992 3.992 0 0 0-1.137 2.929 3.91 3.91 0 0 0 1.115 2.949 3.872 3.872 0 0 0 2.921 1.156 4.444 4.444 0 0 0 3.05-1.115c.1-.098.192-.203.278-.313.079-.09.109-.213.079-.328a.39.39 0 0 0-.144-.22l-.361-.288a.361.361 0 0 0-.233-.085.395.395 0 0 0-.287.13 2.613 2.613 0 0 1-.238.258 3.53 3.53 0 0 1-2.15.797 2.627 2.627 0 0 1-2.688-2.1h6.561c.038-.32.06-.643.065-.965l.005-.01Zm-6.631-.01c0-1.404.777-2.622 2.689-2.622 1.753 0 2.704.94 2.704 2.622h-5.393Zm-32.64-5.255v-.537a.238.238 0 0 0-.237-.239h-.53a.496.496 0 0 0-.495.498v.537a.24.24 0 0 0 .237.239h.53a.496.496 0 0 0 .495-.498Z"/><defs><linearGradient id="a" x1="63.593" x2="64.421" y1="35.059" y2="8.285" gradientUnits="userSpaceOnUse"><stop stop-color="#009A44"/><stop offset="1" stop-color="#56C271"/></linearGradient><linearGradient id="b" x1="55.024" x2="70.656" y1="16.894" y2="16.894" gradientUnits="userSpaceOnUse"><stop stop-color="#C5C5C5"/><stop offset=".2" stop-color="#DADADA"/><stop offset=".47" stop-color="#EEE"/><stop offset=".74" stop-color="#FBFBFB"/><stop offset="1" stop-color="#fff"/></linearGradient><linearGradient id="c" x1="57.358" x2="72.911" y1="26.421" y2="26.421" gradientUnits="userSpaceOnUse"><stop stop-color="#fff"/><stop offset=".26" stop-color="#FBFBFB"/><stop offset=".53" stop-color="#EEE"/><stop offset=".8" stop-color="#DADADA"/><stop offset="1" stop-color="#C5C5C5"/></linearGradient></defs></svg>