<svg xmlns="http://www.w3.org/2000/svg" width="128" height="64" fill="none"><rect width="128" height="64" fill="#fff" rx="6"/><path fill="#BDD1EC" d="M6.044 39.846C6.015 39.836 6 37.187 6 32.015v-7.816h55.54v15.695l-27.726-.017c-15.249-.009-27.745-.023-27.77-.031Z"/><path fill="#E95128" d="M116.023 30.777c.835-.299 1.234-.82 1.234-1.614 0-.777-.321-1.155-1.152-1.353-.276-.066-.594-.083-1.851-.1l-1.518-.019v3.252l1.451-.015 1.452-.014.384-.137Zm-7.911 9.04c-.017-.017-.03-3.538-.03-7.826v-7.796l4.887.016c4.816.016 4.893.018 5.327.112 1.175.256 1.954.65 2.579 1.302.71.741.992 1.53.992 2.772-.001 1.527-.364 2.561-1.168 3.325a3.069 3.069 0 0 1-1.17.722c-.216.08-.302.129-.231.13.218.005.645.139 1.011.318.607.297 1.029.8 1.221 1.455.063.214.47 4.825.47 5.326v.173h-4.787l-.001-.587c-.002-1.171-.085-3.04-.149-3.348-.175-.838-.678-1.336-1.584-1.566-.318-.08-.542-.097-1.557-.116l-1.186-.023-.011 2.81-.011 2.808-2.286.011c-1.258.007-2.3-.002-2.316-.018Zm-27.556-7.794v-7.824h11.613v3.812h-7.004v2.26h6.649v3.502h-6.649v2.261h7.181v3.812h-11.79v-7.823Zm18.106 8.112c-3.241-.373-4.982-1.852-5.528-4.695-.092-.482-.095-.6-.11-5.866l-.017-5.375h4.61l.016 5.108c.014 4.676.022 5.137.093 5.442.216.927.69 1.44 1.544 1.672.401.109 1.421.107 1.786-.004.823-.25 1.256-.729 1.468-1.624.072-.306.08-.736.094-5.463l.015-5.131h4.606v5.093c0 3.22-.017 5.261-.046 5.552-.102 1.01-.395 1.973-.821 2.696-.267.455-.913 1.145-1.36 1.453-.81.558-1.782.909-3.056 1.1-.645.098-2.596.122-3.294.042Zm-27.483.11c-1.805-.274-3.145-.87-4.127-1.84-.676-.666-1.084-1.388-1.322-2.338-.103-.414-.215-1.376-.169-1.463.01-.018 1.12-.033 2.465-.033h2.448l.052.489c.103.97.44 1.37 1.364 1.617.424.114 1.387.138 1.838.047.935-.19 1.376-.623 1.375-1.353 0-.268-.02-.367-.1-.499-.255-.422-.504-.516-3.712-1.403-2.326-.643-3.3-1.07-4.113-1.801-.442-.398-.831-1.05-.99-1.656-.178-.682-.154-1.778.056-2.547.117-.428.468-1.14.737-1.493.933-1.225 2.497-2.013 4.487-2.259.475-.058 2.025-.06 2.55 0 3.112.344 4.967 1.792 5.402 4.215.037.204.073.5.08.66l.014.287H74.77l-.028-.255c-.059-.554-.293-.866-.855-1.142-.42-.206-.84-.277-1.488-.252-1.074.042-1.521.345-1.523 1.033-.001.337.137.596.431.807.442.318 1.005.488 2.803.85 2.757.553 4.087 1.088 5.008 2.013.747.75 1.082 1.657 1.082 2.93 0 2.045-.95 3.575-2.805 4.517-.849.432-1.988.748-3.201.89-.811.095-2.32.084-3.016-.021Z"/><path fill="#6D9AD3" d="M61.54 24.2H15.241v15.653H61.54V24.199Z"/><path fill="#1C64B0" d="M61.54 24.2H29.111v15.653h32.427V24.199Z"/></svg>