<svg xmlns="http://www.w3.org/2000/svg" viewBox="0 0 323.13 120.41"><defs><style>.a{fill:none;}.b{fill:#003a77;}.b,.c{fill-rule:evenodd;}.c{fill:#fdb813;}</style></defs><rect class="a" width="323.13" height="120.41"/><path class="b" d="M127.18,5.68h95.55V81.44H127.18V5.68ZM100,6.9l3.26,3.29V12.5L100,10.35Zm7.55-1.05h6.26c.5,0,1.59.11,1.78-.64H116V8.52a4.28,4.28,0,0,1-1.34.36,4.79,4.79,0,0,1,1.64,3.9c0,2.06-1.14,3.67-3.31,3.67s-3.39-1.39-3.73-3.48l-.41-2.92c0-.73-.39-1.14-.84-1.14-1.17,0-1.39,1.05-1.39,2.11s.28,1.67,1.61,2v3.06c-3.06-.34-4.06-2.34-4.06-5.35,0-2.14.72-4.89,3.37-4.89Zm2.89,3.06a5.12,5.12,0,0,1,.64,2.17c.14,1.33.53,2.2,1.76,2.2a1.28,1.28,0,0,0,1.3-1.45,3,3,0,0,0-1-2.51c-.86-.64-1.58-.39-2.67-.41Zm2,16H116V28H100.43V24.86h8.46L104.49,21V17.06l4.45,4.29L116,17v3.76l-4.87,2.86ZM108,30.73v3.12c-1.25.33-1.5.89-1.5,2.22s.39,2,1.14,2c.36,0,.69-.39.89-1.25s.44-1.78.64-2.76c.42-1.89,1.17-3.62,3.23-3.62,2.81,0,3.89,2.29,3.89,5.35,0,2.67-.86,5.79-3.89,5.79v-3.2c1,0,1.61-.92,1.61-2.73,0-.64-.08-2.09-1.17-2.09-.39,0-.72.5-.92,1.34s-.44,1.92-.61,2.81c-.5,1.84-1.22,3.4-3.25,3.42-2.76,0-3.9-2.42-3.9-4.87,0-3.42,1.28-5.29,3.84-5.48ZM108,43.59H116v3.14h-7c-1.22,0-2.34.34-2.34,2.12a2.45,2.45,0,0,0,2.67,2.53H116V54.5H104.49v-3h1.67v-.08a4.07,4.07,0,0,1-2-3.65C104.13,45.45,105.52,43.59,108,43.59Zm4.62,16.53V57c2.64.72,3.61,2.61,3.61,5.26,0,3.87-2,6-6.29,6-3.48,0-5.84-2-5.84-5.71,0-5,4.31-5.85,7-5.71V65c2.11,0,2.81-1.17,2.78-2.78A2.05,2.05,0,0,0,112.65,60.12Zm-3.51,4.71V60.12c-1.42.25-2.48.86-2.48,2.34S107.5,64.63,109.14,64.83Zm-4.65,4L116,73.2v3.34l-11.47,4.29V77.32l7.82-2.5-7.82-2.59V68.81Zm5.73,12.52c3.93,0,6,2.62,6,6.24s-2.19,6.15-6,6.15-6.09-2.54-6.09-6.15S106.27,81.33,110.22,81.33Zm0,3.29c-1.61,0-3.56.64-3.56,2.95s1.92,2.86,3.56,2.86,3.54-.41,3.54-2.86S111.84,84.62,110.22,84.62ZM100.43,96H116v3.14H100.43Zm10.85,19v-3.2c2,0,2.51-1.92,2.48-3.45,0-1.33-.25-3.42-2-3.42-.86,0-1.61.61-2,3a30.82,30.82,0,0,1-1.17,4.48c-.59,1.78-2.15,2.36-3.79,2.36-3.48,0-4.79-3.09-4.79-6.17,0-4.6,2.62-6.27,5-6.38v3.29c-1.92.13-2.39,1.61-2.39,3.34,0,1.28.44,2.81,1.92,2.81,1.11,0,1.42-.78,1.61-1.73l.92-4c.67-2.84,1.62-4.32,4.2-4.32,3.54,0,5,3,5,6.43s-1.25,6.93-5.12,6.93Zm97.62-5.14-1.53,4.56h-4.71l7.68-21.88h5.18l7.66,21.88h-4.93l-1.37-4.56Zm3.95-12.25-2.73,8.49h5.46l-2.65-8.49Zm-14.59-1.14v18h-4v-18h-6.74V92.49l17.29.06v3.9Zm-15.72-7.66h-3.65l-2.09,2.45-2.08-2.45H171l3,3.51c-3.29.64-6.1,2.59-6.1,6.51,0,2.87,1.28,4.54,3.37,5.32a41.59,41.59,0,0,0,6.46,1.64c3.81.75,4.23,1.64,4.23,2.79,0,1.78-1.64,2.75-4.87,2.75s-4.93-1.42-4.93-3.51h-4.62c0,5.63,5,7.24,9.88,7.24,3.87,0,9.21-1.47,9.21-7.07,0-3.73-1.75-4.87-6.15-5.9l-5.65-1.28c-1.36-.36-2.45-.7-2.45-2.31,0-2,2.23-2.7,4-2.7,3.15,0,4.56,1.28,4.76,3.37h4.7a7.23,7.23,0,0,0-6.31-6.85l2.92-3.51Zm-37.72,14.87c0-6.74,4.87-11.81,10.44-11.81s10.41,4.63,10.41,11.81-4.93,11.58-10.41,11.58S144.82,110.36,144.82,103.63Zm4.29,0c0,3.87,2,7.76,6.07,7.76s6.2-4,6.2-7.76-2.14-8-6.2-8-6.07,4.06-6.07,8Zm-18,3v7.82H127.2V92.49h9.38c4.12,0,6.49,2.84,6.49,7.13s-2.78,6.93-6.65,6.93Zm0-3.79h4.92a3.2,3.2,0,0,0,3.43-3.25,3.24,3.24,0,0,0-3.4-3.26h-5v6.51"/><path class="c" d="M174.94,30.17A9.94,9.94,0,1,1,165,40.11,10,10,0,0,1,174.94,30.17ZM131.32,10c.31,8.63,3.68,17.85,8.38,26.34C150,54.94,162.55,61.62,174.94,61.62A21.53,21.53,0,1,0,159.1,25.41a56.67,56.67,0,0,0,2.26,10.13,14.42,14.42,0,0,1,13.58-9.63,14.2,14.2,0,0,1,0,28.39c-16.76,0-21.32-24.18-21.38-44.34Zm27.17,10.28a25.76,25.76,0,0,1,16.45-6.07A26.21,26.21,0,0,1,199.54,32c2.09-2.31,7.1-13.17,8-22.08H158a66.37,66.37,0,0,0,.5,10.28ZM218.61,10h-6.76c-1.48,12.22-6.74,23.16-11.14,28.37,0,.39,0,1.42,0,1.78a25.84,25.84,0,0,1-3.31,12.69C208.09,43.67,218.36,24.55,218.61,10Zm-.17,18.4c-4.78,13.17-12.55,23.88-22,30.45l22,13.14V28.36Zm-86.95.11V72l21.93-13.14C144,52.3,136.25,41.58,131.49,28.47Zm60.68,33,26.27,15.64H131.49l26.28-15.67a35.77,35.77,0,0,0,17.17,4.48,36.7,36.7,0,0,0,17.23-4.45"/></svg>