<svg xmlns="http://www.w3.org/2000/svg" viewBox="0 0 320 120"><defs><style>.a{fill:none;}.b{fill:#003a77;}.b,.c{fill-rule:evenodd;}.c{fill:#fdb813;}</style></defs><rect class="a" width="320" height="120"/><path class="b" d="M125.61,5.47h95.56V81.24H125.61V5.47ZM98.39,6.7,101.65,10v2.31l-3.26-2.14Zm7.54-1.06h6.27c.5,0,1.58.11,1.78-.64h.41V8.31a4.22,4.22,0,0,1-1.33.36,4.84,4.84,0,0,1,1.64,3.9c0,2.06-1.14,3.67-3.31,3.67s-3.4-1.39-3.73-3.47l-.42-2.93c0-.72-.39-1.14-.83-1.14-1.17,0-1.4,1.06-1.4,2.12s.28,1.67,1.62,2v3.06c-3.06-.33-4.07-2.34-4.07-5.34,0-2.14.73-4.9,3.37-4.9Zm2.9,3.06a5.12,5.12,0,0,1,.64,2.17c.14,1.34.53,2.2,1.75,2.2a1.28,1.28,0,0,0,1.31-1.45,3,3,0,0,0-1-2.5c-.86-.64-1.59-.39-2.67-.42Zm2,16h3.59v3.17H98.86V24.65h8.46l-4.39-3.87V16.86l4.45,4.28,7-4.37v3.76l-4.87,2.87Zm-4.39,5.87v3.12c-1.26.33-1.51.89-1.51,2.23s.39,2,1.14,2c.37,0,.7-.39.89-1.26s.45-1.78.64-2.75c.42-1.89,1.17-3.62,3.23-3.62,2.81,0,3.9,2.28,3.9,5.34,0,2.68-.86,5.79-3.9,5.79v-3.2c1,0,1.62-.92,1.62-2.73,0-.64-.09-2.08-1.17-2.08-.39,0-.73.5-.92,1.33s-.45,1.92-.61,2.81c-.5,1.84-1.23,3.4-3.26,3.43-2.75,0-3.9-2.42-3.9-4.87,0-3.43,1.28-5.29,3.85-5.49Zm0,12.86h7.93v3.15h-7c-1.23,0-2.34.33-2.34,2.11a2.45,2.45,0,0,0,2.67,2.54h6.62v3.11H102.93V51.34h1.67v-.08a4.07,4.07,0,0,1-2-3.65C102.56,45.25,104,43.38,106.46,43.38Zm4.62,16.54V56.74c2.65.73,3.62,2.62,3.62,5.26,0,3.87-2,6-6.29,6-3.48,0-5.85-2-5.85-5.71,0-5,4.32-5.84,7-5.7v8.24c2.12,0,2.81-1.17,2.79-2.79A2,2,0,0,0,111.08,59.92Zm-3.51,4.7v-4.7c-1.41.25-2.47.86-2.47,2.33S105.93,64.43,107.57,64.62Zm-4.64,4L114.39,73v3.34l-11.46,4.29V77.12l7.82-2.51L102.93,72V68.6Zm5.73,12.53c3.92,0,6,2.61,6,6.23s-2.2,6.15-6,6.15-6.1-2.53-6.1-6.15S104.71,81.13,108.66,81.13Zm0,3.28c-1.61,0-3.56.64-3.56,3s1.92,2.87,3.56,2.87,3.54-.42,3.54-2.87S110.27,84.41,108.66,84.41Zm-9.8,11.38h15.53v3.15H98.86Zm10.86,19v-3.2c2,0,2.5-1.92,2.48-3.45,0-1.34-.26-3.43-2-3.43-.87,0-1.62.62-2,3a29.59,29.59,0,0,1-1.17,4.48c-.58,1.78-2.14,2.37-3.78,2.37-3.48,0-4.79-3.09-4.79-6.18,0-4.59,2.62-6.26,5-6.37v3.28c-1.92.14-2.4,1.61-2.4,3.34,0,1.28.45,2.81,1.92,2.81,1.12,0,1.42-.78,1.62-1.72l.92-4c.66-2.84,1.61-4.31,4.2-4.31,3.53,0,5,3,5,6.43s-1.25,6.93-5.12,6.93Zm97.61-5.15-1.53,4.57h-4.7l7.68-21.88H214l7.65,21.88h-4.93l-1.36-4.57Zm3.95-12.25-2.72,8.49H214l-2.64-8.49ZM196.7,96.21v18h-4v-18h-6.73V92.29l17.28,0v3.9ZM181,88.56h-3.64L175.24,91l-2.09-2.45h-3.67l3,3.51c-3.28.64-6.09,2.58-6.09,6.51,0,2.86,1.28,4.53,3.37,5.31a42.65,42.65,0,0,0,6.45,1.65c3.82.75,4.23,1.64,4.23,2.78,0,1.78-1.64,2.76-4.87,2.76s-4.92-1.42-4.92-3.51H166c0,5.62,5,7.24,9.88,7.24,3.87,0,9.21-1.48,9.21-7.07,0-3.73-1.75-4.88-6.15-5.91l-5.65-1.28c-1.37-.36-2.45-.69-2.45-2.31,0-2,2.23-2.7,4-2.7,3.14,0,4.56,1.28,4.76,3.37h4.7a7.25,7.25,0,0,0-6.32-6.85l2.92-3.5Zm-37.71,14.86c0-6.73,4.87-11.8,10.44-11.8s10.41,4.62,10.41,11.8S159.18,115,153.7,115,143.26,110.16,143.26,103.42Zm4.28,0c0,3.87,2,7.77,6.07,7.77s6.21-4,6.21-7.77-2.14-8-6.21-8-6.07,4.07-6.07,8Zm-18,3v7.83h-3.92V92.29H135c4.12,0,6.48,2.84,6.48,7.12s-2.78,6.93-6.65,6.93Zm0-3.78h4.93a3.26,3.26,0,1,0,0-6.51h-5v6.51"/><path class="c" d="M173.37,30a9.94,9.94,0,1,1-9.9,9.93A10,10,0,0,1,173.37,30ZM129.76,9.76c.3,8.63,3.67,17.84,8.38,26.33C148.46,54.74,161,61.42,173.37,61.42a21.53,21.53,0,1,0-15.83-36.21,57.6,57.6,0,0,0,2.25,10.13,14.43,14.43,0,0,1,13.58-9.63,14.2,14.2,0,0,1,0,28.39c-16.75,0-21.32-24.19-21.37-44.34ZM156.92,20A25.85,25.85,0,0,1,173.37,14,26.21,26.21,0,0,1,198,31.83c2.09-2.31,7.1-13.16,8-22.07H156.42a68.75,68.75,0,0,0,.5,10.27ZM217.05,9.76h-6.77c-1.47,12.22-6.73,23.16-11.13,28.36,0,.39,0,1.42,0,1.78a25.92,25.92,0,0,1-3.32,12.7C206.52,43.47,216.8,24.34,217.05,9.76Zm-.17,18.4c-4.79,13.16-12.55,23.88-22,30.45l22,13.14V28.16Zm-86.95.11v43.5l21.93-13.13C142.48,52.1,134.68,41.38,129.93,28.27Zm60.67,33,26.28,15.64H129.93L156.2,61.25a35.69,35.69,0,0,0,17.17,4.48,36.55,36.55,0,0,0,17.23-4.45"/></svg>