<svg xmlns="http://www.w3.org/2000/svg" width="128" height="64" fill="none"><rect width="128" height="64" fill="#fff" rx="6"/><path fill="#404042" fill-rule="evenodd" d="M104.861 22.167h3.441v18.088c-1.525.34-3.185.564-5.089.58-4.075 0-7.304-1.82-7.429-6.63.065-2.416.943-4.08 2.378-5.23 2.178-1.506 4.421-1.626 6.699-.967v-5.84Zm0 8.86c-1.15-.587-3.099-.496-3.902-.016-1.099.598-1.625 1.635-1.682 3.055.018 1.725.66 2.897 1.925 3.515 1.092.414 2.412.458 3.659.156v-6.71ZM61.861 40.63c3.964 0 7.165-1.939 7.143-6.74.067-4.751-3.498-6.643-7.53-6.424-1.884.118-3.42.578-4.857 1.082v16.921h3.425V30.781c1.54-.36 2.98-.393 4.202.297.905.654 1.454 1.723 1.372 3.125-.218 2.487-1.778 3.372-3.755 3.446v2.98ZM76.1 27.392c4.727-.038 5.995 2.837 5.817 8.174h-8.392c.435 2.638 3.052 3.39 7.66 1.303v3.147c-7.358 2.245-10.822.086-11.06-5.722 0-4.57 2.003-6.874 5.975-6.902Zm.082 3.024c1.564.105 2.091.803 2.27 2.448h-4.927c.228-1.357.777-2.497 2.657-2.448ZM88.929 27.45c4.726-.039 5.995 2.837 5.817 8.174h-8.392c.434 2.638 3.052 3.39 7.66 1.303v3.147c-7.358 2.245-10.823.086-11.061-5.722 0-4.57 2.003-6.875 5.976-6.902Zm.081 3.024c1.564.105 2.092.803 2.27 2.448h-4.926c.228-1.357.776-2.497 2.656-2.448ZM50.464 27.45c1.48-.011 2.778.34 3.895 1.054v3.08c-1.99-1.552-5.062-1.931-5.32-.408-.514 2.806 6.596.02 6.072 6.091-.352 2.596-2.34 3.489-4.919 3.568-1.581.047-3.04-.225-4.32-.963v-3.17c2.203 1.46 5.387 1.966 5.837.453.617-2.552-6.323-.582-5.941-5.64.056-2.532 1.621-3.888 4.696-4.065ZM109.251 27.689h3.6l2.808 7.877 2.763-7.877H122l-6.114 17.776h-3.623l1.526-4.63-4.538-13.146Z" clip-rule="evenodd"/><path fill="url(#a)" fill-rule="evenodd" d="M20.931 14.602h-.012a1.154 1.154 0 0 0-.535.123l-13.63 7.429 15.27 8.889a.52.52 0 0 1 .249.427v12.967c0 .163-.117.35-.26.426l-.82.456a.532.532 0 0 1-.247.056h-.016a.54.54 0 0 1-.262-.056l-.824-.456a.525.525 0 0 1-.255-.426v-11.56a.327.327 0 0 0-.137-.227L6 24.82v15.338c0 .343.241.766.538.94l13.855 8.171c.147.086.34.13.534.13h.004c.195-.001.39-.042.538-.13l13.857-8.171c.295-.175.537-.596.536-.94V24.82l-9.117 5.311a.528.528 0 0 1-.498-.009l-.808-.48a.536.536 0 0 1-.172-.185l-.008-.014a.538.538 0 0 1-.084-.254l-.02-.942a.525.525 0 0 1 .24-.434l9.712-5.66-13.63-7.428a1.156 1.156 0 0 0-.546-.123Z" clip-rule="evenodd"/><defs><linearGradient id="a" x1="24.079" x2="40.454" y1="69.461" y2="57.668" gradientUnits="userSpaceOnUse"><stop stop-color="#A90034"/><stop offset="1" stop-color="#DC0032"/></linearGradient></defs></svg>