<svg xmlns="http://www.w3.org/2000/svg" width="128" height="64" fill="none"><rect width="128" height="64" fill="#232529" rx="6"/><path fill="#fff" d="M69.532 45.148c.052 1.097.73 1.45 1.761 1.45.73 0 1.487-.262 1.487-.954 0-.822-1.33-.978-2.674-1.357-1.33-.378-2.727-.978-2.727-2.687 0-2.035 2.048-2.831 3.796-2.831 1.853 0 3.72.9 3.732 3h-2.426c.038-.848-.757-1.122-1.5-1.122-.522 0-1.175.183-1.175.796 0 .718 1.344.848 2.7 1.226 1.344.38 2.701 1.005 2.701 2.688 0 2.361-2.01 3.118-4.057 3.118-2.14 0-4.032-.939-4.044-3.327h2.426m6.624-6.184h7.423v1.944h-4.997v1.631h4.567v1.878h-4.567v1.774h5.127v2.088h-7.553v-9.315m10.84 4.045h2.036c.73 0 1.122-.392 1.122-1.096 0-.692-.547-1.005-1.226-1.005h-1.931v2.1Zm-2.425-4.045h4.749c1.643 0 3.26.744 3.26 2.623 0 1.005-.482 1.957-1.46 2.335v.026c.991.235 1.278 1.344 1.357 2.23.026.393.064 1.762.391 2.102h-2.4c-.21-.314-.249-1.227-.275-1.488-.064-.94-.221-1.905-1.357-1.905h-1.84v3.392H84.57v-9.315m13.726 9.316h-2.793l-2.935-9.316h2.53l1.828 6.928h.025l1.827-6.928h2.531l-3.013 9.316Zm3.183-9.316h2.426v9.315h-2.426v-9.315Zm9.771 3.327c-.131-.939-.861-1.435-1.878-1.435-1.566 0-2.167 1.383-2.167 2.766s.601 2.766 2.167 2.766c1.134 0 1.787-.653 1.878-1.722h2.427c-.131 2.4-1.892 3.81-4.253 3.81-2.818 0-4.645-2.153-4.645-4.854 0-2.7 1.827-4.853 4.645-4.853 2.009 0 4.187 1.278 4.253 3.522h-2.427Zm3.197-3.327h7.423v1.944h-4.997v1.631h4.566v1.878h-4.566v1.774H122v2.088h-7.553v-9.315Zm-44.38-7.312h1.63c.757 0 1.305-.314 1.305-1.162 0-.874-.56-1.226-1.305-1.226h-1.63v2.388ZM67.64 27.32h4.423c1.735 0 3.366.796 3.366 3 0 2.31-1.318 3.21-3.367 3.21h-1.995v3.105H67.64V27.32Zm10.316 5.845h2.114l-1.031-3.262h-.026l-1.057 3.262ZM77.8 27.32h2.465l3.484 9.315h-2.531l-.574-1.67h-3.249l-.587 1.67h-2.492L77.8 27.32Zm8.558 4.044h2.035c.73 0 1.123-.39 1.123-1.095 0-.692-.549-1.005-1.227-1.005h-1.93v2.1Zm-2.426-4.044h4.748c1.644 0 3.262.744 3.262 2.622 0 1.005-.483 1.958-1.461 2.336v.026c.991.235 1.279 1.343 1.357 2.23.026.392.065 1.762.39 2.101h-2.4c-.208-.313-.247-1.226-.273-1.487-.066-.94-.222-1.905-1.358-1.905h-1.839v3.392h-2.426V27.32Zm14.995 3.327c-.131-.94-.862-1.435-1.88-1.435-1.565 0-2.165 1.383-2.165 2.766s.6 2.765 2.166 2.765c1.135 0 1.787-.652 1.879-1.721h2.426c-.131 2.4-1.892 3.809-4.253 3.809-2.818 0-4.644-2.153-4.644-4.853 0-2.701 1.826-4.853 4.644-4.853 2.009 0 4.188 1.278 4.253 3.522h-2.426Zm3.196-3.327h7.423v1.944h-4.996v1.631h4.566v1.879h-4.566v1.774h5.127v2.087h-7.554V27.32Zm8.415 0h2.426v7.228h4.345v2.087h-6.771V27.32Zm-41.006-5.45c.052 1.096.73 1.448 1.761 1.448.73 0 1.487-.26 1.487-.952 0-.822-1.33-.979-2.674-1.357-1.33-.378-2.727-.979-2.727-2.687 0-2.036 2.048-2.832 3.796-2.832 1.853 0 3.72.9 3.732 3.001h-2.426c.038-.848-.757-1.122-1.5-1.122-.522 0-1.175.183-1.175.796 0 .718 1.344.848 2.7 1.226 1.344.379 2.701 1.005 2.701 2.688 0 2.361-2.01 3.118-4.057 3.118-2.14 0-4.032-.94-4.044-3.327h2.426Zm6.445-6.184h2.426v7.228h4.344V25h-6.77v-9.315Zm11.608 7.424c1.566 0 2.166-1.383 2.166-2.767 0-1.382-.6-2.765-2.166-2.765-1.565 0-2.165 1.383-2.165 2.765 0 1.384.6 2.767 2.165 2.767m0-7.62c2.936 0 4.593 2.153 4.593 4.853 0 2.701-1.657 4.854-4.593 4.854-2.935 0-4.592-2.153-4.592-4.854 0-2.7 1.657-4.853 4.592-4.853Zm10.137 9.511h-2.791l-2.936-9.315h2.531l1.827 6.928h.026l1.826-6.928h2.531l-3.014 9.315Zm5.219-3.47h2.114l-1.031-3.262h-.026l-1.057 3.262Zm-.156-5.845h2.466l3.483 9.315h-2.532l-.573-1.67h-3.249l-.587 1.67h-2.492l3.484-9.315Zm6.31 0h2.427v3.575l3.065-3.575h3.014l-3.444 3.666L118.032 25h-3.014l-2.504-3.914-.992 1.044V25h-2.427v-9.315Z"/><path fill="#F47216" d="M62.496 16.842c-.3-.693-.993-1.125-1.81-1.141v-.002h-.046l-6.891-.002-.317.48c-.158.238-1.72 2.573-4.066 5.854l-.06.084c-2.107 2.945-4.907 6.61-8.268 10.354-7.608 8.47-10.857 10.094-12.32 10.786l-.19.09c-1.662.805-3.412 1.196-5.352 1.196-6.92 0-12.55-5.63-12.55-12.55 0-6.92 5.63-12.55 12.55-12.55 3.975 0 7.728 1.899 10.091 5.09l2.786-3.902c-3.153-3.608-7.8-5.802-12.895-5.802C13.698 14.827 6 22.528 6 32c0 9.468 7.697 17.173 17.158 17.173 10.162 0 18.149-7.04 23.275-12.333 4.025-4.16 15.377-17.244 15.49-17.375l-.008-.008c1.002-1.244.75-2.23.581-2.615Z"/><path fill="#F47216" d="M30.271 33.513c-1.826 2.556-4.359 5.26-7.771 4.934-3.19-.305-5.826-3.07-5.81-6.458.009-1.784.618-3.264 1.882-4.557 1.243-1.27 2.902-1.915 4.608-1.924a6.481 6.481 0 0 1 5.9 3.803c.174.372.272.695.272.695l3.023-4.227-.148-.249a11.148 11.148 0 0 0-9.051-4.66c-6.132 0-11.12 4.99-11.12 11.121 0 6.132 4.988 11.12 11.12 11.12 2.29 0 3.796-.6 4.729-1.052l.2-.095c1.268-.6 4.454-2.193 11.87-10.45 3.307-3.685 6.082-7.315 8.168-10.231l.06-.084a247.128 247.128 0 0 0 3.83-5.503l-8.983-.001h-.019c-.112.157-11.082 15.54-11.967 16.727l-.792 1.09"/></svg>