<svg xmlns="http://www.w3.org/2000/svg" width="128" height="64" fill="none"><rect width="128" height="64" fill="#fff" rx="6"/><path fill="#005697" d="M36.645 15.533H92.51v1.076H36.645v-1.077ZM35.561 20.623h55.866v1.076H35.56v-1.076ZM34.283 26.539H90.15v1.077H34.283v-1.077Z"/><path fill="#005697" d="M37.46 11.729h55.856L65.222 25.595 37.46 11.729Z"/><path fill="#fff" d="M37.447 10.47h55.857L65.21 24.337 37.447 10.471Z"/><path fill="#005697" d="M37.85 9.616h55.866v1.077H37.85V9.616ZM20.04 51.673l.735-2.459c.962.483 1.919.918 3.236.918 1.137 0 2.326-.345 2.326-1.31 0-1.908-4.401-2.093-4.401-5.06 0-2.779 2.961-3.77 5.638-3.77 1.241 0 2.506.207 3.696.483l-.735 2.321c-.886-.297-1.82-.55-2.781-.55-1.01 0-2.274.253-2.274 1.197 0 1.494 4.401 2.045 4.401 4.94 0 3.084-2.96 4.001-5.87 4.001-1.365 0-2.734-.185-3.97-.71ZM32.682 48.59c0-.896.25-1.84.43-2.572l1.365-5.75h3.388L36.6 45.855c-.175.805-.38 1.61-.38 2.485 0 .986.759 1.654 1.849 1.654 2.35 0 3.212-1.999 3.643-3.77l1.389-5.956h3.387l-2.402 10.14a30.604 30.604 0 0 0-.327 1.7h-3.312l.228-1.15h-.052c-.939.784-2.227 1.426-3.691 1.426-2.559 0-4.25-1.447-4.25-3.794ZM47.8 47.465c0-3.54 2.123-7.473 6.553-7.473 1.668 0 2.957.573 4.018 1.68l1.644-6.805h3.388L59.892 49.49c-.204 1.012-.408 2.02-.483 2.619h-3.16l.326-1.745h-.047c-1.014 1.288-2.279 2.02-4.25 2.02-3.084 0-4.477-2.343-4.477-4.919Zm3.54-.275c0 1.193.407 2.804 2.075 2.804 2.478 0 3.947-2.623 3.947-4.803 0-1.382-.735-2.808-2.454-2.808-2.431 0-3.568 3.037-3.568 4.807ZM78.603 52.108l1.44-6.206c.175-.71.327-1.404.327-2.279 0-1.283-.607-2.274-2.147-2.274-2.634 0-3.97 2.692-4.453 4.807l-1.341 5.953H70.76l1.44-6.207c.176-.71.327-1.404.327-2.279 0-1.283-.606-2.274-2.146-2.274-2.63 0-3.97 2.692-4.454 4.807l-1.34 5.953H62.92l2.203-9.748c.151-.572.275-1.356.327-1.977h1.592a14.42 14.42 0 0 1-.275 1.77h.047c1.218-1.473 2.227-2.045 4-2.045 1.819 0 3.16.917 3.235 2.618h.052c.834-1.632 2.327-2.618 4.374-2.618 2.227 0 3.643 1.309 3.643 3.445 0 .461-.18 1.357-.379 2.21l-1.469 6.344h-1.667ZM96.635 52.109l2.73-11.724h1.672l-2.734 11.724h-1.668ZM83.658 49.098c0-3.425 4.245-4.14 7.41-4.14.66 0 1.237.048 1.744.091.052-.345.076-.69.076-1.172 0-1.606-.986-2.528-2.758-2.528-1.492 0-2.956.62-3.819 1.012l.18-1.473c.91-.344 2.374-.78 3.895-.78 2.781 0 4.246 1.379 4.246 3.817 0 .46-.1 1.31-.327 2.231l-.683 3.17a14.8 14.8 0 0 0-.483 2.782h-1.592c.076-.62.128-1.218.256-1.722h-.052c-1.09 1.473-2.507 1.998-4.402 1.998-2 0-3.69-1.357-3.69-3.286Zm1.744-.022c0 1.331 1.213 2.068 2.501 2.068 2.985 0 4.355-2.438 4.705-4.898-.53 0-1.032-.047-1.568-.047-2.146 0-5.638.302-5.638 2.877ZM102.24 52.109l4.047-17.242h1.672l-4.046 17.242h-1.673ZM42.836 35.856c0-.812.725-1.472 1.62-1.472.893 0 1.62.66 1.62 1.472 0 .813-.727 1.473-1.62 1.473-.895 0-1.62-.66-1.62-1.473ZM37.394 35.856c0-.812.725-1.472 1.62-1.472.892 0 1.617.66 1.617 1.472 0 .813-.724 1.473-1.618 1.473-.894 0-1.62-.66-1.62-1.473ZM99.857 36.279c0-.58.518-1.051 1.156-1.051.64 0 1.157.471 1.157 1.051 0 .581-.517 1.051-1.157 1.051-.638 0-1.156-.47-1.156-1.051Z"/></svg>