<svg xmlns="http://www.w3.org/2000/svg" width="128" height="64" fill="none"><rect width="128" height="64" fill="#fff" rx="6"/><path fill="#300" d="M75.041 11.782c-10.182 0-21.095 2.19-30.118 10.454v14.155c0 4.609 1.704 8.459 4.94 11.095 2.86 2.328 11.655 6.31 14.137 7.405 2.45-1.077 11.223-5 14.132-7.405 3.259-2.686 4.959-6.44 4.959-11.095V12.18c-2.61-.24-5.304-.4-8.05-.4Zm-17.295 27.49c-1.396.95-3.269 1.469-5.505 1.469-3.636 0-5.455-1.96-5.455-5.832V23.432h3.637v11.65c0 1.036.25 2.573 1.927 2.573a3.082 3.082 0 0 0 1.727-.455V23.432h3.637l.032 15.84Zm7.163 1.419c-.555.01-1.11-.06-1.645-.205v7.696h-3.637V24.364a8.819 8.819 0 0 1 4.923-1.3c4.364 0 6.764 3.309 6.764 8.636 0 5.327-2.314 8.99-6.405 8.99Zm16.682-4.823c-.073 2.337-1.682 4.887-5.29 4.887a7.978 7.978 0 0 1-4.02-1.132v-3.368a5.809 5.809 0 0 0 3.492 1.486c1.34 0 2.223-.76 2.19-2.036-.026-1.146-.672-1.769-2.272-2.728-3.014-1.768-3.555-3.222-3.56-5.163 0-2.955 2.5-4.696 4.906-4.764a6.227 6.227 0 0 1 4.013 1.223v3.182a4.872 4.872 0 0 0-3.273-1.5c-1.036 0-2.113.454-2.15 1.745-.036 1.29 1.041 1.855 2.405 2.655 3.05 1.768 3.636 3.381 3.573 5.513h-.014Zm-14.032-4.09c0 3.995-1.004 5.908-3.109 5.908a3.538 3.538 0 0 1-1.186-.218v-11.2c.408-.177.85-.267 1.295-.263 2.132 0 3.014 1.695 3.014 5.786l-.014-.014Z"/><path fill="#FFBE00" d="M83.091 12.182c-2.595-.241-5.29-.4-8.036-.4-10.182 0-21.096 2.19-30.119 10.454v14.155c0 4.609 1.705 8.459 4.941 11.095 2.86 2.328 11.655 6.31 14.137 7.405 2.45-1.077 11.222-5 14.132-7.405 3.245-2.686 4.945-6.44 4.945-11.095V12.18ZM46.805 34.909V23.432h3.636v11.65c0 1.036.25 2.572 1.927 2.572a3.081 3.081 0 0 0 1.727-.454V23.432h3.637v15.84c-1.396.95-3.268 1.469-5.505 1.469-3.636 0-5.454-1.96-5.454-5.832m16.504 13.273h-3.636V24.364a8.819 8.819 0 0 1 4.923-1.3c4.363 0 6.763 3.309 6.763 8.636 0 5.327-2.327 8.99-6.418 8.99-.555.01-1.11-.058-1.645-.204l.013 7.696Zm0-10.682c.38.14.782.214 1.187.218 2.104 0 3.109-1.932 3.109-5.909 0-4.09-.882-5.786-3-5.786a3.182 3.182 0 0 0-1.296.263V37.5Zm8.86-9.673c0-2.954 2.5-4.695 4.904-4.763a6.223 6.223 0 0 1 4.01 1.209v3.181a4.873 4.873 0 0 0-3.274-1.5c-1.036 0-2.113.455-2.15 1.746-.036 1.29 1.041 1.855 2.405 2.655 3.05 1.818 3.636 3.409 3.573 5.54-.073 2.337-1.682 4.887-5.291 4.887a7.977 7.977 0 0 1-4.018-1.132v-3.395a5.809 5.809 0 0 0 3.49 1.486c1.341 0 2.223-.76 2.191-2.036-.027-1.146-.672-1.769-2.272-2.728-3.014-1.768-3.555-3.222-3.56-5.163M48.641 48.977c-3.695-3.031-5.65-7.381-5.65-12.586V11.664C48.827 8.568 55.895 7 64.001 7c8.104 0 15.172 1.568 21.008 4.664V36.39c0 5.205-1.954 9.545-5.65 12.586C75.977 51.75 65.232 56.464 64 57c-1.232-.536-11.977-5.25-15.359-8.023Z"/></svg>