<svg xmlns="http://www.w3.org/2000/svg" viewBox="0 0 320 120"><defs><style>.a{fill:none;}.b{fill:#300;}.c{fill:#ffbe00;}</style></defs><rect class="a" width="320" height="120"/><path class="b" d="M184.29,15.52c-22.4,0-46.41,4.82-66.26,23V69.66c0,10.14,3.75,18.61,10.87,24.41,6.29,5.12,25.64,13.88,31.1,16.29,5.39-2.37,24.69-11,31.09-16.29C198.26,88.16,202,79.9,202,69.66V16.4C196.26,15.87,190.33,15.52,184.29,15.52ZM146.24,76c-3.07,2.09-7.19,3.23-12.11,3.23-8,0-12-4.31-12-12.83V41.15h8V66.78c0,2.28.55,5.66,4.24,5.66a6.78,6.78,0,0,0,3.8-1V41.15h8ZM162,79.12a13,13,0,0,1-3.62-.45V95.6h-8V43.2a19.4,19.4,0,0,1,10.83-2.86c9.6,0,14.88,7.28,14.88,19S171,79.12,162,79.12Zm36.7-10.61c-.16,5.14-3.7,10.75-11.64,10.75a17.55,17.55,0,0,1-8.84-2.49V69.36a12.78,12.78,0,0,0,7.68,3.27c2.95,0,4.89-1.67,4.82-4.48-.06-2.52-1.48-3.89-5-6-6.63-3.89-7.82-7.09-7.83-11.36,0-6.5,5.5-10.33,10.79-10.48A13.7,13.7,0,0,1,197.51,43v7a10.72,10.72,0,0,0-7.2-3.3c-2.28,0-4.65,1-4.73,3.84s2.29,4.08,5.29,5.84c6.71,3.89,8,7.44,7.86,12.13Zm-30.87-9c0,8.79-2.21,13-6.84,13a7.78,7.78,0,0,1-2.61-.48V47.39a7,7,0,0,1,2.85-.58c4.69,0,6.63,3.73,6.63,12.73Z"/><path class="c" d="M202,16.4c-5.71-.53-11.64-.88-17.68-.88-22.4,0-46.41,4.82-66.26,23V69.66c0,10.14,3.75,18.61,10.87,24.41,6.29,5.12,25.64,13.88,31.1,16.29,5.39-2.37,24.69-11,31.09-16.29C198.26,88.16,202,79.9,202,69.66V16.4m-79.83,50V41.15h8V66.78c0,2.28.55,5.66,4.24,5.66a6.78,6.78,0,0,0,3.8-1V41.15h8V76c-3.07,2.09-7.19,3.23-12.11,3.23-8,0-12-4.31-12-12.83m36.31,29.2h-8V43.2a19.4,19.4,0,0,1,10.83-2.86c9.6,0,14.88,7.28,14.88,19S171,79.12,162,79.12a13,13,0,0,1-3.62-.45Zm0-23.5a7.78,7.78,0,0,0,2.61.48c4.63,0,6.84-4.25,6.84-13,0-9-1.94-12.73-6.6-12.73a7,7,0,0,0-2.85.58ZM177.9,50.82c0-6.5,5.5-10.33,10.79-10.48A13.69,13.69,0,0,1,197.51,43v7a10.72,10.72,0,0,0-7.2-3.3c-2.28,0-4.65,1-4.73,3.84s2.29,4.08,5.29,5.84c6.71,4,8,7.5,7.86,12.19-.16,5.14-3.7,10.75-11.64,10.75a17.55,17.55,0,0,1-8.84-2.49V69.36a12.78,12.78,0,0,0,7.68,3.27c2.95,0,4.89-1.67,4.82-4.48-.06-2.52-1.48-3.89-5-6-6.63-3.89-7.82-7.09-7.83-11.36M126.21,97.35c-8.13-6.67-12.43-16.24-12.43-27.69V15.26C126.62,8.45,142.17,5,160,5s33.38,3.45,46.22,10.26v54.4c0,11.45-4.3,21-12.43,27.69-7.44,6.1-31.08,16.47-33.79,17.65C157.29,113.82,133.65,103.45,126.21,97.35Z"/></svg>