<svg xmlns="http://www.w3.org/2000/svg" viewBox="0 0 323.13 120.41"><defs><style>.a{fill:none;}.b{fill:#300;}.c{fill:#ffbe00;}</style></defs><rect class="a" width="323.13" height="120.41"/><path class="b" d="M185.86,15.73c-22.4,0-46.41,4.81-66.26,23V69.87c0,10.14,3.74,18.6,10.87,24.4,6.28,5.13,25.64,13.89,31.09,16.29,5.39-2.37,24.7-11,31.09-16.29,7.17-5.9,10.88-14.17,10.88-24.4V16.61C197.83,16.08,191.9,15.73,185.86,15.73ZM147.8,76.24a21.41,21.41,0,0,1-12.11,3.23c-8,0-12-4.32-12-12.84V41.36h8V67c0,2.28.55,5.66,4.23,5.66a6.76,6.76,0,0,0,3.81-1V41.36h8Zm15.79,3.09a12.62,12.62,0,0,1-3.62-.46V95.8h-8V43.4a19.44,19.44,0,0,1,10.84-2.86c9.6,0,14.87,7.28,14.87,19S172.52,79.33,163.59,79.33Zm36.7-10.62c-.15,5.14-3.7,10.76-11.64,10.76a17.63,17.63,0,0,1-8.84-2.5v-7.4a12.8,12.8,0,0,0,7.69,3.27c2.95,0,4.89-1.68,4.82-4.48-.06-2.52-1.49-3.9-5-6-6.63-3.89-7.83-7.09-7.84-11.37,0-6.5,5.5-10.32,10.79-10.48a13.81,13.81,0,0,1,8.82,2.61v7a10.77,10.77,0,0,0-7.2-3.31c-2.28,0-4.65,1-4.73,3.84s2.29,4.09,5.29,5.84C199.15,60.47,200.45,64,200.29,68.71Zm-30.87-9c0,8.79-2.21,13-6.84,13A7.51,7.51,0,0,1,160,72.3V47.6a6.91,6.91,0,0,1,2.85-.58C167.49,47,169.42,50.74,169.42,59.75Z"/><path class="c" d="M203.53,16.61c-5.7-.53-11.63-.88-17.67-.88-22.4,0-46.41,4.81-66.26,23V69.87c0,10.14,3.74,18.6,10.87,24.4,6.28,5.13,25.64,13.89,31.09,16.29,5.39-2.37,24.7-11,31.09-16.29,7.17-5.9,10.88-14.17,10.88-24.4V16.61m-79.83,50V41.36h8V67c0,2.28.55,5.66,4.23,5.66a6.76,6.76,0,0,0,3.81-1V41.36h8V76.24a21.41,21.41,0,0,1-12.11,3.23c-8,0-12-4.32-12-12.84M160,95.8h-8V43.4a19.44,19.44,0,0,1,10.84-2.86c9.6,0,14.87,7.28,14.87,19s-5.12,19.78-14,19.78a12.62,12.62,0,0,1-3.62-.46Zm0-23.5a7.51,7.51,0,0,0,2.61.49c4.63,0,6.84-4.25,6.84-13,0-9-1.93-12.73-6.6-12.73a6.91,6.91,0,0,0-2.85.58ZM179.46,51c0-6.5,5.5-10.32,10.79-10.48a13.81,13.81,0,0,1,8.82,2.61v7a10.77,10.77,0,0,0-7.2-3.31c-2.28,0-4.65,1-4.73,3.84s2.29,4.09,5.29,5.84c6.72,3.95,8,7.5,7.86,12.19-.15,5.14-3.7,10.76-11.64,10.76a17.63,17.63,0,0,1-8.84-2.5v-7.4a12.8,12.8,0,0,0,7.69,3.27c2.95,0,4.89-1.68,4.82-4.48-.06-2.52-1.49-3.9-5-6-6.63-3.89-7.83-7.09-7.84-11.37M127.78,97.55c-8.13-6.66-12.43-16.24-12.43-27.68V15.46c12.84-6.81,28.39-10.25,46.21-10.25s33.38,3.44,46.22,10.25V69.87c0,11.44-4.3,21-12.43,27.68-7.43,6.1-31.07,16.47-33.79,17.65C158.85,114,135.21,103.65,127.78,97.55Z"/></svg>