<svg xmlns="http://www.w3.org/2000/svg" viewBox="0 0 323.13 120.41"><defs><style>.a{fill:none;}.b{fill:#fff;}.c{fill:#15569c;}.d{fill:#ed192d;}</style></defs><rect class="a" width="323.13" height="120.41"/><path class="b" d="M82.84,87.61,94.49,32.8H18.21L6.56,87.61Z"/><path class="c" d="M92,34.82H19.83l0,.24s42.41,8.71,43.26,8.86c9.74,1.72,9.44,3.6,9.44,3.6,6.83,0,7.67.24,8.86,1.24,3.59,3-2.25,11.84-2.25,11.84-.83.61-63.92,25-63.92,25h66L92,34.82Zm13.83,0-2.74,12.9c-1,4.46,2,6.47,7,6.47s8.85-2,9.8-6.47c2.79-12.9,0,0,2.79-12.9h-4.2s-2.12,9.92-2.49,11.62c-.64,3-2.2,4.76-5.28,4.76s-3.88-1.81-3.22-4.76c-.07.3,2.5-11.62,2.5-11.62Zm20.91,0-4,19h3.72l2.94-14.12h.08l4.7,14.12h5.28l4-19h-3.71l-3,14.28h-.05l-4.52-14.28Zm20.74,0-4,19h4.19l4-19Zm7,0-.66,3h5.92l-3.4,16h4.19l3.4-16h5.91l.64-3Zm18.82,0-4.06,19H183l.64-3h-9.57l1.09-5.2h8.35l.61-2.81h-8.36l1.06-5h9.59l.63-3Zm16.83,0-4,19h8.59c5.31,0,10.41-3.5,11.55-10.35.82-4.86-1.12-8.68-6.88-8.68Zm31.54,0c-4.93,0-7.38,1.75-7.74,4.49-.61,4.56,7.45,7.27,6.84,10-.37,1.59-2.33,1.51-3.92,1.51h-5.17l-.65,3h6.43c5.26,0,7.54-1.89,8-4.49.76-4.67-7.43-7.08-6.79-10.1.21-.94,1.24-1.41,3.52-1.41h4.49l.66-3Zm7.78,0-.66,3h5.92l-3.4,16h4.2l3.39-16h5.92l.64-3Zm20.45,0-10.9,19h4.19l8.36-15.26,1.68,12.23h-6l-1.64,3h12.31l-3-19Zm9.65,0-.66,3h5.92l-3.4,16h4.19l3.4-16h5.91l.64-3Zm18.8,0-4.07,19h13.8l.65-3h-9.59l1.09-5.2h8.36l.61-2.81h-8.36l1.06-5h9.58l.64-3Zm23,0c-4.94,0-7.38,1.75-7.76,4.49-.61,4.56,7.46,7.27,6.85,10-.37,1.59-2.34,1.51-3.93,1.51h-5.17l-.64,3h6.42c5.26,0,7.54-1.89,8-4.49.76-4.67-7.43-7.08-6.8-10.1.21-.94,1.25-1.41,3.53-1.41h4.48l.67-3Zm-107.64,3H198c3.47,0,4.71,2.57,4.18,5.6-.74,4.27-3.47,7.37-8.22,7.37h-3ZM54.49,46.56c-1.91,0-3.26,0-3.41,0H17.35l-8.29,39s25.39-12.46,28.49-14A182.64,182.64,0,0,1,60.84,61.19a110.35,110.35,0,0,1,12-3.26c1.5-.27,2.14-.53,2.12-.81-.06-.8-1.57-.85-4.12-.73-7.78.37-22.69,6.31-27,8.57L39.06,50H70c1-2.92-9.78-3.35-15.52-3.39ZM70.9,50.17c-.22,0-.41.16-.68.51a2.54,2.54,0,0,1-1,.82,18.45,18.45,0,0,1-4.63.83c-1.12.1-1.43.21-1.45.64s.17.61,1.78.61c3.71,0,10.38-1.4,12.39-.76,1.07.34.21,2.23-.66,4.72-.34,1,.33.89.71.47a15.85,15.85,0,0,0,2.3-5.2c.27-2.29-1.69-2.64-4.4-2.64Zm54.85,16c-5.89,0-10.79,3.08-12.23,9.85-1.14,5.41,2.15,9.86,8,9.86s10.72-2.94,12.2-9.86C135,70.4,131.59,66.2,125.75,66.2Zm168,0c-5.84,0-11.46,3-12.9,9.85s2.87,9.86,8.71,9.86a31.47,31.47,0,0,0,4.7-.41l1-3.28a20.08,20.08,0,0,1-5.1.67c-3.79,0-5.94-2.54-5-6.84s4.14-6.83,7.93-6.83a14.86,14.86,0,0,1,4.46.62l.38-3.21a24,24,0,0,0-4.17-.43ZM144,66.54c-4.94,0-7.39,1.76-7.76,4.49-.6,4.57,7.46,7.27,6.86,10-.37,1.59-2.34,1.51-3.93,1.51H134l-.64,3h6.43c5.25,0,7.53-1.88,8-4.48.77-4.67-7.43-7.09-6.8-10.11.22-.93,1.25-1.41,3.54-1.41H149l.67-3Zm7.78,0-.67,3H157l-3.4,16h4.2l3.4-16h5.91l.63-3Zm61.25,0c-4.94,0-7.39,1.76-7.75,4.49-.62,4.57,7.45,7.27,6.85,10-.38,1.59-2.34,1.51-3.94,1.51H203l-.64,3h6.43c5.25,0,7.53-1.88,8-4.48.77-4.67-7.43-7.09-6.8-10.11.21-.93,1.25-1.41,3.53-1.41H218l.66-3Zm9.25,0-4.06,19H232l.64-3h-9.58l1.09-5.21h8.36l.61-2.81h-8.36l1.05-5h9.59l.63-3Zm16.82,0-4,19h4.2l3.39-16h3.77c2.33,0,2.54,1.3,2.31,2.5-.45,2.25-2.42,3.15-4.57,3.15a11.09,11.09,0,0,1-1.59,0L246,85.57h4.59l-3.13-8.2a6.15,6.15,0,0,0,5.44-6c.24-3.19-1.24-4.86-5-4.86Zm62.18,0-4,19H311l.64-3h-9.58l1.09-5.21h8.36l.6-2.81h-8.35l1.06-5h9.58l.63-3Zm-202.19,0-4,19h4.2l3.39-16h3.42c1.55,0,2.6.77,2.16,2.84a4,4,0,0,1-4.15,3.1c-.63,0-1.32-.08-1.85-.13l.21,2.77c.61,0,1.33.15,2,.15,3.76,0,7.08-2.17,7.85-5.79.5-2.38,0-6-4.09-6Zm73.16,0-10.89,19h4.18l8.37-15.26,1.66,12.24h-6l-1.64,3h12.3l-3-19Zm14.21,0-4,19h12.88l.66-3h-8.68l3.4-16Zm68.69,0,2.86,19h5l10.83-19h-4.14L261.3,81.81l-2-15.26Zm21.18,0-4,19h4.19l4-19ZM125.09,69.22c3.87,0,5.18,3,4.36,6.83-.91,4.3-3.46,6.84-7.25,6.84s-5.23-3.15-4.41-6.84c1-4.3,3.51-6.83,7.3-6.83Z"/><path class="d" d="M100.58,59.5l-.3,1.41h216l.29-1.41h-216Z"/></svg>