<svg xmlns="http://www.w3.org/2000/svg" width="128" height="64" fill="none"><rect width="128" height="64" fill="#fff" rx="6"/><path fill="#9C0" d="M21.571 35.474 14 19.352h7.037l3.74 10.154 3.831-10.154h6.948l-7.482 16.122v9.174H21.57v-9.174Zm38.896-16.122h8.373c2.85 0 7.927 0 11.223 4.72 1.781 2.405 2.316 5.078 2.316 7.839 0 6.948-3.385 12.737-13.005 12.737h-8.818V19.351h-.09Zm6.413 19.596h2.761c4.81 0 6.235-3.385 6.235-6.948 0-1.425-.267-3.207-1.247-4.72-.712-1.159-2.048-2.317-4.899-2.317h-2.76v13.985h-.09Zm17.013-19.596h14.341v5.7h-7.838v3.92h7.66v5.7h-7.66v4.365h7.838v5.7h-14.34V19.351Zm16.122 0h6.503v19.596H114v5.7h-13.985V19.351ZM32.616 32a13.343 13.343 0 0 1 13.361-13.361A13.343 13.343 0 0 1 59.34 32a13.343 13.343 0 0 1-13.362 13.361A13.343 13.343 0 0 1 32.617 32Zm13.361 7.571A7.565 7.565 0 0 0 53.55 32a7.565 7.565 0 0 0-7.572-7.571A7.565 7.565 0 0 0 38.407 32a7.565 7.565 0 0 0 7.57 7.571Z"/></svg>