<svg xmlns="http://www.w3.org/2000/svg" width="128" height="64" fill="none"><rect width="128" height="64" fill="#BA1B02" rx="6"/><path fill="#fff" fill-rule="evenodd" d="m18.896 29.356-.62.298-.62-.298-8.669-4.303 4.11-1.581 8.895 4.346-3.096 1.538Zm8.682-4.303-3.106 1.515-8.994-4.024 2.797-1.089 9.303 3.598ZM7.43 35.78l.279.526 9.998 8.995.313-2.07-8.881-8.047-1.245-10.415L6 24.045 7.43 35.78Zm21.227-11.016-1.23 10.439-8.896 8.048.327 2.078 9.984-9.042.284-.526 1.42-11.721-1.889.724Zm-10.704-6.093L6.56 23.093l1.586 1.288 10.13-3.94 10.117 3.94 1.596-1.288-11.362-4.422h-.673Zm92.395 9.682a3.79 3.79 0 0 1 1.563 1.278c.407.645.616 1.396.601 2.159v7.413h-2.334v-7.39a1.629 1.629 0 0 0-.507-1.112 2.365 2.365 0 0 0-1.098-.559 3.493 3.493 0 0 0-1.292-.071 2.843 2.843 0 0 0-1.118.365v8.767h-2.367V28.637a3.95 3.95 0 0 0 .616-.133c.251-.076.634-.204 1.15-.379a6.928 6.928 0 0 1 1.894-.288c.05-.01.101-.01.151 0h.592a6.15 6.15 0 0 1 2.116.506l.033.01Zm-6.921.326L99.73 39.227h-2.5l-3.697-10.548c.8.006 1.586-.223 2.258-.658l2.235 6.524.369 2.225h.17l.365-2.225 2.239-6.524a4.109 4.109 0 0 0 2.258.658ZM65.02 33.05c.53.207.997.55 1.354.994.39.553.585 1.218.558 1.894a3.427 3.427 0 0 1-.686 2.144 3.613 3.613 0 0 1-1.723 1.155 5.084 5.084 0 0 1-2.216.185 5.146 5.146 0 0 1-2.154-.8 4.356 4.356 0 0 1-1.534-1.813l1.761-1.15c.268.473.655.87 1.122 1.15.412.268.883.43 1.373.473.416.047.837-.042 1.198-.256a1.184 1.184 0 0 0 .525-.998.738.738 0 0 0-.07-.35.831.831 0 0 0-.209-.29 1.922 1.922 0 0 0-.668-.383c-.274-.08-.54-.152-.804-.208-.434-.08-.862-.186-1.283-.318a5.28 5.28 0 0 1-1.278-.582 2.964 2.964 0 0 1-1.004-.994 2.789 2.789 0 0 1-.374-1.345v-.037a1.186 1.186 0 0 1 0-.185 3.048 3.048 0 0 1 .653-1.988c.408-.52.952-.915 1.572-1.141a5.443 5.443 0 0 1 1.927-.327 4.804 4.804 0 0 1 1.85.388 5.87 5.87 0 0 1 1.785 1.212l-1.42 1.558a3.055 3.055 0 0 0-1.131-.7 3.73 3.73 0 0 0-1.302-.261 2.277 2.277 0 0 0-1.084.246.914.914 0 0 0-.341.303.948.948 0 0 0-.17.421 1.005 1.005 0 0 0 .274.848c.225.216.498.378.795.473.307.108.625.185.947.227.6.065 1.19.205 1.757.417v.038Zm5.004-8.73a1.51 1.51 0 0 1 .416 1.094 1.458 1.458 0 0 1-.913 1.42 1.633 1.633 0 0 1-1.16 0 1.368 1.368 0 0 1-.474-.327 1.532 1.532 0 0 1-.322-.473 1.513 1.513 0 0 1-.109-.578 1.578 1.578 0 0 1 .105-.591 1.483 1.483 0 0 1 .8-.824c.18-.072.373-.109.568-.11.2-.003.397.034.582.11.184.051.356.138.507.256v.023Zm6.035 12.782V23.888h2.368v8.63l1.107-1.235 2.883-3.257h2.96l-4.65 5.16 4.626 6.036h-2.775l-3.508-4.583-.639.668v3.915l-2.272.085h-.398c-1.515-.109-2.58-.473-3.205-1.018a3.67 3.67 0 0 1-1.122-2.812V23.888h2.367V35.44c-.009.213.029.426.11.624.076.202.197.383.354.53.541.326 1.164.49 1.794.474v.033Zm-5.898 2.102h-2.367v-11.23h2.367v11.23ZM54.59 27.302h-2.325l1.524-2.528h2.917l-2.117 2.528Zm66.75 2.163a3.925 3.925 0 0 0-1.648-1.23 5.563 5.563 0 0 0-2.097-.389 5.384 5.384 0 0 0-2.097.379 5.206 5.206 0 0 0-1.931 1.42l1.372 1.264a3.22 3.22 0 0 1 1.25-.81 3.61 3.61 0 0 1 1.473-.16c.461.031.903.195 1.273.473.373.299.625.723.71 1.193v.677a6.198 6.198 0 0 0-2.045-.474 5.21 5.21 0 0 0-2.069.322 3.355 3.355 0 0 0-2.291 3.314 4.174 4.174 0 0 0 .606 2.287 3.312 3.312 0 0 0 1.515 1.273c.666.289 1.381.45 2.106.474a10.7 10.7 0 0 0 2.334-.152 12.66 12.66 0 0 0 2.197-.596v-7.182a3.423 3.423 0 0 0-.644-2.083h-.014Zm-1.7 7.735a6.875 6.875 0 0 1-1.354.251 4.368 4.368 0 0 1-1.358-.099 1.66 1.66 0 0 1-1.364-1.894c.005-.2.053-.397.142-.577.09-.183.217-.344.374-.474a2.122 2.122 0 0 1 1.118-.426 4.508 4.508 0 0 1 1.311.033 3.78 3.78 0 0 1 1.131.322V37.2Zm-26.236-6.693a3.066 3.066 0 0 0-.473-.947 3.968 3.968 0 0 0-1.624-1.302 5.478 5.478 0 0 0-2.074-.436c-.169.003-.338.016-.506.038a5.334 5.334 0 0 0-1.624.398c-.387.17-.743.402-1.056.686a3.394 3.394 0 0 0-1.212 2.756v3.915a3.64 3.64 0 0 0 .654 2.163c.211.283.458.538.734.758.278.213.582.391.904.53a5.649 5.649 0 0 0 1.624.412h.506a5.381 5.381 0 0 0 2.074-.431 3.867 3.867 0 0 0 1.623-1.288c.444-.633.674-1.39.659-2.163v-3.91a4.537 4.537 0 0 0-.209-1.18ZM91.21 35.6a1.42 1.42 0 0 1-.313.91 2.14 2.14 0 0 1-.753.577c-.3.12-.622.182-.946.18a2.76 2.76 0 0 1-.976-.18 2.224 2.224 0 0 1-.776-.578 1.5 1.5 0 0 1-.303-.909v-3.915a1.368 1.368 0 0 1 .303-.875c.212-.233.479-.407.776-.507.153-.06.312-.105.474-.133a2.84 2.84 0 0 1 1.42.133c.29.1.55.275.753.506.207.245.318.556.312.876l.029 3.915Zm-33.83-6.135a3.925 3.925 0 0 0-1.648-1.23 5.567 5.567 0 0 0-2.097-.389 5.317 5.317 0 0 0-1.96.327.688.688 0 0 0-.137.052 5.311 5.311 0 0 0-1.965 1.42l1.378 1.264a3.41 3.41 0 0 1 .71-.535c.172-.1.353-.184.54-.25.474-.156.975-.21 1.472-.162.461.032.904.196 1.274.474.374.297.625.721.705 1.192v.678a6.08 6.08 0 0 0-2.04-.474 5.24 5.24 0 0 0-1.95.275l-.12.047a3.357 3.357 0 0 0-2.29 3.314c.002.451.064.9.184 1.335h-8.048l8.479-11.272-.762-1.624h-10.61v2.457h7.996L38.045 37.56l.663 1.643h10.855v-2.045c.114.278.259.544.43.79.123.158.256.306.398.446.289.263.62.474.98.624.095.047.193.086.294.119a5.77 5.77 0 0 0 1.813.336 10.76 10.76 0 0 0 2.339-.152c.747-.131 1.48-.331 2.191-.596v-7.177a3.418 3.418 0 0 0-.643-2.083h.014ZM55.656 37.2a7.002 7.002 0 0 1-1.359.251 4.372 4.372 0 0 1-1.359-.099 1.893 1.893 0 0 1-1.022-.601 1.534 1.534 0 0 1-.256-.474 2.34 2.34 0 0 1-.085-.81c.01-.143.038-.284.085-.42.07-.252.222-.473.43-.63a2.122 2.122 0 0 1 1.118-.426 4.507 4.507 0 0 1 1.312.033c.391.048.773.156 1.13.322v2.84l.006.014Z" clip-rule="evenodd"/><path fill="#DEDEDE" fill-rule="evenodd" d="m17.769 30.573.445 11.362-8.11-7.315-1.14-9.468 8.805 5.42Z" clip-rule="evenodd"/><path fill="#B4B4B4" fill-rule="evenodd" d="m24.714 26.932 2.873-1.76-1.13 9.467-8.12 7.329.474-11.362 3.536-2.22-.232 5.581L24.33 32.4l.383-5.468Z" clip-rule="evenodd"/></svg>