<svg xmlns="http://www.w3.org/2000/svg" viewBox="0 0 320 120"><defs><style>.a{fill:none;}.b{fill:#ba1b02;}.c{fill:#fff;}.c,.d,.e{fill-rule:evenodd;}.d{fill:#dedede;}.e{fill:#b4b4b4;}</style></defs><rect class="a" width="320" height="120"/><rect class="b" x="10" y="20" width="300" height="80" rx="9"/><path class="c" d="M64.71,54.43l-1.31.63-1.31-.63L43.78,45.34,52.46,42l18.79,9.18Zm18.34-9.09-6.56,3.2-19-8.5,5.91-2.3ZM40.49,68l.59,1.11,21.12,19,.66-4.37-18.76-17-2.63-22-4-1.53ZM85.33,44.73l-2.6,22.05-18.79,17,.69,4.39,21.09-19.1.6-1.11,3-24.76ZM62.72,31.86,38.65,41.2,42,43.92,63.4,35.6l21.37,8.32,3.37-2.72-24-9.34ZM257.89,52.31a8,8,0,0,1,3.3,2.7,8.25,8.25,0,0,1,1.27,4.56V75.23h-4.93V59.62a3.44,3.44,0,0,0-1.07-2.35,5,5,0,0,0-2.32-1.18,7.38,7.38,0,0,0-2.73-.15,6,6,0,0,0-2.36.77V75.23h-5V52.91a8.37,8.37,0,0,0,1.3-.28c.53-.16,1.34-.43,2.43-.8a14.63,14.63,0,0,1,4-.61.86.86,0,0,1,.32,0c.42,0,.83,0,1.25,0a13,13,0,0,1,4.47,1.07ZM243.27,53l-7.81,22.28h-5.28L222.37,53a8.68,8.68,0,0,0,4.77-1.39l4.72,13.78.78,4.7H233l.77-4.7,4.73-13.78A8.68,8.68,0,0,0,243.27,53Zm-81.13,9.23a6.86,6.86,0,0,1,2.86,2.1,6.49,6.49,0,0,1,1.18,4,7.24,7.24,0,0,1-1.45,4.53,7.63,7.63,0,0,1-3.64,2.44,10.74,10.74,0,0,1-4.68.39A10.87,10.87,0,0,1,151.86,74a9.2,9.2,0,0,1-3.24-3.83l3.72-2.43a6.65,6.65,0,0,0,2.37,2.43,6.29,6.29,0,0,0,2.9,1,4.07,4.07,0,0,0,2.53-.54,2.5,2.5,0,0,0,1.11-2.11,1.56,1.56,0,0,0-.15-.74,1.76,1.76,0,0,0-.44-.61,4.06,4.06,0,0,0-1.41-.81c-.58-.17-1.14-.32-1.7-.44a22.81,22.81,0,0,1-2.71-.67,11.16,11.16,0,0,1-2.7-1.23,6.26,6.26,0,0,1-2.12-2.1,5.89,5.89,0,0,1-.79-2.84V59a2.54,2.54,0,0,1,0-.39,6.44,6.44,0,0,1,1.38-4.2A7.49,7.49,0,0,1,153.93,52a11.5,11.5,0,0,1,4.07-.69,10.15,10.15,0,0,1,3.91.82,12.4,12.4,0,0,1,3.77,2.56l-3,3.29a6.45,6.45,0,0,0-2.39-1.48,7.88,7.88,0,0,0-2.75-.55,4.81,4.81,0,0,0-2.29.52,1.93,1.93,0,0,0-.72.64,2,2,0,0,0-.36.89,2.12,2.12,0,0,0,.58,1.79,4.3,4.3,0,0,0,1.68,1,9.88,9.88,0,0,0,2,.48,15.31,15.31,0,0,1,3.71.88Zm10.57-18.44a3.19,3.19,0,0,1,.88,2.31,3.08,3.08,0,0,1-1.93,3,3.45,3.45,0,0,1-2.45,0,2.89,2.89,0,0,1-1-.69,3.23,3.23,0,0,1-.68-1,3.19,3.19,0,0,1-.23-1.22,3.33,3.33,0,0,1,.22-1.25,3.13,3.13,0,0,1,.69-1.06,3.23,3.23,0,0,1,1-.68,3.28,3.28,0,0,1,1.2-.23,3.06,3.06,0,0,1,1.23.23,3.09,3.09,0,0,1,1.07.54Zm12.75,27V42.88h5V61.11l2.34-2.61h0l6.09-6.88h6.25l-9.82,10.9,9.77,12.75h-5.86l-7.41-9.68L190.47,67v8.27l-4.8.18h-.84c-3.2-.23-5.45-1-6.77-2.15a7.75,7.75,0,0,1-2.37-5.94V42.88h5v24.4a3.15,3.15,0,0,0,.23,1.32,3,3,0,0,0,.75,1.12,7,7,0,0,0,3.79,1ZM173,75.23h-5V51.51h5ZM140.11,50.09H135.2l3.22-5.34h6.16Zm141,4.57a8.29,8.29,0,0,0-3.48-2.6,11.76,11.76,0,0,0-4.43-.82,11.37,11.37,0,0,0-4.43.8,11,11,0,0,0-4.08,3l2.9,2.67A6.79,6.79,0,0,1,270.23,56a7.62,7.62,0,0,1,3.11-.34,5.06,5.06,0,0,1,2.69,1,4.18,4.18,0,0,1,1.5,2.52v1.43a13.09,13.09,0,0,0-4.32-1,11,11,0,0,0-4.37.68,7.09,7.09,0,0,0-4.84,7,8.82,8.82,0,0,0,1.28,4.83,7,7,0,0,0,3.2,2.69,12.22,12.22,0,0,0,4.45,1,22.63,22.63,0,0,0,4.93-.32,26.76,26.76,0,0,0,4.64-1.26V59.06a7.22,7.22,0,0,0-1.36-4.4ZM277.52,71a14.57,14.57,0,0,1-2.86.53,9.24,9.24,0,0,1-2.87-.21,3.5,3.5,0,0,1-2.88-4,2.89,2.89,0,0,1,.3-1.22,3,3,0,0,1,.79-1,4.48,4.48,0,0,1,2.36-.9,9.53,9.53,0,0,1,2.77.07,8,8,0,0,1,2.39.68ZM222.1,56.86a6.47,6.47,0,0,0-1-2,8.38,8.38,0,0,0-3.43-2.75,11.57,11.57,0,0,0-4.38-.92,9.45,9.45,0,0,0-1.07.08,11.27,11.27,0,0,0-3.43.84,8.23,8.23,0,0,0-2.23,1.45A7.17,7.17,0,0,0,204,59.38v8.27a7.69,7.69,0,0,0,1.38,4.57,8.71,8.71,0,0,0,1.55,1.6,8.94,8.94,0,0,0,1.91,1.12,11.93,11.93,0,0,0,3.43.87h1.07a11.37,11.37,0,0,0,4.38-.91,8.17,8.17,0,0,0,3.43-2.72,7.7,7.7,0,0,0,1.39-4.57V59.35A9.58,9.58,0,0,0,222.1,56.86Zm-4.64,10.76a3,3,0,0,1-.66,1.92,4.52,4.52,0,0,1-1.59,1.22,5.27,5.27,0,0,1-2,.38,5.83,5.83,0,0,1-2.06-.38,4.7,4.7,0,0,1-1.64-1.22,3.17,3.17,0,0,1-.64-1.92V59.35a2.89,2.89,0,0,1,.64-1.85,3.9,3.9,0,0,1,1.64-1.07,5,5,0,0,1,1-.28,6,6,0,0,1,3,.28,3.74,3.74,0,0,1,1.59,1.07,2.78,2.78,0,0,1,.66,1.85ZM146,54.66a8.29,8.29,0,0,0-3.48-2.6,11.76,11.76,0,0,0-4.43-.82,11.23,11.23,0,0,0-4.14.69,1.45,1.45,0,0,0-.29.11,11.22,11.22,0,0,0-4.15,3l2.91,2.67a7.2,7.2,0,0,1,1.5-1.13,6.94,6.94,0,0,1,1.14-.53,7.62,7.62,0,0,1,3.11-.34,5.06,5.06,0,0,1,2.69,1,4.09,4.09,0,0,1,1.49,2.52v1.43a12.84,12.84,0,0,0-4.31-1,11.07,11.07,0,0,0-4.12.58l-.25.1a7.09,7.09,0,0,0-4.84,7,10.78,10.78,0,0,0,.39,2.82h-17l17.91-23.81-1.61-3.43H106.11v5.19H123L105.16,71.76l1.4,3.47h22.93V70.91a8.71,8.71,0,0,0,.91,1.67,9.39,9.39,0,0,0,.84.94,7.15,7.15,0,0,0,2.07,1.32,4.73,4.73,0,0,0,.62.25,12.19,12.19,0,0,0,3.83.71,22.72,22.72,0,0,0,4.94-.32,26.41,26.41,0,0,0,4.63-1.26V59.06a7.22,7.22,0,0,0-1.36-4.4ZM142.36,71a14.8,14.8,0,0,1-2.87.53,9.24,9.24,0,0,1-2.87-.21,4,4,0,0,1-2.16-1.27,3.24,3.24,0,0,1-.54-1,4.94,4.94,0,0,1-.18-1.71,3.43,3.43,0,0,1,.18-.89,2.52,2.52,0,0,1,.91-1.33,4.48,4.48,0,0,1,2.36-.9,9.52,9.52,0,0,1,2.77.07,8,8,0,0,1,2.39.68v6Z"/><path class="d" d="M62.33,57l.94,24L46.14,65.55l-2.41-20Z"/><path class="e" d="M77,49.31l6.07-3.72-2.39,20L63.53,81.07l1-24L72,52.38l-.49,11.79,4.68-3.31Z"/></svg>