<svg xmlns="http://www.w3.org/2000/svg" viewBox="0 0 323.13 120.41"><defs><style>.a{fill:none;}.b{fill:#ba1b02;}.c{fill:#fff;}.c,.d,.e{fill-rule:evenodd;}.d{fill:#dedede;}.e{fill:#b4b4b4;}</style></defs><rect class="a" width="323.13" height="120.41"/><rect class="b" x="11.56" y="20.21" width="300" height="80" rx="9"/><path class="c" d="M66.28,54.64,65,55.27l-1.32-.63-18.31-9.1L54,42.21l18.78,9.17Zm18.34-9.1-6.56,3.2-19-8.5L65,38ZM42.05,68.17l.6,1.1L63.76,88.34,64.42,84,45.66,67,43,44.94l-4-1.54ZM86.9,44.94,84.29,67,65.5,84l.69,4.39L87.28,69.27l.6-1.1,3-24.77ZM64.28,32.07,40.22,41.4l3.38,2.73L65,35.81l21.38,8.32,3.37-2.73-24-9.33ZM259.45,52.52a7.88,7.88,0,0,1,3.3,2.69A8.1,8.1,0,0,1,264,59.78V75.43h-4.93V59.82A3.46,3.46,0,0,0,258,57.47a4.94,4.94,0,0,0-2.32-1.18,7.12,7.12,0,0,0-2.72-.14,6.22,6.22,0,0,0-2.37.76V75.43h-5V53.11a9.23,9.23,0,0,0,1.29-.27c.53-.17,1.34-.43,2.43-.81a15,15,0,0,1,4-.61.81.81,0,0,1,.31,0,8.66,8.66,0,0,1,1.25,0,12.62,12.62,0,0,1,4.48,1.07Zm-14.61.64L237,75.43h-5.27l-7.82-22.27a8.76,8.76,0,0,0,4.77-1.39l4.73,13.77.77,4.7h.36l.78-4.7,4.72-13.77A8.79,8.79,0,0,0,244.84,53.16Zm-81.13,9.22a7,7,0,0,1,2.88,2.16,6.48,6.48,0,0,1,1.19,3.95A7.22,7.22,0,0,1,166.32,73a7.46,7.46,0,0,1-3.63,2.44,10.66,10.66,0,0,1-4.69.4,11,11,0,0,1-4.54-1.74,9.28,9.28,0,0,1-3.25-3.83l3.73-2.43a6.7,6.7,0,0,0,2.36,2.43,6.55,6.55,0,0,0,2.91,1,4,4,0,0,0,2.52-.55,2.44,2.44,0,0,0,1.11-2.1,1.68,1.68,0,0,0-.14-.74,1.76,1.76,0,0,0-.44-.61,4,4,0,0,0-1.42-.82c-.57-.16-1.14-.32-1.7-.44a20.84,20.84,0,0,1-2.7-.66,11.09,11.09,0,0,1-2.71-1.24A6.12,6.12,0,0,1,151.62,62a5.93,5.93,0,0,1-.8-2.84v-.09c0-.13,0-.26,0-.38a6.4,6.4,0,0,1,1.39-4.21,7.59,7.59,0,0,1,3.31-2.33,11.56,11.56,0,0,1,4.07-.68,10.25,10.25,0,0,1,3.91.81,12.64,12.64,0,0,1,3.77,2.56l-3,3.29a6.54,6.54,0,0,0-2.38-1.48,8.11,8.11,0,0,0-2.75-.55,4.82,4.82,0,0,0-2.3.52,2.32,2.32,0,0,0-.72.64,2.26,2.26,0,0,0-.35.9,2.09,2.09,0,0,0,.08,1,2.14,2.14,0,0,0,.49.82,4.33,4.33,0,0,0,1.68.95,10.62,10.62,0,0,0,2,.49A15.35,15.35,0,0,1,163.71,62.38Zm10.56-18.44a3.28,3.28,0,0,1,.89,2.32,3.18,3.18,0,0,1-.89,2.24,3,3,0,0,1-1,.71,3.14,3.14,0,0,1-1.25.22,3,3,0,0,1-2.21-.93,3.24,3.24,0,0,1-.68-1,3.4,3.4,0,0,1,0-2.46,3.25,3.25,0,0,1,.68-1.07A3.14,3.14,0,0,1,172,43a3.17,3.17,0,0,1,2.29.9Zm12.75,27V43.08h5V61.31l2.34-2.6,0,0,6.09-6.88h6.25l-9.81,10.89,9.77,12.75h-5.87l-7.4-9.68L192,67.16v8.27l-4.79.19H187l-.32,0-.26,0q-4.78-.34-6.77-2.15a7.67,7.67,0,0,1-1.82-2.71,7.77,7.77,0,0,1-.54-3.23V43.08h5v24.4a3.16,3.16,0,0,0,.22,1.33,3.25,3.25,0,0,0,.75,1.11,7.07,7.07,0,0,0,3.8,1ZM174.6,75.43h-5V51.71h5ZM141.67,50.3h-4.91L140,45h6.16Zm141,4.57a8.14,8.14,0,0,0-3.47-2.61,11.84,11.84,0,0,0-4.44-.81,11.21,11.21,0,0,0-4.43.79,11.05,11.05,0,0,0-4.11,2.95l2.91,2.67a6.61,6.61,0,0,1,2.64-1.67,7.79,7.79,0,0,1,3.11-.34,5,5,0,0,1,2.68,1,4.13,4.13,0,0,1,1.5,2.51v1.44a12.79,12.79,0,0,0-4.32-1,11,11,0,0,0-4.36.67,7.11,7.11,0,0,0-4.84,7,8.8,8.8,0,0,0,1.27,4.82A7.05,7.05,0,0,0,270,75a12,12,0,0,0,4.46,1,22,22,0,0,0,4.93-.32,27.29,27.29,0,0,0,4.63-1.25V59.26a7.21,7.21,0,0,0-1.36-4.39Zm-3.61,16.36a15.6,15.6,0,0,1-2.87.53,9.24,9.24,0,0,1-2.87-.21,3.5,3.5,0,0,1-2.88-4,2.9,2.9,0,0,1,.3-1.23,3,3,0,0,1,.79-1,4.64,4.64,0,0,1,2.36-.91,9.88,9.88,0,0,1,2.77.07,7.89,7.89,0,0,1,2.39.68v6.08ZM223.66,57.06a6.57,6.57,0,0,0-1-2,8.42,8.42,0,0,0-3.43-2.74,11.62,11.62,0,0,0-4.39-.92,7.71,7.71,0,0,0-1.07.08,11.27,11.27,0,0,0-3.43.84,8,8,0,0,0-2.23,1.44,7.5,7.5,0,0,0-1.22,1.3,7.58,7.58,0,0,0-1.39,4.53v8.27a7.63,7.63,0,0,0,1.39,4.57,8,8,0,0,0,3.45,2.71,11.62,11.62,0,0,0,3.43.87,9.47,9.47,0,0,0,1.07,0,11.25,11.25,0,0,0,4.39-.92,8.21,8.21,0,0,0,3.43-2.71A7.69,7.69,0,0,0,224,67.83V59.56A8.89,8.89,0,0,0,223.66,57.06ZM219,67.83a3.07,3.07,0,0,1-.67,1.92A4.41,4.41,0,0,1,216.77,71a5.42,5.42,0,0,1-2,.39,6.36,6.36,0,0,1-1.07-.1,5.73,5.73,0,0,1-1-.29,4.55,4.55,0,0,1-1.63-1.21,3,3,0,0,1-.64-1.92V59.56a2.88,2.88,0,0,1,.64-1.86,3.81,3.81,0,0,1,1.63-1.07,5.68,5.68,0,0,1,1-.27,6.35,6.35,0,0,1,1.07-.09,5.39,5.39,0,0,1,2,.36,3.62,3.62,0,0,1,1.59,1.07,2.82,2.82,0,0,1,.67,1.86Zm-71.5-13a8.11,8.11,0,0,0-3.48-2.61,11.75,11.75,0,0,0-4.43-.81,11.37,11.37,0,0,0-4.13.68l-.3.11a11,11,0,0,0-4.11,2.95L134,57.86a6.68,6.68,0,0,1,1.5-1.14,7.76,7.76,0,0,1,1.13-.53,7.86,7.86,0,0,1,3.12-.34,5,5,0,0,1,2.68,1,4.13,4.13,0,0,1,1.5,2.51v1.44a12.9,12.9,0,0,0-4.32-1,11,11,0,0,0-4.11.57l-.25.1a7.11,7.11,0,0,0-3.58,2.69,7,7,0,0,0-1.26,4.3,10.64,10.64,0,0,0,.38,2.81h-17l17.9-23.8L130.1,43.1H107.67v5.19h16.89L106.72,72l1.41,3.47h22.93V71.11a8.19,8.19,0,0,0,.91,1.67,6.8,6.8,0,0,0,.84.94A6.71,6.71,0,0,0,134.88,75l.61.26a12.24,12.24,0,0,0,3.84.7,22,22,0,0,0,4.93-.32,27.65,27.65,0,0,0,4.64-1.25V59.26a7.26,7.26,0,0,0-1.37-4.39Zm-3.61,16.36a15.6,15.6,0,0,1-2.87.53,9.15,9.15,0,0,1-2.86-.21A4,4,0,0,1,136,70.28a3.15,3.15,0,0,1-.55-1,5,5,0,0,1-.18-1.71,3.88,3.88,0,0,1,.18-.9,2.66,2.66,0,0,1,.91-1.32,4.64,4.64,0,0,1,2.37-.91,9.9,9.9,0,0,1,2.77.07,7.92,7.92,0,0,1,2.38.68v6.08Z"/><path class="d" d="M63.89,57.23l1,24L47.7,65.75l-2.4-20Z"/><path class="e" d="M78.58,49.52l6.06-3.72-2.39,20L65.1,81.27l.94-24,7.53-4.65-.5,11.79,4.69-3.31Z"/></svg>