<svg xmlns="http://www.w3.org/2000/svg" viewBox="0 0 323.13 120.41"><defs><style>.a{fill:#f79c34;}.a,.b{fill-rule:evenodd;}.b{fill:#333e47;}.c{fill:none;}</style></defs><path class="a" d="M128.89,88c-11.46,8.46-28.07,13-42.37,13A76.69,76.69,0,0,1,34.77,81.2c-1.07-1-.12-2.29,1.17-1.54A104.24,104.24,0,0,0,87.73,93.4a103,103,0,0,0,39.49-8.09C129.16,84.49,130.79,86.59,128.89,88Z"/><path class="a" d="M133.66,82.55c-1.47-1.88-9.69-.89-13.38-.45-1.12.14-1.3-.84-.29-1.55,6.56-4.61,17.31-3.28,18.56-1.73s-.34,12.32-6.48,17.46c-.95.79-1.84.37-1.43-.67C132,92.16,135.12,84.42,133.66,82.55Z"/><path class="b" d="M120.54,48V43.53a1.1,1.1,0,0,1,1.13-1.13h20.06a1.12,1.12,0,0,1,1.16,1.13v3.84c0,.64-.55,1.48-1.51,2.81L131,65a22.28,22.28,0,0,1,11.44,2.46,2,2,0,0,1,1.06,1.74V74c0,.66-.72,1.42-1.48,1a23.13,23.13,0,0,0-21.19,0c-.7.37-1.43-.38-1.43-1V69.48a5.43,5.43,0,0,1,.75-3.07l12-17.27H121.7A1.1,1.1,0,0,1,120.54,48Z"/><path class="b" d="M47.37,76H41.26a1.14,1.14,0,0,1-1.09-1V43.61a1.15,1.15,0,0,1,1.18-1.13H47a1.15,1.15,0,0,1,1.11,1.05v4.09h.11c1.48-3.95,4.27-5.8,8-5.8s6.21,1.85,7.92,5.8a9,9,0,0,1,15.5-2.37c1.93,2.64,1.54,6.46,1.54,9.82V74.84A1.15,1.15,0,0,1,80.06,76H74a1.14,1.14,0,0,1-1.1-1.12V58.23a40.73,40.73,0,0,0-.17-5.86c-.46-2.11-1.82-2.71-3.59-2.71a4.06,4.06,0,0,0-3.65,2.57c-.62,1.59-.56,4.22-.56,6V74.84A1.15,1.15,0,0,1,63.72,76h-6.1a1.14,1.14,0,0,1-1.09-1.12V58.23c0-3.49.57-8.63-3.76-8.63s-4.21,5-4.21,8.63V74.84A1.14,1.14,0,0,1,47.37,76Z"/><path class="b" d="M160.21,48.22c-4.5,0-4.78,6.12-4.78,10s-.06,12,4.73,12,5-6.59,5-10.61a28.86,28.86,0,0,0-.91-8.3A3.81,3.81,0,0,0,160.21,48.22Zm-.05-6.4c9.06,0,14,7.78,14,17.67,0,9.55-5.41,17.13-14,17.13-8.89,0-13.73-7.77-13.73-17.46S151.33,41.82,160.16,41.82Z"/><path class="b" d="M185.86,76h-6.08a1.14,1.14,0,0,1-1.1-1.12V43.51a1.17,1.17,0,0,1,1.18-1h5.66a1.16,1.16,0,0,1,1.08.88v4.79h.12c1.71-4.28,4.1-6.33,8.31-6.33a8,8,0,0,1,7.12,3.69c1.6,2.51,1.6,6.73,1.6,9.76V75a1.16,1.16,0,0,1-1.17,1h-6.12a1.14,1.14,0,0,1-1.08-1V58c0-3.42.4-8.44-3.82-8.44A4,4,0,0,0,188,52a13.83,13.83,0,0,0-1,5.93V74.84A1.17,1.17,0,0,1,185.86,76Z"/><path class="b" d="M110.7,75.89a1.27,1.27,0,0,1-1.44.14,14.88,14.88,0,0,1-3.5-4.07C102.41,75.37,100,76.4,95.7,76.4c-5.14,0-9.14-3.17-9.14-9.51a10.38,10.38,0,0,1,6.51-10c3.31-1.45,7.94-1.71,11.48-2.11V54c0-1.46.11-3.17-.75-4.43A4.08,4.08,0,0,0,100.38,48a4.66,4.66,0,0,0-4.91,3.67,1.28,1.28,0,0,1-1.06,1.12l-5.91-.64a1.07,1.07,0,0,1-.91-1.28c1.34-7.07,7.66-9.28,13.4-9.34h.45c2.94,0,6.7.85,9,3,3,2.77,2.68,6.47,2.68,10.5v9.51c0,2.86,1.19,4.11,2.3,5.65a1.16,1.16,0,0,1,0,1.63c-1.24,1-3.46,3-4.68,4.05ZM104.55,61c0,2.38,0,4.36-1.14,6.47a5,5,0,0,1-4.23,2.77c-2.34,0-3.71-1.78-3.71-4.42,0-5.2,4.66-6.14,9.08-6.14Z"/><path class="b" d="M30.7,75.89a1.27,1.27,0,0,1-1.44.14A14.88,14.88,0,0,1,25.76,72C22.41,75.37,20,76.4,15.7,76.4c-5.14,0-9.14-3.17-9.14-9.51a10.38,10.38,0,0,1,6.51-10C16.38,55.46,21,55.2,24.55,54.8V54c0-1.46.11-3.17-.74-4.43A4.11,4.11,0,0,0,20.38,48a4.64,4.64,0,0,0-4.9,3.67,1.3,1.3,0,0,1-1.07,1.12L8.5,52.14a1.07,1.07,0,0,1-.91-1.28c1.34-7.07,7.66-9.28,13.4-9.34h.46c2.94,0,6.69.85,9,3,3,2.77,2.68,6.47,2.68,10.5v9.51c0,2.86,1.19,4.11,2.3,5.65a1.16,1.16,0,0,1,0,1.63c-1.24,1-3.46,3-4.68,4.05ZM24.55,61c0,2.38.05,4.36-1.15,6.47a4.93,4.93,0,0,1-4.22,2.77c-2.34,0-3.71-1.78-3.71-4.42,0-5.2,4.66-6.14,9.08-6.14Z"/><path class="b" d="M287.16,87.2V84.9c0-.66.32-1.11,1-1.07a14.49,14.49,0,0,0,4.36.1,5.06,5.06,0,0,0,3.58-3.16c1-2.28,1.66-4.13,2.08-5.34L285.49,44c-.21-.53-.28-1.52.79-1.52h4.44a1.38,1.38,0,0,1,1.38,1.06l9.2,25.55,8.79-25.55a1.38,1.38,0,0,1,1.38-1.06h4.18c1.06,0,1,1,.79,1.52L303.85,76.41c-1.63,4.32-3.8,11.2-8.69,12.39a12.89,12.89,0,0,1-7.36-.35A1.43,1.43,0,0,1,287.16,87.2Z"/><path class="b" d="M281.24,74.05a1.07,1.07,0,0,1-1.07,1.06H277a1.23,1.23,0,0,1-1.22-1.06l-.31-2.13a18.68,18.68,0,0,1-5.12,3c-3.68,1.43-7.93,1.67-11.52-.54a9.19,9.19,0,0,1-4-7.94,9.72,9.72,0,0,1,2.47-6.75c2.27-2.45,5.56-3.66,9.53-3.66a30,30,0,0,1,8.34,1.1V52.88c0-4.36-1.84-6.25-6.68-6.25a32.47,32.47,0,0,0-10.46,1.78,1,1,0,0,1-1-1V44.93a1.52,1.52,0,0,1,1-1.33,31.46,31.46,0,0,1,11-2.13c5.52,0,12.08,1.24,12.08,9.73V74.05Zm-6-6.26V61.32a33.71,33.71,0,0,0-6.93-.81c-2.12,0-4.45.5-5.66,1.81A5.32,5.32,0,0,0,261.32,66a4.89,4.89,0,0,0,2,4.31c1.61,1.09,4.12,1,6.47.29A14.18,14.18,0,0,0,275.23,67.79Z"/><path class="b" d="M235.1,46.73c6.94,0,8.83,5.46,8.83,11.71,0,4.21-.73,8-2.92,10.13-1.63,1.61-3.45,2-6.2,2a15,15,0,0,1-8.06-3V49.69A14.37,14.37,0,0,1,235.1,46.73Zm-9.42,41.59h-4.19a1.07,1.07,0,0,1-1.07-1.06V43.58a1.07,1.07,0,0,1,1.07-1.07h3.21a1.23,1.23,0,0,1,1.22,1.07l.34,2.29a16.46,16.46,0,0,1,10.56-4.38c10.32,0,13.72,8.51,13.72,17.35,0,9.47-5.2,17.07-14,17.07a14.69,14.69,0,0,1-9.81-3.73V87.26A1.07,1.07,0,0,1,225.68,88.32Z"/><rect class="c" width="323.13" height="120.41"/></svg>