<?xml version="1.0" encoding="iso-8859-1"?>
<!-- Generator: Adobe Illustrator 23.0.1, SVG Export Plug-In . SVG Version: 6.00 Build 0)  -->
<svg version="1.1" xmlns="http://www.w3.org/2000/svg" xmlns:xlink="http://www.w3.org/1999/xlink" x="0px" y="0px"
	 viewBox="0 0 323.129 120.41" style="enable-background:new 0 0 323.129 120.41;" xml:space="preserve">
<g id="amazon-pay">
	<g>
		<g>
			<path style="fill-rule:evenodd;clip-rule:evenodd;fill:#F79C34;" d="M129.012,87.927c-11.413,8.423-27.959,12.902-42.208,12.902
				c-19.968,0-37.951-7.382-51.559-19.669c-1.067-0.966-0.115-2.283,1.169-1.536c14.681,8.543,32.838,13.689,51.589,13.689
				c12.65,0,26.556-2.626,39.351-8.053C129.283,84.442,130.901,86.531,129.012,87.927z"/>
			<path style="fill-rule:evenodd;clip-rule:evenodd;fill:#F79C34;" d="M133.762,82.503c-1.461-1.869-9.649-0.885-13.329-0.444
				c-1.115,0.135-1.288-0.84-0.283-1.545c6.533-4.589,17.239-3.265,18.483-1.727c1.253,1.548-0.331,12.282-6.451,17.403
				c-0.943,0.787-1.839,0.367-1.421-0.672C132.14,92.077,135.223,84.375,133.762,82.503z"/>
			<path style="fill-rule:evenodd;clip-rule:evenodd;fill:#333E47;" d="M120.692,48.097v-4.458c0.004-0.679,0.514-1.13,1.13-1.129
				l19.984-0.002c0.639,0,1.153,0.464,1.153,1.125v3.823c-0.007,0.642-0.548,1.478-1.505,2.806l-10.352,14.781
				c3.842-0.089,7.906,0.486,11.399,2.448c0.787,0.443,0.999,1.099,1.06,1.741v4.757c0,0.656-0.717,1.414-1.473,1.02
				c-6.15-3.223-14.312-3.574-21.114,0.038c-0.695,0.371-1.421-0.378-1.421-1.034v-4.523c0-0.723,0.014-1.961,0.744-3.064
				l11.992-17.206l-10.442-0.002C121.209,49.22,120.696,48.765,120.692,48.097z"/>
			<path style="fill-rule:evenodd;clip-rule:evenodd;fill:#333E47;" d="M47.797,75.946h-6.08c-0.579-0.037-1.041-0.471-1.088-1.027
				l0.005-31.204c0-0.623,0.525-1.122,1.174-1.122l5.662-0.002c0.591,0.03,1.067,0.478,1.104,1.048v4.073h0.115
				c1.475-3.94,4.255-5.779,8.001-5.779c3.802,0,6.187,1.839,7.889,5.779c1.475-3.94,4.824-5.779,8.398-5.779
				c2.554,0,5.335,1.052,7.037,3.415c1.93,2.628,1.534,6.435,1.534,9.784l-0.007,19.692c0,0.621-0.523,1.121-1.172,1.121h-6.071
				c-0.612-0.038-1.092-0.521-1.092-1.12l-0.002-16.543c0-1.312,0.114-4.594-0.171-5.842c-0.453-2.103-1.814-2.694-3.573-2.694
				c-1.477,0-3.009,0.985-3.634,2.56c-0.625,1.578-0.567,4.203-0.567,5.977v16.541c0,0.621-0.525,1.121-1.172,1.121h-6.073
				c-0.611-0.038-1.092-0.521-1.092-1.12l-0.007-16.543c0-3.48,0.569-8.599-3.744-8.599c-4.371,0-4.199,4.988-4.199,8.599
				l-0.004,16.541C48.969,75.445,48.444,75.946,47.797,75.946z"/>
			<path style="fill-rule:evenodd;clip-rule:evenodd;fill:#333E47;" d="M160.218,48.303c-4.482,0-4.766,6.104-4.766,9.913
				c0,3.809-0.056,11.952,4.712,11.952c4.71,0,4.937-6.566,4.937-10.571c0-2.626-0.115-5.779-0.91-8.274
				C163.511,49.155,162.148,48.303,160.218,48.303z M160.164,41.933c9.023,0,13.902,7.751,13.902,17.599
				c0,9.518-5.391,17.071-13.902,17.071c-8.855,0-13.678-7.749-13.678-17.4C146.485,49.484,151.365,41.933,160.164,41.933z"/>
			<path style="fill-rule:evenodd;clip-rule:evenodd;fill:#333E47;" d="M185.769,75.946h-6.059c-0.607-0.038-1.09-0.521-1.09-1.12
				l-0.01-31.215c0.052-0.572,0.556-1.018,1.169-1.018l5.639-0.002c0.532,0.028,0.969,0.388,1.081,0.873v4.773h0.114
				c1.704-4.269,4.085-6.304,8.284-6.304c2.724,0,5.392,0.985,7.095,3.678c1.589,2.495,1.589,6.696,1.589,9.717v19.636
				c-0.066,0.553-0.563,0.982-1.165,0.982h-6.094c-0.563-0.035-1.017-0.45-1.083-0.982V58.023c0-3.415,0.399-8.407-3.802-8.407
				c-1.475,0-2.838,0.985-3.518,2.495c-0.852,1.905-0.966,3.809-0.966,5.912v16.802C186.942,75.445,186.417,75.946,185.769,75.946z"
				/>
			<path style="fill-rule:evenodd;clip-rule:evenodd;fill:#333E47;" d="M110.889,75.869c-0.401,0.36-0.98,0.385-1.435,0.142
				c-2.019-1.678-2.381-2.453-3.485-4.052c-3.337,3.399-5.7,4.42-10.024,4.42c-5.118,0-9.1-3.16-9.1-9.476
				c0-4.936,2.675-8.291,6.484-9.936c3.298-1.449,7.905-1.711,11.432-2.107V54.07c0-1.45,0.114-3.158-0.74-4.409
				c-0.74-1.12-2.161-1.58-3.412-1.58c-2.32,0-4.379,1.188-4.887,3.65c-0.107,0.548-0.506,1.092-1.055,1.12l-5.894-0.639
				c-0.497-0.114-1.05-0.513-0.908-1.272c1.338-7.049,7.634-9.247,13.355-9.306h0.451c2.929,0.037,6.67,0.84,8.948,3.025
				c2.959,2.764,2.672,6.449,2.672,10.464v9.471c0,2.85,1.184,4.099,2.295,5.634c0.39,0.555,0.476,1.211-0.019,1.617
				c-1.242,1.041-3.448,2.957-4.661,4.038L110.889,75.869z M104.762,61.046c0,2.369,0.056,4.343-1.137,6.449
				c-0.968,1.709-2.504,2.763-4.21,2.763c-2.33,0-3.695-1.776-3.695-4.409c0-5.179,4.643-6.12,9.042-6.12V61.046z"/>
			<path style="fill-rule:evenodd;clip-rule:evenodd;fill:#333E47;" d="M31.193,75.869c-0.402,0.36-0.983,0.385-1.436,0.142
				c-2.021-1.678-2.383-2.453-3.485-4.052c-3.338,3.399-5.7,4.42-10.024,4.42c-5.118,0-9.1-3.16-9.1-9.476
				c0-4.936,2.672-8.291,6.484-9.936c3.298-1.449,7.905-1.711,11.43-2.107V54.07c0-1.45,0.115-3.158-0.738-4.409
				c-0.74-1.12-2.163-1.58-3.412-1.58c-2.32,0-4.383,1.188-4.887,3.65c-0.105,0.548-0.506,1.092-1.057,1.12l-5.893-0.639
				c-0.499-0.114-1.052-0.513-0.908-1.272c1.335-7.049,7.632-9.247,13.355-9.306h0.451c2.929,0.037,6.67,0.84,8.948,3.025
				c2.957,2.764,2.672,6.449,2.672,10.464v9.471c0,2.85,1.184,4.099,2.295,5.634c0.387,0.555,0.476,1.211-0.019,1.617
				c-1.242,1.041-3.45,2.957-4.663,4.038L31.193,75.869z M25.062,61.046c0,2.369,0.058,4.343-1.137,6.449
				c-0.966,1.709-2.502,2.763-4.21,2.763c-2.33,0-3.695-1.776-3.695-4.409c0-5.179,4.645-6.12,9.042-6.12V61.046z"/>
			<path style="fill-rule:evenodd;clip-rule:evenodd;fill:#333E47;" d="M286.689,87.14c0-0.791,0-1.501,0-2.292
				c0-0.653,0.32-1.102,1.001-1.062c1.27,0.18,3.067,0.36,4.343,0.098c1.666-0.346,2.861-1.527,3.567-3.146
				c0.996-2.278,1.655-4.115,2.072-5.321l-12.648-31.332c-0.213-0.532-0.276-1.519,0.786-1.519h4.421
				c0.843,0,1.186,0.535,1.375,1.06l9.17,25.45l8.753-25.45c0.178-0.521,0.537-1.06,1.373-1.06h4.169
				c1.055,0,0.996,0.985,0.786,1.519l-12.546,32.31c-1.624,4.301-3.786,11.15-8.657,12.34c-2.442,0.639-5.524,0.408-7.333-0.35
				C286.864,88.156,286.689,87.544,286.689,87.14z"/>
			<path style="fill-rule:evenodd;clip-rule:evenodd;fill:#333E47;" d="M280.791,74.037c0,0.583-0.478,1.06-1.064,1.06h-3.118
				c-0.674,0-1.134-0.486-1.219-1.06l-0.313-2.122c-1.433,1.212-3.191,2.278-5.098,3.02c-3.667,1.424-7.894,1.66-11.477-0.541
				c-2.591-1.59-3.966-4.699-3.966-7.907c0-2.481,0.765-4.941,2.46-6.727c2.262-2.441,5.541-3.639,9.5-3.639
				c2.392,0,5.814,0.282,8.304,1.095v-4.271c0-4.343-1.828-6.222-6.649-6.222c-3.685,0-6.503,0.556-10.426,1.776
				c-0.628,0.021-0.996-0.457-0.996-1.039v-2.435c0-0.584,0.499-1.149,1.039-1.321c2.801-1.221,6.769-1.982,10.988-2.122
				c5.499,0,12.036,1.24,12.036,9.698V74.037z M274.798,67.801v-6.444c-2.093-0.572-5.555-0.81-6.895-0.81
				c-2.117,0-4.435,0.5-5.646,1.804c-0.905,0.955-1.314,2.327-1.314,3.653c0,1.715,0.593,3.434,1.979,4.285
				c1.61,1.094,4.106,0.961,6.453,0.294C271.63,69.943,273.747,68.811,274.798,67.801z"/>
			<path style="fill-rule:evenodd;clip-rule:evenodd;fill:#333E47;" d="M234.82,46.82c6.918,0,8.802,5.44,8.802,11.668
				c0.038,4.199-0.733,7.943-2.908,10.087c-1.627,1.604-3.445,2.042-6.181,2.042c-2.435,0-5.639-1.27-8.032-3.039V49.768
				C228.992,47.854,232.171,46.82,234.82,46.82z M225.44,88.258h-4.176c-0.584,0-1.062-0.478-1.062-1.06c0-14.504,0-29.01,0-43.515
				c0-0.583,0.478-1.06,1.062-1.06h3.197c0.672,0,1.132,0.486,1.218,1.06l0.336,2.28c2.994-2.658,6.848-4.362,10.52-4.362
				c10.286,0,13.668,8.475,13.668,17.288c0,9.429-5.174,17.004-13.923,17.004c-3.685,0-7.13-1.359-9.779-3.721v15.026
				C226.5,87.78,226.023,88.258,225.44,88.258z"/>
		</g>
	</g>
</g>
<g id="Ebene_1">
</g>
</svg>
