<?xml version="1.0" encoding="iso-8859-1"?>
<!-- Generator: Adobe Illustrator 23.0.1, SVG Export Plug-In . SVG Version: 6.00 Build 0)  -->
<svg version="1.1" xmlns="http://www.w3.org/2000/svg" xmlns:xlink="http://www.w3.org/1999/xlink" x="0px" y="0px"
	 viewBox="0 0 323.129 120.41" style="enable-background:new 0 0 323.129 120.41;" xml:space="preserve">
<g id="apple-pay">
	<g id="XMLID_34_">
		<g id="XMLID_44_">
			<path id="XMLID_46_" d="M97.928,32.585c2.287-2.86,3.838-6.7,3.429-10.624c-3.347,0.167-7.432,2.208-9.797,5.071
				c-2.123,2.451-4.003,6.452-3.513,10.212C91.805,37.569,95.559,35.365,97.928,32.585"/>
			<path id="XMLID_45_" d="M101.314,37.977c-5.457-0.325-10.096,3.097-12.702,3.097c-2.607,0-6.598-2.933-10.914-2.854
				c-5.618,0.082-10.83,3.259-13.681,8.31c-5.863,10.106-1.547,25.096,4.154,33.327c2.769,4.072,6.106,8.556,10.503,8.394
				c4.154-0.163,5.783-2.69,10.833-2.69c5.046,0,6.513,2.69,10.911,2.608c4.561-0.081,7.412-4.074,10.181-8.15
				c3.176-4.642,4.477-9.124,4.558-9.37c-0.082-0.081-8.794-3.424-8.875-13.446c-0.082-8.391,6.84-12.383,7.166-12.63
				C109.539,38.793,103.432,38.141,101.314,37.977"/>
		</g>
		<g id="XMLID_35_">
			<path id="XMLID_41_" d="M155.721,26.621c11.86,0,20.12,8.175,20.12,20.078c0,11.945-8.429,20.163-20.416,20.163h-13.132v20.882
				h-9.488V26.621H155.721z M142.293,58.899h10.886c8.26,0,12.961-4.447,12.961-12.157c0-7.709-4.701-12.114-12.919-12.114h-10.929
				V58.899z"/>
			<path id="XMLID_38_" d="M178.194,75.08c0-7.837,5.973-12.327,16.985-13.004l11.818-0.721v-3.388c0-4.956-3.262-7.667-9.064-7.667
				c-4.787,0-8.26,2.457-8.98,6.227h-8.557c0.255-7.921,7.71-13.681,17.791-13.681c10.844,0,17.918,5.676,17.918,14.486v30.413
				h-8.768v-7.327h-0.212c-2.499,4.786-8.006,7.793-13.979,7.793C184.336,88.21,178.194,82.958,178.194,75.08z M206.997,71.141
				v-3.432l-10.547,0.678c-5.93,0.381-9.022,2.584-9.022,6.438c0,3.727,3.219,6.143,8.259,6.143
				C202.126,80.968,206.997,76.858,206.997,71.141z"/>
			<path id="XMLID_36_" d="M224.166,104.095v-7.327c0.593,0.083,2.033,0.168,2.795,0.168c4.194,0,6.566-1.778,8.006-6.353
				l0.847-2.711L219.76,43.396h9.911l11.183,36.088h0.212l11.183-36.088h9.658L245.26,90.117
				c-3.812,10.716-8.175,14.233-17.41,14.233C227.131,104.35,224.801,104.265,224.166,104.095z"/>
		</g>
	</g>
</g>
<g id="Ebene_1">
</g>
</svg>
