<svg xmlns="http://www.w3.org/2000/svg" viewBox="0 0 323.13 120.41"><defs><style>.a{fill:none;}</style></defs><path d="M95.91,30.67a15.39,15.39,0,0,0,3.54-11,15.22,15.22,0,0,0-10.11,5.23c-2.19,2.53-4.13,6.65-3.62,10.53,3.87.34,7.75-1.94,10.19-4.8"/><path d="M99.41,36.23C93.78,35.89,89,39.42,86.3,39.42s-6.81-3-11.26-2.94a16.58,16.58,0,0,0-14.11,8.57c-6,10.43-1.6,25.89,4.28,34.39,2.86,4.2,6.3,8.82,10.84,8.66,4.28-.17,6-2.78,11.17-2.78S93.94,88.1,98.48,88c4.71-.08,7.65-4.2,10.5-8.41a37.68,37.68,0,0,0,4.71-9.66c-.09-.09-9.08-3.54-9.16-13.88-.08-8.65,7.06-12.77,7.39-13-4-6-10.33-6.63-12.51-6.8"/><path d="M155.54,24.51c12.23,0,20.75,8.44,20.75,20.72S167.6,66,155.23,66H141.68V87.57h-9.79V24.51Zm-13.86,33.3h11.23c8.53,0,13.38-4.58,13.38-12.54s-4.85-12.5-13.33-12.5H141.68v25Z"/><path d="M178.72,74.51c0-8.09,6.16-12.72,17.52-13.42l12.2-.74v-3.5c0-5.11-3.37-7.91-9.35-7.91-4.94,0-8.53,2.54-9.27,6.43H181c.27-8.18,8-14.12,18.36-14.12,11.19,0,18.48,5.86,18.48,15V87.57h-9V80h-.22c-2.58,4.94-8.26,8-14.42,8C185.06,88.05,178.72,82.64,178.72,74.51Zm29.72-4.07V66.9l-10.88.7c-6.12.4-9.31,2.67-9.31,6.64s3.32,6.34,8.52,6.34C203.41,80.58,208.44,76.34,208.44,70.44Z"/><path d="M226.15,104.44V96.88a27.61,27.61,0,0,0,2.88.18c4.33,0,6.78-1.84,8.26-6.56l.88-2.8L221.6,41.82h10.23l11.54,37.23h.22l11.53-37.23h10L247.91,90c-3.93,11.06-8.43,14.69-18,14.69A26.15,26.15,0,0,1,226.15,104.44Z"/><rect class="a" width="323.13" height="120.41"/></svg>