<svg xmlns="http://www.w3.org/2000/svg" viewBox="0 0 323.13 120.41"><defs><style>.a{fill:#1f3a6a;}.b{fill:#5dc4e9;}.c{fill:none;}</style></defs><polygon class="a" points="44.67 43.91 40.35 43.91 40.35 45.06 43.75 45.06 52.22 79.86 8.54 79.86 17 45.06 20.4 45.06 20.4 43.91 16.07 43.91 6.56 81.41 54.19 81.41 44.67 43.91"/><path class="b" d="M38.71,28.72H22a1.85,1.85,0,0,0-1.84,1.84V46.91h1.55V30.56a.3.3,0,0,1,.29-.29h3.35V42.15H22.28l4.46,4.76H34l4.46-4.76H35.36V30.27h3.35a.3.3,0,0,1,.29.29V46.91h1.55V30.56A1.85,1.85,0,0,0,38.71,28.72Z"/><path class="a" d="M26.87,67.1h7a.79.79,0,0,0,.79-.84l-.26-4.59a.91.91,0,0,0-.9-.85H27.24a.92.92,0,0,0-.9.85l-.26,4.59A.79.79,0,0,0,26.87,67.1Z"/><path class="a" d="M23.38,60.82H17.05a1.09,1.09,0,0,0-1,.83l-.93,4.62a.67.67,0,0,0,.68.83h7.05a.94.94,0,0,0,.92-.84l.39-4.59A.77.77,0,0,0,23.38,60.82Z"/><path class="a" d="M27.16,59H33.6a.62.62,0,0,0,.63-.68L34,54.65A.73.73,0,0,0,33.3,54H27.45a.73.73,0,0,0-.72.67l-.21,3.67A.63.63,0,0,0,27.16,59Z"/><path class="a" d="M24.16,54H18.25a.84.84,0,0,0-.81.66l-.75,3.7a.54.54,0,0,0,.55.66h6.49a.75.75,0,0,0,.74-.68l.31-3.67A.6.6,0,0,0,24.16,54Z"/><path class="a" d="M43.5,59a.53.53,0,0,0,.54-.66l-.75-3.7a.84.84,0,0,0-.81-.66H36.59a.61.61,0,0,0-.62.67l.31,3.67A.75.75,0,0,0,37,59Z"/><path class="a" d="M27.44,52.37h5.87a.55.55,0,0,0,.56-.59l-.16-2.84a.64.64,0,0,0-.63-.59H27.67a.65.65,0,0,0-.63.59l-.16,2.84A.55.55,0,0,0,27.44,52.37Z"/><path class="a" d="M42.26,52.37a.46.46,0,0,0,.47-.58l-.58-2.86a.75.75,0,0,0-.71-.58H36a.53.53,0,0,0-.54.59l.24,2.84a.67.67,0,0,0,.64.59Z"/><path class="a" d="M24.76,48.35H19.28a.77.77,0,0,0-.71.58L18,51.79a.46.46,0,0,0,.47.58h6a.67.67,0,0,0,.64-.59l.24-2.84A.53.53,0,0,0,24.76,48.35Z"/><path class="a" d="M45,67.1a.66.66,0,0,0,.68-.83l-.93-4.62a1.09,1.09,0,0,0-1-.83H37.37a.77.77,0,0,0-.77.85L37,66.26a.94.94,0,0,0,.92.84Z"/><path class="a" d="M33.81,69.18H26.94a1.1,1.1,0,0,0-1.07,1L25.53,76a1,1,0,0,0,1,1h7.78a.93.93,0,0,0,.95-1l-.34-5.82A1.09,1.09,0,0,0,33.81,69.18Z"/><path class="a" d="M22.46,69.18H15.55a1.29,1.29,0,0,0-1.21,1L13.16,76A.8.8,0,0,0,14,77h7.82a1.12,1.12,0,0,0,1.1-1l.5-5.82A.92.92,0,0,0,22.46,69.18Z"/><path class="a" d="M46.41,70.18a1.3,1.3,0,0,0-1.22-1h-6.9a.92.92,0,0,0-.93,1l.5,5.82A1.12,1.12,0,0,0,39,77h7.82a.8.8,0,0,0,.81-1Z"/><path class="a" d="M133.58,43.91H127v37.5h6.59Zm-21.43,19A15.11,15.11,0,0,1,110,71a9.76,9.76,0,0,1-15.43,2.47c-2.64-2.62-3.41-6.81-3.41-10.82,0-5.66,1.68-8.84,4.36-11.29a8.43,8.43,0,0,1,5.87-2.4,10.31,10.31,0,0,1,6.22,2.3c4.78,4,4.56,11.32,4.56,11.69m3.37,29c2.79-3.69,3-7.52,3.21-15.38l-.08-32.62h-6.28V49.7a15.78,15.78,0,0,0-3-3.53,13.33,13.33,0,0,0-9-3,15.23,15.23,0,0,0-12.6,6.7c-2.94,4-3.72,8.9-3.72,13a25.8,25.8,0,0,0,1.12,7.91,17.4,17.4,0,0,0,5.25,8.25,14,14,0,0,0,10,3.12,15.69,15.69,0,0,0,9-3.25,13.48,13.48,0,0,0,2.52-2.83l0,5.14a17.75,17.75,0,0,1-.87,5,8.12,8.12,0,0,1-1.68,2.84c-1.8,2.09-4.11,3.17-8.53,3.33a29.84,29.84,0,0,1-9.54-1.6A22.19,22.19,0,0,1,87.48,89l-.69,6.53c1,.42,1.83.71,2.95,1.1a36.46,36.46,0,0,0,10.57,1.58A21.62,21.62,0,0,0,111,95.83a13.6,13.6,0,0,0,4.49-3.92m11-56.92h7.22v-7.4h-7.22Zm31.52,14.49a12.82,12.82,0,0,1,4.55.89V43.79c-.33,0-2.36-.32-4-.32a10.94,10.94,0,0,0-8.83,3.85,25.37,25.37,0,0,0-1.83,2.84l-.34-6.25h-6.31c.2,4.7.37,8,.37,12.61,0,5.43-.1,9.26-.1,14.64V81.4h6.81V63.05c.2-3.56.41-8.26,4.06-11.46a8.22,8.22,0,0,1,5.66-2.11M192.55,62.3c0,4.1-1.28,10.1-6.31,12.94a10.85,10.85,0,0,1-9.74.3,14.26,14.26,0,0,1-1.84-1.19,12.14,12.14,0,0,1-3.56-4.93,17.26,17.26,0,0,1-1.25-7.25c.12-5.2,2.29-8.89,4.55-10.79a11.14,11.14,0,0,1,7.36-2.68c5.81.07,8.38,4,9.65,7.1a19.11,19.11,0,0,1,1.14,6.5m1.46,15c4.34-4.37,5.58-10.31,5.52-15.11-.2-9.21-5-14.71-9.6-17.11a18.22,18.22,0,0,0-8.17-1.8c-8.41,0-13.81,4.36-16.4,8.84a22.45,22.45,0,0,0-2.6,10.67c-.07,7.53,2.6,12,5.81,15.08A18.72,18.72,0,0,0,171,79.6c2.1,1.37,5.12,2.52,10.08,2.52A18.77,18.77,0,0,0,189,80.66a16.63,16.63,0,0,0,5-3.38"/><path class="a" d="M205.34,51.88c.2,7.25.2,12.4.2,19.69,0,9.09-.15,18.18-.2,27.25H212V76.34a19.53,19.53,0,0,0,2.12,2.38,13.71,13.71,0,0,0,9.24,3.41A16,16,0,0,0,235.24,77c5.6-6,5.13-14.15,5.13-15.37a24.47,24.47,0,0,0-1.5-8.22C237.07,48.76,232.8,43,224,43a14.4,14.4,0,0,0-10,3.86,14.08,14.08,0,0,0-2.31,2.74l-.29-5.73H205C205.21,46.9,205.24,48.92,205.34,51.88Zm6.58,10.46a18.55,18.55,0,0,1,.77-5.23c1.75-5.3,5.72-8.19,10.14-8.19A10,10,0,0,1,232,55.09a16.31,16.31,0,0,1,1.39,7.68,17.31,17.31,0,0,1-1,5.78c-2.44,7-8,7.65-9.81,7.65-4.26,0-8.17-2.86-9.86-8A19.66,19.66,0,0,1,211.92,62.34Z"/><path class="a" d="M309.46,43.91,301.1,64.2,297.32,74l-.26.53c-.95-2.81-2.26-6.32-3.46-9.66l-7.75-21h-7.2L293.71,81.4l-7.33,17.42h6.71l23.47-54.91Z"/><path class="a" d="M273.73,48.77c-2-3.28-7-5.58-12.89-5.58-7.15,0-10.77,2.56-11.76,3.17v5.89c1.51-.9,5.84-3.55,10.5-3.55s8.12,2.62,9.06,5.06a15.58,15.58,0,0,1,.68,5c-1.74-.08-3.59-.16-5.39-.16-3.7,0-8.89.16-12.59,2-2.88,1.38-6.81,4-6.81,10a11.41,11.41,0,0,0,3.78,8.71,13.15,13.15,0,0,0,7.79,2.65,17.1,17.1,0,0,0,9.8-2.5,25.82,25.82,0,0,0,4-4v6h5.72V57.2C275.6,53.45,274.73,50.28,273.73,48.77Zm-4.25,15.74a17,17,0,0,1-.57,5.07,9.78,9.78,0,0,1-1.68,3.2,10.58,10.58,0,0,1-8.49,4c-3.08,0-7.18-1.61-7.18-6s5.1-6.68,7.93-7.15a29,29,0,0,1,4.95-.31c1.68,0,3.36.05,5,.2v1Z"/><rect class="c" width="323.13" height="120.41"/></svg>