<?xml version="1.0" encoding="iso-8859-1"?>
<!-- Generator: Adobe Illustrator 23.0.1, SVG Export Plug-In . SVG Version: 6.00 Build 0)  -->
<svg version="1.1" xmlns="http://www.w3.org/2000/svg" xmlns:xlink="http://www.w3.org/1999/xlink" x="0px" y="0px"
	 viewBox="0 0 323.129 120.41" style="enable-background:new 0 0 323.129 120.41;" xml:space="preserve">
<g id="google-pay">
	<g id="Page-1">
		<g id="GooglePay_mark_800_gray">
			<g id="GPay-logo" transform="translate(48.759036, 76.981132)">
				<g id="Pay" transform="translate(143.569904, 7.624798)">
					<path id="Shape" style="fill:#3C4043;" d="M-36.42-22.349V2.375h-7.725v-61.03h20.487c4.942-0.097,9.74,1.801,13.242,5.305
						c7.005,6.619,7.437,17.764,0.864,24.918c-0.288,0.292-0.576,0.584-0.864,0.876c-3.598,3.455-8.012,5.207-13.242,5.207H-36.42z
						 M-36.42-51.16v21.317h12.954c2.879,0.097,5.661-1.071,7.629-3.163c4.03-4.234,3.934-11.048-0.24-15.136
						c-1.967-1.947-4.606-3.017-7.389-3.017H-36.42z"/>
					<path style="fill:#3C4043;" d="M12.95-40.745c5.709,0,10.219,1.557,13.53,4.623c3.311,3.066,4.942,7.349,4.942,12.751V2.375
						h-7.389v-5.792h-0.336c-3.215,4.769-7.437,7.154-12.762,7.154c-4.51,0-8.348-1.363-11.371-4.088
						c-2.975-2.531-4.654-6.278-4.558-10.22c0-4.331,1.631-7.738,4.846-10.318c3.215-2.579,7.533-3.845,12.906-3.845
						c4.606,0,8.348,0.876,11.323,2.531v-1.801c0-2.677-1.151-5.207-3.167-6.96c-2.063-1.849-4.702-2.871-7.437-2.871
						c-4.318,0-7.725,1.849-10.219,5.548l-6.813-4.331C0.092-38.02,5.609-40.745,12.95-40.745z M2.97-10.425
						c0,2.044,0.96,3.942,2.543,5.11C7.24-3.952,9.351-3.222,11.51-3.271c3.263,0,6.381-1.314,8.684-3.65
						c2.543-2.433,3.838-5.305,3.838-8.614c-2.399-1.947-5.757-2.92-10.075-2.871c-3.119,0-5.757,0.779-7.868,2.287
						C4.026-14.611,2.97-12.713,2.97-10.425z"/>
					<polygon id="Path" style="fill-rule:evenodd;clip-rule:evenodd;fill:#3C4043;" points="73.835,-39.383 48.022,20.722 
						40.058,20.722 49.653,-0.302 32.717,-39.383 41.113,-39.383 53.348,-9.403 53.492,-9.403 65.438,-39.383 					"/>
				</g>
				<g id="Super-G">
					<path style="fill-rule:evenodd;clip-rule:evenodd;fill:#4285F4;" d="M75.916-20.078c0-2.385-0.192-4.769-0.576-7.106H42.763
						v13.481h18.664c-0.768,4.331-3.263,8.225-6.909,10.658v8.76h11.131C72.173-0.367,75.916-9.371,75.916-20.078z"/>
					<path style="fill-rule:evenodd;clip-rule:evenodd;fill:#34A853;" d="M42.763,14.185c9.308,0,17.176-3.115,22.886-8.468
						l-11.131-8.76c-3.119,2.141-7.101,3.358-11.755,3.358c-9.02,0-16.649-6.181-19.383-14.454H11.912v9.052
						C17.766,6.739,29.712,14.185,42.763,14.185z"/>
					<path style="fill-rule:evenodd;clip-rule:evenodd;fill:#FBBC04;" d="M23.379-14.14c-1.439-4.331-1.439-9.052,0-13.432v-9.004
						H11.912c-4.942,9.88-4.942,21.56,0,31.44L23.379-14.14z"/>
					<path style="fill-rule:evenodd;clip-rule:evenodd;fill:#EA4335;" d="M42.763-42.027c4.942-0.097,9.692,1.801,13.242,5.256
						l9.884-10.026c-6.285-5.938-14.537-9.198-23.126-9.101c-13.05,0-24.997,7.495-30.85,19.321l11.467,9.052
						C26.114-35.846,33.743-42.027,42.763-42.027z"/>
				</g>
			</g>
		</g>
	</g>
</g>
<g id="Ebene_1">
</g>
</svg>
