<?xml version="1.0" encoding="iso-8859-1"?>
<!-- Generator: Adobe Illustrator 23.0.1, SVG Export Plug-In . SVG Version: 6.00 Build 0)  -->
<svg version="1.1" xmlns="http://www.w3.org/2000/svg" xmlns:xlink="http://www.w3.org/1999/xlink" x="0px" y="0px"
	 viewBox="0 0 323.129 120.41" style="enable-background:new 0 0 323.129 120.41;" xml:space="preserve">
<g id="klarna">
	<g id="Badges_1_">
		<g id="Logo_1_" transform="translate(-25.000000, -122.000000)">
			<g transform="translate(25.000000, 122.000000)">
				<g transform="translate(20.000000, 44.000000)">
					<path id="Shape_2_" style="fill:#EB6F93;" d="M133.967-2.174h-8.636c0,7.055-3.253,13.492-8.907,17.733l-3.408,2.544
						l13.244,17.964h10.882l-12.199-16.538C130.714,13.824,133.967,6.114,133.967-2.174z"/>
					<rect id="Rectangle-path_1_" x="103.102" y="-2.174" style="fill:#EB6F93;" width="8.83" height="38.241"/>
					<rect x="139.698" y="-2.174" style="fill:#EB6F93;" width="8.326" height="38.241"/>
					<path style="fill:#EB6F93;" d="M221.062,8.89c-3.176,0-6.196,0.964-8.21,3.701V9.622h-7.9v26.445h8.016V22.189
						c0-4.009,2.711-5.975,5.964-5.975c3.485,0,5.499,2.082,5.499,5.937v13.955h7.939V19.26
						C232.37,13.092,227.451,8.89,221.062,8.89z"/>
					<path style="fill:#EB6F93;" d="M173.196,9.622v1.696c-2.246-1.542-4.957-2.429-7.9-2.429c-7.745,0-14.019,6.245-14.019,13.955
						S157.551,36.8,165.296,36.8c2.943,0,5.654-0.887,7.9-2.429v1.696h7.939V9.622H173.196z M165.954,29.629
						c-3.989,0-7.203-3.045-7.203-6.785s3.214-6.785,7.203-6.785s7.203,3.045,7.203,6.785S169.943,29.629,165.954,29.629z"/>
					<path style="fill:#EB6F93;" d="M193.45,13.053V9.622h-8.132v26.445h8.171V23.731c0-4.163,4.531-6.399,7.668-6.399
						c0.039,0,0.077,0,0.077,0v-7.71C198.02,9.622,195.038,11.01,193.45,13.053z"/>
					<path style="fill:#EB6F93;" d="M257.077,9.622v1.696c-2.246-1.542-4.957-2.429-7.9-2.429c-7.745,0-14.019,6.245-14.019,13.955
						S241.432,36.8,249.177,36.8c2.943,0,5.654-0.887,7.9-2.429v1.696h7.939V9.622H257.077z M249.835,29.629
						c-3.989,0-7.203-3.045-7.203-6.785s3.214-6.785,7.203-6.785s7.203,3.045,7.203,6.785
						C257.077,26.584,253.824,29.629,249.835,29.629z"/>
					<path style="fill:#EB6F93;" d="M273.497,26.7c-2.75,0-4.996,2.236-4.996,4.973s2.246,4.973,4.996,4.973
						s4.996-2.236,4.996-4.973C278.492,28.897,276.246,26.7,273.497,26.7z"/>
				</g>
				<g transform="translate(36.000000, 5.000000)">
					<path id="_Path__2_" style="fill:#EB6F93;" d="M11.37,73.491c1.77,1.741,1.808,4.582,0.085,6.37l-0.346,0.363
						c-1.725,1.764-4.577,1.807-6.371,0.08l-10.03-9.938c-2.761-2.772-3.158-6.189-1.4-7.994l0.352-0.369
						c1.448-1.491,3.809-1.648,5.456-0.352c0.783,0.616,1.918,0.481,2.534-0.301s0.482-1.916-0.301-2.532
						c-3.1-2.439-7.543-2.143-10.291,0.686l-0.351,0.368c-3.255,3.343-2.601,8.979,1.451,13.047l10.057,9.964
						c3.241,3.12,8.365,3.042,11.491-0.156l0.355-0.372c3.089-3.204,3.021-8.307-0.159-11.435c-0.71-0.699-1.853-0.69-2.552,0.02
						C10.651,71.65,10.66,72.792,11.37,73.491z"/>
					<path id="_Path_2_1_" style="fill:#EB6F93;" d="M5.367,19.616l4.105,33.759c0.12,0.989,1.02,1.693,2.009,1.573
						c0.989-0.12,1.694-1.019,1.574-2.008L8.937,19.077l-0.041-0.22c-0.702-2.807,1.044-5.956,3.37-6.451
						c1.304-0.278,2.665-0.022,3.777,0.712s1.884,1.882,2.141,3.189l7.147,30.54c0.227,0.97,1.198,1.572,2.168,1.345
						c0.97-0.227,1.573-1.197,1.346-2.167l-7.134-30.477c-0.43-2.193-1.762-4.175-3.682-5.441s-4.268-1.708-6.518-1.228
						C7.138,9.811,4.264,14.937,5.367,19.616z"/>
					<path id="_Path_3_1_" style="fill:#EB6F93;" d="M43.093,59.285l8.117-40.467c0.943-4.356-1.647-8.729-5.949-10.007
						c-4.816-1.218-9.643,1.619-10.9,6.345l-8.986,30.791c-0.279,0.956,0.27,1.957,1.227,2.236c0.957,0.279,1.959-0.27,2.238-1.226
						l8.998-30.833c0.761-2.859,3.639-4.55,6.467-3.836c2.421,0.721,3.922,3.255,3.372,5.794l-8.122,40.494
						c-0.196,0.976,0.438,1.927,1.415,2.122C41.946,60.895,42.897,60.262,43.093,59.285z"/>
					<path style="fill:#EB6F93;" d="M22.65,98.272c-12.866,0-23.612-9.438-23.612-22.849c0-0.996-0.808-1.803-1.805-1.803
						s-1.805,0.807-1.805,1.803c0,15.514,12.458,26.456,27.222,26.456c0.997,0,1.805-0.807,1.805-1.803S23.647,98.272,22.65,98.272z
						"/>
					<path id="_Path_4_1_" style="fill:#EB6F93;" d="M16.286,66.728c-0.281,1.011-0.909,1.89-1.774,2.484l-0.386,0.257
						c-2.076,1.395-4.881,0.854-6.284-1.207l-7.89-11.742c-2.153-3.266-1.871-6.703,0.201-8.124l0.386-0.257
						c2.658-1.539,4.916-0.371,7.237,3.008l6.598,9.822c0.555,0.827,1.677,1.047,2.504,0.492c0.828-0.555,1.048-1.675,0.493-2.502
						l-6.608-9.837C7.499,44.37,3.455,42.279-1.369,45.08l-0.501,0.33c-3.879,2.66-4.342,8.317-1.184,13.108l7.905,11.764
						c2.526,3.711,7.565,4.683,11.283,2.184l0.4-0.267c1.585-1.088,2.721-2.678,3.229-4.506c0.267-0.96-0.296-1.953-1.256-2.22
						C17.547,65.207,16.552,65.769,16.286,66.728z"/>
					<path style="fill:#EB6F93;" d="M28.235,72.701c-3.75,2.093-6.081,6.035-6.371,11.997c-0.048,0.995,0.72,1.84,1.715,1.888
						c0.995,0.048,1.842-0.719,1.89-1.714c0.262-5.399,2.362-8.314,5.758-9.592c1.817-0.684,3.794-0.82,5.534-0.635
						c0.234,0.025,0.389,0.048,0.452,0.06c2.324,0.433,3.031-3.017,0.724-3.533l-13.878-3.098c-6.496-1.777-7.476-4.18-6.273-8.186
						c0.519-1.745,1.586-2.641,3.195-2.999c1.062-0.236,2.256-0.207,3.39-0.008c0.328,0.057,0.558,0.112,0.661,0.141l21.066,4.916
						c0.14,0.027,0.238,0.054,0.41,0.132c0.348,0.158,0.711,0.411,1.065,0.789c1.412,1.508,2.191,4.352,1.797,9.024
						C47.996,88.262,40.36,98.431,22.26,98.272c-0.997-0.009-1.812,0.791-1.82,1.787c-0.009,0.996,0.792,1.81,1.789,1.819
						c20.342,0.179,29.225-11.651,30.739-29.691c0.474-5.616-0.58-9.465-2.758-11.79c-1.201-1.282-2.468-1.856-3.44-1.997
						l-20.827-4.865c-0.131-0.04-0.484-0.124-0.946-0.204c-1.561-0.273-3.204-0.314-4.796,0.04c-2.825,0.628-4.957,2.418-5.87,5.487
						c-1.736,5.783,0.118,10.327,8.862,12.717L28.235,72.701z"/>
				</g>
			</g>
		</g>
	</g>
</g>
<g id="Ebene_1">
</g>
</svg>
