<?xml version="1.0" encoding="iso-8859-1"?>
<!-- Generator: Adobe Illustrator 23.0.1, SVG Export Plug-In . SVG Version: 6.00 Build 0)  -->
<svg version="1.1" xmlns="http://www.w3.org/2000/svg" xmlns:xlink="http://www.w3.org/1999/xlink" x="0px" y="0px"
	 viewBox="0 0 323.129 120.41" style="enable-background:new 0 0 323.129 120.41;" xml:space="preserve">
<g id="mastercard-visa">
	<g id="visa">
		<g>
			<linearGradient id="SVGID_1_" gradientUnits="userSpaceOnUse" x1="166.7182" y1="62.3724" x2="304.1245" y2="61.4684">
				<stop  offset="0" style="stop-color:#262860"/>
				<stop  offset="1" style="stop-color:#3C429A"/>
			</linearGradient>
			<path style="fill:url(#SVGID_1_);" d="M304.892,84.388c-3.655,0-7.309,0-11.019,0c-0.403-1.937-0.836-3.833-1.177-5.744
				c-0.142-0.793-0.395-1.101-1.281-1.09c-4.418,0.057-8.838,0.043-13.256,0.008c-0.669-0.005-0.935,0.216-1.138,0.825
				c-0.609,1.821-1.274,3.624-1.955,5.42c-0.092,0.244-0.399,0.578-0.609,0.58c-3.983,0.035-7.966,0.026-12.063,0.026
				c0.747-1.798,1.454-3.515,2.172-5.228c5.135-12.252,10.273-24.504,15.41-36.755c1.113-2.654,2.78-3.765,5.65-3.765
				c3.197,0,6.395,0,9.674,0c0.32,1.494,0.642,2.966,0.949,4.44c2.527,12.108,5.048,24.217,7.581,36.324
				c0.324,1.551,0.707,3.089,1.063,4.634C304.892,84.171,304.892,84.28,304.892,84.388z M290.471,68.14
				c-1.174-5.63-2.333-11.185-3.491-16.739c-0.047-0.009-0.095-0.019-0.142-0.028c-2.019,5.568-4.037,11.137-6.078,16.767
				C284.056,68.14,287.213,68.14,290.471,68.14z"/>
			<linearGradient id="SVGID_2_" gradientUnits="userSpaceOnUse" x1="166.7159" y1="62.0276" x2="304.1219" y2="61.1236">
				<stop  offset="0" style="stop-color:#262860"/>
				<stop  offset="1" style="stop-color:#3C429A"/>
			</linearGradient>
			<path style="fill:url(#SVGID_2_);" d="M256.891,37.851c1.454,0.27,2.919,0.492,4.359,0.824c1.314,0.303,2.6,0.725,3.997,1.123
				c-0.704,3.291-1.391,6.504-2.063,9.647c-1.842-0.54-3.603-1.162-5.413-1.562c-2.476-0.546-5.012-0.755-7.489-0.065
				c-1.007,0.281-2.026,0.819-2.818,1.498c-1.359,1.165-1.378,2.842-0.079,4.065c0.895,0.843,1.957,1.536,3.017,2.173
				c2.411,1.45,4.942,2.711,7.285,4.259c2.759,1.824,4.772,4.331,5.195,7.722c0.747,5.996-1.47,10.72-6.507,14.061
				c-3.167,2.101-6.752,3.04-10.486,3.387c-5.215,0.485-10.327-0.099-15.309-1.736c-0.334-0.11-0.659-0.247-0.985-0.38
				c-0.097-0.04-0.182-0.11-0.331-0.203c0.704-3.296,1.409-6.597,2.133-9.991c0.849,0.371,1.647,0.743,2.462,1.071
				c3.893,1.569,7.913,2.286,12.08,1.506c1.084-0.203,2.19-0.682,3.108-1.298c1.994-1.337,2.185-3.848,0.37-5.418
				c-1.193-1.032-2.628-1.794-3.987-2.622c-2.124-1.294-4.38-2.396-6.389-3.844c-2.576-1.856-4.442-4.33-4.795-7.619
				c-0.53-4.924,1.298-8.923,5.078-12.029c3.289-2.703,7.193-3.903,11.353-4.407c0.231-0.028,0.456-0.107,0.684-0.162
				C253.202,37.851,255.047,37.851,256.891,37.851z"/>
			<linearGradient id="SVGID_3_" gradientUnits="userSpaceOnUse" x1="166.7131" y1="61.6138" x2="304.1194" y2="60.7098">
				<stop  offset="0" style="stop-color:#262860"/>
				<stop  offset="1" style="stop-color:#3C429A"/>
			</linearGradient>
			<path style="fill:url(#SVGID_3_);" d="M214.042,38.702c-0.619,1.489-1.205,2.91-1.799,4.326
				c-5.671,13.528-11.349,27.053-16.997,40.591c-0.269,0.645-0.598,0.814-1.252,0.809c-3.579-0.03-7.159-0.042-10.738,0.008
				c-0.759,0.01-1.006-0.256-1.181-0.936c-3.034-11.825-6.119-23.636-9.119-35.47c-0.55-2.171-1.652-3.654-3.718-4.564
				c-3.312-1.459-6.751-2.483-10.258-3.316c-0.155-0.037-0.31-0.077-0.455-0.114c0.017-1.372,0.017-1.372,1.323-1.372
				c6.264,0,12.528-0.001,18.792,0.001c2.971,0.001,5.116,1.727,5.677,4.667c1.59,8.325,3.146,16.656,4.717,24.985
				c0.069,0.364,0.147,0.727,0.251,1.24c0.162-0.305,0.276-0.477,0.35-0.664c3.89-9.84,7.782-19.68,11.653-29.528
				c0.211-0.538,0.472-0.72,1.052-0.715c3.633,0.029,7.267,0.014,10.901,0.016C213.475,38.667,213.71,38.687,214.042,38.702z"/>
			<linearGradient id="SVGID_4_" gradientUnits="userSpaceOnUse" x1="166.7151" y1="61.925" x2="304.1215" y2="61.0211">
				<stop  offset="0" style="stop-color:#262860"/>
				<stop  offset="1" style="stop-color:#3C429A"/>
			</linearGradient>
			<path style="fill:url(#SVGID_4_);" d="M209.298,84.415c3.272-15.293,6.522-30.478,9.779-45.701c3.962,0,7.878,0,11.868,0
				c-0.494,2.318-0.977,4.593-1.463,6.866c-2.689,12.574-5.388,25.145-8.047,37.725c-0.185,0.874-0.494,1.152-1.402,1.134
				c-3.253-0.063-6.507-0.025-9.761-0.025C209.981,84.415,209.69,84.415,209.298,84.415z"/>
		</g>
	</g>
	<g id="mastercard">
		<title>mc_vrt_rgb_pos</title>
		<g id="Layer_2">
			<g id="Layer_1-2">
				<path style="fill:#231F20;" d="M39.432,105.01v-6c0.136-1.961-1.344-3.662-3.305-3.798c-0.151-0.01-0.303-0.011-0.455-0.002
					c-1.346-0.088-2.634,0.563-3.36,1.7c-0.662-1.103-1.875-1.755-3.16-1.7c-1.119-0.057-2.184,0.484-2.8,1.42v-1.18h-2.08v9.56h2.1
					v-5.26c-0.167-1.226,0.69-2.355,1.916-2.523c0.14-0.019,0.282-0.025,0.424-0.017c1.38,0,2.08,0.9,2.08,2.52v5.32h2.1v-5.3
					c-0.162-1.232,0.706-2.362,1.938-2.524c0.133-0.017,0.268-0.023,0.402-0.016c1.42,0,2.1,0.9,2.1,2.52v5.32L39.432,105.01z
					 M70.502,95.45h-3.42v-2.9h-2.1v2.9h-1.9v1.9h1.94v4.4c0,2.22,0.86,3.54,3.32,3.54c0.919,0.003,1.82-0.253,2.6-0.74l-0.6-1.78
					c-0.558,0.333-1.191,0.519-1.84,0.54c-1,0-1.38-0.64-1.38-1.6v-4.36h3.4L70.502,95.45z M88.242,95.21
					c-1.033-0.03-2,0.507-2.52,1.4v-1.16h-2.06v9.56h2.08v-5.36c0-1.58,0.68-2.46,2-2.46c0.445-0.006,0.887,0.075,1.3,0.24l0.64-2
					c-0.475-0.17-0.975-0.258-1.48-0.26L88.242,95.21z M61.422,96.21c-1.177-0.7-2.531-1.047-3.9-1c-2.42,0-4,1.16-4,3.06
					c0,1.56,1.16,2.52,3.3,2.82l1,0.14c1.14,0.16,1.68,0.46,1.68,1c0,0.74-0.76,1.16-2.18,1.16c-1.142,0.033-2.262-0.319-3.18-1
					l-1,1.62c1.212,0.846,2.663,1.281,4.14,1.24c2.76,0,4.36-1.3,4.36-3.12s-1.26-2.56-3.34-2.86l-1-0.14
					c-0.9-0.12-1.62-0.3-1.62-0.94s0.68-1.12,1.82-1.12c1.054,0.012,2.087,0.295,3,0.82L61.422,96.21z M117.132,95.21
					c-1.033-0.03-2,0.507-2.52,1.4v-1.16h-2.06v9.56h2.08v-5.36c0-1.58,0.68-2.46,2-2.46c0.445-0.006,0.887,0.075,1.3,0.24l0.64-2
					c-0.475-0.17-0.975-0.258-1.48-0.26L117.132,95.21z M90.332,100.21c-0.098,2.666,1.983,4.906,4.649,5.004
					c0.15,0.006,0.301,0.004,0.451-0.004c1.249,0.064,2.476-0.343,3.44-1.14l-1-1.68c-0.719,0.548-1.596,0.85-2.5,0.86
					c-1.69-0.137-2.949-1.618-2.812-3.308c0.121-1.5,1.312-2.691,2.812-2.812c0.904,0.01,1.781,0.312,2.5,0.86l1-1.68
					c-0.964-0.797-2.191-1.204-3.44-1.14c-2.663-0.151-4.945,1.886-5.096,4.549c-0.009,0.15-0.01,0.301-0.004,0.451V100.21z
					 M109.812,100.21v-4.76h-2.08v1.16c-0.717-0.922-1.833-1.443-3-1.4c-2.761,0-5,2.239-5,5s2.239,5,5,5
					c1.167,0.043,2.283-0.478,3-1.4v1.16h2.08V100.21z M102.072,100.21c0.094-1.593,1.462-2.809,3.055-2.715
					s2.809,1.462,2.715,3.055c-0.09,1.522-1.346,2.712-2.87,2.72c-1.585,0.02-2.886-1.249-2.906-2.833
					C102.065,100.361,102.067,100.286,102.072,100.21z M76.972,95.21c-2.761,0.039-4.969,2.309-4.93,5.07s2.309,4.969,5.07,4.93l0,0
					c1.439,0.074,2.854-0.389,3.97-1.3l-1-1.54c-0.79,0.633-1.768,0.985-2.78,1c-1.43,0.123-2.697-0.914-2.86-2.34h7.1
					c0-0.26,0-0.52,0-0.8c0-3-1.86-5-4.54-5L76.972,95.21z M76.972,97.07c1.309-0.028,2.392,1.01,2.42,2.319c0,0,0,0.001,0,0.001h-5
					c0.075-1.335,1.203-2.366,2.54-2.32H76.972z M129.082,100.23v-8.62h-2v5c-0.717-0.922-1.833-1.443-3-1.4c-2.761,0-5,2.239-5,5
					s2.239,5,5,5c1.167,0.043,2.283-0.478,3-1.4v1.16h2V100.23z M132.552,103.62c0.13-0.002,0.259,0.022,0.38,0.07
					c0.115,0.047,0.22,0.115,0.31,0.2c0.088,0.086,0.159,0.188,0.21,0.3c0.102,0.236,0.102,0.504,0,0.74
					c-0.051,0.112-0.122,0.214-0.21,0.3c-0.09,0.085-0.195,0.153-0.31,0.2c-0.12,0.053-0.249,0.08-0.38,0.08
					c-0.387-0.003-0.737-0.229-0.9-0.58c-0.101-0.236-0.101-0.504,0-0.74c0.051-0.112,0.122-0.214,0.21-0.3
					c0.09-0.085,0.195-0.153,0.31-0.2c0.13-0.052,0.27-0.076,0.41-0.07H132.552z M132.552,105.31c0.1,0.001,0.199-0.02,0.29-0.06
					c0.086-0.038,0.164-0.093,0.23-0.16c0.259-0.283,0.259-0.717,0-1c-0.066-0.067-0.144-0.122-0.23-0.16
					c-0.091-0.04-0.19-0.06-0.29-0.06c-0.1,0.001-0.198,0.021-0.29,0.06c-0.09,0.037-0.171,0.091-0.24,0.16
					c-0.259,0.283-0.259,0.717,0,1c0.069,0.069,0.15,0.123,0.24,0.16c0.101,0.044,0.21,0.064,0.32,0.06L132.552,105.31z
					 M132.612,104.12c0.093-0.005,0.185,0.024,0.26,0.08c0.062,0.051,0.096,0.13,0.09,0.21c0.003,0.067-0.022,0.132-0.07,0.18
					c-0.058,0.053-0.132,0.084-0.21,0.09l0.29,0.33h-0.23l-0.27-0.33h-0.09v0.33h-0.19v-0.88L132.612,104.12z M132.392,104.29v0.24
					h0.22c0.039,0.012,0.081,0.012,0.12,0c0.014-0.028,0.014-0.062,0-0.09c0.014-0.028,0.014-0.062,0-0.09
					c-0.039-0.012-0.081-0.012-0.12,0L132.392,104.29z M121.392,100.23c0.094-1.593,1.462-2.809,3.055-2.715
					s2.809,1.462,2.715,3.055c-0.09,1.522-1.346,2.712-2.87,2.72c-1.585,0.02-2.886-1.249-2.906-2.833
					C121.385,100.381,121.387,100.306,121.392,100.23z M51.162,100.23v-4.78h-2.08v1.16c-0.717-0.922-1.833-1.443-3-1.4
					c-2.761,0-5,2.239-5,5s2.239,5,5,5c1.167,0.043,2.283-0.478,3-1.4v1.16h2.08L51.162,100.23z M43.422,100.23
					c0.094-1.593,1.462-2.809,3.055-2.715s2.809,1.462,2.715,3.055c-0.09,1.522-1.346,2.712-2.87,2.72
					c-1.585,0.031-2.895-1.228-2.926-2.813c-0.002-0.082,0-0.165,0.006-0.247H43.422z"/>
				<g id="_Group_">
					<rect x="60.732" y="22.6" style="fill:#FF5F00;" width="31.5" height="56.61"/>
					<path id="_Path_" style="fill:#EB001B;" d="M62.732,50.91c-0.012-11.049,5.059-21.488,13.75-28.31
						c-15.632-12.285-38.264-9.572-50.55,6.06s-9.572,38.264,6.06,50.55c13.055,10.26,31.434,10.26,44.489,0
						C67.794,72.391,62.724,61.955,62.732,50.91z"/>
					<path style="fill:#F79E1B;" d="M134.732,50.91c0,19.882-16.119,36-36.001,35.999c-8.07,0-15.905-2.712-22.249-7.699
						c15.632-12.285,18.346-34.917,6.06-50.55c-1.772-2.254-3.806-4.289-6.06-6.06c15.63-12.288,38.263-9.579,50.551,6.051
						c4.988,6.344,7.699,14.179,7.699,22.249V50.91z"/>
					<path style="fill:#F79E1B;" d="M131.292,73.21v-1.16h0.47v-0.24h-1.19v0.24h0.51v1.16L131.292,73.21z M133.602,73.21v-1.4
						h-0.36l-0.42,1l-0.42-1h-0.32v1.4h0.26v-1.05l0.39,0.91h0.27l0.39-0.91v1.06L133.602,73.21z"/>
				</g>
			</g>
		</g>
	</g>
</g>
<g id="Ebene_1">
</g>
</svg>
