<svg xmlns="http://www.w3.org/2000/svg" viewBox="0 0 323.13 120.41"><defs><style>.a{fill:#d60510;}.b{fill:none;}</style></defs><path class="a" d="M57.15,101.14l-.39,3a2.45,2.45,0,0,0,2.46,2.74h96.32a2.47,2.47,0,0,0,2.47-2.74l-.4-3a4.25,4.25,0,0,1,3.75-4.65,4.18,4.18,0,0,1,4.6,3.74l.37,2.88c.75,6.44-2.9,12.1-9.41,12.1H57.84c-6.5,0-10.16-5.66-9.41-12.1l.38-2.88a4.17,4.17,0,0,1,4.59-3.74,4.26,4.26,0,0,1,3.75,4.65"/><path d="M146.18,78.82c4.69,0,8.42-3.4,8.32-7.9s-4.28-7.57-8.95-7.58h-9.43a3.92,3.92,0,0,1,0-7.83h6.3c4.25-.17,7.52-2.74,7.73-6.76.21-4.29-3.49-7.52-8-7.52H126.86l-.07,37.59Zm11.59-30.09c0,3.92-1.39,6.14-3.69,8.87l-.23.28.32.19c4.55,2.78,7.73,7,8,12.87.36,8.77-7.08,16-15.91,16H123a4.16,4.16,0,0,1-4.1-4.21V37.61a4.15,4.15,0,0,1,4.09-4.2l19.21.05c8.38,0,15.62,6.17,15.62,15.27"/><path d="M82.75,71.48l.11.32.12-.32c1.08-3,2.38-6.26,3.76-9.85Q88.87,56,91,50.8c1.43-3.49,2.79-6.61,4.08-9.33a31.24,31.24,0,0,1,3.19-5.72,6.26,6.26,0,0,1,5-2.29h1a4.54,4.54,0,0,1,3,1,3.49,3.49,0,0,1,1.21,2.09l6,46.64a3.8,3.8,0,0,1-1,2.83,4.1,4.1,0,0,1-2.92,1,4.73,4.73,0,0,1-3-.89,3.28,3.28,0,0,1-1.41-2.34c-.2-1.55-.38-3.27-.57-5.16s-1.2-10-1.47-12.08-1.94-15.29-2.51-20.07l-.06-.41L99.6,50c-.65,1.39-1.36,3.07-2.14,5s-1.55,4-2.32,6.17S90.57,74,90.57,74c-.34,1-1,2.91-1.59,4.7s-1.15,3.39-1.3,3.7a5.41,5.41,0,0,1-9.62,0c-.16-.31-.71-1.93-1.31-3.7S75.5,74.93,75.14,74c0,0-3.72-10.64-4.55-12.74S69,57,68.26,55.05s-1.49-3.62-2.13-5l-1.94-4,0,.41c-.59,4.78-2.26,18-2.52,20.07s-1.2,10.19-1.46,12.08-.39,3.61-.59,5.16a3.32,3.32,0,0,1-1.39,2.34,4.8,4.8,0,0,1-3,.89,4.1,4.1,0,0,1-2.92-1,3.86,3.86,0,0,1-1-2.83l6-46.64a3.5,3.5,0,0,1,1.22-2.09,4.52,4.52,0,0,1,3-1h1a6.22,6.22,0,0,1,5,2.29,31.49,31.49,0,0,1,3.19,5.72c1.3,2.72,2.65,5.84,4.08,9.33S77.58,57.85,79,61.63c1.37,3.59,2.67,6.88,3.75,9.85"/><path class="a" d="M71,5.21h73.16c6.89,0,10.32,5.17,11.12,12l.31,2.19a4.26,4.26,0,0,1-3.77,4.68,4.2,4.2,0,0,1-4.62-3.79l-.29-2.09c-.31-2.59-1.41-4.59-4.05-4.59H72.25c-2.64,0-3.74,2-4,4.59l-.28,2.09a4.21,4.21,0,0,1-4.63,3.79,4.26,4.26,0,0,1-3.77-4.68l.31-2.19c.81-6.82,4.23-12,11.12-12"/><path d="M202.54,54.36c-.51,2-1,4-1.58,6.27S199.86,65,199.33,67s-1,3.8-1.53,5.33a18.65,18.65,0,0,1-1.2,3.14,3.15,3.15,0,0,1-3,1.49,6.67,6.67,0,0,1-1.55-.24,2.66,2.66,0,0,1-1.61-1.35,18.34,18.34,0,0,1-1.2-3.31c-.48-1.63-1-3.51-1.52-5.64s-1.06-4.39-1.61-6.77-1-4.58-1.44-6.64-.79-3.78-1.07-5.22-.44-2.29-.48-2.58a1.7,1.7,0,0,1,0-.37v-.21a1.77,1.77,0,0,1,.69-1.47,2.59,2.59,0,0,1,1.71-.56A2.76,2.76,0,0,1,187,43a2.35,2.35,0,0,1,.85,1.41c0,.07.11.59.29,1.55s.46,2.18.75,3.67.65,3.15,1,5,.76,3.73,1.18,5.63.82,3.72,1.23,5.51.79,3.3,1.15,4.57c.35-1.2.74-2.58,1.18-4.13s.85-3.14,1.28-4.78.83-3.3,1.23-4.95.75-3.19,1.1-4.61.63-2.68.87-3.78.44-1.92.59-2.46a2.8,2.8,0,0,1,2.83-2.18,3,3,0,0,1,1.93.62,2.82,2.82,0,0,1,1,1.56c.4,1.74.82,3.69,1.28,5.84s.95,4.32,1.45,6.52,1,4.36,1.55,6.47,1,4,1.55,5.62c.35-1.27.74-2.8,1.15-4.57s.82-3.61,1.25-5.49.84-3.75,1.23-5.59.75-3.51,1.08-5,.58-2.68.77-3.59.3-1.41.3-1.45a2.21,2.21,0,0,1,.85-1.4,3,3,0,0,1,3.26.15,1.78,1.78,0,0,1,.69,1.47v.21a1.84,1.84,0,0,1-.05.38c0,.29-.2,1.14-.51,2.58S220.65,51,220.22,53s-.91,4.24-1.44,6.61-1.06,4.61-1.57,6.73-1,4-1.5,5.62a18,18,0,0,1-1.21,3.27,2.8,2.8,0,0,1-1.62,1.42,5.79,5.79,0,0,1-1.58.29,4.61,4.61,0,0,1-.64,0,5,5,0,0,1-.91-.22,3.4,3.4,0,0,1-1-.5,2.33,2.33,0,0,1-.75-.94,24.34,24.34,0,0,1-1.15-3.35q-.66-2.34-1.44-5.29c-.51-2-1-4-1.52-6.19s-1-4.16-1.39-6"/><path d="M230.49,67.09c-.54,1.71-1,3.28-1.42,4.74s-.79,2.65-1.15,3.57A2.3,2.3,0,0,1,225.57,77a2.35,2.35,0,0,1-1.8-.61,2.29,2.29,0,0,1-.56-1.58,2.33,2.33,0,0,1,.11-.7c.07-.2.29-.93.67-2.18s.86-2.78,1.47-4.63,1.27-3.87,2-6.07,1.48-4.37,2.27-6.52,1.55-4.16,2.3-6a39.27,39.27,0,0,1,2.08-4.5,2.44,2.44,0,0,1,1.15-1.23,5.78,5.78,0,0,1,4,.06,2.12,2.12,0,0,1,1.15,1.28q.75,1.59,1.79,4.28c.69,1.8,1.43,3.73,2.18,5.81s1.53,4.2,2.28,6.36,1.44,4.19,2.06,6,1.16,3.45,1.6,4.77.73,2.16.83,2.54a2.38,2.38,0,0,1,.11.7,2.1,2.1,0,0,1-.64,1.58,2.66,2.66,0,0,1-1.87.61,2,2,0,0,1-1.37-.41,2.73,2.73,0,0,1-.72-1.14c-.35-.92-.78-2.12-1.26-3.57s-1-3-1.52-4.74Zm11.86-4.64c-.75-2.3-1.46-4.43-2.14-6.36s-1.37-3.77-2.09-5.51c-.17-.39-.36-.83-.56-1.37s-.3-.81-.34-.92a4.72,4.72,0,0,0-.35.87c-.2.55-.39,1-.56,1.41q-1.06,2.61-2.07,5.52c-.65,1.93-1.36,4-2.1,6.36Z"/><path d="M260.47,63.52a4.92,4.92,0,0,1-.51-.59,5.92,5.92,0,0,1-.51-.74c-.51-.71-1-1.56-1.63-2.58s-1.18-2.09-1.77-3.22-1.15-2.29-1.7-3.44-1.06-2.22-1.49-3.21-.84-1.86-1.16-2.58a9.79,9.79,0,0,1-.59-1.53,2.9,2.9,0,0,1-.13-.4,3.13,3.13,0,0,1,0-.4,2.1,2.1,0,0,1,.67-1.59,2.56,2.56,0,0,1,1.85-.65,1.9,1.9,0,0,1,1.52.54,3.93,3.93,0,0,1,.67,1.07c.07.18.24.56.51,1.16s.59,1.35,1,2.24.84,1.86,1.33,2.93,1,2.11,1.53,3.15,1,2,1.5,3A20.8,20.8,0,0,0,262.87,59a40.33,40.33,0,0,0,2.2-3.9c.78-1.56,1.53-3.1,2.23-4.62s1.33-2.88,1.85-4.06.82-1.9.94-2.18a3.84,3.84,0,0,1,.67-1.07,1.9,1.9,0,0,1,1.52-.53,2.57,2.57,0,0,1,1.85.64,2.1,2.1,0,0,1,.66,1.59,3.59,3.59,0,0,1,0,.4c0,.09-.07.23-.13.4s-.32.8-.61,1.55-.69,1.62-1.13,2.61S272,51.85,271.41,53s-1.12,2.31-1.71,3.44-1.18,2.23-1.77,3.25a29.35,29.35,0,0,1-1.63,2.61,8.4,8.4,0,0,1-1,1.22v11a2.32,2.32,0,0,1-.68,1.74,2.41,2.41,0,0,1-4.14-1.74v-11Z"/><rect class="b" width="323.13" height="120.41"/></svg>