<svg xmlns="http://www.w3.org/2000/svg" xmlns:xlink="http://www.w3.org/1999/xlink" viewBox="0 0 323.13 120.41"><defs><style>.a{fill:#fff;}.b{fill:url(#a);}.c{fill:url(#b);}.d{fill:url(#c);}.e{fill:#5a78ff;}.f{fill:none;}</style><radialGradient id="a" cx="-662.23" cy="515.96" r="2.58" gradientTransform="matrix(6.11, 0, 0, -6.11, 4123.36, 3219.04)" gradientUnits="userSpaceOnUse"><stop offset="0" stop-color="#1d275a"/><stop offset="0.61" stop-color="#4960da"/><stop offset="1" stop-color="#5a78ff"/></radialGradient><linearGradient id="b" x1="31.55" y1="56.31" x2="43.11" y2="66.8" gradientTransform="matrix(1, 0, 0, -1, 0, 122)" gradientUnits="userSpaceOnUse"><stop offset="0" stop-color="#3b50cc"/><stop offset="1" stop-color="#5a78ff"/></linearGradient><radialGradient id="c" cx="-615.63" cy="484.67" r="2.58" gradientTransform="matrix(4.49, 0, 0, -4.49, 2827.51, 2247.96)" gradientUnits="userSpaceOnUse"><stop offset="0" stop-color="#3e54b6"/><stop offset="0.65" stop-color="#4b63df"/><stop offset="1" stop-color="#5a78ff" stop-opacity="0"/></radialGradient></defs><path class="a" d="M30.18,32.08a2.19,2.19,0,0,0-.9.18l-18.5,7.83A2.38,2.38,0,0,0,9.5,41.4a2.47,2.47,0,0,0,0,1.85L27.16,86.84a2.35,2.35,0,0,0,3.09,1.31l18.5-7.83A2.45,2.45,0,0,0,50,77.16L32.36,33.57A2.35,2.35,0,0,0,30.18,32.08Zm-.83,59.07a5.13,5.13,0,0,1-4.73-3.23L7,44.32a5.23,5.23,0,0,1,0-4,5.14,5.14,0,0,1,2.76-2.83l18.51-7.83a5.08,5.08,0,0,1,6.68,2.83l17.66,43.6a5.27,5.27,0,0,1-2.77,6.83L31.3,90.75A5,5,0,0,1,29.35,91.15Z"/><path class="b" d="M30.18,32.08a2.19,2.19,0,0,0-.9.18l-18.5,7.83A2.38,2.38,0,0,0,9.5,41.4a2.47,2.47,0,0,0,0,1.85L27.16,86.84a2.35,2.35,0,0,0,3.09,1.31l18.5-7.83A2.45,2.45,0,0,0,50,77.16L32.36,33.57A2.35,2.35,0,0,0,30.18,32.08Zm-.83,59.07a5.13,5.13,0,0,1-4.73-3.23L7,44.32a5.23,5.23,0,0,1,0-4,5.14,5.14,0,0,1,2.76-2.83l18.51-7.83a5.08,5.08,0,0,1,6.68,2.83l17.66,43.6a5.27,5.27,0,0,1-2.77,6.83L31.3,90.75A5,5,0,0,1,29.35,91.15Z"/><path class="c" d="M45.72,61.26a31.12,31.12,0,0,0-12.58,9L25.69,51.93a31.48,31.48,0,0,1,12.58-9c5.29-2.23,10.63-3.32,15.16-2.69l7.45,18.37A30.94,30.94,0,0,0,45.72,61.26Z"/><path class="d" d="M45.72,61.26a31.12,31.12,0,0,0-12.58,9L25.69,51.93a31.48,31.48,0,0,1,12.58-9c5.29-2.23,10.63-3.32,15.16-2.69l7.45,18.37A30.94,30.94,0,0,0,45.72,61.26Z"/><path class="e" d="M48.23,67.05c-5.74,0-11,1.14-15.06,3.47V51.78a30.94,30.94,0,0,1,15.06-3.46c5.74,0,11.1,1.09,15.06,3.47V70.52A30.77,30.77,0,0,0,48.23,67.05Z"/><path class="e" d="M84.66,75.68H79.37a.73.73,0,0,1-.65-.28.87.87,0,0,1,0-.74l9.43-29.8a1,1,0,0,1,.32-.51.86.86,0,0,1,.56-.24h4.73a.68.68,0,0,1,.51.24,1.06,1.06,0,0,1,.42.51L102,63.66a.44.44,0,0,0,.33.32c.15,0,.26-.11.32-.32l7.29-18.8a1.25,1.25,0,0,1,.37-.51.86.86,0,0,1,.56-.24h4.73a.68.68,0,0,1,.51.24.89.89,0,0,1,.38.51l9.23,29.8a.8.8,0,0,1-.09.74.68.68,0,0,1-.6.28h-5.62a1.11,1.11,0,0,1-.56-.14,1.38,1.38,0,0,1-.28-.51l-6-19.36a.3.3,0,0,0-.33-.28c-.15,0-.26.1-.32.28l-7.06,19.22a1.31,1.31,0,0,1-.42.6.94.94,0,0,1-.6.19h-3.3a1,1,0,0,1-.6-.19,1.24,1.24,0,0,1-.37-.6L92.27,55.67c-.06-.18-.17-.28-.32-.28s-.22.1-.28.28L85.54,75a1,1,0,0,1-.32.51A1.11,1.11,0,0,1,84.66,75.68ZM152.09,64a11.77,11.77,0,0,1-3.57,8.72,12.9,12.9,0,0,1-17.73,0,12.48,12.48,0,0,1,0-17.45,12.18,12.18,0,0,1,8.91-3.53,12,12,0,0,1,8.87,3.53A11.69,11.69,0,0,1,152.09,64Zm-18.56,0a6.41,6.41,0,0,0,1.81,4.59,5.85,5.85,0,0,0,8.63,0,6.74,6.74,0,0,0,0-9.19,5.85,5.85,0,0,0-8.63,0A6.42,6.42,0,0,0,133.53,64ZM181,64a12.37,12.37,0,0,1-3.29,8.72,10.7,10.7,0,0,1-8.12,3.53,8.34,8.34,0,0,1-3.16-.6,11.76,11.76,0,0,1-3.16-1.91.62.62,0,0,0-.65-.14c-.15.07-.23.25-.23.56v.6a.86.86,0,0,1-.28.65.74.74,0,0,1-.55.24h-4.37a.86.86,0,0,1-.6-.28.84.84,0,0,1-.28-.61V45a.75.75,0,0,1,.28-.61.86.86,0,0,1,.6-.28h4.6a.71.71,0,0,1,.55.28.75.75,0,0,1,.28.61v8.49c0,.31.1.5.28.56a1,1,0,0,0,.79-.23,10.39,10.39,0,0,1,2.92-1.54,10,10,0,0,1,3.16-.51,10.33,10.33,0,0,1,8,3.58A12.31,12.31,0,0,1,181,64Zm-18.56,0a6.54,6.54,0,0,0,1.76,4.59,5.74,5.74,0,0,0,4.32,1.86,5.87,5.87,0,0,0,4.36-1.86,6.74,6.74,0,0,0,0-9.19,5.91,5.91,0,0,0-8.68,0A6.55,6.55,0,0,0,162.42,64ZM191.89,46.3a3.41,3.41,0,0,1-1.06,2.5,3.35,3.35,0,0,1-2.46,1,3.48,3.48,0,0,1-3.53-3.52,3.35,3.35,0,0,1,1-2.46,3.41,3.41,0,0,1,2.51-1.07,3.64,3.64,0,0,1,3.52,3.53Zm-1.3,29.38H186a.88.88,0,0,1-.6-.24,1,1,0,0,1-.24-.65V53.26a.82.82,0,0,1,.24-.61.83.83,0,0,1,.6-.27h4.59a.78.78,0,0,1,.61.27.78.78,0,0,1,.28.61V74.79a.88.88,0,0,1-.28.61A.78.78,0,0,1,190.59,75.68Zm14.58.23q-4.72,0-6.68-1.81t-1.9-6.31V45a.81.81,0,0,1,.23-.61.86.86,0,0,1,.6-.28H202a1,1,0,0,1,.88.89V67.93a2.71,2.71,0,0,0,.56,1.85,2.32,2.32,0,0,0,1.71.61.78.78,0,0,1,.61.27.78.78,0,0,1,.28.61v3.8a.88.88,0,0,1-.28.61A.85.85,0,0,1,205.17,75.91Zm25.75-6.45a9.82,9.82,0,0,1-4.27,5,13,13,0,0,1-6.87,1.86,11.77,11.77,0,0,1-8.68-3.43,11.94,11.94,0,0,1-3.38-8.73,12,12,0,0,1,3.48-8.82,11.7,11.7,0,0,1,8.68-3.53,11.26,11.26,0,0,1,8.54,3.58,12.17,12.17,0,0,1,3.43,8.86,1.89,1.89,0,0,1-.28,1.16.84.84,0,0,1-.79.37h-16a.5.5,0,0,0-.42.19.46.46,0,0,0-.09.42,4.78,4.78,0,0,0,1.81,3.29,5.94,5.94,0,0,0,3.85,1.3,5.69,5.69,0,0,0,2.41-.51,5.5,5.5,0,0,0,2-1.48,2.06,2.06,0,0,1,.7-.56,1.76,1.76,0,0,1,.78-.19h4.27a.76.76,0,0,1,.75.38A.94.94,0,0,1,230.92,69.46Zm-16.43-8.13a.76.76,0,0,0,0,.52.43.43,0,0,0,.37.13h9.8a.45.45,0,0,0,.32-.09.44.44,0,0,0,.1-.42,5.44,5.44,0,0,0-5.3-4.36,5.15,5.15,0,0,0-3.34,1.21A5.38,5.38,0,0,0,214.49,61.33ZM242.1,75.68h-4.82a.92.92,0,0,1-.61-.24,1,1,0,0,1-.23-.65V45a.85.85,0,0,1,.23-.61.88.88,0,0,1,.61-.28H251.9A11.46,11.46,0,0,1,260.07,47a9.85,9.85,0,0,1,3.06,7.61,9.81,9.81,0,0,1-3.29,7.61,11.91,11.91,0,0,1-8.27,3h-7.75a.9.9,0,0,0-.65.23A1,1,0,0,0,243,66v8.77a.88.88,0,0,1-.28.61A.78.78,0,0,1,242.1,75.68Zm1.68-15.92h7.79a4.54,4.54,0,0,0,3.53-1.54,5.09,5.09,0,0,0,1.44-3.62,4.75,4.75,0,0,0-1.39-3.52,4.67,4.67,0,0,0-3.58-1.44h-7.79a.76.76,0,0,0-.61.23.83.83,0,0,0-.18.6v8.45a1,1,0,0,0,.18.65A.87.87,0,0,0,243.78,59.76Zm39.8,13.41A12.62,12.62,0,0,1,280,75.58a10.45,10.45,0,0,1-3.9.7A10.76,10.76,0,0,1,268,72.75a12.38,12.38,0,0,1-3.3-8.72A12.12,12.12,0,0,1,268,55.35a10.83,10.83,0,0,1,8.17-3.58,8.55,8.55,0,0,1,3.11.56,11.29,11.29,0,0,1,3.06,1.81.75.75,0,0,0,.61.23c.18,0,.28-.18.28-.46v-.7a.78.78,0,0,1,.23-.6.89.89,0,0,1,.6-.23h4.37a.77.77,0,0,1,.6.27.78.78,0,0,1,.28.61V68.62a2.2,2.2,0,0,0,.28,1.25,1.21,1.21,0,0,0,.92.47.91.91,0,0,1,.56.28.55.55,0,0,1,.23.46v4a.75.75,0,0,1-.23.56.77.77,0,0,1-.56.23,9,9,0,0,1-3.66-.65,4.81,4.81,0,0,1-2.23-2c-.16-.24-.33-.37-.51-.37S283.8,73,283.58,73.17ZM271.05,64a6.54,6.54,0,0,0,1.76,4.59,5.8,5.8,0,0,0,4.37,1.9,5.69,5.69,0,0,0,4.31-1.85A6.57,6.57,0,0,0,283.26,64a6.41,6.41,0,0,0-1.77-4.6,5.63,5.63,0,0,0-4.31-1.9,5.8,5.8,0,0,0-4.37,1.9A6.55,6.55,0,0,0,271.05,64Zm23.3,20.7a.84.84,0,0,1-.6-.28.75.75,0,0,1-.28-.6V80.09a1,1,0,0,1,.23-.61,1,1,0,0,1,.65-.23A7.59,7.59,0,0,0,298.67,78,5.07,5.07,0,0,0,301,74.79a2.08,2.08,0,0,0,.1-.88,3.75,3.75,0,0,0-.28-1l-8.54-19.31a1,1,0,0,1,0-.88.77.77,0,0,1,.7-.37h4.6a.7.7,0,0,1,.51.23,1.53,1.53,0,0,1,.41.6l5.34,12.35c.22.49.45.74.7.74s.48-.29.69-.79l5.11-12.39a1.14,1.14,0,0,1,.32-.56.91.91,0,0,1,.56-.18h4.41a.77.77,0,0,1,.7.37.66.66,0,0,1,.09.74l-8.77,20.84q-2.46,5.81-5.43,8.08A12.6,12.6,0,0,1,294.35,84.73Z"/><rect class="f" width="323.13" height="120.41"/></svg>