<?xml version="1.0" encoding="iso-8859-1"?>
<!-- Generator: Adobe Illustrator 23.0.1, SVG Export Plug-In . SVG Version: 6.00 Build 0)  -->
<svg version="1.1" xmlns="http://www.w3.org/2000/svg" xmlns:xlink="http://www.w3.org/1999/xlink" x="0px" y="0px"
	 viewBox="0 0 323.129 120.41" style="enable-background:new 0 0 323.129 120.41;" xml:space="preserve">
<g id="pay-direkt">
	<g>
		<path style="fill:#00923A;" d="M85.756,109.634c-1.601-5.016,1.178-10.404,6.207-11.998c5.028-1.596,10.407,1.165,12.003,6.207
			c1.602,5.025-1.18,10.408-6.207,11.999C92.729,117.46,87.353,114.676,85.756,109.634z"/>
		<path style="fill:#00923A;" d="M65.295,110.125c-1.154-3.634,0.848-7.492,4.459-8.637c3.614-1.148,7.476,0.854,8.628,4.46
			c1.145,3.603-0.847,7.471-4.462,8.637C70.307,115.727,66.445,113.726,65.295,110.125z"/>
		<path style="fill:#00923A;" d="M49.481,101.755c-0.923-2.898,0.672-6.009,3.579-6.921c2.899-0.935,6.002,0.688,6.925,3.585
			c0.922,2.893-0.681,5.985-3.584,6.918C53.504,106.267,50.404,104.654,49.481,101.755z"/>
		<path style="fill:#004D85;" d="M188.54,34.291v6.862h-8.981v-6.862H188.54z M167.243,29.488V46.37
			c-1.599-1.694-3.206-2.869-4.741-3.544c-1.937-0.797-3.946-1.199-6.042-1.199c-4.17,0-7.873,1.489-11.078,4.471
			c-3.492,3.237-5.236,7.656-5.236,13.254c0,4.916,1.346,8.902,4.026,11.955c3.037,3.449,7.073,5.185,12.13,5.185
			c2.647,0,5.005-0.548,7.035-1.678c1.307-0.709,2.613-1.957,3.907-3.719v4.262h8.991v-45.87H167.243z M165.116,65.961
			c-1.694,2.21-3.891,3.308-6.615,3.308c-2.392,0-4.428-0.873-6.127-2.618c-1.794-1.805-2.696-4.237-2.696-7.262
			c0-2.393,0.597-4.487,1.754-6.301c1.7-2.616,4.084-3.925,7.142-3.925c2.515,0,4.579,0.964,6.222,2.89
			c1.644,1.91,2.447,4.328,2.447,7.275C167.243,61.888,166.534,64.108,165.116,65.961z M188.54,42.766v32.593h-8.981V42.766H188.54z
			 M279.881,50.126V65.76c0,0.829,0.205,1.372,0.592,1.656c0.439,0.291,1.094,0.443,1.967,0.443h6.022v7.5h-11.646
			c-2.082,0-3.626-0.521-4.643-1.556c-0.849-0.891-1.267-2.442-1.267-4.667V31.049h8.974v11.542h8.582v7.535H279.881z
			 M270.048,42.766h-10.374l-9.113,12.493V31.166h-8.992V53.51c-0.642-2.126-1.673-4.047-3.079-5.757
			c-3.385-4.091-7.952-6.125-13.736-6.125c-3.4,0-6.44,0.755-9.09,2.271c-1.277,0.715-2.375,1.583-3.37,2.588v-3.833h-10.232
			c-1.892,0.173-3.6,0.646-5.104,1.422c-1.28,0.641-2.441,1.594-3.502,2.863c-1.1,1.267-1.63,3.017-1.63,5.246v23.135h8.997v-22.04
			c0.155-0.506,0.42-0.98,0.8-1.411c0.341-0.347,0.833-0.663,1.445-0.966c0.6-0.301,1.398-0.447,2.369-0.447h4.061
			c-1.316,2.627-1.958,5.481-1.958,8.552c0,4.874,1.466,8.853,4.39,11.959c3.493,3.687,7.948,5.529,13.365,5.529
			c4.039,0,7.684-1.249,10.921-3.775c1.999-1.566,3.624-3.625,4.913-6.169l-8.203-2.271c-0.554,1.084-1.335,1.957-2.317,2.616
			c-1.601,1.074-3.323,1.623-5.212,1.623c-2.71,0-4.907-0.992-6.605-2.964c-0.997-1.129-1.629-2.584-1.938-4.373h24.714v14.177
			h8.992V61.836l9.092,13.522h10.395L258.926,58.39L270.048,42.766z M216.826,56.052c0.347-1.726,0.957-3.096,1.828-4.134
			c1.568-1.81,3.613-2.716,6.201-2.716c2.682,0,4.83,0.906,6.474,2.716c0.942,1.038,1.564,2.408,1.849,4.134H216.826z"/>
		<path style="fill:#00923A;" d="M127.882,42.766l-7.611,19.378l-6.613-19.378h-8.835h-0.699h-8.288v4.125
			c-1.305-1.535-2.565-2.671-3.784-3.408c-2.017-1.216-4.316-1.824-6.887-1.824c-3.1,0-5.885,0.76-8.365,2.273
			c-2.454,1.469-4.352,3.452-5.681,5.96c-0.485,0.893-0.887,1.831-1.225,2.776c-1.146-3.427-3.295-6.208-6.453-8.323
			c-2.681-1.814-5.7-2.718-9.053-2.718c-2.82,0-5.245,0.61-7.262,1.821c-1.195,0.715-2.355,1.824-3.481,3.342v-4.024h-8.979v45.544
			h8.979V71.811c2.708,3.119,6.35,4.682,10.916,4.682c3.788,0,7.061-0.996,9.813-3.024c2.581-1.881,4.384-4.334,5.431-7.348
			c0.623,1.783,1.519,3.395,2.689,4.843c3.032,3.687,7.034,5.529,12.015,5.529c4.591,0,8.37-1.86,11.326-5.605v4.469h8.987V44.704
			l10.738,29.913l-3.162,9.023c3.221-0.691,6.487,0.455,8.591,2.81l16.432-43.684H127.882z M59.521,65.586
			c-1.68,2.456-4.078,3.683-7.196,3.683c-2.528,0-4.602-0.873-6.237-2.618c-1.626-1.747-2.443-4.146-2.443-7.19
			c0-2.569,0.592-4.736,1.759-6.478c1.723-2.547,4.124-3.821,7.195-3.821c2.5,0,4.581,0.926,6.231,2.791
			c1.654,1.852,2.478,4.335,2.478,7.436C61.308,61.782,60.713,63.843,59.521,65.586z M93.671,65.898
			c-1.77,2.244-4.006,3.372-6.716,3.372c-2.248,0-4.173-0.819-5.785-2.445c-1.905-1.9-2.853-4.41-2.853-7.497
			c0-2.601,0.7-4.875,2.101-6.818c1.581-2.182,3.783-3.273,6.607-3.273c2.915,0,5.207,1.071,6.884,3.235
			c1.38,1.791,2.069,3.983,2.069,6.572C95.978,61.634,95.205,63.924,93.671,65.898z M115.532,100.378
			c3.639-1.152,5.655-5.031,4.499-8.679c-1.164-3.65-5.06-5.662-8.695-4.488c-3.636,1.157-5.646,5.035-4.493,8.686
			C108.006,99.545,111.896,101.554,115.532,100.378z"/>
	</g>
</g>
<g id="Ebene_1">
</g>
</svg>
