<?xml version="1.0" encoding="iso-8859-1"?>
<!-- Generator: Adobe Illustrator 23.0.1, SVG Export Plug-In . SVG Version: 6.00 Build 0)  -->
<svg version="1.1" xmlns="http://www.w3.org/2000/svg" xmlns:xlink="http://www.w3.org/1999/xlink" x="0px" y="0px"
	 viewBox="0 0 323.129 120.41" style="enable-background:new 0 0 323.129 120.41;" xml:space="preserve">
<g id="paypal">
	<g>
		<g>
			<g>
				<g>
					<path style="fill:#009ADE;" d="M239.278,40.912h-15.82c-1.082,0-2.003,0.787-2.171,1.855l-6.397,40.565
						c-0.126,0.8,0.492,1.524,1.303,1.524h8.117c0.757,0,1.402-0.551,1.52-1.299l1.814-11.5c0.168-1.068,1.089-1.856,2.171-1.856
						h5.006c10.42,0,16.434-5.043,18.006-15.038c0.707-4.371,0.028-7.806-2.018-10.211C248.558,42.31,244.57,40.912,239.278,40.912z
						 M241.103,55.728c-0.865,5.679-5.202,5.679-9.396,5.679h-2.387l1.674-10.602c0.101-0.641,0.654-1.113,1.303-1.113h1.094
						c2.855,0,5.553,0,6.943,1.627C241.166,52.291,241.418,53.734,241.103,55.728z"/>
					<path style="fill:#002F87;" d="M126.444,40.912h-15.82c-1.082,0-2.003,0.787-2.171,1.855l-6.397,40.565
						c-0.126,0.8,0.492,1.524,1.303,1.524h7.553c1.082,0,2.003-0.787,2.171-1.855l1.726-10.944c0.168-1.068,1.089-1.856,2.171-1.856
						h5.006c10.42,0,16.434-5.043,18.006-15.038c0.707-4.371,0.028-7.806-2.018-10.211C135.724,42.31,131.736,40.912,126.444,40.912
						z M128.269,55.728c-0.865,5.679-5.202,5.679-9.396,5.679h-2.387l1.674-10.602c0.101-0.641,0.654-1.113,1.303-1.113h1.094
						c2.855,0,5.553,0,6.943,1.627C128.332,52.291,128.584,53.734,128.269,55.728z"/>
					<path style="fill:#002F87;" d="M173.728,55.546h-7.575c-0.649,0-1.202,0.472-1.303,1.113l-0.333,2.118l-0.53-0.767
						c-1.641-2.381-5.297-3.177-8.948-3.177c-8.369,0-15.518,6.342-16.91,15.237c-0.724,4.438,0.304,8.678,2.82,11.638
						c2.312,2.72,5.611,3.851,9.541,3.851c6.746,0,10.487-4.334,10.487-4.334l-0.338,2.106c-0.127,0.801,0.492,1.525,1.303,1.525
						h6.822c1.081,0,2.002-0.787,2.171-1.855l4.095-25.932C175.157,56.269,174.538,55.546,173.728,55.546z M163.171,70.291
						c-0.732,4.328-4.167,7.234-8.55,7.234c-2.197,0-3.956-0.707-5.087-2.045c-1.121-1.327-1.542-3.216-1.187-5.321
						c0.682-4.29,4.173-7.289,8.489-7.289c2.151,0,3.898,0.713,5.05,2.064C163.047,66.294,163.503,68.196,163.171,70.291z"/>
					<path style="fill:#009ADE;" d="M286.562,55.546h-7.575c-0.649,0-1.202,0.472-1.303,1.113l-0.333,2.118l-0.529-0.767
						c-1.641-2.381-5.297-3.177-8.948-3.177c-8.369,0-15.518,6.342-16.91,15.237c-0.724,4.438,0.304,8.678,2.82,11.638
						c2.312,2.72,5.611,3.851,9.541,3.851c6.746,0,10.487-4.334,10.487-4.334l-0.338,2.106c-0.127,0.801,0.492,1.525,1.303,1.525
						h6.822c1.082,0,2.002-0.787,2.171-1.855l4.095-25.932C287.991,56.269,287.372,55.546,286.562,55.546z M276.005,70.291
						c-0.732,4.328-4.168,7.234-8.55,7.234c-2.197,0-3.956-0.707-5.087-2.045c-1.121-1.327-1.542-3.216-1.187-5.321
						c0.682-4.29,4.173-7.289,8.489-7.289c2.151,0,3.898,0.713,5.05,2.064C275.881,66.294,276.337,68.196,276.005,70.291z"/>
					<path style="fill:#002F87;" d="M214.074,55.546h-7.614c-0.728,0-1.409,0.361-1.818,0.964l-10.503,15.469l-4.451-14.865
						c-0.279-0.93-1.134-1.568-2.106-1.568h-7.485c-0.904,0-1.54,0.889-1.248,1.745l8.384,24.609l-7.886,11.127
						c-0.619,0.873,0.006,2.081,1.076,2.081h7.607c0.721,0,1.396-0.354,1.807-0.946l25.322-36.545
						C215.764,56.742,215.138,55.546,214.074,55.546z"/>
					<path style="fill:#009ADE;" d="M295.491,42.026l-6.493,41.307c-0.126,0.8,0.493,1.524,1.303,1.524h6.53
						c1.082,0,2.002-0.787,2.171-1.855l6.402-40.565c0.126-0.8-0.492-1.524-1.303-1.524h-7.308
						C296.144,40.912,295.591,41.385,295.491,42.026z"/>
				</g>
			</g>
		</g>
	</g>
	<g>
		<path style="fill:#009ADE;" d="M71.021,43.037c0.852-5.43-0.006-9.125-2.943-12.472c-3.234-3.685-9.076-5.263-16.55-5.263H29.832
			c-1.528,0-2.828,1.111-3.066,2.62L17.732,85.21c-0.178,1.13,0.695,2.153,1.84,2.153h13.394l-0.925,5.862
			c-0.156,0.989,0.608,1.883,1.609,1.883H44.94c1.336,0,2.474-0.972,2.682-2.292l0.111-0.574l2.127-13.486l0.137-0.745
			c0.208-1.32,1.346-2.292,2.682-2.292h1.689c10.937,0,19.501-4.444,22.003-17.294c1.046-5.37,0.505-9.852-2.26-13.003
			C73.275,44.468,72.234,43.68,71.021,43.037L71.021,43.037"/>
		<path style="fill:#002169;" d="M71.021,43.037c0.852-5.43-0.006-9.125-2.943-12.472c-3.234-3.685-9.076-5.263-16.55-5.263H29.832
			c-1.528,0-2.828,1.111-3.066,2.62L17.732,85.21c-0.178,1.13,0.695,2.153,1.84,2.153h13.394l3.365-21.335l-0.104,0.669
			c0.238-1.509,1.528-2.62,3.055-2.62h6.366c12.502,0,22.292-5.079,25.152-19.769C70.883,43.873,70.956,43.451,71.021,43.037"/>
		<path style="fill:#002F87;" d="M39.944,43.109c0.143-0.908,0.726-1.651,1.51-2.027c0.357-0.171,0.755-0.266,1.172-0.266h17.007
			c2.015,0,3.893,0.132,5.611,0.408c0.491,0.079,0.968,0.17,1.432,0.273c0.464,0.103,0.914,0.218,1.35,0.346
			c0.218,0.064,0.432,0.13,0.643,0.201c0.843,0.28,1.628,0.61,2.351,0.993c0.852-5.43-0.006-9.125-2.943-12.472
			c-3.234-3.685-9.076-5.263-16.55-5.263H29.832c-1.528,0-2.828,1.111-3.066,2.62L17.732,85.21c-0.178,1.13,0.695,2.152,1.84,2.152
			h13.394l3.364-21.335L39.944,43.109z"/>
	</g>
</g>
<g id="Ebene_1">
</g>
</svg>
