<svg xmlns="http://www.w3.org/2000/svg" viewBox="0 0 323.13 120.41"><defs><style>.a{fill:#a6c307;fill-rule:evenodd;}.b{fill:none;}</style></defs><path class="a" d="M233.63,47.19a2.3,2.3,0,0,1-2.31-2.3V34.67h-.85c-5.28,0-7.25.87-7.25,5.68v13.8c0,.09,0,.17,0,.26V70.14a8.37,8.37,0,0,1-1.13,4.64C220.64,77,217.79,78,213.23,78s-7.42-1-8.86-3.23a8.46,8.46,0,0,1-1.13-4.64V54.41c0-.09,0-.17,0-.26V40.35c0-4.81-2-5.68-7.25-5.68h-1.66c-5.28,0-7.25.87-7.25,5.68V70.14a22.12,22.12,0,0,0,3.17,12.12c4,6.33,11.84,9.71,22.94,9.71h.09c11.1,0,18.91-3.38,22.94-9.71a22.12,22.12,0,0,0,3.17-12.12V47.2Z"/><path class="a" d="M258.05,30.74h-8.69A1.72,1.72,0,0,1,247.64,29h0V20.23a1.72,1.72,0,0,1,1.72-1.72h8.68a1.72,1.72,0,0,1,1.72,1.72V29a1.71,1.71,0,0,1-1.72,1.71M246.47,18.51h-5.9a1.16,1.16,0,0,1-1.16-1.17v-6a1.15,1.15,0,0,1,1.16-1.16h5.9a1.16,1.16,0,0,1,1.17,1.16v6a1.16,1.16,0,0,1-1.17,1.16"/><path class="a" d="M97.09,52.79c0,7.07-1.81,10.9-11.33,10.9H71.11V45.45c0-2.53.94-3.47,3.47-3.47H85.76c7.17,0,11.33,1.77,11.33,10.81M85.76,34.66H73.12c-6.75,0-9.76,3-9.76,9.77V87.8c0,2.61.84,3.44,3.45,3.44h.85c2.61,0,3.45-.83,3.45-3.44V70.92H85.76c13,0,19.07-5.76,19.07-18.13S98.77,34.66,85.76,34.66m46.33,37.09v6c0,4.84-1.8,7.65-11,7.65-6.06,0-9-2.2-9-6.72,0-4.95,3-6.88,10.55-6.88Zm-11-24.65a45,45,0,0,0-9.33.87c-2.11.45-3,1-3,3.43v.68a3.72,3.72,0,0,0,.44,2.05,1.83,1.83,0,0,0,1.66.8,5.36,5.36,0,0,0,1.31-.19,45.78,45.78,0,0,1,9.26-.92c7.55,0,10.64,2.09,10.64,7.23v4.57h-9.53c-12.26,0-18,4.14-18,13,0,8.61,5.89,13.35,16.59,13.35,12.72,0,18.39-4.33,18.39-14V61c0-9.38-6.05-13.94-18.48-13.94Zm60.39,2a3.21,3.21,0,0,0-2.59-.77h-.77c-2.54,0-3.54.78-4.11,3.23L166.94,81c-.89,3.61-2.13,4.28-4.26,4.28-2.6,0-3.65-.63-4.68-4.3l-8-29.45c-.67-2.47-1.65-3.22-4.2-3.22h-.68a3.16,3.16,0,0,0-2.59.78,3.22,3.22,0,0,0-.07,2.72l8.11,29.71C152.07,87.25,153.88,92,160.64,92a10.65,10.65,0,0,0,3.39-.5c-2.05,6.44-4.13,9.29-10.28,9.92-1.25.1-2.06.28-2.51.89a2.91,2.91,0,0,0-.19,2.33l.17.76c.36,1.76,1,2.86,3,2.86.21,0,.44,0,.67,0,9.19-.6,14.11-5.54,17-17l9.82-39.29a3.21,3.21,0,0,0-.16-2.71m63.84-18.39h-11.7A2.31,2.31,0,0,0,231.32,33v1.63h.81c5.29,0,7.25.87,7.25,5.68V47.2h6a2.32,2.32,0,0,0,2.31-2.31V33.05a2.3,2.3,0,0,0-2.31-2.31h0"/><rect class="b" width="323.13" height="120.41"/></svg>