<?xml version="1.0" encoding="iso-8859-1"?>
<!-- Generator: Adobe Illustrator 23.0.1, SVG Export Plug-In . SVG Version: 6.00 Build 0)  -->
<svg version="1.1" xmlns="http://www.w3.org/2000/svg" xmlns:xlink="http://www.w3.org/1999/xlink" x="0px" y="0px"
	 viewBox="0 0 323.129 120.41" style="enable-background:new 0 0 323.129 120.41;" xml:space="preserve">
<g id="sepa">
	<path style="fill:#005DA0;" d="M167.219,68.18c-4.599,0-8.828-1.109-12.266-2.959l1.163-7.667c3.49,1.85,7.085,2.908,10.996,2.908
		c4.336,0,6.24-1.586,6.24-4.336c0-6.238-18.24-3.595-18.24-16.865c0-6.715,4.336-12.16,14.38-12.16
		c3.861,0,8.037,0.793,11.103,2.061l-1.109,7.508c-3.279-1.057-6.556-1.691-9.569-1.691c-4.917,0-6.24,1.691-6.24,3.806
		c0,6.185,18.24,3.331,18.24,16.759C181.917,63.37,176.47,68.18,167.219,68.18z"/>
	<path style="fill:#005DA0;" d="M216.288,59.67l0.001,7.772h-26.962V27.791h26.961l0.001,7.876h-18.027v7.878h14.643v7.083h-14.643
		v9.042H216.288z"/>
	<path style="fill:#005DA0;" d="M238.396,54.541h-5.286v12.9h-8.935V27.791h14.221c10.998,0,15.491,4.334,15.491,13.587
		C253.887,49.73,249.446,54.541,238.396,54.541z M238.396,35.244h-5.286v12.16h5.286c4.388,0,6.292-1.109,6.292-6.079
		C244.688,36.567,242.995,35.244,238.396,35.244z"/>
	<path style="fill:#005DA0;" d="M281.124,59.722h-14.38l-2.22,7.719h-9.41l13.691-39.651h10.628l13.85,39.651h-9.939L281.124,59.722
		z M272.877,38.68l-3.965,13.589h10.098l-3.806-13.589l-1.059-4.177h-0.159L272.877,38.68z"/>
	<path style="fill:#005DA0;" d="M166.901,93.173l-0.099,3.731h-11.66v-18.41h4.173v14.679H166.901z"/>
	<path style="fill:#005DA0;" d="M178.047,95.481l-0.073-0.024c-0.909,1.079-2.332,1.695-4.027,1.695
		c-2.822,0-4.614-1.597-4.614-4.936c0-2.749,1.915-4.639,5.303-4.639c1.104,0,2.061,0.172,2.847,0.417v-0.859
		c0-1.498-0.786-2.187-2.822-2.187c-1.644,0-2.725,0.247-4.1,0.812l-0.32-3.045c1.498-0.638,3.193-0.982,5.106-0.982
		c4.395,0,5.918,1.891,5.918,5.965v9.206h-2.922L178.047,95.481z M177.482,90.522c-0.367-0.148-1.104-0.32-2.11-0.32
		c-1.695,0-2.48,0.664-2.48,1.964c0,1.45,0.859,1.964,2.112,1.964c1.3,0,2.478-0.786,2.478-1.743V90.522z"/>
	<path style="fill:#005DA0;" d="M189.49,97.2c-1.792,0-3.412-0.344-4.665-1.031l0.393-3.142c1.229,0.711,2.972,1.055,4.248,1.055
		c1.523,0,2.16-0.613,2.16-1.498c0-2.381-6.898-1.006-6.898-6.21c0-2.677,1.816-4.592,5.647-4.592c1.496,0,2.97,0.296,4.222,0.81
		l-0.318,3.118c-1.229-0.514-2.873-0.761-3.978-0.761c-1.251,0-1.94,0.492-1.94,1.253c0,2.258,6.801,0.907,6.801,6.04
		C195.161,95.211,193.517,97.2,189.49,97.2z"/>
	<path style="fill:#005DA0;" d="M202.651,84.875v7.611c0,1.154,0.589,1.644,1.768,1.644c0.393,0,0.907-0.073,1.178-0.172
		l0.221,2.774c-0.516,0.223-1.498,0.419-2.553,0.419c-2.97,0-4.42-1.719-4.42-4.543v-7.732h-1.668v-2.847h1.84l0.638-3.365
		l2.996-0.269v3.634h3.314v2.847H202.651z"/>
	<path style="fill:#005DA0;" d="M213.331,97.2c-1.792,0-3.412-0.344-4.665-1.031l0.393-3.142c1.229,0.711,2.972,1.055,4.248,1.055
		c1.523,0,2.16-0.613,2.16-1.498c0-2.381-6.898-1.006-6.898-6.21c0-2.677,1.816-4.592,5.647-4.592c1.496,0,2.97,0.296,4.222,0.81
		l-0.318,3.118c-1.229-0.514-2.873-0.761-3.978-0.761c-1.251,0-1.94,0.492-1.94,1.253c0,2.258,6.801,0.907,6.801,6.04
		C219.002,95.211,217.358,97.2,213.331,97.2z"/>
	<path style="fill:#005DA0;" d="M231.917,85.661c-0.761-0.269-1.668-0.466-2.529-0.466c-2.774,0-3.683,1.154-3.683,4.296
		c0,3.191,1.302,4.442,3.61,4.442c0.982,0,1.915-0.196,2.701-0.565l0.269,2.97c-0.883,0.541-2.209,0.86-3.804,0.86
		c-4.395,0-6.728-2.504-6.728-7.708c0-4.936,2.039-7.71,6.801-7.71c1.251,0,2.65,0.271,3.584,0.64L231.917,85.661z"/>
	<path style="fill:#005DA0;" d="M244.464,96.904v-9.475c0-1.523-0.761-2.308-2.381-2.308c-1.105,0-2.063,0.492-2.529,1.13v10.654
		h-3.806V77.805l3.806-0.196v3.387l-0.049,1.964l0.073,0.05c1.105-0.933,2.454-1.277,3.707-1.277c3.142,0,4.983,2.112,4.983,5.695
		v9.475H244.464z"/>
	<path style="fill:#005DA0;" d="M252.273,96.904V82.126l3.043-0.148l0.344,2.48h0.073c0.933-1.792,2.383-2.677,4.076-2.677
		c0.664,0,1.227,0.099,1.62,0.221l-0.245,3.758c-0.466-0.148-1.031-0.247-1.62-0.247c-1.988,0-3.462,1.45-3.462,3.928v7.463H252.273
		z"/>
	<path style="fill:#005DA0;" d="M267.028,80.431c-1.472,0-2.185-0.417-2.185-1.62c0-1.055,0.713-1.644,2.185-1.644
		c1.498,0,2.16,0.565,2.16,1.644C269.188,79.893,268.526,80.431,267.028,80.431z M265.064,96.904V82.126l3.904-0.172v14.95H265.064z
		"/>
	<path style="fill:#005DA0;" d="M274.442,96.904V84.851h-1.865v-2.822h1.865v-0.64c0-2.233,1.547-4.074,5.106-4.074
		c0.836,0,1.768,0.122,2.407,0.318l-0.223,2.456c-0.441-0.099-0.931-0.148-1.423-0.148c-1.496,0-2.061,0.589-2.061,1.547v0.541
		h3.167v2.822h-3.167v12.053H274.442z"/>
	<path style="fill:#005DA0;" d="M289.222,84.875v7.611c0,1.154,0.589,1.644,1.768,1.644c0.393,0,0.907-0.073,1.178-0.172
		l0.221,2.774c-0.516,0.223-1.498,0.419-2.553,0.419c-2.97,0-4.42-1.719-4.42-4.543v-7.732h-1.668v-2.847h1.84l0.638-3.365
		l2.996-0.269v3.634h3.312v2.847H289.222z"/>
	<path style="fill:#AEB1BC;" d="M87.352,36.44L70.328,23.655L53.307,10.864c-1.185-0.891-2.871-0.653-3.76,0.53L34.562,31.342
		c-0.234,0.311-0.378,0.658-0.459,1.017c-0.259,1.018,0.095,2.142,0.988,2.813l10.142,7.619l13.706,10.296l10.142,7.619
		c0.893,0.671,2.072,0.698,2.977,0.166c0.322-0.177,0.615-0.412,0.849-0.724l14.985-19.948C88.78,39.016,88.538,37.33,87.352,36.44z
		 M52.205,12.39l10.14,7.62l-0.002,0.002l6.854,5.147l6.852,5.149l0.002-0.002l10.143,7.617c0.387,0.291,0.468,0.839,0.182,1.221
		l-2.431,3.35l-11.479-8.624L60.03,24.529l-11.479-8.624l2.431-3.35C51.269,12.174,51.818,12.099,52.205,12.39z M71.39,59.092
		c-0.125,0.167-0.317,0.251-0.513,0.293c-0.221,0.027-0.45-0.023-0.638-0.165L60.04,51.558L46.393,41.306l-10.199-7.662
		c-0.188-0.142-0.3-0.348-0.336-0.567c-0.015-0.199,0.013-0.407,0.138-0.574l2.782-3.704c0,0,3.052-3.949,5.733-7.518l11.479,8.624
		l12.435,9.341l11.479,8.624c-2.681,3.569-5.733,7.518-5.733,7.518L71.39,59.092z"/>
	<g>
		<path style="fill:#005DA0;" d="M90.414,66.939l25.679-34.338l2.619-3.452c0,0,0.051-0.074,0.079-0.112
			c0.186-0.257,0.15-0.595-0.106-0.78l-7.268-5.268c-0.253-0.184-0.588-0.112-0.775,0.142c-0.027,0.037-0.081,0.105-0.081,0.105
			l-0.984,1.256L77.863,66.94l-34.928,0l-13.089,43.145h87.386l-12.344-43.146L90.414,66.939z M32.22,108.367l11.958-39.708l32.4,0
			l-2.793,3.738l-4.019,5.553l-0.457,0.821l-0.422,0.954l-0.432,1.074l-0.451,1.141l-0.433,1.244l-0.426,1.221l-0.403,1.229
			l-0.397,1.205l-0.355,1.144l-0.329,1.054l-0.29,0.919l-0.221,0.767l-0.169,0.587l-0.141,0.363c0,0-0.027,0.078-0.095,0.173
			c-0.081,0.111-0.57,0.561-0.97,0.264c-0.384-0.285-0.342-1.294-0.304-1.773c0.119-1.47,0.237-2.939,0.356-4.409
			c0.042-0.515-0.59-0.807-0.998-0.572c-1.787,1.029-2.855,2.277-3.832,3.704c0.091-0.335,0.182-0.669,0.272-1.003
			c0.411-1.515,0.994-3.082,1.215-4.638c0.126-0.889-0.098-1.945-1.139-2.117c-1.168-0.194-1.932,1.034-2.505,1.844
			c-1.73,2.444-2.754,5.545-4.9,7.671c-0.809,0.801-1.706,1.389-2.871,1.058c-1.346-0.382-1.87,1.205,0.509,1.419
			c2.337,0.211,4.078-2.261,5.142-3.99c0.772-1.255,1.447-2.565,2.199-3.831c0.361-0.608,0.738-1.209,1.153-1.782
			c0.177-0.244,0.514-0.9,0.831-0.987c0.415-0.114,0.309,0.125,0.284,0.452c-0.057,0.739-0.369,1.5-0.563,2.212
			c-0.211,0.779-0.423,1.558-0.634,2.336c-0.453,1.669-0.906,3.338-1.358,5.007c-0.205,0.757,0.793,1.108,1.212,0.511
			c1.666-2.374,2.495-4.388,4.55-5.976c-0.042,0.522-0.084,1.043-0.126,1.565c-0.07,0.863-0.233,1.775-0.174,2.639
			c0.096,1.409,1.163,2.386,2.499,1.77c0.702-0.324,1.203-0.815,1.203-0.815l0.082-0.056l0.282-0.213l0.514-0.341l0.702-0.483
			l0.779-0.582l0.86-0.607l1.012-0.712l1.025-0.756l1.025-0.755l1.025-0.756l1.003-0.763l0.938-0.708l0.864-0.705l0.757-0.589
			l0.601-0.56l0.472-0.451l0.017-0.026l0.013,0.01l3.193-3.774l8.167-10.921l14.493,0l11.276,39.709H32.22z"/>
		<path style="fill:#005DA0;" d="M122.004,30.771l-0.96-0.721c-0.191-0.144-0.465-0.105-0.609,0.086l-12.207,16.24
			c-0.144,0.191-0.105,0.465,0.086,0.609l0.96,0.722c0.191,0.144,0.465,0.105,0.609-0.086l12.207-16.24
			C122.234,31.189,122.195,30.915,122.004,30.771z"/>
		<polygon style="fill:#005DA0;" points="72.975,99.918 97.259,99.918 96.744,97.994 72.975,97.994 49.207,97.994 48.692,99.918 		
			"/>
	</g>
</g>
<g id="Ebene_1">
</g>
</svg>
