<svg xmlns="http://www.w3.org/2000/svg" viewBox="0 0 323.13 120.41"><defs><style>.a{fill:#005da0;}.b{fill:#aeb1bc;}.c{fill:none;}</style></defs><path class="a" d="M167.52,68.6a27.28,27.28,0,0,1-12.91-3.12l1.22-8.07a24.28,24.28,0,0,0,11.57,3.07c4.57,0,6.57-1.67,6.57-4.57,0-6.56-19.2-3.78-19.2-17.75,0-7.07,4.57-12.8,15.14-12.8a32.43,32.43,0,0,1,11.68,2.17l-1.16,7.9a33.54,33.54,0,0,0-10.07-1.78c-5.18,0-6.57,1.78-6.57,4,0,6.51,19.2,3.51,19.2,17.64C183,63.54,177.25,68.6,167.52,68.6Z"/><path class="a" d="M219.16,59.64v8.18H190.79V26.09h28.37v8.29h-19v8.29H215.6v7.46H200.19v9.51Z"/><path class="a" d="M242.43,54.24h-5.56V67.82h-9.41V26.09h15c11.58,0,16.31,4.56,16.31,14.3C258.74,49.18,254.06,54.24,242.43,54.24Zm0-20.31h-5.56v12.8h5.56c4.62,0,6.62-1.17,6.62-6.4C249.05,35.33,247.27,33.93,242.43,33.93Z"/><path class="a" d="M287.4,59.7H272.27l-2.34,8.12H260l14.41-41.73h11.18L300.2,67.82H289.74Zm-8.68-22.15-4.17,14.3h10.63l-4-14.3-1.11-4.4h-.17Z"/><path class="a" d="M167.18,94.9l-.1,3.93H154.8V79.45h4.4V94.9Z"/><path class="a" d="M178.91,97.33l-.07,0a5.43,5.43,0,0,1-4.24,1.78c-3,0-4.86-1.68-4.86-5.19,0-2.9,2-4.89,5.58-4.89a10.38,10.38,0,0,1,3,.44v-.9c0-1.58-.83-2.3-3-2.3a10.32,10.32,0,0,0-4.32.85l-.33-3.2a13.57,13.57,0,0,1,5.37-1c4.63,0,6.23,2,6.23,6.28v9.69h-3.08Zm-.59-5.22a6.54,6.54,0,0,0-2.22-.33c-1.79,0-2.61.7-2.61,2.06,0,1.53.9,2.07,2.22,2.07s2.61-.83,2.61-1.83Z"/><path class="a" d="M191,99.14a10.32,10.32,0,0,1-4.91-1.08l.41-3.31a9.69,9.69,0,0,0,4.47,1.11c1.6,0,2.27-.64,2.27-1.58,0-2.5-7.26-1-7.26-6.53,0-2.82,1.92-4.83,5.95-4.83a11.9,11.9,0,0,1,4.44.85L196,87.05a12.1,12.1,0,0,0-4.19-.8c-1.32,0-2,.52-2,1.32,0,2.37,7.16,1,7.16,6.35C196.93,97.05,195.2,99.14,191,99.14Z"/><path class="a" d="M204.81,86.17v8c0,1.22.62,1.73,1.86,1.73a4.16,4.16,0,0,0,1.24-.18l.23,2.92a7.38,7.38,0,0,1-2.68.44c-3.13,0-4.66-1.81-4.66-4.78V86.17h-1.75v-3H201l.68-3.55,3.15-.28v3.83h3.49v3Z"/><path class="a" d="M216.05,99.14a10.32,10.32,0,0,1-4.91-1.08l.41-3.31A9.72,9.72,0,0,0,216,95.86c1.61,0,2.28-.64,2.28-1.58,0-2.5-7.26-1-7.26-6.53,0-2.82,1.91-4.83,5.94-4.83a11.91,11.91,0,0,1,4.45.85l-.34,3.28a12,12,0,0,0-4.19-.8c-1.31,0-2,.52-2,1.32,0,2.37,7.16,1,7.16,6.35C222,97.05,220.29,99.14,216.05,99.14Z"/><path class="a" d="M235.61,87a8.31,8.31,0,0,0-2.66-.49c-2.92,0-3.88,1.21-3.88,4.52s1.37,4.67,3.8,4.67a6.72,6.72,0,0,0,2.85-.59l.28,3.13a7.84,7.84,0,0,1-4,.9c-4.63,0-7.09-2.63-7.09-8.11,0-5.2,2.15-8.12,7.16-8.12a11.07,11.07,0,0,1,3.77.68Z"/><path class="a" d="M248.82,98.83v-10c0-1.6-.8-2.43-2.51-2.43a3.34,3.34,0,0,0-2.66,1.19V98.83h-4V78.73l4-.21v3.57l-.05,2.07.08,0a6,6,0,0,1,3.9-1.35c3.3,0,5.24,2.23,5.24,6v10Z"/><path class="a" d="M257,98.83V83.28l3.2-.16.36,2.61h.08A4.74,4.74,0,0,1,265,82.91a5.76,5.76,0,0,1,1.7.24l-.25,3.95a6,6,0,0,0-1.71-.26c-2.09,0-3.64,1.53-3.64,4.14v7.85Z"/><path class="a" d="M272.57,81.49c-1.55,0-2.3-.44-2.3-1.7s.75-1.73,2.3-1.73,2.27.59,2.27,1.73S274.14,81.49,272.57,81.49ZM270.5,98.83V83.28l4.11-.18V98.83Z"/><path class="a" d="M280.37,98.83V86.15h-2v-3h2V82.5c0-2.35,1.63-4.29,5.37-4.29a9.29,9.29,0,0,1,2.54.34L288,81.13a7.17,7.17,0,0,0-1.49-.15c-1.58,0-2.17.62-2.17,1.63v.57h3.33v3h-3.33V98.83Z"/><path class="a" d="M295.93,86.17v8c0,1.22.62,1.73,1.86,1.73a4.16,4.16,0,0,0,1.24-.18l.23,2.92a7.44,7.44,0,0,1-2.69.44c-3.12,0-4.65-1.81-4.65-4.78V86.17h-1.75v-3h1.93l.67-3.55,3.16-.28v3.83h3.48v3Z"/><path class="b" d="M83.45,35.19,65.54,21.74,47.62,8.27a2.83,2.83,0,0,0-4,.56l-15.77,21a2.72,2.72,0,0,0-.48,1.07,2.84,2.84,0,0,0,1,3l10.67,8L53.55,52.71l10.67,8a2.84,2.84,0,0,0,3.14.18,2.93,2.93,0,0,0,.89-.76L84,39.15A2.83,2.83,0,0,0,83.45,35.19Zm-37-25.31,10.67,8h0l7.22,5.42,7.21,5.42h0l10.68,8A.94.94,0,0,1,82.43,38l-2.56,3.52L67.79,32.49,54.7,22.66,42.62,13.58l2.55-3.53A.92.92,0,0,1,46.46,9.88ZM66.65,59a.83.83,0,0,1-.54.31.91.91,0,0,1-.67-.17L54.71,51.1,40.34,40.31,29.61,32.25a.89.89,0,0,1-.35-.6.84.84,0,0,1,.14-.6l2.93-3.9s3.21-4.16,6-7.91l12.08,9.07,13.09,9.84,12.08,9.07c-2.82,3.76-6,7.92-6,7.92Z"/><path class="a" d="M86.68,67.29l27-36.14,2.76-3.63.08-.12a.57.57,0,0,0-.11-.82L108.78,21a.58.58,0,0,0-.81.15l-.09.11-1,1.33L73.47,67.29H36.7L22.93,112.71h92l-13-45.42ZM25.43,110.9,38,69.1h34.1L69.17,73l-4.23,5.84-.48.87-.44,1-.46,1.13-.47,1.2-.46,1.31-.44,1.29L61.76,87l-.42,1.27L61,89.44l-.35,1.11-.3,1-.23.81-.18.61-.15.39a.9.9,0,0,1-.1.18c-.09.11-.6.59-1,.28s-.36-1.37-.32-1.87c.12-1.55.25-3.09.37-4.64a.7.7,0,0,0-1-.6,11.8,11.8,0,0,0-4,3.9c.1-.36.19-.71.29-1.06a41.15,41.15,0,0,0,1.27-4.88c.14-.94-.1-2-1.19-2.23s-2,1.09-2.64,1.94c-1.82,2.57-2.9,5.84-5.16,8.07a3,3,0,0,1-3,1.12c-1.42-.4-2,1.27.54,1.49s4.29-2.38,5.41-4.2c.81-1.32,1.52-2.7,2.31-4,.38-.64.78-1.27,1.22-1.88.18-.25.54-.94.87-1s.33.13.3.47a13.49,13.49,0,0,1-.59,2.33c-.22.82-.45,1.64-.67,2.46l-1.43,5.27A.7.7,0,0,0,52.4,95c1.75-2.5,2.62-4.62,4.79-6.29,0,.55-.09,1.09-.14,1.64a20,20,0,0,0-.18,2.78C57,94.57,58.09,95.6,59.5,95a5.13,5.13,0,0,0,1.27-.85l.08-.06.3-.23.54-.36.74-.5.82-.62.9-.64L65.22,91l1.08-.8,1.08-.8,1.08-.79,1.05-.8,1-.75.91-.74.79-.62.64-.59.49-.48,0,0h0l3.36-4,8.59-11.5h15.26l11.86,41.8Z"/><path class="a" d="M119.93,29.23l-1-.76a.46.46,0,0,0-.65.09L105.43,45.65a.46.46,0,0,0,.09.64l1,.76a.46.46,0,0,0,.64-.09L120,29.87A.46.46,0,0,0,119.93,29.23Z"/><polygon class="a" points="68.32 102 93.88 102 93.34 99.98 68.32 99.98 43.31 99.98 42.76 102 68.32 102"/><rect class="c" width="323.13" height="120.41"/></svg>