<svg xmlns="http://www.w3.org/2000/svg" viewBox="0 0 320 120"><defs><style>.a{fill:none;}.b{fill:#37807b;}.c{fill:#fff;}</style></defs><rect class="a" width="320" height="120"/><rect class="b" x="10" y="20" width="300" height="80" rx="9"/><path class="c" d="M44.25,34.5A17.79,17.79,0,0,0,41,34.2a17.22,17.22,0,0,0-3.19.3A15.38,15.38,0,0,0,25,50.14V75.38a5,5,0,0,0,.41,2.28A2.56,2.56,0,0,0,27.65,79a2.69,2.69,0,0,0,1.52-.45c1-.61,1.37-1.63,1.37-3.25V64.87H51.41V75.33A4.53,4.53,0,0,0,52,77.61a2.48,2.48,0,0,0,2.24,1.32h0a2.71,2.71,0,0,0,1.52-.45c1.12-.71,1.27-2,1.27-3.25V50.09A15.32,15.32,0,0,0,44.25,34.5ZM30.65,59.64V50.19c0-4.06,1.42-6.9,4.57-9a10.36,10.36,0,0,1,5.84-1.78,9.47,9.47,0,0,1,2.08.2,10.55,10.55,0,0,1,8.33,10.56v9.5Z"/><path class="c" d="M115.14,64.16a2.49,2.49,0,0,0-1.32.35,3.14,3.14,0,0,0-1.62,2.54l-.26,1.32,0,.36a7.1,7.1,0,0,1-7.16,5.79,9.93,9.93,0,0,1-1.32-.11c-4.31-.66-6.35-3.6-6.35-9.24v-.71h8.23c1,0,3.61,0,3.61-2.64a2.36,2.36,0,0,0-2.14-2.44,9.75,9.75,0,0,0-1.72-.05H97V47.91a5.16,5.16,0,0,0-.4-2.29,2.59,2.59,0,0,0-2.24-1.32,2.72,2.72,0,0,0-1.52.46c-1.12.76-1.27,2-1.27,3.25V64.46c0,9.24,3.35,13.86,10.82,15.08a14.24,14.24,0,0,0,2.64.26h0a12.52,12.52,0,0,0,12.34-9.45,11.81,11.81,0,0,0,.25-1.32,5.17,5.17,0,0,0-.2-3.5A2.47,2.47,0,0,0,115.14,64.16Z"/><path class="c" d="M139.11,44.66a20.36,20.36,0,0,0-4.67.56,17.49,17.49,0,0,0-13.2,20.92c.15.66.35,1.32.55,1.93A17.45,17.45,0,0,0,138.6,79.9a19.21,19.21,0,0,0,4.22-.46A19.62,19.62,0,0,0,149,76.85a15,15,0,0,0,3.25-2.74c1-1.12,1.52-2,1.42-3.1a2.53,2.53,0,0,0-2.54-2.28,1.7,1.7,0,0,0-.5,0h-.11a3.67,3.67,0,0,0-1.72,1l-.05.05-.46.56-.76.71a11.91,11.91,0,0,1-6,3.35,12.83,12.83,0,0,1-2.85.31,12.08,12.08,0,0,1-11.37-7.92c-.2-.61-.36-1.17-.46-1.63h26.46l.45,0,.92-.05a2.55,2.55,0,0,0,2-1c.76-1.12.71-3-.26-6.4A17.94,17.94,0,0,0,139.11,44.66ZM126.72,60.35a11.14,11.14,0,0,1,.46-1.83,12.36,12.36,0,0,1,23.81.76,11.32,11.32,0,0,1,.26,1.12Z"/><path class="c" d="M186.74,53.75l-.1-.36a12.87,12.87,0,0,0-12.39-8.93h-.15a17.66,17.66,0,0,0-2.8.25c-4.62,1-10.1,4.37-10.1,14.42v16.2a4.43,4.43,0,0,0,.56,2.28A2.46,2.46,0,0,0,164,78.93a2.69,2.69,0,0,0,1.52-.45c1.07-.71,1.12-1.83,1.12-3.25V59.18c0-5.48,1.83-8.28,5.89-9.09a9.63,9.63,0,0,1,1.68-.2,7.2,7.2,0,0,1,5.53,2.54,7.35,7.35,0,0,1,1.53,2.74c.55,2.84.91,3.71,1.27,4.21l.05.06,0,.05a2.81,2.81,0,0,0,2.08.91,3,3,0,0,0,1.32-.3c1.73-.92,1.52-3.15,1.17-5.08C187,54.61,186.89,54.15,186.74,53.75Z"/><path class="c" d="M210.05,34.15h-.21c-8.83.1-14.77,6.55-14.77,16V75.38a4.43,4.43,0,0,0,.56,2.28A2.58,2.58,0,0,0,197.91,79a2.69,2.69,0,0,0,1.52-.45,3.54,3.54,0,0,0,1.32-3.25V63.6h8.94c8.13,0,13.71-4.22,15.18-11.63a14.69,14.69,0,0,0-2.94-12.29A15.08,15.08,0,0,0,210.05,34.15ZM219.44,49c-.1,5.49-4.16,9.3-9.9,9.3H200.7V49.58c0-3.8.61-5.63,2.39-7.51a9.12,9.12,0,0,1,6.75-2.74h.26c5.58.15,9.44,4.11,9.34,9.64Z"/><path class="c" d="M262.1,56.64A17.68,17.68,0,0,0,240,45.27a17.55,17.55,0,0,0-12.29,13.2c-1.93,9.5,3.4,18.43,12.44,20.72a20.88,20.88,0,0,0,5,.66,16.17,16.17,0,0,0,12.23-5.18v.66a4.77,4.77,0,0,0,.31,2.28A2.58,2.58,0,0,0,260,78.93a2.74,2.74,0,0,0,1.53-.45,3.57,3.57,0,0,0,1.32-3.25V61.11l-.05-.61A20.91,20.91,0,0,0,262.1,56.64ZM248,74.31a12.22,12.22,0,0,1-3,.36,11.94,11.94,0,0,1-11.68-9.09A10.79,10.79,0,0,1,232.8,63a12.31,12.31,0,0,1,8.53-12.7,13.1,13.1,0,0,1,4-.6,12,12,0,0,1,12.08,12A12,12,0,0,1,248,74.31Z"/><path class="c" d="M294.39,46.74a2.59,2.59,0,0,0-2.23-1.32,2.67,2.67,0,0,0-1.53.46c-1.11.71-1.22,2-1.22,3.25v16c0,5.59-2.89,9.09-7.51,9.09h0a12.62,12.62,0,0,1-1.37-.1c-4.22-.56-6.5-3.55-6.5-8.43V49a5,5,0,0,0-.36-2.29,2.58,2.58,0,0,0-2.23-1.32,2.62,2.62,0,0,0-1.52.46,3.54,3.54,0,0,0-1.32,3.25V65.78c0,6.55,3,11.22,8.42,13a13.84,13.84,0,0,0,4.52.76,12,12,0,0,0,7.87-2.74,1.81,1.81,0,0,1-.1.56v.1c-.5,3.61-2.38,5.79-5.68,6.65a7.59,7.59,0,0,1-2.14.31,6.91,6.91,0,0,1-2.84-.61,6.54,6.54,0,0,1-2.54-2l-.81-1.07-.51-.56c-.25-.3-.51-.55-.76-.81l-.15-.15-.11-.05a2.33,2.33,0,0,0-1.26-.36,2.73,2.73,0,0,0-2.65,2.19c-.2,1.16.31,2.23,1.22,3.6a12.48,12.48,0,0,0,2.54,2.64,12.61,12.61,0,0,0,7.77,2.54h0a16.09,16.09,0,0,0,3.81-.51c6.3-1.62,9.8-6.7,9.8-14.27V49A5.77,5.77,0,0,0,294.39,46.74Z"/><path class="c" d="M87.26,53.75l-.1-.36a12.87,12.87,0,0,0-12.39-8.93h-.15a17.53,17.53,0,0,0-2.79.25c-4.62,1-10.11,4.37-10.11,14.42v16.2a4.43,4.43,0,0,0,.56,2.28,2.48,2.48,0,0,0,2.24,1.32A2.73,2.73,0,0,0,66,78.48c1.12-.76,1.22-2,1.22-3.25l0-3.81V70.3h0V64.41H76c2.64,0,3.25-1.32,3.35-2.44a2.51,2.51,0,0,0-.61-1.87A3.52,3.52,0,0,0,76,59.18H67.21v0c0-5.48,1.82-8.28,5.89-9.09a9.52,9.52,0,0,1,1.67-.2,7,7,0,0,1,5.49,2.54,7.19,7.19,0,0,1,1.52,2.74c.61,2.84.91,3.71,1.27,4.21l0,.05.05.06a3.05,3.05,0,0,0,2.08.91A2.85,2.85,0,0,0,86.55,60c1.73-.91,1.53-3.14,1.17-5.07C87.57,54.61,87.42,54.15,87.26,53.75Z"/></svg>