<svg xmlns="http://www.w3.org/2000/svg" viewBox="0 0 320 120"><defs><style>.a{fill:none;}.b{fill:#37807b;}.c{fill:#fff;}</style></defs><rect class="a" width="320" height="120"/><rect class="b" x="10" y="20" width="300" height="80" rx="9"/><path class="c" d="M52.83,37.54a16.06,16.06,0,0,0-3-.28,15.54,15.54,0,0,0-3,.28A14.23,14.23,0,0,0,35,52V75.39a4.65,4.65,0,0,0,.38,2.11,2.4,2.4,0,0,0,2.08,1.24,2.48,2.48,0,0,0,1.4-.42c.93-.56,1.27-1.51,1.27-3V65.65H59.46v9.69A4.2,4.2,0,0,0,60,77.45a2.29,2.29,0,0,0,2.08,1.22h0a2.47,2.47,0,0,0,1.4-.41c1-.66,1.18-1.86,1.18-3V52A14.18,14.18,0,0,0,52.83,37.54ZM40.23,60.81V52.06c0-3.76,1.32-6.39,4.24-8.33a9.62,9.62,0,0,1,5.4-1.65,8.32,8.32,0,0,1,1.93.19A9.76,9.76,0,0,1,59.51,52v8.8Z"/><path class="c" d="M118.46,65a2.28,2.28,0,0,0-1.22.32,2.91,2.91,0,0,0-1.5,2.35l-.24,1.23v.33a6.57,6.57,0,0,1-6.63,5.36,9.87,9.87,0,0,1-1.22-.1c-4-.61-5.88-3.34-5.88-8.56v-.65h7.62c.93,0,3.34,0,3.34-2.45a2.18,2.18,0,0,0-2-2.26,8.45,8.45,0,0,0-1.59,0h-7.49V50a4.83,4.83,0,0,0-.37-2.12,2.39,2.39,0,0,0-2.08-1.22,2.56,2.56,0,0,0-1.4.42,3.3,3.3,0,0,0-1.18,3V65.28c0,8.55,3.1,12.83,10,14a14.21,14.21,0,0,0,2.44.24h0a11.6,11.6,0,0,0,11.43-8.75,10.09,10.09,0,0,0,.23-1.22,4.75,4.75,0,0,0-.19-3.24A2.27,2.27,0,0,0,118.46,65Z"/><path class="c" d="M140.66,46.94a19.13,19.13,0,0,0-4.33.52,16.2,16.2,0,0,0-12.22,19.37h0c.14.61.33,1.22.51,1.79a16.16,16.16,0,0,0,15.57,10.95,17.53,17.53,0,0,0,9.62-2.82,13.85,13.85,0,0,0,3-2.54,3.76,3.76,0,0,0,1.32-2.87,2.34,2.34,0,0,0-2.35-2.11,1.85,1.85,0,0,0-.47,0h-.1a3.46,3.46,0,0,0-1.59.92l0,0-.42.52-.71.66a11.09,11.09,0,0,1-5.55,3.1,12.34,12.34,0,0,1-2.64.29,11.19,11.19,0,0,1-10.53-7.34c-.18-.56-.33-1.08-.42-1.51h24.91l.85,0a2.39,2.39,0,0,0,1.86-.93c.7-1,.65-2.78-.25-5.92A16.6,16.6,0,0,0,140.66,46.94ZM129.19,61.47a9.71,9.71,0,0,1,.42-1.69,11.45,11.45,0,0,1,22,.7,9.22,9.22,0,0,1,.24,1Z"/><path class="c" d="M184.76,55.36l-.09-.33a11.91,11.91,0,0,0-11.48-8.27h-.14a16.19,16.19,0,0,0-2.59.23c-4.28.92-9.35,4-9.35,13.35v15a4.08,4.08,0,0,0,.52,2.11,2.28,2.28,0,0,0,2.07,1.22,2.52,2.52,0,0,0,1.41-.41c1-.66,1-1.7,1-3V60.39c0-5.08,1.69-7.67,5.45-8.42a9,9,0,0,1,1.56-.19,6.66,6.66,0,0,1,5.12,2.36,6.73,6.73,0,0,1,1.41,2.53c.51,2.63.85,3.44,1.18,3.9l0,.06v0a2.6,2.6,0,0,0,1.92.85,2.87,2.87,0,0,0,1.22-.28c1.61-.85,1.41-2.92,1.09-4.71C185,56.16,184.9,55.73,184.76,55.36Z"/><path class="c" d="M206.34,37.21h-.19C198,37.3,192.47,43.28,192.47,52V75.39A4.13,4.13,0,0,0,193,77.5a2.39,2.39,0,0,0,2.11,1.24,2.53,2.53,0,0,0,1.41-.42,3.29,3.29,0,0,0,1.22-3V64.48H206c7.53,0,12.69-3.91,14.05-10.77a13.57,13.57,0,0,0-2.72-11.38A14,14,0,0,0,206.34,37.21ZM215,51c-.1,5.08-3.86,8.61-9.17,8.61h-8.19V51.5c0-3.52.57-5.22,2.22-7A8.45,8.45,0,0,1,206.15,42h.24A8.47,8.47,0,0,1,215,50.93Z"/><path class="c" d="M254.53,58a16.56,16.56,0,0,0-31.84,1.7c-1.78,8.8,3.15,17.06,11.52,19.18a19,19,0,0,0,4.63.61,14.93,14.93,0,0,0,11.32-4.79v.61a4.46,4.46,0,0,0,.29,2.11,2.4,2.4,0,0,0,2.14,1.22,2.56,2.56,0,0,0,1.42-.41,3.32,3.32,0,0,0,1.22-3V62.17l0-.56A19,19,0,0,0,254.53,58ZM241.48,74.4a11.81,11.81,0,0,1-2.78.33,11.06,11.06,0,0,1-10.81-8.42,9.66,9.66,0,0,1-.48-2.39,11.39,11.39,0,0,1,7.89-11.76,12.26,12.26,0,0,1,3.71-.55,11.11,11.11,0,0,1,11.18,11v.07A11.11,11.11,0,0,1,241.48,74.4Z"/><path class="c" d="M284.43,48.87a2.39,2.39,0,0,0-2.06-1.22,2.46,2.46,0,0,0-1.42.42c-1,.66-1.13,1.85-1.13,3V65.9c0,5.17-2.68,8.41-6.95,8.41h0c-.43,0-.85,0-1.27-.09-3.91-.52-6-3.29-6-7.81V51a4.66,4.66,0,0,0-.33-2.12,2.4,2.4,0,0,0-2.07-1.22,2.46,2.46,0,0,0-1.41.42,3.29,3.29,0,0,0-1.22,3V66.5c0,6.06,2.78,10.39,7.8,12a12.66,12.66,0,0,0,4.18.71,11.12,11.12,0,0,0,7.29-2.54,1.54,1.54,0,0,1-.09.52v.09c-.47,3.34-2.21,5.36-5.26,6.16a7,7,0,0,1-2,.29,6.41,6.41,0,0,1-2.63-.57,6,6,0,0,1-2.35-1.85l-.75-1-.48-.52c-.23-.28-.47-.51-.7-.75l-.14-.14-.1,0a2.1,2.1,0,0,0-1.17-.34,2.53,2.53,0,0,0-2.45,2c-.19,1.07.29,2.06,1.13,3.33a11.34,11.34,0,0,0,9.54,4.8h0a15.47,15.47,0,0,0,3.53-.47C281.76,86.75,285,82,285,75V51A5.43,5.43,0,0,0,284.43,48.87Z"/><path class="c" d="M92.65,55.36,92.56,55a11.9,11.9,0,0,0-11.47-8.27H81a16.09,16.09,0,0,0-2.59.23C74.09,47.91,69,51,69,60.34v15a4.08,4.08,0,0,0,.52,2.11,2.29,2.29,0,0,0,2.07,1.22A2.59,2.59,0,0,0,73,78.26c1-.71,1.12-1.86,1.12-3V70.68h0V65.23h8.13c2.45,0,3-1.22,3.11-2.26a2.32,2.32,0,0,0-.57-1.73,3.21,3.21,0,0,0-2.54-.85H74.09c0-5.08,1.68-7.67,5.45-8.42a9,9,0,0,1,1.55-.19,6.49,6.49,0,0,1,5.08,2.36,6.65,6.65,0,0,1,1.41,2.53c.56,2.63.84,3.44,1.17,3.9v0l0,.05a2.86,2.86,0,0,0,1.92.85A2.8,2.8,0,0,0,92,61.15c1.6-.85,1.42-2.91,1.09-4.7C92.94,56.16,92.8,55.73,92.65,55.36Z"/></svg>