<svg xmlns="http://www.w3.org/2000/svg" width="128" height="64" fill="none"><rect width="128" height="64" fill="#B2FCE4" rx="6"/><path fill="#000" d="m120.434 27.482-3.481-2.007-3.48-2.107a3.522 3.522 0 0 0-4.813 1.298 3.514 3.514 0 0 0-.466 1.764v.426a.775.775 0 0 0 .328.626l1.66.917a.648.648 0 0 0 .897-.224l.023-.035a.677.677 0 0 0 0-.329V26.76a.692.692 0 0 1 .654-.723h.386l3.307 1.868 3.287 1.849a.717.717 0 0 1 .228.982l-.228.232-3.287 1.84-3.291 1.872a.688.688 0 0 1-.948-.22.768.768 0 0 1 0-.387v-.537a3.526 3.526 0 0 0-1.755-3.033 3.535 3.535 0 0 0-3.504-.026l-3.562 2.042-3.48 2.007a3.554 3.554 0 0 0-1.316 4.803c.306.553.762 1.009 1.315 1.315l3.481 2.007 3.562 2.007a3.522 3.522 0 0 0 5.24-3.059v-.43a.747.747 0 0 0-.085-.352.748.748 0 0 0-.244-.27l-1.647-.955a.658.658 0 0 0-.921.263.87.87 0 0 0 0 .387v1.051a.692.692 0 0 1-.653.727.866.866 0 0 1-.387 0l-3.287-1.871-3.291-1.845a.722.722 0 0 1-.387-.92l.232-.229 3.291-1.844 3.287-1.872a.697.697 0 0 1 .952.224.791.791 0 0 1 0 .387v.526a3.515 3.515 0 0 0 1.751 3.045 3.52 3.52 0 0 0 3.512.018l3.535-2.077 3.48-2.007a3.48 3.48 0 0 0 1.16-4.788l-.023-.038a3.327 3.327 0 0 0-1.032-1.246ZM97.466 28.074l-8.187 16.912h-3.295l3.063-6.33-4.803-10.597h3.48l3.094 7.061 3.291-7.073 3.357.027ZM15.58 34.06a3.29 3.29 0 1 0-3.291 3.458 3.291 3.291 0 0 0 3.291-3.283v-.174Zm0 6.026v-1.582a4.904 4.904 0 0 1-3.817 1.78 5.894 5.894 0 0 1-5.758-6.018v-.201a5.987 5.987 0 0 1 5.743-6.219 4.827 4.827 0 0 1 3.743 1.744v-1.497h2.928v11.99l-2.839.003ZM32.917 37.352c-1.056 0-1.315-.387-1.315-1.38v-5.198h1.86v-2.6h-1.86v-3.027h-3.028v2.927H24.63v-1.218c0-.986.387-1.38 1.443-1.38h.661v-2.321h-1.415c-2.502 0-3.686.824-3.686 3.291v1.613h-1.678v2.73h1.678v9.413h2.997v-9.428h3.945v5.89c0 2.467.924 3.519 3.287 3.519h1.648v-2.831h-.592ZM43.776 32.978a2.865 2.865 0 0 0-2.993-2.467 2.927 2.927 0 0 0-3.028 2.467h6.021Zm-5.99 1.872a3 3 0 0 0 3.094 2.796 3.3 3.3 0 0 0 2.83-1.547h3.094a5.886 5.886 0 0 1-5.994 4.184 5.921 5.921 0 0 1-6.311-5.495v-.727a6.218 6.218 0 0 1 12.433 0c.031.249.031.5 0 .75l-9.146.039ZM66.276 34.06a3.291 3.291 0 1 0 0 .167v-.166Zm-9.505 10.926V28.074h2.927v1.547a4.908 4.908 0 0 1 3.817-1.775 5.887 5.887 0 0 1 5.801 5.983v.228a5.988 5.988 0 0 1-5.758 6.222 4.756 4.756 0 0 1-3.663-1.624v6.33H56.77ZM79.966 34.06a3.292 3.292 0 1 0-3.457 3.458h.166a3.291 3.291 0 0 0 3.291-3.291v-.166m0 6.025v-1.582a4.806 4.806 0 0 1-3.786 1.78 5.89 5.89 0 0 1-5.8-5.991v-.232a5.987 5.987 0 0 1 5.75-6.215 4.768 4.768 0 0 1 3.74 1.744v-1.497h2.958v11.99l-2.862.003ZM51.441 29.262a2.993 2.993 0 0 1 2.6-1.416c.442-.012.881.078 1.283.263v3.094a3.817 3.817 0 0 0-2.139-.557 2.104 2.104 0 0 0-1.647 2.32v7.128h-3.055v-12.02h2.958v1.188Z"/></svg>