<svg xmlns="http://www.w3.org/2000/svg" viewBox="0 0 320 120"><defs><style>.a{fill:none;}</style></defs><rect class="a" width="320" height="120"/><path d="M305.89,45.11l-9-5.19-9-5.45a9.1,9.1,0,0,0-13.65,7.92v1.1a2,2,0,0,0,.85,1.62l4.29,2.37a1.68,1.68,0,0,0,2.32-.58h0l.06-.09a1.75,1.75,0,0,0,0-.85V43.24a1.79,1.79,0,0,1,1.69-1.87h1L293,46.2l8.5,4.78a1.85,1.85,0,0,1,.59,2.54l-.59.6L293,58.88l-8.51,4.84a1.77,1.77,0,0,1-2.45-.57h0a2,2,0,0,1,0-1V60.76a9.13,9.13,0,0,0-13.6-7.91l-9.21,5.28-9,5.19a9.19,9.19,0,0,0-3.4,12.42,8.68,8.68,0,0,0,3.4,3.4l9,5.19,9.21,5.19a9.11,9.11,0,0,0,13.55-7.91V80.5a1.91,1.91,0,0,0-.85-1.61l-4.26-2.47a1.7,1.7,0,0,0-2.33.59.41.41,0,0,1-.05.09,2.22,2.22,0,0,0,0,1v2.72a1.79,1.79,0,0,1-1.69,1.88h0a2.24,2.24,0,0,1-1,0l-8.5-4.84-8.51-4.77a1.87,1.87,0,0,1-1-2.38l.6-.59,8.51-4.77,8.5-4.84a1.8,1.8,0,0,1,2.46.58h0a2,2,0,0,1,0,1v1.36a9.11,9.11,0,0,0,13.61,7.92L296.62,66l9-5.19a9,9,0,0,0,3-12.38l-.06-.1A8.62,8.62,0,0,0,305.89,45.11Z"/><path d="M246.5,46.64,225.33,90.37h-8.52L224.73,74l-12.42-27.4h9l8,18.26,8.51-18.29Z"/><path d="M34.76,62.12a8.51,8.51,0,1,0-8.51,8.94h0a8.51,8.51,0,0,0,8.51-8.49v-.45m0,15.58V73.61a12.68,12.68,0,0,1-9.87,4.6A15.24,15.24,0,0,1,10,62.65h0v-.52A15.48,15.48,0,0,1,24.85,46.05h0a12.48,12.48,0,0,1,9.68,4.51V46.69h7.57v31Z"/><path d="M79.59,70.63c-2.73,0-3.4-1-3.4-3.57V53.62H81V46.9H76.19V39.07H68.36v7.57H58.16V43.49c0-2.55,1-3.57,3.73-3.57H63.6v-6H59.94c-6.47,0-9.53,2.13-9.53,8.51v4.17H46.07v7.06h4.34V78h7.75V53.62h10.2V68.85c0,6.38,2.39,9.1,8.5,9.1h4.26V70.63Z"/><path d="M107.67,59.32a7.41,7.41,0,0,0-7.74-6.38,7.57,7.57,0,0,0-7.83,6.38ZM92.18,64.16a7.76,7.76,0,0,0,8,7.23,8.53,8.53,0,0,0,7.32-4h8A15.22,15.22,0,0,1,100,78.21,15.31,15.31,0,0,1,83.68,64V62.12a16.08,16.08,0,0,1,32.15,0h0a7.87,7.87,0,0,1,0,1.94Z"/><path d="M165.85,62.12a8.51,8.51,0,1,0,0,.43v-.43M141.27,90.37V46.64h7.57v4a12.69,12.69,0,0,1,9.87-4.59,15.22,15.22,0,0,1,15,15.47h0v.59A15.48,15.48,0,0,1,158.82,78.2h0A12.3,12.3,0,0,1,149.35,74V90.37Z"/><path d="M201.25,62.12a8.51,8.51,0,1,0-8.94,8.94h.43a8.51,8.51,0,0,0,8.51-8.51v-.43m0,15.58V73.61a12.43,12.43,0,0,1-9.79,4.6,15.23,15.23,0,0,1-15-15.49h0v-.6a15.48,15.48,0,0,1,14.87-16.07h0A12.33,12.33,0,0,1,201,50.56V46.69h7.65v31Z"/><path d="M127.49,49.71a7.74,7.74,0,0,1,6.72-3.66,7.46,7.46,0,0,1,3.32.68v8A9.87,9.87,0,0,0,132,53.29a5.44,5.44,0,0,0-4.26,6V77.72h-7.9V46.64h7.65Z"/></svg>