<svg xmlns="http://www.w3.org/2000/svg" viewBox="0 0 323.13 120.41"><defs><style>.a{fill:#1677ff;}.b{fill:#fff;}.c{fill:none;}</style></defs><path class="a" d="M81.05,25.21H33.88A11.16,11.16,0,0,0,22.76,36.42V84A11.18,11.18,0,0,0,33.88,95.21H81.05A11.18,11.18,0,0,0,92.17,84V36.42A11.16,11.16,0,0,0,81.05,25.21"/><path class="b" d="M79.91,69.16c-2.78-.94-6.51-2.37-10.66-3.89A56.92,56.92,0,0,0,75,50.51H61.36v-5H78.12V42.77H61.36V34.49H54.52a1.17,1.17,0,0,0-1.2,1.19v7.09h-17v2.77h17v5h-14v2.78H66.47a48.88,48.88,0,0,1-3.91,9.63c-8.81-2.93-18.21-5.3-24.11-3.84a13.88,13.88,0,0,0-7.64,4.37c-6.55,8-1.85,20.26,12,20.26,8.19,0,16.07-4.6,22.19-12.19,9.11,4.42,27.17,12,27.17,12V72.72s-2.27-.19-12.26-3.56M41.51,79c-10.79,0-14-8.58-8.65-13.28,1.78-1.58,5-2.36,6.77-2.53C46,62.59,52,65.06,59,68.51,54.06,75,47.79,79,41.51,79"/><path class="a" d="M173.47,35.45c0,3.62,2.65,6.06,6.34,6.06s6.34-2.44,6.34-6.06-2.65-6.06-6.34-6.06-6.34,2.51-6.34,6.06"/><rect x="155.78" y="30.93" width="11" height="50.84"/><path d="M136.49,32.67H121.73l-16.51,49.1h10.17l2.78-9.61h17.48l2.65,9.61h13Zm-16,31.48L127,41.51h.28l6.2,22.64Z"/><rect x="174.31" y="44.44" width="11" height="37.33"/><polygon points="300.3 44.51 300.37 44.44 289.99 44.44 283.44 67.14 283.1 67.14 275.58 44.44 263.25 44.44 278.08 81.91 271.88 93.33 271.88 93.61 281.56 93.61 300.3 44.51"/><path d="M212.68,43.67c-4,0-7.17,1.53-10.72,4.46V44.44H191V93.61h11V81.42a23.65,23.65,0,0,0,6.41.83C218.19,82.25,227,75,227,62.13c0-11.56-6.41-18.46-14.35-18.46m-7,31.69A12,12,0,0,1,202,74.8V54.6a10.83,10.83,0,0,1,6.55-2.36c4.1,0,7.38,3.27,7.38,10.23,0,8.92-4.81,12.89-10.17,12.89"/><path d="M261.09,72.43V56.83c0-8.49-5-13.16-13.86-13.16-5.64,0-9.54,1-16.65,3.13l1.95,8.57c6.48-2.92,9.34-4.18,12.33-4.18,3.62,0,5.23,2.58,5.23,6.55V58c-12.61,2.37-16.51,3.69-19,6.13-1.81,1.81-2.57,4.38-2.57,7.38a10.66,10.66,0,0,0,10.79,11c3.9,0,7-1.46,11.28-4.66l.77,3.9h11Zm-11,.28c-2.93,1.6-4.6,2.23-6.55,2.23-2.65,0-4.32-1.74-4.32-4.53a3.89,3.89,0,0,1,1.05-2.92c1.32-1.32,3.9-2.3,9.82-3.69Z"/><rect class="c" width="323.13" height="120.41"/></svg>