<svg xmlns="http://www.w3.org/2000/svg" width="128" height="64" fill="none"><rect width="128" height="64" fill="#fff" rx="6"/><path fill="#1677FF" d="M31.316 18H12.444A4.464 4.464 0 0 0 8 22.484v19.032A4.464 4.464 0 0 0 12.444 46h18.872a4.465 4.465 0 0 0 4.444-4.484V22.484A4.463 4.463 0 0 0 31.316 18Z"/><path fill="#fff" d="M30.856 35.6c-1.112-.372-2.6-.948-4.26-1.552a22.73 22.73 0 0 0 2.316-5.904H23.44v-2h6.704v-1.116H23.44v-3.316h-2.72a.472.472 0 0 0-.48.464v2.852h-6.8v1.108h6.784v2h-5.6v1.108h10.86a20.187 20.187 0 0 1-1.564 3.844c-3.524-1.172-7.284-2.124-9.644-1.54a5.556 5.556 0 0 0-3.056 1.748c-2.624 3.22-.74 8.108 4.8 8.108 3.276 0 6.432-1.84 8.876-4.876 3.648 1.768 10.868 4.8 10.868 4.8v-4.324s-.908-.072-4.908-1.404ZM15.52 39.532c-4.32 0-5.6-3.432-3.46-5.308.712-.636 2-.944 2.708-1.012 2.564-.256 4.94.728 7.744 2.108-1.992 2.592-4.5 4.212-6.992 4.212Z"/><path fill="#1677FF" d="M68.284 22.1c0 1.448 1.056 2.424 2.532 2.424s2.536-.976 2.536-2.424-1.056-2.424-2.536-2.424a2.4 2.4 0 0 0-2.528 2.264v.16"/><path fill="#000" d="M65.608 20.288h-4.4v20.336h4.4V20.288ZM53.492 20.984h-5.908l-6.604 19.64h4.068l1.116-3.824h6.992l1.06 3.844h5.2l-5.924-19.66Zm-6.4 12.592 2.616-9.052h.112l2.5 9.052h-5.228ZM73.016 25.692h-4.4v14.932h4.4V25.692ZM119.016 25.72l.028-.028h-4.152l-2.62 9.084h-.14l-3.008-9.084h-4.932l5.936 14.988-2.48 4.568v.112h3.872l7.496-19.64ZM83.968 25.388c-1.6 0-2.868.612-4.292 1.78v-1.476h-4.4V45.36h4.4v-4.876c.835.228 1.698.34 2.564.336 3.928 0 7.468-2.896 7.468-8.052 0-4.624-2.564-7.38-5.74-7.38m-2.8 12.672a4.927 4.927 0 0 1-1.504-.22v-8.08a4.327 4.327 0 0 1 2.632-.96c1.644 0 2.952 1.312 2.952 4.096 0 3.564-1.92 5.152-4.068 5.152M103.328 36.892v-6.24c0-3.4-2-5.264-5.54-5.264-2.26 0-3.82.4-6.66 1.252l.8 3.428c2.58-1.172 3.72-1.668 4.92-1.668 1.448 0 2.088 1.028 2.088 2.616v.112c-5.048.948-6.616 1.476-7.584 2.472-.724.724-1.032 1.756-1.032 2.952a4.268 4.268 0 0 0 4.124 4.4h.196c1.56 0 2.8-.588 4.512-1.868l.304 1.56h4.4l-.528-3.752Zm-4.4.112c-1.168.64-1.84.892-2.62.892-1.056 0-1.724-.696-1.724-1.812a1.575 1.575 0 0 1 .4-1.172c.536-.512 1.576-.912 3.944-1.476v3.568Z"/></svg>