<svg xmlns="http://www.w3.org/2000/svg" viewBox="0 0 320 120"><defs><style>.a{fill:none;}.b{fill:#1677ff;}.c{fill:#fff;}</style></defs><rect class="a" width="320" height="120"/><path class="b" d="M79.49,25H32.31A11.16,11.16,0,0,0,21.2,36.21h0V83.79A11.16,11.16,0,0,0,32.31,95H79.49A11.16,11.16,0,0,0,90.6,83.79h0V36.21A11.16,11.16,0,0,0,79.49,25h0"/><path class="c" d="M78.34,69c-2.78-.93-6.5-2.37-10.65-3.88a56.82,56.82,0,0,0,5.79-14.76H59.8v-5H76.56V42.57H59.8V34.28H53a1.18,1.18,0,0,0-1.2,1.16v7.13h-17v2.77H51.76v5h-14v2.77H64.91A50.45,50.45,0,0,1,61,62.72c-8.81-2.93-18.21-5.31-24.11-3.85a13.89,13.89,0,0,0-7.64,4.37c-6.56,8.05-1.85,20.27,12,20.27,8.19,0,16.08-4.6,22.19-12.19,9.12,4.42,27.17,12,27.17,12V72.51S88.34,72.33,78.34,69M40,78.83c-10.8,0-14-8.58-8.65-13.27,1.78-1.59,5-2.36,6.77-2.53,6.41-.64,12.35,1.82,19.36,5.27C52.5,74.78,46.23,78.83,40,78.83"/><path class="b" d="M171.91,35.25c0,3.62,2.64,6.06,6.33,6.06s6.34-2.44,6.34-6.06-2.64-6.06-6.34-6.06a6,6,0,0,0-6.32,5.66c0,.13,0,.27,0,.4"/><rect x="154.22" y="30.72" width="11" height="50.84"/><path d="M134.93,32.46H120.16l-16.51,49.1h10.17L116.61,72h17.48l2.65,9.61h13Zm-16,31.48,6.54-22.63h.28L132,63.94Z"/><rect x="172.74" y="44.23" width="11" height="37.33"/><polygon points="298.74 44.3 298.81 44.23 288.43 44.23 281.88 66.94 281.53 66.94 274.01 44.23 261.68 44.23 276.52 81.7 270.32 93.12 270.32 93.4 280 93.4 298.74 44.3"/><path d="M211.12,43.47c-4,0-7.17,1.53-10.73,4.45V44.23h-11V93.4h11V81.21a23.9,23.9,0,0,0,6.41.84c9.82,0,18.67-7.24,18.67-20.13,0-11.56-6.41-18.45-14.35-18.45m-7,31.68a12.32,12.32,0,0,1-3.76-.55V54.4a10.82,10.82,0,0,1,6.58-2.4c4.11,0,7.38,3.28,7.38,10.24,0,8.91-4.8,12.88-10.17,12.88"/><path d="M259.52,72.23V56.63c0-8.5-5-13.16-13.85-13.16-5.65,0-9.55,1-16.65,3.13l2,8.57c6.45-2.93,9.3-4.17,12.3-4.17,3.62,0,5.22,2.57,5.22,6.54v.28C235.92,60.19,232,61.51,229.58,64c-1.81,1.81-2.58,4.39-2.58,7.38a10.67,10.67,0,0,0,10.31,11h.49c3.9,0,7-1.47,11.28-4.67l.76,3.9h11Zm-11,.28c-2.92,1.6-4.6,2.23-6.55,2.23-2.64,0-4.31-1.74-4.31-4.53a3.94,3.94,0,0,1,1-2.93C240,66,242.6,65,248.52,63.59Z"/></svg>