<svg xmlns="http://www.w3.org/2000/svg" width="128" height="64" fill="none"><rect width="128" height="64" fill="#fff" rx="6"/><path fill="#F79C34" fill-rule="evenodd" d="M51.775 43.174c-4.284 3.162-10.5 4.846-15.835 4.846a28.692 28.692 0 0 1-19.382-7.386c-.4-.374-.04-.857.442-.576a38.932 38.932 0 0 0 19.374 5.137 38.505 38.505 0 0 0 14.78-3.023c.726-.307 1.332.475.62 1.002Z" clip-rule="evenodd"/><path fill="#F79C34" fill-rule="evenodd" d="M53.56 41.135c-.547-.703-3.622-.333-5.007-.164-.419.048-.482-.318-.104-.584 2.454-1.721 6.473-1.224 6.94-.648.468.577-.123 4.614-2.42 6.537-.356.296-.693.139-.536-.254.517-1.272 1.677-4.183 1.127-4.887Z" clip-rule="evenodd"/><path fill="#333E47" fill-rule="evenodd" d="M48.662 28.212v-1.673a.415.415 0 0 1 .408-.423h7.524a.416.416 0 0 1 .43.4v1.46c0 .243-.205.553-.565 1.055l-3.898 5.545a8.374 8.374 0 0 1 4.28.92.782.782 0 0 1 .4.648v1.785a.404.404 0 0 1-.553.374 8.606 8.606 0 0 0-7.929 0c-.262.138-.535-.142-.535-.374v-1.68a2.01 2.01 0 0 1 .28-1.153l4.49-6.462h-3.91a.419.419 0 0 1-.422-.415v-.008ZM21.273 38.673H18.99a.427.427 0 0 1-.407-.374v-11.73a.426.426 0 0 1 .437-.423h2.13a.426.426 0 0 1 .415.374v1.53h.045c.553-1.496 1.597-2.17 2.993-2.17s2.323.689 2.963 2.17a3.367 3.367 0 0 1 5.796-.886c.726.984.576 2.413.576 3.674v7.412a.426.426 0 0 1-.43.423h-2.282a.434.434 0 0 1-.408-.423v-6.222a14.36 14.36 0 0 0-.068-2.196c-.168-.79-.68-1.01-1.339-1.01a1.496 1.496 0 0 0-1.366.961c-.236.591-.213 1.579-.213 2.245v6.211a.428.428 0 0 1-.438.423h-2.282a.43.43 0 0 1-.397-.412v-6.222c0-1.306.213-3.23-1.407-3.23s-1.586 1.883-1.586 3.23v6.211a.426.426 0 0 1-.427.434h-.022ZM63.498 28.286c-1.684 0-1.793 2.294-1.793 3.742s-.018 4.49 1.77 4.49c1.789 0 1.87-2.466 1.87-3.97a10.885 10.885 0 0 0-.34-3.11 1.43 1.43 0 0 0-1.507-1.152Zm-.023-2.39c3.39 0 5.238 2.91 5.238 6.607 0 3.577-2.024 6.413-5.238 6.413-3.322 0-5.137-2.91-5.137-6.536 0-3.626 1.833-6.48 5.137-6.48v-.005ZM73.095 38.673h-2.279a.423.423 0 0 1-.408-.423V26.528a.434.434 0 0 1 .438-.374h2.137a.43.43 0 0 1 .407.325v1.807h.042c.64-1.605 1.534-2.368 3.113-2.368a2.993 2.993 0 0 1 2.664 1.38c.599.936.599 2.515.599 3.649v7.356a.435.435 0 0 1-.438.374H77.06a.434.434 0 0 1-.408-.374v-6.361c0-1.284.15-3.158-1.425-3.158a1.496 1.496 0 0 0-1.325.935 5.239 5.239 0 0 0-.374 2.223v6.308a.434.434 0 0 1-.434.423ZM44.969 38.643a.468.468 0 0 1-.539.053 5.612 5.612 0 0 1-1.31-1.52c-1.253 1.276-2.14 1.658-3.764 1.658-1.92 0-3.416-1.194-3.416-3.558a3.88 3.88 0 0 1 2.436-3.742c1.238-.535 2.967-.628 4.3-.782v-.296c0-.546.044-1.186-.278-1.657a1.522 1.522 0 0 0-1.283-.591 1.74 1.74 0 0 0-1.834 1.37.49.49 0 0 1-.396.422l-2.197-.24a.41.41 0 0 1-.374-.452v-.026c.505-2.65 2.866-3.473 5.018-3.495h.168c1.1 0 2.507.314 3.368 1.122 1.122 1.04 1.002 2.425 1.002 3.933v3.554c0 1.07.446 1.542.865 2.118a.434.434 0 0 1 0 .606c-.468.375-1.295 1.123-1.751 1.52l-.015.003Zm-2.294-5.567c0 .89.023 1.631-.426 2.424a1.87 1.87 0 0 1-1.58 1.037c-.875 0-1.388-.666-1.388-1.658 0-1.942 1.744-2.297 3.394-2.297v.494ZM15.04 38.643a.474.474 0 0 1-.543.053 5.585 5.585 0 0 1-1.306-1.52c-1.254 1.276-2.144 1.658-3.768 1.658-1.92 0-3.416-1.194-3.416-3.558a3.88 3.88 0 0 1 2.436-3.742c1.238-.535 2.967-.628 4.299-.782v-.296c0-.546.045-1.186-.277-1.657a1.53 1.53 0 0 0-1.28-.591 1.74 1.74 0 0 0-1.837 1.37.49.49 0 0 1-.396.422l-2.197-.24a.409.409 0 0 1-.374-.452v-.026c.501-2.65 2.866-3.473 5.018-3.495h.168c1.1 0 2.507.314 3.367 1.122 1.123 1.04 1.003 2.425 1.003 3.933v3.554c0 1.07.446 1.542.865 2.118a.434.434 0 0 1 0 .606c-.468.375-1.295 1.123-1.752 1.52l-.01.003Zm-2.298-5.567c0 .89.022 1.631-.427 2.424a1.87 1.87 0 0 1-1.582 1.037c-.872 0-1.385-.666-1.385-1.658 0-1.942 1.744-2.297 3.394-2.297v.494ZM110.998 42.879v-.864c0-.244.12-.412.374-.397a5.426 5.426 0 0 0 1.632.037 1.912 1.912 0 0 0 1.339-1.182c.374-.857.621-1.545.778-1.998l-4.748-11.768c-.082-.202-.105-.572.292-.572h1.661a.517.517 0 0 1 .517.4l3.446 9.556 3.285-9.556a.519.519 0 0 1 .516-.4h1.568c.397 0 .374.374.296.572l-4.715 12.135c-.61 1.616-1.422 4.187-3.251 4.636a4.797 4.797 0 0 1-2.754-.135.526.526 0 0 1-.236-.464ZM108.783 37.955a.4.4 0 0 1-.4.4h-1.172a.452.452 0 0 1-.456-.4l-.12-.797a6.725 6.725 0 0 1-1.916 1.122c-1.376.535-2.963.625-4.31-.202a3.44 3.44 0 0 1-1.497-2.97 3.63 3.63 0 0 1 .925-2.526c.849-.917 2.08-1.366 3.569-1.366a11.114 11.114 0 0 1 3.117.412v-1.594c0-1.632-.685-2.335-2.496-2.335a12.053 12.053 0 0 0-3.917.666.375.375 0 0 1-.374-.374v-.932a.561.561 0 0 1 .374-.494 11.83 11.83 0 0 1 4.116-.797c2.065 0 4.52.464 4.52 3.64v8.547h.037Zm-2.245-2.343v-2.42c-.85-.191-1.718-.293-2.589-.303-.794 0-1.665.187-2.122.677-.333.378-.509.87-.494 1.373a1.84 1.84 0 0 0 .749 1.609c.606.411 1.541.374 2.424.112a5.26 5.26 0 0 0 2.024-1.047h.008ZM91.515 27.733c2.6 0 3.308 2.043 3.308 4.381 0 1.579-.277 2.993-1.093 3.79-.61.603-1.294.749-2.323.749a5.661 5.661 0 0 1-3.016-1.123v-6.69a5.37 5.37 0 0 1 3.124-1.107Zm-3.52 15.565h-1.569a.4.4 0 0 1-.4-.4V26.553a.4.4 0 0 1 .4-.397h1.198a.46.46 0 0 1 .46.397l.123.857a6.17 6.17 0 0 1 3.952-1.64c3.865 0 5.133 3.185 5.133 6.496 0 3.54-1.942 6.387-5.238 6.387a5.526 5.526 0 0 1-3.663-1.388v5.613a.402.402 0 0 1-.397.419Z" clip-rule="evenodd"/></svg>