<svg xmlns="http://www.w3.org/2000/svg" viewBox="0 0 320 120"><defs><style>.a{fill:none;}.b{fill:#f79c34;}.b,.c{fill-rule:evenodd;}.c{fill:#333e47;}</style></defs><rect class="a" width="320" height="120"/><path class="b" d="M127.32,87.79C115.87,96.24,99.26,100.74,85,100.74A76.65,76.65,0,0,1,33.2,81c-1.07-1-.11-2.29,1.18-1.54A104.1,104.1,0,0,0,86.16,93.19a103,103,0,0,0,39.5-8.08C127.6,84.29,129.22,86.38,127.32,87.79Z"/><path class="b" d="M132.09,82.34c-1.46-1.88-9.68-.89-13.38-.44-1.12.13-1.29-.85-.28-1.56,6.56-4.6,17.3-3.27,18.55-1.73s-.33,12.33-6.47,17.47c-.95.79-1.85.37-1.43-.68C130.46,92,133.56,84.22,132.09,82.34Z"/><path class="c" d="M119,47.8V43.33a1.11,1.11,0,0,1,1.14-1.13h20.06a1.11,1.11,0,0,1,1.15,1.13v3.84c0,.65-.55,1.48-1.51,2.82L129.42,64.81a22.33,22.33,0,0,1,11.44,2.46A2.07,2.07,0,0,1,141.93,69v4.77a1.08,1.08,0,0,1-1.48,1,23.07,23.07,0,0,0-21.19,0c-.7.37-1.43-.38-1.43-1V69.28a5.36,5.36,0,0,1,.75-3.08l12-17.27H120.13A1.12,1.12,0,0,1,119,47.8Z"/><path class="c" d="M45.8,75.76H39.7a1.14,1.14,0,0,1-1.09-1V43.41a1.15,1.15,0,0,1,1.18-1.13h5.68a1.14,1.14,0,0,1,1.11,1v4.09h.12c1.48-4,4.27-5.8,8-5.8s6.21,1.84,7.92,5.8a9,9,0,0,1,15.49-2.37c1.94,2.63,1.54,6.45,1.54,9.82V74.63a1.14,1.14,0,0,1-1.17,1.13H72.4a1.15,1.15,0,0,1-1.09-1.13V58a39.46,39.46,0,0,0-.18-5.87c-.45-2.11-1.82-2.7-3.58-2.7A4,4,0,0,0,63.9,52c-.63,1.58-.57,4.22-.57,6v16.6a1.15,1.15,0,0,1-1.18,1.13H56.06A1.15,1.15,0,0,1,55,74.63V58c0-3.49.57-8.63-3.76-8.63S47,54.4,47,58v16.6A1.15,1.15,0,0,1,45.8,75.76Z"/><path class="c" d="M158.65,48c-4.5,0-4.79,6.13-4.79,10s-.05,12,4.73,12,5-6.59,5-10.61a29.29,29.29,0,0,0-.91-8.31A3.83,3.83,0,0,0,158.65,48Zm-.06-6.39c9.06,0,14,7.78,14,17.66,0,9.56-5.41,17.14-14,17.14-8.88,0-13.73-7.78-13.73-17.47S149.76,41.62,158.59,41.62Z"/><path class="c" d="M184.3,75.76h-6.09a1.14,1.14,0,0,1-1.09-1.13V43.3a1.16,1.16,0,0,1,1.17-1h5.66a1.16,1.16,0,0,1,1.09.87V48h.11c1.71-4.29,4.1-6.33,8.32-6.33a8,8,0,0,1,7.12,3.69c1.6,2.5,1.6,6.72,1.6,9.75V74.77a1.16,1.16,0,0,1-1.17,1h-6.12a1.16,1.16,0,0,1-1.09-1v-17c0-3.43.4-8.44-3.81-8.44a4,4,0,0,0-3.54,2.5,14,14,0,0,0-1,5.94V74.63A1.16,1.16,0,0,1,184.3,75.76Z"/><path class="c" d="M109.13,75.68a1.25,1.25,0,0,1-1.44.14,15,15,0,0,1-3.5-4.06c-3.35,3.41-5.72,4.43-10.06,4.43C89,76.19,85,73,85,66.68a10.36,10.36,0,0,1,6.51-10C94.82,55.25,99.44,55,103,54.59V53.8c0-1.46.12-3.17-.74-4.43a4.08,4.08,0,0,0-3.43-1.58,4.65,4.65,0,0,0-4.9,3.66,1.31,1.31,0,0,1-1.06,1.13l-5.92-.64A1.09,1.09,0,0,1,86,50.66c1.35-7.08,7.66-9.28,13.41-9.34h.45c2.94,0,6.7.84,9,3,3,2.78,2.68,6.48,2.68,10.51v9.5c0,2.86,1.19,4.12,2.31,5.66a1.15,1.15,0,0,1,0,1.62c-1.25,1-3.46,3-4.68,4.06ZM103,60.8c0,2.38.06,4.36-1.14,6.48a5,5,0,0,1-4.22,2.77c-2.34,0-3.71-1.78-3.71-4.43,0-5.19,4.66-6.14,9.07-6.14Z"/><path class="c" d="M29.14,75.68a1.27,1.27,0,0,1-1.45.14,14.8,14.8,0,0,1-3.49-4.06c-3.35,3.41-5.73,4.43-10.07,4.43C9,76.19,5,73,5,66.68a10.36,10.36,0,0,1,6.51-10C14.82,55.25,19.44,55,23,54.59V53.8c0-1.46.12-3.17-.74-4.43a4.08,4.08,0,0,0-3.42-1.58,4.65,4.65,0,0,0-4.91,3.66,1.3,1.3,0,0,1-1.06,1.13l-5.92-.64A1.09,1.09,0,0,1,6,50.66c1.34-7.08,7.66-9.28,13.41-9.34h.45c2.94,0,6.7.84,9,3,3,2.78,2.68,6.48,2.68,10.51v9.5c0,2.86,1.19,4.12,2.31,5.66a1.15,1.15,0,0,1,0,1.62c-1.25,1-3.46,3-4.68,4.06ZM23,60.8c0,2.38.06,4.36-1.14,6.48a5,5,0,0,1-4.23,2.77c-2.33,0-3.7-1.78-3.7-4.43,0-5.19,4.66-6.14,9.07-6.14Z"/><path class="c" d="M285.6,87V84.69c0-.65.32-1.1,1-1.06a14.5,14.5,0,0,0,4.36.1,5.08,5.08,0,0,0,3.58-3.16c1-2.29,1.66-4.13,2.08-5.34L283.93,43.78c-.22-.54-.28-1.53.78-1.53h4.44a1.38,1.38,0,0,1,1.38,1.07l9.21,25.54,8.78-25.54a1.38,1.38,0,0,1,1.38-1.07h4.19c1.06,0,1,1,.79,1.53l-12.6,32.43c-1.63,4.32-3.8,11.19-8.69,12.39a12.81,12.81,0,0,1-7.36-.36A1.4,1.4,0,0,1,285.6,87Z"/><path class="c" d="M279.68,73.84a1.07,1.07,0,0,1-1.07,1.07h-3.13a1.21,1.21,0,0,1-1.22-1.07l-.32-2.13a18.06,18.06,0,0,1-5.12,3c-3.68,1.43-7.92,1.67-11.52-.54a9.18,9.18,0,0,1-4-7.94,9.72,9.72,0,0,1,2.47-6.75c2.27-2.45,5.56-3.65,9.54-3.65a29.56,29.56,0,0,1,8.33,1.1V52.67c0-4.36-1.83-6.24-6.67-6.24a32.26,32.26,0,0,0-10.47,1.78,1,1,0,0,1-1-1V44.72a1.51,1.51,0,0,1,1-1.32,31.41,31.41,0,0,1,11-2.13c5.52,0,12.08,1.24,12.08,9.73V73.84Zm-6-6.26V61.11a33.62,33.62,0,0,0-6.92-.81c-2.12,0-4.45.5-5.67,1.81a5.35,5.35,0,0,0-1.32,3.67,4.9,4.9,0,0,0,2,4.3c1.62,1.1,4.12,1,6.48.3A14.13,14.13,0,0,0,273.66,67.58Z"/><path class="c" d="M233.53,46.52c6.95,0,8.84,5.46,8.84,11.71,0,4.22-.74,8-2.92,10.13-1.63,1.61-3.46,2-6.21,2a15.1,15.1,0,0,1-8.06-3V49.48A14.37,14.37,0,0,1,233.53,46.52Zm-9.41,41.6h-4.19a1.07,1.07,0,0,1-1.07-1.07V43.37a1.07,1.07,0,0,1,1.07-1.06h3.2a1.23,1.23,0,0,1,1.23,1.06l.33,2.29a16.5,16.5,0,0,1,10.56-4.38c10.33,0,13.72,8.51,13.72,17.36,0,9.46-5.19,17.07-14,17.07A14.72,14.72,0,0,1,225.18,72V87.05A1.07,1.07,0,0,1,224.12,88.12Z"/></svg>