<svg xmlns="http://www.w3.org/2000/svg" width="128" height="64" fill="none"><rect width="128" height="64" fill="#016FD0" rx="6"/><path fill="#fff" d="M25 55.17v-20h21.246l2.28 2.962 2.355-2.962H128v18.621s-2.017 1.36-4.349 1.38H80.948l-2.57-3.153v3.152h-8.422v-5.382s-1.15.752-3.637.752h-2.867v4.63H50.701l-2.277-3.025-2.31 3.025H25ZM0 19.988 4.786 8.83h8.278l2.716 6.25V8.83h10.29l1.617 4.518 1.567-4.518h46.19V11.1s2.428-2.271 6.419-2.271l14.987.052 2.669 6.169V8.83h8.611l2.37 3.543V8.83h8.69v20.046h-8.69l-2.271-3.555v3.555H95.577l-1.272-3.16h-3.401l-1.252 3.16h-8.58c-3.433 0-5.628-2.225-5.628-2.225v2.225H62.508l-2.568-3.16v3.16H11.839l-1.272-3.16h-3.39l-1.263 3.16H0v-8.888Z"/><path fill="#016FD0" d="M6.48 11.301.025 26.311h4.203l1.19-3.006h6.926l1.185 3.006h4.295l-6.45-15.01H6.48Zm2.389 3.493 2.11 5.252H6.753l2.117-5.252ZM18.268 26.308v-15.01l5.973.023 3.474 9.677 3.39-9.7h5.926v15.01h-3.753v-11.06l-3.977 11.06H26.01l-3.989-11.06v11.06h-3.753ZM39.598 26.308v-15.01h12.245v3.358H43.39v2.567h8.256v3.16H43.39v2.667h8.453v3.258H39.598ZM54.016 11.301v15.01h3.752v-5.333h1.58l4.5 5.333h4.585l-4.938-5.53a4.571 4.571 0 0 0 4.117-4.61c0-3.159-2.48-4.87-5.246-4.87h-8.35Zm3.752 3.357h4.29c1.028 0 1.777.805 1.777 1.58 0 .998-.97 1.58-1.722 1.58h-4.345v-3.16ZM72.975 26.308h-3.831v-15.01h3.831v15.01ZM82.06 26.308h-.827c-4.001 0-6.43-3.152-6.43-7.443 0-4.397 2.401-7.566 7.455-7.566h4.147v3.554h-4.299c-2.051 0-3.502 1.601-3.502 4.05 0 2.906 1.659 4.127 4.049 4.127h.987l-1.58 3.278ZM90.225 11.301l-6.455 15.01h4.203l1.191-3.006h6.925l1.185 3.006h4.295l-6.45-15.01h-4.894Zm2.389 3.493 2.11 5.252h-4.227l2.117-5.252ZM102.007 26.308v-15.01h4.771l6.092 9.431v-9.43h3.752v15.01h-4.616l-6.246-9.678v9.677h-3.753ZM27.353 52.575v-15.01h12.245v3.358h-8.453v2.568h8.256v3.16h-8.256v2.666h8.453v3.258H27.353ZM87.353 52.575v-15.01h12.245v3.358h-8.453v2.568h8.216v3.16h-8.216v2.666h8.453v3.258H87.353ZM40.074 52.575l5.961-7.412-6.103-7.597h4.727l3.635 4.696 3.648-4.696h4.542l-6.023 7.505 5.973 7.505h-4.727l-3.53-4.623-3.444 4.622h-4.66ZM56.88 37.568v15.01h3.85v-4.74h3.95c3.343 0 5.876-1.773 5.876-5.221 0-2.857-1.987-5.049-5.388-5.049h-8.289Zm3.85 3.395h4.16c1.08 0 1.852.661 1.852 1.728 0 1.002-.768 1.728-1.864 1.728H60.73v-3.456ZM72.185 37.566v15.01h3.753v-5.333h1.58l4.499 5.332h4.586l-4.938-5.53a4.571 4.571 0 0 0 4.117-4.61c0-3.158-2.48-4.87-5.246-4.87h-8.35Zm3.753 3.357h4.29c1.028 0 1.777.805 1.777 1.58 0 .997-.97 1.58-1.722 1.58h-4.345v-3.16ZM101.336 52.575v-3.258h7.51c1.111 0 1.592-.6 1.592-1.26 0-.63-.479-1.268-1.592-1.268h-3.394c-2.95 0-4.592-1.797-4.592-4.496 0-2.406 1.504-4.727 5.887-4.727h7.308l-1.58 3.377h-6.32c-1.208 0-1.58.634-1.58 1.24 0 .621.46 1.308 1.382 1.308h3.555c3.289 0 4.716 1.865 4.716 4.307 0 2.627-1.59 4.777-4.895 4.777h-7.997ZM115.108 52.575v-3.258h7.51c1.111 0 1.593-.6 1.593-1.26 0-.63-.48-1.268-1.593-1.268h-3.393c-2.95 0-4.593-1.797-4.593-4.496 0-2.406 1.504-4.727 5.888-4.727h7.307l-1.58 3.377h-6.32c-1.208 0-1.58.634-1.58 1.24 0 .621.46 1.308 1.383 1.308h3.555c3.288 0 4.715 1.865 4.715 4.307 0 2.627-1.59 4.777-4.894 4.777h-7.998Z"/></svg>