<svg xmlns="http://www.w3.org/2000/svg" viewBox="0 0 320 120"><defs><style>.a{fill:none;}</style></defs><rect class="a" width="320" height="120"/><path d="M94.35,30.46a15.33,15.33,0,0,0,3.53-11,15.23,15.23,0,0,0-10.1,5.23c-2.19,2.53-4.13,6.66-3.63,10.54,3.88.33,7.75-1.94,10.2-4.81"/><path d="M97.84,36c-5.63-.33-10.42,3.2-13.1,3.2s-6.81-3-11.26-3a16.61,16.61,0,0,0-14.12,8.58c-6,10.42-1.59,25.89,4.29,34.38C66.5,83.41,70,88,74.48,87.87c4.29-.17,6-2.77,11.18-2.77s6.72,2.77,11.26,2.69c4.7-.09,7.64-4.21,10.5-8.41a37,37,0,0,0,4.7-9.67c-.08-.08-9.07-3.53-9.15-13.87-.09-8.66,7-12.78,7.39-13-4-6-10.33-6.64-12.52-6.81"/><path d="M154,24.31c12.24,0,20.76,8.43,20.76,20.71s-8.7,20.8-21.06,20.8H140.12V87.37h-9.79V24.31Zm-13.85,33.3h11.23c8.52,0,13.37-4.59,13.37-12.54s-4.85-12.5-13.33-12.5h-11.3v25Z"/><path d="M177.16,74.3c0-8.08,6.16-12.72,17.52-13.41l12.19-.75V56.65c0-5.12-3.36-7.91-9.35-7.91-4.94,0-8.52,2.53-9.26,6.42h-8.83c.26-8.17,7.95-14.11,18.35-14.11,11.19,0,18.49,5.85,18.49,14.94V87.37h-9.05V79.81H207c-2.57,4.94-8.25,8-14.42,8C183.49,87.85,177.16,82.43,177.16,74.3Zm29.71-4.06V66.7L196,67.4c-6.12.39-9.31,2.66-9.31,6.64s3.32,6.34,8.52,6.34C201.85,80.38,206.87,76.14,206.87,70.24Z"/><path d="M224.59,104.24V96.68c.61.08,2.09.17,2.88.17,4.33,0,6.77-1.83,8.26-6.55l.87-2.8L220,41.61h10.23L241.8,78.85h.2l11.54-37.24h10L246.35,89.82c-3.93,11.05-8.44,14.68-18,14.68A27.84,27.84,0,0,1,224.59,104.24Z"/></svg>