<svg xmlns="http://www.w3.org/2000/svg" width="128" height="64" fill="none"><rect width="128" height="64" fill="#fff" rx="6"/><path fill="#000" d="M38.14 21.4a6.132 6.132 0 0 0 1.413-4.4c-1.567.15-3.014.9-4.04 2.092-.876 1.012-1.652 2.664-1.452 4.216 1.552.132 3.1-.776 4.08-1.924M39.537 23.616c-2.252-.132-4.168 1.28-5.24 1.28s-2.724-1.2-4.504-1.2a6.643 6.643 0 0 0-5.648 3.432c-2.4 4.168-.636 10.356 1.716 13.752 1.14 1.7 2.54 3.536 4.332 3.484 1.716-.068 2.4-1.108 4.472-1.108 2.072 0 2.688 1.108 4.504 1.076 1.88-.036 3.056-1.684 4.2-3.364a14.801 14.801 0 0 0 1.88-3.868c-.032-.032-3.628-1.412-3.66-5.548-.036-3.464 2.8-5.112 2.956-5.2-1.6-2.4-4.132-2.656-5.008-2.724M62 18.94c4.897 0 8.305 3.372 8.305 8.284 0 4.912-3.48 8.32-8.424 8.32h-5.432v8.62h-3.916V18.94H62Zm-5.54 13.32h4.493c3.408 0 5.348-1.836 5.348-5.016 0-3.18-1.94-5-5.332-5h-4.52v10l.012.016ZM71.265 38.936c0-3.232 2.464-5.088 7.008-5.364l4.876-.3v-1.396c0-2.048-1.344-3.164-3.74-3.164-1.976 0-3.408 1.012-3.704 2.568h-3.532c.104-3.268 3.18-5.644 7.34-5.644 4.476 0 7.396 2.34 7.396 5.976v12.552h-3.62V41.14H83.2c-1.028 1.976-3.3 3.2-5.768 3.2-3.636.016-6.168-2.152-6.168-5.404Zm11.884-1.624v-1.416l-4.348.28c-2.448.156-3.724 1.064-3.724 2.656s1.328 2.536 3.408 2.536c2.656 0 4.664-1.696 4.664-4.056ZM90.237 50.912v-3.024c.244.032.836.068 1.152.068 1.732 0 2.708-.732 3.304-2.62l.348-1.12L88.4 25.86h4.092l4.628 14.896h.08l4.616-14.896h4l-6.876 19.284c-1.572 4.42-3.376 5.872-7.2 5.872-.504 0-1.006-.035-1.504-.104Z"/></svg>