<svg xmlns="http://www.w3.org/2000/svg" xmlns:xlink="http://www.w3.org/1999/xlink" viewBox="0 0 323.13 120.41"><defs><style>.a{fill:#1e3764;}.b{fill:url(#a);}.c{fill:url(#b);}.d{fill:none;}</style><linearGradient id="a" x1="90.91" y1="61.77" x2="155.7" y2="85.83" gradientTransform="matrix(1, 0, 0, -1, 0, 122)" gradientUnits="userSpaceOnUse"><stop offset="0" stop-color="#005ab9"/><stop offset="1" stop-color="#1e3764"/></linearGradient><linearGradient id="b" x1="166.93" y1="78.12" x2="235.72" y2="101.59" gradientTransform="matrix(1, 0, 0, -1, 0, 122)" gradientUnits="userSpaceOnUse"><stop offset="0" stop-color="#fba900"/><stop offset="1" stop-color="#ffd800"/></linearGradient></defs><path class="a" d="M73,114.76V89.18h7.89c5.74,0,9.43,2.15,9.43,6.61a6,6,0,0,1-2.81,5.3,6.35,6.35,0,0,1,3.76,6.11c0,5.15-3.76,7.56-9.61,7.56Zm5.08-15h3.76c2.3,0,3.29-1.13,3.29-3.21s-1.79-3-4.2-3H78.08Zm0,10.49h3.14c3.07,0,4.86-.76,4.86-3.18s-1.53-3.36-4.42-3.36H78.08Zm23,4.9c-5,0-7.53-2.45-7.53-5.74,0-3.62,3-5.74,7.34-5.77a23.79,23.79,0,0,1,3.26.29v-.88c0-2.23-1.28-3.29-3.73-3.29a12.88,12.88,0,0,0-4.83.88l-.91-4a18.28,18.28,0,0,1,6.32-1.09c5.38,0,8,2.85,8,7.78v10.16a18.21,18.21,0,0,1-8,1.61Zm3.07-4.13v-3.91a12,12,0,0,0-2.6-.29c-1.68,0-3,.66-3,2.37,0,1.54,1.1,2.34,3,2.34a5.67,5.67,0,0,0,2.56-.51Zm8.45,3.69V97.25a22.24,22.24,0,0,1,8.26-1.6c5.33,0,8.4,2.63,8.4,7.49v11.62h-5V103.51c0-2.53-1.17-3.7-3.4-3.7a7.77,7.77,0,0,0-3.22.66v14.29Zm34.29-18-.95,4a11.08,11.08,0,0,0-4.13-.92c-3,0-4.57,2.09-4.57,5.52,0,3.77,1.68,5.71,4.83,5.71a10.32,10.32,0,0,0,4-1l.81,4.06a12.25,12.25,0,0,1-5.27,1.06c-6.06,0-9.57-3.76-9.57-9.72s3.47-9.83,9.28-9.83a14.12,14.12,0,0,1,5.52,1.09Zm10.9,18.46c-5.63,0-9.14-3.91-9.14-9.79s3.51-9.76,9.14-9.76,9.1,3.91,9.1,9.76-3.44,9.79-9.1,9.79Zm0-4.16c2.59,0,3.95-2.16,3.95-5.63s-1.36-5.6-3.95-5.6-4,2.16-4,5.6,1.43,5.63,4,5.63Zm12,3.72V97.25a22.28,22.28,0,0,1,8.26-1.6c5.34,0,8.41,2.63,8.41,7.49v11.62h-5.05V103.51c0-2.53-1.17-3.7-3.4-3.7a7.73,7.73,0,0,0-3.21.66v14.29Zm28,.44c-4.35,0-6.58-2.37-6.58-7.2v-7.89h-2.48v-4h2.48V92l5.05-.26v4.32h4.06v4h-4.06v7.82c0,2.12.88,3.11,2.52,3.11a9.78,9.78,0,0,0,1.94-.22l.25,4.05a14.14,14.14,0,0,1-3.18.33Zm12.74,0c-5,0-7.53-2.45-7.53-5.74,0-3.62,3-5.74,7.34-5.77a23.79,23.79,0,0,1,3.26.29v-.88c0-2.23-1.28-3.29-3.73-3.29a12.88,12.88,0,0,0-4.83.88l-.91-4a18.28,18.28,0,0,1,6.32-1.09c5.38,0,8,2.85,8,7.78v10.16a18.21,18.21,0,0,1-8,1.61Zm3.07-4.13v-3.91a12,12,0,0,0-2.6-.29c-1.68,0-3,.66-3,2.37,0,1.54,1.1,2.34,3,2.34a5.67,5.67,0,0,0,2.56-.51Zm22.15-14.33-1,4a11.08,11.08,0,0,0-4.13-.92c-3,0-4.57,2.09-4.57,5.52,0,3.77,1.68,5.71,4.83,5.71a10.32,10.32,0,0,0,4.05-1l.81,4.06a12.23,12.23,0,0,1-5.26,1.06c-6.07,0-9.58-3.76-9.58-9.72s3.47-9.83,9.28-9.83a14.08,14.08,0,0,1,5.52,1.09ZM247,115.2c-4.35,0-6.58-2.37-6.58-7.2v-7.89h-2.48v-4h2.48V92l5-.26v4.32h4.06v4h-4.06v7.82c0,2.12.88,3.11,2.52,3.11a9.78,9.78,0,0,0,1.94-.22l.25,4.05a14.14,14.14,0,0,1-3.18.33Z"/><path class="b" d="M108.18,76.38c26.69,0,40-17.79,53.38-35.59H73V76.38Z"/><path class="c" d="M215,5.21c-26.69,0-40,17.79-53.39,35.58h88.57V5.21Z"/><rect class="d" width="323.13" height="120.41"/></svg>