<svg xmlns="http://www.w3.org/2000/svg" width="128" height="64" fill="none"><rect width="128" height="64" fill="#fff" rx="6"/><path fill="#1E3764" d="M23.743 56.797V45.18h3.59c2.61 0 4.287.981 4.287 3.009a2.726 2.726 0 0 1-1.282 2.409 2.872 2.872 0 0 1 1.714 2.772c0 2.346-1.714 3.44-4.373 3.44l-3.936-.013Zm2.309-6.818h1.714c1.045 0 1.495-.513 1.495-1.463 0-.95-.814-1.364-1.914-1.364h-1.295v2.827Zm0 4.768h1.432c1.395 0 2.209-.35 2.209-1.445 0-1.095-.7-1.527-2.014-1.527h-1.627v2.972Zm10.454 2.227c-2.273 0-3.422-1.113-3.422-2.608 0-1.646 1.363-2.61 3.34-2.628.495.01.989.055 1.477.137v-.4c0-1.014-.581-1.496-1.695-1.496a5.813 5.813 0 0 0-2.19.4l-.419-1.818a8.285 8.285 0 0 1 2.877-.5c2.441 0 3.636 1.296 3.636 3.541v4.618a8.349 8.349 0 0 1-3.636.732l.032.023Zm1.395-1.877v-1.736a5.707 5.707 0 0 0-1.177-.136c-.768 0-1.363.3-1.363 1.081 0 .696.5 1.064 1.363 1.064.4.013.799-.067 1.164-.232l.013-.04Zm3.841 1.678v-7.936a10.13 10.13 0 0 1 3.754-.732c2.428 0 3.823 1.195 3.823 3.404v5.286h-2.273V51.68c0-1.145-.531-1.677-1.54-1.677a3.445 3.445 0 0 0-1.464.3v6.495l-2.3-.022Zm15.59-8.182-.454 1.818A5.146 5.146 0 0 0 55 49.998c-1.364 0-2.078.945-2.078 2.509 0 1.709.764 2.59 2.191 2.59a4.636 4.636 0 0 0 1.846-.454l.363 1.845a5.615 5.615 0 0 1-2.39.482c-2.76 0-4.355-1.714-4.355-4.422 0-2.71 1.582-4.468 4.222-4.468a6.422 6.422 0 0 1 2.51.5l.022.013Zm4.973 8.404c-2.555 0-4.15-1.777-4.15-4.454 0-2.677 1.595-4.436 4.15-4.436 2.554 0 4.14 1.777 4.14 4.436s-1.563 4.454-4.14 4.454Zm0-1.895c1.181 0 1.795-.982 1.795-2.56 0-1.576-.614-2.54-1.795-2.54-1.182 0-1.819.982-1.819 2.54 0 1.56.65 2.56 1.819 2.56Zm5.454 1.695V48.84c1.195-.48 2.47-.729 3.759-.732 2.422 0 3.818 1.195 3.818 3.404v5.286h-2.273V51.68c0-1.145-.532-1.677-1.545-1.677a3.445 3.445 0 0 0-1.464.3v6.495H67.76Zm12.727.2c-1.978 0-2.991-1.081-2.991-3.272v-3.591h-1.132v-1.818h1.132V46.46l2.272-.113v1.959h1.846v1.818h-1.818v3.554c0 .964.4 1.414 1.15 1.414.295 0 .59-.033.877-.1l.118 1.845c-.475.105-.96.155-1.445.15l-.01.01Zm5.785 0c-2.272 0-3.422-1.113-3.422-2.609 0-1.645 1.364-2.609 3.34-2.627.496.01.99.055 1.478.136v-.4c0-1.013-.582-1.495-1.695-1.495a5.831 5.831 0 0 0-2.191.4l-.418-1.795a8.28 8.28 0 0 1 2.877-.5c2.44 0 3.636 1.295 3.636 3.54v4.619a8.35 8.35 0 0 1-3.636.731h.032Zm1.396-1.877v-1.759a5.707 5.707 0 0 0-1.177-.136c-.768 0-1.364.3-1.364 1.081 0 .696.5 1.064 1.364 1.064.4.013.798-.067 1.163-.232l.014-.018Zm10.104-6.513-.455 1.818a5.146 5.146 0 0 0-1.877-.414c-1.363 0-2.077.946-2.077 2.51 0 1.708.764 2.59 2.19 2.59a4.636 4.636 0 0 0 1.846-.455l.364 1.846a5.613 5.613 0 0 1-2.4.495c-2.759 0-4.354-1.713-4.354-4.422 0-2.71 1.581-4.468 4.222-4.468a6.423 6.423 0 0 1 2.51.5h.03Zm5.041 8.39c-1.978 0-2.991-1.081-2.991-3.272v-3.591h-1.132v-1.818h1.132V46.46l2.272-.113v1.959h1.846v1.818h-1.846v3.554c0 .964.4 1.414 1.15 1.414.296 0 .59-.033.878-.1l.118 1.845c-.475.105-.96.155-1.446.15l.019.01Z"/><path fill="url(#a)" d="M39.738 39.353c12.13 0 18.18-8.09 24.262-16.177H23.743v16.177h15.995Z"/><path fill="url(#b)" d="M88.262 7C76.132 7 70.082 15.086 64 23.176h40.257V7H88.262Z"/><defs><linearGradient id="a" x1="31.888" x2="61.337" y1="32.012" y2="21.072" gradientUnits="userSpaceOnUse"><stop stop-color="#005AB9"/><stop offset="1" stop-color="#1E3764"/></linearGradient><linearGradient id="b" x1="66.436" x2="97.707" y1="24.581" y2="13.909" gradientUnits="userSpaceOnUse"><stop stop-color="#FBA900"/><stop offset="1" stop-color="#FFD800"/></linearGradient></defs></svg>