<svg xmlns="http://www.w3.org/2000/svg" xmlns:xlink="http://www.w3.org/1999/xlink" viewBox="0 0 320 120"><defs><style>.a{fill:none;}.b{fill:#1e3764;}.c{fill:url(#a);}.d{fill:url(#b);}</style><linearGradient id="a" x1="350.35" y1="295.94" x2="415.14" y2="271.87" gradientTransform="translate(-261 -235.91)" gradientUnits="userSpaceOnUse"><stop offset="0" stop-color="#005ab9"/><stop offset="1" stop-color="#1e3764"/></linearGradient><linearGradient id="b" x1="426.36" y1="279.59" x2="495.16" y2="256.11" gradientTransform="translate(-261 -235.91)" gradientUnits="userSpaceOnUse"><stop offset="0" stop-color="#fba900"/><stop offset="1" stop-color="#ffd800"/></linearGradient></defs><rect class="a" width="320" height="120"/><path class="b" d="M71.43,114.56V89h7.9c5.74,0,9.43,2.16,9.43,6.62a6,6,0,0,1-2.82,5.3,6.32,6.32,0,0,1,3.77,6.1c0,5.16-3.77,7.57-9.62,7.57Zm5.08-15h3.77c2.3,0,3.29-1.13,3.29-3.22s-1.79-3-4.21-3H76.51Zm0,10.49h3.15c3.07,0,4.86-.77,4.86-3.18s-1.54-3.36-4.43-3.36H76.51Zm23,4.9c-5,0-7.53-2.45-7.53-5.74,0-3.62,3-5.74,7.35-5.78a22.06,22.06,0,0,1,3.25.3v-.88c0-2.23-1.28-3.29-3.73-3.29a12.79,12.79,0,0,0-4.82.88l-.92-4a18.22,18.22,0,0,1,6.33-1.1c5.37,0,8,2.85,8,7.79v10.16a18.37,18.37,0,0,1-8,1.61Zm3.07-4.13V107a12.55,12.55,0,0,0-2.59-.3c-1.69,0-3,.66-3,2.38,0,1.53,1.1,2.34,3,2.34a5.78,5.78,0,0,0,2.56-.51Zm8.45,3.69V97.05a22.29,22.29,0,0,1,8.26-1.61c5.34,0,8.41,2.63,8.41,7.49v11.63h-5V103.3c0-2.52-1.17-3.69-3.39-3.69a7.58,7.58,0,0,0-3.22.66v14.29Zm34.3-18-1,4a11.32,11.32,0,0,0-4.13-.91c-3,0-4.57,2.08-4.57,5.52,0,3.76,1.68,5.7,4.82,5.7a10.2,10.2,0,0,0,4.06-1l.8,4.06a12.35,12.35,0,0,1-5.26,1.06c-6.07,0-9.58-3.77-9.58-9.73s3.48-9.83,9.29-9.83a14.13,14.13,0,0,1,5.52,1.1ZM156.27,115c-5.62,0-9.13-3.91-9.13-9.8s3.51-9.76,9.13-9.76,9.11,3.91,9.11,9.76S161.94,115,156.27,115Zm0-4.17c2.6,0,3.95-2.16,3.95-5.63s-1.35-5.59-3.95-5.59-4,2.16-4,5.59S153.7,110.83,156.27,110.83Zm12,3.73V97.05a22.34,22.34,0,0,1,8.27-1.61c5.33,0,8.4,2.63,8.4,7.49v11.63h-5V103.3c0-2.52-1.17-3.69-3.4-3.69a7.58,7.58,0,0,0-3.22.66v14.29Zm28,.44c-4.35,0-6.58-2.38-6.58-7.2V99.9h-2.49v-4h2.49V91.82l5-.25v4.31h4.06v4h-4v7.82c0,2.12.88,3.11,2.53,3.11a8.34,8.34,0,0,0,1.93-.22l.26,4.06a14.14,14.14,0,0,1-3.18.33Zm12.73,0c-5,0-7.53-2.45-7.53-5.74,0-3.62,3-5.74,7.35-5.78a22.06,22.06,0,0,1,3.25.3v-.88c0-2.23-1.28-3.29-3.73-3.29a12.83,12.83,0,0,0-4.82.88l-.92-3.95a18.22,18.22,0,0,1,6.33-1.1c5.37,0,8,2.85,8,7.79v10.16a18.37,18.37,0,0,1-8,1.61Zm3.07-4.13V107a12.55,12.55,0,0,0-2.59-.3c-1.69,0-3,.66-3,2.38,0,1.53,1.1,2.34,3,2.34a5.78,5.78,0,0,0,2.56-.51ZM234.3,96.54l-1,4a11.32,11.32,0,0,0-4.13-.91c-3,0-4.57,2.08-4.57,5.52,0,3.76,1.68,5.7,4.82,5.7a10.2,10.2,0,0,0,4.06-1l.8,4.06A12.35,12.35,0,0,1,229,115c-6.07,0-9.58-3.77-9.58-9.73s3.48-9.83,9.29-9.83a14.13,14.13,0,0,1,5.52,1.1ZM245.39,115c-4.35,0-6.58-2.38-6.58-7.2V99.9h-2.49v-4h2.49V91.82l5-.25v4.31h4.06v4h-4.06v7.82c0,2.12.88,3.11,2.53,3.11a8.34,8.34,0,0,0,1.93-.22l.26,4.06a14.14,14.14,0,0,1-3.18.33Z"/><path class="c" d="M106.62,76.18c26.69,0,40-17.8,53.38-35.59H71.43V76.18Z"/><path class="d" d="M213.38,5c-26.69,0-40,17.79-53.38,35.59h88.57V5Z"/></svg>