<svg xmlns="http://www.w3.org/2000/svg" viewBox="0 0 320 120"><defs><style>.a{fill:none;}.b{fill:#f3ba2f;}</style></defs><rect class="a" width="320" height="120"/><polygon class="b" points="24.84 55.09 36.8 43.12 48.77 55.09 55.73 48.13 36.8 29.2 17.88 48.12 24.84 55.09"/><rect class="b" x="8.04" y="55.08" width="9.84" height="9.84" transform="translate(-38.63 26.74) rotate(-45)"/><polygon class="b" points="24.84 64.92 36.8 76.88 48.77 64.91 55.73 71.87 55.73 71.87 36.8 90.8 17.88 71.88 17.87 71.87 24.84 64.92"/><rect class="b" x="55.72" y="55.08" width="9.84" height="9.84" transform="translate(-24.67 60.45) rotate(-45)"/><polygon class="b" points="43.86 60 43.86 60 36.8 52.93 31.58 58.15 31.58 58.15 30.98 58.75 29.74 59.99 29.74 59.99 29.73 60 29.74 60.01 36.8 67.07 43.86 60 43.87 60 43.86 60"/><path class="b" d="M78.45,44.13H93.59q5.64,0,8.53,2.89a7.53,7.53,0,0,1,2.23,5.55v.1a8.1,8.1,0,0,1-.34,2.47,8.49,8.49,0,0,1-.93,1.94,7.52,7.52,0,0,1-1.35,1.51,8.65,8.65,0,0,1-1.64,1.12,11.08,11.08,0,0,1,4.46,2.92,7.48,7.48,0,0,1,1.62,5.11v.09a8.39,8.39,0,0,1-.86,3.92,7.54,7.54,0,0,1-2.47,2.8A11.44,11.44,0,0,1,99,76.23a20.54,20.54,0,0,1-5,.56H78.45Zm13.63,13.2a7.52,7.52,0,0,0,3.78-.81,2.84,2.84,0,0,0,1.4-2.64v-.09a2.9,2.9,0,0,0-1.21-2.5,6,6,0,0,0-3.5-.86h-7.1v6.9ZM94,70.49a6.9,6.9,0,0,0,3.74-.86A3,3,0,0,0,99.08,67v-.1a3.08,3.08,0,0,0-1.26-2.59,6.84,6.84,0,0,0-4.06-1H85.45v7.18Z"/><path class="b" d="M115.19,44.13h7.19V76.79h-7.19Z"/><path class="b" d="M133.26,44.13h6.63L155.2,64.24V44.13h7.09V76.79h-6.11L140.36,56V76.79h-7.1Z"/><path class="b" d="M184.05,43.89h6.62l14,32.9h-7.51l-3-7.32H180.36l-3,7.32h-7.32Zm7.56,19.23-4.34-10.59-4.34,10.59Z"/><path class="b" d="M212.43,44.13h6.63l15.3,20.11V44.13h7.1V76.79h-6.12L219.52,56V76.79h-7.09Z"/><path class="b" d="M267.32,77.35a16.92,16.92,0,0,1-6.67-1.3,16.43,16.43,0,0,1-5.32-3.57,16.12,16.12,0,0,1-3.5-5.35,17.17,17.17,0,0,1-1.26-6.58v-.09a17.07,17.07,0,0,1,1.26-6.56,16.69,16.69,0,0,1,3.5-5.36,16.11,16.11,0,0,1,5.36-3.64,17.45,17.45,0,0,1,6.91-1.33,21.52,21.52,0,0,1,4.18.37,17.26,17.26,0,0,1,3.43,1,15.17,15.17,0,0,1,2.85,1.58,20.73,20.73,0,0,1,2.42,2.06l-4.57,5.27a17.73,17.73,0,0,0-3.9-2.71,10,10,0,0,0-4.46-1,9.09,9.09,0,0,0-6.81,3,10.22,10.22,0,0,0-2,3.24,11.2,11.2,0,0,0-.7,3.95v.09a11.3,11.3,0,0,0,.7,4,10.28,10.28,0,0,0,1.94,3.27,9,9,0,0,0,6.83,3,10.06,10.06,0,0,0,4.74-1,18.56,18.56,0,0,0,3.85-2.8l4.57,4.62a23.47,23.47,0,0,1-2.61,2.42,15.19,15.19,0,0,1-3,1.85A15.9,15.9,0,0,1,271.61,77,21.48,21.48,0,0,1,267.32,77.35Z"/><path class="b" d="M289.17,44.13h24.6v6.39h-17.5v6.63h15.4v6.39h-15.4V70.4H314v6.39H289.17Z"/></svg>