<svg xmlns="http://www.w3.org/2000/svg" width="128" height="64" fill="none"><rect width="128" height="64" fill="#fff" rx="6"/><path fill="#F3BA2F" d="m13.095 30.15 4.504-4.508 4.508 4.509 2.622-2.622-7.13-7.13-7.126 7.127 2.622 2.625ZM8.62 29.38 6 32l2.62 2.621 2.621-2.62-2.62-2.62ZM13.095 33.853l4.504 4.504 4.508-4.508 2.622 2.622-7.13 7.129-7.126-7.126-.003-.003 2.625-2.618ZM26.576 29.378 23.956 32l2.62 2.62 2.62-2.62-2.62-2.62Z"/><path fill="#F3BA2F" d="M20.258 32 17.6 29.337l-1.966 1.966-.226.226-.467.467-.004.004.004.004 2.66 2.659L20.257 32h.004-.004ZM33.286 26.023h5.702c1.416 0 2.487.363 3.212 1.088a2.838 2.838 0 0 1 .84 2.09v.038c.006.315-.037.629-.128.93a3.199 3.199 0 0 1-.35.731 2.834 2.834 0 0 1-.508.569 3.254 3.254 0 0 1-.618.422 4.173 4.173 0 0 1 1.68 1.1c.434.544.651 1.23.61 1.924v.034a3.16 3.16 0 0 1-.324 1.476 2.839 2.839 0 0 1-.93 1.055c-.44.298-.93.513-1.447.633a7.737 7.737 0 0 1-1.883.21h-5.856v-12.3Zm5.133 4.971c.493.024.984-.08 1.424-.305a1.07 1.07 0 0 0 .527-.994v-.034a1.092 1.092 0 0 0-.456-.942 2.26 2.26 0 0 0-1.318-.323h-2.674v2.598h2.497Zm.723 4.957c.49.027.98-.085 1.409-.324a1.131 1.131 0 0 0 .505-.99v-.038a1.16 1.16 0 0 0-.475-.976 2.576 2.576 0 0 0-1.53-.376h-3.129v2.704h3.22ZM47.123 26.023h2.708v12.3h-2.708v-12.3ZM53.928 26.023h2.498l5.766 7.574v-7.574h2.67v12.3H62.56l-5.959-7.83v7.83H53.93v-12.3ZM73.057 25.933h2.494l5.272 12.39h-2.828l-1.13-2.756h-5.197l-1.13 2.757H67.78l5.276-12.391Zm2.848 7.242-1.635-3.988-1.634 3.988h3.269ZM83.746 26.023h2.497l5.763 7.574v-7.574h2.674v12.3h-2.305l-5.959-7.83v7.83h-2.67v-12.3ZM104.419 38.534a6.372 6.372 0 0 1-2.512-.49 6.18 6.18 0 0 1-2.004-1.344 6.069 6.069 0 0 1-1.318-2.015 6.466 6.466 0 0 1-.474-2.478v-.034a6.428 6.428 0 0 1 .474-2.47 6.283 6.283 0 0 1 1.318-2.02 6.06 6.06 0 0 1 2.019-1.37 6.57 6.57 0 0 1 2.602-.501 8.111 8.111 0 0 1 1.575.14c.442.08.875.206 1.292.376.378.16.738.359 1.073.595.323.235.628.494.911.776l-1.721 1.985a6.643 6.643 0 0 0-1.469-1.021 3.764 3.764 0 0 0-1.679-.377 3.427 3.427 0 0 0-2.565 1.13c-.326.356-.581.77-.753 1.22a4.22 4.22 0 0 0-.264 1.488v.034a4.232 4.232 0 0 0 .264 1.507c.164.452.412.87.73 1.231a3.388 3.388 0 0 0 2.573 1.13 3.792 3.792 0 0 0 1.785-.377 7.004 7.004 0 0 0 1.45-1.054l1.721 1.74a8.858 8.858 0 0 1-.983.911c-.348.276-.728.51-1.13.697-.414.203-.85.357-1.299.46a8.091 8.091 0 0 1-1.616.131ZM112.648 26.023h9.265v2.407h-6.591v2.497h5.8v2.406h-5.8v2.584H122v2.407h-9.352V26.023Z"/></svg>