<svg xmlns="http://www.w3.org/2000/svg" viewBox="0 0 320 120"><defs><style>.a{fill:none;}.b{fill:#f7931a;}.c{fill:#4d4d4d;}</style></defs><rect class="a" width="320" height="120"/><path class="b" d="M57,51.37l-1.49,6c1.68.41,6.87,2.12,7.71-1.24S58.69,51.79,57,51.37Z"/><path class="b" d="M54.77,60.32l-1.63,6.55c2,.5,8.24,2.5,9.17-1.19h0C63.27,61.82,56.79,60.82,54.77,60.32Z"/><path class="b" d="M63.7,33.67a27.14,27.14,0,1,0,19.77,32.9A27.13,27.13,0,0,0,63.7,33.67Zm5.41,22.46h0a4.76,4.76,0,0,1-3.8,4.38C68,61.9,69.34,64,68,67.73c-1.6,4.59-5.42,5-10.5,4l-1.23,4.94-3-.74,1.21-4.88c-.77-.19-1.56-.39-2.37-.61L51,75.35l-3-.74,1.23-5-2.13-.55-3.87-1,1.48-3.41s2.19.58,2.16.54a1.09,1.09,0,0,0,1.37-.71l1.94-7.81.32.08a2.15,2.15,0,0,0-.31-.1l1.39-5.57a1.58,1.58,0,0,0-1.39-1.73S48,48.9,48,48.9l.79-3.18,4.11,1v0l1.91.44L56,42.31l3,.75-1.19,4.79,2.38.56,1.19-4.76,3,.74-1.22,4.89C66.9,50.58,69.65,52.52,69.11,56.13Z"/><path class="c" d="M109.55,49.28a12.88,12.88,0,0,1,5.7,1.17,11.41,11.41,0,0,1,4,3.16,13.22,13.22,0,0,1,2.33,4.67,21.35,21.35,0,0,1,.76,5.77,23.46,23.46,0,0,1-6.53,16.32,22.38,22.38,0,0,1-7.14,4.94,21.78,21.78,0,0,1-8.93,1.82l-2.17,0A33.38,33.38,0,0,1,94,86.8c-1.33-.19-2.74-.47-4.23-.83a21.24,21.24,0,0,1-4.23-1.51L97.46,34.51l10.64-1.65-4.25,17.73a16.57,16.57,0,0,1,2.74-1,12.13,12.13,0,0,1,3-.35Zm-8.93,29.41a9.38,9.38,0,0,0,4.53-1.17,11.84,11.84,0,0,0,3.68-3.13A15.87,15.87,0,0,0,111.27,70a15.21,15.21,0,0,0,.89-5.16,10.18,10.18,0,0,0-1.1-5.15c-.73-1.23-2.08-1.85-4-1.85a12.65,12.65,0,0,0-2.51.34,6.22,6.22,0,0,0-2.78,1.45L97.19,78.41l.72.14a6.12,6.12,0,0,0,.64.1c.24,0,.51,0,.83,0Z"/><path class="c" d="M133.37,86.18H123.2L131.79,50H142Zm4.94-40.54a6.28,6.28,0,0,1-3.84-1.27,4.48,4.48,0,0,1-1.72-3.88,6.41,6.41,0,0,1,.58-2.71,7.06,7.06,0,0,1,1.55-2.2,7.42,7.42,0,0,1,2.23-1.48,6.87,6.87,0,0,1,2.71-.55,6.37,6.37,0,0,1,3.85,1.27,4.55,4.55,0,0,1,1.72,3.89,6.41,6.41,0,0,1-.59,2.71,7.2,7.2,0,0,1-1.54,2.2A7.55,7.55,0,0,1,141,45.1a6.74,6.74,0,0,1-2.72.54Z"/><path class="c" d="M150.93,41l10.65-1.65L159,50h11.4l-2.06,8.38H157l-3,12.64a14,14,0,0,0-.48,3,5.37,5.37,0,0,0,.34,2.38,3,3,0,0,0,1.48,1.54,6.7,6.7,0,0,0,3,.55,16,16,0,0,0,3.2-.31,22,22,0,0,0,3.12-.86l.76,7.84a36.2,36.2,0,0,1-4.46,1.3,25.76,25.76,0,0,1-5.71.55,15.81,15.81,0,0,1-7.35-1.4,8.18,8.18,0,0,1-3.71-3.86,12.2,12.2,0,0,1-1-5.59,35.86,35.86,0,0,1,1-6.67L150.93,41Z"/><path class="c" d="M169.93,71.75a25.35,25.35,0,0,1,1.51-8.8,21.45,21.45,0,0,1,4.33-7.21,20.22,20.22,0,0,1,6.84-4.88,21.79,21.79,0,0,1,9-1.79,23.74,23.74,0,0,1,5.53.59,22.58,22.58,0,0,1,4.43,1.54l-3.5,8c-.92-.37-1.87-.7-2.85-1a12.56,12.56,0,0,0-3.61-.45,10,10,0,0,0-8.07,3.51c-2,2.33-3,5.47-3,9.41A9.7,9.7,0,0,0,182,76.32q1.51,2.16,5.56,2.16a18,18,0,0,0,3.85-.41,18.35,18.35,0,0,0,3.3-1l.76,8.17a37.61,37.61,0,0,1-4.26,1.35,23.76,23.76,0,0,1-5.57.58,18.75,18.75,0,0,1-7.21-1.24,13.77,13.77,0,0,1-4.88-3.33,12.62,12.62,0,0,1-2.78-4.92,20.14,20.14,0,0,1-.86-5.9Z"/><path class="c" d="M215.1,87.14a16.7,16.7,0,0,1-6.33-1.1,11.62,11.62,0,0,1-4.42-3.1,13.3,13.3,0,0,1-2.65-4.7,19,19,0,0,1-.89-6A26.27,26.27,0,0,1,202.15,64a23.43,23.43,0,0,1,3.95-7.42,21,21,0,0,1,6.39-5.4,17.58,17.58,0,0,1,8.65-2.1,16.74,16.74,0,0,1,6.29,1.11,11.71,11.71,0,0,1,4.47,3.09A13.48,13.48,0,0,1,234.54,58a19.23,19.23,0,0,1,.89,6,27.52,27.52,0,0,1-1.3,8.25,23.82,23.82,0,0,1-3.85,7.42A20.15,20.15,0,0,1,223.93,85a18,18,0,0,1-8.83,2.1Zm5.08-29.41a6.39,6.39,0,0,0-4,1.31,11,11,0,0,0-2.88,3.3,16,16,0,0,0-1.76,4.36,18.78,18.78,0,0,0-.58,4.5,11,11,0,0,0,1.09,5.36q1.11,1.92,4,1.92a6.38,6.38,0,0,0,4-1.31,11.08,11.08,0,0,0,2.88-3.29,16.6,16.6,0,0,0,1.76-4.36,19.36,19.36,0,0,0,.58-4.5,10.9,10.9,0,0,0-1.1-5.36,4.22,4.22,0,0,0-4-1.93Z"/><path class="c" d="M246.51,86.18H236.33L244.92,50h10.24Zm4.94-40.54a6.29,6.29,0,0,1-3.85-1.27,4.5,4.5,0,0,1-1.72-3.88,6.41,6.41,0,0,1,.59-2.71,7.06,7.06,0,0,1,1.55-2.2,7.55,7.55,0,0,1,2.23-1.48,6.84,6.84,0,0,1,2.71-.55,6.37,6.37,0,0,1,3.85,1.27,4.55,4.55,0,0,1,1.72,3.89,6.57,6.57,0,0,1-.59,2.71,7,7,0,0,1-1.54,2.2,7.68,7.68,0,0,1-2.23,1.48A6.74,6.74,0,0,1,251.45,45.64Z"/><path class="c" d="M262.49,51.69l2.57-.79c.94-.3,2-.57,3.17-.82a36.57,36.57,0,0,1,3.91-.62,42.38,42.38,0,0,1,4.91-.25q8,0,11.1,4.68t1.07,12.78l-4.68,19.51H274.3l4.54-19.1c.27-1.2.49-2.35.65-3.48a8.5,8.5,0,0,0,0-3,3.57,3.57,0,0,0-1.27-2.06,4.89,4.89,0,0,0-3.06-.79,20.19,20.19,0,0,0-4.05.42l-6.67,28H254.17Z"/></svg>