<svg xmlns="http://www.w3.org/2000/svg" width="128" height="64" fill="none"><rect width="128" height="64" fill="#fff" rx="6"/><path fill="#F7931A" d="m24.385 28.674-.573 2.308c.646.157 2.642.815 2.965-.477.323-1.293-1.742-1.67-2.392-1.83ZM23.527 32.116l-.626 2.52c.769.191 3.169.96 3.526-.459.37-1.484-2.123-1.869-2.9-2.06Z"/><path fill="#F7931A" d="M26.962 21.867a10.438 10.438 0 1 0-5.049 20.256 10.438 10.438 0 0 0 5.049-20.256Zm2.08 8.638a1.83 1.83 0 0 1-1.461 1.684c1.034.535 1.55 1.342 1.034 2.777-.615 1.765-2.084 1.923-4.038 1.538l-.473 1.9-1.153-.285.465-1.876c-.296-.073-.6-.15-.912-.235l-.426 1.888-1.154-.284.473-1.923-.82-.212-1.488-.384.57-1.312s.842.223.83.208a.417.417 0 0 0 .527-.273l.746-3.004.123.031a.82.82 0 0 0-.119-.038l.535-2.142a.608.608 0 0 0-.535-.666l-.842-.173.304-1.223 1.58.385.735.17L24 25.19l1.154.288-.457 1.842.915.216.458-1.83 1.153.284-.469 1.88c1.438.5 2.496 1.246 2.288 2.635Z"/><path fill="#4D4D4D" d="M44.594 27.87a4.953 4.953 0 0 1 2.192.45c.598.284 1.124.7 1.539 1.216.415.533.72 1.143.896 1.796.198.722.296 1.469.292 2.219a9.022 9.022 0 0 1-2.511 6.276 8.604 8.604 0 0 1-2.746 1.9 8.377 8.377 0 0 1-3.434.7h-.835c-.46-.018-.918-.06-1.373-.127a17.527 17.527 0 0 1-1.627-.32 8.167 8.167 0 0 1-1.626-.58l4.584-19.21 4.092-.634-1.635 6.818c.34-.159.692-.287 1.054-.384a4.662 4.662 0 0 1 1.154-.135l-.016.015ZM41.16 39.18c.61 0 1.209-.154 1.742-.45.55-.299 1.032-.709 1.416-1.203.4-.51.717-1.08.938-1.688a5.848 5.848 0 0 0 .342-1.985 3.914 3.914 0 0 0-.423-1.98c-.28-.473-.8-.712-1.538-.712a4.856 4.856 0 0 0-.965.131 2.392 2.392 0 0 0-1.07.558l-1.761 7.222.277.054c.081.017.163.03.246.038h.32l.476.016ZM53.755 42.061h-3.911l3.303-13.914h3.927l-3.319 13.914Zm1.9-15.59a2.415 2.415 0 0 1-1.477-.489 1.722 1.722 0 0 1-.661-1.492c-.003-.36.073-.715.223-1.042.142-.318.345-.605.596-.846.249-.24.54-.433.857-.57.33-.14.684-.212 1.043-.211a2.45 2.45 0 0 1 1.48.488 1.749 1.749 0 0 1 .662 1.496c.001.36-.076.716-.227 1.043a2.77 2.77 0 0 1-.592.846c-.254.24-.548.433-.87.569-.33.14-.686.211-1.046.207h.012ZM60.508 24.686l4.096-.634-.992 4.095h4.384l-.792 3.223h-4.361l-1.154 4.861a5.384 5.384 0 0 0-.185 1.154c-.026.31.019.624.131.915.11.26.313.471.57.592.362.158.757.23 1.153.212.413.002.825-.038 1.23-.12.408-.08.81-.19 1.2-.33l.293 3.015c-.56.203-1.134.37-1.716.5a9.907 9.907 0 0 1-2.195.211 6.082 6.082 0 0 1-2.827-.538 3.146 3.146 0 0 1-1.427-1.484 4.692 4.692 0 0 1-.384-2.15c.047-.865.176-1.724.384-2.565l2.592-10.957ZM67.815 36.512a9.75 9.75 0 0 1 .58-3.385 8.25 8.25 0 0 1 1.666-2.772 7.778 7.778 0 0 1 2.63-1.877 8.381 8.381 0 0 1 3.462-.688 9.132 9.132 0 0 1 2.126.227 8.69 8.69 0 0 1 1.704.592l-1.346 3.076c-.354-.142-.72-.269-1.096-.384a4.828 4.828 0 0 0-1.388-.173 3.846 3.846 0 0 0-3.104 1.35c-.769.896-1.154 2.103-1.154 3.618a3.73 3.73 0 0 0 .562 2.173c.387.554 1.1.831 2.138.831.498 0 .994-.052 1.48-.158.435-.088.86-.217 1.27-.384l.292 3.142c-.535.205-1.082.378-1.638.519a9.137 9.137 0 0 1-2.142.223 7.211 7.211 0 0 1-2.773-.477 5.294 5.294 0 0 1-1.877-1.28 4.853 4.853 0 0 1-1.069-1.893 7.747 7.747 0 0 1-.33-2.269l.007-.011ZM85.186 42.43a6.423 6.423 0 0 1-2.434-.423 4.468 4.468 0 0 1-1.7-1.192 5.114 5.114 0 0 1-1.019-1.807 7.307 7.307 0 0 1-.342-2.308c.002-1.077.175-2.147.515-3.169a9.012 9.012 0 0 1 1.52-2.853 8.077 8.077 0 0 1 2.457-2.077 6.762 6.762 0 0 1 3.326-.808 6.438 6.438 0 0 1 2.42.427 4.503 4.503 0 0 1 1.718 1.189c.458.53.803 1.147 1.015 1.815.236.746.351 1.525.343 2.307a10.587 10.587 0 0 1-.5 3.173 9.16 9.16 0 0 1-1.48 2.854 7.75 7.75 0 0 1-2.443 2.05 6.923 6.923 0 0 1-3.396.807v.015Zm1.954-11.31a2.458 2.458 0 0 0-1.538.504 4.23 4.23 0 0 0-1.108 1.269 6.15 6.15 0 0 0-.677 1.677 7.227 7.227 0 0 0-.223 1.73c-.036.712.108 1.42.42 2.062.284.492.797.738 1.538.738a2.453 2.453 0 0 0 1.538-.504c.45-.344.826-.774 1.108-1.265a6.389 6.389 0 0 0 .677-1.677 7.442 7.442 0 0 0 .222-1.73 4.191 4.191 0 0 0-.422-2.062 1.624 1.624 0 0 0-1.539-.742h.004ZM97.266 42.061H93.35l3.303-13.914h3.939l-3.327 13.914Zm1.9-15.59a2.42 2.42 0 0 1-1.48-.489 1.732 1.732 0 0 1-.662-1.492c-.002-.36.076-.716.227-1.042.142-.318.344-.605.596-.846.25-.24.54-.432.857-.57a2.63 2.63 0 0 1 1.042-.211 2.45 2.45 0 0 1 1.481.488 1.744 1.744 0 0 1 .662 1.496c-.001.36-.078.715-.227 1.043a2.68 2.68 0 0 1-.593.846c-.25.238-.54.43-.857.569-.33.14-.687.211-1.046.207ZM103.411 28.797l.989-.304c.361-.115.769-.219 1.219-.315a16.314 16.314 0 0 1 3.392-.335c2.051 0 3.474.6 4.269 1.8.794 1.2.931 2.838.411 4.915l-1.8 7.503h-3.938l1.746-7.345c.104-.462.189-.904.25-1.339a3.241 3.241 0 0 0 0-1.153 1.37 1.37 0 0 0-.488-.792 1.882 1.882 0 0 0-1.177-.304 7.774 7.774 0 0 0-1.558.161l-2.565 10.768h-3.949l3.199-13.26Z"/></svg>