<svg xmlns="http://www.w3.org/2000/svg" viewBox="0 0 320 120"><defs><style>.a{fill:none;}.b{fill:#0033ad;}</style></defs><rect class="a" width="320" height="120"/><path class="b" d="M23.47,59.77a4.56,4.56,0,0,0,4.28,4.8H28a4.54,4.54,0,1,0-4.53-4.8Z"/><path class="b" d="M6.55,58.61a1.47,1.47,0,0,0-.17,2.93,1.46,1.46,0,0,0,.17-2.92Z"/><path class="b" d="M23.18,33.43a1.47,1.47,0,1,0-2-.65,1.49,1.49,0,0,0,2,.66Z"/><path class="b" d="M27.79,41.46a2.27,2.27,0,1,0-3.05-1h0A2.27,2.27,0,0,0,27.79,41.46Z"/><path class="b" d="M12.29,47a1.87,1.87,0,1,0-.53-2.59h0A1.87,1.87,0,0,0,12.29,47Z"/><path class="b" d="M15.05,57.79a2.26,2.26,0,0,0-2.39,2.12h0a2.27,2.27,0,1,0,2.4-2.13Z"/><path class="b" d="M12.54,73a1.86,1.86,0,1,0,2.51.82A1.86,1.86,0,0,0,12.54,73Z"/><path class="b" d="M21.35,53.1a2.67,2.67,0,1,0-.76-3.7h0A2.67,2.67,0,0,0,21.35,53.1Z"/><path class="b" d="M49.31,41.28a2.27,2.27,0,1,0-.66-3.15,2.27,2.27,0,0,0,.66,3.15Z"/><path class="b" d="M54,33.27a1.47,1.47,0,1,0-.39-2l0,0h0A1.47,1.47,0,0,0,54,33.27Z"/><path class="b" d="M49.66,55.45a4.54,4.54,0,0,0-.82,9l.3,0h.26A4.54,4.54,0,0,0,52.79,57,4.47,4.47,0,0,0,49.66,55.45Z"/><path class="b" d="M29.28,52.79a4.53,4.53,0,1,0,4.08-6.54h0A4.54,4.54,0,0,0,28.8,50.8h0A4.46,4.46,0,0,0,29.28,52.79Z"/><path class="b" d="M64.87,47a1.86,1.86,0,1,0-1.68-3.33h0A1.86,1.86,0,0,0,64.87,47Z"/><path class="b" d="M53.36,48.42a2.67,2.67,0,1,0,3.55,1.17A2.67,2.67,0,0,0,53.36,48.42Z"/><path class="b" d="M38.53,32.59a1.87,1.87,0,1,0-1.76-2h0a1.88,1.88,0,0,0,1.73,2Z"/><path class="b" d="M38.51,44.34A2.67,2.67,0,1,0,36,41.52h0A2.68,2.68,0,0,0,38.51,44.34Z"/><path class="b" d="M24.05,71.58a2.67,2.67,0,1,0-3.58-1.19h0A2.66,2.66,0,0,0,24,71.58Z"/><path class="b" d="M40.24,48.23a4.53,4.53,0,1,0,3.8-2A4.54,4.54,0,0,0,40.24,48.23Z"/><path class="b" d="M48.13,67.21a4.54,4.54,0,1,0-4.05,6.59,4.62,4.62,0,0,0,2-.5A4.56,4.56,0,0,0,48.13,67.21Z"/><path class="b" d="M56.06,66.9a2.67,2.67,0,1,0,.76,3.7h0A2.67,2.67,0,0,0,56.06,66.9Z"/><path class="b" d="M64.75,60.08a2.27,2.27,0,1,0-2.4,2.13h0A2.27,2.27,0,0,0,64.75,60.08Z"/><path class="b" d="M71,58.46A1.47,1.47,0,1,0,72.41,60h0A1.47,1.47,0,0,0,71,58.46Z"/><path class="b" d="M65.12,73a1.87,1.87,0,1,0,.53,2.59h0A1.88,1.88,0,0,0,65.12,73Z"/><path class="b" d="M23.45,86.73a1.47,1.47,0,1,0,.39,2l0,0A1.46,1.46,0,0,0,23.45,86.73Z"/><path class="b" d="M54.22,86.57a1.47,1.47,0,1,0,2,.65h0a1.49,1.49,0,0,0-2-.66Z"/><path class="b" d="M37.17,71.76a4.53,4.53,0,1,0-3.8,2A4.54,4.54,0,0,0,37.17,71.76Z"/><path class="b" d="M28.1,78.73a2.26,2.26,0,1,0,.66,3.14,2.26,2.26,0,0,0-.66-3.14Z"/><path class="b" d="M38.68,87.41a1.87,1.87,0,1,0,1.76,2,1.87,1.87,0,0,0-1.76-2Z"/><path class="b" d="M38.7,75.66a2.67,2.67,0,1,0,2.51,2.83h0A2.68,2.68,0,0,0,38.7,75.66Z"/><path class="b" d="M49.62,78.54a2.27,2.27,0,1,0,3.05,1h0A2.27,2.27,0,0,0,49.62,78.54Z"/><path class="b" d="M99.7,49.28c4.39,0,7.47,2.41,7.47,6.9h5.76c0-7.87-5.8-11.66-13.32-11.66-9.23,0-14.59,5-14.59,15.61,0,10.85,5.36,15.6,14.59,15.6,7.61,0,13.32-3.69,13.32-11.56h-5.54c0,4.39-3,6.81-7.69,6.81-6.11,0-8.93-3.38-8.93-10.42v-.87C90.78,52.79,93.63,49.28,99.7,49.28Z"/><path class="b" d="M128.15,45.06,116.41,75.21h5.81l2.41-6.55h13.79l2.48,6.55H147L135.23,45.06ZM126.39,63.9l3.08-8.26c.61-1.63,1.71-5.14,1.93-5.76h.22c.22.62,1.32,4.18,1.93,5.76l3.08,8.26Z"/><path class="b" d="M178.35,54.2c0-5.58-3.21-9.14-9.84-9.14H152.59V75.21h5.63V63.55h9.36l5.7,11.66h6.16L173,62.68C176.55,61.28,178.35,58.29,178.35,54.2Zm-10.29,4.61h-9.84v-9h9.84c3,0,4.62,1.62,4.62,4.35a4.25,4.25,0,0,1-3.81,4.65,5.48,5.48,0,0,1-.81,0Z"/><path class="b" d="M198.09,45.06H186V75.21h12c9.1,0,14.63-4.75,14.63-15.08S207.18,45.06,198.09,45.06ZM207,60.57c-.05,6.6-3.17,9.85-8.88,9.85H191.7V49.85h6.42c5.7,0,8.88,3.25,8.88,9.84Z"/><path class="b" d="M227.46,45.06,215.71,75.21h5.81l2.41-6.55h13.81l2.46,6.55h6.06L234.53,45.06ZM225.7,63.9l3.07-8.26c.61-1.63,1.71-5.14,1.93-5.76h.23c.22.62,1.32,4.18,1.93,5.76l3.08,8.26Z"/><path class="b" d="M272,63c0,.57.09,2.11.09,2.37l-.22.09c-.13-.17-1-1.71-1.49-2.42L257.29,45H251.9V75.21h5.4V57.14c0-.74-.09-2.19-.09-2.41l.22-.14c.14.18.79,1.46,1.49,2.47l13.19,18.15h5.27V45.06H272Z"/><path class="b" d="M299.79,44.53c-9.45,0-15.16,5-15.16,15.6s5.7,15.6,15.16,15.6,15.21-5,15.21-15.6S309.24,44.53,299.79,44.53Zm9.45,16.09c0,6.9-3.29,10.37-9.45,10.37s-9.4-3.47-9.4-10.37v-.93c0-6.9,3.34-10.41,9.4-10.41s9.45,3.51,9.45,10.41Z"/></svg>