<svg xmlns="http://www.w3.org/2000/svg" width="128" height="64" fill="none"><rect width="128" height="64" fill="#fff" rx="6"/><path fill="#0033AD" d="M12.883 31.914a1.707 1.707 0 0 0 1.602 1.797h.093a1.7 1.7 0 1 0-1.695-1.797ZM6.55 31.48a.55.55 0 0 0-.064 1.096.548.548 0 0 0 .064-1.093v-.003ZM12.774 22.055a.55.55 0 1 0-.425.035c.14.047.293.035.425-.031v-.004ZM14.5 25.06a.85.85 0 1 0-1.142-.373.85.85 0 0 0 1.142.374ZM8.698 27.134a.7.7 0 1 0-.198-.97.7.7 0 0 0 .198.97ZM9.731 31.173a.846.846 0 0 0-.894.793.85.85 0 1 0 .898-.797l-.004.004ZM8.792 36.866a.696.696 0 1 0 .635 1.24.696.696 0 0 0-.635-1.24ZM12.09 29.417a1 1 0 1 0-.285-1.385.999.999 0 0 0 .284 1.385ZM22.555 24.993a.85.85 0 1 0 .926-1.424.85.85 0 0 0-.927 1.424ZM24.31 21.995a.55.55 0 1 0-.146-.748.55.55 0 0 0 .146.748ZM22.686 30.297a1.699 1.699 0 0 0-.307 3.369H22.588a1.698 1.698 0 0 0 1.269-2.789 1.675 1.675 0 0 0-1.171-.58ZM15.057 29.301a1.696 1.696 0 1 0 1.528-2.447 1.7 1.7 0 0 0-1.707 1.703c.001.258.063.513.18.744ZM28.378 27.134a.7.7 0 0 0-.096-1.286.7.7 0 0 0-.532.04.698.698 0 1 0 .628 1.246ZM24.07 27.666a.999.999 0 1 0 .882 1.793.999.999 0 0 0-.882-1.793ZM18.52 21.74a.7.7 0 1 0-.66-.748.704.704 0 0 0 .648.749h.012ZM18.512 26.139a1 1 0 1 0-.94-1.056 1.003 1.003 0 0 0 .94 1.056ZM13.1 36.334a.999.999 0 1 0-1.34-.445.996.996 0 0 0 1.321.445h.019ZM19.16 27.595a1.696 1.696 0 1 0 2.813 1.893 1.696 1.696 0 0 0-2.813-1.893ZM22.113 34.699a1.7 1.7 0 1 0-1.516 2.466 1.729 1.729 0 0 0 1.602-1.169 1.707 1.707 0 0 0-.086-1.297ZM25.081 34.583a1 1 0 1 0 .284 1.385.999.999 0 0 0-.284-1.385ZM28.334 32.03a.85.85 0 1 0-.899.797.85.85 0 0 0 .899-.797ZM30.673 31.424A.55.55 0 1 0 31.2 32a.552.552 0 0 0-.528-.576ZM28.472 36.866a.7.7 0 1 0 .198.97.704.704 0 0 0-.198-.97ZM12.875 42.005a.55.55 0 1 0 .146.748.547.547 0 0 0-.146-.748ZM24.392 41.945a.55.55 0 1 0 .749.243.558.558 0 0 0-.749-.247v.004ZM18.01 36.402a1.695 1.695 0 1 0-2.812-1.894 1.695 1.695 0 0 0 2.813 1.894ZM14.616 39.01a.845.845 0 1 0-.92 1.42.845.845 0 0 0 .92-1.42ZM18.576 42.26a.7.7 0 1 0-.079 1.398.7.7 0 0 0 .079-1.399ZM18.583 37.861a1 1 0 1 0 .94 1.06 1.003 1.003 0 0 0-.94-1.06ZM22.67 38.94a.85.85 0 1 0 1.142.374.85.85 0 0 0-1.142-.375ZM41.415 27.988c1.643 0 2.796.902 2.796 2.582h2.156c0-2.945-2.171-4.364-4.986-4.364-3.454 0-5.46 1.871-5.46 5.843 0 4.06 2.006 5.839 5.46 5.839 2.849 0 4.986-1.382 4.986-4.327h-2.074c0 1.643-1.123 2.549-2.878 2.549-2.287 0-3.342-1.265-3.342-3.9v-.326c.003-2.583 1.07-3.896 3.342-3.896ZM52.064 26.408l-4.395 11.285h2.175l.902-2.451h5.162l.928 2.451h2.283l-4.405-11.285h-2.65Zm-.66 7.052 1.154-3.092c.228-.61.64-1.924.722-2.156h.082c.083.232.494 1.565.723 2.156l1.153 3.092h-3.833ZM70.853 29.83c0-2.09-1.201-3.422-3.683-3.422h-5.959v11.285h2.108V33.33h3.503l2.133 4.364h2.306l-2.41-4.69c1.328-.524 2.002-1.643 2.002-3.174Zm-3.851 1.725h-3.683v-3.369h3.683c1.123 0 1.729.606 1.729 1.628a1.59 1.59 0 0 1-1.73 1.74ZM78.242 26.408h-4.526v11.285h4.492c3.406 0 5.476-1.778 5.476-5.644 0-3.867-2.04-5.64-5.442-5.64Zm3.335 5.806c-.02 2.47-1.187 3.686-3.324 3.686H75.85v-7.699h2.403c2.133 0 3.324 1.216 3.324 3.683v.33ZM89.235 26.408l-4.398 11.285h2.174l.902-2.451h5.17l.92 2.451h2.268l-4.39-11.285h-2.646Zm-.66 7.052 1.15-3.092c.228-.61.64-1.924.722-2.156h.086c.083.232.494 1.565.723 2.156l1.153 3.092h-3.833ZM105.905 33.123c0 .213.034.79.034.887l-.082.034c-.049-.064-.374-.64-.558-.906l-4.899-6.752h-2.018v11.307h2.021V30.93c0-.277-.033-.82-.033-.902l.082-.053c.052.067.296.546.558.925l4.937 6.793h1.972V26.408h-2.014v6.715ZM116.307 26.21c-3.537 0-5.674 1.871-5.674 5.839 0 3.967 2.133 5.839 5.674 5.839 3.541 0 5.693-1.872 5.693-5.84 0-3.967-2.156-5.838-5.693-5.838Zm3.537 6.022c0 2.583-1.231 3.882-3.537 3.882s-3.518-1.3-3.518-3.882v-.348c0-2.583 1.25-3.896 3.518-3.896s3.537 1.313 3.537 3.896v.348Z"/></svg>