<svg xmlns="http://www.w3.org/2000/svg" viewBox="0 0 323.13 120.41"><defs><style>.a{fill:#0033ad;}.b{fill:none;}</style></defs><path class="a" d="M25,60a4.54,4.54,0,0,0,4.27,4.8h.25A4.54,4.54,0,1,0,25,60Z"/><path class="a" d="M8.11,58.82A1.45,1.45,0,0,0,6.57,60.2a1.46,1.46,0,1,0,1.55-1.38Z"/><path class="a" d="M24.75,33.63a1.47,1.47,0,1,0-2-.65,1.47,1.47,0,0,0,2,.65Z"/><path class="a" d="M29.35,41.66a2.27,2.27,0,1,0-3-1,2.27,2.27,0,0,0,3,1Z"/><path class="a" d="M13.86,47.18a1.87,1.87,0,0,0,2.05-3.12,1.88,1.88,0,0,0-2.59.54h0A1.86,1.86,0,0,0,13.86,47.18Z"/><path class="a" d="M16.62,58a2.27,2.27,0,1,0,2.13,2.4A2.27,2.27,0,0,0,16.62,58Z"/><path class="a" d="M14.1,73.23a1.87,1.87,0,1,0,2.51.83,1.86,1.86,0,0,0-2.51-.83Z"/><path class="a" d="M22.92,53.31a2.67,2.67,0,1,0-.77-3.7,2.66,2.66,0,0,0,.77,3.7Z"/><path class="a" d="M50.87,41.48a2.27,2.27,0,1,0-.66-3.14,2.26,2.26,0,0,0,.66,3.14Z"/><path class="a" d="M55.52,33.48a1.47,1.47,0,1,0-.42-2h0A1.48,1.48,0,0,0,55.52,33.48Z"/><path class="a" d="M51.23,55.65a4.54,4.54,0,1,0-.52,9.06H51a4.53,4.53,0,0,0,3.38-7.56A4.47,4.47,0,0,0,51.23,55.65Z"/><path class="a" d="M30.84,53a4.54,4.54,0,0,0,8.6-2A4.45,4.45,0,0,0,39,48.9,4.54,4.54,0,0,0,30.84,53Z"/><path class="a" d="M66.43,47.18a1.87,1.87,0,1,0-2.51-.83A1.88,1.88,0,0,0,66.43,47.18Z"/><path class="a" d="M54.92,48.62a2.67,2.67,0,1,0,3.59,1.19,2.68,2.68,0,0,0-3.59-1.19Z"/><path class="a" d="M40.1,32.79a1.87,1.87,0,1,0-1.76-2h0A1.87,1.87,0,0,0,40.1,32.79Z"/><path class="a" d="M40.08,44.54a2.66,2.66,0,1,0-2.52-2.81A2.66,2.66,0,0,0,40.08,44.54Z"/><path class="a" d="M25.62,71.79A2.67,2.67,0,1,0,22,70.6h0A2.68,2.68,0,0,0,25.62,71.79Z"/><path class="a" d="M41.8,48.44a4.54,4.54,0,1,0,3.8-2A4.53,4.53,0,0,0,41.8,48.44Z"/><path class="a" d="M49.69,67.42a4.54,4.54,0,1,0-4,6.58,4.39,4.39,0,0,0,2-.5A4.54,4.54,0,0,0,49.69,67.42Z"/><path class="a" d="M57.62,67.1a2.67,2.67,0,1,0,.77,3.7A2.66,2.66,0,0,0,57.62,67.1Z"/><path class="a" d="M66.31,60.28a2.26,2.26,0,1,0-2.39,2.14A2.26,2.26,0,0,0,66.31,60.28Z"/><path class="a" d="M72.59,58.67A1.47,1.47,0,1,0,74,60.22h0A1.47,1.47,0,0,0,72.59,58.67Z"/><path class="a" d="M66.68,73.23a1.87,1.87,0,1,0,.54,2.58,1.86,1.86,0,0,0-.54-2.58Z"/><path class="a" d="M25,86.93a1.47,1.47,0,1,0,.42,2,1.48,1.48,0,0,0-.42-2Z"/><path class="a" d="M55.79,86.78a1.47,1.47,0,0,0,1.32,2.62,1.47,1.47,0,0,0,.65-2h0a1.46,1.46,0,0,0-2-.65Z"/><path class="a" d="M38.74,72a4.54,4.54,0,1,0-6.29,1.31A4.55,4.55,0,0,0,38.74,72Z"/><path class="a" d="M29.67,78.93a2.27,2.27,0,1,0,.65,3.14A2.27,2.27,0,0,0,29.67,78.93Z"/><path class="a" d="M40.25,87.62a1.87,1.87,0,1,0,1.76,2,1.87,1.87,0,0,0-1.76-2Z"/><path class="a" d="M40.27,75.87a2.67,2.67,0,1,0,2.5,2.82h0A2.65,2.65,0,0,0,40.27,75.87Z"/><path class="a" d="M51.18,78.75a2.27,2.27,0,1,0,3,1h0a2.26,2.26,0,0,0-3-1Z"/><path class="a" d="M101.26,49.48c4.4,0,7.48,2.42,7.48,6.9h5.75c0-7.86-5.8-11.65-13.31-11.65-9.23,0-14.6,5-14.6,15.6,0,10.86,5.37,15.6,14.6,15.6,7.6,0,13.31-3.69,13.31-11.56H109c0,4.4-3,6.82-7.68,6.82-6.11,0-8.93-3.39-8.93-10.42v-.88C92.34,53,95.2,49.48,101.26,49.48Z"/><path class="a" d="M129.71,45.26,118,75.41h5.8l2.42-6.55H140l2.48,6.55h6.06L136.79,45.26ZM128,64.11,131,55.84c.62-1.62,1.72-5.14,1.94-5.75h.21c.23.61,1.32,4.17,1.94,5.75l3.07,8.27Z"/><path class="a" d="M179.92,54.4c0-5.58-3.21-9.14-9.85-9.14H154.16V75.41h5.63V63.76h9.35l5.71,11.65H181l-6.45-12.52C178.11,61.48,179.92,58.49,179.92,54.4ZM169.63,59h-9.84v-9h9.84c3,0,4.61,1.63,4.61,4.35A4.25,4.25,0,0,1,169.63,59Z"/><path class="a" d="M199.65,45.26H187.6V75.41h12.05c9.09,0,14.63-4.74,14.63-15.07S208.75,45.26,199.65,45.26Zm8.88,15.52c0,6.59-3.16,9.84-8.88,9.84h-6.41V50.05h6.41c5.71,0,8.88,3.26,8.88,9.85Z"/><path class="a" d="M229,45.26,217.28,75.41h5.8l2.42-6.55h13.8l2.46,6.55h6.07L236.09,45.26Zm-1.76,18.85,3.07-8.27c.62-1.62,1.72-5.14,1.94-5.75h.22c.22.61,1.32,4.17,1.94,5.75l3.07,8.27Z"/><path class="a" d="M273.55,63.19c0,.58.08,2.11.08,2.38l-.22.08c-.13-.17-1-1.71-1.48-2.41l-13.1-18h-5.37V75.41h5.41V57.35c0-.74-.09-2.2-.09-2.42l.22-.13c.13.18.79,1.45,1.49,2.46l13.18,18.15H279V45.26h-5.41V63.19Z"/><path class="a" d="M301.36,44.74c-9.45,0-15.17,5-15.17,15.6s5.71,15.6,15.17,15.6,15.2-5,15.2-15.6S310.81,44.74,301.36,44.74Zm9.45,16.08c0,6.9-3.3,10.37-9.45,10.37S292,67.72,292,60.82V59.9c0-6.9,3.34-10.42,9.41-10.42s9.45,3.52,9.45,10.42Z"/><rect class="b" width="323.13" height="120.41"/></svg>