<svg xmlns="http://www.w3.org/2000/svg" width="128" height="64" fill="none"><path fill="url(#a)" d="M0 6a6 6 0 0 1 6-6h116a6 6 0 0 1 6 6v52a6 6 0 0 1-6 6H6a6 6 0 0 1-6-6V6Z"/><path fill="#fff" d="M102 22.284c0-1.08-.216-2.159-.648-3.239a7.762 7.762 0 0 0-1.727-2.59c-.864-.864-1.727-1.512-2.807-1.728-1.08-.432-2.375-.432-4.102-.432h-23.75v15.978H92.5c1.727 0 3.239-.216 4.102-.432 1.08-.432 1.943-.864 2.807-1.727.864-.864 1.296-1.728 1.727-2.591.648-1.08.864-2.16.864-3.239ZM102 41.932c0-1.08-.216-2.16-.648-3.239a7.763 7.763 0 0 0-1.727-2.59c-.864-.864-1.727-1.512-2.807-1.728-1.08-.432-2.375-.432-4.102-.432h-23.75V49.92H92.5c1.727 0 3.239-.215 4.102-.431 1.08-.432 1.943-.864 2.807-1.728.864-.863 1.296-1.727 1.727-2.59.648-1.08.864-2.16.864-3.24ZM65.727 30.273C64.864 19.909 57.523 13 45.864 13 33.557 13 26 20.557 26 32c0 11.875 7.989 19 19.864 19 11.659 0 19-6.693 19.863-17.273h-20.08v-3.67h20.08v.216Z"/><defs><linearGradient id="a" x1="0" x2="143.083" y1="78.791" y2="21.957" gradientUnits="userSpaceOnUse"><stop stop-color="#259A49"/><stop offset=".49" stop-color="#1C97BE"/><stop offset="1" stop-color="#0D2453"/></linearGradient></defs></svg>