<svg width="128" height="64" viewBox="0 0 128 64" fill="none" xmlns="http://www.w3.org/2000/svg">
<rect width="128" height="64" rx="6" fill="white"/>
<path d="M30.1332 46.5405C30.1332 47.7569 31.0006 47.8998 31.775 47.8998C35.1816 47.8998 36.2983 45.3274 36.2983 42.9777C36.2983 40.0297 34.4072 37.8993 31.3629 37.8993C30.7148 37.8993 30.419 37.9458 30.1332 37.9625V46.5405ZM28.5877 39.1456C28.5877 37.7265 27.8466 37.8195 27.1387 37.8029V37.3941C27.7502 37.424 28.3817 37.424 28.9965 37.424C29.6612 37.424 30.5586 37.3941 31.7285 37.3941C35.8098 37.3941 38.0365 40.1228 38.0365 42.9145C38.0365 44.4766 37.1226 48.405 31.539 48.405C30.7347 48.405 29.9903 48.3751 29.2524 48.3751C28.5412 48.3751 27.8466 48.3884 27.1387 48.405V47.9929C28.0825 47.8998 28.5412 47.8666 28.5877 46.7964V39.1456Z" fill="#211D1D"/>
<path d="M40.2766 38.7667C39.8645 38.7667 39.5022 38.3878 39.5022 37.979C39.5022 37.5835 39.8811 37.2213 40.2766 37.2213C40.6854 37.2213 41.051 37.5503 41.051 37.979C41.051 38.4045 40.702 38.7667 40.2766 38.7667ZM38.5882 47.9929H38.8874C39.3294 47.9929 39.6451 47.9929 39.6451 47.4711V43.197C39.6451 42.5057 39.4092 42.4093 38.8242 42.0969V41.8443C39.5654 41.6216 40.4494 41.3225 40.5126 41.2727C40.6222 41.2128 40.7153 41.1962 40.7951 41.1962C40.8748 41.1962 40.9047 41.2893 40.9047 41.4156V47.4711C40.9047 47.9929 41.2537 47.9929 41.6957 47.9929H41.9616V48.405C41.4265 48.405 40.8748 48.3717 40.3065 48.3717C39.7382 48.3717 39.1699 48.3884 38.5882 48.405V47.9929Z" fill="#211D1D"/>
<path d="M43.4606 43.2934C43.4606 42.7118 43.2877 42.5522 42.5466 42.2531V41.9507C43.2246 41.7313 43.8727 41.5253 44.6304 41.1962C44.677 41.1962 44.7235 41.2261 44.7235 41.3524V42.3794C45.6242 41.7313 46.3952 41.1962 47.4521 41.1962C48.7948 41.1962 49.2668 42.1733 49.2668 43.4031V47.4711C49.2668 47.9929 49.6158 47.9929 50.0545 47.9929H50.3403V48.405C49.7853 48.405 49.2335 48.3717 48.6685 48.3717C48.1002 48.3717 47.5319 48.3884 46.9636 48.405V47.9929H47.2461C47.6914 47.9929 48.0038 47.9929 48.0038 47.4711V43.3898C48.0038 42.4891 47.4521 42.0471 46.5515 42.0471C46.0496 42.0471 45.2453 42.4558 44.7235 42.8048V47.4711C44.7235 47.9929 45.0725 47.9929 45.5145 47.9929H45.797V48.405C45.2453 48.405 44.6903 48.3717 44.1219 48.3717C43.5569 48.3717 42.9886 48.3884 42.4203 48.405V47.9929H42.7061C43.1448 47.9929 43.4606 47.9929 43.4606 47.4711V43.2934Z" fill="#211D1D"/>
<path d="M54.3318 43.546C54.724 43.546 54.7706 43.3399 54.7706 43.1505C54.7706 42.3462 54.282 41.7014 53.3979 41.7014C52.4374 41.7014 51.776 42.4093 51.5866 43.546H54.3318ZM51.5401 44.0511C51.5068 44.1941 51.5068 44.43 51.5401 44.9651C51.6331 46.464 52.5936 47.6937 53.8566 47.6937C54.724 47.6937 55.4053 47.2218 55.987 46.6369L56.2063 46.8595C55.4818 47.82 54.5844 48.6409 53.2916 48.6409C50.7823 48.6409 50.2771 46.2114 50.2771 45.2011C50.2771 42.1102 52.3577 41.1962 53.4611 41.1962C54.7406 41.1962 56.1133 42.0005 56.1266 43.6723C56.1266 43.7686 56.1266 43.8617 56.1133 43.9548L55.9703 44.0511H51.5401Z" fill="#211D1D"/>
<path d="M56.4888 47.9929H56.9176C57.3596 47.9929 57.672 47.9929 57.672 47.4711V43.0408C57.672 42.5522 57.0904 42.4558 56.8544 42.3296V42.0969C58.0043 41.605 58.6358 41.1962 58.7787 41.1962C58.8718 41.1962 58.9183 41.2428 58.9183 41.4023V42.8181H58.9516C59.3471 42.2066 60.0084 41.1962 60.9689 41.1962C61.3644 41.1962 61.8663 41.4621 61.8663 42.0304C61.8663 42.4558 61.5705 42.8381 61.1285 42.8381C60.6366 42.8381 60.6366 42.4558 60.0882 42.4558C59.819 42.4558 58.9349 42.8181 58.9349 43.7686V47.4711C58.9349 47.9929 59.2507 47.9929 59.6927 47.9929H60.5768V48.405C59.7093 48.3884 59.0479 48.3717 58.3699 48.3717C57.7218 48.3717 57.0605 48.3884 56.4888 48.405V47.9929Z" fill="#211D1D"/>
<path d="M62.5609 46.2114C62.767 47.2517 63.3984 48.1358 64.5517 48.1358C65.479 48.1358 65.8246 47.5674 65.8246 47.0157C65.8246 45.1546 62.3914 45.7528 62.3914 43.2136C62.3914 42.3296 63.0993 41.1962 64.8342 41.1962C65.3394 41.1962 66.0174 41.3391 66.6322 41.6516L66.7419 43.2601H66.3797C66.2234 42.2697 65.6717 41.6981 64.6614 41.6981C64.0299 41.6981 63.4317 42.0637 63.4317 42.7417C63.4317 44.5862 67.0876 44.0179 67.0876 46.4939C67.0876 47.5342 66.2534 48.6409 64.3789 48.6409C63.7441 48.6409 63.0029 48.4216 62.4512 48.1059L62.2784 46.2912L62.5609 46.2114Z" fill="#211D1D"/>
<path d="M81.3322 40.249H80.9367C80.6376 38.4044 79.3282 37.6633 77.5634 37.6633C75.7487 37.6633 73.1131 38.8764 73.1131 42.6586C73.1131 45.8492 75.3898 48.1358 77.8159 48.1358C79.3747 48.1358 80.6709 47.0656 80.9866 45.4071L81.3489 45.5002L80.9866 47.8034C80.3219 48.2155 78.5405 48.6409 77.4969 48.6409C73.8078 48.6409 71.4746 46.258 71.4746 42.7084C71.4746 39.4779 74.3595 37.1581 77.4537 37.1581C78.7299 37.1581 79.9596 37.5669 81.1727 37.9923L81.3322 40.249Z" fill="#211D1D"/>
<path d="M81.9006 47.9929H82.1997C82.6417 47.9929 82.9574 47.9929 82.9574 47.4711V38.6903C82.9574 37.6633 82.7215 37.6301 82.1199 37.4573V37.2047C82.7514 36.9986 83.4128 36.7194 83.7451 36.5267C83.9179 36.4336 84.0476 36.3539 84.0908 36.3539C84.1872 36.3539 84.2171 36.4469 84.2171 36.5732V47.4711C84.2171 47.9929 84.566 47.9929 85.0081 47.9929H85.2773V48.405C84.7422 48.405 84.1872 48.3718 83.6188 48.3718C83.0538 48.3718 82.4855 48.3884 81.9006 48.405V47.9929Z" fill="#211D1D"/>
<path d="M92.0274 47.5342C92.0274 47.8201 92.2002 47.8367 92.4694 47.8367C92.6555 47.8367 92.8948 47.8201 93.1009 47.8201V48.1524C92.4196 48.2156 91.1267 48.5446 90.8276 48.641L90.7478 48.5944V47.3182C89.804 48.0893 89.0761 48.641 87.9561 48.641C87.1052 48.641 86.2212 48.0893 86.2212 46.7665V42.7284C86.2212 42.3163 86.158 41.9208 85.2773 41.8443V41.5419C85.8456 41.5253 87.1052 41.4322 87.3113 41.4322C87.4874 41.4322 87.4874 41.5419 87.4874 41.8909V45.9589C87.4874 46.4308 87.4874 47.7868 88.8567 47.7868C89.3918 47.7868 90.1031 47.378 90.7645 46.8296V42.5822C90.7645 42.2698 90.0067 42.0969 89.4417 41.9374V41.6516C90.8608 41.5585 91.7449 41.4322 91.9011 41.4322C92.0274 41.4322 92.0274 41.5419 92.0274 41.718V47.5342Z" fill="#211D1D"/>
<path d="M95.1648 46.6203C95.1648 47.2218 95.7331 48.2288 96.79 48.2288C98.4784 48.2288 99.1896 46.5737 99.1896 45.1679C99.1896 43.4662 97.8967 42.0471 96.667 42.0471C96.0788 42.0471 95.5902 42.426 95.1648 42.7915V46.6203ZM95.1648 42.3296C95.7963 41.7945 96.6504 41.1962 97.5145 41.1962C99.3458 41.1962 100.449 42.7915 100.449 44.5065C100.449 46.5737 98.937 48.641 96.677 48.641C95.5104 48.641 94.8989 48.2621 94.4868 48.0893L94.0148 48.4515L93.6858 48.2787C93.8221 47.3481 93.9018 46.4308 93.9018 45.4703V38.6903C93.9018 37.6633 93.6659 37.6301 93.0676 37.4573V37.2047C93.6991 37.0019 94.3605 36.7194 94.6929 36.5267C94.8657 36.4336 94.992 36.3539 95.0418 36.3539C95.1349 36.3539 95.1648 36.4469 95.1648 36.5765V42.3296Z" fill="#211D1D"/>
<path d="M27.1187 57.5746H27.2384C27.5475 57.5746 27.8765 57.5314 27.8765 57.0861V52.5893C27.8765 52.1406 27.5475 52.1008 27.2384 52.1008H27.1187V51.8382C27.4544 51.8382 27.9695 51.8748 28.3916 51.8748C28.8204 51.8748 29.3355 51.8382 29.7377 51.8382V52.1008H29.618C29.3089 52.1008 28.9832 52.1406 28.9832 52.5893V57.0861C28.9832 57.5314 29.3089 57.5746 29.618 57.5746H29.7377V57.8339C29.3255 57.8339 28.8104 57.7973 28.3817 57.7973C27.9596 57.7973 27.4544 57.8339 27.1187 57.8339V57.5746Z" fill="#211D1D"/>
<path d="M29.7011 57.7939V57.6111H29.618C29.3123 57.6111 28.9467 57.558 28.9433 57.086V52.5893C28.9467 52.114 29.3123 52.0608 29.618 52.0608H29.7011V51.8814C29.3056 51.8814 28.8071 51.9146 28.3916 51.9146C27.9828 51.9146 27.491 51.8814 27.1586 51.8814V52.0608H27.2384C27.5441 52.0608 27.9131 52.114 27.9131 52.5893V57.086C27.9131 57.558 27.5441 57.6111 27.2384 57.6111H27.1586V57.7939C27.491 57.7906 27.9762 57.7607 28.3817 57.7607C28.8004 57.7607 29.2956 57.7939 29.7011 57.7939ZM29.7377 57.8704C29.3222 57.8704 28.8071 57.8338 28.3817 57.8338C27.9629 57.8338 27.4577 57.8704 27.1187 57.8704H27.0822V57.538H27.2384C27.5508 57.5314 27.8333 57.5048 27.8366 57.086V52.5893C27.8333 52.1705 27.5508 52.1406 27.2384 52.134H27.0822V51.8049H27.1187C27.4577 51.8049 27.9696 51.8382 28.3916 51.8382C28.8171 51.8382 29.3322 51.8049 29.7377 51.8049H29.7742V52.134H29.618C29.3056 52.1406 29.0198 52.1705 29.0198 52.5893V57.086C29.0198 57.5048 29.3056 57.5314 29.618 57.538H29.7742V57.8704H29.7377Z" fill="#211D1D"/>
<path d="M35.6336 56.1422L35.6502 56.1256V52.9051C35.6502 52.2038 35.1617 52.1008 34.9024 52.1008H34.7163V51.8415C35.1185 51.8415 35.514 51.8748 35.9161 51.8748C36.2684 51.8748 36.6207 51.8415 36.9697 51.8415V52.1008H36.8434C36.4811 52.1008 36.079 52.1672 36.079 53.1876V57.096C36.079 57.3952 36.0889 57.6943 36.1322 57.9602H35.8031L31.3861 53.0347V56.5709C31.3861 57.3187 31.5291 57.5713 32.1904 57.5713H32.3367V57.8339C31.9678 57.8339 31.5989 57.7973 31.2299 57.7973C30.8444 57.7973 30.4489 57.8339 30.0634 57.8339V57.5713H30.183C30.7746 57.5713 30.9574 57.1725 30.9574 56.4845V52.8718C30.9574 52.3899 30.5586 52.1008 30.1731 52.1008H30.0634V51.8415C30.3891 51.8415 30.7248 51.8748 31.0505 51.8748C31.3064 51.8748 31.5556 51.8415 31.8149 51.8415L35.6336 56.1422Z" fill="#211D1D"/>
<path d="M35.6137 56.1255V56.1222L35.607 56.1156L35.6137 56.1255ZM35.6336 56.1421L35.6602 56.1156L35.6336 56.1421ZM35.8031 57.9236H36.089C36.0491 57.6643 36.0424 57.3785 36.0424 57.096V53.1875C36.0424 52.1572 36.4745 52.0608 36.8434 52.0608H36.9331V51.878C36.5975 51.8814 36.2585 51.9146 35.9161 51.9146C35.524 51.9146 35.1417 51.8814 34.7529 51.878V52.0608H34.9024C35.1683 52.0608 35.6868 52.1805 35.6868 52.905L35.6768 56.1488L35.6569 56.1654L35.6303 56.1953L31.8149 51.878C31.559 51.878 31.3097 51.9146 31.0505 51.9146C30.7347 51.9146 30.4124 51.8814 30.0999 51.878V52.0608H30.1731C30.5785 52.0608 30.994 52.3699 30.994 52.8718V56.4845C30.994 57.1724 30.8012 57.6111 30.183 57.6145L30.0999 57.6111V57.7973C30.4722 57.7906 30.8544 57.7607 31.2299 57.7607C31.5889 57.7607 31.9445 57.7906 32.2968 57.7973V57.6145H32.1904C31.5158 57.6111 31.3463 57.3187 31.3463 56.5709V52.9383L35.8031 57.9236ZM36.1288 58L35.7765 57.9867L31.4194 53.131V56.5709C31.4327 57.3187 31.5457 57.5281 32.1904 57.538H32.3766V57.8671H32.3367C31.9644 57.8671 31.5955 57.8371 31.2299 57.8371C30.8477 57.8371 30.4522 57.8671 30.0601 57.8671H30.0235V57.538H30.183C30.7514 57.5347 30.9109 57.1691 30.9209 56.4845V52.8718C30.9175 52.4165 30.542 52.1373 30.1731 52.1373H30.0235V51.8049H30.0601C30.3891 51.8049 30.7248 51.8382 31.0505 51.8382C31.3031 51.8382 31.5523 51.8049 31.8415 51.8182L35.6137 56.0624V52.905C35.607 52.2237 35.155 52.1406 34.9024 52.1373H34.6764V51.8049H34.7163C35.1185 51.8049 35.514 51.8382 35.9161 51.8382C36.2651 51.8382 36.6174 51.8049 36.973 51.8049H37.0096V52.1373H36.8434C36.4878 52.1473 36.1255 52.1772 36.1155 53.1875V57.096C36.1155 57.3918 36.1255 57.6942 36.1654 57.9568L36.172 58H36.1288Z" fill="#211D1D"/>
<path d="M38.2559 52.2702C37.6111 52.2702 37.5879 52.4231 37.4582 53.0513H37.2023C37.2356 52.812 37.2788 52.5694 37.3054 52.3201C37.3386 52.0808 37.3552 51.8415 37.3552 51.5922H37.5646C37.6311 51.8515 37.8471 51.8415 38.0797 51.8415H42.5067C42.736 51.8415 42.952 51.8315 42.972 51.5756L43.1747 51.6122C43.1415 51.8415 43.1083 52.0742 43.0817 52.3035C43.065 52.5361 43.065 52.7688 43.065 53.0014L42.8091 53.0978C42.7892 52.7787 42.746 52.2702 42.171 52.2702H40.7652V56.8368C40.7652 57.4982 41.0643 57.5746 41.4764 57.5746H41.6393V57.8305C41.3036 57.8305 40.702 57.7973 40.24 57.7973C39.7282 57.7973 39.1233 57.8305 38.7877 57.8305V57.5746H38.9505C39.4258 57.5746 39.6651 57.5314 39.6651 56.8567V52.2702H38.2559Z" fill="#211D1D"/>
<path d="M41.6426 57.8705C41.3036 57.8705 40.702 57.8339 40.24 57.8339C39.7282 57.8339 39.1267 57.8705 38.7877 57.8705H38.7544V57.5381H38.9538C39.4258 57.5281 39.6185 57.5215 39.6252 56.8535V52.3069H38.2559V52.2337H39.7016V56.8535C39.7016 57.5414 39.4258 57.6145 38.9538 57.6145H38.8275V57.794C39.1665 57.7907 39.7415 57.7608 40.24 57.7608C40.6887 57.7608 41.2604 57.7907 41.6027 57.794V57.6145H41.4764C41.061 57.6145 40.7253 57.5115 40.7253 56.8368V52.2337H42.171C42.7493 52.2337 42.8224 52.7223 42.8424 53.0414L43.0285 52.9749C43.0285 52.7522 43.0285 52.5262 43.0451 52.3002C43.0684 52.0809 43.1016 51.8615 43.1315 51.6421L43.0019 51.6189C42.9587 51.8681 42.7194 51.8814 42.5067 51.8781H38.0332C37.8305 51.8781 37.6111 51.8681 37.5347 51.6322H37.3918C37.3918 51.8681 37.3752 52.0975 37.3419 52.3268C37.3153 52.5628 37.2788 52.7888 37.2455 53.0148H37.4317C37.5447 52.4165 37.6178 52.2238 38.2559 52.2337V52.3069C37.6211 52.3201 37.6377 52.4265 37.4948 53.0613L37.4915 53.0912H37.1591L37.1658 53.0447C37.1957 52.8054 37.2422 52.5661 37.2688 52.3168C37.302 52.0775 37.3187 51.8382 37.3187 51.5923V51.5557H37.5912L37.5978 51.5823C37.6577 51.7984 37.8139 51.8017 38.0332 51.805H42.5067C42.7427 51.8017 42.9188 51.795 42.9321 51.5724L42.9354 51.5325L43.2146 51.579L43.2113 51.6156C43.1781 51.8449 43.1448 52.0775 43.1182 52.3069C43.1016 52.5362 43.1016 52.7688 43.1016 53.0015V53.0247L43.0783 53.038L42.7726 53.1477V53.0979C42.7493 52.7755 42.7128 52.3069 42.171 52.3069H40.8017V56.8368C40.8084 57.4849 41.0676 57.5281 41.4764 57.5381H41.6758V57.8705H41.6426Z" fill="#211D1D"/>
<path d="M43.4506 57.5746H43.5702C43.8793 57.5746 44.205 57.5314 44.205 57.0861V52.5893C44.205 52.1406 43.8793 52.1008 43.5702 52.1008H43.4506V51.8382C43.9724 51.8382 44.8664 51.8748 45.5876 51.8748C46.3088 51.8748 47.1995 51.8382 47.7811 51.8382C47.7678 52.2104 47.7745 52.7788 47.8011 53.1543L47.5418 53.2241C47.502 52.6658 47.3989 52.2204 46.4949 52.2204H45.3051V54.4671H46.3254C46.8406 54.4671 46.9536 54.178 47.0034 53.7127H47.2593C47.2427 54.0483 47.2328 54.3807 47.2328 54.7164C47.2328 55.0454 47.2427 55.3711 47.2593 55.6935L47.0034 55.7467C46.9536 55.2315 46.927 54.8958 46.3321 54.8958H45.3051V56.8966C45.3051 57.455 45.8003 57.455 46.3487 57.455C47.3823 57.455 47.8343 57.3852 48.0936 56.4081L48.3329 56.4679C48.2199 56.9232 48.1168 57.3752 48.0404 57.8339C47.492 57.8339 46.5049 57.7973 45.7338 57.7973C44.9595 57.7973 43.9391 57.8339 43.4506 57.8339V57.5746Z" fill="#211D1D"/>
<path d="M48.0105 57.7939C48.0836 57.3619 48.18 56.9265 48.2863 56.4944L48.1168 56.4546C47.8609 57.4151 47.3624 57.4981 46.3487 57.4915C45.807 57.4915 45.2685 57.4915 45.2652 56.8966V54.8593H46.3321C46.9336 54.8526 46.9901 55.2149 47.0333 55.7034L47.2195 55.6669C47.2062 55.3511 47.1962 55.0321 47.1962 54.7163C47.1962 54.394 47.2062 54.0749 47.2195 53.7492H47.0333C46.9868 54.1979 46.8472 54.5103 46.3221 54.5036H45.2652V52.1805H46.4949C47.389 52.1772 47.5385 52.6391 47.5751 53.1742L47.7612 53.1244C47.7446 52.8818 47.7379 52.576 47.7379 52.2868C47.7379 52.1373 47.7379 52.001 47.7446 51.878C47.1596 51.8814 46.2922 51.9146 45.5876 51.9146C44.883 51.9146 44.0123 51.8814 43.4871 51.878V52.0608H43.5702C43.876 52.0608 44.2416 52.114 44.2416 52.5893V57.086C44.2416 57.558 43.876 57.6078 43.5702 57.6145H43.4871V57.7939C43.9857 57.7906 44.9794 57.7607 45.7338 57.7607C46.4883 57.7607 47.4554 57.7906 48.0105 57.7939ZM48.0404 57.8671C47.4887 57.8671 46.5016 57.8338 45.7338 57.8338C44.9595 57.8338 43.9391 57.8671 43.4506 57.8671H43.4107V57.538H43.5702C43.8793 57.5314 44.1651 57.5048 44.1651 57.086V52.5893C44.1651 52.1705 43.8793 52.1439 43.5702 52.134H43.4107V51.8049H43.4506C43.9724 51.8049 44.8664 51.8382 45.5876 51.8382C46.3055 51.8382 47.1962 51.8049 47.7811 51.8049H47.821V51.8415C47.8111 51.9711 47.8111 52.124 47.8111 52.2868C47.8111 52.5826 47.821 52.9083 47.8343 53.151V53.1842L47.8077 53.1908L47.5053 53.2706V53.2241C47.4554 52.6691 47.3823 52.2636 46.4949 52.2569H45.3383V54.4305H46.3221C46.8206 54.4272 46.907 54.1713 46.9636 53.7093L46.9669 53.6761H47.2992V53.7126C47.2793 54.0483 47.2693 54.3807 47.2693 54.7163C47.2693 55.0421 47.2793 55.3678 47.2992 55.6935V55.7234L47.266 55.7334L46.9669 55.7899L46.9636 55.75C46.907 55.2282 46.9037 54.939 46.3321 54.9324H45.3383V56.8966C45.3417 57.4184 45.7903 57.4151 46.3487 57.4184C47.3856 57.4117 47.7978 57.3619 48.057 56.3981L48.0636 56.3615L48.1002 56.3715L48.3761 56.4413L48.3661 56.4778C48.2564 56.9298 48.1534 57.3851 48.0769 57.8371L48.0703 57.8671H48.0404Z" fill="#211D1D"/>
<path d="M50.5895 54.743H51.0083C51.8691 54.743 52.3311 54.4173 52.3311 53.4036C52.3311 52.6425 51.8425 52.1506 51.0781 52.1506C50.8189 52.1506 50.7092 52.1772 50.5895 52.1838V54.743ZM49.4928 52.7522C49.4928 52.124 49.1471 52.1008 48.8812 52.1008H48.725V51.8415C49.0009 51.8415 49.5326 51.8748 50.0578 51.8748C50.5696 51.8748 50.9817 51.8415 51.4404 51.8415C52.5172 51.8415 53.481 52.134 53.481 53.3537C53.481 54.1248 52.9659 54.5967 52.2879 54.8659L53.7569 57.0595C53.9962 57.4217 54.1657 57.5248 54.5877 57.5746V57.8305C54.3052 57.8305 54.0294 57.7973 53.7469 57.7973C53.481 57.7973 53.2052 57.8305 52.9393 57.8305C52.2812 56.9664 51.7129 56.0391 51.1545 55.0487H50.5895V56.8866C50.5895 57.5514 50.8986 57.5746 51.2908 57.5746H51.447V57.8305C50.9584 57.8305 50.4599 57.7973 49.9714 57.7973C49.5592 57.7973 49.1571 57.8305 48.725 57.8305V57.5746H48.8812C49.197 57.5746 49.4928 57.4284 49.4928 57.1093V52.7522Z" fill="#211D1D"/>
<path d="M51.0083 54.7064C51.8591 54.6964 52.2879 54.4039 52.2945 53.4036C52.2912 52.6558 51.8226 52.1905 51.0781 52.1871C50.8455 52.1871 50.7358 52.2071 50.6261 52.2204V54.7064H51.0083ZM50.5895 54.7795H50.553V52.1506L50.5829 52.1473C50.7025 52.1373 50.8155 52.114 51.0781 52.114C51.8591 52.114 52.3676 52.6225 52.3676 53.4036C52.3643 54.4305 51.8724 54.7795 51.0083 54.7795H50.5895ZM50.5895 55.0121H51.1745L51.1845 55.0321C51.7428 56.0192 52.3078 56.9464 52.9393 57.7939C53.2018 57.7939 53.4777 57.7607 53.7436 57.7607C54.0194 57.7607 54.2853 57.7906 54.5512 57.7939V57.6045C54.149 57.558 53.9596 57.435 53.727 57.0794L52.2314 54.846L52.2746 54.8293C52.9459 54.5635 53.4445 54.1048 53.4445 53.3504C53.4445 52.1605 52.5172 51.8847 51.4404 51.8814C50.985 51.8814 50.5729 51.9146 50.0578 51.9146C49.5526 51.9146 49.0441 51.8814 48.7616 51.8814V52.0642H48.8812C49.1471 52.0642 49.526 52.1074 49.526 52.7521V57.1093C49.526 57.4549 49.2036 57.6111 48.8812 57.6111H48.7616V57.7939C49.177 57.7939 49.5659 57.7607 49.968 57.7607C50.45 57.7607 50.9352 57.7939 51.4071 57.7939V57.6111H51.2908C50.902 57.6111 50.553 57.5646 50.553 56.8866V55.0121H50.5895ZM54.5878 57.8671C54.3019 57.8671 54.0294 57.8338 53.7436 57.8338C53.4843 57.8338 53.2085 57.8671 52.9094 57.8571C52.2513 56.9896 51.6896 56.069 51.1346 55.0886H50.6261V56.8866C50.6361 57.5347 50.8953 57.5281 51.2908 57.538H51.4836V57.8671H51.447C50.9551 57.8671 50.4566 57.8338 49.968 57.8338C49.5592 57.8338 49.1571 57.8671 48.725 57.8671H48.6885V57.538H48.8812C49.1903 57.5347 49.4496 57.4018 49.4529 57.1093V52.7521C49.4462 52.1439 49.1471 52.1439 48.8812 52.134H48.6885V51.8049H48.725C49.0042 51.8049 49.5327 51.8382 50.0578 51.8382C50.5696 51.8382 50.9817 51.8049 51.4404 51.8049C52.5205 51.8049 53.5176 52.1074 53.5209 53.3504C53.5209 54.1248 53.0058 54.61 52.3444 54.8792L53.7868 57.0395C54.0261 57.3951 54.1756 57.4849 54.5911 57.538L54.6243 57.5414V57.8671H54.5878Z" fill="#211D1D"/>
<path d="M60.4139 56.1422L60.4305 56.1256V52.9051C60.4305 52.2038 59.942 52.1008 59.6861 52.1008H59.4966V51.8415C59.8988 51.8415 60.2909 51.8748 60.6964 51.8748C61.052 51.8748 61.401 51.8415 61.7533 51.8415V52.1008H61.627C61.2647 52.1008 60.8593 52.1672 60.8593 53.1876V57.096C60.8593 57.3952 60.8692 57.6943 60.9091 57.9602H60.5867L56.1664 53.0347V56.5709C56.1664 57.3187 56.3127 57.5713 56.9741 57.5713H57.1203V57.8339C56.7514 57.8339 56.3825 57.7973 56.0102 57.7973C55.6247 57.7973 55.2325 57.8339 54.8437 57.8339V57.5713H54.9633C55.5582 57.5713 55.7377 57.1725 55.7377 56.4845V52.8718C55.7377 52.3899 55.3422 52.1008 54.9567 52.1008H54.8437V51.8415C55.1694 51.8415 55.5084 51.8748 55.8308 51.8748C56.0867 51.8748 56.3359 51.8415 56.5952 51.8415L60.4139 56.1422Z" fill="#211D1D"/>
<path d="M60.394 56.1255V56.1222L60.3873 56.1156L60.394 56.1255ZM60.4139 56.1421L60.4405 56.1156L60.4139 56.1421ZM60.5867 57.9236H60.8659C60.8327 57.6676 60.8227 57.3785 60.8227 57.096V53.1875C60.8227 52.1572 61.2581 52.0642 61.627 52.0608H61.7167V51.878C61.3777 51.8814 61.0387 51.9146 60.6964 51.9146C60.3042 51.9146 59.9187 51.8814 59.5332 51.878V52.0608H59.6861C59.9486 52.0642 60.4704 52.1805 60.4704 52.905L60.4571 56.1488L60.4405 56.1654L60.4139 56.1953L56.5952 51.878C56.3393 51.878 56.09 51.9146 55.8308 51.9146C55.515 51.9146 55.1926 51.8814 54.8802 51.878V52.0608H54.9567C55.3588 52.0642 55.7743 52.3666 55.7743 52.8718V56.4845C55.7743 57.1724 55.5782 57.6111 54.9633 57.6145H54.8802V57.7939C55.2525 57.7906 55.6347 57.7607 56.0136 57.7607C56.3692 57.7607 56.7281 57.7906 57.0837 57.7939V57.6145H56.9741C56.2961 57.6145 56.1299 57.3187 56.1266 56.5709V52.9383L60.5867 57.9236ZM60.9124 58L60.5602 57.9867L56.203 53.131V56.5709C56.213 57.3187 56.326 57.5281 56.9741 57.538H57.1569V57.8671H57.1203C56.7481 57.8671 56.3791 57.8338 56.0136 57.8338C55.628 57.8338 55.2292 57.8671 54.847 57.8671H54.8038V57.538H54.9633C55.5283 57.5347 55.6945 57.1691 55.6978 56.4845V52.8718C55.6978 52.4131 55.3256 52.1373 54.9567 52.1373H54.8038V51.8049H54.847C55.1727 51.8049 55.5084 51.8382 55.8308 51.8382C56.0833 51.8382 56.3326 51.8049 56.6218 51.8149L60.394 56.0624V52.905C60.394 52.2237 59.9353 52.1406 59.6861 52.1373H59.4567V51.8049H59.4966C59.9021 51.8049 60.2976 51.8382 60.6964 51.8382C61.0487 51.8382 61.401 51.8049 61.7533 51.8049H61.7899V52.1373H61.627C61.2714 52.1439 60.9058 52.1772 60.8992 53.1875V57.096C60.8992 57.3918 60.9058 57.6909 60.949 57.9568L60.9523 58H60.9124Z" fill="#211D1D"/>
<path d="M64.3889 52.802H64.3689L63.5713 55.2315H65.1765L64.3889 52.802ZM63.1359 56.6041C63.0495 56.8966 62.9431 57.1226 62.9431 57.2722C62.9431 57.5314 63.3054 57.5746 63.5879 57.5746H63.6843V57.8305C63.3386 57.8139 62.9897 57.7973 62.644 57.7973C62.3349 57.7973 62.0258 57.8139 61.7201 57.8305V57.5746H61.7699C62.1023 57.5746 62.3881 57.3752 62.5144 57.0163L63.8903 53.0779C64 52.7588 64.1562 52.3334 64.2061 52.011C64.4819 51.918 64.8242 51.7485 64.9871 51.6454L65.0569 51.6288L65.1167 51.6521L65.1965 51.8681L66.7718 56.3582C66.8749 56.6573 66.9779 56.9764 67.0909 57.2323C67.1939 57.4716 67.3734 57.5746 67.6559 57.5746H67.7058V57.8305C67.3235 57.8139 66.9347 57.7973 66.5259 57.7973C66.1038 57.7973 65.6751 57.8139 65.2397 57.8305V57.5746H65.3327C65.5288 57.5746 65.8645 57.5414 65.8645 57.3254C65.8645 57.2157 65.7881 56.983 65.6884 56.7072L65.356 55.7101H63.4084L63.1359 56.6041Z" fill="#211D1D"/>
<path d="M64.349 52.8153L64.3689 52.8087L64.349 52.8153ZM63.6211 55.195H65.1234L64.3756 52.8951L63.6211 55.195ZM63.5181 55.2714L64.3423 52.7655H64.3889V52.802L64.3789 52.8053L64.3889 52.802V52.7655H64.4121L65.2264 55.2714H63.5181ZM65.2729 57.7906C65.6983 57.7774 66.1138 57.7607 66.5259 57.7607C66.9247 57.7607 67.297 57.7774 67.6692 57.7906V57.6145H67.6559C67.3634 57.6145 67.164 57.4982 67.0543 57.2489C66.9447 56.9864 66.8383 56.6673 66.7386 56.3682L65.1599 51.8781L65.0868 51.672L65.0735 51.662H65.0569L65.007 51.6753C64.8409 51.7817 64.4952 51.9512 64.2426 52.0177C64.1894 52.3434 64.0366 52.7721 63.9236 53.0912L62.5509 57.0296C62.418 57.4018 62.1189 57.6145 61.7699 57.6145H61.7566V57.7906C62.0491 57.7774 62.3449 57.7607 62.644 57.7607C62.9764 57.7607 63.3154 57.7774 63.6444 57.7906V57.6145H63.5879C63.3087 57.6079 62.9199 57.5779 62.9099 57.2755C62.9099 57.1027 63.0129 56.8833 63.0993 56.5942L63.1359 56.6041L63.0993 56.5942L63.3818 55.6769H65.3793L65.7249 56.6972C65.8213 56.9731 65.9011 57.1991 65.9011 57.3254C65.8878 57.5912 65.5255 57.6079 65.3327 57.6145H65.2729V57.7906ZM67.7057 57.8704C67.3202 57.8538 66.9347 57.8339 66.5259 57.8339C66.1038 57.8339 65.6784 57.8538 65.2397 57.8704H65.1998V57.5347H65.3327C65.5288 57.5347 65.8246 57.4915 65.8246 57.3254C65.8246 57.229 65.7515 56.993 65.6551 56.7205L65.3294 55.75H63.435L63.1691 56.6141C63.0794 56.9099 62.9797 57.1359 62.9797 57.2755C62.983 57.4849 63.3021 57.5347 63.5879 57.5347H63.7208V57.8704H63.6809C63.3386 57.8538 62.9863 57.8339 62.644 57.8339C62.3349 57.8339 62.0258 57.8538 61.7201 57.8704H61.6835V57.5347H61.7699C62.089 57.5347 62.3549 57.3519 62.4778 57.003L63.8538 53.0646C63.9668 52.7488 64.1197 52.3201 64.1928 51.9778C64.462 51.8847 64.8076 51.7119 64.9738 51.6089L65.0569 51.5889L65.15 51.6388L65.2264 51.8548L66.8084 56.3449C66.9114 56.644 67.0145 56.9631 67.1241 57.2157C67.2238 57.445 67.3834 57.5347 67.6559 57.5347H67.7456V57.8704H67.7057Z" fill="#211D1D"/>
<path d="M68.088 52.2702C67.4432 52.2702 67.4166 52.4231 67.287 53.0513H67.0278C67.0643 52.812 67.1075 52.5694 67.1341 52.3201C67.1673 52.0808 67.184 51.8415 67.184 51.5922H67.39C67.4598 51.8515 67.6758 51.8415 67.9052 51.8415H72.3354C72.5648 51.8415 72.7775 51.8315 72.7974 51.5756L73.0035 51.6122C72.9702 51.8415 72.937 52.0742 72.9071 52.3035C72.8872 52.5361 72.8871 52.7688 72.8871 53.0014L72.6346 53.0978C72.6179 52.7787 72.5747 52.2702 71.9998 52.2702H70.5906V56.8368C70.5906 57.4982 70.893 57.5746 71.3051 57.5746H71.468V57.8305C71.1323 57.8305 70.5308 57.7973 70.0688 57.7973C69.5536 57.7973 68.9521 57.8305 68.6164 57.8305V57.5746H68.7793C69.2545 57.5746 69.4938 57.5314 69.4938 56.8567V52.2702H68.088Z" fill="#211D1D"/>
<path d="M71.4647 57.8705C71.1323 57.8705 70.5308 57.8339 70.0688 57.8339C69.557 57.8339 68.9554 57.8705 68.6164 57.8705H68.5798V57.5381H68.7793C69.2545 57.5281 69.4406 57.5215 69.4539 56.8535V52.3069H68.0846V52.2337H69.527V56.8535C69.527 57.5414 69.2512 57.6079 68.7793 57.6145H68.653V57.794C68.992 57.7907 69.5703 57.7608 70.0688 57.7608C70.5175 57.7608 71.0891 57.7907 71.4314 57.794L71.4281 57.6145H71.3018C70.8897 57.6079 70.5573 57.5115 70.554 56.8368V52.2337H71.9998C72.5781 52.2337 72.6512 52.7223 72.6678 53.0414L72.8539 52.9749C72.8539 52.7522 72.8539 52.5262 72.8705 52.3002C72.8971 52.0809 72.9303 51.8615 72.9603 51.6421L72.8306 51.6189C72.7908 51.8681 72.5481 51.8814 72.3321 51.8781H67.862C67.6592 51.8814 67.4399 51.8681 67.3634 51.6289H67.2238C67.2205 51.8681 67.2039 52.0975 67.1707 52.3268C67.1441 52.5628 67.1042 52.7888 67.071 53.0148H67.2571C67.3701 52.4165 67.4432 52.2204 68.0846 52.2337V52.3069C67.4498 52.3168 67.4631 52.4265 67.3235 53.0613L67.3169 53.0912H66.9845L66.9912 53.0447C67.0244 52.8054 67.071 52.5661 67.0942 52.3168C67.1308 52.0775 67.1441 51.8382 67.1441 51.5923V51.5557H67.4166L67.4266 51.5823C67.4864 51.7984 67.6426 51.8017 67.862 51.805H72.3321C72.5714 51.8017 72.7442 51.795 72.7608 51.5724V51.5325L72.8007 51.5391L73.0467 51.579L73.04 51.6156C73.0035 51.8449 72.9702 52.0775 72.9436 52.3069C72.9303 52.5362 72.9303 52.7688 72.9303 53.0015V53.0247L72.9038 53.038L72.598 53.1477V53.0979C72.5781 52.7755 72.5415 52.3069 71.9998 52.3069H70.6271V56.8368C70.6371 57.4849 70.893 57.5281 71.3018 57.5381H71.5046V57.8705H71.4647Z" fill="#211D1D"/>
<path d="M73.3192 57.5746H73.4389C73.7513 57.5746 74.0737 57.5314 74.0737 57.0861V52.5893C74.0737 52.1406 73.7513 52.1008 73.4389 52.1008H73.3192V51.8382C73.6549 51.8382 74.1667 51.8748 74.5888 51.8748C75.0175 51.8748 75.5327 51.8382 75.9382 51.8382V52.1008H75.8185C75.5061 52.1008 75.1804 52.1406 75.1804 52.5893V57.0861C75.1804 57.5314 75.5061 57.5746 75.8185 57.5746H75.9382V57.8339C75.526 57.8339 75.0109 57.7973 74.5788 57.7973C74.1601 57.7973 73.6549 57.8339 73.3192 57.8339V57.5746Z" fill="#211D1D"/>
<path d="M75.8983 57.7939V57.6145H75.8185C75.5094 57.6145 75.1438 57.558 75.1438 57.086V52.5893C75.1438 52.114 75.5094 52.0608 75.8185 52.0608H75.8983V51.878C75.5028 51.8814 75.0076 51.9146 74.5888 51.9146C74.18 51.9146 73.6881 51.8814 73.3558 51.878V52.0608H73.4389C73.7413 52.0608 74.1102 52.114 74.1102 52.5893V57.086C74.1102 57.558 73.7413 57.6145 73.4389 57.6145H73.3558V57.7939C73.6881 57.7906 74.1734 57.7607 74.5788 57.7607C74.9976 57.7607 75.4928 57.7906 75.8983 57.7939ZM75.9382 57.8671C75.5227 57.8671 75.0076 57.8338 74.5788 57.8338C74.1601 57.8338 73.6549 57.8671 73.3192 57.8671H73.2827V57.538H73.4389C73.7513 57.5314 74.0338 57.5048 74.0338 57.086V52.5893C74.0338 52.1705 73.7513 52.1406 73.4389 52.134H73.2827V51.8049H73.3192C73.6549 51.8049 74.1701 51.8382 74.5888 51.8382C75.0176 51.8382 75.5294 51.8049 75.9382 51.8049H75.9714V52.134H75.8185C75.5028 52.1406 75.2203 52.1705 75.217 52.5893V57.086C75.2203 57.5048 75.5028 57.5314 75.8185 57.538H75.9714V57.8671H75.9382Z" fill="#211D1D"/>
<path d="M79.4877 57.5846C81.1561 57.5846 81.4419 56.1156 81.4419 54.866C81.4419 53.6097 80.7673 52.0908 79.3448 52.0908C77.8426 52.0908 77.3972 53.4302 77.3972 54.5768C77.3972 56.1156 78.0985 57.5846 79.4877 57.5846ZM79.3614 51.7119C81.1894 51.7119 82.6484 52.8453 82.6484 54.6765C82.6484 56.6474 81.2326 57.9602 79.4046 57.9602C77.5833 57.9602 76.1941 56.7272 76.1941 54.8793C76.1941 53.0979 77.5767 51.7119 79.3614 51.7119Z" fill="#211D1D"/>
<path d="M77.3573 54.5768C77.3606 53.4235 77.8126 52.0542 79.3415 52.0542C80.8005 52.0542 81.4818 53.603 81.4818 54.8659C81.4818 56.1156 81.186 57.6178 79.4877 57.6178V57.548C81.1229 57.5447 81.4054 56.1156 81.4087 54.8659C81.4087 53.6196 80.7373 52.1306 79.3415 52.1273C77.8691 52.1306 77.4338 53.4368 77.4338 54.5768C77.4338 56.1089 78.1317 57.5414 79.4877 57.548V57.6178C78.0652 57.6178 77.3606 56.1222 77.3573 54.5768ZM76.1542 54.8792C76.1608 53.0745 77.5567 51.6786 79.3581 51.6753V51.7518C77.5933 51.7518 76.2273 53.1144 76.2273 54.8792C76.2306 56.7038 77.5999 57.9236 79.4046 57.9236C81.2126 57.9236 82.6085 56.6274 82.6118 54.6732C82.6118 52.8685 81.1727 51.7518 79.3581 51.7518V51.6753C81.2026 51.6786 82.6816 52.8219 82.6849 54.6732C82.6816 56.6673 81.2492 57.9934 79.4046 57.9967C77.5667 57.9934 76.1608 56.7437 76.1542 54.8792Z" fill="#211D1D"/>
<path d="M88.4313 56.1422L88.4479 56.1256V52.9051C88.4479 52.2038 87.9594 52.1008 87.7001 52.1008H87.514V51.8415C87.9162 51.8415 88.3117 51.8748 88.7138 51.8748C89.0694 51.8748 89.4184 51.8415 89.7707 51.8415V52.1008H89.6411C89.2788 52.1008 88.8767 52.1672 88.8767 53.1876V57.096C88.8767 57.3952 88.8866 57.6943 88.9298 57.9602H88.6008L84.1838 53.0347V56.5709C84.1838 57.3187 84.3267 57.5713 84.9915 57.5713H85.1344V57.8339C84.7655 57.8339 84.3999 57.7973 84.0276 57.7973C83.6421 57.7973 83.2466 57.8339 82.8611 57.8339V57.5713H82.9807C83.5756 57.5713 83.7518 57.1725 83.7518 56.4845V52.8718C83.7518 52.3899 83.3596 52.1008 82.9707 52.1008H82.8611V51.8415C83.1868 51.8415 83.5191 51.8748 83.8482 51.8748C84.1041 51.8748 84.3533 51.8415 84.6126 51.8415L88.4313 56.1422Z" fill="#211D1D"/>
<path d="M88.4114 56.1255V56.1222L88.4014 56.1156L88.4114 56.1255ZM88.4313 56.1421L88.4579 56.1156L88.4313 56.1421ZM88.6008 57.9236H88.8867C88.8468 57.6643 88.8401 57.3785 88.8401 57.096V53.1875C88.8401 52.1572 89.2755 52.0642 89.6411 52.0608H89.7342V51.878C89.3952 51.8814 89.0562 51.9146 88.7105 51.9146C88.325 51.9146 87.9394 51.8814 87.5506 51.878V52.0608H87.7002C87.966 52.0642 88.4845 52.1805 88.4845 52.905L88.4745 56.1488L88.4579 56.1654L88.4313 56.1953L84.6093 51.878C84.3567 51.878 84.1074 51.9146 83.8482 51.9146C83.5324 51.9146 83.2067 51.8814 82.8976 51.878V52.0608H82.9708C83.3762 52.0642 83.7917 52.3666 83.7917 52.8718V56.4845C83.7917 57.1724 83.5989 57.6111 82.9807 57.6145H82.8976V57.7939C83.2699 57.7906 83.6521 57.7607 84.0276 57.7607C84.3866 57.7607 84.7422 57.7906 85.0978 57.7939V57.6145H84.9881C84.3135 57.6145 84.144 57.3187 84.144 56.5709V52.9383L88.6008 57.9236ZM88.9299 58L88.5742 57.9867L84.2171 53.131V56.5709C84.2304 57.3187 84.3434 57.5281 84.9881 57.5347H85.1743V57.8671H85.1377C84.7655 57.8671 84.3966 57.8371 84.0276 57.8371C83.6454 57.8371 83.2499 57.8671 82.8611 57.8671H82.8245V57.5347H82.9807C83.5457 57.5347 83.7119 57.1691 83.7152 56.4845V52.8718C83.7152 52.4131 83.343 52.1373 82.9708 52.1373H82.8245V51.8049H82.8611C83.1868 51.8049 83.5225 51.8382 83.8482 51.8382C84.1008 51.8382 84.35 51.8049 84.6392 51.8182L88.4114 56.0624V52.905C88.4081 52.2237 87.9527 52.1406 87.7002 52.1373H87.4742V51.8049H87.514C87.9162 51.8049 88.315 51.8382 88.7105 51.8382C89.0661 51.8382 89.4118 51.8049 89.7707 51.8049H89.8073V52.1373H89.6411C89.2888 52.1473 88.9232 52.1772 88.9166 53.1875V57.096C88.9166 57.3918 88.9232 57.6942 88.9631 57.9568L88.9697 58H88.9299Z" fill="#211D1D"/>
<path d="M92.403 52.802H92.3863L91.5854 55.2315H93.194L92.403 52.802ZM91.15 56.6041C91.0669 56.8966 90.9605 57.1226 90.9605 57.2722C90.9605 57.5314 91.3261 57.5746 91.6053 57.5746H91.7017V57.8305C91.356 57.8139 91.0038 57.7973 90.6614 57.7973C90.349 57.7973 90.0432 57.8139 89.7342 57.8305V57.5746H89.784C90.1197 57.5746 90.4055 57.3752 90.5318 57.0163L91.9078 53.0779C92.0174 52.7588 92.1703 52.3334 92.2235 52.011C92.496 51.918 92.8417 51.7485 93.0045 51.6454L93.0743 51.6288L93.1341 51.6521L93.2106 51.8681L94.7893 56.3582C94.889 56.6573 94.9953 56.9764 95.1083 57.2323C95.208 57.4716 95.3908 57.5746 95.6733 57.5746H95.7265V57.8305C95.341 57.8139 94.9521 57.7973 94.54 57.7973C94.1212 57.7973 93.6892 57.8139 93.2538 57.8305V57.5746H93.3468C93.5429 57.5746 93.8819 57.5414 93.8819 57.3254C93.8819 57.2157 93.8022 56.983 93.7058 56.7072L93.3734 55.7101H91.4292L91.15 56.6041Z" fill="#211D1D"/>
<path d="M92.3697 52.8153L92.3863 52.8087L92.3697 52.8153ZM91.6385 55.195H93.1408L92.393 52.8951L91.6385 55.195ZM91.5355 55.2681L92.3631 52.7655H92.4029V52.802L92.393 52.8053L92.4029 52.802V52.7655H92.4329L93.2405 55.2681H91.5355ZM93.2903 57.794C93.7124 57.7774 94.1312 57.7607 94.5433 57.7607C94.9388 57.7607 95.3144 57.7774 95.6866 57.7906V57.6145H95.6733C95.3842 57.6145 95.1781 57.4982 95.0717 57.2489C94.9587 56.9864 94.8557 56.6673 94.7527 56.3682L93.1773 51.8781L93.1009 51.6753L93.0876 51.662H93.0743L93.0244 51.6753C92.8583 51.7784 92.5159 51.9512 92.2567 52.0177C92.2069 52.3434 92.0506 52.7721 91.941 53.0912L90.565 57.0296C90.4354 57.4018 90.1363 57.6145 89.784 57.6145H89.7707V57.7906C90.0665 57.7774 90.3623 57.7607 90.6614 57.7607C90.9938 57.7607 91.3328 57.7774 91.6651 57.7906V57.6145H91.6053C91.3261 57.6079 90.9339 57.5779 90.924 57.2722C90.9273 57.1027 91.0336 56.8833 91.1167 56.5942L91.15 56.6041L91.1167 56.5942L91.3959 55.6769H93.4L93.7423 56.6972C93.8387 56.9731 93.9152 57.1991 93.9152 57.3254C93.9019 57.5912 93.5429 57.6079 93.3468 57.6145H93.2903V57.794ZM95.7232 57.8704C95.3376 57.8538 94.9488 57.8339 94.5433 57.8339C94.1212 57.8339 93.6925 57.8538 93.2538 57.8704H93.2172V57.5381H93.3468C93.5462 57.5381 93.842 57.4915 93.842 57.3254C93.8454 57.229 93.7689 56.993 93.6692 56.7205L93.3435 55.75H91.4491L91.1865 56.6141C91.1001 56.9099 90.9971 57.1359 91.0004 57.2722C91.0004 57.4849 91.3195 57.5381 91.6053 57.5381H91.7349V57.8704H91.6984C91.356 57.8538 91.0037 57.8339 90.6614 57.8339C90.3523 57.8339 90.0466 57.8538 89.7341 57.8704H89.6976V57.5381H89.784C90.1031 57.5347 90.3723 57.3519 90.4986 57.003L91.8712 53.0646C91.9809 52.7488 92.1337 52.3201 92.2102 51.9778C92.4794 51.8847 92.825 51.7119 92.9912 51.6089L93.0743 51.5889L93.1674 51.6421L93.2438 51.8548L94.8258 56.3449C94.9255 56.644 95.0319 56.9631 95.1415 57.2157C95.2446 57.445 95.3974 57.5347 95.6733 57.5381H95.7597V57.8704H95.7232Z" fill="#211D1D"/>
<path d="M97.8901 56.9897C97.8901 57.3353 98.1261 57.4384 98.4019 57.4716C98.7542 57.4982 99.1398 57.4982 99.5353 57.455C99.8942 57.4151 100.207 57.2057 100.36 56.9897C100.496 56.8002 100.572 56.5643 100.625 56.3715H100.875C100.778 56.8634 100.659 57.3453 100.556 57.8339C99.8012 57.8339 99.0434 57.7973 98.2923 57.7973C97.5345 57.7973 96.7801 57.8339 96.0256 57.8339V57.5746H96.1419C96.4544 57.5746 96.79 57.5314 96.79 56.9996V52.5893C96.79 52.1406 96.4544 52.1008 96.1419 52.1008H96.0256V51.8415C96.4776 51.8415 96.9263 51.8748 97.3783 51.8748C97.817 51.8748 98.2457 51.8415 98.6844 51.8415V52.1008H98.4684C98.1427 52.1008 97.8901 52.1107 97.8901 52.5661V56.9897Z" fill="#211D1D"/>
<path d="M100.526 57.7939C100.625 57.3286 100.738 56.8733 100.828 56.408H100.652C100.599 56.5975 100.522 56.8268 100.386 57.0129C100.227 57.2356 99.9075 57.445 99.5386 57.4915C99.3126 57.5148 99.0899 57.5247 98.8805 57.5247C98.7143 57.5247 98.5515 57.5181 98.3953 57.5081C98.1194 57.4782 97.8469 57.3586 97.8502 56.993V52.5627C97.8502 52.0874 98.1493 52.0608 98.4684 52.0608H98.6479V51.878C98.2258 51.8814 97.807 51.9146 97.3816 51.9146C96.9329 51.9146 96.4975 51.8814 96.0588 51.878V52.0608H96.1419C96.451 52.0608 96.8232 52.114 96.8232 52.5893V56.9996C96.8232 57.5546 96.451 57.6145 96.1419 57.6145H96.0588V57.7939C96.8 57.7906 97.5444 57.7607 98.2922 57.7607C99.0367 57.7607 99.7812 57.7906 100.526 57.7939ZM100.556 57.8671C99.7978 57.8671 99.0434 57.8338 98.2922 57.8338C97.5345 57.8338 96.78 57.8671 96.0223 57.8671H95.989V57.538H96.1419C96.4543 57.5314 96.7501 57.5081 96.7534 56.9996V52.5893C96.7501 52.1705 96.4576 52.1406 96.1419 52.134H95.989V51.8049H96.0223C96.4809 51.8049 96.9263 51.8382 97.3816 51.8382C97.817 51.8382 98.2457 51.8049 98.6877 51.8049H98.721V52.134H98.4684C98.136 52.1439 97.93 52.1306 97.9233 52.5627V56.993C97.9267 57.312 98.1327 57.3951 98.4052 57.435C98.5548 57.445 98.7143 57.4516 98.8805 57.4516C99.0899 57.4516 99.3059 57.4416 99.5319 57.4184C99.8809 57.3752 100.18 57.1758 100.33 56.9697C100.463 56.7869 100.536 56.5509 100.585 56.3648L100.595 56.3349H100.918L100.911 56.3814C100.815 56.87 100.695 57.3519 100.592 57.8405L100.582 57.8671H100.556Z" fill="#211D1D"/>
<path d="M70.5174 21.0324C70.5108 17.3067 68.1843 14.1327 64.9073 12.8764V29.185C68.1843 27.9254 70.5108 24.7547 70.5174 21.0324ZM58.6524 29.1817V12.8764C55.3754 14.1393 53.0523 17.31 53.0456 21.0324C53.0523 24.7514 55.3754 27.922 58.6524 29.1817ZM61.7799 7.24633C54.169 7.24965 48.0005 13.4181 48.0005 21.0324C48.0005 28.6433 54.169 34.8117 61.7799 34.8117C69.3941 34.8117 75.5626 28.6433 75.5659 21.0324C75.5626 13.4181 69.3941 7.24965 61.7799 7.24633ZM61.7466 36.1146C53.4179 36.1511 46.5614 29.4043 46.5614 21.1886C46.5614 12.2117 53.4179 6 61.7466 6H65.6518C73.8842 6 81.3954 12.205 81.3954 21.1886C81.3954 29.401 73.8842 36.1146 65.6518 36.1146H61.7466Z" fill="#254D98"/>
</svg>
