<svg xmlns="http://www.w3.org/2000/svg" width="128" height="64" fill="none"><rect width="128" height="64" fill="#fff" rx="6"/><path fill="#211D1D" d="M30.133 46.54c0 1.217.868 1.36 1.642 1.36 3.407 0 4.523-2.573 4.523-4.922 0-2.948-1.89-5.079-4.935-5.079-.648 0-.944.047-1.23.063v8.578Zm-1.545-7.394c0-1.42-.741-1.327-1.45-1.343v-.409c.612.03 1.244.03 1.858.03.665 0 1.563-.03 2.733-.03 4.08 0 6.307 2.729 6.307 5.52 0 1.563-.913 5.491-6.497 5.491-.804 0-1.549-.03-2.287-.03-.71 0-1.405.013-2.113.03v-.412c.944-.093 1.402-.126 1.449-1.197v-7.65ZM40.277 38.767c-.413 0-.775-.38-.775-.788 0-.395.38-.758.775-.758.408 0 .774.33.774.758a.789.789 0 0 1-.774.788Zm-1.689 9.226h.3c.441 0 .757 0 .757-.522v-4.274c0-.691-.236-.788-.82-1.1v-.253c.74-.222 1.624-.522 1.688-.571a.573.573 0 0 1 .282-.077c.08 0 .11.093.11.22v6.055c0 .522.349.522.79.522h.267v.412c-.536 0-1.087-.033-1.656-.033-.568 0-1.136.016-1.718.033v-.412ZM43.46 43.293c0-.581-.172-.74-.913-1.04v-.302c.678-.22 1.326-.426 2.083-.755.047 0 .093.03.093.156v1.027c.901-.648 1.672-1.183 2.73-1.183 1.342 0 1.814.977 1.814 2.207v4.068c0 .522.349.522.787.522h.286v.412c-.555 0-1.107-.033-1.672-.033-.568 0-1.136.016-1.704.033v-.412h.282c.445 0 .758 0 .758-.522V43.39c0-.9-.552-1.343-1.453-1.343-.501 0-1.306.409-1.828.758v4.666c0 .522.35.522.791.522h.283v.412c-.552 0-1.107-.033-1.675-.033-.565 0-1.133.016-1.702.033v-.412h.286c.439 0 .755 0 .755-.522v-4.178ZM54.332 43.546c.392 0 .439-.206.439-.395 0-.805-.489-1.45-1.373-1.45-.96 0-1.622.708-1.811 1.845h2.745Zm-2.792.505c-.033.143-.033.379 0 .914.093 1.499 1.054 2.729 2.317 2.729.867 0 1.548-.472 2.13-1.057l.22.222c-.725.961-1.623 1.782-2.915 1.782-2.51 0-3.015-2.43-3.015-3.44 0-3.09 2.08-4.005 3.184-4.005 1.28 0 2.652.805 2.666 2.476 0 .097 0 .19-.014.283l-.143.096h-4.43ZM56.489 47.993h.429c.442 0 .754 0 .754-.522v-4.43c0-.489-.582-.585-.818-.711v-.233c1.15-.492 1.782-.9 1.925-.9.093 0 .14.046.14.205v1.416h.033c.395-.611 1.056-1.622 2.017-1.622.395 0 .897.266.897.834 0 .426-.295.808-.737.808-.492 0-.492-.382-1.04-.382-.27 0-1.154.362-1.154 1.313v3.702c0 .522.316.522.758.522h.884v.412c-.868-.017-1.53-.033-2.207-.033-.648 0-1.31.016-1.881.033v-.412ZM62.56 46.211c.207 1.04.838 1.925 1.992 1.925.927 0 1.273-.569 1.273-1.12 0-1.861-3.434-1.263-3.434-3.802 0-.884.708-2.018 2.443-2.018.505 0 1.183.143 1.798.456l.11 1.608h-.362c-.157-.99-.708-1.562-1.719-1.562-.631 0-1.23.366-1.23 1.044 0 1.844 3.657 1.276 3.657 3.752 0 1.04-.835 2.147-2.71 2.147-.634 0-1.375-.22-1.927-.535l-.173-1.815.283-.08ZM81.332 40.249h-.395c-.3-1.845-1.609-2.586-3.374-2.586-1.814 0-4.45 1.213-4.45 4.996 0 3.19 2.277 5.477 4.703 5.477 1.559 0 2.855-1.07 3.17-2.729l.363.093-.362 2.303c-.665.413-2.447.838-3.49.838-3.69 0-6.022-2.383-6.022-5.933 0-3.23 2.885-5.55 5.979-5.55 1.276 0 2.506.409 3.719.834l.16 2.257ZM81.9 47.993h.3c.442 0 .757 0 .757-.522v-8.78c0-1.028-.235-1.06-.837-1.234v-.252c.631-.206 1.293-.486 1.625-.678.173-.093.303-.173.346-.173.096 0 .126.093.126.22V47.47c0 .522.349.522.791.522h.27v.412c-.536 0-1.09-.033-1.66-.033-.564 0-1.132.016-1.717.033v-.412ZM92.027 47.534c0 .286.173.303.442.303.187 0 .426-.017.632-.017v.332c-.681.064-1.974.393-2.273.489l-.08-.047v-1.276c-.944.771-1.672 1.323-2.792 1.323-.85 0-1.735-.552-1.735-1.874v-4.039c0-.412-.063-.807-.944-.884v-.302c.569-.017 1.828-.11 2.034-.11.176 0 .176.11.176.459v4.068c0 .472 0 1.828 1.37 1.828.535 0 1.246-.409 1.907-.957v-4.248c0-.312-.757-.485-1.322-.645v-.285c1.419-.093 2.303-.22 2.46-.22.125 0 .125.11.125.286v5.816ZM95.165 46.62c0 .602.568 1.609 1.625 1.609 1.688 0 2.4-1.655 2.4-3.061 0-1.702-1.293-3.12-2.523-3.12-.588 0-1.077.378-1.502.743v3.83Zm0-4.29c.631-.535 1.485-1.134 2.35-1.134 1.83 0 2.934 1.596 2.934 3.31 0 2.068-1.512 4.135-3.772 4.135-1.167 0-1.778-.379-2.19-.552l-.472.363-.33-.173c.137-.93.217-1.848.217-2.809v-6.78c0-1.027-.236-1.06-.834-1.233v-.252c.631-.203 1.293-.486 1.625-.678.173-.093.299-.173.349-.173.093 0 .123.093.123.223v5.753ZM27.119 57.575h.12c.308 0 .637-.044.637-.489V52.59c0-.448-.329-.488-.638-.488h-.12v-.263c.336 0 .852.037 1.274.037.428 0 .944-.037 1.346-.037v.263h-.12c-.31 0-.635.04-.635.488v4.497c0 .445.326.489.635.489h.12v.259c-.412 0-.928-.037-1.356-.037-.422 0-.928.037-1.263.037v-.26Z"/><path fill="#211D1D" d="M29.701 57.794v-.183h-.083c-.306 0-.671-.053-.675-.525v-4.497c.004-.475.37-.528.675-.528h.083v-.18c-.395 0-.894.034-1.31.034-.408 0-.9-.034-1.232-.034v.18h.08c.305 0 .674.053.674.528v4.497c0 .472-.369.525-.675.525h-.08v.183c.333-.003.818-.033 1.224-.033.418 0 .914.033 1.32.033Zm.037.076c-.416 0-.93-.036-1.356-.036-.42 0-.924.036-1.263.036h-.037v-.332h.156c.313-.007.595-.033.599-.452v-4.497c-.004-.419-.286-.448-.599-.455h-.156v-.33h.037c.339 0 .85.034 1.273.034.425 0 .94-.033 1.346-.033h.036v.329h-.156c-.312.007-.598.036-.598.455v4.497c0 .419.286.445.598.452h.156v.332h-.036ZM35.634 56.142l.016-.016v-3.22c0-.702-.488-.805-.748-.805h-.186v-.26c.402 0 .798.034 1.2.034.352 0 .705-.033 1.054-.033v.259h-.127c-.362 0-.764.066-.764 1.087v3.908c0 .3.01.598.053.864h-.329l-4.417-4.925v3.536c0 .748.143 1 .804 1h.147v.263c-.37 0-.738-.037-1.107-.037-.386 0-.781.037-1.167.037v-.263h.12c.592 0 .774-.398.774-1.087v-3.612c0-.482-.398-.771-.784-.771h-.11v-.26c.326 0 .662.034.988.034.255 0 .505-.033.764-.033l3.819 4.3Z"/><path fill="#211D1D" d="M35.614 56.126v-.004l-.007-.006.007.01Zm.02.016.026-.026-.026.026Zm.17 1.782h.285a5.573 5.573 0 0 1-.047-.828v-3.908c0-1.03.432-1.127.801-1.127h.09v-.183c-.336.003-.675.037-1.017.037-.392 0-.774-.034-1.163-.037v.183h.15c.265 0 .784.12.784.844l-.01 3.244-.02.016-.027.03-3.815-4.317c-.256 0-.505.037-.765.037-.315 0-.638-.034-.95-.037v.183h.073c.405 0 .821.309.821.81v3.613c0 .688-.193 1.127-.811 1.13l-.083-.003v.186c.372-.006.754-.036 1.13-.036.359 0 .715.03 1.067.036v-.182h-.107c-.674-.004-.844-.296-.844-1.044v-3.633l4.457 4.986Zm.325.076-.352-.013-4.358-4.856v3.44c.014.748.127.957.771.967h.187v.33h-.04c-.373 0-.742-.03-1.107-.03-.382 0-.778.03-1.17.03h-.037v-.33h.16c.568-.003.728-.369.738-1.053v-3.613a.739.739 0 0 0-.748-.735h-.15v-.332h.037c.33 0 .665.033.99.033.253 0 .502-.033.791-.02l3.773 4.244v-3.157c-.007-.681-.459-.764-.712-.768h-.226v-.332h.04c.402 0 .798.033 1.2.033.35 0 .701-.033 1.057-.033h.037v.332h-.167c-.355.01-.718.04-.728 1.05v3.909c0 .296.01.598.05.86l.007.044h-.043ZM38.256 52.27c-.645 0-.668.153-.798.781h-.256c.034-.239.077-.482.103-.73.034-.24.05-.48.05-.729h.21c.066.26.282.25.515.25h4.427c.229 0 .445-.01.465-.266l.203.036c-.033.23-.067.462-.093.691-.017.233-.017.466-.017.698l-.256.097c-.02-.32-.063-.828-.638-.828h-1.406v4.567c0 .661.3.738.711.738h.163v.255c-.335 0-.937-.033-1.399-.033-.512 0-1.117.034-1.452.034v-.256h.163c.475 0 .714-.044.714-.718V52.27h-1.41Z"/><path fill="#211D1D" d="M41.643 57.87c-.34 0-.941-.036-1.403-.036-.512 0-1.113.036-1.452.036h-.034v-.332h.2c.472-.01.664-.016.671-.684v-4.547h-1.37v-.073h1.447v4.62c0 .687-.276.76-.748.76h-.127v.18c.34-.003.915-.033 1.413-.033.449 0 1.02.03 1.363.033v-.18h-.127c-.415 0-.75-.102-.75-.777v-4.603h1.445c.578 0 .651.488.671.807l.187-.066c0-.223 0-.449.016-.675.023-.22.057-.438.087-.658l-.13-.023c-.043.25-.283.262-.495.26h-4.474c-.203 0-.422-.01-.498-.247h-.143c0 .236-.017.465-.05.695-.027.236-.063.462-.096.688h.186c.113-.599.186-.791.824-.781v.073c-.635.013-.618.12-.761.754l-.003.03h-.333l.007-.046c.03-.24.076-.479.103-.728.033-.24.05-.479.05-.725v-.036h.272l.007.026c.06.216.216.22.435.223h4.474c.236-.003.412-.01.425-.233l.003-.04.28.047-.004.037c-.033.229-.066.462-.093.69-.016.23-.016.463-.016.696v.023l-.024.013-.305.11v-.05c-.024-.322-.06-.791-.602-.791h-1.37v4.53c.007.648.267.691.675.701h.2v.333h-.033ZM43.45 57.575h.12c.31 0 .635-.044.635-.489V52.59c0-.448-.326-.488-.635-.488h-.12v-.263c.522 0 1.416.037 2.138.037.72 0 1.611-.037 2.193-.037-.013.372-.006.94.02 1.316l-.26.07c-.039-.558-.142-1.004-1.046-1.004h-1.19v2.247h1.02c.516 0 .629-.289.678-.754h.256a18.99 18.99 0 0 0 0 1.98l-.256.054c-.05-.516-.076-.851-.67-.851h-1.028v2c0 .559.495.559 1.044.559 1.033 0 1.485-.07 1.745-1.047l.239.06c-.113.455-.216.907-.293 1.366-.548 0-1.535-.037-2.306-.037-.775 0-1.795.037-2.283.037v-.26Z"/><path fill="#211D1D" d="M48.01 57.794c.074-.432.17-.867.276-1.3l-.17-.04c-.255.961-.754 1.044-1.767 1.038-.542 0-1.08 0-1.084-.595v-2.038h1.067c.602-.006.658.356.701.844l.186-.036a22.67 22.67 0 0 1-.023-.95c0-.323.01-.642.023-.968h-.186c-.046.449-.186.761-.71.755h-1.058V52.18h1.23c.894-.004 1.044.458 1.08.993l.186-.05a13.064 13.064 0 0 1-.016-1.246c-.585.003-1.453.037-2.157.037-.705 0-1.576-.034-2.1-.037v.183h.082c.306 0 .672.053.672.528v4.497c0 .472-.366.522-.672.529h-.083v.179c.499-.003 1.492-.033 2.247-.033.754 0 1.721.03 2.276.033Zm.03.073c-.551 0-1.538-.033-2.306-.033-.775 0-1.795.033-2.283.033h-.04v-.329h.16c.308-.007.594-.033.594-.452v-4.497c0-.419-.286-.445-.595-.455h-.16v-.33h.04c.522 0 1.416.034 2.138.034.718 0 1.608-.033 2.193-.033h.04v.037c-.01.13-.01.282-.01.445 0 .296.01.621.023.864v.033l-.026.007-.303.08v-.047c-.05-.555-.123-.96-1.01-.967h-1.157v2.174h.984c.499-.004.585-.26.642-.722l.003-.033h.332v.037a16.903 16.903 0 0 0 0 1.98v.03l-.033.01-.3.057-.002-.04c-.057-.522-.06-.811-.632-.818h-.994v1.965c.004.521.452.518 1.01.521 1.038-.006 1.45-.056 1.709-1.02l.007-.037.036.01.276.07-.01.037c-.11.452-.213.907-.29 1.36l-.006.03h-.03ZM50.59 54.743h.418c.861 0 1.323-.326 1.323-1.34 0-.76-.489-1.252-1.253-1.252-.26 0-.369.026-.489.033v2.559Zm-1.097-1.99c0-.629-.346-.652-.612-.652h-.156v-.26c.276 0 .808.034 1.333.034.512 0 .924-.033 1.382-.033 1.077 0 2.041.292 2.041 1.512 0 .77-.515 1.243-1.193 1.512l1.469 2.194c.24.362.409.465.83.515v.255c-.282 0-.558-.033-.84-.033-.266 0-.542.034-.808.034-.658-.865-1.226-1.792-1.785-2.782h-.565v1.838c0 .664.31.688.702.688h.156v.255c-.489 0-.987-.033-1.476-.033-.412 0-.814.034-1.246.034v-.256h.156c.316 0 .612-.147.612-.466v-4.357Z"/><path fill="#211D1D" d="M51.008 54.706c.851-.01 1.28-.302 1.286-1.302-.003-.748-.471-1.214-1.216-1.217-.233 0-.342.02-.452.033v2.486h.382Zm-.419.073h-.036v-2.628l.03-.004c.12-.01.233-.033.495-.033.781 0 1.29.509 1.29 1.29-.004 1.026-.496 1.375-1.36 1.375h-.419Zm0 .233h.586l.01.02c.558.987 1.123 1.914 1.754 2.762.263 0 .539-.033.805-.033.275 0 .541.03.807.033v-.19c-.402-.046-.591-.169-.824-.525l-1.496-2.233.044-.017c.67-.266 1.17-.724 1.17-1.479 0-1.19-.928-1.465-2.005-1.469-.455 0-.867.034-1.382.034-.505 0-1.014-.034-1.296-.034v.183h.12c.265 0 .644.043.644.688v4.357c0 .346-.322.502-.645.502h-.12v.183c.416 0 .805-.033 1.207-.033.482 0 .967.033 1.44.033v-.183h-.117c-.389 0-.738-.046-.738-.724v-1.875h.037Zm3.999 2.855c-.286 0-.559-.033-.844-.033-.26 0-.535.033-.835.023-.658-.867-1.22-1.788-1.774-2.768h-.509v1.798c.01.648.27.641.665.651h.193v.33h-.037c-.492 0-.99-.034-1.479-.034-.409 0-.81.033-1.243.033h-.037v-.329h.193c.31-.003.569-.136.572-.429v-4.357c-.007-.608-.306-.608-.572-.618h-.193v-.33h.037c.28 0 .808.034 1.333.034.512 0 .924-.033 1.382-.033 1.08 0 2.078.302 2.08 1.545 0 .775-.514 1.26-1.176 1.53l1.443 2.16c.24.355.389.445.804.498l.033.003v.326h-.036ZM60.414 56.142l.017-.016v-3.22c0-.702-.489-.805-.745-.805h-.19v-.26c.403 0 .795.034 1.2.034.356 0 .705-.033 1.057-.033v.259h-.126c-.362 0-.768.066-.768 1.087v3.908c0 .3.01.598.05.864h-.322l-4.42-4.925v3.536c0 .748.146 1 .807 1h.146v.263c-.369 0-.737-.037-1.11-.037-.385 0-.777.037-1.166.037v-.263h.12c.594 0 .774-.398.774-1.087v-3.612c0-.482-.396-.771-.781-.771h-.113v-.26c.325 0 .664.034.987.034.256 0 .505-.033.764-.033l3.819 4.3Z"/><path fill="#211D1D" d="M60.394 56.126v-.004l-.007-.006.007.01Zm.02.016.026-.026-.026.026Zm.173 1.782h.279a6.632 6.632 0 0 1-.043-.828v-3.908c0-1.03.435-1.124.804-1.127h.09v-.183c-.34.003-.678.037-1.02.037-.393 0-.778-.034-1.164-.037v.183h.153c.263.003.784.12.784.844l-.013 3.244-.017.016-.026.03-3.819-4.317c-.256 0-.505.037-.764.037-.316 0-.638-.034-.95-.037v.183h.076c.402.003.817.306.817.81v3.613c0 .688-.196 1.127-.81 1.13h-.084v.18c.372-.003.755-.033 1.134-.033.355 0 .714.03 1.07.033v-.18h-.11c-.678 0-.844-.295-.847-1.043v-3.633l4.46 4.986Zm.325.076-.352-.013-4.357-4.856v3.44c.01.748.123.957.771.967h.183v.33h-.037c-.372 0-.74-.034-1.106-.034-.386 0-.785.033-1.167.033h-.043v-.329h.16c.564-.003.73-.369.734-1.053v-3.613c0-.459-.372-.735-.741-.735h-.153v-.332h.043c.326 0 .661.033.984.033.252 0 .502-.033.79-.023l3.773 4.247v-3.157c0-.681-.459-.764-.708-.768h-.23v-.332h.04c.406 0 .802.033 1.2.033.353 0 .705-.033 1.057-.033h.037v.332h-.163c-.356.007-.721.04-.728 1.05v3.909c0 .296.007.595.05.86l.003.044h-.04ZM64.389 52.802h-.02l-.798 2.43h1.606l-.788-2.43Zm-1.253 3.802c-.087.293-.193.519-.193.668 0 .26.362.303.645.303h.096v.255a21.768 21.768 0 0 0-1.04-.033c-.31 0-.618.017-.924.034v-.256h.05c.332 0 .618-.2.744-.559l1.376-3.938c.11-.32.266-.745.316-1.067.276-.093.618-.263.781-.366l.07-.016.06.023.08.216 1.575 4.49c.103.3.206.618.319.874.103.24.282.343.565.343h.05v.255a26.781 26.781 0 0 0-1.18-.033c-.422 0-.85.017-1.286.034v-.256h.093c.196 0 .532-.034.532-.25 0-.11-.077-.342-.177-.618l-.332-.997h-1.948l-.272.894Z"/><path fill="#211D1D" d="m64.349 52.815.02-.006-.02.006Zm-.728 2.38h1.502l-.747-2.3-.755 2.3Zm-.103.076.824-2.505h.047v.036l-.01.003.01-.003v-.036h.023l.814 2.505h-1.708Zm1.755 2.52c.425-.014.84-.03 1.253-.03.399 0 .771.016 1.143.03v-.176h-.013c-.293 0-.492-.117-.602-.366a13.46 13.46 0 0 1-.315-.88l-1.58-4.49-.072-.207-.014-.01h-.016l-.05.013a3.261 3.261 0 0 1-.764.343c-.054.325-.206.754-.32 1.073l-1.372 3.939c-.133.372-.432.584-.781.584h-.013v.177c.292-.014.588-.03.887-.03.332 0 .671.016 1 .03v-.176h-.056c-.28-.007-.668-.037-.678-.34 0-.172.103-.392.19-.68l.036.01-.037-.01.283-.918h1.997l.346 1.02c.096.276.176.502.176.628-.013.266-.376.283-.568.29h-.06v.176Zm2.433.08c-.386-.017-.771-.037-1.18-.037-.422 0-.848.02-1.286.036h-.04v-.335h.133c.196 0 .492-.043.492-.21 0-.096-.074-.332-.17-.605l-.326-.97h-1.894l-.266.864c-.09.296-.19.522-.19.662.004.209.323.259.609.259h.133v.335h-.04c-.342-.016-.695-.036-1.037-.036-.31 0-.618.02-.924.036h-.036v-.335h.086c.319 0 .585-.183.708-.532l1.376-3.938c.113-.316.266-.745.339-1.087a4.68 4.68 0 0 0 .78-.37l.084-.02.093.05.076.217 1.582 4.49c.103.299.206.618.316.87.1.23.26.32.532.32h.09v.335h-.04ZM68.088 52.27c-.645 0-.671.153-.801.781h-.26c.037-.239.08-.482.107-.73.033-.24.05-.48.05-.729h.206c.07.26.286.25.515.25h4.43c.23 0 .443-.01.462-.266l.207.036c-.034.23-.067.462-.097.691-.02.233-.02.466-.02.698l-.252.097c-.017-.32-.06-.828-.635-.828h-1.41v4.567c0 .661.303.738.715.738h.163v.255c-.336 0-.937-.033-1.4-.033-.514 0-1.116.034-1.452.034v-.256h.163c.475 0 .715-.044.715-.718V52.27h-1.406Z"/><path fill="#211D1D" d="M71.465 57.87c-.333 0-.934-.036-1.396-.036-.512 0-1.114.036-1.453.036h-.036v-.332h.2c.474-.01.66-.016.674-.684v-4.547h-1.37v-.073h1.443v4.62c0 .687-.276.754-.748.76h-.126v.18c.339-.003.917-.033 1.416-.033.448 0 1.02.03 1.362.033l-.003-.18h-.126c-.412-.006-.745-.102-.748-.777v-4.603H72c.578 0 .651.488.668.807l.186-.066c0-.223 0-.449.017-.675.026-.22.06-.438.09-.658l-.13-.023c-.04.25-.283.262-.499.26h-4.47c-.203.002-.422-.01-.499-.25h-.14c-.002.24-.02.468-.052.698-.027.236-.067.462-.1.688h.186c.113-.599.186-.795.828-.781v.073c-.635.01-.622.12-.761.754l-.007.03h-.332l.006-.046c.033-.24.08-.479.103-.728.037-.24.05-.479.05-.725v-.036h.273l.01.026c.06.216.216.22.435.223h4.47c.24-.003.412-.01.429-.233v-.04l.04.007.246.04-.007.037c-.037.229-.07.462-.096.69-.014.23-.014.463-.014.696v.023l-.026.013-.306.11v-.05c-.02-.322-.056-.791-.598-.791h-1.373v4.53c.01.648.266.691.675.701h.203v.333h-.04ZM73.32 57.575h.119c.312 0 .635-.044.635-.489V52.59c0-.448-.323-.488-.635-.488h-.12v-.263c.336 0 .848.037 1.27.037.428 0 .944-.037 1.35-.037v.263h-.12c-.313 0-.639.04-.639.488v4.497c0 .445.326.489.638.489h.12v.259c-.412 0-.927-.037-1.36-.037-.418 0-.923.037-1.259.037v-.26Z"/><path fill="#211D1D" d="M75.898 57.794v-.18h-.08c-.309 0-.674-.056-.674-.528v-4.497c0-.475.365-.528.674-.528h.08v-.183c-.395.003-.89.037-1.31.037-.408 0-.9-.034-1.232-.037v.183h.083c.302 0 .671.053.671.528v4.497c0 .472-.369.529-.671.529h-.083v.179c.332-.003.817-.033 1.223-.033.419 0 .914.03 1.32.033Zm.04.073c-.415 0-.93-.033-1.36-.033-.418 0-.923.033-1.259.033h-.036v-.329h.156c.312-.007.595-.033.595-.452v-4.497c0-.419-.283-.448-.595-.455h-.156v-.33h.036c.336 0 .851.034 1.27.034.429 0 .94-.033 1.35-.033h.032v.329h-.153c-.315.007-.598.036-.601.455v4.497c.003.419.286.445.602.452h.152v.33h-.033ZM79.488 57.585c1.668 0 1.954-1.47 1.954-2.719 0-1.256-.675-2.775-2.097-2.775-1.502 0-1.948 1.34-1.948 2.486 0 1.539.701 3.008 2.09 3.008Zm-.127-5.873c1.828 0 3.287 1.133 3.287 2.964 0 1.971-1.415 3.284-3.243 3.284-1.822 0-3.21-1.233-3.21-3.08 0-1.782 1.382-3.168 3.166-3.168Z"/><path fill="#211D1D" d="M77.357 54.577c.004-1.154.456-2.523 1.984-2.523 1.46 0 2.14 1.549 2.14 2.812 0 1.25-.295 2.752-1.993 2.752v-.07c1.635-.003 1.917-1.432 1.92-2.682 0-1.246-.67-2.735-2.067-2.739-1.472.004-1.907 1.31-1.907 2.45 0 1.532.698 2.964 2.054 2.971v.07c-1.423 0-2.127-1.496-2.13-3.041Zm-1.203.302c.007-1.804 1.403-3.2 3.204-3.204v.077c-1.765 0-3.13 1.362-3.13 3.127.003 1.825 1.372 3.045 3.177 3.045 1.808 0 3.204-1.297 3.207-3.25 0-1.806-1.44-2.922-3.254-2.922v-.077c1.845.004 3.324 1.147 3.327 2.998-.003 1.994-1.436 3.32-3.28 3.324-1.838-.004-3.244-1.253-3.25-3.118ZM88.431 56.142l.017-.016v-3.22c0-.702-.489-.805-.748-.805h-.186v-.26c.402 0 .798.034 1.2.034.355 0 .704-.033 1.057-.033v.259h-.13c-.362 0-.764.066-.764 1.087v3.908c0 .3.01.598.053.864h-.33l-4.416-4.925v3.536c0 .748.143 1 .808 1h.142v.263c-.368 0-.734-.037-1.106-.037-.386 0-.781.037-1.167.037v-.263h.12c.595 0 .77-.398.77-1.087v-3.612c0-.482-.391-.771-.78-.771h-.11v-.26c.326 0 .658.034.987.034.256 0 .505-.033.765-.033l3.818 4.3Z"/><path fill="#211D1D" d="M88.411 56.126v-.004l-.01-.006.01.01Zm.02.016.027-.026-.027.026Zm.17 1.782h.286a5.573 5.573 0 0 1-.047-.828v-3.908c0-1.03.435-1.124.801-1.127h.093v-.183c-.339.003-.678.037-1.023.037-.386 0-.772-.034-1.16-.037v.183h.15c.265.003.784.12.784.844l-.01 3.244-.017.016-.027.03-3.822-4.317c-.252 0-.502.037-.76.037-.317 0-.642-.034-.951-.037v.183h.073c.405.003.82.306.82.81v3.613c0 .688-.192 1.127-.81 1.13h-.083v.18c.372-.003.754-.033 1.13-.033.359 0 .714.03 1.07.033v-.18h-.11c-.674 0-.844-.295-.844-1.043v-3.633l4.457 4.986Zm.329.076-.356-.013-4.357-4.856v3.44c.013.748.126.957.771.964h.186v.332h-.036c-.373 0-.741-.03-1.11-.03-.383 0-.778.03-1.167.03h-.037v-.332h.157c.565 0 .73-.366.734-1.05v-3.613c0-.459-.372-.735-.744-.735h-.147v-.332h.037c.326 0 .661.033.987.033.253 0 .502-.033.791-.02l3.772 4.244v-3.157c-.003-.681-.458-.764-.71-.768h-.227v-.332h.04c.402 0 .801.033 1.197.033.355 0 .7-.033 1.06-.033h.036v.332h-.166c-.352.01-.718.04-.724 1.05v3.909c0 .296.006.598.046.86l.007.044h-.04ZM92.403 52.802h-.017l-.8 2.43h1.608l-.791-2.43Zm-1.253 3.802c-.083.293-.19.519-.19.668 0 .26.366.303.645.303h.097v.255a21.907 21.907 0 0 0-1.04-.033c-.313 0-.619.017-.928.034v-.256h.05c.336 0 .621-.2.748-.559l1.376-3.938c.11-.32.262-.745.316-1.067.272-.093.618-.263.78-.366l.07-.016.06.023.077.216 1.578 4.49c.1.3.206.618.32.874.099.24.282.343.564.343h.053v.255a27.083 27.083 0 0 0-1.186-.033c-.419 0-.85.017-1.286.034v-.256h.093c.196 0 .535-.034.535-.25 0-.11-.08-.342-.176-.618l-.333-.997H91.43l-.279.894Z"/><path fill="#211D1D" d="m92.37 52.815.016-.006-.016.006Zm-.732 2.38h1.503l-.748-2.3-.755 2.3Zm-.103.073.828-2.502h.04v.036l-.01.003.01-.003v-.036h.03l.807 2.502h-1.704Zm1.755 2.526c.422-.017.841-.033 1.253-.033.396 0 .771.016 1.144.03v-.176h-.014c-.289 0-.495-.117-.601-.366-.113-.263-.216-.582-.32-.88l-1.575-4.49-.076-.204-.013-.013h-.014l-.05.013a3.302 3.302 0 0 1-.767.343c-.05.325-.206.754-.316 1.073l-1.376 3.939c-.13.372-.429.584-.781.584h-.013v.177c.296-.014.591-.03.89-.03.333 0 .672.016 1.004.03v-.176h-.06c-.279-.007-.671-.037-.681-.343.003-.17.11-.389.193-.678l.033.01-.033-.01.279-.917H93.4l.342 1.02c.097.276.173.502.173.628-.013.266-.372.283-.568.29h-.057v.179Zm2.433.076c-.385-.016-.774-.036-1.18-.036-.422 0-.85.02-1.29.036h-.036v-.332h.13c.2 0 .495-.046.495-.213.003-.096-.073-.332-.173-.605l-.325-.97h-1.895l-.263.864c-.086.296-.189.522-.186.658 0 .213.32.266.605.266h.13v.332h-.037c-.342-.016-.694-.036-1.037-.036-.309 0-.614.02-.927.036h-.036v-.332h.086c.32-.003.588-.186.715-.535l1.372-3.938c.11-.316.263-.745.34-1.087a4.68 4.68 0 0 0 .78-.37l.083-.02.093.054.077.213 1.582 4.49c.1.299.206.618.316.87.103.23.255.32.531.323h.087v.332h-.037ZM97.89 56.99c0 .345.236.448.512.482a6.2 6.2 0 0 0 1.133-.017c.36-.04.672-.25.825-.465.136-.19.212-.426.265-.619h.25c-.097.492-.216.974-.319 1.463-.755 0-1.513-.037-2.264-.037-.758 0-1.512.037-2.266.037v-.26h.116c.312 0 .648-.043.648-.574v-4.41c0-.45-.336-.49-.648-.49h-.116v-.258c.452 0 .9.033 1.352.033.439 0 .868-.033 1.306-.033v.259h-.216c-.325 0-.578.01-.578.465v4.424Z"/><path fill="#211D1D" d="M100.526 57.794c.099-.465.212-.92.302-1.386h-.176c-.053.19-.13.419-.266.605-.159.223-.478.432-.847.479a6.453 6.453 0 0 1-1.144.016c-.276-.03-.548-.15-.545-.515v-4.43c0-.476.3-.502.618-.502h.18v-.183c-.422.003-.841.037-1.266.037-.45 0-.885-.034-1.323-.037v.183h.083c.309 0 .681.053.681.528V57c0 .556-.372.615-.681.615h-.083v.18c.741-.003 1.485-.033 2.233-.033.745 0 1.49.03 2.234.033Zm.03.073c-.758 0-1.513-.033-2.264-.033-.758 0-1.512.033-2.27.033h-.033v-.329h.153c.312-.007.608-.03.611-.538v-4.41c-.003-.42-.295-.45-.611-.456h-.153v-.33h.033c.459 0 .904.034 1.36.034.435 0 .864-.033 1.306-.033h.033v.329h-.253c-.332.01-.538-.003-.545.429v4.43c.004.319.21.402.482.442a6.354 6.354 0 0 0 1.127-.017c.349-.043.648-.242.798-.448.133-.183.206-.42.255-.605l.01-.03h.323l-.007.046c-.096.489-.216.97-.319 1.46l-.01.026h-.026Z"/><path fill="#254D98" d="M70.517 21.032a8.745 8.745 0 0 0-5.61-8.156v16.309a8.747 8.747 0 0 0 5.61-8.153Zm-11.865 8.15V12.876a8.752 8.752 0 0 0-5.606 8.156 8.743 8.743 0 0 0 5.606 8.15ZM61.78 7.246C54.169 7.25 48 13.418 48 21.032c0 7.611 6.169 13.78 13.78 13.78 7.614 0 13.783-6.169 13.786-13.78-.003-7.614-6.172-13.782-13.786-13.786Zm-.033 28.869c-8.33.036-15.186-6.71-15.186-14.926C46.561 12.212 53.418 6 61.747 6h3.905c8.232 0 15.743 6.205 15.743 15.189 0 8.212-7.51 14.926-15.743 14.926h-3.905Z"/></svg>