<svg xmlns="http://www.w3.org/2000/svg" width="128" height="64" fill="none"><rect width="128" height="64" fill="#fff" rx="6"/><path fill="url(#a)" fill-rule="evenodd" d="M128 36.34V58a6 6 0 0 1-6 6H11.93C43.674 61.774 98.578 54.055 128 36.34Z" clip-rule="evenodd"/><path fill="#231C1D" d="M21.084 36.06c-.966.868-2.217 1.25-4.199 1.25h-.822V26.918h.822c1.982 0 3.183.352 4.199 1.271 1.058.942 1.695 2.406 1.695 3.912 0 1.507-.637 3.017-1.695 3.96ZM17.5 24.251H13v15.72h4.476c2.38 0 4.102-.56 5.608-1.816a7.888 7.888 0 0 0 2.854-6.032c0-4.639-3.464-7.872-8.438-7.872ZM27.348 39.972h3.067v-15.72h-3.067v15.72ZM37.911 30.285c-1.842-.68-2.379-1.131-2.379-1.981 0-.989.962-1.742 2.283-1.742.919 0 1.672.378 2.472 1.275l1.606-2.102c-1.32-1.15-2.896-1.741-4.619-1.741-2.78 0-4.905 1.93-4.905 4.503 0 2.167.989 3.275 3.87 4.31 1.197.425 1.808.707 2.117.896.614.398.919.966.919 1.626 0 1.27-1.012 2.217-2.38 2.217-1.46 0-2.641-.73-3.344-2.097l-1.981 1.908c1.41 2.074 3.109 2.99 5.441 2.99 3.187 0 5.42-2.117 5.42-5.16 0-2.496-1.032-3.627-4.52-4.902ZM43.4 32.124c0 4.619 3.626 8.2 8.296 8.2 1.317 0 2.448-.26 3.843-.912V35.8c-1.229 1.225-2.314 1.723-3.704 1.723-3.086 0-5.276-2.24-5.276-5.423 0-3.016 2.26-5.399 5.137-5.399 1.46 0 2.568.521 3.843 1.769v-3.607c-1.348-.68-2.453-.966-3.774-.966-4.642 0-8.365 3.658-8.365 8.227ZM79.847 34.808l-4.194-10.556h-3.349l6.67 16.121h1.65l6.79-16.12h-3.322l-4.245 10.555ZM88.8 39.972h8.694V37.31h-5.631v-4.245h5.422v-2.661h-5.422v-3.488h5.63v-2.665H88.8v15.72ZM103.484 31.49h-.896v-4.762h.942c1.912 0 2.951.8 2.951 2.329 0 1.584-1.039 2.433-2.997 2.433Zm6.149-2.599c0-2.94-2.028-4.639-5.562-4.639h-4.546v15.72h3.063v-6.315h.402l4.24 6.315H111l-4.948-6.624c2.31-.467 3.581-2.047 3.581-4.457Z"/><circle cx="64.746" cy="32" r="8.528" fill="url(#b)"/><defs><linearGradient id="a" x1="0" x2="123.443" y1="0" y2="71.831" gradientUnits="userSpaceOnUse"><stop stop-color="#E14220"/><stop offset="1" stop-color="#F79514"/></linearGradient><linearGradient id="b" x1="59.184" x2="70.678" y1="25.697" y2="37.932" gradientUnits="userSpaceOnUse"><stop stop-color="#DF2124"/><stop offset="1" stop-color="#F58112"/></linearGradient></defs></svg>