<svg xmlns="http://www.w3.org/2000/svg" width="128" height="64" fill="none"><rect width="128" height="64" fill="#fff" rx="6"/><path fill="#3B3B3B" d="M38.887 34.192a.377.377 0 0 1-.377.377h-7.13c.181 1.758 1.507 3.39 3.39 3.39a3.317 3.317 0 0 0 2.934-1.507.378.378 0 0 1 .313-.185.35.35 0 0 1 .354.335.35.35 0 0 1-.053.185c-.723 1.246-2.15 1.857-3.548 1.857-2.406.003-4.131-2.124-4.131-4.433 0-2.309 1.725-4.433 4.112-4.433 2.388 0 4.143 2.124 4.143 4.414h-.007Zm-.754-.335c-.15-1.759-1.506-3.39-3.39-3.39-1.882 0-3.19 1.612-3.389 3.39h6.78ZM47.545 29.948a.377.377 0 0 1 .354.354.345.345 0 0 1-.335.357h-1.932v7.506a.354.354 0 0 1-.354.354.377.377 0 0 1-.354-.354V30.66h-1.838a.35.35 0 0 1-.354-.335v-.023a.377.377 0 0 1 .354-.353h1.838v-2.739a.377.377 0 0 1 .324-.376.346.346 0 0 1 .377.301.258.258 0 0 1 0 .053v2.76h1.92ZM59.198 33.578v4.546a.377.377 0 0 1-.354.354.346.346 0 0 1-.354-.335v-4.565c0-1.537-.87-3.062-2.576-3.062-2.192 0-3.137 1.913-3.013 3.88 0 .052.022.278.022.312v3.39a.377.377 0 0 1-.323.376.377.377 0 0 1-.396-.305V23.191a.377.377 0 0 1 .354-.354.377.377 0 0 1 .354.354v8.432a3.431 3.431 0 0 1 2.987-1.838c2.109.012 3.299 1.838 3.299 3.793ZM71.992 34.192a.377.377 0 0 1-.377.377h-7.133c.185 1.758 1.507 3.39 3.39 3.39a3.314 3.314 0 0 0 2.93-1.507.375.375 0 0 1 .312-.185.346.346 0 0 1 .354.335.35.35 0 0 1-.052.185c-.72 1.246-2.147 1.857-3.544 1.857-2.396 0-4.113-2.147-4.113-4.437 0-2.29 1.706-4.433 4.113-4.433 2.406 0 4.124 2.124 4.142 4.414l-.022.004Zm-.776-.335c-.147-1.76-1.506-3.39-3.37-3.39-1.865 0-3.19 1.612-3.39 3.39h6.76ZM80.745 30.282a.377.377 0 0 1-.332.377c-2.094.313-3.04 2.023-3.04 4.007v3.39a.377.377 0 0 1-.323.377.352.352 0 0 1-.396-.302V30.335a.377.377 0 0 1 .324-.376.35.35 0 0 1 .396.3V31.892c.587-.998 1.759-1.944 2.983-1.944a.377.377 0 0 1 .388.335ZM92.454 34.192a.377.377 0 0 1-.377.377h-7.133c.185 1.758 1.507 3.39 3.39 3.39a3.314 3.314 0 0 0 2.93-1.507.375.375 0 0 1 .312-.185.346.346 0 0 1 .354.335.35.35 0 0 1-.052.185c-.72 1.246-2.15 1.857-3.544 1.857-2.396 0-4.117-2.147-4.117-4.437 0-2.29 1.71-4.433 4.117-4.433 2.406 0 4.142 2.124 4.142 4.414l-.022.004Zm-.753-.335c-.151-1.76-1.507-3.39-3.39-3.39-1.883 0-3.19 1.612-3.39 3.39h6.78ZM103.967 30.37v7.795a.375.375 0 0 1-.354.354.336.336 0 0 1-.325-.203.335.335 0 0 1-.029-.132v-1.503c-.591 1.172-1.634 2.023-2.968 2.023-2.112 0-3.284-1.838-3.284-3.766v-4.58a.354.354 0 0 1 .354-.354.377.377 0 0 1 .354.354v4.564c0 1.537.87 3.059 2.576 3.059 2.396 0 2.968-2.26 2.968-4.723v-2.912a.36.36 0 0 1 .112-.258.354.354 0 0 1 .265-.096.423.423 0 0 1 .12 0 .4.4 0 0 1 .162.157.4.4 0 0 1 .049.22ZM122 33.548v4.565a.375.375 0 0 1-.354.354.347.347 0 0 1-.354-.336v-4.583c0-1.537-.87-3.04-2.58-3.04-2.147 0-2.964 2.298-2.964 4.08v3.525a.375.375 0 0 1-.354.354.347.347 0 0 1-.354-.336v-4.583c0-1.537-.87-3.04-2.576-3.04-2.173 0-3.062 1.707-2.987 3.985 0 .053.019.15 0 .181v3.427a.374.374 0 0 1-.324.377.354.354 0 0 1-.395-.301v-7.842a.376.376 0 0 1 .32-.376.35.35 0 0 1 .396.301.463.463 0 0 1 0 .053v1.31a3.408 3.408 0 0 1 2.986-1.815 3.192 3.192 0 0 1 3.04 2.26c.587-1.333 1.74-2.26 3.208-2.26 2.094 0 3.288 1.815 3.288 3.766l.004-.026Z"/><path fill="#000" d="M14.915 28.234 6 32.267l8.915 5.273 8.926-5.273-8.926-4.033Z" opacity=".6"/><path fill="#000" d="m6 32.267 8.915 5.273V17.466L6 32.267Z" opacity=".45"/><path fill="#000" d="M14.915 17.466v20.078l8.926-5.273-8.926-14.805Z" opacity=".8"/><path fill="#000" d="m6 33.966 8.915 12.568v-7.307L6 33.966Z" opacity=".45"/><path fill="#000" d="M14.915 39.227v7.307l8.926-12.568-8.926 5.261Z" opacity=".8"/></svg>