<svg xmlns="http://www.w3.org/2000/svg" viewBox="0 0 320 120"><defs><style>.a{fill:none;}.b{fill:#3b3b3b;}.c,.d,.e{isolation:isolate;}.c{opacity:0.6;}.d{opacity:0.45;}.e{opacity:0.8;}</style></defs><rect class="a" width="320" height="120"/><path class="b" d="M93.32,65.82a1,1,0,0,1-1,1H73.39c.48,4.67,4,9,9,9a8.81,8.81,0,0,0,7.79-4,1,1,0,0,1,.83-.49.93.93,0,0,1,.94.89v0a.93.93,0,0,1-.14.49c-1.92,3.31-5.71,4.93-9.42,4.93C76,77.65,71.42,72,71.42,65.87S76,54.1,82.34,54.1s11,5.64,11,11.72Zm-2-.89c-.4-4.67-4-9-9-9s-8.47,4.28-9,9Z"/><path class="b" d="M116.31,54.55a1,1,0,0,1,.94.94.92.92,0,0,1-.89.95h-5.13V76.37a.94.94,0,0,1-.94.94,1,1,0,0,1-.94-.94V56.44h-4.88a.93.93,0,0,1-.94-.89v-.06a1,1,0,0,1,.94-.94h4.88V47.28a1,1,0,0,1,.86-1,.92.92,0,0,1,1,.8.71.71,0,0,1,0,.14v7.33Z"/><path class="b" d="M147.25,64.19V76.26a1,1,0,0,1-.94.94.92.92,0,0,1-.94-.89V64.19c0-4.08-2.31-8.13-6.84-8.13-5.82,0-8.33,5.08-8,10.3,0,.14.06.74.06.83v9a1,1,0,0,1-.86,1,1,1,0,0,1-1.05-.81V36.61a1,1,0,0,1,.94-.94,1,1,0,0,1,.94.94V59a9.11,9.11,0,0,1,7.93-4.88C144.09,54.15,147.25,59,147.25,64.19Z"/><path class="b" d="M181.22,65.82a1,1,0,0,1-1,1H161.28c.49,4.67,4,9,9,9a8.8,8.8,0,0,0,7.78-4,1,1,0,0,1,.83-.49.92.92,0,0,1,.94.89v0a.93.93,0,0,1-.14.49c-1.91,3.31-5.7,4.93-9.41,4.93-6.36,0-10.92-5.7-10.92-11.78s4.53-11.77,10.92-11.77,10.95,5.64,11,11.72Zm-2.06-.89c-.39-4.67-4-9-8.95-9s-8.47,4.28-9,9Z"/><path class="b" d="M204.46,55.44a1,1,0,0,1-.88,1c-5.56.83-8.07,5.37-8.07,10.64v9a1,1,0,0,1-.86,1,.93.93,0,0,1-1.05-.8s0-.09,0-.14V55.58a1,1,0,0,1,.86-1,.93.93,0,0,1,1.05.8s0,.1,0,.14v4.19c1.56-2.65,4.67-5.16,7.92-5.16A1,1,0,0,1,204.46,55.44Z"/><path class="b" d="M235.55,65.82a1,1,0,0,1-1,1H215.61c.49,4.67,4,9,9,9a8.8,8.8,0,0,0,7.78-4,1,1,0,0,1,.83-.49.92.92,0,0,1,.94.89v0a.93.93,0,0,1-.14.49c-1.91,3.31-5.71,4.93-9.41,4.93-6.36,0-10.93-5.7-10.93-11.78s4.54-11.77,10.93-11.77,11,5.64,11,11.72Zm-2-.89c-.4-4.67-4-9-9-9s-8.47,4.28-9,9Z"/><path class="b" d="M266.12,55.67v20.7a1,1,0,0,1-.94.94.9.9,0,0,1-.94-.89,0,0,0,0,1,0,0V72.43c-1.57,3.11-4.34,5.37-7.88,5.37-5.61,0-8.72-4.88-8.72-10V55.64a.94.94,0,0,1,.94-.94,1,1,0,0,1,.94.94V67.76c0,4.08,2.31,8.12,6.84,8.12,6.36,0,7.88-6,7.88-12.54V55.61a.94.94,0,0,1,1-.94,1.13,1.13,0,0,1,.32,0A1.05,1.05,0,0,1,266.12,55.67Z"/><path class="b" d="M314,64.11V76.23a1,1,0,0,1-.94.94.92.92,0,0,1-.94-.89V64.11c0-4.08-2.31-8.07-6.85-8.07-5.7,0-7.87,6.1-7.87,10.83v9.36a1,1,0,0,1-.94.94.92.92,0,0,1-.94-.89V64.11c0-4.08-2.31-8.07-6.84-8.07-5.77,0-8.13,4.53-7.93,10.58,0,.14.05.4,0,.48v9.1a1,1,0,0,1-.86,1,.94.94,0,0,1-1.05-.8V55.58a1,1,0,0,1,.85-1,.93.93,0,0,1,1.05.8.71.71,0,0,1,0,.14V59a9.05,9.05,0,0,1,7.93-4.82,8.47,8.47,0,0,1,8.07,6c1.56-3.54,4.62-6,8.52-6,5.56,0,8.73,4.82,8.73,10Z"/><path class="c" d="M29.67,50,6,60.71l23.67,14,23.7-14Z"/><path class="d" d="M6,60.71l23.67,14V21.41Z"/><path class="e" d="M29.67,21.41V74.72l23.7-14Z"/><path class="d" d="M6,65.22,29.67,98.59V79.19Z"/><path class="e" d="M29.67,79.19v19.4l23.7-33.37Z"/></svg>