<svg xmlns="http://www.w3.org/2000/svg" viewBox="0 0 320 120"><defs><style>.a{fill:none;}.b{fill:#1f3a6a;}.c{fill:#5dc4e9;}</style></defs><rect class="a" width="320" height="120"/><polygon class="b" points="43.11 43.7 38.78 43.7 38.78 44.86 42.19 44.86 50.65 79.66 6.97 79.66 15.43 44.86 18.84 44.86 18.84 43.7 14.51 43.7 5 81.21 52.62 81.21 43.11 43.7"/><path class="c" d="M37.14,28.52H20.48a1.84,1.84,0,0,0-1.84,1.84h0V46.71h1.55V30.36a.29.29,0,0,1,.29-.29h3.35V41.94H20.72l4.46,4.77h7.27l4.45-4.77H33.79V30.07h3.35a.31.31,0,0,1,.3.29V46.71H39V30.36a1.84,1.84,0,0,0-1.84-1.84Z"/><path class="b" d="M25.31,66.9h7a.78.78,0,0,0,.8-.78v-.07l-.27-4.59a.9.9,0,0,0-.89-.84H25.68a.91.91,0,0,0-.9.84l-.27,4.59a.79.79,0,0,0,.73.85Z"/><path class="b" d="M21.81,60.62H15.49a1.09,1.09,0,0,0-1,.83l-.93,4.62a.67.67,0,0,0,.49.81.62.62,0,0,0,.19,0H21.3a1,1,0,0,0,.92-.84l.39-4.6a.77.77,0,0,0-.7-.84Z"/><path class="b" d="M25.59,58.79H32a.63.63,0,0,0,.64-.62v-.05l-.22-3.67a.73.73,0,0,0-.71-.68H25.89a.72.72,0,0,0-.72.68L25,58.12a.63.63,0,0,0,.59.67Z"/><path class="b" d="M22.6,53.77H16.68a.86.86,0,0,0-.81.66l-.74,3.7a.53.53,0,0,0,.38.64.44.44,0,0,0,.16,0h6.5a.76.76,0,0,0,.74-.67l.31-3.67a.63.63,0,0,0-.56-.68Z"/><path class="b" d="M41.93,58.79a.54.54,0,0,0,.57-.49.88.88,0,0,0,0-.17l-.75-3.7a.85.85,0,0,0-.81-.66H35a.62.62,0,0,0-.62.62v.06l.32,3.67a.75.75,0,0,0,.73.67Z"/><path class="b" d="M25.87,52.16h5.88a.54.54,0,0,0,.56-.54v0l-.17-2.83a.63.63,0,0,0-.63-.59h-5.4a.63.63,0,0,0-.63.59l-.17,2.83a.56.56,0,0,0,.53.59Z"/><path class="b" d="M40.69,52.16a.47.47,0,0,0,.49-.45.57.57,0,0,0,0-.13l-.58-2.85a.77.77,0,0,0-.71-.58H34.43a.53.53,0,0,0-.55.53v.06l.25,2.83a.65.65,0,0,0,.64.59Z"/><path class="b" d="M23.2,48.15H17.72a.76.76,0,0,0-.71.58l-.58,2.85a.47.47,0,0,0,.35.57h6.07a.66.66,0,0,0,.65-.59l.24-2.83a.54.54,0,0,0-.47-.59Z"/><path class="b" d="M43.39,66.9a.67.67,0,0,0,.7-.64.62.62,0,0,0,0-.19l-.94-4.62a1.08,1.08,0,0,0-1-.83H35.81a.76.76,0,0,0-.78.76v.08l.4,4.6a1,1,0,0,0,.92.84Z"/><path class="b" d="M32.24,69H25.38a1.1,1.1,0,0,0-1.08,1L24,75.81a1,1,0,0,0,1,1h7.7a1,1,0,0,0,1-1L33.32,70A1.1,1.1,0,0,0,32.24,69Z"/><path class="b" d="M20.9,69H14a1.29,1.29,0,0,0-1.22,1L11.6,75.85a.81.81,0,0,0,.6,1,.78.78,0,0,0,.22,0h7.82a1.12,1.12,0,0,0,1.1-1l.5-5.83a.9.9,0,0,0-.79-1Z"/><path class="b" d="M44.84,70a1.29,1.29,0,0,0-1.21-1H36.72a.93.93,0,0,0-.93.93V70l.5,5.83a1.14,1.14,0,0,0,1.11,1h7.81a.81.81,0,0,0,.84-.78.55.55,0,0,0,0-.22Z"/><path class="b" d="M132,43.71h-6.6v37.5H132Zm-21.43,19a15.11,15.11,0,0,1-2.17,8,9.75,9.75,0,0,1-13.15,4.13A9.43,9.43,0,0,1,93,73.23c-2.64-2.62-3.41-6.82-3.41-10.83,0-5.66,1.67-8.84,4.35-11.29a8.5,8.5,0,0,1,5.88-2.4A10.24,10.24,0,0,1,106,51c4.77,4,4.56,11.32,4.56,11.68m3.36,29c2.79-3.69,3-7.52,3.22-15.37l-.09-32.62H110.8V49.5a15,15,0,0,0-3-3.54,13.31,13.31,0,0,0-9-3,15.26,15.26,0,0,0-12.6,6.7c-2.94,4-3.72,8.91-3.72,13a25.82,25.82,0,0,0,1.11,7.91,17.55,17.55,0,0,0,5.25,8.26,14.09,14.09,0,0,0,10,3.11,15.48,15.48,0,0,0,9-3.25,13.64,13.64,0,0,0,2.53-2.83V81a18.1,18.1,0,0,1-.87,5,8.42,8.42,0,0,1-1.69,2.85c-1.8,2.08-4.1,3.16-8.52,3.32a30.12,30.12,0,0,1-9.55-1.59A21.86,21.86,0,0,1,86,88.78l-.7,6.53c1.06.43,1.83.72,3,1.1A35.93,35.93,0,0,0,98.74,98a21.69,21.69,0,0,0,10.72-2.4A13.32,13.32,0,0,0,114,91.7m11-56.92h7.22v-7.4H125Zm31.53,14.49a12.58,12.58,0,0,1,4.54.9V43.58c-.33,0-2.35-.31-4-.31a10.94,10.94,0,0,0-8.83,3.85A23.8,23.8,0,0,0,146.35,50L146,43.71h-6.3c.2,4.7.37,8,.37,12.6,0,5.44-.1,9.27-.1,14.65V81.2h6.81V62.85c.2-3.56.41-8.27,4.05-11.47a8.22,8.22,0,0,1,5.67-2.11M191,62.09c0,4.1-1.27,10.1-6.31,12.94a11,11,0,0,1-5.2,1.32,11.12,11.12,0,0,1-4.54-1,13.58,13.58,0,0,1-1.83-1.18,12.09,12.09,0,0,1-3.57-4.93A17.41,17.41,0,0,1,168.29,62c.12-5.2,2.28-8.9,4.54-10.8a11.23,11.23,0,0,1,7.37-2.68c5.8.07,8.38,4.06,9.65,7.11A19.24,19.24,0,0,1,191,62.09m1.47,15C196.78,72.71,198,66.76,198,62c-.2-9.21-5-14.71-9.59-17.12a18.34,18.34,0,0,0-8.17-1.79c-8.41,0-13.81,4.35-16.4,8.84a22.28,22.28,0,0,0-2.61,10.67c-.07,7.52,2.61,12,5.82,15.08a19.45,19.45,0,0,0,2.39,1.74c2.1,1.38,5.11,2.53,10.07,2.53a18.74,18.74,0,0,0,7.93-1.47,16.53,16.53,0,0,0,5-3.38"/><path class="b" d="M203.78,51.68c.2,7.25.2,12.4.2,19.68,0,9.09-.15,18.18-.2,27.26h6.69V76.13a20,20,0,0,0,2.12,2.39,13.7,13.7,0,0,0,9.24,3.4,16,16,0,0,0,11.84-5.14c5.6-6,5.14-14.15,5.14-15.36a24.79,24.79,0,0,0-1.5-8.22c-1.81-4.64-6.07-10.37-14.91-10.37a14.37,14.37,0,0,0-10,3.87,13.48,13.48,0,0,0-2.32,2.73l-.29-5.72h-6.31C203.64,46.7,203.67,48.71,203.78,51.68Zm6.58,10.45a18.42,18.42,0,0,1,.77-5.22c1.75-5.3,5.72-8.2,10.14-8.2a10,10,0,0,1,9.12,6.18,16.23,16.23,0,0,1,1.38,7.68,17.52,17.52,0,0,1-1,5.78c-2.44,7-8,7.65-9.81,7.65-4.26,0-8.18-2.86-9.86-8A19.12,19.12,0,0,1,210.36,62.13Z"/><path class="b" d="M307.9,43.7,299.53,64l-3.78,9.83-.26.53c-.95-2.82-2.26-6.33-3.45-9.66l-7.76-21h-7.19l15.06,37.49-7.34,17.43h6.72L315,43.7Z"/><path class="b" d="M272.16,48.56c-2-3.27-7-5.58-12.88-5.58-7.15,0-10.77,2.57-11.76,3.17v5.9c1.5-.9,5.83-3.56,10.49-3.56s8.13,2.62,9.07,5.07a15.34,15.34,0,0,1,.67,4.95c-1.73-.09-3.58-.16-5.38-.16-3.7,0-8.9.16-12.6,2-2.87,1.38-6.81,4-6.81,10.05a11.36,11.36,0,0,0,3.79,8.7,13,13,0,0,0,7.79,2.65,17.15,17.15,0,0,0,9.8-2.49,27,27,0,0,0,4-4v6H274V57C274,53.25,273.17,50.08,272.16,48.56Zm-4.24,15.75a17,17,0,0,1-.57,5.07,10,10,0,0,1-1.68,3.2,10.61,10.61,0,0,1-8.49,4c-3.09,0-7.19-1.6-7.19-6s5.1-6.67,7.93-7.15a29.91,29.91,0,0,1,5-.3,43.64,43.64,0,0,1,5,.19v1Z"/></svg>