<svg xmlns="http://www.w3.org/2000/svg" width="128" height="64" fill="none"><rect width="128" height="64" fill="#fff" rx="6"/><path fill="#1F3A6A" d="M20.26 27.107h-1.62v.434h1.276l3.166 13.022H6.737L9.903 27.54h1.276v-.434h-1.62L6 41.143h17.82l-3.56-14.036Z"/><path fill="#5DC4E9" d="M18.027 21.427h-6.235a.688.688 0 0 0-.688.688v6.118h.58v-6.118a.108.108 0 0 1 .109-.108h1.253v4.441h-1.164l1.67 1.785h2.72l1.665-1.785h-1.164v-4.441h1.254a.116.116 0 0 1 .112.108v6.118h.584v-6.118a.689.689 0 0 0-.689-.688h-.007Z"/><path fill="#1F3A6A" d="M13.6 35.788h2.62a.292.292 0 0 0 .299-.292v-.026l-.101-1.718a.337.337 0 0 0-.334-.314h-2.346a.34.34 0 0 0-.336.314L13.3 35.47a.297.297 0 0 0 .273.318h.026ZM12.29 33.438H9.925a.408.408 0 0 0-.374.31l-.348 1.73a.25.25 0 0 0 .183.303.23.23 0 0 0 .072 0h2.641a.374.374 0 0 0 .345-.315l.146-1.721a.287.287 0 0 0-.262-.314l-.038.007ZM13.705 32.753h2.398a.236.236 0 0 0 .24-.232v-.018l-.083-1.374a.273.273 0 0 0-.265-.254h-2.178a.27.27 0 0 0-.27.254l-.063 1.374a.236.236 0 0 0 .22.25ZM12.586 30.875H10.37a.322.322 0 0 0-.303.247l-.277 1.384a.198.198 0 0 0 .142.24c.02.003.04.003.06 0h2.432a.285.285 0 0 0 .277-.25l.116-1.374a.236.236 0 0 0-.21-.255l-.022.008ZM19.819 32.753a.202.202 0 0 0 .213-.183.322.322 0 0 0 0-.064l-.28-1.384a.318.318 0 0 0-.303-.247h-2.223a.232.232 0 0 0-.232.232v.022l.12 1.374a.281.281 0 0 0 .273.25h2.432ZM13.81 30.273h2.2a.203.203 0 0 0 .21-.203l-.064-1.058a.236.236 0 0 0-.236-.221H13.9a.236.236 0 0 0-.236.22l-.064 1.06a.209.209 0 0 0 .198.22l.011-.018ZM19.355 30.272a.174.174 0 0 0 .167-.101.177.177 0 0 0 .016-.067.22.22 0 0 0 0-.049l-.217-1.066a.287.287 0 0 0-.265-.217h-2.043a.199.199 0 0 0-.206.198v.023l.093 1.059a.244.244 0 0 0 .24.22h2.215ZM12.81 28.772h-2.05a.285.285 0 0 0-.266.217l-.217 1.066a.175.175 0 0 0 .131.214h2.271a.247.247 0 0 0 .244-.221l.09-1.059a.202.202 0 0 0-.177-.22l-.026.003ZM20.365 35.788a.248.248 0 0 0 .239-.144.251.251 0 0 0 .023-.095.235.235 0 0 0 0-.071l-.351-1.73a.404.404 0 0 0-.375-.31H17.53a.284.284 0 0 0-.292.285v.03l.15 1.72a.375.375 0 0 0 .344.315h2.634ZM16.193 36.574h-2.567a.411.411 0 0 0-.404.374l-.112 2.174a.375.375 0 0 0 .374.374h2.881a.374.374 0 0 0 .374-.374l-.142-2.174a.411.411 0 0 0-.404-.374ZM11.95 36.574H9.368a.483.483 0 0 0-.457.374l-.441 2.19a.303.303 0 0 0 .224.373.291.291 0 0 0 .082 0h2.927a.419.419 0 0 0 .411-.374l.187-2.181a.338.338 0 0 0-.295-.375l-.056-.007ZM20.908 36.948a.483.483 0 0 0-.453-.374H17.87a.348.348 0 0 0-.349.348v.026l.188 2.182a.427.427 0 0 0 .415.374h2.922a.3.3 0 0 0 .287-.177.302.302 0 0 0 .028-.115.204.204 0 0 0 0-.082l-.453-2.182ZM53.523 27.11h-2.47v14.033h2.47V27.11Zm-8.02 7.11a5.653 5.653 0 0 1-.811 2.994 3.648 3.648 0 0 1-4.921 1.545 3.529 3.529 0 0 1-.842-.602c-.988-.98-1.276-2.552-1.276-4.053 0-2.118.625-3.308 1.628-4.224a3.181 3.181 0 0 1 2.2-.898 3.832 3.832 0 0 1 2.313.857c1.785 1.496 1.706 4.235 1.706 4.37m1.257 10.852c1.044-1.381 1.123-2.814 1.205-5.752l-.034-12.206H45.59v2.174a5.612 5.612 0 0 0-1.123-1.325A4.981 4.981 0 0 0 41.1 26.83a5.711 5.711 0 0 0-4.714 2.507c-1.1 1.497-1.392 3.334-1.392 4.865a9.66 9.66 0 0 0 .415 2.96 6.568 6.568 0 0 0 1.964 3.09 5.273 5.273 0 0 0 3.742 1.164 5.793 5.793 0 0 0 3.368-1.216c.364-.307.682-.664.947-1.06v1.924a6.774 6.774 0 0 1-.326 1.871 3.152 3.152 0 0 1-.632 1.067c-.674.778-1.534 1.182-3.188 1.242a11.268 11.268 0 0 1-3.574-.595 8.179 8.179 0 0 1-1.4-.674l-.261 2.444c.396.16.685.27 1.122.412 1.266.39 2.582.59 3.907.594a8.115 8.115 0 0 0 4.011-.897c.67-.352 1.25-.85 1.7-1.46m4.115-21.299h2.702V21h-2.702v2.769Zm11.799 5.422c.582.006 1.158.12 1.698.337v-2.466c-.123 0-.879-.116-1.496-.116a4.094 4.094 0 0 0-3.305 1.44 8.91 8.91 0 0 0-.707 1.078l-.13-2.353h-2.358c.075 1.758.138 2.993.138 4.714 0 2.036-.037 3.47-.037 5.482v3.832h2.548v-6.866c.075-1.333.154-3.095 1.516-4.292a3.076 3.076 0 0 1 2.121-.79m12.91 4.797c0 1.535-.475 3.78-2.361 4.842a4.117 4.117 0 0 1-1.946.494 4.162 4.162 0 0 1-1.699-.374 5.09 5.09 0 0 1-.685-.442 4.524 4.524 0 0 1-1.335-1.844 6.513 6.513 0 0 1-.472-2.71c.045-1.945.853-3.33 1.699-4.04a4.202 4.202 0 0 1 2.758-1.004c2.17.027 3.136 1.52 3.61 2.661.282.775.427 1.593.431 2.417Zm.55 5.613c1.613-1.639 2.07-3.865 2.07-5.646-.076-3.447-1.872-5.505-3.59-6.407-.953-.455-2-.685-3.056-.67-3.147 0-5.168 1.628-6.137 3.308a8.337 8.337 0 0 0-.977 3.993c-.026 2.814.977 4.49 2.178 5.643.281.24.58.457.894.651.786.516 1.913.947 3.769.947a7.013 7.013 0 0 0 2.967-.55 6.187 6.187 0 0 0 1.87-1.265M80.382 30.093c.075 2.713.075 4.64.075 7.364 0 3.401-.056 6.803-.075 10.2h2.503v-8.415c.24.319.506.618.794.894a5.127 5.127 0 0 0 3.457 1.272 5.986 5.986 0 0 0 4.43-1.923c2.096-2.245 1.924-5.295 1.924-5.748a9.278 9.278 0 0 0-.561-3.075c-.677-1.737-2.272-3.88-5.58-3.88a5.377 5.377 0 0 0-3.741 1.447c-.334.3-.626.644-.868 1.022l-.109-2.14H80.27c.06 1.118.071 1.87.112 2.982Zm2.462 3.91c.002-.661.1-1.32.288-1.953.655-1.983 2.14-3.068 3.795-3.068a3.743 3.743 0 0 1 3.412 2.312c.404.902.581 1.888.517 2.874a6.556 6.556 0 0 1-.374 2.163c-.913 2.62-2.994 2.862-3.671 2.862-1.594 0-3.061-1.07-3.69-2.993a7.15 7.15 0 0 1-.277-2.197ZM119.343 27.107l-3.132 7.596-1.414 3.678-.098.199c-.355-1.056-.845-2.37-1.29-3.615l-2.904-7.858h-2.691l5.636 14.028-2.747 6.523h2.515L122 27.107h-2.657ZM105.97 28.925c-.749-1.223-2.62-2.088-4.82-2.088-2.676 0-4.03.962-4.4 1.187v2.207c.56-.336 2.181-1.332 3.925-1.332 1.743 0 3.042.98 3.394 1.897.184.6.269 1.226.25 1.853a39.318 39.318 0 0 0-2.013-.06c-1.384 0-3.33.06-4.715.748-1.074.516-2.548 1.497-2.548 3.76a4.25 4.25 0 0 0 1.418 3.256 4.865 4.865 0 0 0 2.915.992 6.417 6.417 0 0 0 3.667-.932c.55-.445 1.052-.947 1.497-1.497v2.245h2.118v-9.077c0-1.404-.311-2.59-.688-3.159Zm-1.587 5.894c.025.64-.047 1.28-.213 1.897-.135.434-.348.84-.629 1.197a3.967 3.967 0 0 1-3.177 1.497c-1.156 0-2.69-.598-2.69-2.245 0-1.646 1.908-2.496 2.967-2.675a11.18 11.18 0 0 1 1.871-.113c.624-.012 1.249.012 1.871.072v.374-.004Z"/></svg>