<svg xmlns="http://www.w3.org/2000/svg" width="128" height="64" fill="none"><rect width="128" height="64" fill="#fff" rx="6"/><path fill="#3C4043" d="M61.93 34.617v10h-3.116V19.965h8.268a7.338 7.338 0 0 1 5.344 2.14 7.2 7.2 0 0 1 .348 10.056l-.348.356a7.428 7.428 0 0 1-5.344 2.1H61.93Zm0-11.628v8.604h5.228a4.048 4.048 0 0 0 3.08-1.276 4.375 4.375 0 0 0-.096-6.108 4.212 4.212 0 0 0-2.984-1.2l-5.228-.02ZM81.858 27.193c2.304 0 4.124.628 5.46 1.864 1.336 1.236 2 2.968 2 5.148v10.4h-2.98v-2.348h-.124c-1.3 1.924-3 2.888-5.152 2.888a6.632 6.632 0 0 1-4.588-1.648 5.247 5.247 0 0 1-1.86-4.128 5.071 5.071 0 0 1 1.956-4.164c1.296-1.04 3.04-1.552 5.2-1.552a9.256 9.256 0 0 1 4.572 1.024v-.728a3.719 3.719 0 0 0-1.28-2.8 4.5 4.5 0 0 0-3-1.16 4.728 4.728 0 0 0-4.124 2.24l-2.744-1.768c1.472-2.168 3.7-3.268 6.664-3.268Zm-4.044 12.236a2.569 2.569 0 0 0 1.024 2.064 3.776 3.776 0 0 0 2.42.824 4.931 4.931 0 0 0 3.52-1.456 4.663 4.663 0 0 0 1.552-3.476c-.968-.8-2.324-1.2-4.068-1.16a5.34 5.34 0 0 0-3.176.924 2.748 2.748 0 0 0-1.272 2.28Z"/><path fill="#3C4043" fill-rule="evenodd" d="M106.43 27.74 96.01 52h-3.212l3.872-8.483-6.836-15.776h3.388l4.94 12.1h.056l4.82-12.1h3.392Z" clip-rule="evenodd"/><path fill="#4285F4" fill-rule="evenodd" d="M49.326 32.46c0-.96-.077-1.92-.232-2.867H35.946v5.44h7.532a6.534 6.534 0 0 1-2.8 4.3v3.528h4.492c2.644-2.448 4.156-6.084 4.156-10.4Z" clip-rule="evenodd"/><path fill="#34A853" fill-rule="evenodd" d="M35.946 46.285c3.756 0 6.932-1.256 9.236-3.42l-4.492-3.532a8.4 8.4 0 0 1-12.564-4.472h-4.632v3.652a13.908 13.908 0 0 0 12.452 7.772Z" clip-rule="evenodd"/><path fill="#FBBC04" fill-rule="evenodd" d="M28.122 34.86a8.66 8.66 0 0 1 0-5.42v-3.643h-4.628a14.217 14.217 0 0 0 0 12.688l4.628-3.624Z" clip-rule="evenodd"/><path fill="#EA4335" fill-rule="evenodd" d="M35.946 23.597a7.445 7.445 0 0 1 5.344 2.124l4-4.048A13.344 13.344 0 0 0 35.958 18a13.917 13.917 0 0 0-12.46 7.796l4.628 3.656c1.1-3.36 4.18-5.856 7.82-5.856Z" clip-rule="evenodd"/></svg>