<svg xmlns="http://www.w3.org/2000/svg" viewBox="0 0 323.13 120.41"><defs><style>.a,.b{fill:#3c4043;}.b,.c,.d,.e,.f{fill-rule:evenodd;}.c{fill:#4285f4;}.d{fill:#34a853;}.e{fill:#fbbc04;}.f{fill:#ea4335;}.g{fill:none;}</style></defs><path class="a" d="M155.86,62.6V87.54h-7.8V26h20.67a18.43,18.43,0,0,1,13.37,5.36A18,18,0,0,1,183,56.46l-.87.88a18.6,18.6,0,0,1-13.37,5.26Zm0-29.07V55h13.07a10.14,10.14,0,0,0,7.7-3.19,11,11,0,0,0-.25-15.27,10.54,10.54,0,0,0-7.45-3Z"/><path class="a" d="M205.67,44c5.76,0,10.31,1.57,13.65,4.66s5,7.41,5,12.86v26h-7.46V81.7h-.34c-3.24,4.81-7.5,7.21-12.87,7.21a16.59,16.59,0,0,1-11.48-4.12,13.08,13.08,0,0,1-4.59-10.31,12.65,12.65,0,0,1,4.88-10.41c3.25-2.6,7.61-3.88,13-3.88a23.2,23.2,0,0,1,11.42,2.55V60.93a9.3,9.3,0,0,0-3.19-7A11.29,11.29,0,0,0,206.2,51a11.82,11.82,0,0,0-10.31,5.59L189,52.23Q194.54,44.06,205.67,44ZM195.6,74.63a6.39,6.39,0,0,0,2.57,5.15,9.38,9.38,0,0,0,6.05,2.06A12.27,12.27,0,0,0,213,78.16a11.67,11.67,0,0,0,3.87-8.69c-2.42-2-5.81-3-10.16-2.9a13.36,13.36,0,0,0-7.94,2.31A6.91,6.91,0,0,0,195.6,74.63Z"/><polygon class="b" points="267.1 45.41 241.06 106.05 233.02 106.05 242.7 84.84 225.61 45.41 234.09 45.41 246.43 75.66 246.57 75.66 258.63 45.41 267.1 45.41"/><path class="c" d="M124.35,57.19a44.09,44.09,0,0,0-.59-7.17H90.9V63.63h18.83a16.44,16.44,0,0,1-7,10.75v8.84H114C120.57,77.08,124.35,68,124.35,57.19Z"/><path class="d" d="M90.9,91.76c9.39,0,17.33-3.14,23.09-8.54l-11.23-8.84A20.7,20.7,0,0,1,90.9,77.77c-9.1,0-16.8-6.24-19.56-14.58H59.77v9.13A34.77,34.77,0,0,0,90.9,91.76Z"/><path class="e" d="M71.34,63.18a21.65,21.65,0,0,1,0-13.55V40.55H59.77a35.48,35.48,0,0,0,0,31.72Z"/><path class="f" d="M90.9,35.05a18.65,18.65,0,0,1,13.36,5.3l10-10.11A33.38,33.38,0,0,0,90.9,21.05a34.83,34.83,0,0,0-31.13,19.5l11.57,9.13C74.1,41.28,81.8,35.05,90.9,35.05Z"/><rect class="g" width="323.13" height="120.41"/></svg>