<svg xmlns="http://www.w3.org/2000/svg" viewBox="0 0 320 120"><defs><style>.a{fill:none;}.b,.c{fill:#3c4043;}.c,.d,.e,.f,.g{fill-rule:evenodd;}.d{fill:#4285f4;}.e{fill:#34a853;}.f{fill:#fbbc04;}.g{fill:#ea4335;}</style></defs><rect class="a" width="320" height="120"/><path class="b" d="M154.29,62.39v25H146.5V25.76h20.67a18.34,18.34,0,0,1,13.36,5.35,18,18,0,0,1,.87,25.14l-.87.89a18.57,18.57,0,0,1-13.36,5.25Zm0-29.07V54.83h13.07a10.12,10.12,0,0,0,7.7-3.19,10.94,10.94,0,0,0-.24-15.27,10.53,10.53,0,0,0-7.46-3Z"/><path class="b" d="M204.11,43.83c5.76,0,10.31,1.57,13.65,4.66s5,7.42,5,12.87v26h-7.45V81.49H215c-3.25,4.81-7.5,7.22-12.88,7.22a16.58,16.58,0,0,1-11.47-4.12A13.12,13.12,0,0,1,186,74.27a12.68,12.68,0,0,1,4.89-10.41c3.24-2.6,7.6-3.88,13-3.88a23.14,23.14,0,0,1,11.43,2.56V60.72a9.3,9.3,0,0,0-3.2-7,11.25,11.25,0,0,0-7.5-2.9,11.82,11.82,0,0,0-10.31,5.6L187.45,52C191.13,46.58,196.7,43.83,204.11,43.83ZM194,74.42a6.42,6.42,0,0,0,2.56,5.16,9.44,9.44,0,0,0,6.05,2.06,12.33,12.33,0,0,0,8.8-3.64,11.66,11.66,0,0,0,3.88-8.69c-2.42-2-5.81-3-10.17-2.9a13.35,13.35,0,0,0-7.94,2.31A6.87,6.87,0,0,0,194,74.42Z"/><polygon class="c" points="265.54 45.2 239.49 105.85 231.46 105.85 241.14 84.64 224.05 45.2 232.52 45.2 244.87 75.45 245.01 75.45 257.06 45.2 265.54 45.2"/><path class="d" d="M122.78,57a44.17,44.17,0,0,0-.58-7.17H89.33v13.6h18.83a16.34,16.34,0,0,1-7,10.75V83h11.23C119,76.88,122.78,67.79,122.78,57Z"/><path class="e" d="M89.33,91.56c9.39,0,17.33-3.14,23.09-8.55l-11.23-8.83A21,21,0,0,1,69.78,63H58.2v9.13A34.77,34.77,0,0,0,89.33,91.56Z"/><path class="f" d="M69.77,63a21.65,21.65,0,0,1,0-13.55V40.34H58.2a35.54,35.54,0,0,0,0,31.72Z"/><path class="g" d="M89.33,34.84a18.61,18.61,0,0,1,13.36,5.31l10-10.12a33.36,33.36,0,0,0-23.33-9.18A34.79,34.79,0,0,0,58.21,40.34l11.57,9.14C72.53,41.08,80.23,34.84,89.33,34.84Z"/></svg>