<svg xmlns="http://www.w3.org/2000/svg" viewBox="0 0 323.13 120.41"><defs><style>.a{fill:#c06;}.b{fill:#fff;}.c{fill:none;}</style></defs><path class="a" d="M132.68,23.14v80.13h34.88c31.66,0,45.39-17.89,45.39-43.18,0-24.21-13.73-43-45.39-43H138.72A6,6,0,0,0,132.68,23.14Z"/><path d="M163.55,115.21H107.2a9.07,9.07,0,0,1-9.06-9.07V14.27a9.06,9.06,0,0,1,9.06-9.06h56.35C217,5.21,225,39.61,225,60.09,225,95.62,203.14,115.21,163.55,115.21ZM107.2,8.23a6,6,0,0,0-6,6v91.87a6,6,0,0,0,6,6h56.35c37.65,0,58.42-18.49,58.42-52.09C222,15,185.35,8.23,163.55,8.23Z"/><path class="b" d="M145,49.28a10.32,10.32,0,0,1,3.45.57,7.71,7.71,0,0,1,2.78,1.74A9.67,9.67,0,0,1,153,54.52a12,12,0,0,1,.66,4.15,13.83,13.83,0,0,1-.52,3.87,8.88,8.88,0,0,1-1.6,3.07,7.78,7.78,0,0,1-2.69,2,9.53,9.53,0,0,1-3.82.75h-8.26V49.23H145Zm-.28,15.62a5.86,5.86,0,0,0,1.79-.28,3.49,3.49,0,0,0,1.51-1,5.43,5.43,0,0,0,1.09-1.8,7.52,7.52,0,0,0,.42-2.69,10.82,10.82,0,0,0-.28-2.59,5.13,5.13,0,0,0-.94-2,4.26,4.26,0,0,0-1.7-1.28,7,7,0,0,0-2.6-.42h-3V65h3.73Z"/><path class="b" d="M170.72,49.28v3.54h-10.1v4.11h9.3v3.25h-9.3v4.67H171v3.54H156.42V49.23h14.3Z"/><path class="b" d="M185.16,49.28l7.17,19.16h-4.39l-1.46-4.25h-7.17l-1.51,4.25h-4.25l7.22-19.16ZM185.4,61,183,54h-.05l-2.5,7Z"/><path class="b" d="M199.17,49.28V64.9h9.35v3.54H195V49.28Z"/><circle cx="116.92" cy="58.86" r="8.82"/><path d="M123.58,103.27h0a13.35,13.35,0,0,1-13.36-13.36V79.48a6.69,6.69,0,0,1,6.7-6.7h0a6.69,6.69,0,0,1,6.7,6.7v23.79Z"/><rect class="c" width="323.13" height="120.41"/></svg>