<svg xmlns="http://www.w3.org/2000/svg" viewBox="0 0 320 120"><defs><style>.a{fill:none;}.b{fill:#c06;}.c{fill:#fff;}</style></defs><rect class="a" width="320" height="120"/><path class="b" d="M131.12,22.93v80.13H166c31.67,0,45.4-17.88,45.4-43.18,0-24.21-13.73-43-45.4-43H137.16A6,6,0,0,0,131.12,22.93Z"/><path d="M162,115H105.64a9.06,9.06,0,0,1-9.06-9.06V14.06A9.06,9.06,0,0,1,105.64,5H162c53.47,0,61.44,34.4,61.44,54.88C223.42,95.42,201.57,115,162,115ZM105.64,8a6,6,0,0,0-6,6v91.88a6,6,0,0,0,6,6H162c37.66,0,58.42-18.5,58.42-52.1C220.4,14.77,183.78,8,162,8Z"/><path class="c" d="M143.39,49.08a10.34,10.34,0,0,1,3.44.56,7.54,7.54,0,0,1,2.79,1.75,9.68,9.68,0,0,1,1.84,2.92,12.28,12.28,0,0,1,.66,4.16,14.44,14.44,0,0,1-.52,3.87A9.15,9.15,0,0,1,150,65.4a7.93,7.93,0,0,1-2.69,2,9.66,9.66,0,0,1-3.83.76h-8.25V49h8.16Zm-.28,15.62a5.73,5.73,0,0,0,1.79-.29,3.58,3.58,0,0,0,1.51-1,5.46,5.46,0,0,0,1.08-1.79,7.23,7.23,0,0,0,.43-2.69,11.38,11.38,0,0,0-.28-2.6,5.14,5.14,0,0,0-.95-2,4.19,4.19,0,0,0-1.7-1.27,6.75,6.75,0,0,0-2.59-.43h-3V64.74h3.73Z"/><path class="c" d="M169.15,49.08v3.53H159.06v4.11h9.29V60h-9.29v4.67h10.33v3.54H154.86V49h14.29Z"/><path class="c" d="M183.6,49.08l7.17,19.15h-4.39L184.92,64h-7.18l-1.51,4.24H172l7.22-19.15Zm.23,11.75-2.41-7h0l-2.5,7Z"/><path class="c" d="M197.61,49.08V64.7H207v3.53H193.41V49.08Z"/><circle cx="115.36" cy="58.66" r="8.82"/><path d="M122,103.06h0a13.33,13.33,0,0,1-13.35-13.31V79.28a6.7,6.7,0,0,1,6.68-6.7h0a6.7,6.7,0,0,1,6.7,6.68v23.8Z"/></svg>