<svg xmlns="http://www.w3.org/2000/svg" width="128" height="64" fill="none"><rect width="128" height="64" fill="#fff" rx="6"/><path fill="#C06" d="M50.343 14.476v37.88h16.489c14.97 0 21.461-8.453 21.461-20.413 0-11.445-6.49-20.327-21.461-20.327H53.198a2.837 2.837 0 0 0-2.855 2.86Z"/><path fill="#000" d="M64.94 58H38.299a4.283 4.283 0 0 1-4.283-4.283V10.283A4.283 4.283 0 0 1 38.298 6H64.94c25.276 0 29.044 16.262 29.044 25.943C93.975 48.744 83.647 58 64.941 58ZM38.299 7.418a2.836 2.836 0 0 0-2.837 2.837v43.434a2.836 2.836 0 0 0 2.837 2.836H64.94c17.803 0 27.616-8.745 27.616-24.629-.009-21.278-17.32-24.478-27.616-24.478H38.298Z"/><path fill="#fff" d="M56.144 26.838a4.89 4.89 0 0 1 1.626.264c.495.176.945.458 1.319.828.37.404.665.872.87 1.38.216.633.321 1.298.311 1.967a6.829 6.829 0 0 1-.245 1.83 4.329 4.329 0 0 1-.757 1.446 3.75 3.75 0 0 1-1.271.945 4.567 4.567 0 0 1-1.811.36h-3.9V26.8h3.858v.038Zm-.133 7.384c.288 0 .573-.047.846-.137.275-.094.52-.257.714-.473a2.58 2.58 0 0 0 .51-.846c.148-.407.217-.839.204-1.272a5.378 5.378 0 0 0-.132-1.229 2.43 2.43 0 0 0-.45-.945 1.98 1.98 0 0 0-.803-.6 3.192 3.192 0 0 0-1.224-.204h-1.419v5.725h1.764l-.01-.02ZM68.32 26.838v1.668h-4.769v1.943h4.392V32H63.55v2.209h4.883v1.673h-6.868V26.8h6.755v.038ZM75.152 26.838l3.39 9.053h-2.076l-.69-2H72.38l-.713 2.005h-2l3.413-9.053 2.07-.005Zm.108 5.555-1.139-3.31-1.182 3.31h2.321ZM81.775 26.838v7.384h4.438v1.669H79.79v-9.053h1.986Z"/><path fill="#000" d="M42.893 35.536a4.17 4.17 0 1 0 0-8.34 4.17 4.17 0 0 0 0 8.34ZM46.032 52.356a6.301 6.301 0 0 1-6.311-6.292v-4.95a3.167 3.167 0 0 1 3.157-3.167 3.167 3.167 0 0 1 3.168 3.158v11.25h-.014Z"/></svg>