<svg xmlns="http://www.w3.org/2000/svg" width="128" height="64" fill="none"><rect width="128" height="64" fill="#fff" rx="6"/><path fill="url(#a)" d="M84.247 38.428h5.77c.164 0 .549-.054.714-.054 1.099-.22 2.033-1.21 2.033-2.583 0-1.319-.934-2.307-2.033-2.582-.165-.055-.495-.055-.715-.055h-5.769v5.274Z"/><path fill="url(#b)" d="M89.357 2c-5.494 0-10 4.45-10 10v10.385h14.121c.33 0 .714 0 .989.055 3.187.164 5.549 1.813 5.549 4.67 0 2.253-1.593 4.176-4.56 4.56v.11c3.242.22 5.714 2.033 5.714 4.835 0 3.022-2.747 5-6.373 5H79.302v20.33h14.67c5.495 0 10.001-4.45 10.001-10V2H89.357Z"/><path fill="url(#c)" d="M92.05 27.77c0-1.32-.935-2.199-2.034-2.363-.11 0-.384-.055-.549-.055h-5.22v4.835h5.22c.165 0 .495 0 .55-.055 1.098-.165 2.032-1.044 2.032-2.363Z"/><path fill="url(#d)" d="M34.082 2c-5.494 0-10 4.45-10 10v24.67c2.803 1.374 5.715 2.253 8.627 2.253 3.461 0 5.33-2.088 5.33-4.945V22.33h8.57v11.593c0 4.506-2.801 8.187-12.307 8.187-5.769 0-10.274-1.264-10.274-1.264V61.89h14.67c5.494 0 10-4.45 10-10V2H34.082Z"/><path fill="url(#e)" d="M61.72 2c-5.495 0-10 4.45-10 10v13.077c2.527-2.143 6.923-3.517 14.01-3.187 3.792.165 7.858 1.209 7.858 1.209v4.23c-2.033-1.043-4.45-1.977-7.582-2.197-5.385-.385-8.627 2.253-8.627 6.868 0 4.67 3.242 7.308 8.627 6.868 3.131-.22 5.549-1.209 7.582-2.198v4.231s-4.011 1.044-7.857 1.209c-7.088.33-11.484-1.044-14.011-3.187V62h14.67c5.495 0 10-4.45 10-10V2H61.72Z"/><defs><linearGradient id="a" x1="79.346" x2="104.04" y1="35.797" y2="35.797" gradientUnits="userSpaceOnUse"><stop stop-color="#007940"/><stop offset=".229" stop-color="#00873F"/><stop offset=".743" stop-color="#40A737"/><stop offset="1" stop-color="#5CB531"/></linearGradient><linearGradient id="b" x1="79.347" x2="104.04" y1="31.948" y2="31.948" gradientUnits="userSpaceOnUse"><stop stop-color="#007940"/><stop offset=".229" stop-color="#00873F"/><stop offset=".743" stop-color="#40A737"/><stop offset="1" stop-color="#5CB531"/></linearGradient><linearGradient id="c" x1="79.346" x2="104.038" y1="27.761" y2="27.761" gradientUnits="userSpaceOnUse"><stop stop-color="#007940"/><stop offset=".229" stop-color="#00873F"/><stop offset=".743" stop-color="#40A737"/><stop offset="1" stop-color="#5CB531"/></linearGradient><linearGradient id="d" x1="24.07" x2="49.144" y1="31.948" y2="31.948" gradientUnits="userSpaceOnUse"><stop stop-color="#1F286F"/><stop offset=".475" stop-color="#004E94"/><stop offset=".826" stop-color="#0066B1"/><stop offset="1" stop-color="#006FBC"/></linearGradient><linearGradient id="e" x1="51.577" x2="75.928" y1="31.948" y2="31.948" gradientUnits="userSpaceOnUse"><stop stop-color="#6C2C2F"/><stop offset=".173" stop-color="#882730"/><stop offset=".573" stop-color="#BE1833"/><stop offset=".859" stop-color="#DC0436"/><stop offset="1" stop-color="#E60039"/></linearGradient></defs></svg>