<svg xmlns="http://www.w3.org/2000/svg" viewBox="0 0 320 120"><defs><style>.a{fill:none;}.b{fill:#ffb3c7;}.c{fill:#0a0b09;}</style></defs><rect class="a" width="320" height="120"/><rect class="b" x="61" y="5" width="198" height="110" rx="19.01"/><path class="c" d="M240.49,69.44a4.74,4.74,0,1,0,4.69,4.79v0a4.71,4.71,0,0,0-4.68-4.74Zm-15.43-3.66A6.78,6.78,0,1,0,218,72.25h.3A6.63,6.63,0,0,0,225.06,65.78Zm0-12.59h7.48V78.38h-7.48V76.77a13.05,13.05,0,0,1-7.4,2.3,13.29,13.29,0,1,1,0-26.58,13,13,0,0,1,7.4,2.31Zm-59.8,3.28V53.19h-7.65V78.38h7.67V66.62c0-4,4.26-6.1,7.22-6.1h.08V53.19A9.28,9.28,0,0,0,165.26,56.47ZM146.2,65.78a6.78,6.78,0,1,0-7.07,6.47h.3a6.63,6.63,0,0,0,6.79-6.47h0Zm0-12.59h7.47V78.38H146.2V76.77a13.06,13.06,0,0,1-7.41,2.3,13.29,13.29,0,1,1,0-26.58,13.07,13.07,0,0,1,7.41,2.31Zm45-.68A9,9,0,0,0,183.5,56V53.19h-7.44V78.38h7.53V65.14c0-3.83,2.54-5.7,5.61-5.7,3.28,0,5.17,2,5.17,5.65V78.38h7.47v-16c0-5.86-4.62-9.85-10.64-9.85ZM114.78,78.38h7.82V42h-7.82Zm-34.36,0H88.7V42H80.42Zm29-36.43A29.11,29.11,0,0,1,101,62.63L112.4,78.38H102.14L89.69,61.27l3.22-2.43A21,21,0,0,0,101.29,42Z"/></svg>