<svg xmlns="http://www.w3.org/2000/svg" viewBox="0 0 323.13 120.41"><defs><style>.a{fill:#ffb3c7;}.b{fill:#0a0b09;}.c{fill:none;}</style></defs><rect class="a" x="62.56" y="5.21" width="198" height="110" rx="19.01"/><path class="b" d="M242.06,69.65a4.73,4.73,0,1,0,4.69,4.73A4.71,4.71,0,0,0,242.06,69.65ZM226.62,66a6.78,6.78,0,1,0-6.77,6.48A6.63,6.63,0,0,0,226.62,66Zm0-12.59h7.47V78.58h-7.47V77a13,13,0,0,1-7.41,2.31,13.29,13.29,0,0,1,0-26.58A13,13,0,0,1,226.65,55V53.4Zm-59.81,3.28V53.4h-7.65V78.58h7.67V66.82c0-4,4.26-6.1,7.22-6.1h.09V53.4a9.29,9.29,0,0,0-7.33,3.28ZM147.79,66A6.78,6.78,0,1,0,141,72.47,6.64,6.64,0,0,0,147.79,66Zm0-12.59h7.47V78.58h-7.47V77a13,13,0,0,1-7.41,2.31,13.29,13.29,0,0,1,0-26.58A13,13,0,0,1,147.81,55V53.4Zm45-.68a9.05,9.05,0,0,0-7.7,3.51V53.4h-7.44V78.58h7.53V65.35a5.29,5.29,0,0,1,5.61-5.71c3.29,0,5.18,2,5.18,5.65V78.58h7.46v-16c0-5.87-4.62-9.85-10.64-9.85ZM116.35,78.58h7.82V42.17h-7.82ZM82,78.59h8.28V42.17H82Zm29-36.42a29.1,29.1,0,0,1-8.48,20.67l11.45,15.75H103.7L91.26,61.47l3.21-2.42a21,21,0,0,0,8.38-16.88Z"/><rect class="c" width="323.13" height="120.41"/></svg>