<svg xmlns="http://www.w3.org/2000/svg" width="128" height="64" fill="none"><rect width="128" height="64" fill="#FFB3C7" rx="6"/><path fill="#0A0B09" d="M101.673 37.33a2.298 2.298 0 1 0 2.274 2.323 2.282 2.282 0 0 0-2.269-2.298l-.005-.025Zm-7.482-1.774a3.287 3.287 0 1 0-3.424 3.137h.146a3.215 3.215 0 0 0 3.278-3.137Zm0-6.106h3.627v12.215H94.19v-.78A6.328 6.328 0 0 1 90.602 42a6.445 6.445 0 0 1 0-12.889c1.283 0 2.534.39 3.589 1.12v-.78Zm-28.998 1.59v-1.59h-3.71v12.215h3.72v-5.702c0-1.94 2.065-2.958 3.5-2.958h.04V29.45a4.5 4.5 0 0 0-3.55 1.59Zm-9.243 4.516a3.288 3.288 0 1 0-3.428 3.137h.146a3.215 3.215 0 0 0 3.292-3.137h-.01Zm0-6.106h3.623v12.215H55.95v-.78A6.333 6.333 0 0 1 52.357 42a6.444 6.444 0 1 1 0-12.889c1.284 0 2.537.392 3.593 1.12v-.78Zm21.822-.33a4.363 4.363 0 0 0-3.734 1.693V29.45H70.43v12.215h3.651v-6.42c0-1.857 1.232-2.764 2.72-2.764 1.591 0 2.508.97 2.508 2.74v6.444h3.622v-7.758c0-2.842-2.24-4.777-5.16-4.777v-.01ZM40.714 41.666h3.793v-17.64h-3.793v17.64Zm-16.661 0h4.015v-17.64h-4.015v17.64ZM38.115 24a14.114 14.114 0 0 1-4.083 10.028l5.528 7.637h-4.975l-6.037-8.297 1.561-1.178a10.183 10.183 0 0 0 4.064-8.166L38.115 24Z"/></svg>