<svg xmlns="http://www.w3.org/2000/svg" viewBox="0 0 320 120"><defs><style>.a{fill:none;}.b{fill:#1434cb;}.c{fill:#231f20;}.d{fill:#ff5f00;}.e{fill:#eb001b;}.f{fill:#f79e1b;}</style></defs><rect class="a" width="320" height="120"/><path class="b" d="M213.76,38.56,194.59,84.31H182.08L172.64,47.8c-.57-2.25-1.07-3.07-2.81-4a49.39,49.39,0,0,0-11.67-3.89l.28-1.33h20.13A5.51,5.51,0,0,1,184,43.22l5,26.48,12.32-31.14Zm49,30.81c.05-12.07-16.69-12.74-16.58-18.13,0-1.64,1.6-3.39,5-3.84a22.35,22.35,0,0,1,11.67,2.05l2.08-9.7a31.88,31.88,0,0,0-11.07-2c-11.7,0-19.93,6.22-20,15.13-.07,6.58,5.88,10.26,10.36,12.44S250.41,69,250.39,71c0,3.07-3.68,4.42-7.08,4.48a24.78,24.78,0,0,1-12.15-2.89l-2.15,10A35.77,35.77,0,0,0,242.17,85c12.43,0,20.57-6.14,20.6-15.65m30.89,14.94h10.95l-9.56-45.75H285a5.39,5.39,0,0,0-5,3.36L262.16,84.31h12.42l2.47-6.84h15.18ZM280.46,68.1l6.23-17.18,3.58,17.18ZM230.67,38.56l-9.79,45.75H209.05l9.79-45.75Z"/><path class="c" d="M37.87,104.81v-6A3.56,3.56,0,0,0,34.56,95a3.38,3.38,0,0,0-.45,0,3.68,3.68,0,0,0-3.36,1.7A3.49,3.49,0,0,0,27.59,95a3.14,3.14,0,0,0-2.8,1.42V95.25H22.71v9.56h2.1V99.55A2.24,2.24,0,0,1,26.72,97a2.06,2.06,0,0,1,.43,0c1.38,0,2.08.9,2.08,2.52v5.32h2.1v-5.3A2.25,2.25,0,0,1,33.27,97a1.77,1.77,0,0,1,.4,0c1.42,0,2.1.9,2.1,2.52v5.32Zm31.07-9.56H65.52v-2.9h-2.1v2.9h-1.9v1.9h1.94v4.4c0,2.22.86,3.54,3.32,3.54a5,5,0,0,0,2.6-.74l-.6-1.78a4,4,0,0,1-1.84.54c-1,0-1.38-.64-1.38-1.6V97.15H69ZM86.68,95a2.8,2.8,0,0,0-2.52,1.4V95.25H82.1v9.56h2.08V99.45c0-1.58.68-2.46,2-2.46a3.26,3.26,0,0,1,1.3.24l.64-2A4.44,4.44,0,0,0,86.64,95ZM59.86,96A7.13,7.13,0,0,0,56,95c-2.42,0-4,1.16-4,3.06,0,1.56,1.16,2.52,3.3,2.82l1,.14c1.14.16,1.68.46,1.68,1,0,.74-.76,1.16-2.18,1.16a5.12,5.12,0,0,1-3.18-1l-1,1.62a6.94,6.94,0,0,0,4.14,1.24c2.76,0,4.36-1.3,4.36-3.12s-1.26-2.56-3.34-2.86l-1-.14c-.9-.12-1.62-.3-1.62-.94s.68-1.12,1.82-1.12a6.12,6.12,0,0,1,3,.82Zm55.71-1a2.8,2.8,0,0,0-2.52,1.4V95.25H111v9.56h2.08V99.45c0-1.58.68-2.46,2-2.46a3.26,3.26,0,0,1,1.3.24l.64-2a4.44,4.44,0,0,0-1.48-.26Zm-26.8,5a4.83,4.83,0,0,0,4.65,5h.45a5.06,5.06,0,0,0,3.44-1.14l-1-1.68a4.27,4.27,0,0,1-2.5.86,3.07,3.07,0,0,1,0-6.12,4.2,4.2,0,0,1,2.5.86l1-1.68A5,5,0,0,0,93.87,95a4.82,4.82,0,0,0-5.1,4.54,3.53,3.53,0,0,0,0,.46Zm19.48,0V95.25h-2.08v1.16a3.6,3.6,0,0,0-3-1.4,5,5,0,0,0,0,10,3.66,3.66,0,0,0,3-1.4v1.16h2.08Zm-7.74,0a2.82,2.82,0,1,1,0,.22A1.62,1.62,0,0,1,100.51,100Zm-25.1-5a5,5,0,0,0,.14,10h0a5.84,5.84,0,0,0,4-1.3l-1-1.54a4.61,4.61,0,0,1-2.78,1,2.65,2.65,0,0,1-2.86-2.34H80V100c0-3-1.86-5-4.54-5Zm0,1.86a2.37,2.37,0,0,1,2.42,2.31h-5a2.45,2.45,0,0,1,2.54-2.32ZM127.52,100V91.41h-2v5a3.6,3.6,0,0,0-3-1.4,5,5,0,0,0,0,10,3.66,3.66,0,0,0,3-1.4v1.16h2Zm3.47,3.39a.83.83,0,0,1,.38.07.87.87,0,0,1,.31.2.81.81,0,0,1,.21.3,1,1,0,0,1,0,.74,1,1,0,0,1-.21.3,1.27,1.27,0,0,1-.31.2,1,1,0,0,1-.38.08,1,1,0,0,1-.9-.58,1,1,0,0,1,0-.74.81.81,0,0,1,.21-.3.79.79,0,0,1,.31-.2.83.83,0,0,1,.41-.07Zm0,1.69a.72.72,0,0,0,.29-.06,1.19,1.19,0,0,0,.23-.16.74.74,0,0,0,0-1,.69.69,0,0,0-.23-.16.73.73,0,0,0-.58,0,.63.63,0,0,0-.24.16.74.74,0,0,0,0,1,1,1,0,0,0,.24.16.87.87,0,0,0,.32.06Zm.06-1.19a.37.37,0,0,1,.26.08.27.27,0,0,1,.09.21.26.26,0,0,1-.07.18.4.4,0,0,1-.21.09l.29.33h-.23l-.27-.33h-.09v.33h-.19v-.88Zm-.22.17v.24h.22a.24.24,0,0,0,.12,0,.14.14,0,0,0,0-.09.14.14,0,0,0,0-.09.13.13,0,0,0-.12,0Zm-11-4.06a2.82,2.82,0,1,1,0,.22A1.62,1.62,0,0,1,119.83,100ZM49.6,100V95.25H47.52v1.16a3.6,3.6,0,0,0-3-1.4,5,5,0,1,0,0,10,3.66,3.66,0,0,0,3-1.4v1.16H49.6Zm-7.74,0a2.63,2.63,0,1,1,0,.24,1.93,1.93,0,0,1,0-.24Z"/><rect class="d" x="59.17" y="22.4" width="31.5" height="56.61"/><path class="e" d="M61.17,50.71A35.94,35.94,0,0,1,74.92,22.4a36,36,0,1,0,0,56.61A35.94,35.94,0,0,1,61.17,50.71Z"/><path class="f" d="M133.17,50.71A36,36,0,0,1,74.92,79a36,36,0,0,0,0-56.61,36,36,0,0,1,58.25,28.3Z"/><path class="f" d="M129.73,73V71.85h.47v-.24H129v.24h.51V73ZM132,73v-1.4h-.36l-.42,1-.42-1h-.32V73h.26V72l.39.91h.27l.39-.91V73Z"/></svg>