<svg xmlns="http://www.w3.org/2000/svg" viewBox="0 0 323.13 120.41"><defs><style>.a{fill:#1434cb;}.b{fill:#231f20;}.c{fill:#ff5f00;}.d{fill:#eb001b;}.e{fill:#f79e1b;}.f{fill:none;}</style></defs><path class="a" d="M215.32,38.76,196.15,84.51H183.64L174.21,48c-.58-2.25-1.07-3.07-2.82-4a49.69,49.69,0,0,0-11.67-3.89l.28-1.33h20.14a5.51,5.51,0,0,1,5.45,4.67l5,26.47,12.31-31.14Zm49,30.81c.05-12.07-16.7-12.73-16.58-18.13,0-1.64,1.6-3.38,5-3.83a22.32,22.32,0,0,1,11.66,2l2.08-9.7a31.61,31.61,0,0,0-11.07-2c-11.69,0-19.92,6.22-20,15.12-.08,6.59,5.87,10.26,10.35,12.45S252,69.18,252,71.19c0,3.06-3.68,4.42-7.09,4.47a24.78,24.78,0,0,1-12.15-2.89l-2.15,10a36.2,36.2,0,0,0,13.17,2.43c12.43,0,20.56-6.15,20.6-15.66m30.89,14.94h10.94l-9.55-45.75h-10.1a5.39,5.39,0,0,0-5,3.36L263.72,84.51h12.43l2.46-6.83H293.8ZM282,68.3l6.23-17.17,3.59,17.17ZM232.23,38.76l-9.78,45.75H210.61l9.79-45.75Z"/><path class="b" d="M39.43,105V99a3.56,3.56,0,0,0-3.3-3.8h-.46a3.7,3.7,0,0,0-3.36,1.7,3.52,3.52,0,0,0-3.16-1.7,3.15,3.15,0,0,0-2.8,1.42V95.45H24.27V105h2.1V99.75a2.24,2.24,0,0,1,1.92-2.52,2,2,0,0,1,.42,0c1.38,0,2.08.9,2.08,2.52v5.32h2.1v-5.3a2.25,2.25,0,0,1,1.94-2.52,1.79,1.79,0,0,1,.4,0c1.42,0,2.1.9,2.1,2.52v5.32ZM70.5,95.45H67.08v-2.9H65v2.9h-1.9v1.9H65v4.4c0,2.22.86,3.54,3.32,3.54a4.88,4.88,0,0,0,2.6-.74l-.6-1.78a3.86,3.86,0,0,1-1.84.54c-1,0-1.38-.64-1.38-1.6V97.35h3.4Zm17.74-.24a2.83,2.83,0,0,0-2.52,1.4V95.45H83.66V105h2.08V99.65c0-1.58.68-2.46,2-2.46a3.37,3.37,0,0,1,1.3.24l.64-2a4.35,4.35,0,0,0-1.48-.26Zm-26.82,1a7.11,7.11,0,0,0-3.9-1c-2.42,0-4,1.16-4,3.06,0,1.56,1.16,2.52,3.3,2.82l1,.14c1.14.16,1.68.46,1.68,1,0,.74-.76,1.16-2.18,1.16a5.12,5.12,0,0,1-3.18-1l-1,1.62a6.89,6.89,0,0,0,4.14,1.24c2.76,0,4.36-1.3,4.36-3.12s-1.26-2.56-3.34-2.86l-1-.14c-.9-.12-1.62-.3-1.62-.94s.68-1.12,1.82-1.12a6.17,6.17,0,0,1,3,.82Zm55.71-1a2.83,2.83,0,0,0-2.52,1.4V95.45h-2.06V105h2.08V99.65c0-1.58.68-2.46,2-2.46a3.37,3.37,0,0,1,1.3.24l.64-2a4.35,4.35,0,0,0-1.48-.26Zm-26.8,5a4.82,4.82,0,0,0,4.65,5,3.38,3.38,0,0,0,.45,0,5,5,0,0,0,3.44-1.14l-1-1.68a4.18,4.18,0,0,1-2.5.86,3.07,3.07,0,0,1,0-6.12,4.18,4.18,0,0,1,2.5.86l1-1.68a5,5,0,0,0-3.44-1.14,4.83,4.83,0,0,0-5.09,4.55c0,.15,0,.3,0,.45Zm19.48,0V95.45h-2.08v1.16a3.63,3.63,0,0,0-3-1.4,5,5,0,0,0,0,10,3.63,3.63,0,0,0,3-1.4V105h2.08Zm-7.74,0a2.95,2.95,0,1,1,0,.23Zm-25.1-5a5,5,0,0,0,.14,10h0a5.82,5.82,0,0,0,4-1.3l-1-1.54a4.55,4.55,0,0,1-2.78,1A2.65,2.65,0,0,1,74.44,101h7.1v-.8c0-3-1.86-5-4.54-5Zm0,1.86a2.37,2.37,0,0,1,2.42,2.32h-5a2.47,2.47,0,0,1,2.54-2.32Zm52.11,3.16V91.61h-2v5a3.63,3.63,0,0,0-3-1.4,5,5,0,0,0,0,10,3.63,3.63,0,0,0,3-1.4V105h2Zm3.47,3.39a1,1,0,0,1,.38.07,1.1,1.1,0,0,1,.31.2,1,1,0,0,1,.21.3,1,1,0,0,1,0,.74,1,1,0,0,1-.21.3.92.92,0,0,1-.31.2,1,1,0,0,1-.38.08,1,1,0,0,1-.9-.58,1,1,0,0,1,0-.74,1,1,0,0,1,.21-.3,1.27,1.27,0,0,1,.31-.2,1,1,0,0,1,.41-.07Zm0,1.69a.72.72,0,0,0,.29-.06.63.63,0,0,0,.23-.16.74.74,0,0,0,0-1,.63.63,0,0,0-.23-.16.73.73,0,0,0-.58,0,.78.78,0,0,0-.24.16.74.74,0,0,0,0,1,.78.78,0,0,0,.24.16.87.87,0,0,0,.32.06Zm.06-1.19a.38.38,0,0,1,.26.08.24.24,0,0,1,.09.21.21.21,0,0,1-.07.18.4.4,0,0,1-.21.09l.29.33h-.23l-.27-.33h-.09V105h-.19v-.88Zm-.22.17v.24h.22a.24.24,0,0,0,.12,0,.07.07,0,0,0,0-.09.08.08,0,0,0,0-.09h-.12Zm-11-4.06a2.95,2.95,0,1,1,0,.23Zm-70.23,0V95.45H49.08v1.16a3.63,3.63,0,0,0-3-1.4,5,5,0,0,0,0,10,3.63,3.63,0,0,0,3-1.4V105h2.08Zm-7.74,0a2.73,2.73,0,1,1,0,.25,2.09,2.09,0,0,1,0-.25Z"/><rect class="c" x="60.73" y="22.6" width="31.5" height="56.61"/><path class="d" d="M62.73,50.91A35.94,35.94,0,0,1,76.48,22.6a36,36,0,1,0,0,56.61A35.92,35.92,0,0,1,62.73,50.91Z"/><path class="e" d="M134.73,50.91a36,36,0,0,1-58.25,28.3,36,36,0,0,0,0-56.61,36,36,0,0,1,58.25,28.3Z"/><path class="e" d="M131.29,73.21V72.05h.47v-.24h-1.19v.24h.51v1.16Zm2.31,0v-1.4h-.36l-.42,1-.42-1h-.32v1.4h.26v-1l.39.91H133l.39-.91v1.06Z"/><rect class="f" width="323.13" height="120.41"/></svg>