<svg xmlns="http://www.w3.org/2000/svg" width="128" height="64" fill="none"><rect width="128" height="64" fill="#fff" rx="6"/><path fill="#231F20" d="M43.506 56.845v-3.319a1.969 1.969 0 0 0-2.069-2.107 2.035 2.035 0 0 0-1.858.94 1.925 1.925 0 0 0-1.759-.94 1.736 1.736 0 0 0-1.548.786v-.648h-1.15v5.288h1.16v-2.91a1.244 1.244 0 0 1 1.04-1.41c.08-.005.16-.005.238 0 .764 0 1.15.498 1.15 1.394v2.943h1.162V53.93a1.244 1.244 0 0 1 1.079-1.405.745.745 0 0 1 .221 0c.785 0 1.162.498 1.162 1.394v2.943l1.172-.017Zm17.185-5.288h-1.892v-1.604h-1.161v1.604h-1.051v1.051h1.073v2.434c0 1.228.476 1.958 1.836 1.958a2.765 2.765 0 0 0 1.438-.41l-.331-.984c-.31.18-.66.283-1.018.299-.553 0-.764-.354-.764-.885v-2.412h1.903l-.033-1.05Zm9.812-.138a1.555 1.555 0 0 0-1.394.775v-.637h-1.14v5.288h1.151V53.88c0-.873.376-1.36 1.106-1.36a1.77 1.77 0 0 1 .72.133l.353-1.107a2.435 2.435 0 0 0-.818-.127h.022Zm-14.834.553a3.966 3.966 0 0 0-2.135-.553c-1.339 0-2.213.642-2.213 1.693 0 .863.642 1.393 1.826 1.56l.553.077c.63.088.929.254.929.553 0 .41-.42.642-1.206.642a2.832 2.832 0 0 1-1.759-.553l-.553.895a3.837 3.837 0 0 0 2.29.664c1.527 0 2.412-.719 2.412-1.725 0-1.007-.697-1.416-1.848-1.582l-.553-.078c-.498-.066-.896-.166-.896-.52s.376-.62 1.007-.62a3.369 3.369 0 0 1 1.66.454l.486-.907Zm30.813-.553a1.555 1.555 0 0 0-1.394.775v-.637h-1.106v5.288h1.15V53.88c0-.873.377-1.36 1.107-1.36a1.77 1.77 0 0 1 .719.133l.354-1.107a2.43 2.43 0 0 0-.819-.143l-.01.016ZM71.66 54.185a2.672 2.672 0 0 0 2.572 2.765h.249a2.798 2.798 0 0 0 1.902-.63l-.553-.93c-.399.301-.883.468-1.382.476a1.698 1.698 0 0 1 0-3.385c.5.006.985.173 1.382.476l.553-.93a2.766 2.766 0 0 0-1.902-.608 2.666 2.666 0 0 0-2.821 2.5 1.96 1.96 0 0 0 0 .266Zm10.774 0v-2.628h-1.15v.642a1.98 1.98 0 0 0-1.66-.774 2.765 2.765 0 1 0 0 5.53 2.013 2.013 0 0 0 1.66-.774v.642h1.15v-2.638Zm-4.28 0a1.56 1.56 0 1 1 0 .121v-.121ZM64.27 51.419a2.766 2.766 0 0 0 .077 5.531 3.213 3.213 0 0 0 2.212-.719l-.553-.852a2.55 2.55 0 0 1-1.537.553 1.466 1.466 0 0 1-1.582-1.294h3.921v-.453c0-1.66-1.029-2.766-2.51-2.766h-.028Zm0 1.029a1.305 1.305 0 0 1 1.338 1.278h-2.765a1.355 1.355 0 0 1 1.404-1.283l.023.005Zm28.822 1.737v-4.751h-1.106v2.765a1.98 1.98 0 0 0-1.66-.774 2.765 2.765 0 1 0 0 5.53 2.013 2.013 0 0 0 1.66-.774v.642h1.106v-2.638Zm-4.254 0a1.56 1.56 0 1 1 0 .121v-.121Zm-38.844 0v-2.628h-1.15v.642a1.98 1.98 0 0 0-1.66-.774 2.766 2.766 0 0 0 0 5.53 2.013 2.013 0 0 0 1.66-.774v.642h1.15v-2.638Zm-4.281 0a1.455 1.455 0 1 1 0 .133v-.133Z"/><path fill="#FF5F00" d="M72.71 11.264H55.287v31.311H72.71V11.264Z"/><path fill="#EB001B" d="M56.393 26.922a19.878 19.878 0 0 1 7.605-15.658 19.911 19.911 0 1 0 0 31.311 19.878 19.878 0 0 1-7.605-15.653Z"/><path fill="#F79E1B" d="M96.217 26.922A19.912 19.912 0 0 1 63.999 42.57a19.911 19.911 0 0 0 0-31.31A19.912 19.912 0 0 1 96.216 26.91v.011Z"/></svg>