<svg xmlns="http://www.w3.org/2000/svg" xmlns:xlink="http://www.w3.org/1999/xlink" viewBox="0 0 323.13 120.41"><defs><style>.a{fill:url(#a);}.b{fill:url(#b);}.c{fill:url(#c);}.d{fill:url(#d);}.e{fill:#231f20;}.f{fill:#ff5f00;}.g{fill:#eb001b;}.h{fill:#f79e1b;}.i{fill:none;}</style><linearGradient id="a" x1="166.72" y1="59.63" x2="304.12" y2="60.53" gradientTransform="matrix(1, 0, 0, -1, 0, 122)" gradientUnits="userSpaceOnUse"><stop offset="0" stop-color="#262860"/><stop offset="1" stop-color="#3c429a"/></linearGradient><linearGradient id="b" x1="166.72" y1="59.97" x2="304.12" y2="60.88" xlink:href="#a"/><linearGradient id="c" x1="166.71" y1="60.39" x2="304.12" y2="61.29" xlink:href="#a"/><linearGradient id="d" x1="166.72" y1="60.07" x2="304.12" y2="60.98" xlink:href="#a"/></defs><path class="a" d="M304.89,84.39h-11c-.4-1.94-.83-3.83-1.17-5.75-.15-.79-.4-1.1-1.28-1.09-4.42.06-8.84,0-13.26,0a1,1,0,0,0-1.14.83c-.61,1.82-1.27,3.62-1.95,5.42-.1.24-.4.58-.61.58-4,0-8,0-12.07,0,.75-1.79,1.46-3.51,2.18-5.22Q272.27,60.8,280,42.43a5.42,5.42,0,0,1,5.65-3.76h9.67c.32,1.49.64,3,.95,4.44q3.79,18.15,7.58,36.32c.32,1.55.71,3.09,1.06,4.63ZM290.47,68.14C289.3,62.51,288.14,57,287,51.4l-.14,0-6.08,16.77Z"/><path class="b" d="M256.89,37.85c1.46.27,2.92.49,4.36.83s2.6.72,4,1.12c-.71,3.29-1.39,6.5-2.07,9.65-1.84-.54-3.6-1.17-5.41-1.57a15.43,15.43,0,0,0-7.49-.06,7.69,7.69,0,0,0-2.82,1.5,2.57,2.57,0,0,0-.07,4.06,17.06,17.06,0,0,0,3,2.17c2.41,1.45,4.94,2.72,7.29,4.26a10.78,10.78,0,0,1,5.19,7.73c.75,6-1.47,10.72-6.5,14.06A22.27,22.27,0,0,1,245.89,85a37.49,37.49,0,0,1-15.31-1.73c-.33-.11-.66-.25-1-.38a2.11,2.11,0,0,1-.34-.21c.71-3.29,1.41-6.59,2.14-10,.85.37,1.64.75,2.46,1.07a21.32,21.32,0,0,0,12.08,1.51,8.52,8.52,0,0,0,3.11-1.3,3.3,3.3,0,0,0,.37-5.42,29.83,29.83,0,0,0-4-2.62c-2.12-1.29-4.38-2.39-6.39-3.84a10.72,10.72,0,0,1-4.79-7.62,13,13,0,0,1,5.07-12A21.45,21.45,0,0,1,250.68,38a4.18,4.18,0,0,0,.68-.16Z"/><path class="c" d="M214,38.7c-.62,1.49-1.2,2.91-1.8,4.33q-8.51,20.3-17,40.59a1.14,1.14,0,0,1-1.26.81c-3.57,0-7.15,0-10.73,0-.76,0-1-.26-1.18-.94C179,71.68,176,59.86,173,48a6.24,6.24,0,0,0-3.72-4.56A58.77,58.77,0,0,0,159,40.15l-.45-.11c0-1.38,0-1.38,1.32-1.38h18.79a5.45,5.45,0,0,1,5.68,4.66c1.59,8.33,3.14,16.66,4.71,25,.07.36.15.72.26,1.24.16-.31.27-.48.35-.67q5.84-14.76,11.65-29.52a1,1,0,0,1,1.05-.72c3.63,0,7.27,0,10.9,0Z"/><path class="d" d="M209.3,84.42c3.27-15.3,6.52-30.48,9.78-45.71H231c-.5,2.32-1,4.6-1.47,6.87q-4,18.86-8,37.73c-.19.87-.5,1.15-1.41,1.13-3.25-.06-6.5,0-9.76,0Z"/><path class="e" d="M39.43,105V99a3.56,3.56,0,0,0-3.3-3.8h-.46a3.7,3.7,0,0,0-3.36,1.7,3.52,3.52,0,0,0-3.16-1.7,3.15,3.15,0,0,0-2.8,1.42V95.45H24.27V105h2.1V99.75a2.24,2.24,0,0,1,1.92-2.52,2,2,0,0,1,.42,0c1.38,0,2.08.9,2.08,2.52v5.32h2.1v-5.3a2.25,2.25,0,0,1,1.94-2.52,1.79,1.79,0,0,1,.4,0c1.42,0,2.1.9,2.1,2.52v5.32ZM70.5,95.45H67.08v-2.9H65v2.9h-1.9v1.9H65v4.4c0,2.22.86,3.54,3.32,3.54a4.88,4.88,0,0,0,2.6-.74l-.6-1.78a3.86,3.86,0,0,1-1.84.54c-1,0-1.38-.64-1.38-1.6V97.35h3.4Zm17.74-.24a2.83,2.83,0,0,0-2.52,1.4V95.45H83.66V105h2.08V99.65c0-1.58.68-2.46,2-2.46a3.37,3.37,0,0,1,1.3.24l.64-2a4.35,4.35,0,0,0-1.48-.26Zm-26.82,1a7.11,7.11,0,0,0-3.9-1c-2.42,0-4,1.16-4,3.06,0,1.56,1.16,2.52,3.3,2.82l1,.14c1.14.16,1.68.46,1.68,1,0,.74-.76,1.16-2.18,1.16a5.12,5.12,0,0,1-3.18-1l-1,1.62a6.89,6.89,0,0,0,4.14,1.24c2.76,0,4.36-1.3,4.36-3.12s-1.26-2.56-3.34-2.86l-1-.14c-.9-.12-1.62-.3-1.62-.94s.68-1.12,1.82-1.12a6.17,6.17,0,0,1,3,.82Zm55.71-1a2.83,2.83,0,0,0-2.52,1.4V95.45h-2.06V105h2.08V99.65c0-1.58.68-2.46,2-2.46a3.37,3.37,0,0,1,1.3.24l.64-2a4.35,4.35,0,0,0-1.48-.26Zm-26.8,5a4.82,4.82,0,0,0,4.65,5,3.38,3.38,0,0,0,.45,0,5,5,0,0,0,3.44-1.14l-1-1.68a4.18,4.18,0,0,1-2.5.86,3.07,3.07,0,0,1,0-6.12,4.18,4.18,0,0,1,2.5.86l1-1.68a5,5,0,0,0-3.44-1.14,4.83,4.83,0,0,0-5.09,4.55c0,.15,0,.3,0,.45Zm19.48,0V95.45h-2.08v1.16a3.63,3.63,0,0,0-3-1.4,5,5,0,0,0,0,10,3.63,3.63,0,0,0,3-1.4V105h2.08Zm-7.74,0a2.95,2.95,0,1,1,0,.23Zm-25.1-5a5,5,0,0,0,.14,10h0a5.82,5.82,0,0,0,4-1.3l-1-1.54a4.55,4.55,0,0,1-2.78,1A2.65,2.65,0,0,1,74.44,101h7.1v-.8c0-3-1.86-5-4.54-5Zm0,1.86a2.37,2.37,0,0,1,2.42,2.32h-5a2.47,2.47,0,0,1,2.54-2.32Zm52.11,3.16V91.61h-2v5a3.63,3.63,0,0,0-3-1.4,5,5,0,0,0,0,10,3.63,3.63,0,0,0,3-1.4V105h2Zm3.47,3.39a1,1,0,0,1,.38.07,1.1,1.1,0,0,1,.31.2,1,1,0,0,1,.21.3,1,1,0,0,1,0,.74,1,1,0,0,1-.21.3.92.92,0,0,1-.31.2,1,1,0,0,1-.38.08,1,1,0,0,1-.9-.58,1,1,0,0,1,0-.74,1,1,0,0,1,.21-.3,1.27,1.27,0,0,1,.31-.2,1,1,0,0,1,.41-.07Zm0,1.69a.72.72,0,0,0,.29-.06.63.63,0,0,0,.23-.16.74.74,0,0,0,0-1,.63.63,0,0,0-.23-.16.73.73,0,0,0-.58,0,.78.78,0,0,0-.24.16.74.74,0,0,0,0,1,.78.78,0,0,0,.24.16.87.87,0,0,0,.32.06Zm.06-1.19a.38.38,0,0,1,.26.08.24.24,0,0,1,.09.21.21.21,0,0,1-.07.18.4.4,0,0,1-.21.09l.29.33h-.23l-.27-.33h-.09V105h-.19v-.88Zm-.22.17v.24h.22a.24.24,0,0,0,.12,0,.07.07,0,0,0,0-.09.08.08,0,0,0,0-.09h-.12Zm-11-4.06a2.95,2.95,0,1,1,0,.23Zm-70.23,0V95.45H49.08v1.16a3.63,3.63,0,0,0-3-1.4,5,5,0,0,0,0,10,3.63,3.63,0,0,0,3-1.4V105h2.08Zm-7.74,0a2.73,2.73,0,1,1,0,.25,2.09,2.09,0,0,1,0-.25Z"/><rect class="f" x="60.73" y="22.6" width="31.5" height="56.61"/><path class="g" d="M62.73,50.91A35.94,35.94,0,0,1,76.48,22.6a36,36,0,1,0,0,56.61A35.92,35.92,0,0,1,62.73,50.91Z"/><path class="h" d="M134.73,50.91a36,36,0,0,1-58.25,28.3,36,36,0,0,0,0-56.61,36,36,0,0,1,58.25,28.3Z"/><path class="h" d="M131.29,73.21V72.05h.47v-.24h-1.19v.24h.51v1.16Zm2.31,0v-1.4h-.36l-.42,1-.42-1h-.32v1.4h.26v-1l.39.91H133l.39-.91v1.06Z"/><rect class="i" width="323.13" height="120.41"/></svg>