<svg xmlns="http://www.w3.org/2000/svg" viewBox="0 0 320 120"><defs><style>.a{fill:none;}.b{fill:#d60510;}</style></defs><rect class="a" width="320" height="120"/><path class="b" d="M55.58,100.94l-.39,3a2.47,2.47,0,0,0,2.47,2.74H154a2.47,2.47,0,0,0,2.48-2.74l-.4-3a4.25,4.25,0,0,1,3.74-4.66,4.18,4.18,0,0,1,4.6,3.74l.38,2.89c.75,6.43-2.91,12.09-9.41,12.09H56.28c-6.51,0-10.16-5.65-9.41-12.09l.37-2.89a4.18,4.18,0,0,1,4.59-3.74,4.25,4.25,0,0,1,3.75,4.66"/><path d="M144.61,78.61c4.69,0,8.42-3.4,8.33-7.89s-4.28-7.58-8.95-7.58h-9.43a3.92,3.92,0,0,1,0-7.83h6.3c4.24-.17,7.52-2.74,7.72-6.76.21-4.3-3.48-7.53-8-7.53H125.29l-.06,37.6h19.38ZM156.2,48.52c0,3.92-1.39,6.14-3.69,8.88l-.23.27.32.2c4.56,2.77,7.74,7,8,12.86.35,8.78-7.08,16-15.91,16H121.38a4.15,4.15,0,0,1-4.09-4.2V37.41a4.14,4.14,0,0,1,4.08-4.2l19.22,0c8.38,0,15.61,6.16,15.61,15.26"/><path d="M81.19,71.27l.11.32.11-.32c1.08-3,2.38-6.26,3.76-9.85q2.13-5.66,4.26-10.83c1.43-3.49,2.78-6.6,4.08-9.32a32.17,32.17,0,0,1,3.18-5.73,6.28,6.28,0,0,1,5-2.29h1a4.5,4.5,0,0,1,3,1A3.4,3.4,0,0,1,107,36.32L113,83a3.83,3.83,0,0,1-1,2.82,4.08,4.08,0,0,1-2.93,1,4.72,4.72,0,0,1-3-.9,3.28,3.28,0,0,1-1.41-2.33c-.2-1.55-.39-3.28-.58-5.17s-1.2-10-1.47-12.07S100.6,51,100,46.2l0-.4-1.93,4c-.66,1.39-1.36,3.06-2.14,5s-1.56,4-2.33,6.17S89,73.76,89,73.76c-.35,1-1,2.9-1.6,4.69s-1.15,3.39-1.29,3.7a5.42,5.42,0,0,1-9.63,0c-.16-.31-.71-1.92-1.31-3.7s-1.24-3.73-1.6-4.69c0,0-3.72-10.64-4.56-12.75s-1.55-4.22-2.33-6.17-1.48-3.61-2.12-5l-1.94-4,0,.4c-.59,4.79-2.27,18-2.52,20.08s-1.21,10.19-1.46,12.07S58.22,82,58,83.52a3.3,3.3,0,0,1-1.4,2.33,4.78,4.78,0,0,1-3,.9,4,4,0,0,1-2.91-1,3.85,3.85,0,0,1-1-2.82l6-46.64a3.45,3.45,0,0,1,1.22-2.09,4.49,4.49,0,0,1,3-1h1a6.28,6.28,0,0,1,5,2.29,31.53,31.53,0,0,1,3.18,5.73q1.95,4.08,4.08,9.32t4.27,10.83c1.37,3.59,2.67,6.88,3.75,9.85"/><path class="b" d="M69.39,5h73.15c6.89,0,10.32,5.18,11.13,12l.31,2.18a4.29,4.29,0,0,1-3.78,4.69,4.22,4.22,0,0,1-4.62-3.79L145.29,18c-.31-2.59-1.41-4.59-4-4.59H70.68c-2.64,0-3.73,2-4,4.59l-.28,2.09a4.22,4.22,0,0,1-4.63,3.79A4.27,4.27,0,0,1,58,19.18L58.26,17c.82-6.83,4.24-12,11.13-12"/><path d="M201,54.16c-.5,2-1,4-1.57,6.26s-1.1,4.34-1.64,6.36-1,3.79-1.52,5.33A18.24,18.24,0,0,1,195,75.24a3.13,3.13,0,0,1-3,1.5,6.4,6.4,0,0,1-1.56-.25,2.62,2.62,0,0,1-1.6-1.35,18.44,18.44,0,0,1-1.21-3.3c-.48-1.64-1-3.51-1.52-5.65s-1.06-4.38-1.6-6.77-1-4.58-1.45-6.63S182.33,49,182,47.57s-.44-2.29-.48-2.58a2.82,2.82,0,0,1-.05-.38V44.4a1.81,1.81,0,0,1,.69-1.47,2.66,2.66,0,0,1,1.71-.56,2.79,2.79,0,0,1,1.56.41,2.3,2.3,0,0,1,.85,1.4c0,.07.1.59.29,1.55s.45,2.19.75,3.67.64,3.16,1,5,.76,3.72,1.17,5.62.82,3.72,1.23,5.51.79,3.31,1.15,4.58c.36-1.2.74-2.58,1.18-4.13s.86-3.15,1.28-4.79.84-3.3,1.24-5,.75-3.19,1.09-4.61.63-2.68.88-3.77.44-1.92.59-2.46a2.9,2.9,0,0,1,1-1.6,3,3,0,0,1,1.82-.59,3,3,0,0,1,1.93.62,2.81,2.81,0,0,1,1,1.57c.4,1.74.82,3.69,1.28,5.83s.95,4.32,1.44,6.52,1,4.37,1.55,6.48,1.06,4,1.56,5.62c.35-1.27.74-2.81,1.15-4.58s.82-3.61,1.24-5.49.85-3.74,1.23-5.59.76-3.5,1.09-5,.57-2.67.77-3.59.29-1.41.29-1.44a2.32,2.32,0,0,1,.86-1.41,2.76,2.76,0,0,1,1.55-.4,2.58,2.58,0,0,1,1.7.56,1.77,1.77,0,0,1,.7,1.47v.21a2.73,2.73,0,0,1-.05.37c0,.29-.21,1.14-.51,2.58s-.66,3.19-1.09,5.22-.91,4.25-1.45,6.61-1.05,4.61-1.57,6.74-1,4-1.5,5.62a18.52,18.52,0,0,1-1.2,3.27,2.83,2.83,0,0,1-1.62,1.42,6.2,6.2,0,0,1-1.58.29c-.15,0-.35,0-.65,0a6.27,6.27,0,0,1-.91-.22,3.23,3.23,0,0,1-1-.5,2.25,2.25,0,0,1-.75-.94,23.49,23.49,0,0,1-1.15-3.35c-.44-1.57-.93-3.32-1.44-5.3s-1-4-1.53-6.18-1-4.17-1.39-6"/><path d="M228.92,66.89c-.54,1.71-1,3.28-1.41,4.73s-.8,2.65-1.15,3.57a2.7,2.7,0,0,1-4.15.94,2.22,2.22,0,0,1-.56-1.57,2.28,2.28,0,0,1,.1-.7c.07-.2.3-.94.67-2.18s.86-2.79,1.47-4.63l2-6.07c.74-2.2,1.49-4.38,2.28-6.53s1.55-4.16,2.3-6a38.65,38.65,0,0,1,2.07-4.5,2.44,2.44,0,0,1,1.15-1.23,4.86,4.86,0,0,1,2-.32,5,5,0,0,1,2,.37A2.12,2.12,0,0,1,238.8,44c.51,1.06,1.11,2.5,1.8,4.29s1.42,3.73,2.18,5.81,1.52,4.2,2.27,6.36,1.45,4.18,2.07,6,1.16,3.45,1.6,4.76.72,2.17.83,2.55a2.63,2.63,0,0,1,.11.7,2.09,2.09,0,0,1-.65,1.57,2.58,2.58,0,0,1-1.87.61,2,2,0,0,1-1.37-.41,2.8,2.8,0,0,1-.72-1.14c-.35-.92-.77-2.12-1.25-3.57s-1-3-1.53-4.73Zm11.87-4.64q-1.12-3.47-2.14-6.36c-.68-1.94-1.37-3.78-2.09-5.52-.18-.39-.36-.83-.56-1.36s-.31-.82-.35-.92a4.42,4.42,0,0,0-.34.87q-.3.82-.57,1.41c-.7,1.74-1.4,3.58-2.06,5.51s-1.37,4.06-2.11,6.36h10.22Z"/><path d="M258.9,63.31a5.8,5.8,0,0,1-.5-.58,8.49,8.49,0,0,1-.52-.74c-.5-.71-1-1.57-1.63-2.59s-1.17-2.08-1.76-3.21-1.15-2.29-1.7-3.44-1.06-2.22-1.5-3.22L250.14,47a9.08,9.08,0,0,1-.59-1.53,2.52,2.52,0,0,1-.13-.4,3.13,3.13,0,0,1,0-.4,2.09,2.09,0,0,1,.67-1.59,2.55,2.55,0,0,1,1.84-.64,1.92,1.92,0,0,1,1.53.53,4,4,0,0,1,.66,1.07c.07.19.25.57.51,1.17l1,2.23c.39.89.84,1.87,1.34,2.93s1,2.12,1.53,3.15,1,2,1.5,3a17.91,17.91,0,0,0,1.36,2.31,39,39,0,0,0,2.19-3.89q1.17-2.35,2.24-4.63c.71-1.53,1.33-2.88,1.85-4l.94-2.18a4.08,4.08,0,0,1,.66-1.08,1.93,1.93,0,0,1,1.52-.53,2.56,2.56,0,0,1,1.85.65,2.1,2.1,0,0,1,.67,1.59,2,2,0,0,1,0,.4,2.56,2.56,0,0,1-.12.4L272.46,47c-.3.74-.68,1.62-1.13,2.61s-.94,2.07-1.48,3.22-1.13,2.3-1.71,3.44-1.18,2.22-1.77,3.25-1.14,1.9-1.63,2.61a9,9,0,0,1-1,1.22v11a2.33,2.33,0,0,1-.67,1.73,2.58,2.58,0,0,1-3.47,0,2.33,2.33,0,0,1-.67-1.73v-11Z"/></svg>