<svg xmlns="http://www.w3.org/2000/svg" width="128" height="64" fill="none"><rect width="128" height="64" fill="#fff" rx="6"/><path fill="#D60510" d="m14.61 51.366-.184 1.418a1.168 1.168 0 0 0 1.035 1.291H61.15a1.17 1.17 0 0 0 1.177-1.158.668.668 0 0 0 0-.137l-.19-1.419a2.01 2.01 0 0 1 1.77-2.203 1.981 1.981 0 0 1 2.174 1.759l.18 1.366c.355 3.04-1.376 5.717-4.45 5.717H14.94c-3.077 0-4.803-2.672-4.449-5.717l.175-1.366a1.977 1.977 0 0 1 2.166-1.769 2.01 2.01 0 0 1 1.773 2.204"/><path fill="#000" d="M56.708 40.807c2.218 0 3.982-1.608 3.94-3.73-.043-2.124-2.025-3.585-4.233-3.585h-4.459a1.853 1.853 0 0 1 0-3.702h2.98c2.004-.08 3.555-1.296 3.65-3.197.099-2.033-1.646-3.56-3.783-3.56h-7.23l-.029 17.779h9.164v-.005Zm5.48-14.228c0 1.853-.656 2.903-1.744 4.199l-.109.127.152.095c2.156 1.31 3.66 3.31 3.782 6.08.166 4.153-3.347 7.567-7.523 7.567H45.724a1.957 1.957 0 0 1-1.934-1.986V21.325a1.96 1.96 0 0 1 1.93-1.986h9.088c3.962 0 7.38 2.913 7.38 7.216M26.72 37.336l.052.152.052-.152c.51-1.418 1.125-2.96 1.778-4.657a178.538 178.538 0 0 1 2.014-5.121 85.648 85.648 0 0 1 1.93-4.407c.408-.952.912-1.86 1.503-2.71a2.97 2.97 0 0 1 2.364-1.083h.473a2.118 2.118 0 0 1 1.419.473c.322.237.543.586.62.979l2.836 22.073a1.82 1.82 0 0 1-.472 1.333 1.93 1.93 0 0 1-1.386.473 2.246 2.246 0 0 1-1.419-.425 1.551 1.551 0 0 1-.666-1.102 89.097 89.097 0 0 1-.274-2.445c-.09-.893-.568-4.728-.696-5.707-.127-.979-.95-7.258-1.234-9.528v-.19l-.912 1.892a43.693 43.693 0 0 0-1.012 2.364 75.544 75.544 0 0 0-1.102 2.918c-.364 1.026-2.175 6.048-2.175 6.048-.166.472-.473 1.371-.757 2.217-.283.847-.543 1.603-.61 1.75a2.563 2.563 0 0 1-4.553 0c-.076-.147-.336-.908-.62-1.75-.284-.841-.586-1.763-.756-2.217 0 0-1.76-5.032-2.157-6.03-.397-.997-.733-1.995-1.101-2.917-.37-.922-.7-1.707-1.003-2.364l-.917-1.892v.19a1908.76 1908.76 0 0 0-1.192 9.495c-.118.983-.572 4.818-.69 5.707-.118.889-.199 1.707-.303 2.426a1.56 1.56 0 0 1-.662 1.102 2.246 2.246 0 0 1-1.418.425 1.893 1.893 0 0 1-1.376-.473 1.82 1.82 0 0 1-.473-1.333l2.837-22.054c.066-.389.271-.74.577-.988.4-.325.904-.493 1.418-.473h.473a2.97 2.97 0 0 1 2.365 1.082c.595.848 1.099 1.756 1.503 2.71a107.373 107.373 0 0 1 1.93 4.407 165.419 165.419 0 0 1 2.019 5.121c.648 1.697 1.262 3.253 1.773 4.658"/><path fill="#D60510" d="M21.14 6h34.59c3.258 0 4.88 2.45 5.263 5.674l.146 1.031a2.033 2.033 0 0 1-1.787 2.218 1.998 1.998 0 0 1-2.185-1.788l-.137-.988c-.147-1.225-.667-2.17-1.892-2.17H21.75c-1.248 0-1.764.945-1.891 2.17l-.133.988a1.996 1.996 0 0 1-2.18 1.793 2.019 2.019 0 0 1-1.792-2.223l.123-1.03C16.265 8.444 17.882 6 21.14 6Z"/><path fill="#000" d="M83.373 29.246c-.237.945-.473 1.891-.743 2.96-.27 1.068-.52 2.052-.775 3.007-.255.955-.473 1.792-.719 2.52a8.746 8.746 0 0 1-.6 1.48 1.48 1.48 0 0 1-1.419.71 3.008 3.008 0 0 1-.738-.119 1.239 1.239 0 0 1-.756-.638 8.69 8.69 0 0 1-.572-1.56 58.846 58.846 0 0 1-.72-2.672 200.915 200.915 0 0 1-.756-3.201c-.255-1.13-.472-2.166-.685-3.135-.213-.97-.346-1.792-.502-2.468-.156-.677-.208-1.083-.227-1.22a1.17 1.17 0 0 1-.023-.18v-.1a.846.846 0 0 1 .326-.695c.23-.18.517-.273.809-.264.26-.01.516.057.737.194.212.162.355.399.402.662 0 .033.048.278.137.732.09.454.213 1.036.355 1.736s.303 1.494.473 2.364c.17.87.36 1.76.553 2.657.194.899.388 1.76.582 2.606.194.846.373 1.565.544 2.166.17-.568.35-1.22.558-1.953.208-.733.406-1.49.605-2.265.198-.776.397-1.56.586-2.364.19-.804.355-1.509.516-2.18.16-.672.297-1.268.416-1.783.118-.515.208-.908.279-1.163.072-.297.238-.562.472-.757.25-.184.552-.282.861-.279.33-.011.652.093.913.293.236.188.403.45.473.743.189.823.387 1.745.605 2.757.217 1.011.473 2.042.68 3.082.209 1.04.474 2.067.734 3.065.26.997.5 1.891.737 2.657.166-.6.35-1.329.544-2.166.194-.837.388-1.707.587-2.596.198-.889.401-1.768.581-2.643.18-.875.36-1.655.516-2.364.156-.71.269-1.263.364-1.698.094-.435.137-.666.137-.68.048-.266.193-.503.406-.667.221-.133.476-.198.733-.19.291-.01.576.085.804.265a.837.837 0 0 1 .331.695v.1c.005.058.005.116 0 .175 0 .137-.1.539-.241 1.22-.142.68-.312 1.508-.515 2.468-.204.96-.43 2.01-.686 3.126-.255 1.115-.497 2.18-.742 3.187a47.37 47.37 0 0 1-.71 2.657c-.14.532-.33 1.05-.567 1.546a1.325 1.325 0 0 1-.766.672 3.062 3.062 0 0 1-.747.137h-.308a2.704 2.704 0 0 1-.43-.104 1.583 1.583 0 0 1-.473-.237 1.054 1.054 0 0 1-.354-.444 11.182 11.182 0 0 1-.544-1.584c-.208-.742-.44-1.57-.681-2.506-.241-.937-.473-1.892-.724-2.923-.25-1.03-.472-1.971-.657-2.837M96.575 35.265a75.84 75.84 0 0 0-.667 2.237 20.817 20.817 0 0 1-.543 1.688 1.272 1.272 0 0 1-1.963.444 1.064 1.064 0 0 1-.265-.742c0-.112.015-.224.048-.331.033-.095.141-.445.316-1.031.175-.586.407-1.32.695-2.19l.946-2.87c.35-1.04.705-2.07 1.078-3.087a88.492 88.492 0 0 1 1.088-2.837c.279-.73.606-1.441.979-2.128.107-.252.3-.458.543-.582.302-.116.624-.167.946-.151.324-.007.646.052.946.175a1.008 1.008 0 0 1 .525.581c.241.502.525 1.183.851 2.029.326.846.662 1.754 1.031 2.747.369.993.719 1.986 1.073 3.008.355 1.02.686 1.976.979 2.837.293.86.548 1.631.757 2.25.208.62.34 1.027.392 1.206.034.107.051.219.052.331a.99.99 0 0 1-.312.724 1.23 1.23 0 0 1-.884.288.946.946 0 0 1-.648-.194 1.323 1.323 0 0 1-.341-.539 43.456 43.456 0 0 1-.591-1.688c-.227-.685-.472-1.418-.723-2.236l-6.308.061Zm5.613-2.194a119.63 119.63 0 0 0-1.012-3.007 51.616 51.616 0 0 0-.988-2.61 9.592 9.592 0 0 1-.265-.644l-.166-.435c-.067.132-.12.27-.16.412-.095.258-.185.48-.27.666a52.461 52.461 0 0 0-.974 2.606c-.312.912-.648 1.92-.998 3.007h4.833v.005ZM110.751 33.572a2.555 2.555 0 0 1-.236-.274 3.572 3.572 0 0 1-.246-.35c-.237-.336-.473-.742-.771-1.225-.298-.482-.553-.983-.832-1.517a51.665 51.665 0 0 1-.804-1.627c-.26-.544-.501-1.05-.709-1.523l-.544-1.196a4.268 4.268 0 0 1-.279-.723.612.612 0 0 1-.061-.379.978.978 0 0 1 .316-.752 1.203 1.203 0 0 1 .87-.302.915.915 0 0 1 .724.25c.131.15.237.322.312.506.033.09.118.27.241.553l.473 1.055c.184.42.397.884.634 1.385.236.502.472 1.003.723 1.49.251.487.473.946.709 1.418.186.38.401.746.643 1.093.38-.594.725-1.208 1.036-1.84.369-.744.722-1.473 1.059-2.189l.875-1.891.444-1.031c.078-.185.183-.358.313-.51a.934.934 0 0 1 .718-.251c.321-.018.636.093.875.307a.994.994 0 0 1 .317.752c.005.063.005.126 0 .189a1.247 1.247 0 0 1-.057.189l-.331.681c-.142.35-.321.766-.534 1.234-.213.468-.445.979-.7 1.523-.255.543-.534 1.087-.809 1.626a34.82 34.82 0 0 1-.837 1.537c-.279.487-.539.898-.77 1.234a4.32 4.32 0 0 1-.473.577v5.202a1.094 1.094 0 0 1-.317.818 1.224 1.224 0 0 1-1.641 0 1.094 1.094 0 0 1-.317-.818V33.59l-.014-.019Z"/></svg>