<svg xmlns="http://www.w3.org/2000/svg" xmlns:xlink="http://www.w3.org/1999/xlink" viewBox="0 0 320 120"><defs><style>.a{fill:none;}.b{fill:#fff;}.c{fill:url(#a);}.d{fill:url(#b);}.e{fill:url(#c);}.f{fill:#5a78ff;}</style><radialGradient id="a" cx="-621.07" cy="-356.89" r="2.58" gradientTransform="translate(3870.35 2246.88) scale(6.11)" gradientUnits="userSpaceOnUse"><stop offset="0" stop-color="#1d275a"/><stop offset="0.61" stop-color="#4960da"/><stop offset="1" stop-color="#5a78ff"/></radialGradient><linearGradient id="b" x1="291" y1="301.41" x2="302.55" y2="290.92" gradientTransform="translate(-261 -235.91)" gradientUnits="userSpaceOnUse"><stop offset="0" stop-color="#3b50cc"/><stop offset="1" stop-color="#5a78ff"/></linearGradient><radialGradient id="c" cx="-559.07" cy="-311.57" r="2.58" gradientTransform="translate(2571.97 1470.53) scale(4.49)" gradientUnits="userSpaceOnUse"><stop offset="0" stop-color="#3e54b6"/><stop offset="0.65" stop-color="#4b63df"/><stop offset="1" stop-color="#5a78ff" stop-opacity="0"/></radialGradient></defs><rect class="a" width="320" height="120"/><path class="b" d="M28.61,31.87a2.33,2.33,0,0,0-.9.18L9.21,39.89A2.44,2.44,0,0,0,7.94,43L25.6,86.64a2.34,2.34,0,0,0,3,1.38l.06,0,18.5-7.84A2.42,2.42,0,0,0,48.46,77L30.8,33.36A2.35,2.35,0,0,0,28.61,31.87Zm-.82,59.07a5.11,5.11,0,0,1-4.73-3.22L5.39,44.12a5.32,5.32,0,0,1,0-4,5.13,5.13,0,0,1,2.77-2.83l18.5-7.84a5.09,5.09,0,0,1,6.65,2.76l0,.07L51,75.88a5.28,5.28,0,0,1-2.77,6.83l-18.5,7.84A4.94,4.94,0,0,1,27.79,90.94Z"/><path class="c" d="M28.61,31.87a2.33,2.33,0,0,0-.9.18L9.21,39.89A2.44,2.44,0,0,0,7.94,43L25.6,86.64a2.34,2.34,0,0,0,3,1.38l.06,0,18.5-7.84A2.42,2.42,0,0,0,48.46,77L30.8,33.36A2.35,2.35,0,0,0,28.61,31.87Zm-.82,59.07a5.11,5.11,0,0,1-4.73-3.22L5.39,44.12a5.32,5.32,0,0,1,0-4,5.13,5.13,0,0,1,2.77-2.83l18.5-7.84a5.09,5.09,0,0,1,6.65,2.76l0,.07L51,75.88a5.28,5.28,0,0,1-2.77,6.83l-18.5,7.84A4.94,4.94,0,0,1,27.79,90.94Z"/><path class="d" d="M44.16,61.05a31.09,31.09,0,0,0-12.59,9L24.13,51.72a31.48,31.48,0,0,1,12.58-9C42,40.45,47.33,39.37,51.86,40l7.45,18.36A30.83,30.83,0,0,0,44.16,61.05Z"/><path class="e" d="M44.16,61.05a31.09,31.09,0,0,0-12.59,9L24.13,51.72a31.48,31.48,0,0,1,12.58-9C42,40.45,47.33,39.37,51.86,40l7.45,18.36A30.83,30.83,0,0,0,44.16,61.05Z"/><path class="f" d="M46.67,66.85c-5.74,0-11,1.14-15.06,3.46V51.58a30.9,30.9,0,0,1,15.06-3.46c5.74,0,11.09,1.09,15.06,3.46V70.31A30.93,30.93,0,0,0,46.67,66.85Z"/><path class="f" d="M83.1,75.47H77.81a.71.71,0,0,1-.65-.28.87.87,0,0,1,0-.74l9.42-29.8a1,1,0,0,1,.33-.51.88.88,0,0,1,.55-.23H92.2a.76.76,0,0,1,.51.23,1.3,1.3,0,0,1,.42.51l7.33,18.8a.45.45,0,0,0,.32.33q.24,0,.33-.33l7.29-18.8a1.34,1.34,0,0,1,.37-.51.88.88,0,0,1,.55-.23H114a.76.76,0,0,1,.51.23.91.91,0,0,1,.37.51l9.24,29.8a.76.76,0,0,1-.1.74.64.64,0,0,1-.6.28h-5.61a1,1,0,0,1-.56-.14,1,1,0,0,1-.28-.51l-6-19.35a.28.28,0,0,0-.3-.28h0a.34.34,0,0,0-.33.28l-7,19.21a1.46,1.46,0,0,1-.42.61,1,1,0,0,1-.6.18H99a.93.93,0,0,1-.6-.18,1.25,1.25,0,0,1-.37-.61L90.71,55.47a.34.34,0,0,0-.33-.28c-.12,0-.21.09-.27.28L84,74.82a.91.91,0,0,1-.33.51A1,1,0,0,1,83.1,75.47Zm67.43-11.65A11.77,11.77,0,0,1,147,72.55a12,12,0,0,1-8.86,3.53,12.16,12.16,0,0,1-8.87-3.53,12.5,12.5,0,0,1,0-17.45,12.11,12.11,0,0,1,8.91-3.53A12,12,0,0,1,147,55.1,11.66,11.66,0,0,1,150.53,63.82Zm-18.57,0a6.46,6.46,0,0,0,1.81,4.6,5.76,5.76,0,0,0,4.32,1.9,5.62,5.62,0,0,0,4.31-1.9,6.74,6.74,0,0,0,0-9.19,5.63,5.63,0,0,0-4.31-1.91,5.77,5.77,0,0,0-4.32,1.91A6.42,6.42,0,0,0,132,63.82Zm47.46,0a12.42,12.42,0,0,1-3.3,8.73A10.68,10.68,0,0,1,168,76.08a8.34,8.34,0,0,1-3.16-.61,11.51,11.51,0,0,1-3.15-1.9.6.6,0,0,0-.65-.14c-.16.06-.23.25-.23.56v.6a.88.88,0,0,1-.28.65.79.79,0,0,1-.56.23h-4.36a.85.85,0,0,1-.61-.28.8.8,0,0,1-.27-.6V44.79a.74.74,0,0,1,.27-.6.85.85,0,0,1,.61-.28h4.59a.69.69,0,0,1,.56.28.71.71,0,0,1,.28.6v8.5c0,.3.09.49.28.55a1,1,0,0,0,.79-.23A10.55,10.55,0,0,1,165,52.08a10,10,0,0,1,3.16-.51,10.39,10.39,0,0,1,8,3.57,12.28,12.28,0,0,1,3.26,8.68Zm-18.57,0a6.48,6.48,0,0,0,1.77,4.6,5.74,5.74,0,0,0,4.31,1.85,5.91,5.91,0,0,0,4.37-1.85,6.74,6.74,0,0,0,0-9.19,5.82,5.82,0,0,0-4.37-1.91,5.73,5.73,0,0,0-4.31,1.91,6.52,6.52,0,0,0-1.77,4.59Zm29.48-17.73a3.44,3.44,0,0,1-1.07,2.51,3.35,3.35,0,0,1-2.46,1,3.5,3.5,0,0,1-3.53-3.47v-.06a3.35,3.35,0,0,1,1-2.46,3.42,3.42,0,0,1,2.5-1.07,3.67,3.67,0,0,1,3.53,3.53ZM189,75.47h-4.59a1,1,0,0,1-.61-.23,1,1,0,0,1-.23-.65V53.05a.84.84,0,0,1,.23-.6.85.85,0,0,1,.61-.28H189a.71.71,0,0,1,.6.28.73.73,0,0,1,.28.6V74.59a.81.81,0,0,1-.28.6A.71.71,0,0,1,189,75.47Zm14.58.23c-3.16,0-5.38-.6-6.68-1.81s-1.9-3.34-1.9-6.31V44.79a.8.8,0,0,1,.23-.6.85.85,0,0,1,.61-.28h4.59a.75.75,0,0,1,.61.28.74.74,0,0,1,.27.6V67.72a2.81,2.81,0,0,0,.56,1.86,2.36,2.36,0,0,0,1.72.6,1,1,0,0,1,.88.88v3.81a.81.81,0,0,1-.28.6.78.78,0,0,1-.58.23Zm25.75-6.45a9.91,9.91,0,0,1-4.27,5,13,13,0,0,1-6.87,1.86,11.74,11.74,0,0,1-8.68-3.44,11.92,11.92,0,0,1-3.39-8.73,12,12,0,0,1,3.48-8.81,11.65,11.65,0,0,1,8.68-3.53,11.24,11.24,0,0,1,8.54,3.57A12.2,12.2,0,0,1,230.29,64a2,2,0,0,1-.28,1.16.86.86,0,0,1-.79.37h-16a.49.49,0,0,0-.41.18.45.45,0,0,0-.1.42,4.9,4.9,0,0,0,1.81,3.3,6,6,0,0,0,3.85,1.3,5.78,5.78,0,0,0,2.42-.51,5.56,5.56,0,0,0,2-1.49,2.25,2.25,0,0,1,.7-.56,1.82,1.82,0,0,1,.79-.18h4.27a.74.74,0,0,1,.74.37.94.94,0,0,1,.07.89ZM212.9,61.13a.74.74,0,0,0,0,.51.4.4,0,0,0,.37.14h9.79a.47.47,0,0,0,.33-.09.49.49,0,0,0,.09-.42,5.36,5.36,0,0,0-8.63-3.16,5.42,5.42,0,0,0-1.92,3Zm27.61,14.34h-4.83a1,1,0,0,1-.6-.23,1,1,0,0,1-.23-.65V44.79a.8.8,0,0,1,.23-.6.81.81,0,0,1,.6-.28H250.3a11.43,11.43,0,0,1,8.17,2.83,9.87,9.87,0,0,1,3.07,7.61,9.77,9.77,0,0,1-3.3,7.61A11.84,11.84,0,0,1,250,65h-7.75a.82.82,0,0,0-.65.23,1,1,0,0,0-.19.65v8.77a.81.81,0,0,1-.28.6.73.73,0,0,1-.57.26Zm1.67-15.92H250A4.59,4.59,0,0,0,253.54,58,5.09,5.09,0,0,0,255,54.4a4.79,4.79,0,0,0-1.4-3.53,4.64,4.64,0,0,0-3.6-1.44h-7.8a.72.72,0,0,0-.6.23.84.84,0,0,0-.19.61v8.45a1,1,0,0,0,.19.65.84.84,0,0,0,.61.18ZM282,73a12.74,12.74,0,0,1-3.58,2.41,10.6,10.6,0,0,1-3.9.7,10.8,10.8,0,0,1-8.12-3.53,12.41,12.41,0,0,1-3.29-8.73,12.17,12.17,0,0,1,3.34-8.68,10.89,10.89,0,0,1,8.17-3.57,8.68,8.68,0,0,1,3.11.55A11.69,11.69,0,0,1,280.79,54a.8.8,0,0,0,.6.23c.19,0,.28-.19.28-.47V53a.84.84,0,0,1,.23-.61,1,1,0,0,1,.61-.23h4.36a.71.71,0,0,1,.6.28.73.73,0,0,1,.28.6V68.42a2.37,2.37,0,0,0,.28,1.25,1.25,1.25,0,0,0,.93.46,1,1,0,0,1,.56.28.61.61,0,0,1,.23.47v4a.79.79,0,0,1-.23.56.75.75,0,0,1-.56.23,8.69,8.69,0,0,1-3.67-.65,4.76,4.76,0,0,1-2.23-2,.62.62,0,0,0-.51-.37A.93.93,0,0,0,282,73Zm-12.53-9.15a6.49,6.49,0,0,0,1.76,4.6,5.95,5.95,0,0,0,8.68,0,6.58,6.58,0,0,0,1.76-4.64,6.42,6.42,0,0,0-1.76-4.59,5.69,5.69,0,0,0-4.32-1.91,5.79,5.79,0,0,0-4.36,1.91,6.52,6.52,0,0,0-1.74,4.56Zm23.3,20.7a.85.85,0,0,1-.61-.28.78.78,0,0,1-.28-.6V79.88a.89.89,0,0,1,.24-.6.91.91,0,0,1,.65-.23,7.5,7.5,0,0,0,4.31-1.26,5.07,5.07,0,0,0,2.37-3.2,2.17,2.17,0,0,0,.09-.88,3.46,3.46,0,0,0-.28-1L290.72,53.4a1,1,0,0,1,0-.88.79.79,0,0,1,.7-.37h4.59a.71.71,0,0,1,.51.23A1.58,1.58,0,0,1,297,53l5.34,12.34c.21.5.45.75.69.75s.48-.3.7-.79l5.11-12.4a1.1,1.1,0,0,1,.32-.55.83.83,0,0,1,.56-.19h4.41a.78.78,0,0,1,.69.37.65.65,0,0,1,.1.75l-8.78,20.84c-1.64,3.86-3.45,6.56-5.43,8.07a12.52,12.52,0,0,1-7.92,2.33Z"/></svg>