<svg xmlns="http://www.w3.org/2000/svg" xmlns:xlink="http://www.w3.org/1999/xlink" viewBox="0 0 320 120"><defs><style>.a{fill:none;}.b{fill:#fff;}.c{fill:url(#a);}.d{fill:url(#b);}.e{fill:url(#c);}.f{fill:#5a78ff;}</style><radialGradient id="a" cx="-663.79" cy="515.76" r="2.58" gradientTransform="matrix(6.11, 0, 0, -6.11, 4131.35, 3217.58)" gradientUnits="userSpaceOnUse"><stop offset="0" stop-color="#1d275a"/><stop offset="0.61" stop-color="#4960da"/><stop offset="1" stop-color="#5a78ff"/></radialGradient><linearGradient id="b" x1="29.99" y1="56.11" x2="41.54" y2="66.6" gradientTransform="matrix(1, 0, 0, -1, 0, 121.59)" gradientUnits="userSpaceOnUse"><stop offset="0" stop-color="#3b50cc"/><stop offset="1" stop-color="#5a78ff"/></linearGradient><radialGradient id="c" cx="-617.2" cy="484.47" r="2.58" gradientTransform="matrix(4.49, 0, 0, -4.49, 2832.97, 2246.83)" gradientUnits="userSpaceOnUse"><stop offset="0" stop-color="#3e54b6"/><stop offset="0.65" stop-color="#4b63df"/><stop offset="1" stop-color="#5a78ff" stop-opacity="0"/></radialGradient></defs><rect class="a" width="320" height="120"/><path class="b" d="M28.61,31.87a2.41,2.41,0,0,0-.9.18L9.21,39.89A2.44,2.44,0,0,0,7.94,43L25.6,86.64A2.35,2.35,0,0,0,28.68,88l18.5-7.84A2.42,2.42,0,0,0,48.46,77L30.8,33.36A2.37,2.37,0,0,0,28.61,31.87Zm-.82,59.07a5.11,5.11,0,0,1-4.73-3.22L5.39,44.12a5.32,5.32,0,0,1,0-4,5.13,5.13,0,0,1,2.77-2.83l18.5-7.84a5.09,5.09,0,0,1,6.68,2.83L51,75.88a5.29,5.29,0,0,1-2.77,6.83l-18.5,7.84A5,5,0,0,1,27.79,90.94Z"/><path class="c" d="M28.61,31.87a2.41,2.41,0,0,0-.9.18L9.21,39.89A2.44,2.44,0,0,0,7.94,43L25.6,86.64A2.35,2.35,0,0,0,28.68,88l18.5-7.84A2.42,2.42,0,0,0,48.46,77L30.8,33.36A2.37,2.37,0,0,0,28.61,31.87Zm-.82,59.07a5.11,5.11,0,0,1-4.73-3.22L5.39,44.12a5.32,5.32,0,0,1,0-4,5.13,5.13,0,0,1,2.77-2.83l18.5-7.84a5.09,5.09,0,0,1,6.68,2.83L51,75.88a5.29,5.29,0,0,1-2.77,6.83l-18.5,7.84A5,5,0,0,1,27.79,90.94Z"/><path class="d" d="M44.16,61.05a31.18,31.18,0,0,0-12.59,9L24.13,51.72a31.46,31.46,0,0,1,12.58-9C42,40.45,47.33,39.37,51.86,40l7.45,18.36A30.9,30.9,0,0,0,44.16,61.05Z"/><path class="e" d="M44.16,61.05a31.18,31.18,0,0,0-12.59,9L24.13,51.72a31.46,31.46,0,0,1,12.58-9C42,40.45,47.33,39.37,51.86,40l7.45,18.36A30.9,30.9,0,0,0,44.16,61.05Z"/><path class="f" d="M46.67,66.85c-5.74,0-11,1.14-15.06,3.46V51.58a30.81,30.81,0,0,1,15.06-3.46c5.74,0,11.09,1.09,15.06,3.46V70.31A30.94,30.94,0,0,0,46.67,66.85Z"/><path class="f" d="M83.1,75.47H77.81a.71.71,0,0,1-.65-.28.84.84,0,0,1,0-.74l9.42-29.8a1,1,0,0,1,.33-.51.88.88,0,0,1,.55-.23h4.74a.74.74,0,0,1,.51.23,1.31,1.31,0,0,1,.42.51l7.33,18.8a.45.45,0,0,0,.32.33q.24,0,.33-.33l7.29-18.8a1.3,1.3,0,0,1,.37-.51.88.88,0,0,1,.55-.23H114a.74.74,0,0,1,.51.23.9.9,0,0,1,.37.51l9.24,29.8a.77.77,0,0,1-.1.74.65.65,0,0,1-.6.28h-5.61a1,1,0,0,1-.56-.14,1,1,0,0,1-.28-.51l-6-19.35a.29.29,0,0,0-.32-.28.34.34,0,0,0-.33.28l-7,19.21a1.48,1.48,0,0,1-.42.61,1,1,0,0,1-.6.18H99a.93.93,0,0,1-.6-.18,1.25,1.25,0,0,1-.37-.61L90.71,55.47a.34.34,0,0,0-.33-.28c-.12,0-.21.09-.27.28L84,74.82a.91.91,0,0,1-.33.51A1,1,0,0,1,83.1,75.47Zm67.43-11.65A11.75,11.75,0,0,1,147,72.55a12,12,0,0,1-8.86,3.53,12.15,12.15,0,0,1-8.87-3.53,12.5,12.5,0,0,1,0-17.45,12.14,12.14,0,0,1,8.91-3.53A12,12,0,0,1,147,55.1,11.63,11.63,0,0,1,150.53,63.82Zm-18.57,0a6.42,6.42,0,0,0,1.81,4.6,5.76,5.76,0,0,0,4.32,1.9,5.63,5.63,0,0,0,4.31-1.9,6.74,6.74,0,0,0,0-9.19,5.64,5.64,0,0,0-4.31-1.91,5.77,5.77,0,0,0-4.32,1.91A6.41,6.41,0,0,0,132,63.82Zm47.46,0a12.4,12.4,0,0,1-3.3,8.73A10.67,10.67,0,0,1,168,76.08a8.39,8.39,0,0,1-3.16-.61,11.52,11.52,0,0,1-3.15-1.9.61.61,0,0,0-.65-.14c-.16.06-.23.25-.23.56v.6a.92.92,0,0,1-.28.65.79.79,0,0,1-.56.23h-4.36a.84.84,0,0,1-.61-.28.83.83,0,0,1-.27-.6V44.79a.74.74,0,0,1,.27-.6.84.84,0,0,1,.61-.28h4.59a.69.69,0,0,1,.56.28.72.72,0,0,1,.28.6v8.5c0,.3.09.49.28.55a1,1,0,0,0,.79-.23A10.48,10.48,0,0,1,165,52.08a9.91,9.91,0,0,1,3.16-.51,10.38,10.38,0,0,1,8,3.57A12.32,12.32,0,0,1,179.42,63.82Zm-18.57,0a6.51,6.51,0,0,0,1.77,4.6,5.73,5.73,0,0,0,4.31,1.85,5.9,5.9,0,0,0,4.37-1.85,6.74,6.74,0,0,0,0-9.19,5.81,5.81,0,0,0-4.37-1.91,5.73,5.73,0,0,0-4.31,1.91A6.5,6.5,0,0,0,160.85,63.82Zm29.48-17.73a3.44,3.44,0,0,1-1.07,2.51,3.35,3.35,0,0,1-2.46,1,3.5,3.5,0,0,1-3.53-3.53,3.36,3.36,0,0,1,1-2.46,3.42,3.42,0,0,1,2.5-1.07,3.66,3.66,0,0,1,3.53,3.53ZM189,75.47h-4.59a1,1,0,0,1-.61-.23,1,1,0,0,1-.23-.65V53.05a.83.83,0,0,1,.23-.6.84.84,0,0,1,.61-.28H189a.72.72,0,0,1,.6.28.73.73,0,0,1,.28.6V74.59a.81.81,0,0,1-.28.6A.72.72,0,0,1,189,75.47Zm14.58.23c-3.16,0-5.38-.6-6.68-1.81S195,70.55,195,67.58V44.79a.81.81,0,0,1,.23-.6.84.84,0,0,1,.61-.28h4.59a.75.75,0,0,1,.61.28.74.74,0,0,1,.27.6V67.72a2.81,2.81,0,0,0,.56,1.86,2.34,2.34,0,0,0,1.72.6,1,1,0,0,1,.88.88v3.81a.81.81,0,0,1-.28.6A.78.78,0,0,1,203.61,75.7Zm25.75-6.45a9.89,9.89,0,0,1-4.27,5,13,13,0,0,1-6.87,1.86,11.76,11.76,0,0,1-8.68-3.44,11.91,11.91,0,0,1-3.39-8.73,12,12,0,0,1,3.48-8.81,11.68,11.68,0,0,1,8.68-3.53,11.27,11.27,0,0,1,8.54,3.57A12.2,12.2,0,0,1,230.29,64a2,2,0,0,1-.28,1.16.86.86,0,0,1-.79.37h-16a.48.48,0,0,0-.41.18.45.45,0,0,0-.1.42,4.9,4.9,0,0,0,1.81,3.3,6,6,0,0,0,3.85,1.3,5.74,5.74,0,0,0,2.42-.51,5.49,5.49,0,0,0,2-1.49,2.19,2.19,0,0,1,.7-.56,1.79,1.79,0,0,1,.79-.18h4.27a.74.74,0,0,1,.74.37A.94.94,0,0,1,229.36,69.25Zm-16.43-8.12a.73.73,0,0,0,0,.51.41.41,0,0,0,.37.14h9.79a.47.47,0,0,0,.33-.09.48.48,0,0,0,.09-.42,5.35,5.35,0,0,0-8.63-3.16A5.4,5.4,0,0,0,212.93,61.13Zm27.61,14.34h-4.83a.94.94,0,0,1-.6-.23,1,1,0,0,1-.23-.65V44.79a.78.78,0,0,1,.23-.6.82.82,0,0,1,.6-.28h14.62a11.44,11.44,0,0,1,8.17,2.83,9.88,9.88,0,0,1,3.07,7.61,9.77,9.77,0,0,1-3.3,7.61,11.84,11.84,0,0,1-8.26,3h-7.75a.85.85,0,0,0-.65.23,1,1,0,0,0-.19.65v8.77a.81.81,0,0,1-.28.6A.72.72,0,0,1,240.54,75.47Zm1.67-15.92H250A4.58,4.58,0,0,0,253.54,58,5.11,5.11,0,0,0,255,54.4a4.79,4.79,0,0,0-1.4-3.53A4.65,4.65,0,0,0,250,49.43h-7.8a.73.73,0,0,0-.6.23.83.83,0,0,0-.19.61v8.45a1,1,0,0,0,.19.65A.83.83,0,0,0,242.21,59.55ZM282,73a12.73,12.73,0,0,1-3.58,2.41,10.58,10.58,0,0,1-3.9.7,10.79,10.79,0,0,1-8.12-3.53,12.4,12.4,0,0,1-3.29-8.73,12.14,12.14,0,0,1,3.34-8.68,10.86,10.86,0,0,1,8.17-3.57,8.59,8.59,0,0,1,3.11.55,11.61,11.61,0,0,1,3.06,1.82.78.78,0,0,0,.6.23c.19,0,.28-.19.28-.47V53a.85.85,0,0,1,.23-.61,1,1,0,0,1,.61-.23h4.36a.72.72,0,0,1,.6.28.73.73,0,0,1,.28.6V68.42a2.34,2.34,0,0,0,.28,1.25,1.24,1.24,0,0,0,.93.46,1,1,0,0,1,.56.28.6.6,0,0,1,.23.47v4a.77.77,0,0,1-.23.56.75.75,0,0,1-.56.23,8.84,8.84,0,0,1-3.67-.65,4.79,4.79,0,0,1-2.23-2,.62.62,0,0,0-.51-.37C282.42,72.66,282.23,72.75,282,73Zm-12.53-9.15a6.5,6.5,0,0,0,1.76,4.6,5.8,5.8,0,0,0,4.36,1.9,5.74,5.74,0,0,0,4.32-1.86,6.59,6.59,0,0,0,1.76-4.64,6.42,6.42,0,0,0-1.76-4.59,5.68,5.68,0,0,0-4.32-1.91,5.81,5.81,0,0,0-4.36,1.91A6.5,6.5,0,0,0,269.49,63.82Zm23.3,20.7a.84.84,0,0,1-.61-.28.75.75,0,0,1-.28-.6V79.88a.88.88,0,0,1,.24-.6.94.94,0,0,1,.65-.23,7.49,7.49,0,0,0,4.31-1.26,5.06,5.06,0,0,0,2.37-3.2,2.26,2.26,0,0,0,.09-.88,3.44,3.44,0,0,0-.28-1l-8.54-19.31a1,1,0,0,1,.05-.88.78.78,0,0,1,.7-.37h4.59a.71.71,0,0,1,.51.23A1.56,1.56,0,0,1,297,53l5.34,12.34c.21.5.45.75.69.75s.48-.3.7-.79l5.11-12.4a1.15,1.15,0,0,1,.32-.55.83.83,0,0,1,.56-.19h4.41a.77.77,0,0,1,.69.37.66.66,0,0,1,.1.75l-8.78,20.84c-1.64,3.86-3.45,6.56-5.43,8.07A12.51,12.51,0,0,1,292.79,84.52Z"/></svg>