<svg xmlns="http://www.w3.org/2000/svg" width="128" height="64" fill="none"><rect width="128" height="64" fill="#fff" rx="6"/><path fill="#5A78FF" d="M20.07 50.689a3.162 3.162 0 0 1-2.922-1.95L6.241 22.408a3.158 3.158 0 0 1 1.709-4.126l11.424-4.732a3.157 3.157 0 0 1 4.125 1.71l10.906 26.33a3.158 3.158 0 0 1-1.708 4.124l-11.424 4.733c-.381.159-.79.24-1.204.241Zm.512-35.68c-.191.001-.38.04-.558.113L8.6 19.853a1.457 1.457 0 0 0-.788 1.904L18.718 48.09a1.46 1.46 0 0 0 1.905.789l11.423-4.735a1.457 1.457 0 0 0 .789-1.904L21.928 15.91a1.46 1.46 0 0 0-1.346-.9Z"/><path fill="url(#a)" d="m24.219 16.996-1.57.651 4.318 10.426 1.57-.651-4.318-10.426Z" opacity=".7" style="mix-blend-mode:multiply"/><path fill="url(#b)" d="m32.11 40.49 1.57-.65L28.79 28.04l-1.57.65 4.888 11.802Z" opacity=".7" style="mix-blend-mode:multiply"/><path fill="#5A78FF" d="M30.126 32.668c-3.267 1.355-5.995 3.222-7.781 5.473L17.74 27.02a19.446 19.446 0 0 1 7.78-5.473c3.268-1.355 6.569-2.01 9.373-1.628l4.606 11.121a19.437 19.437 0 0 0-9.373 1.63Z"/><g opacity=".4" style="mix-blend-mode:multiply"><path fill="url(#c)" d="M30.126 32.668c-3.267 1.355-5.995 3.222-7.781 5.473L17.74 27.02a19.446 19.446 0 0 1 7.78-5.473c3.268-1.355 6.569-2.01 9.373-1.628l4.606 11.121a19.437 19.437 0 0 0-9.373 1.63Z" opacity=".9"/><path fill="url(#d)" d="M30.126 32.668c-3.267 1.355-5.995 3.222-7.781 5.473L17.74 27.02a19.446 19.446 0 0 1 7.78-5.473c3.268-1.355 6.569-2.01 9.373-1.628l4.606 11.121a19.437 19.437 0 0 0-9.373 1.63Z" opacity=".7"/></g><path fill="#5A78FF" d="M31.627 36.059c-3.537 0-6.774.683-9.283 2.078V26.892a19.446 19.446 0 0 1 9.282-2.079c3.537 0 6.838.656 9.283 2.081V38.14a19.439 19.439 0 0 0-9.282-2.081Zm18.065.01 2.862-9.044a.298.298 0 0 1 .265-.228h1.436a.352.352 0 0 1 .282.228l2.227 5.706c.043.114.157.125.195 0l2.211-5.706a.352.352 0 0 1 .282-.228h1.436c.128.01.236.102.266.228l2.828 9.044a.217.217 0 0 1-.211.309h-1.707a.25.25 0 0 1-.255-.195l-1.815-5.874c-.027-.114-.157-.114-.195 0l-2.168 5.83a.32.32 0 0 1-.309.239H56.32c-.157 0-.239-.087-.298-.238l-2.211-5.831c-.044-.114-.157-.114-.184 0l-1.86 5.874a.255.255 0 0 1-.265.195h-1.625a.211.211 0 0 1-.185-.309Zm14.832-3.251a3.793 3.793 0 1 1 3.793 3.717 3.669 3.669 0 0 1-3.793-3.717Zm5.636 0a1.864 1.864 0 1 0-1.843 1.989 1.913 1.913 0 0 0 1.832-1.99h.01Zm5.289 2.975c-.141-.114-.266-.07-.266.124v.185c0 .142-.112.26-.254.265h-1.323a.276.276 0 0 1-.265-.265v-9.045a.276.276 0 0 1 .265-.265H75a.266.266 0 0 1 .255.265v2.58c0 .184.124.238.325.097a3.095 3.095 0 0 1 1.848-.618c1.929 0 3.408 1.626 3.408 3.718a3.555 3.555 0 0 1-3.468 3.717 2.883 2.883 0 0 1-1.918-.758Zm3.468-2.959a1.864 1.864 0 1 0-3.717 0 1.886 1.886 0 0 0 1.847 1.956 1.913 1.913 0 0 0 1.87-1.972v.016ZM82 27.453a1.084 1.084 0 1 1 2.168 0 1.084 1.084 0 0 1-2.168 0Zm.098 8.67v-6.557c0-.142.112-.26.255-.265h1.392a.276.276 0 0 1 .288.265v6.536a.277.277 0 0 1-.266.265h-1.414a.266.266 0 0 1-.255-.265v.021Zm3.484-2.146v-6.92c0-.142.113-.26.255-.265h1.393c.144.005.26.121.265.265v6.964c0 .45.195.748.688.748a.266.266 0 0 1 .266.265v1.154a.266.266 0 0 1-.266.255c-1.853 0-2.6-.607-2.6-2.466Zm3.387-1.116a3.663 3.663 0 1 1 7.327.027c0 .255-.07.466-.325.466h-4.845c-.125 0-.168.07-.157.184.12.85.88 1.459 1.734 1.393a1.723 1.723 0 0 0 1.338-.607.542.542 0 0 1 .45-.227h1.295c.228 0 .326.157.239.379a3.712 3.712 0 0 1-7.045-1.626l-.01.011Zm5.143-.65c.098 0 .14-.044.125-.157a1.626 1.626 0 0 0-1.626-1.323 1.67 1.67 0 0 0-1.626 1.285c-.027.097 0 .195.114.195h3.013Zm3.354 3.89v-9.044c0-.142.113-.26.255-.265h4.438c2.027 0 3.409 1.181 3.409 3.17 0 1.989-1.566 3.213-3.506 3.213H99.71a.233.233 0 0 0-.255.266v2.66a.276.276 0 0 1-.266.266h-1.463a.266.266 0 0 1-.26-.265Zm4.596-4.562a1.529 1.529 0 0 0 1.479-1.566 1.446 1.446 0 0 0-1.485-1.49h-2.368c-.168 0-.238.086-.238.254V31.3c0 .168.07.255.238.255l2.374-.016Zm4.188 1.279a3.584 3.584 0 0 1 3.496-3.718 2.84 2.84 0 0 1 1.875.721c.124.114.265.098.265-.07v-.185c0-.14.114-.254.255-.254h1.322c.144.005.26.12.266.265v4.65c0 .352.124.509.368.542.127.002.23.1.239.227v1.225a.239.239 0 0 1-.239.238c-.932 0-1.479-.265-1.788-.802-.087-.14-.184-.168-.325-.027a3.112 3.112 0 0 1-2.271.943 3.572 3.572 0 0 1-3.463-3.755Zm5.636 0a1.86 1.86 0 0 0-2.823-1.728 1.858 1.858 0 0 0-.883 1.728 1.858 1.858 0 1 0 3.706 0Zm3.105 6.031v-1.154a.266.266 0 0 1 .266-.255 1.979 1.979 0 0 0 2.027-1.355.781.781 0 0 0-.055-.541l-2.59-5.864a.254.254 0 0 1 .228-.38h1.392c.141 0 .228.115.282.255l1.626 3.75c.114.298.298.282.423 0l1.549-3.76c.055-.141.125-.228.266-.228h1.338a.244.244 0 0 1 .239.336l-2.666 6.308c-.97 2.297-2 3.154-4.059 3.154a.277.277 0 0 1-.266-.266Z"/><defs><linearGradient id="a" x1="26.696" x2="25.991" y1="25.253" y2="17.027" gradientUnits="userSpaceOnUse"><stop stop-color="#504678"/><stop offset=".302" stop-color="#504678" stop-opacity=".616"/><stop offset=".608" stop-color="#504678" stop-opacity=".283"/><stop offset=".852" stop-color="#504678" stop-opacity=".076"/><stop offset="1" stop-color="#504678" stop-opacity="0"/></linearGradient><linearGradient id="b" x1="29.199" x2="29.641" y1="31.188" y2="40.405" gradientUnits="userSpaceOnUse"><stop stop-color="#504678"/><stop offset=".302" stop-color="#504678" stop-opacity=".616"/><stop offset=".608" stop-color="#504678" stop-opacity=".283"/><stop offset=".852" stop-color="#504678" stop-opacity=".076"/><stop offset="1" stop-color="#504678" stop-opacity="0"/></linearGradient><linearGradient id="c" x1="20.721" x2="29.35" y1="31.971" y2="26.088" gradientUnits="userSpaceOnUse"><stop stop-color="#504678"/><stop offset=".179" stop-color="#504678" stop-opacity=".872"/><stop offset=".526" stop-color="#504678" stop-opacity=".536"/><stop offset="1" stop-color="#504678" stop-opacity="0"/></linearGradient><linearGradient id="d" x1="28.124" x2="27.741" y1="26.221" y2="23.159" gradientUnits="userSpaceOnUse"><stop stop-color="#504678"/><stop offset=".643" stop-color="#504678" stop-opacity=".332"/><stop offset="1" stop-color="#504678" stop-opacity="0"/></linearGradient></defs></svg>