<svg xmlns="http://www.w3.org/2000/svg" width="128" height="64" fill="none"><rect width="128" height="64" fill="#fff" rx="6"/><path fill="#009ADE" d="M93.71 24.625h-6.048a.837.837 0 0 0-.83.707l-2.443 15.511a.497.497 0 0 0 .413.574h3.188a.589.589 0 0 0 .581-.497l.692-4.397a.838.838 0 0 1 .83-.7h1.912c3.984 0 6.278-1.912 6.882-5.735.271-1.67 0-2.986-.765-3.903-.86-1.025-2.39-1.56-4.412-1.56Zm.7 5.662c-.333 2.172-1.989 2.172-3.594 2.172h-.91l.638-4.053a.501.501 0 0 1 .497-.424h.42c1.09 0 2.123 0 2.654.619.318.382.413.925.294 1.686Z"/><path fill="#002F87" d="M50.572 24.625h-6.048a.837.837 0 0 0-.83.707l-2.447 15.511a.5.5 0 0 0 .42.574h2.967a.837.837 0 0 0 .83-.708l.658-4.205a.837.837 0 0 1 .833-.688h1.912c3.984 0 6.285-1.912 6.882-5.735.267-1.671 0-2.986-.765-3.904-.864-1.017-2.39-1.552-4.412-1.552Zm.696 5.662c-.329 2.172-1.988 2.172-3.59 2.172h-.914l.642-4.053a.5.5 0 0 1 .498-.424h.42c1.093 0 2.126 0 2.676.619.295.375.383.925.268 1.686ZM68.648 30.218h-2.894a.501.501 0 0 0-.497.425l-.11.81-.203-.29c-.627-.914-2.023-1.216-3.422-1.216-3.196 0-5.93 2.424-6.465 5.823a5.488 5.488 0 0 0 1.078 4.45c.887 1.04 2.149 1.472 3.651 1.472a5.552 5.552 0 0 0 3.988-1.663l-.13.807a.5.5 0 0 0 .42.573.284.284 0 0 0 .08 0h2.608a.837.837 0 0 0 .83-.707l1.567-9.918a.51.51 0 0 0-.432-.57l-.069.004Zm-4.033 5.64a3.235 3.235 0 0 1-3.269 2.764 2.245 2.245 0 0 1-2.4-2.799 3.238 3.238 0 0 1 3.245-2.783 2.445 2.445 0 0 1 1.912.788 2.506 2.506 0 0 1 .512 2.03Z"/><path fill="#009ADE" d="M111.79 30.218h-2.898a.5.5 0 0 0-.497.425l-.126.81-.203-.29c-.627-.914-2.026-1.216-3.422-1.216-3.2 0-5.933 2.424-6.465 5.823a5.46 5.46 0 0 0 1.078 4.45c.884 1.04 2.145 1.472 3.648 1.472a5.553 5.553 0 0 0 4.01-1.663l-.13.807a.507.507 0 0 0 .23.506.494.494 0 0 0 .183.067h2.68a.842.842 0 0 0 .834-.707l1.564-9.918a.517.517 0 0 0-.094-.373.507.507 0 0 0-.331-.196l-.061.003Zm-4.037 5.64a3.233 3.233 0 0 1-3.269 2.764 2.238 2.238 0 0 1-2.397-2.799 3.237 3.237 0 0 1 3.246-2.783 2.437 2.437 0 0 1 1.93.788 2.496 2.496 0 0 1 .49 2.03Z"/><path fill="#002F87" d="M84.075 30.218h-2.91a.838.838 0 0 0-.695.383L76.452 36.5l-1.702-5.681a.841.841 0 0 0-.802-.6h-2.864a.512.512 0 0 0-.478.668l3.208 9.41-3.017 4.25a.506.506 0 0 0 .413.796h2.91a.837.837 0 0 0 .688-.36l9.68-13.973a.509.509 0 0 0-.13-.704.486.486 0 0 0-.283-.088Z"/><path fill="#009ADE" d="m115.204 25.05-2.485 15.793a.51.51 0 0 0 .236.507.5.5 0 0 0 .185.067.29.29 0 0 0 .08 0h2.497a.835.835 0 0 0 .829-.708l2.447-15.51a.493.493 0 0 0-.23-.507.494.494 0 0 0-.183-.067h-2.879a.5.5 0 0 0-.497.424ZM29.384 25.436c.325-2.076 0-3.487-1.128-4.768-1.235-1.41-3.468-2.011-6.312-2.011h-8.308a1.19 1.19 0 0 0-1.174 1.002l-3.452 21.9a.711.711 0 0 0 .588.817h5.234l-.351 2.24a.623.623 0 0 0 .512.712h4.42a1.04 1.04 0 0 0 1.024-.876l.042-.218.815-5.142.05-.283a1.043 1.043 0 0 1 1.024-.88h.646c4.183 0 7.456-1.697 8.411-6.61.383-2.053.191-3.765-.864-4.97a4.1 4.1 0 0 0-1.181-.913"/><path fill="#002169" d="M29.384 25.436c.325-2.076 0-3.487-1.128-4.768-1.235-1.41-3.468-2.011-6.312-2.011h-8.308a1.19 1.19 0 0 0-1.174 1.002l-3.452 21.9a.711.711 0 0 0 .588.817h5.234l1.289-8.158-.042.256a1.185 1.185 0 0 1 1.17-1.002h2.431c4.783 0 8.526-1.942 9.62-7.559.03-.164.057-.325.084-.485"/><path fill="#002F87" d="M17.501 25.462a1.044 1.044 0 0 1 1.025-.875h6.5c.717-.005 1.434.047 2.144.157a8.517 8.517 0 0 1 1.063.237l.245.076c.31.103.612.23.902.382.325-2.076 0-3.486-1.147-4.767-1.212-1.411-3.445-2.015-6.29-2.015h-8.307a1.19 1.19 0 0 0-1.174 1.002l-3.452 21.9a.711.711 0 0 0 .588.817h5.234l1.289-8.158 1.38-8.756Z"/></svg>