<svg xmlns="http://www.w3.org/2000/svg" viewBox="0 0 323.13 120.41"><defs><style>.a{fill:#009ade;}.b{fill:#002f87;}.c{fill:#002169;}.d{fill:none;}</style></defs><path class="a" d="M239.28,40.91H223.46a2.19,2.19,0,0,0-2.17,1.86l-6.4,40.56a1.32,1.32,0,0,0,1.3,1.53h8.12a1.54,1.54,0,0,0,1.52-1.3l1.81-11.5a2.2,2.2,0,0,1,2.17-1.86h5c10.42,0,16.43-5,18-15,.7-4.37,0-7.8-2-10.21C248.56,42.31,244.57,40.91,239.28,40.91Zm1.82,14.82c-.86,5.68-5.2,5.68-9.39,5.68h-2.39L231,50.81a1.32,1.32,0,0,1,1.31-1.12h1.09c2.86,0,5.55,0,6.94,1.63C241.17,52.29,241.42,53.73,241.1,55.73Z"/><path class="b" d="M126.44,40.91H110.62a2.2,2.2,0,0,0-2.17,1.86l-6.39,40.56a1.32,1.32,0,0,0,1.3,1.53h7.55A2.2,2.2,0,0,0,113.08,83l1.73-10.94A2.2,2.2,0,0,1,117,70.2h5c10.42,0,16.43-5,18-15,.71-4.37,0-7.8-2-10.21C135.72,42.31,131.74,40.91,126.44,40.91Zm1.83,14.82c-.87,5.68-5.2,5.68-9.4,5.68h-2.38l1.67-10.6a1.31,1.31,0,0,1,1.3-1.12h1.1c2.85,0,5.55,0,6.94,1.63C128.33,52.29,128.58,53.73,128.27,55.73Z"/><path class="b" d="M173.73,55.55h-7.58a1.31,1.31,0,0,0-1.3,1.11l-.33,2.12L164,58c-1.64-2.38-5.3-3.18-9-3.18-8.37,0-15.52,6.35-16.91,15.24A14.27,14.27,0,0,0,141,81.71c2.31,2.72,5.61,3.85,9.54,3.85A14.51,14.51,0,0,0,161,81.23l-.34,2.1a1.32,1.32,0,0,0,1.3,1.53h6.82A2.19,2.19,0,0,0,170.93,83L175,57.07A1.31,1.31,0,0,0,173.73,55.55ZM163.17,70.29a8.45,8.45,0,0,1-8.55,7.24,5.87,5.87,0,0,1-6.27-7.37,8.47,8.47,0,0,1,8.49-7.29,6.39,6.39,0,0,1,5,2.06A6.54,6.54,0,0,1,163.17,70.29Z"/><path class="a" d="M286.56,55.55H279a1.32,1.32,0,0,0-1.31,1.11l-.33,2.12-.53-.77c-1.64-2.38-5.3-3.18-8.95-3.18-8.37,0-15.51,6.35-16.91,15.24a14.34,14.34,0,0,0,2.82,11.64c2.32,2.72,5.61,3.85,9.54,3.85a14.51,14.51,0,0,0,10.49-4.33l-.34,2.1a1.33,1.33,0,0,0,1.31,1.53h6.82A2.2,2.2,0,0,0,283.77,83l4.09-25.93A1.31,1.31,0,0,0,286.56,55.55ZM276,70.29a8.44,8.44,0,0,1-8.55,7.24,6.39,6.39,0,0,1-5.08-2,6.46,6.46,0,0,1-1.19-5.32,8.47,8.47,0,0,1,8.49-7.29,6.38,6.38,0,0,1,5.05,2.06A6.51,6.51,0,0,1,276,70.29Z"/><path class="b" d="M214.07,55.55h-7.61a2.2,2.2,0,0,0-1.82,1L194.14,72l-4.45-14.87a2.2,2.2,0,0,0-2.11-1.56H180.1a1.32,1.32,0,0,0-1.25,1.74l8.38,24.61L179.35,93a1.32,1.32,0,0,0,1.07,2.08H188a2.21,2.21,0,0,0,1.81-1l25.32-36.54A1.32,1.32,0,0,0,214.07,55.55Z"/><path class="a" d="M295.49,42,289,83.33a1.32,1.32,0,0,0,1.3,1.53h6.53A2.2,2.2,0,0,0,299,83l6.4-40.56a1.32,1.32,0,0,0-1.3-1.53h-7.31A1.32,1.32,0,0,0,295.49,42Z"/><path class="a" d="M71,43c.85-5.43,0-9.13-2.94-12.47C64.84,26.88,59,25.3,51.53,25.3H29.83a3.09,3.09,0,0,0-3.06,2.62l-9,57.29a1.86,1.86,0,0,0,1.84,2.15H33L32,93.23a1.63,1.63,0,0,0,1.61,1.88H44.94a2.71,2.71,0,0,0,2.68-2.29l.11-.58,2.13-13.48L50,78a2.7,2.7,0,0,1,2.68-2.29h1.69c10.93,0,19.5-4.44,22-17.29,1-5.37.51-9.86-2.26-13A10.84,10.84,0,0,0,71,43h0"/><path class="c" d="M71,43c.85-5.43,0-9.13-2.94-12.47C64.84,26.88,59,25.3,51.53,25.3H29.83a3.09,3.09,0,0,0-3.06,2.62l-9,57.29a1.86,1.86,0,0,0,1.84,2.15H33L36.33,66l-.1.67a3.08,3.08,0,0,1,3.05-2.62h6.37c12.5,0,22.29-5.08,25.15-19.77.08-.44.16-.86.22-1.27"/><path class="b" d="M39.94,43.11a2.7,2.7,0,0,1,2.69-2.29h17a36.19,36.19,0,0,1,5.61.4c.49.08,1,.17,1.44.28s.91.22,1.35.34l.64.2A14.69,14.69,0,0,1,71,43c.85-5.43,0-9.13-2.94-12.47C64.84,26.88,59,25.3,51.53,25.3H29.83a3.09,3.09,0,0,0-3.06,2.62l-9,57.29a1.86,1.86,0,0,0,1.84,2.15H33L36.33,66Z"/><rect class="d" width="323.13" height="120.41"/></svg>