<svg xmlns="http://www.w3.org/2000/svg" viewBox="0 0 320 120"><defs><style>.a{fill:none;}.b{fill:#009ade;}.c{fill:#002f87;}.d{fill:#002169;}</style></defs><rect class="a" width="320" height="120"/><path class="b" d="M237.71,40.71H221.89a2.19,2.19,0,0,0-2.17,1.85l-6.39,40.57a1.31,1.31,0,0,0,1.3,1.52h8.12a1.55,1.55,0,0,0,1.52-1.3l1.81-11.5A2.19,2.19,0,0,1,228.25,70h5c10.42,0,16.43-5,18-15,.71-4.37,0-7.81-2-10.21C247,42.11,243,40.71,237.71,40.71Zm1.83,14.81c-.87,5.68-5.2,5.68-9.4,5.68h-2.38l1.67-10.6a1.31,1.31,0,0,1,1.3-1.11h1.1c2.85,0,5.55,0,6.94,1.62C239.6,52.09,239.85,53.53,239.54,55.52Z"/><path class="c" d="M124.88,40.71H109.06a2.19,2.19,0,0,0-2.17,1.85l-6.4,40.57a1.32,1.32,0,0,0,1.3,1.52h7.56a2.2,2.2,0,0,0,2.17-1.85l1.72-11A2.2,2.2,0,0,1,115.42,70h5c10.42,0,16.44-5,18-15,.7-4.37,0-7.81-2-10.21C134.16,42.11,130.17,40.71,124.88,40.71Zm1.82,14.81c-.86,5.68-5.2,5.68-9.39,5.68h-2.39l1.68-10.6a1.31,1.31,0,0,1,1.3-1.11H119c2.86,0,5.56,0,7,1.62C126.77,52.09,127,53.53,126.7,55.52Z"/><path class="c" d="M172.16,55.34h-7.57a1.31,1.31,0,0,0-1.3,1.11L163,58.57l-.53-.76c-1.64-2.39-5.29-3.18-8.95-3.18-8.36,0-15.51,6.34-16.91,15.23a14.34,14.34,0,0,0,2.82,11.64c2.32,2.72,5.62,3.85,9.55,3.85A14.5,14.5,0,0,0,159.41,81l-.34,2.11a1.32,1.32,0,0,0,1.31,1.52h6.82a2.2,2.2,0,0,0,2.17-1.85l4.1-25.94A1.32,1.32,0,0,0,172.16,55.34ZM161.61,70.09a8.46,8.46,0,0,1-8.55,7.23A5.87,5.87,0,0,1,146.78,70a8.47,8.47,0,0,1,8.49-7.28,6.38,6.38,0,0,1,5,2.06A6.54,6.54,0,0,1,161.61,70.09Z"/><path class="b" d="M285,55.34h-7.58a1.31,1.31,0,0,0-1.3,1.11l-.33,2.12-.53-.76c-1.64-2.39-5.3-3.18-8.95-3.18-8.37,0-15.52,6.34-16.91,15.23a14.3,14.3,0,0,0,2.82,11.64c2.31,2.72,5.61,3.85,9.54,3.85A14.51,14.51,0,0,0,272.25,81l-.34,2.11a1.31,1.31,0,0,0,1.3,1.52H280a2.2,2.2,0,0,0,2.18-1.85l4.09-25.94A1.31,1.31,0,0,0,285,55.34ZM274.44,70.09a8.45,8.45,0,0,1-8.55,7.23A5.86,5.86,0,0,1,259.62,70a8.47,8.47,0,0,1,8.49-7.28,6.39,6.39,0,0,1,5.05,2.06A6.53,6.53,0,0,1,274.44,70.09Z"/><path class="c" d="M212.51,55.34H204.9a2.19,2.19,0,0,0-1.82,1L192.57,71.77l-4.45-14.86a2.2,2.2,0,0,0-2.1-1.57h-7.49a1.33,1.33,0,0,0-1.25,1.75l8.39,24.61-7.89,11.12a1.32,1.32,0,0,0,1.08,2.08h7.61a2.19,2.19,0,0,0,1.8-.94l25.32-36.55A1.32,1.32,0,0,0,212.51,55.34Z"/><path class="b" d="M293.93,41.82l-6.5,41.31a1.32,1.32,0,0,0,1.31,1.52h6.53a2.2,2.2,0,0,0,2.17-1.85l6.4-40.57a1.31,1.31,0,0,0-1.3-1.52h-7.31A1.31,1.31,0,0,0,293.93,41.82Z"/><path class="b" d="M69.46,42.83c.85-5.43,0-9.12-2.95-12.47C63.28,26.67,57.44,25.1,50,25.1H28.27a3.11,3.11,0,0,0-3.07,2.62L16.17,85A1.86,1.86,0,0,0,18,87.16H31.4L30.48,93a1.62,1.62,0,0,0,1.61,1.88H43.38a2.72,2.72,0,0,0,2.68-2.29l.11-.57L48.3,78.55l.13-.74a2.73,2.73,0,0,1,2.68-2.3H52.8c10.94,0,19.5-4.44,22-17.29,1-5.37.5-9.85-2.26-13a10.87,10.87,0,0,0-3.09-2.39h0"/><path class="d" d="M69.46,42.83c.85-5.43,0-9.12-2.95-12.47C63.28,26.67,57.44,25.1,50,25.1H28.27a3.11,3.11,0,0,0-3.07,2.62L16.17,85A1.86,1.86,0,0,0,18,87.16H31.4l3.37-21.34-.11.67a3.1,3.1,0,0,1,3.06-2.62h6.36c12.51,0,22.3-5.08,25.16-19.77.08-.43.15-.85.22-1.27"/><path class="c" d="M38.38,42.9a2.73,2.73,0,0,1,2.68-2.29h17a35.12,35.12,0,0,1,5.61.41c.49.08,1,.17,1.43.27s.92.22,1.35.35l.64.2a15.77,15.77,0,0,1,2.36,1c.85-5.43,0-9.12-2.95-12.47C63.28,26.68,57.44,25.1,50,25.1H28.27a3.11,3.11,0,0,0-3.07,2.62L16.17,85A1.86,1.86,0,0,0,18,87.16H31.4l3.37-21.34Z"/></svg>