<svg xmlns="http://www.w3.org/2000/svg" width="128" height="64" fill="none"><rect width="128" height="64" fill="#fff" rx="6"/><path fill="#008AC9" d="M26.899 30.95a.547.547 0 0 0-.57-.625h-1.967a.692.692 0 0 0-.719.662.335.335 0 0 0 0 .087v3.543a.711.711 0 0 0 .794.748h1.803a.595.595 0 0 0 .468-.213.49.49 0 0 0 .19-.412v-3.79Zm-5.781-.501a3.151 3.151 0 0 1 .602-2.021c.219-.205.472-.37.748-.486.289-.135.603-.206.92-.21H27c1.591 0 2.4.873 2.428 2.62v5.32a2.244 2.244 0 0 1-.718 1.594 2.297 2.297 0 0 1-1.65.719h-3.417v3.839h-2.525V30.449ZM33.986 34.879a.4.4 0 0 0 .202.352c.127.108.29.165.456.16h1.942c.438 0 .666-.172.678-.512v-.726c0-.397-.233-.595-.697-.595h-1.923a.856.856 0 0 0-.524.12.815.815 0 0 0-.134.565v.636Zm3.278-4.004c0-.374-.214-.572-.678-.561h-5.089v-2.582h5.73c1.668.026 2.514.83 2.544 2.425v5.425a2.522 2.522 0 0 1-.633 1.703 2.126 2.126 0 0 1-1.65.7h-3.465c-1.684 0-2.542-.771-2.574-2.313v-2.091c0-1.602.814-2.415 2.443-2.44h3.368v-.266M46.861 39.23a.809.809 0 0 0 .517-.213.543.543 0 0 0 .202-.415v-.617h-3.233a2.585 2.585 0 0 1-1.01-.161c-.301-.12-.573-.303-.798-.535a2.618 2.618 0 0 1-.546-.857 2.74 2.74 0 0 1-.172-1.04v-7.66h2.526v6.836c0 .55.224.824.677.824h1.766a.797.797 0 0 0 .554-.214.546.546 0 0 0 .22-.43v-7.016h2.508v11.3a3.196 3.196 0 0 1-.644 2.013 2.16 2.16 0 0 1-1.725.779h-5.882V39.23h5.04ZM52.07 35.392h4.49c.411 0 .625-.18.64-.498v-.232a.496.496 0 0 0-.06-.22c-.101-.2-.225-.297-.374-.297H54.52a2.47 2.47 0 0 1-1.703-.68 1.944 1.944 0 0 1-.748-1.497v-1.931c.025-1.512.845-2.28 2.462-2.305h5.22v2.593h-4.39c-.52 0-.782.161-.782.475v.255c0 .329.27.494.801.494h2.223a2.068 2.068 0 0 1 1.534.68c.419.426.656.998.662 1.595v1.89a2.51 2.51 0 0 1-.748 1.593 2.107 2.107 0 0 1-.704.54c-.322.105-.66.151-.999.138h-5.28v-2.593ZM64.107 34.879a.4.4 0 0 0 .202.352c.127.108.29.165.457.16h1.942c.441 0 .666-.172.677-.512v-.726c0-.397-.232-.595-.696-.595H64.75a.856.856 0 0 0-.524.12.83.83 0 0 0-.135.553l.015.648Zm3.263-4.004c0-.374-.213-.572-.681-.561h-5.07v-2.582h5.728c1.67.026 2.515.83 2.541 2.425v5.425a2.51 2.51 0 0 1-.647 1.703 2.119 2.119 0 0 1-1.647.7H64.13c-1.683 0-2.538-.771-2.563-2.313v-2.091c0-1.602.815-2.415 2.444-2.44h3.367v-.266M71.942 26.262a2.148 2.148 0 0 1 .779-1.688 2.907 2.907 0 0 1 1.934-.659h1.602v2.508h-.97c-.535 0-.808.265-.819.748v.561h1.789v2.597h-1.778v7.656h-2.525V26.262M83.46 30.838v-.06a.374.374 0 0 0-.165-.33.718.718 0 0 0-.434-.123h-1.759a.767.767 0 0 0-.546.195.553.553 0 0 0-.262.471v1.04l3.166-1.193Zm-3.129 3.667v.164a.71.71 0 0 0 .165.49.374.374 0 0 0 .33.233h5.186v2.593h-5.546a3.866 3.866 0 0 1-1.171-.139 2.246 2.246 0 0 1-1.377-1.332 3.671 3.671 0 0 1-.153-1.194v-5.193c.025-1.572.844-2.37 2.458-2.395h3.405c1.572.025 2.37.852 2.395 2.48v2.055l-5.7 2.245M91.359 37.985a5.232 5.232 0 0 1-1.052-.098 2.244 2.244 0 0 1-.999-.467c-.323-.27-.57-.62-.718-1.014a3.57 3.57 0 0 1-.206-1.254V30.31a3.18 3.18 0 0 1 .12-1.044 2.19 2.19 0 0 1 .53-.88 2.31 2.31 0 0 1 .955-.601 4.534 4.534 0 0 1 1.078-.12h3.872v.59h-3.783a2.66 2.66 0 0 0-1.575.413c-.393.299-.591.815-.591 1.545v4.864c0 .337.052.671.153.992a1.69 1.69 0 0 0 1.355 1.205c.294.06.594.09.894.09H95v.62h-3.64M104.896 31.702h-5.077a1.936 1.936 0 0 0-1.426.565c-.367.41-.558.947-.531 1.497v1.545c-.003.277.03.552.097.82.071.282.236.531.468.707.405.348.92.54 1.455.543h3.072c1.287 0 1.935-.693 1.935-2.036l.007-3.64Zm.603 3.491c.002.346-.025.692-.083 1.033-.09.35-.262.673-.501.943a2.544 2.544 0 0 1-1.972.816h-3.02a2.654 2.654 0 0 1-1.912-.7 2.484 2.484 0 0 1-.748-1.923v-1.56c.026-1.76.902-2.665 2.62-2.702h5.028v-.685a2.371 2.371 0 0 0-.49-1.497 1.548 1.548 0 0 0-.726-.553 3.792 3.792 0 0 0-.943-.109h-5.478v-.591h5.198c.433-.003.866.03 1.294.097.197.04.384.12.55.232.195.124.364.284.498.471a3.23 3.23 0 0 1 .685 2.073v4.655M111.175 28.256c-1.409.027-2.102.796-2.077 2.305v7.424h-.606V30.58c-.027-1.946.899-2.918 2.78-2.915h.67v.591h-.767ZM121.398 28.275h-4.786a3.55 3.55 0 0 0-.932.112 1.612 1.612 0 0 0-.834.527c-.225.215-.39.484-.479.782a2.665 2.665 0 0 0-.116.943v4.726c0 .786.228 1.317.692 1.605.232.139.485.24.748.3.305.078.618.116.932.112h2.092a3.15 3.15 0 0 0 1.912-.542c.494-.341.748-.928.748-1.763l.023-6.802Zm.602 6.843c-.052 1.953-1.086 2.911-3.102 2.874h-2.245a6.056 6.056 0 0 1-1.272-.123 2.296 2.296 0 0 1-1.613-1.703 3.895 3.895 0 0 1-.116-1.122v-4.42c.025-1.995 1.023-2.98 2.994-2.956h4.748v-3.367H122v10.817Z"/><path fill="#E3001B" d="M7.09 27.34c.19-.088.39-.157.595-.207a3.835 3.835 0 0 1 7.51 0c.522.087 1.01.322 1.402.678.015-.32.001-.64-.04-.958a5.145 5.145 0 0 0-10.264.243c-.015.25-.015.5 0 .748.24-.205.508-.375.797-.505"/><path fill="#E3001B" d="M14.442 27.732H8.276a2.246 2.246 0 0 0-.92.21c-.276.119-.528.283-.749.486a3.196 3.196 0 0 0-.602 2.02v4.82c-.04.72.17 1.432.59 2.017.218.208.472.376.75.494.284.13.592.2.905.206h6.192c1.594 0 2.414-.887 2.414-2.62v-5.017c-.023-1.734-.832-2.607-2.429-2.62"/></svg>