<svg xmlns="http://www.w3.org/2000/svg" viewBox="0 0 320 120"><defs><style>.a{fill:none;}.b{fill:#008ac9;}.c{fill:#e3001b;}</style></defs><rect class="a" width="320" height="120"/><path class="b" d="M60.84,57.2c0-1.08-.54-1.63-1.52-1.67H54.06a1.85,1.85,0,0,0-1.92,2V67a1.9,1.9,0,0,0,2.12,2h4.82a1.59,1.59,0,0,0,1.25-.57,1.33,1.33,0,0,0,.51-1.1ZM45.39,55.86A8.45,8.45,0,0,1,47,50.46a6.83,6.83,0,0,1,2-1.3,5.93,5.93,0,0,1,2.46-.56h9.65q6.38,0,6.49,7V69.82a6,6,0,0,1-1.92,4.26A6.13,6.13,0,0,1,61.27,76H52.14V86.26H45.39V55.86"/><path class="b" d="M79.78,67.7a1.08,1.08,0,0,0,.54.94,1.78,1.78,0,0,0,1.22.43h5.19c1.17,0,1.78-.46,1.81-1.37V65.76q0-1.59-1.86-1.59H81.54a2.3,2.3,0,0,0-1.4.32A2.21,2.21,0,0,0,79.78,66ZM88.54,57c0-1-.57-1.53-1.81-1.5H73.13V48.6H88.44c4.46.07,6.72,2.22,6.8,6.48v14.5a6.72,6.72,0,0,1-1.69,4.55A5.69,5.69,0,0,1,89.14,76H79.88Q73.13,76,73,69.82V64.23q0-6.42,6.53-6.52h9V57"/><path class="b" d="M114.19,79.33a2.2,2.2,0,0,0,1.38-.57,1.45,1.45,0,0,0,.54-1.11V76h-8.64a6.93,6.93,0,0,1-2.7-.43,6.18,6.18,0,0,1-2.13-1.43,7,7,0,0,1-1.46-2.29,7.41,7.41,0,0,1-.46-2.78V48.6h6.75V66.87c0,1.47.6,2.2,1.81,2.2H114a2.13,2.13,0,0,0,1.48-.57,1.45,1.45,0,0,0,.59-1.15V48.6h6.7V78.8a8.55,8.55,0,0,1-1.72,5.38,5.77,5.77,0,0,1-4.61,2.08H100.72V79.33h13.47"/><path class="b" d="M128.11,69.07h12c1.1,0,1.67-.48,1.71-1.33v-.62a1.42,1.42,0,0,0-.16-.59c-.27-.53-.6-.79-1-.79h-6a6.62,6.62,0,0,1-4.55-1.82,5.21,5.21,0,0,1-2-4V54.76q.11-6.06,6.58-6.16h13.95v6.93H136.91c-1.39,0-2.09.43-2.09,1.27v.68c0,.88.72,1.32,2.14,1.32h5.94A5.55,5.55,0,0,1,147,60.62a6.17,6.17,0,0,1,1.77,4.26v5.05a6.76,6.76,0,0,1-2,4.26,5.54,5.54,0,0,1-1.88,1.44,7.67,7.67,0,0,1-2.67.37H128.11V69.07"/><path class="b" d="M160.28,67.7a1.08,1.08,0,0,0,.54.94,1.78,1.78,0,0,0,1.22.43h5.19c1.18,0,1.78-.46,1.81-1.37V65.76q0-1.59-1.86-1.59H162a2.3,2.3,0,0,0-1.4.32,2.21,2.21,0,0,0-.36,1.48ZM169,57c0-1-.57-1.53-1.82-1.5H153.63V48.6h15.31c4.46.07,6.72,2.22,6.79,6.48v14.5A6.72,6.72,0,0,1,174,74.13a5.66,5.66,0,0,1-4.4,1.87h-9.26q-6.75,0-6.85-6.18V64.23q0-6.42,6.53-6.52h9V57"/><path class="b" d="M181.22,44.67a5.75,5.75,0,0,1,2.08-4.51,7.78,7.78,0,0,1,5.17-1.76h4.28v6.7h-2.59c-1.43,0-2.16.71-2.19,2V48.6h4.78v6.94H188V76h-6.75V44.67"/><path class="b" d="M212,56.9v-.16a1.06,1.06,0,0,0-.44-.88,1.94,1.94,0,0,0-1.16-.33h-4.7a2.06,2.06,0,0,0-1.46.52,1.46,1.46,0,0,0-.7,1.26v2.78Zm-8.36,9.8v.44a1.89,1.89,0,0,0,.44,1.31,1,1,0,0,0,.88.62h13.86V76H204a10.22,10.22,0,0,1-3.13-.37,6,6,0,0,1-3.68-3.56,10,10,0,0,1-.41-3.19L196.75,55q.1-6.3,6.57-6.4h9.1q6.3.1,6.4,6.63v5.49l-15.23,6"/><path class="b" d="M233.11,76a14.29,14.29,0,0,1-2.81-.26,6.1,6.1,0,0,1-2.67-1.25,6.49,6.49,0,0,1-1.92-2.71,9.45,9.45,0,0,1-.55-3.35V55.49a8.6,8.6,0,0,1,.32-2.79,5.84,5.84,0,0,1,1.42-2.35,6.11,6.11,0,0,1,2.55-1.61,12,12,0,0,1,2.88-.32h10.35V50H232.57a7.15,7.15,0,0,0-4.21,1.1c-1.05.8-1.58,2.18-1.58,4.13V68.22a8.78,8.78,0,0,0,.41,2.65,5.43,5.43,0,0,0,1.44,2.22,5.33,5.33,0,0,0,2.18,1,11.32,11.32,0,0,0,2.39.24h9.64V76h-9.73"/><path class="b" d="M269.29,59.21H255.72a5.18,5.18,0,0,0-3.81,1.51,5.56,5.56,0,0,0-1.42,4v4.13a8.77,8.77,0,0,0,.26,2.19A3.39,3.39,0,0,0,252,72.93a6,6,0,0,0,3.89,1.45h8.21c3.44,0,5.17-1.85,5.17-5.44Zm1.61,9.33a16.08,16.08,0,0,1-.22,2.76,6.08,6.08,0,0,1-1.34,2.52A6.81,6.81,0,0,1,264.07,76H256a7.12,7.12,0,0,1-5.11-1.87,6.63,6.63,0,0,1-2-5.14V64.82c.07-4.7,2.41-7.12,7-7.22h13.44V55.77a6.33,6.33,0,0,0-1.31-4,4.14,4.14,0,0,0-1.94-1.48,10.15,10.15,0,0,0-2.52-.29H248.92V48.42h13.89a21.48,21.48,0,0,1,3.46.26,4.08,4.08,0,0,1,1.47.62,4.75,4.75,0,0,1,1.33,1.26,8.62,8.62,0,0,1,1.83,5.54V68.54"/><path class="b" d="M286.07,50q-5.65.1-5.55,6.16V76H278.9V56.21q-.11-7.8,7.43-7.79h1.79V50h-2.05"/><path class="b" d="M313.39,50.05H300.6a9.6,9.6,0,0,0-2.49.3,4.3,4.3,0,0,0-2.23,1.41,4.8,4.8,0,0,0-1.28,2.09,7.13,7.13,0,0,0-.31,2.52V69c0,2.1.61,3.52,1.85,4.29a7.11,7.11,0,0,0,2,.8,9.66,9.66,0,0,0,2.49.3h5.59a8.38,8.38,0,0,0,5.11-1.45c1.32-.91,2-2.48,2-4.71ZM315,68.34q-.21,7.83-8.29,7.68h-6a16.68,16.68,0,0,1-3.4-.33A6.12,6.12,0,0,1,293,71.14a10.38,10.38,0,0,1-.31-3V56.33q.1-8,8-7.9h12.69v-9H315V68.34"/><path class="c" d="M7.9,47.55A9,9,0,0,1,9.49,47a10.25,10.25,0,0,1,20.07,0,7.43,7.43,0,0,1,3.75,1.81,14.3,14.3,0,0,0-.11-2.56,13.75,13.75,0,0,0-27.43.65,18.37,18.37,0,0,0,0,2A9.2,9.2,0,0,1,7.9,47.55"/><path class="c" d="M27.55,48.6H11.07a5.93,5.93,0,0,0-2.46.56,7,7,0,0,0-2,1.3A8.51,8.51,0,0,0,5,55.86V68.74a8.46,8.46,0,0,0,1.58,5.39,6.66,6.66,0,0,0,2,1.32,6.07,6.07,0,0,0,2.46.55H27.55C31.81,76,34,73.63,34,69V55.59q-.09-6.95-6.49-7"/></svg>