<svg xmlns="http://www.w3.org/2000/svg" viewBox="0 0 320 120"><defs><style>.a{fill:none;}.b{fill:#a6c307;fill-rule:evenodd;}</style></defs><rect class="a" width="320" height="120"/><path class="b" d="M232.06,47a2.3,2.3,0,0,1-2.3-2.31V34.47h-.85c-5.29,0-7.25.87-7.25,5.68V54a2,2,0,0,0,0,.25V69.93a8.35,8.35,0,0,1-1.14,4.64c-1.43,2.22-4.29,3.23-8.85,3.24s-7.41-1-8.85-3.23a8.39,8.39,0,0,1-1.14-4.65V40.15c0-4.81-2-5.68-7.24-5.68h-1.67c-5.28,0-7.24.87-7.24,5.68V69.93a22.21,22.21,0,0,0,3.16,12.12c4,6.34,11.85,9.71,23,9.71h.08c11.1,0,18.91-3.37,23-9.71a22.12,22.12,0,0,0,3.17-12.12V47Z"/><path class="b" d="M256.49,30.54H247.8a1.71,1.71,0,0,1-1.72-1.71h0V20a1.71,1.71,0,0,1,1.72-1.71h8.69A1.72,1.72,0,0,1,258.2,20v8.79a1.72,1.72,0,0,1-1.71,1.72M244.91,18.31H239a1.18,1.18,0,0,1-1.17-1.17v-6A1.17,1.17,0,0,1,239,10h5.9a1.17,1.17,0,0,1,1.17,1.17v6a1.16,1.16,0,0,1-1.16,1.17"/><path class="b" d="M95.52,52.59c0,7.06-1.8,10.9-11.32,10.9H69.54V45.25c0-2.53.94-3.47,3.47-3.47H84.2c7.17,0,11.32,1.77,11.32,10.81M84.19,34.46H71.56c-6.75,0-9.76,3-9.76,9.76V87.59c0,2.61.83,3.45,3.44,3.45h.86c2.61,0,3.44-.84,3.44-3.45V70.72H84.2c13,0,19.07-5.76,19.07-18.13S97.21,34.46,84.2,34.46m46.32,37.08v5.95c0,4.85-1.79,7.65-11,7.65-6.07,0-9-2.19-9-6.71,0-5,3-6.89,10.56-6.89Zm-11-24.65a45.06,45.06,0,0,0-9.34.87c-2.1.46-3,1-3,3.43v.69a3.75,3.75,0,0,0,.43,2,1.85,1.85,0,0,0,1.67.81,5.35,5.35,0,0,0,1.3-.19,45.64,45.64,0,0,1,9.26-.93c7.56,0,10.64,2.1,10.64,7.23v4.58H121c-12.25,0-18,4.13-18,13,0,8.61,5.9,13.35,16.6,13.35,12.71,0,18.38-4.33,18.38-14V60.84c0-9.38-6-14-18.47-14Zm60.38,2a3.2,3.2,0,0,0-2.58-.78h-.77c-2.55,0-3.55.79-4.11,3.24l-7.09,29.45c-.88,3.62-2.13,4.28-4.25,4.28-2.61,0-3.65-.62-4.69-4.29l-8-29.46c-.66-2.46-1.64-3.22-4.19-3.22h-.69a3.15,3.15,0,0,0-2.58.79,3.18,3.18,0,0,0-.08,2.72L149,81.36c1.53,5.68,3.33,10.39,10.09,10.39a11,11,0,0,0,3.4-.5c-2.05,6.44-4.13,9.28-10.28,9.92-1.25.1-2.06.28-2.51.88a2.93,2.93,0,0,0-.2,2.34l.17.76c.37,1.76,1,2.85,3,2.85l.67,0c9.18-.6,14.1-5.54,17-17.06l9.82-39.28a3.28,3.28,0,0,0-.16-2.71m63.84-18.39h-11.7a2.3,2.3,0,0,0-2.31,2.31v1.63h.81c5.28,0,7.25.87,7.25,5.68V47h5.94a2.3,2.3,0,0,0,2.31-2.31V32.84a2.32,2.32,0,0,0-2.31-2.31h0"/></svg>