<svg xmlns="http://www.w3.org/2000/svg" width="128" height="64" fill="none"><rect width="128" height="64" fill="#fff" rx="6"/><path fill="#A6C307" fill-rule="evenodd" d="M93.352 26.112a.937.937 0 0 1-.937-.937v-4.167h-.346c-2.155 0-2.953.355-2.953 2.314v5.641a.403.403 0 0 0 0 .102v6.387a3.418 3.418 0 0 1-.464 1.89c-.583.904-1.748 1.316-3.605 1.32-1.858.004-3.019-.407-3.605-1.316a3.43 3.43 0 0 1-.464-1.894v-12.13c0-1.96-.815-2.314-2.95-2.314h-.68c-2.15 0-2.949.355-2.949 2.314v12.13a9.063 9.063 0 0 0 1.287 4.937c1.63 2.582 4.827 3.955 9.369 3.955h.033c4.521 0 7.702-1.373 9.368-3.955a9.03 9.03 0 0 0 1.291-4.937v-9.34h-2.395ZM103.303 19.407h-3.54a.7.7 0 0 1-.7-.692v-3.6a.7.7 0 0 1 .697-.697h3.543a.706.706 0 0 1 .697.696v3.58a.699.699 0 0 1-.697.701m-4.716-4.97h-2.408a.485.485 0 0 1-.476-.476v-2.444a.48.48 0 0 1 .476-.464h2.403a.477.477 0 0 1 .477.476v2.444a.473.473 0 0 1-.468.477" clip-rule="evenodd"/><path fill="#A6C307" fill-rule="evenodd" d="M37.735 28.39c0 2.875-.733 4.439-4.61 4.439h-5.972v-7.43c0-1.03.383-1.413 1.413-1.413h4.558c2.92 0 4.611.72 4.611 4.403m-4.615-7.385h-5.144c-2.75 0-3.976 1.222-3.976 3.976v17.666c0 1.063.338 1.405 1.401 1.405h.35c1.064 0 1.402-.342 1.402-1.405v-6.872h5.971c5.295 0 7.768-2.346 7.768-7.385s-2.468-7.385-7.768-7.385m18.868 15.104v2.424c0 1.975-.73 3.116-4.48 3.116-2.473 0-3.667-.892-3.667-2.734 0-2.036 1.222-2.806 4.302-2.806h3.845Zm-4.48-10.04a18.329 18.329 0 0 0-3.805.354c-.856.187-1.222.407-1.222 1.397v.28c-.018.283.042.565.175.816a.753.753 0 0 0 .68.33c.18-.004.357-.03.53-.078a18.636 18.636 0 0 1 3.772-.379c3.079 0 4.334.856 4.334 2.945V33.6h-3.862c-4.99 0-7.332 1.682-7.332 5.295 0 3.507 2.403 5.438 6.762 5.438 5.177 0 7.487-1.764 7.487-5.703v-6.88c0-3.82-2.444-5.702-7.524-5.702l.004.02Zm24.594.814a1.304 1.304 0 0 0-1.051-.318h-.314c-1.038 0-1.446.322-1.674 1.32L66.18 39.88c-.358 1.474-.867 1.743-1.73 1.743-1.064 0-1.488-.252-1.911-1.747l-3.259-12c-.269-1.002-.668-1.312-1.707-1.312h-.28a1.279 1.279 0 0 0-1.052.322 1.303 1.303 0 0 0-.032 1.108l3.311 12.114c.624 2.314 1.357 4.232 4.11 4.232.47.004.937-.065 1.385-.204-.835 2.624-1.682 3.78-4.187 4.041-.51.041-.84.114-1.023.359a1.199 1.199 0 0 0-.081.953l.07.31c.15.716.407 1.16 1.221 1.16h.273c3.74-.244 5.744-2.256 6.925-6.949l4-16a1.339 1.339 0 0 0-.065-1.083m26.004-7.491h-4.766a.937.937 0 0 0-.941.933v.651h.33c2.15 0 2.953.355 2.953 2.314v2.778h2.42a.938.938 0 0 0 .94-.933v-4.835a.95.95 0 0 0-.94-.94" clip-rule="evenodd"/></svg>