<svg xmlns="http://www.w3.org/2000/svg" viewBox="0 0 320 120"><defs><style>.a{fill:none;}.b{fill:#fc0;}.c{fill:#fff;}.d{fill:#ed1c24;}.e{fill:#231f20;}</style></defs><rect class="a" width="320" height="120"/><rect class="b" x="10" y="20" width="300" height="80" rx="9"/><path class="c" d="M258.32,84l2.95-14H20.45L17.5,84H258.32"/><path class="d" d="M287.33,51s3.23-14.8,3.27-14.94H270.08c0,.09-4.24,19.65-4.24,19.74h5.26L274.32,41h10s-3.13,14.8-3.22,14.9h15.17l-2,9.13H279.16c0,.09-3,13.92-3,13.92H264.73s-1,5-1.06,5h16.78l3-14h15.08s4-19,4-19.05h-15.2"/><path class="e" d="M250.19,55.34c2.17,0,3.65,1.48,3.65,3.92q0,.6-.09,1.2h-9.37C245.35,57.37,247.43,55.34,250.19,55.34Zm4.66,18.36,1.2-5.49a19.27,19.27,0,0,1-6.55,1.24c-2.95,0-5.53-1-5.67-4.56h15.22a18.05,18.05,0,0,0,.87-5.26c0-5.07-2.95-9.22-9.27-9.22-8.2,0-13.18,6.73-13.18,14.16,0,6.36,4.24,10.1,10.83,10.1a21.42,21.42,0,0,0,6.55-1Zm-25-4.66c-3,0-5-1.29-5-5,0-4.38,2.77-8,7.15-8a13.07,13.07,0,0,1,4.52,1l1.11-5.25a18.06,18.06,0,0,0-6-1.11c-7.24,0-13.42,5.39-13.42,13.7,0,6.82,4.19,10,10.23,10a13.35,13.35,0,0,0,5-.88l1.19-5.39a13.28,13.28,0,0,1-4.7.92ZM198,74l2.53-11.66c1-4.71,3.32-6.32,5.72-6.32,3.09,0,3.46,2.31,2.86,4.93l-2.77,13h6.6l2.9-13.37c1.43-6.69-1.66-10.19-6.5-10.19a10,10,0,0,0-7.47,3.41l.6-2.72h-6.13l-5,22.92Zm-23.71-6.59c0-2.31,2-3.6,5.4-3.6A28.13,28.13,0,0,1,183,64l-.28,1.29a6,6,0,0,1-5.63,4.57c-1.89,0-2.86-.92-2.86-2.49Zm6.37-16.83a27.85,27.85,0,0,0-7.15,1l-1.11,5.31a27.68,27.68,0,0,1,7-1.2c3.45,0,4.7,1.06,4.7,2.86a4.19,4.19,0,0,1-.09,1l-.1.47c-1.65-.19-3.22-.32-4-.32-6.55,0-11.8,2.53-11.8,8.53,0,3.91,3,6.27,7,6.27a8.71,8.71,0,0,0,6.78-3l-.55,2.5h5.86l2.86-13.09a13.13,13.13,0,0,0,.32-3c0-3.92-2.16-7.38-9.77-7.38ZM148.65,74l2.54-11.66c1-4.71,3.32-6.32,5.72-6.32,3.09,0,3.45,2.31,2.86,4.93L157,74h6.59l2.91-13.4c1.43-6.69-1.66-10.19-6.5-10.19a10.08,10.08,0,0,0-7.48,3.41l.6-2.72H147L142.05,74Zm-11.8-29.19a3.36,3.36,0,0,0,3,3.67,2.68,2.68,0,0,0,.4,0,3.89,3.89,0,0,0,4-3.69,3.37,3.37,0,0,0-3-3.68h-.38A3.89,3.89,0,0,0,136.85,44.81Zm-.93,6.32L131,74h6.55l4.93-22.87ZM117.29,74l2.58-12h10l1.2-5.86h-9.92l1.52-7.33h10.47L134.4,43H117.11l-6.55,31Zm-6.5-17.84,1.06-5h-7l1.38-6.36-6.87,1.52L95,65.81c-1.2,5.54,1.84,8.58,7.38,8.58a16.15,16.15,0,0,0,4.47-.69l1.11-5a15.82,15.82,0,0,1-3.69.55c-1.89,0-3.23-.64-2.77-3l2.17-10.14Zm-25,11.11c0,1.85-2.26,2.17-4.15,2.17a23.14,23.14,0,0,1-6.5-1.11L74,73.47a31.69,31.69,0,0,0,7.19.92c5.9,0,10.7-2.22,10.7-7.75,0-7.15-8.58-5.9-8.58-9.08,0-1.43,1.39-1.94,3.55-1.94a25.1,25.1,0,0,1,6,1.11L94,51.52a24.78,24.78,0,0,0-6.46-.88c-6.41,0-10.28,2.86-10.28,7.61,0,7,8.58,5.81,8.58,9ZM61,74.67c7.24,0,12.12-5.26,13.23-12.13s-2.67-12.13-9.91-12.13S52.18,55.67,51.07,62.54,53.75,74.67,61,74.67Zm.6-5.31c-2.63,0-4.71-2.07-3.74-6.82s3.28-6.83,5.9-6.83,4.71,2.12,3.69,6.83S64.23,69.36,61.6,69.36ZM33.78,64.52h2.91C46,64.52,51.12,60,51.12,52.35c0-5.68-4-9.37-10.89-9.37H31.66L25.11,74h6.64Zm1.15-5.67L37.1,48.66h2.77c3,0,4.51,1.24,4.51,4.15,0,3.73-2.35,6-6.68,6H34.93"/></svg>