<svg xmlns="http://www.w3.org/2000/svg" width="128" height="64" fill="none"><rect width="128" height="64" fill="#FC0" rx="6"/><path fill="#fff" d="m104.008 41.755 1.2-5.697H7.201L6 41.755h98.008Z"/><path fill="#ED1C24" d="M115.814 28.325s1.315-6.023 1.331-6.08h-8.351c0 .037-1.726 7.997-1.726 8.034h2.141l1.31-6.024h4.07s-1.274 6.024-1.31 6.064h6.173l-.814 3.716h-6.149c0 .037-1.221 5.665-1.221 5.665h-4.652s-.407 2.035-.431 2.035h6.829l1.221-5.698h6.137S122 28.305 122 28.284h-6.186"/><path fill="#231F20" d="M100.699 30.091c.883 0 1.485.603 1.485 1.596 0 .162-.012.325-.036.488h-3.813c.394-1.257 1.24-2.084 2.364-2.084Zm1.897 7.472.488-2.234a7.848 7.848 0 0 1-2.666.505c-1.2 0-2.25-.407-2.307-1.856h6.194a7.377 7.377 0 0 0 .354-2.14c0-2.064-1.201-3.753-3.773-3.753-3.337 0-5.364 2.739-5.364 5.763 0 2.588 1.726 4.11 4.408 4.11a8.726 8.726 0 0 0 2.666-.407v.012Zm-10.175-1.896c-1.22 0-2.035-.525-2.035-2.035 0-1.782 1.128-3.256 2.91-3.256a5.317 5.317 0 0 1 1.84.407l.451-2.136a7.35 7.35 0 0 0-2.441-.452c-2.947 0-5.462 2.194-5.462 5.575 0 2.776 1.705 4.07 4.163 4.07a5.433 5.433 0 0 0 2.035-.358l.484-2.194c-.61.24-1.257.367-1.912.375l-.033.004ZM79.46 37.685l1.03-4.745c.407-1.917 1.35-2.572 2.328-2.572 1.257 0 1.408.94 1.164 2.006l-1.128 5.291h2.686l1.18-5.441c.582-2.723-.675-4.147-2.645-4.147a4.069 4.069 0 0 0-3.04 1.388l.244-1.107h-2.495l-2.034 9.327h2.71Zm-9.65-2.681c0-.94.815-1.465 2.198-1.465.45-.001.9.025 1.347.077l-.114.525A2.442 2.442 0 0 1 70.95 36c-.77 0-1.165-.375-1.165-1.014l.025.017Zm2.593-6.85a11.33 11.33 0 0 0-2.91.407l-.452 2.161a11.268 11.268 0 0 1 2.85-.488c1.403 0 1.912.431 1.912 1.164.004.136-.008.273-.037.407l-.04.191c-.672-.077-1.31-.13-1.628-.13-2.666 0-4.802 1.03-4.802 3.471 0 1.592 1.22 2.552 2.848 2.552a3.542 3.542 0 0 0 2.76-1.22l-.224 1.017h2.385l1.164-5.328c.09-.4.134-.81.13-1.22 0-1.596-.88-3.004-3.976-3.004l.02.02Zm-13.027 9.531 1.033-4.745c.407-1.917 1.352-2.572 2.328-2.572 1.258 0 1.405.94 1.164 2.006l-1.127 5.311h2.682l1.184-5.453c.582-2.723-.675-4.147-2.645-4.147a4.103 4.103 0 0 0-3.044 1.388l.244-1.107h-2.49l-2.015 9.32h2.686Zm-4.803-11.88a1.368 1.368 0 0 0 1.221 1.494c.055.005.109.005.163 0a1.583 1.583 0 0 0 1.628-1.501 1.371 1.371 0 0 0-1.22-1.498h-.155a1.584 1.584 0 0 0-1.637 1.506Zm-.378 2.573-2.002 9.307h2.665l2.007-9.307h-2.67Zm-7.582 9.307 1.05-4.883h4.07l.488-2.385h-4.037l.619-2.983h4.26l.513-2.365H46.54l-2.666 12.616h2.74Zm-2.645-7.26.431-2.035H41.55l.562-2.588-2.796.619-1.774 7.931c-.489 2.255.748 3.492 3.003 3.492a6.571 6.571 0 0 0 1.82-.28l.451-2.035c-.49.133-.994.208-1.502.223-.769 0-1.314-.26-1.127-1.22l.883-4.127 2.898.02Zm-10.175 4.522c0 .752-.92.883-1.689.883a9.416 9.416 0 0 1-2.645-.452l-.464 2.092c.958.236 1.94.362 2.926.374 2.401 0 4.355-.903 4.355-3.154 0-2.91-3.492-2.4-3.492-3.695 0-.582.566-.79 1.445-.79.83.051 1.65.203 2.442.452l.464-2.12a10.089 10.089 0 0 0-2.63-.358c-2.608 0-4.183 1.164-4.183 3.097 0 2.848 3.492 2.364 3.492 3.662l-.02.009Zm-10.089 3.011c2.947 0 4.933-2.14 5.385-4.936.451-2.796-1.087-4.937-4.033-4.937-2.947 0-4.941 2.14-5.393 4.937-.451 2.796 1.09 4.936 4.041 4.936Zm.245-2.16c-1.07 0-1.917-.843-1.522-2.776.394-1.933 1.335-2.78 2.4-2.78 1.067 0 1.918.863 1.502 2.78-.415 1.916-1.31 2.775-2.38 2.775Zm-11.322-1.97h1.184c3.789 0 5.873-1.84 5.873-4.954 0-2.311-1.628-3.813-4.432-3.813h-3.488L9.097 37.685H11.8l.826-3.858Zm.468-2.308.883-4.147h1.127c1.221 0 1.836.505 1.836 1.689 0 1.518-.957 2.442-2.719 2.442h-1.127"/></svg>