<svg xmlns="http://www.w3.org/2000/svg" viewBox="0 0 323.13 120.41"><defs><style>.a{fill:#fcd205;}.b{fill:#fff;}.c{fill:#ed1c24;}.d{fill:#231f20;}.e{fill:none;}</style></defs><path class="a" d="M11.56,102.6h300V17.81h-300Z"/><path class="b" d="M260.7,83.22l2.93-13.88H24.37L21.44,83.22H260.7"/><path class="c" d="M289.52,50.42s3.21-14.71,3.25-14.85H272.38c0,.09-4.21,19.52-4.21,19.61h5.22c.05,0,3.21-14.66,3.21-14.66h9.9s-3.12,14.71-3.21,14.8h15.07l-2,9.07h-15c0,.09-3,13.84-3,13.84H267.07s-1,4.94-1.05,5h16.67s3-13.88,3-13.88h15s4-18.83,4-18.92H289.52"/><path class="d" d="M252.63,54.77c2.15,0,3.62,1.46,3.62,3.89a11.91,11.91,0,0,1-.09,1.19h-9.31C247.82,56.78,249.88,54.77,252.63,54.77ZM257.25,73l1.2-5.45a19.09,19.09,0,0,1-6.51,1.24c-2.93,0-5.5-1-5.64-4.54h15.12a18,18,0,0,0,.87-5.22c0-5-2.93-9.17-9.21-9.17-8.15,0-13.1,6.7-13.1,14.07,0,6.32,4.22,10,10.77,10a21.12,21.12,0,0,0,6.5-1Zm-24.87-4.63c-3,0-5-1.28-5-5,0-4.35,2.75-8,7.1-8a13,13,0,0,1,4.49,1l1.1-5.23a18.12,18.12,0,0,0-6-1.1A13.13,13.13,0,0,0,220.74,63.7c0,6.78,4.17,10,10.17,10a13.44,13.44,0,0,0,5-.87l1.19-5.36a13.33,13.33,0,0,1-4.67.91Zm-31.66,4.91,2.52-11.59c1-4.68,3.3-6.28,5.68-6.28,3.07,0,3.44,2.29,2.84,4.9l-2.75,13h6.55L218.45,60c1.42-6.64-1.65-10.13-6.46-10.13a10,10,0,0,0-7.42,3.4l.59-2.71h-6.09l-4.91,22.73Zm-23.55-6.55c0-2.29,2-3.58,5.36-3.58a27,27,0,0,1,3.34.23l-.27,1.28A5.91,5.91,0,0,1,180,69.2c-1.88,0-2.84-.92-2.84-2.47ZM183.49,50a27.52,27.52,0,0,0-7.1,1l-1.1,5.27a27.53,27.53,0,0,1,6.92-1.19c3.43,0,4.67,1,4.67,2.84a4.3,4.3,0,0,1-.09,1l-.09.46c-1.65-.18-3.21-.32-3.94-.32-6.51,0-11.73,2.52-11.73,8.48,0,3.89,3,6.23,7,6.23a8.68,8.68,0,0,0,6.74-2.93l-.51,2.38H190l2.84-13a12.79,12.79,0,0,0,.32-2.94c0-3.89-2.15-7.33-9.71-7.33ZM151.74,73.28l2.52-11.59c1-4.68,3.3-6.28,5.68-6.28,3.07,0,3.44,2.29,2.84,4.9l-2.75,13h6.55L169.47,60c1.42-6.64-1.65-10.13-6.46-10.13a10,10,0,0,0-7.42,3.4l.59-2.71h-6.09l-4.9,22.73ZM140,44.28a3.34,3.34,0,0,0,3.39,3.66,3.87,3.87,0,0,0,4-3.66A3.35,3.35,0,0,0,144,40.61a3.87,3.87,0,0,0-4,3.67Zm-.92,6.27-4.9,22.73h6.51l4.9-22.73ZM120.58,73.28l2.57-11.87h9.9l1.19-5.82h-9.85l1.51-7.28h10.4l1.28-5.82H120.4l-6.5,30.79Zm-6.46-17.73,1.06-5h-7l1.37-6.32-6.83,1.51L98.45,65.17c-1.19,5.5,1.84,8.52,7.33,8.52a16.16,16.16,0,0,0,4.45-.69l1.1-5a16.42,16.42,0,0,1-3.67.55c-1.88,0-3.2-.64-2.74-2.93l2.15-10.08Zm-24.83,11c0,1.83-2.24,2.15-4.12,2.15a23.11,23.11,0,0,1-6.46-1.1l-1.1,5.13a31,31,0,0,0,7.15.92c5.86,0,10.63-2.2,10.63-7.7,0-7.1-8.53-5.86-8.53-9,0-1.42,1.38-1.93,3.53-1.93a25.47,25.47,0,0,1,5.91,1.1L97.4,51A24.91,24.91,0,0,0,91,50.09c-6.37,0-10.22,2.85-10.22,7.57,0,6.91,8.52,5.77,8.52,8.93ZM64.64,74c7.2,0,12-5.23,13.15-12s-2.65-12.06-9.85-12.06-12,5.23-13.15,12.06,2.66,12,9.85,12Zm.6-5.27c-2.61,0-4.67-2.07-3.71-6.78s3.25-6.78,5.86-6.78,4.68,2.1,3.67,6.78-3.21,6.78-5.82,6.78ZM37.61,63.88H40.5c9.21,0,14.34-4.53,14.34-12.09,0-5.64-4-9.3-10.82-9.3H35.5L29,73.28h6.6Zm1.15-5.63,2.15-10.13h2.75c3,0,4.49,1.24,4.49,4.13,0,3.71-2.34,6-6.64,6H38.76"/><rect class="e" width="323.13" height="120.41"/></svg>