<svg xmlns="http://www.w3.org/2000/svg" viewBox="0 0 320 120"><defs><style>.a{fill:none;}.b,.c{fill:#d61726;}.b,.d{fill-rule:evenodd;}.d{fill:#c8c8c8;}</style></defs><rect class="a" width="320" height="120"/><polygon class="b" points="80.23 66.19 103.25 66.17 102.41 71.4 83.16 89.78 99.31 89.74 98.37 95.4 74.59 95.41 75.58 89.57 94.03 71.9 79.31 71.9 80.23 66.19"/><path class="b" d="M52.66,57.24c-2.3-2.43-8.95-2.32-8.95-2.32H26.16L19.43,95.4H25.7l2.48-15,12.15,0s4.72.19,8.08-1.59S52.66,73,52.66,73s.37-1.49.67-3.33c.48-2.89,1-6.62,1-6.62A7.18,7.18,0,0,0,52.66,57.24Zm-4.84,7.15c0,.06-.55,3.32-1.29,7.17a3.23,3.23,0,0,1-2.72,2.54,20.57,20.57,0,0,1-4.45.37l-10.15,0L31.44,61l9.2,0s6-.13,6.76.81A3.57,3.57,0,0,1,47.82,64.39Z"/><path class="b" d="M55.89,66.19h5.94l-.23,1.45s2-2.18,7.76-1.77c4.81.34,6.34,2.76,6.54,6a26.15,26.15,0,0,1-.53,5.93H69.25l.54-3.19s.34-1.9-.62-2.61-4-.94-6.09.34a7.39,7.39,0,0,0-2.71,4.08L58.44,87.23,57.13,95.4H51L54.14,77l1.75-10.77Z"/><polygon class="b" points="134.44 54.9 140.47 54.9 133.72 95.41 127.67 95.4 134.44 54.9"/><polygon class="b" points="166.64 66.19 172.42 66.18 174.46 86.74 183.35 66.15 190.49 66.17 192.59 86.82 201.49 66.19 207.49 66.18 194.74 95.39 187.62 95.39 185.57 74.93 176.57 95.39 169.57 95.41 166.64 66.19"/><path class="c" d="M107.06,87.09a1,1,0,0,0,0,.17C107,87.4,107.06,87.07,107.06,87.09Z"/><path class="c" d="M123.3,66.43a26.12,26.12,0,0,0-7.1-.63,22,22,0,0,0-4.39.34s-4.27.61-6.7,3.61S102,79.32,102,79.32s-1.44,7.26-1,9.68,1.17,4.66,3.92,5.71a14.94,14.94,0,0,0,5.06,1,33.5,33.5,0,0,0,8.57-.49,10.49,10.49,0,0,0,5.62-3.46,14.39,14.39,0,0,0,1.48-2.45,12,12,0,0,0,.84-2.36l.38-1.57h-6.26s-.34,4.13-3.71,4.51a33.13,33.13,0,0,1-5.84.21c-.64,0-4.23.12-4-2.86,0,0,0-.1,0-.22a15.78,15.78,0,0,1,.55-4.34l19.65-.06.83-4.85C129,72.27,128.34,68.08,123.3,66.43ZM122,77.08H108.54l.53-2.14a5.35,5.35,0,0,1,1.4-2.38,6.22,6.22,0,0,1,3.25-1,24.92,24.92,0,0,1,6.54.19A2.21,2.21,0,0,1,122,73.08,10.21,10.21,0,0,1,122,77.08Z"/><path class="c" d="M144.11,87.1c0,.06,0,.12,0,.17S144.1,87.14,144.11,87.1Z"/><path class="c" d="M160.36,66.44a26.16,26.16,0,0,0-7.1-.63,22.26,22.26,0,0,0-4.4.33s-4.27.62-6.69,3.62S139,79.33,139,79.33s-1.44,7.26-1,9.67,1.18,4.66,3.92,5.72a14.77,14.77,0,0,0,5.06,1,33.5,33.5,0,0,0,8.57-.49,10.49,10.49,0,0,0,5.62-3.46,14.55,14.55,0,0,0,1.48-2.44,11.43,11.43,0,0,0,.84-2.37l.38-1.57h-6.26s-.34,4.13-3.71,4.51a33.64,33.64,0,0,1-5.84.22c-.64,0-4.22.12-4-2.86,0,0,0-.1,0-.23a15.73,15.73,0,0,1,.55-4.33l19.65-.06.83-4.85C166.09,72.28,165.39,68.08,160.36,66.44ZM159,77.07H145.54l.53-2.14a5.35,5.35,0,0,1,1.4-2.38,6.18,6.18,0,0,1,3.25-.94,24.4,24.4,0,0,1,6.54.18A2.21,2.21,0,0,1,159,73.07,10.21,10.21,0,0,1,159,77.07Z"/><path class="b" d="M214.44,66.19l3.86,21.35,10.94-21.38,6.15.06L219.63,96.75s-2.85,5.53-4.62,6.93-2.85,2-4.29,2.17a9.82,9.82,0,0,1-3.42,0l-1.47-.25.92-5.46a8.9,8.9,0,0,0,3.89-.11c1.45-.57,2.62-3,2.62-3l.73-1.24-5.7-29.56Z"/><path class="d" d="M237.61,69.09H244l.38-2.46s.68-4.44,2.19-5.29a7,7,0,0,1,2.16-.7,29.36,29.36,0,0,1,5.48-.26c2.64.1,3.63.12,6.31.43a2.22,2.22,0,0,1,2,2.89l-.53,3.87a9.31,9.31,0,0,1-.85,2.81,5.54,5.54,0,0,1-2.9,1.88c-2.09.68-9.24,2.5-9.24,2.5l-5.63,1.62a13.37,13.37,0,0,0-5.38,3.14,12.92,12.92,0,0,0-3,5.85c-.26,1.27-1.75,10-1.75,10h30.34l1-6.07-24,0L241,86.9s.28-2.55,1.31-3.38a5.27,5.27,0,0,1,2.4-1.3c1.15-.4,5.06-1.45,5.06-1.45l9.06-2.46s4.94-1.28,6.88-4,2.69-7.86,2.69-7.86.53-5,.13-6.58a7,7,0,0,0-3.69-4.26c-1.8-.8-3.69-1.28-9.15-1.2s-8.16.33-10.93,1.34a8.75,8.75,0,0,0-5.38,5.49c-1.13,2.47-1.78,7.82-1.78,7.82Z"/><path class="d" d="M294.72,80.37,299,54.89h-7.52L268,80.08l-1.06,6.37h20.51l-1.5,9h6.29l1.49-9h5.81l1.05-6.1Zm-6.27,0-13.26,0,16.14-17.19Z"/><path class="d" d="M68.37,58.23H87.68s4.33-3.5,7.4-5.75,8.66-5.79,8.66-5.79l-10.91-5.1S83.62,47.3,79.7,50c-3.81,2.48-11.33,8.24-11.33,8.24Z"/><path class="d" d="M109.88,43.09l-9-6a170.74,170.74,0,0,1,18.89-8.9c10.77-4.3,16.52-6.09,16.52-6.09l1.82,8.55s-10.38,3.46-16.32,6.27a103.09,103.09,0,0,0-12,6.21Z"/><path class="d" d="M144.78,28.73,143.22,20s11.06-2.94,21.19-4.83S188,12.38,188,12.38L183.53,25.9a97.87,97.87,0,0,0-22.91-.1,127.43,127.43,0,0,0-15.84,2.93Z"/><path class="d" d="M190.55,27,198,12a207.91,207.91,0,0,1,30.5,1.86c14.12,2.18,27,5.54,26.75,5.68L219.47,38.29a88.75,88.75,0,0,0-18.75-8.55C194.83,28,190.55,27,190.55,27Z"/><path class="d" d="M225.89,42.38l7.88,6h64.68a12.77,12.77,0,0,0-1.86-5.07,33.19,33.19,0,0,0-5.07-5.86,54.23,54.23,0,0,0-6-4.51,95.51,95.51,0,0,0-14.82-7.83l-44.85,17.3Z"/></svg>