<svg xmlns="http://www.w3.org/2000/svg" viewBox="0 0 320 120"><defs><style>.a{fill:none;}.b,.c{fill:#d61726;}.b,.d{fill-rule:evenodd;}.d{fill:#c8c8c8;}</style></defs><rect class="a" width="320" height="120"/><polygon class="b" points="83.64 65.88 105.67 65.86 104.87 70.87 86.44 88.47 101.9 88.43 101 93.84 78.24 93.85 79.19 88.26 96.85 71.35 82.76 71.35 83.64 65.88"/><path class="b" d="M57.25,57.31C55,55,48.68,55.09,48.68,55.09H31.88L25.44,93.84h6l2.37-14.35H45.44S50,79.67,53.18,78s4.07-5.56,4.07-5.56.35-1.42.64-3.19c.46-2.76,1-6.33,1-6.33A6.88,6.88,0,0,0,57.25,57.31Zm-4.64,6.85c0,.06-.52,3.18-1.23,6.86a3.08,3.08,0,0,1-2.61,2.43,19,19,0,0,1-4.26.36H34.8l2.13-12.9h8.81s5.74-.12,6.47.78A3.38,3.38,0,0,1,52.61,64.16Z"/><path class="b" d="M60.34,65.88H66l-.22,1.39s1.92-2.09,7.43-1.69c4.61.32,6.07,2.64,6.26,5.74A25.18,25.18,0,0,1,79,77H73.13l.51-3.06s.33-1.82-.59-2.5-3.83-.9-5.83.33a7.07,7.07,0,0,0-2.59,3.91L62.78,86l-1.25,7.82H55.66l3-17.61,1.68-10.31Z"/><polygon class="b" points="135.53 55.08 141.31 55.08 134.84 93.85 129.05 93.84 135.53 55.08"/><polygon class="b" points="166.36 65.88 171.89 65.87 173.84 85.56 182.35 65.84 189.19 65.86 191.2 85.63 199.72 65.88 205.46 65.87 193.26 93.83 186.44 93.83 184.48 74.25 175.86 93.83 169.16 93.85 166.36 65.88"/><path class="c" d="M109.32,85.89v.16C109.26,86.19,109.32,85.87,109.32,85.89Z"/><path class="c" d="M124.87,66.11a25.09,25.09,0,0,0-6.8-.6,21.9,21.9,0,0,0-4.2.32s-4.09.59-6.41,3.46-3,9.16-3,9.16-1.38,7-1,9.27,1.12,4.46,3.75,5.46a14.14,14.14,0,0,0,4.85,1,31.75,31.75,0,0,0,8.2-.47,10,10,0,0,0,5.38-3.31A14,14,0,0,0,127.12,88a12.05,12.05,0,0,0,.8-2.25l.37-1.51h-6s-.32,4-3.55,4.32a31.62,31.62,0,0,1-5.59.2c-.61,0-4.05.12-3.83-2.74v-.21a14.91,14.91,0,0,1,.53-4.15l18.81-.06.79-4.64C130.32,71.7,129.69,67.69,124.87,66.11Zm-1.25,10.2H110.74l.51-2A5.14,5.14,0,0,1,112.59,72a6,6,0,0,1,3.11-1,24.31,24.31,0,0,1,6.26.18,2.13,2.13,0,0,1,1.66,1.28A9.5,9.5,0,0,1,123.62,76.31Z"/><path class="c" d="M144.79,85.9v.16A.7.7,0,0,1,144.79,85.9Z"/><path class="c" d="M160.35,66.12a25.09,25.09,0,0,0-6.8-.6,21.21,21.21,0,0,0-4.21.31s-4.09.6-6.41,3.47-3,9.16-3,9.16-1.38,7-1,9.26,1.13,4.46,3.75,5.47a14.14,14.14,0,0,0,4.85,1,31.75,31.75,0,0,0,8.2-.47,10,10,0,0,0,5.38-3.31A13.9,13.9,0,0,0,162.54,88a10.66,10.66,0,0,0,.8-2.26l.37-1.51h-6s-.32,4-3.55,4.32a32.6,32.6,0,0,1-5.59.21c-.61,0-4,.11-3.83-2.74v-.22a14.84,14.84,0,0,1,.53-4.14l18.81-.06.79-4.64C165.83,71.71,165.16,67.69,160.35,66.12ZM159,76.3H146.16l.51-2A5.14,5.14,0,0,1,148,72a6,6,0,0,1,3.11-.9,23.87,23.87,0,0,1,6.26.17A2.11,2.11,0,0,1,159,72.47,9.5,9.5,0,0,1,159,76.3Z"/><path class="b" d="M212.11,65.88l3.7,20.44,10.47-20.47,5.89.06L217.08,95.14s-2.73,5.29-4.42,6.63-2.73,1.92-4.11,2.08a9.45,9.45,0,0,1-3.27,0l-1.41-.24.88-5.23a8.54,8.54,0,0,0,3.73-.1c1.39-.55,2.51-2.88,2.51-2.88l.69-1.18-5.45-28.3Z"/><path class="d" d="M234.29,68.66h6.12l.37-2.36s.65-4.25,2.09-5.06a6.88,6.88,0,0,1,2.07-.67,27.92,27.92,0,0,1,5.25-.25c2.52.1,3.47.12,6,.41a2.13,2.13,0,0,1,2,2.24,1.91,1.91,0,0,1-.1.53l-.51,3.7a8.64,8.64,0,0,1-.81,2.69,5.3,5.3,0,0,1-2.78,1.8c-2,.65-8.84,2.4-8.84,2.4l-5.39,1.55a12.75,12.75,0,0,0-5.15,3,12.35,12.35,0,0,0-2.87,5.6c-.25,1.22-1.68,9.58-1.68,9.58h29.05l.95-5.81h-23l.4-2.3s.27-2.44,1.25-3.24a5,5,0,0,1,2.3-1.24c1.1-.39,4.85-1.39,4.85-1.39l8.67-2.36s4.73-1.22,6.58-3.82,2.58-7.53,2.58-7.53.51-4.79.12-6.3a6.7,6.7,0,0,0-3.53-4.08c-1.72-.76-3.53-1.22-8.76-1.14s-7.81.31-10.46,1.28A8.34,8.34,0,0,0,236,61.14c-1.08,2.37-1.7,7.49-1.7,7.49Z"/><path class="d" d="M289,79.46l4.1-24.39h-7.2L263.39,79.18l-1,6.1H282l-1.44,8.61h6L288,85.28h5.56l1-5.84Zm-6,0H270.27L285.72,63Z"/><path class="d" d="M72.29,58.26H90.77s4.15-3.35,7.08-5.5,8.29-5.54,8.29-5.54L95.7,42.33s-8.82,5.47-12.57,8.05c-3.65,2.38-10.84,7.89-10.84,7.89Z"/><path class="d" d="M112,43.77,103.41,38a160.22,160.22,0,0,1,18.08-8.52c10.31-4.12,15.81-5.83,15.81-5.83l1.75,8.18s-9.94,3.31-15.63,6a99,99,0,0,0-11.48,6Z"/><path class="d" d="M145.43,30l-1.49-8.35s10.58-2.82,20.28-4.63,22.58-2.67,22.58-2.67l-4.27,12.94a93.61,93.61,0,0,0-21.94-.09A122.13,122.13,0,0,0,145.43,30Z"/><path class="d" d="M189.25,28.37,196.38,14a197.85,197.85,0,0,1,29.19,1.78c13.52,2.09,25.85,5.3,25.61,5.44L216.93,39.17A85.28,85.28,0,0,0,199,31C193.34,29.32,189.25,28.37,189.25,28.37Z"/><path class="d" d="M223.08,43.09l7.54,5.74h61.92A12.28,12.28,0,0,0,290.75,44a31.64,31.64,0,0,0-4.85-5.61,52.51,52.51,0,0,0-5.74-4.32A91.53,91.53,0,0,0,266,26.56L223,43.12Z"/></svg>