<svg xmlns="http://www.w3.org/2000/svg" width="128" height="64" fill="none"><rect width="128" height="64" fill="#fff" rx="6"/><path fill="#D61726" fill-rule="evenodd" d="m33.456 34.757 8.812-.008-.32 2.004-7.372 7.04 6.184-.016-.36 2.164-9.104.004.38-2.236 7.064-6.764h-5.636l.352-2.188ZM22.9 31.329c-.9-.924-3.428-.888-3.428-.888h-6.72l-2.576 15.5h2.4l.948-5.74h4.652s1.824.072 3.096-.596c1.272-.668 1.628-2.224 1.628-2.224s.14-.568.256-1.276c.184-1.104.4-2.532.4-2.532a2.753 2.753 0 0 0-.656-2.244Zm-1.856 2.74c0 .024-.208 1.272-.492 2.744a1.231 1.231 0 0 1-1.044.972c-.56.112-1.132.16-1.704.144H13.92l.852-5.16h3.524s2.296-.048 2.588.312c.178.297.235.65.16.988ZM24.136 34.757H26.4l-.088.556s.768-.836 2.972-.676c1.844.128 2.428 1.056 2.504 2.296.024.762-.04 1.524-.188 2.272h-2.348l.204-1.224s.132-.728-.236-1-1.532-.36-2.332.132c-.513.388-.879.94-1.036 1.564l-.74 4.128-.5 3.128h-2.348l1.2-7.044.672-4.124v-.008ZM54.212 30.437h2.312l-2.588 15.508-2.316-.004 2.592-15.504ZM66.544 34.757l2.212-.004.78 7.876 3.404-7.888 2.736.008.804 7.908 3.408-7.9 2.296-.004-4.88 11.184h-2.728l-.784-7.832-3.448 7.832-2.68.008-1.12-11.188Z" clip-rule="evenodd"/><path fill="#D61726" d="M43.728 42.76v.065c-.024.056 0-.072 0-.064Z"/><path fill="#D61726" d="M49.948 34.849a10.037 10.037 0 0 0-2.72-.24 8.765 8.765 0 0 0-1.68.128s-1.636.236-2.564 1.384c-.928 1.148-1.2 3.664-1.2 3.664s-.552 2.8-.4 3.708c.152.908.448 1.784 1.5 2.184a5.657 5.657 0 0 0 1.94.4c1.097.08 2.2.016 3.28-.188a4 4 0 0 0 2.152-1.324c.23-.3.428-.621.592-.96a4.82 4.82 0 0 0 .32-.9l.148-.604h-2.4s-.128 1.6-1.42 1.728c-.742.092-1.49.12-2.236.08-.244 0-1.62.048-1.532-1.096v-.084c-.008-.56.064-1.12.212-1.66l7.524-.024.316-1.856c.348-2.104.096-3.708-1.832-4.34Zm-.5 4.08h-5.152l.204-.8c.094-.35.28-.669.536-.924a2.4 2.4 0 0 1 1.244-.4 9.72 9.72 0 0 1 2.504.072.853.853 0 0 1 .664.512 3.8 3.8 0 0 1 0 1.54ZM57.916 42.765v.064a.285.285 0 0 1 0-.064Z"/><path fill="#D61726" d="M64.14 34.853a10.033 10.033 0 0 0-2.72-.24 8.477 8.477 0 0 0-1.684.124s-1.636.24-2.564 1.388c-.928 1.148-1.2 3.664-1.2 3.664s-.552 2.8-.4 3.704c.152.904.452 1.784 1.5 2.188a5.657 5.657 0 0 0 1.94.4c1.097.08 2.2.016 3.28-.188a4 4 0 0 0 2.152-1.324c.223-.301.414-.624.572-.964.14-.288.248-.592.32-.904l.148-.604h-2.4s-.128 1.6-1.42 1.728c-.742.092-1.49.12-2.236.084-.244 0-1.6.044-1.532-1.096v-.088a5.936 5.936 0 0 1 .212-1.656l7.524-.024.316-1.856c.384-2.1.116-3.708-1.808-4.336Zm-.54 4.072h-5.136l.204-.8c.094-.348.277-.665.532-.92a2.4 2.4 0 0 1 1.244-.36 9.545 9.545 0 0 1 2.504.068.843.843 0 0 1 .652.48 3.8 3.8 0 0 1 0 1.532Z"/><path fill="#D61726" fill-rule="evenodd" d="m84.844 34.757 1.48 8.176 4.188-8.188 2.356.024-6.036 11.692s-1.092 2.116-1.768 2.652c-.676.536-1.092.768-1.644.832a3.78 3.78 0 0 1-1.308 0l-.564-.096.352-2.092a3.417 3.417 0 0 0 1.492-.04c.556-.22 1.004-1.152 1.004-1.152l.276-.472-2.18-11.32 2.352-.016Z" clip-rule="evenodd"/><path fill="#C8C8C8" fill-rule="evenodd" d="M93.716 35.869h2.448l.148-.944s.26-1.7.836-2.024c.26-.133.54-.223.828-.268.695-.1 1.398-.133 2.1-.1 1.008.04 1.388.048 2.4.164a.852.852 0 0 1 .76 1.108l-.204 1.48a3.466 3.466 0 0 1-.324 1.076 2.12 2.12 0 0 1-1.112.72c-.8.26-3.536.96-3.536.96l-2.156.62a5.1 5.1 0 0 0-2.06 1.2 4.94 4.94 0 0 0-1.148 2.24c-.1.488-.672 3.832-.672 3.832h11.62l.38-2.324h-9.2l.16-.92s.108-.976.5-1.296a2 2 0 0 1 .92-.496c.44-.156 1.94-.556 1.94-.556l3.468-.944s1.892-.488 2.632-1.528c.74-1.04 1.032-3.012 1.032-3.012s.204-1.916.048-2.52a2.675 2.675 0 0 0-1.412-1.632c-.688-.304-1.412-.488-3.504-.456-2.092.032-3.124.124-4.184.512a3.336 3.336 0 0 0-2.024 2.1c-.432.948-.68 2.996-.68 2.996l-.004.012ZM115.6 40.189l1.64-9.756h-2.88l-9.004 9.644-.4 2.44h7.844l-.576 3.444h2.4l.576-3.444h2.224l.4-2.336-2.224.008Zm-2.4 0h-5.092l6.18-6.584-1.088 6.584ZM28.916 31.709h7.392s1.66-1.34 2.832-2.2c1.172-.86 3.316-2.216 3.316-2.216l-4.176-1.956s-3.528 2.188-5.028 3.22c-1.46.952-4.336 3.156-4.336 3.156v-.004ZM44.8 25.913l-3.436-2.308a64.095 64.095 0 0 1 7.232-3.408c4.124-1.648 6.324-2.332 6.324-2.332l.7 3.272s-3.976 1.324-6.252 2.4a39.613 39.613 0 0 0-4.592 2.4l.024-.024ZM58.172 20.405l-.596-3.34s4.232-1.128 8.112-1.852c3.88-.724 9.032-1.068 9.032-1.068l-1.708 5.176a37.439 37.439 0 0 0-8.776-.036c-2.043.245-4.068.62-6.064 1.12ZM75.7 19.753l2.852-5.748a79.15 79.15 0 0 1 11.676.712c5.408.836 10.34 2.12 10.244 2.176l-13.7 7.18a34.11 34.11 0 0 0-7.172-3.268c-2.264-.672-3.9-1.052-3.9-1.052ZM89.232 25.64l3.016 2.297h24.768a4.899 4.899 0 0 0-.716-1.932 12.694 12.694 0 0 0-1.94-2.244 20.998 20.998 0 0 0-2.296-1.728 36.648 36.648 0 0 0-5.664-3.004l-17.2 6.624.032-.012Z" clip-rule="evenodd"/></svg>