<svg xmlns="http://www.w3.org/2000/svg" viewBox="0 0 323.13 120.41"><defs><style>.a,.b{fill:#d61726;}.a,.c{fill-rule:evenodd;}.c{fill:#c8c8c8;}.d{fill:none;}</style></defs><polygon class="a" points="81.8 66.4 104.82 66.37 103.97 71.61 84.73 89.98 100.87 89.95 99.94 95.61 76.16 95.61 77.15 89.78 95.6 72.11 80.88 72.11 81.8 66.4"/><path class="a" d="M54.23,57.45c-2.31-2.44-8.95-2.33-8.95-2.33H27.73L21,95.61h6.27l2.47-15,12.15.06s4.73.18,8.09-1.59,4.24-5.82,4.24-5.82.37-1.5.68-3.33c.48-2.89,1-6.62,1-6.62A7.18,7.18,0,0,0,54.23,57.45Zm-4.84,7.14c0,.06-.56,3.33-1.3,7.18a3.24,3.24,0,0,1-2.71,2.54,21.32,21.32,0,0,1-4.45.37l-10.15,0L33,61.2l9.21,0s6-.12,6.76.81A3.63,3.63,0,0,1,49.39,64.59Z"/><path class="a" d="M57.46,66.4h5.93l-.23,1.45s2-2.18,7.77-1.77c4.81.34,6.34,2.75,6.54,6A26.52,26.52,0,0,1,76.93,78H70.81l.54-3.2s.34-1.9-.61-2.6-4-.94-6.09.33a7.4,7.4,0,0,0-2.71,4.09L60,87.43,58.7,95.61H52.56l3.15-18.44L57.46,66.4Z"/><polygon class="a" points="136.01 55.11 142.04 55.1 135.28 95.61 129.24 95.61 136.01 55.11"/><polygon class="a" points="168.2 66.39 173.98 66.39 176.03 86.94 184.92 66.35 192.05 66.37 194.16 87.03 203.05 66.39 209.05 66.38 196.31 95.59 189.19 95.59 187.13 75.14 178.14 95.59 171.14 95.61 168.2 66.39"/><path class="b" d="M108.62,87.29c0,.06,0,.12,0,.18S108.62,87.28,108.62,87.29Z"/><path class="b" d="M124.87,66.64a26.16,26.16,0,0,0-7.1-.63,22.42,22.42,0,0,0-4.4.33S109.1,67,106.68,70s-3.15,9.57-3.15,9.57-1.43,7.26-1,9.67,1.17,4.66,3.91,5.72a14.8,14.8,0,0,0,5.07,1,33.43,33.43,0,0,0,8.56-.49A10.44,10.44,0,0,0,125.68,92a14.22,14.22,0,0,0,1.49-2.44,11.3,11.3,0,0,0,.83-2.37l.39-1.57h-6.26s-.35,4.13-3.72,4.51a32.45,32.45,0,0,1-5.83.22c-.64,0-4.24.12-4-2.86,0,0,0-.11,0-.22a15.78,15.78,0,0,1,.55-4.34l19.65-.06.84-4.85C130.6,72.48,129.9,68.28,124.87,66.64Zm-1.31,10.65-13.46,0,.53-2.14a5.41,5.41,0,0,1,1.4-2.38,6.22,6.22,0,0,1,3.26-.94,24.33,24.33,0,0,1,6.53.18,2.21,2.21,0,0,1,1.77,1.29A10.25,10.25,0,0,1,123.56,77.29Z"/><path class="b" d="M145.67,87.3c0,.06,0,.12,0,.18S145.67,87.35,145.67,87.3Z"/><path class="b" d="M161.92,66.64a26.12,26.12,0,0,0-7.1-.63,22.16,22.16,0,0,0-4.4.34s-4.27.61-6.69,3.61-3.14,9.57-3.14,9.57-1.44,7.26-1,9.68,1.17,4.66,3.91,5.71a15,15,0,0,0,5.07,1,33.43,33.43,0,0,0,8.56-.49A10.49,10.49,0,0,0,162.74,92a14.39,14.39,0,0,0,1.48-2.45,10.86,10.86,0,0,0,.83-2.36l.39-1.57h-6.26s-.35,4.12-3.72,4.51a33,33,0,0,1-5.83.21c-.64,0-4.23.12-4-2.85a1.23,1.23,0,0,0,0-.23,15.78,15.78,0,0,1,.55-4.34l19.65-.06L166.7,78C167.65,72.48,167,68.29,161.92,66.64Zm-1.36,10.64H147.1l.54-2.14a5.31,5.31,0,0,1,1.4-2.39,6.16,6.16,0,0,1,3.25-.94,24.33,24.33,0,0,1,6.53.18,2.26,2.26,0,0,1,1.78,1.29A10.17,10.17,0,0,1,160.56,77.28Z"/><path class="a" d="M216,66.4l3.87,21.35,10.94-21.38,6.15,0L221.2,97s-2.85,5.52-4.62,6.92-2.85,2-4.3,2.18a10.33,10.33,0,0,1-3.42,0l-1.46-.26.91-5.45a8.9,8.9,0,0,0,3.89-.11c1.45-.58,2.62-3,2.62-3l.74-1.23-5.7-29.57Z"/><path class="c" d="M239.17,69.3h6.35l.37-2.46s.68-4.44,2.19-5.3a7.21,7.21,0,0,1,2.16-.69,28.57,28.57,0,0,1,5.48-.26c2.64.09,3.63.12,6.31.42a2.23,2.23,0,0,1,2,2.9l-.52,3.86a9.31,9.31,0,0,1-.85,2.81,5.59,5.59,0,0,1-2.91,1.89c-2.09.68-9.24,2.5-9.24,2.5l-5.62,1.62a13.44,13.44,0,0,0-5.39,3.14,12.75,12.75,0,0,0-3,5.84c-.27,1.27-1.75,10-1.75,10l30.33,0,1-6.07-24,0,.44-2.47s.27-2.54,1.3-3.38a5.4,5.4,0,0,1,2.41-1.29c1.14-.41,5.06-1.45,5.06-1.45l9-2.47s4.94-1.27,6.88-4,2.7-7.86,2.7-7.86.52-5,.12-6.58a7.06,7.06,0,0,0-3.68-4.27c-1.81-.8-3.7-1.27-9.16-1.2S249.1,55,246.34,56A8.75,8.75,0,0,0,241,61.47c-1.13,2.48-1.78,7.83-1.78,7.83Z"/><path class="c" d="M296.28,80.57l4.25-25.47H293L269.55,80.28l-1.07,6.38H289l-1.5,9h6.29l1.49-9h5.81l1.05-6.11Zm-6.27,0-13.26,0,16.14-17.19Z"/><path class="c" d="M69.93,58.43H89.25s4.33-3.5,7.4-5.74,8.66-5.79,8.66-5.79L94.4,41.79S85.18,47.5,81.27,50.2c-3.81,2.48-11.34,8.23-11.34,8.23Z"/><path class="c" d="M111.45,43.29l-9-6a168.93,168.93,0,0,1,18.88-8.9c10.77-4.3,16.52-6.09,16.52-6.09l1.82,8.54s-10.37,3.47-16.32,6.28a103.28,103.28,0,0,0-11.94,6.2Z"/><path class="c" d="M146.34,28.94l-1.55-8.76s11.06-2.94,21.19-4.82,23.57-2.78,23.57-2.78L185.1,26.11A97.57,97.57,0,0,0,162.19,26a128.89,128.89,0,0,0-15.85,2.94Z"/><path class="c" d="M192.12,27.25l7.48-15a207.91,207.91,0,0,1,30.5,1.86c14.12,2.19,27,5.54,26.75,5.69L221,38.49a89.57,89.57,0,0,0-18.76-8.55c-5.89-1.71-10.16-2.69-10.16-2.69Z"/><path class="c" d="M227.46,42.59l7.87,6H300a12.82,12.82,0,0,0-1.85-5.06,32.56,32.56,0,0,0-5.08-5.87,55.2,55.2,0,0,0-5.95-4.51,95.51,95.51,0,0,0-14.82-7.83L227.46,42.59Z"/><rect class="d" width="323.13" height="120.41"/></svg>