<svg xmlns="http://www.w3.org/2000/svg" viewBox="0 0 320 120"><defs><style>.a{fill:none;}.b{fill:#e4003f;}</style></defs><rect class="a" width="320" height="120"/><path class="b" d="M127.1,45.18V77.55H116.8V73a8.74,8.74,0,0,1-1.61,2.12,11.91,11.91,0,0,1-2.3,1.68A14,14,0,0,1,110,77.92a11.29,11.29,0,0,1-3.11.44A15.67,15.67,0,0,1,100.49,77a15.19,15.19,0,0,1-5-3.49,16,16,0,0,1-3.22-5.43,20.7,20.7,0,0,1,0-13.55,16.48,16.48,0,0,1,3.22-5.38,14.77,14.77,0,0,1,5-3.55,15.67,15.67,0,0,1,6.44-1.32,11.69,11.69,0,0,1,3.11.45,12.4,12.4,0,0,1,2.85,1.17,10.42,10.42,0,0,1,3.87,3.87V45.18Zm-18,24.5a7.38,7.38,0,0,0,3.14-.66,7.1,7.1,0,0,0,2.41-1.79,8.07,8.07,0,0,0,1.58-2.64,9.32,9.32,0,0,0,.58-3.18,8.83,8.83,0,0,0-2.16-5.8,7,7,0,0,0-2.41-1.83,7.82,7.82,0,0,0-6.29,0,6.79,6.79,0,0,0-2.42,1.83,8.92,8.92,0,0,0-2.17,5.78,8.87,8.87,0,0,0,.59,3.18,8.3,8.3,0,0,0,1.56,2.64A7.74,7.74,0,0,0,105.92,69,7.35,7.35,0,0,0,109.09,69.68Z"/><path class="b" d="M166.18,63.87a13.76,13.76,0,0,0,.44,2.78,5,5,0,0,0,1.21,2.26,6.05,6.05,0,0,0,2.2,1.54,8.73,8.73,0,0,0,3.35.58,6.65,6.65,0,0,0,4.07-1,5.45,5.45,0,0,0,1.93-2.63h10.11a11.27,11.27,0,0,1-1.58,4.31,12.1,12.1,0,0,1-3.29,3.51,16.17,16.17,0,0,1-4.84,2.38A23.09,23.09,0,0,1,166,77.18a14.51,14.51,0,0,1-8.89-8.92,20.93,20.93,0,0,1,0-13.54,15.4,15.4,0,0,1,3.29-5.42,16.08,16.08,0,0,1,5.37-3.66,18.9,18.9,0,0,1,7.43-1.35,18.7,18.7,0,0,1,6.87,1.2,16,16,0,0,1,5.24,3.23,14.11,14.11,0,0,1,4.53,10.35v2.16a20.39,20.39,0,0,1-.3,2.63Zm6.91-12.7a7.19,7.19,0,0,0-5,1.77,6.37,6.37,0,0,0-1.94,5h13.55a6.56,6.56,0,0,0-1.87-5,6.39,6.39,0,0,0-4.77-1.82Z"/><path class="b" d="M268.48,45.55V77.92H258.21V73.35a8.85,8.85,0,0,1-1.61,2.13,12.27,12.27,0,0,1-2.3,1.69,14.07,14.07,0,0,1-2.86,1.13,11.22,11.22,0,0,1-3.1.44,15.72,15.72,0,0,1-6.45-1.32,15.11,15.11,0,0,1-5-3.55,15.86,15.86,0,0,1-3.23-5.37,20.83,20.83,0,0,1,0-13.55,16.36,16.36,0,0,1,3.23-5.37,14.73,14.73,0,0,1,5-3.55,15.4,15.4,0,0,1,6.45-1.32,11.61,11.61,0,0,1,3.1.44,12.47,12.47,0,0,1,2.86,1.17,10,10,0,0,1,2.3,1.76,10.52,10.52,0,0,1,1.61,2.08V45.48h10.27ZM250.52,70a7.29,7.29,0,0,0,5.57-2.45,7.85,7.85,0,0,0,1.56-2.64,9.59,9.59,0,0,0,.6-3.18,8.89,8.89,0,0,0-.6-3.14,8.69,8.69,0,0,0-1.56-2.64,7.12,7.12,0,0,0-2.42-1.83,7.82,7.82,0,0,0-6.29,0A6.56,6.56,0,0,0,245,55.94a8.75,8.75,0,0,0-1.58,2.64,9.1,9.1,0,0,0-.58,3.14,9.57,9.57,0,0,0,.58,3.18A8.36,8.36,0,0,0,245,67.54a7.48,7.48,0,0,0,2.41,1.79A7.38,7.38,0,0,0,250.52,70Z"/><path class="b" d="M290.17,86h-12L284,74.35l-13-28.8h12.7L290,62.67l8-17.12h12Z"/><path class="b" d="M151,69.91a7.35,7.35,0,0,1-1.75-.21,3.46,3.46,0,0,1-1.43-.78,4.16,4.16,0,0,1-1-1.64,9,9,0,0,1-.33-2.91V52.87h6l3.95-7.69h-9.89V34l-10.24,5.51v5.63h-5.13v7.69h5.13v13.9a15.08,15.08,0,0,0,1.09,6.37,8.09,8.09,0,0,0,2.82,3.44A9.08,9.08,0,0,0,144,78a27.94,27.94,0,0,0,3.87.25c1.5,0,2.91-.07,4-.17s2.09-.22,2.86-.37V69.76A8,8,0,0,1,153,70C152.26,70,151.62,69.91,151,69.91Z"/><path class="b" d="M91.16,45.15a8.44,8.44,0,0,0-2.9-.51,11.26,11.26,0,0,0-9.87,5.81V45.18H68.06V77.55h10.3V64.9c0-4,.84-6.78,2.57-8.41a8.61,8.61,0,0,1,5.63-2.41Z"/><path class="b" d="M41,42.7a22.22,22.22,0,0,0-11.35-3.11A21.75,21.75,0,0,0,10,52.58L20.87,63.22Z"/><path class="b" d="M49.75,52.58h0L21.41,81.47h0A22.87,22.87,0,0,0,30,83.23a21.79,21.79,0,0,0,21.57-22h0A20.55,20.55,0,0,0,49.75,52.58Z"/><path class="b" d="M204.15,49.83a10.11,10.11,0,0,1,1.6-2.08A11.19,11.19,0,0,1,208.1,46a14.31,14.31,0,0,1,2.9-1.17,10.92,10.92,0,0,1,3.11-.44,15.66,15.66,0,0,1,6.43,1.32,15.15,15.15,0,0,1,5,3.55,15.84,15.84,0,0,1,3.16,5.37,20.83,20.83,0,0,1,0,13.55,16.7,16.7,0,0,1-3.2,5.38,14.45,14.45,0,0,1-5,3.55,15.28,15.28,0,0,1-6.43,1.29A11.29,11.29,0,0,1,211,78a13.76,13.76,0,0,1-2.9-1.17,10.17,10.17,0,0,1-2.34-1.72,9,9,0,0,1-1.61-2.12V86H193.87V45.18h10.28ZM212,53.12a7.6,7.6,0,0,0-3.19.66,6.58,6.58,0,0,0-2.44,1.8,7.76,7.76,0,0,0-1.58,2.63,9,9,0,0,0,0,6.36,8.36,8.36,0,0,0,1.58,2.64A7.31,7.31,0,0,0,208.79,69a7.79,7.79,0,0,0,3.19.66,7.51,7.51,0,0,0,3.1-.66,7,7,0,0,0,2.41-1.79A7.8,7.8,0,0,0,219,64.57a9,9,0,0,0,0-6.36,8,8,0,0,0-1.58-2.63,7.16,7.16,0,0,0-5.51-2.46Z"/></svg>