<svg xmlns="http://www.w3.org/2000/svg" width="128" height="64" fill="none"><rect width="128" height="64" fill="#fff" rx="6"/><path fill="#E4003F" d="M51.279 26.27v12.516h-3.983v-1.76c-.164.304-.374.58-.623.82-.269.252-.568.47-.889.65-.355.185-.73.33-1.117.433-.391.112-.796.17-1.203.17a6.06 6.06 0 0 1-2.474-.526 5.876 5.876 0 0 1-1.934-1.35 6.186 6.186 0 0 1-1.245-2.099 8.004 8.004 0 0 1 0-5.24c.278-.766.7-1.472 1.245-2.08a5.712 5.712 0 0 1 1.934-1.372 6.06 6.06 0 0 1 2.49-.51 4.52 4.52 0 0 1 1.202.173c.385.105.755.257 1.102.453a4.03 4.03 0 0 1 1.497 1.496V26.27h3.998Zm-6.96 9.473c.418.005.833-.082 1.214-.255.356-.162.674-.398.932-.693a3.12 3.12 0 0 0 .61-1.02c.146-.394.222-.81.225-1.23a3.414 3.414 0 0 0-.835-2.243 2.706 2.706 0 0 0-.932-.707 3.023 3.023 0 0 0-2.432 0 2.624 2.624 0 0 0-.936.707 3.449 3.449 0 0 0-.84 2.235c0 .42.078.837.229 1.23.136.375.34.72.603 1.02.263.29.58.525.932.693.384.178.803.267 1.226.263h.004ZM66.39 33.496c.02.364.076.724.17 1.075.077.327.238.629.468.874.235.26.526.463.85.596.413.159.853.235 1.296.224a2.571 2.571 0 0 0 1.573-.387c.347-.255.608-.61.747-1.017h3.909a4.357 4.357 0 0 1-.611 1.667 4.678 4.678 0 0 1-1.272 1.357c-.568.41-1.2.72-1.872.92a8.928 8.928 0 0 1-5.328-.162 5.61 5.61 0 0 1-3.437-3.45 8.092 8.092 0 0 1 0-5.235 5.955 5.955 0 0 1 1.272-2.095 6.219 6.219 0 0 1 2.076-1.416 7.308 7.308 0 0 1 2.873-.522 7.233 7.233 0 0 1 2.656.464c.75.282 1.438.706 2.027 1.25a5.455 5.455 0 0 1 1.751 4.001v.836c-.016.34-.055.68-.116 1.017l-9.032.003Zm2.671-4.91a2.78 2.78 0 0 0-1.933.684 2.463 2.463 0 0 0-.75 1.933h5.24a2.536 2.536 0 0 0-.724-1.933 2.47 2.47 0 0 0-1.844-.704l.011.02ZM105.946 26.413v12.516h-3.971v-1.767a3.433 3.433 0 0 1-.623.824c-.27.251-.568.47-.889.653a5.453 5.453 0 0 1-1.106.437c-.39.112-.793.17-1.199.17a6.078 6.078 0 0 1-2.494-.51 5.845 5.845 0 0 1-1.933-1.373 6.131 6.131 0 0 1-1.25-2.076 8.055 8.055 0 0 1 0-5.24 6.326 6.326 0 0 1 1.25-2.076 5.695 5.695 0 0 1 1.933-1.373 5.953 5.953 0 0 1 2.494-.51c.406.002.809.06 1.199.17.386.104.757.256 1.106.452.328.183.627.412.889.68.24.242.449.512.623.805v-1.81h3.971v.028Zm-6.945 9.454a2.823 2.823 0 0 0 2.154-.948c.266-.297.471-.644.603-1.02.146-.394.225-.81.232-1.23a3.431 3.431 0 0 0-.232-1.214 3.36 3.36 0 0 0-.603-1.021 2.76 2.76 0 0 0-.936-.708 3.022 3.022 0 0 0-2.432 0c-.357.16-.672.402-.92.704-.263.302-.47.647-.611 1.02a3.52 3.52 0 0 0-.225 1.215c.005.42.08.836.225 1.23.138.375.346.72.61 1.02.261.292.578.527.933.693.377.172.787.26 1.202.259ZM114.332 42.053h-4.64l2.255-4.505-5.027-11.136h4.911l2.436 6.62 3.093-6.62H122l-7.668 15.641ZM60.52 35.832c-.228 0-.455-.027-.677-.081a1.337 1.337 0 0 1-.553-.302 1.61 1.61 0 0 1-.386-.634 3.48 3.48 0 0 1-.128-1.125v-4.447h2.32l1.528-2.973h-3.825v-4.323l-3.96 2.13v2.177h-1.983v2.974h1.984v5.374c-.04.842.105 1.682.421 2.463.232.537.61.998 1.09 1.33.44.296.939.49 1.462.565.496.067.996.1 1.497.097.58 0 1.125-.027 1.546-.066.422-.039.809-.085 1.106-.143v-3.074a3.1 3.1 0 0 1-.669.093c-.286 0-.533-.035-.773-.035ZM37.382 26.258a3.261 3.261 0 0 0-1.121-.197 4.353 4.353 0 0 0-3.817 2.246V26.27H28.45v12.516h3.982v-4.892c0-1.546.325-2.621.994-3.251a3.33 3.33 0 0 1 2.177-.932l1.779-3.453ZM17.987 25.31a8.592 8.592 0 0 0-4.389-1.202A8.41 8.41 0 0 0 6 29.131l4.203 4.114 7.784-7.934ZM21.37 29.13 10.412 40.303c1.053.439 2.18.67 3.321.68a8.425 8.425 0 0 0 8.34-8.507 7.945 7.945 0 0 0-.703-3.344ZM81.071 28.068c.17-.294.379-.565.619-.805.272-.264.578-.492.909-.676a5.524 5.524 0 0 1 1.121-.453c.39-.114.796-.171 1.203-.17a6.056 6.056 0 0 1 2.486.51c.731.322 1.389.789 1.933 1.373.54.605.956 1.31 1.222 2.077a8.054 8.054 0 0 1 0 5.239 6.456 6.456 0 0 1-1.237 2.08 5.588 5.588 0 0 1-1.934 1.373 5.91 5.91 0 0 1-2.486.499c-.4.003-.8-.05-1.187-.155a5.323 5.323 0 0 1-1.121-.452 3.93 3.93 0 0 1-.905-.666 3.477 3.477 0 0 1-.623-.82v5.031h-3.975V26.27h3.975v1.798Zm3.036 1.272a2.939 2.939 0 0 0-1.234.255 2.544 2.544 0 0 0-.943.696c-.27.295-.477.64-.611 1.017a3.48 3.48 0 0 0 0 2.46c.139.374.346.72.61 1.02.261.293.58.529.936.692.39.171.81.258 1.234.255.413.001.822-.086 1.199-.255.357-.16.675-.397.931-.692.26-.299.459-.646.584-1.02.3-.793.3-1.668 0-2.46a3.093 3.093 0 0 0-.61-1.017 2.77 2.77 0 0 0-2.131-.951h.035Z"/></svg>