<svg xmlns="http://www.w3.org/2000/svg" viewBox="0 0 320 120"><defs><style>.a{fill:none;}.b{fill:#e4003f;}</style></defs><rect class="a" width="320" height="120"/><path class="b" d="M126,44.69V78.14H115.36V73.42a9,9,0,0,1-1.66,2.19,12.46,12.46,0,0,1-2.38,1.74,14.52,14.52,0,0,1-2.95,1.17,11.68,11.68,0,0,1-3.21.45,16.18,16.18,0,0,1-6.65-1.36A15.65,15.65,0,0,1,93.33,74,16.48,16.48,0,0,1,90,68.39a21.47,21.47,0,0,1,0-14,17.05,17.05,0,0,1,3.33-5.56,15.26,15.26,0,0,1,5.18-3.67,16.07,16.07,0,0,1,6.65-1.36,11.64,11.64,0,0,1,3.21.46,12.61,12.61,0,0,1,2.95,1.21,10.8,10.8,0,0,1,4,4V44.69ZM107.39,70a7.53,7.53,0,0,0,3.25-.68,7.31,7.31,0,0,0,2.49-1.85,8.26,8.26,0,0,0,1.63-2.73,9.62,9.62,0,0,0,.6-3.28,9.16,9.16,0,0,0-2.23-6,7.42,7.42,0,0,0-2.49-1.89,7.62,7.62,0,0,0-3.25-.68,7.49,7.49,0,0,0-3.25.68,7,7,0,0,0-2.5,1.89A9.14,9.14,0,0,0,100,58.19a9.29,9.29,0,0,0-.61,3.25,9.5,9.5,0,0,0,.61,3.28,8.67,8.67,0,0,0,1.62,2.73,7.91,7.91,0,0,0,2.5,1.85A7.49,7.49,0,0,0,107.39,70Z"/><path class="b" d="M166.39,64a13.77,13.77,0,0,0,.45,2.87,5.16,5.16,0,0,0,1.25,2.34,6.26,6.26,0,0,0,2.27,1.59,9.15,9.15,0,0,0,3.47.6,6.86,6.86,0,0,0,4.2-1.09,5.65,5.65,0,0,0,2-2.72h10.44a11.64,11.64,0,0,1-1.63,4.46,12.58,12.58,0,0,1-3.4,3.63,16.48,16.48,0,0,1-5,2.45,23.81,23.81,0,0,1-14.25-.38A15,15,0,0,1,157,68.54a21.73,21.73,0,0,1,0-14,16.08,16.08,0,0,1,3.4-5.6,16.8,16.8,0,0,1,5.55-3.78,19.46,19.46,0,0,1,7.68-1.39,19.19,19.19,0,0,1,7.1,1.24,16.53,16.53,0,0,1,5.41,3.33,14.78,14.78,0,0,1,3.47,4.87,14.53,14.53,0,0,1,1.21,5.83c0,.68,0,1.43,0,2.23s-.16,1.7-.31,2.72Zm7.14-13.12a7.43,7.43,0,0,0-5.14,1.82,6.56,6.56,0,0,0-2,5.21h14a6.8,6.8,0,0,0-1.93-5.14A6.6,6.6,0,0,0,173.53,50.89Z"/><path class="b" d="M272.1,45.07V78.52H261.48V73.8A9,9,0,0,1,259.82,76a12.91,12.91,0,0,1-2.38,1.74,14.52,14.52,0,0,1-2.95,1.17,11.68,11.68,0,0,1-3.21.45A16.26,16.26,0,0,1,244.62,78a15.47,15.47,0,0,1-5.17-3.67,16.28,16.28,0,0,1-3.33-5.55,21.5,21.5,0,0,1,0-14,16.94,16.94,0,0,1,3.33-5.55,15.31,15.31,0,0,1,5.17-3.67,16,16,0,0,1,6.66-1.36,12.12,12.12,0,0,1,3.21.45,13.53,13.53,0,0,1,2.95,1.21,10.57,10.57,0,0,1,2.38,1.82,10.36,10.36,0,0,1,1.66,2.15V45l10.62,0ZM253.54,70.32a7.49,7.49,0,0,0,3.25-.68,7.25,7.25,0,0,0,2.5-1.85,8.08,8.08,0,0,0,1.62-2.73,9.63,9.63,0,0,0,.61-3.28,9.12,9.12,0,0,0-.61-3.25,8.94,8.94,0,0,0-1.62-2.73,7.36,7.36,0,0,0-2.5-1.89,7.62,7.62,0,0,0-3.25-.68,7.53,7.53,0,0,0-3.25.68,6.93,6.93,0,0,0-2.49,1.89,9.17,9.17,0,0,0-1.63,2.73,9.51,9.51,0,0,0-.6,3.25,9.73,9.73,0,0,0,.6,3.28,8.69,8.69,0,0,0,1.63,2.73,7.87,7.87,0,0,0,2.49,1.85A7.53,7.53,0,0,0,253.54,70.32Z"/><path class="b" d="M294.51,86.83H282.08l6-12L274.63,45.07h13.12l6.58,17.69,8.24-17.69H315Z"/><path class="b" d="M150.7,70.24a7.07,7.07,0,0,1-1.81-.22,3.61,3.61,0,0,1-1.48-.8,4.43,4.43,0,0,1-1-1.7,9.37,9.37,0,0,1-.34-3V52.63h6.2l4.08-7.94H146.13V33.17l-10.58,5.7v5.82h-5.3v7.94h5.3V67a15.63,15.63,0,0,0,1.13,6.58,8.39,8.39,0,0,0,2.91,3.55,9.32,9.32,0,0,0,3.86,1.44,29.21,29.21,0,0,0,4,.26c1.55,0,3-.07,4.12-.18s2.16-.23,2.95-.38V70.09a8.52,8.52,0,0,1-1.81.19C152,70.28,151.34,70.24,150.7,70.24Z"/><path class="b" d="M88.87,44.65a8.9,8.9,0,0,0-3-.52,11.63,11.63,0,0,0-10.2,6V44.69H65V78.14H75.64V65.06c0-4.08.87-7,2.65-8.69a8.93,8.93,0,0,1,5.82-2.49Z"/><path class="b" d="M37.05,42.12a22.91,22.91,0,0,0-11.72-3.21A22.48,22.48,0,0,0,5,52.33l11.23,11Z"/><path class="b" d="M46.08,52.33h0L16.79,82.19h0A23.53,23.53,0,0,0,25.71,84,22.52,22.52,0,0,0,48,61.25,21.29,21.29,0,0,0,46.08,52.33Z"/><path class="b" d="M205.62,49.49a10.71,10.71,0,0,1,1.66-2.15,11.88,11.88,0,0,1,2.42-1.82,15.39,15.39,0,0,1,3-1.21,11.47,11.47,0,0,1,3.21-.45,16.18,16.18,0,0,1,6.65,1.36,15.82,15.82,0,0,1,5.18,3.67A16.44,16.44,0,0,1,231,54.44a21.5,21.5,0,0,1,0,14A17.11,17.11,0,0,1,227.69,74a15,15,0,0,1-5.18,3.67A15.91,15.91,0,0,1,215.86,79a11.47,11.47,0,0,1-3.21-.45,14.2,14.2,0,0,1-3-1.21,11,11,0,0,1-2.42-1.78,9.25,9.25,0,0,1-1.66-2.19V86.83H195V44.69h10.62Zm8.09,3.4a7.81,7.81,0,0,0-3.29.68,7,7,0,0,0-2.53,1.86,8.12,8.12,0,0,0-1.63,2.72,9.68,9.68,0,0,0-.6,3.29,9.49,9.49,0,0,0,.6,3.28,8.69,8.69,0,0,0,1.63,2.73,7.61,7.61,0,0,0,2.53,1.85,7.94,7.94,0,0,0,3.29.68,7.7,7.7,0,0,0,3.21-.68,7.31,7.31,0,0,0,2.49-1.85A8.1,8.1,0,0,0,221,64.72a9.62,9.62,0,0,0,.6-3.28,9.5,9.5,0,0,0-.6-3.29,8.36,8.36,0,0,0-1.63-2.72,7.44,7.44,0,0,0-5.7-2.54Z"/></svg>