<svg xmlns="http://www.w3.org/2000/svg" xmlns:xlink="http://www.w3.org/1999/xlink" viewBox="0 0 320 120"><defs><style>.a{fill:#434c54;}.b{fill:url(#a);}.c{fill:none;}</style><linearGradient id="a" x1="77.88" y1="59.42" x2="120.61" y2="16.69" gradientTransform="matrix(1, 0, 0, -1, -28.35, 96.7)" gradientUnits="userSpaceOnUse"><stop offset="0" stop-color="#00aae4"/><stop offset="1" stop-color="#006097"/></linearGradient></defs><path class="a" d="M125.72,51.09a13.57,13.57,0,0,0-3.49-.37c-4.24,0-8.77,3.43-8.77,7.66V78.57h-9.65v-36h9.28v3.64c2.16-2.68,6.09-4.38,10.47-4.38a18.84,18.84,0,0,1,3.27.29Z"/><path class="a" d="M136.63,23.61a6.17,6.17,0,1,1-6.31,6.17A6.19,6.19,0,0,1,136.63,23.61Zm4.83,55h-9.65v-36h9.65v36Z"/><path class="a" d="M170,41.8a16.52,16.52,0,0,0-10.55,3.65v-2.9h-9.28V96.39h9.65V76a15.18,15.18,0,0,0,9.66,3.27,18.26,18.26,0,0,0,13.66-6.09,19.24,19.24,0,0,0,4.53-12.63C187.65,50,179.78,41.8,170,41.8Zm-1.17,28.75c-6,0-9.94-4.14-9.94-9.92s3.94-9.92,9.94-9.92c5.11,0,9.27,4.44,9.27,9.92s-4.16,9.92-9.27,9.92Z"/><path class="a" d="M246.25,78.57h-9.66V25.84h9.66V78.57Z"/><path class="a" d="M285.61,72.85c-3.49,4.16-9.21,6.46-14.78,6.46C260.06,79.31,252,71.88,252,60.6c0-10,6.83-18.79,17.52-18.79,9.95,0,17,8.39,17,18.41a15.86,15.86,0,0,1-.22,2.75h-25a9.46,9.46,0,0,0,9.73,8.54,12.73,12.73,0,0,0,9.06-4.16Zm-9-16.93a7.18,7.18,0,0,0-7.13-6.32,7.81,7.81,0,0,0-7.72,6.32Z"/><path class="a" d="M213.2,41.8a16.48,16.48,0,0,0-10.54,3.65v-2.9h-9.29V96.39H203V76a15.13,15.13,0,0,0,9.65,3.27,18.3,18.3,0,0,0,13.67-6.09,19.28,19.28,0,0,0,4.52-12.63C230.87,50,223,41.8,213.2,41.8ZM212,70.55c-6,0-9.94-4.14-9.94-9.92S206,50.71,212,50.71c5.12,0,9.27,4.44,9.27,9.92S217.15,70.55,212,70.55Z"/><path class="b" d="M83.91,65.44a15,15,0,0,0-7.07-1.7,5,5,0,0,1-5.08-5.09,5.15,5.15,0,0,1,5.08-5.09,15,15,0,0,0,7.07-1.71A12.88,12.88,0,1,0,64.59,40.7a14.83,14.83,0,0,0,2,6.92c1,1.79,1.43,5.11-1.83,7a5.18,5.18,0,0,1-7-1.91,14.7,14.7,0,0,0-5-5.21,12.88,12.88,0,1,0,0,22.3,14.87,14.87,0,0,0,5-5.21c1.05-1.68,3.67-3.82,7-1.91a5.18,5.18,0,0,1,1.83,7,14.8,14.8,0,0,0-2,6.92A12.88,12.88,0,1,0,83.91,65.44Z"/><rect class="c" width="320" height="120"/></svg>