<svg width="128" height="64" viewBox="0 0 128 64" fill="none" xmlns="http://www.w3.org/2000/svg">
<rect width="128" height="64" rx="6" fill="white"/>
<path d="M122 25.4985L116.532 32.6687V38.5014H113.524V32.6687L108.056 25.4985H111.785L115.112 29.9154L118.414 25.4985H122V25.4985ZM91.552 25.4985V28.0662H96.3722V38.5069H99.3548V28.0608H104.169V25.4931L91.552 25.4985V25.4985ZM76.6344 28.0662H81.0711C82.3901 28.0662 83.0028 28.5637 83.0028 29.6152C83.0028 30.666 82.3901 31.1627 81.0711 31.1627H76.6344V28.0655V28.0662ZM86.6746 38.5069L83.2499 33.4957C85.0847 32.999 86.0421 31.68 86.0421 29.6145C86.0421 26.9369 84.4167 25.504 81.3959 25.504H73.6512V38.5069H76.6344V33.7195H79.9227L83.155 38.5014L86.6746 38.5069ZM53.6589 25.504V38.5069H65.4179V35.9392H56.6463V33.2426H64.1842V30.6749H56.6463V28.0614H65.4234V25.4931L53.6589 25.504ZM44.3039 25.504L40.467 35.117L36.6035 25.5006H33.3678L38.856 38.5035H41.915L47.4038 25.4999L44.3039 25.5033V25.504ZM24.0912 38.5014H27.0731V25.4985H24.0912V38.5014ZM6 38.5014H8.98188V28.479H6V38.5014ZM8.98188 28.4811H19.0029V25.4965H8.98188V28.4818V28.4811Z" fill="#527A42"/>
</svg>
