<svg xmlns="http://www.w3.org/2000/svg" width="128" height="64" fill="none"><rect width="128" height="64" fill="#fff" rx="6"/><path fill="#527A42" d="m122 25.498-5.468 7.17v5.833h-3.008V32.67l-5.468-7.17h3.729l3.327 4.416 3.302-4.416H122Zm-30.448 0v2.568h4.82v10.44h2.983V28.062h4.814v-2.568l-12.617.006Zm-14.918 2.568h4.437c1.32 0 1.932.498 1.932 1.55 0 1.05-.613 1.547-1.932 1.547h-4.437v-3.098.001Zm10.04 10.44-3.424-5.01c1.835-.497 2.792-1.816 2.792-3.882 0-2.677-1.625-4.11-4.646-4.11H73.65v13.003h2.983v-4.788h3.289l3.232 4.782 3.52.006ZM53.66 25.505v13.003h11.759v-2.568h-8.772v-2.696h7.538v-2.568h-7.538V28.06h8.777v-2.568l-11.764.011Zm-9.355 0-3.837 9.613-3.864-9.616h-3.235l5.488 13.003h3.059L47.404 25.5l-3.1.003v.001ZM24.09 38.501h2.982V25.5h-2.982V38.5ZM6 38.501h2.982V28.48H6v10.022Zm2.982-10.02h10.02v-2.985H8.983v2.986Z"/></svg>