<svg xmlns="http://www.w3.org/2000/svg" viewBox="0 0 320 120"><defs><style>.a{fill:none;}.b{fill:#005da0;}.c{fill:#aeb1bc;}</style></defs><rect class="a" width="320" height="120"/><path class="b" d="M166,68.39a27.25,27.25,0,0,1-13-3.11l1.23-8.07a24.29,24.29,0,0,0,11.57,3.06c4.56,0,6.57-1.67,6.57-4.56,0-6.57-19.2-3.79-19.2-17.75,0-7.07,4.56-12.8,15.13-12.8A32.28,32.28,0,0,1,180,27.33l-1.17,7.9a33.85,33.85,0,0,0-10.07-1.78c-5.17,0-6.57,1.78-6.57,4,0,6.5,19.2,3.5,19.2,17.63C181.42,63.33,175.69,68.39,166,68.39Z"/><path class="b" d="M217.6,59.44v8.18H189.22V25.88H217.6v8.29h-19v8.3H214v7.45H198.62v9.52Z"/><path class="b" d="M240.87,54H235.3V67.62h-9.4V25.88h15c11.57,0,16.3,4.57,16.3,14.3C257.17,49,252.5,54,240.87,54Zm0-20.31H235.3v12.8h5.57c4.62,0,6.62-1.17,6.62-6.4,0-5-1.78-6.36-6.62-6.36Z"/><path class="b" d="M285.84,59.49H270.7l-2.33,8.13h-9.91l14.41-41.74h11.19l14.58,41.74H288.18Zm-8.68-22.15L273,51.65h10.62l-4-14.31L278.49,33h-.16Z"/><path class="b" d="M165.62,94.7l-.11,3.93H153.24V79.25h4.39V94.7Z"/><path class="b" d="M177.35,97.13h-.08A5.39,5.39,0,0,1,173,98.89c-3,0-4.85-1.68-4.85-5.2,0-2.89,2-4.88,5.58-4.88a9.82,9.82,0,0,1,3,.44v-.91c0-1.57-.82-2.3-3-2.3a10.16,10.16,0,0,0-4.31.86l-.34-3.21a13.78,13.78,0,0,1,5.38-1c4.62,0,6.23,2,6.23,6.28v9.69h-3.08Zm-.6-5.22a6.21,6.21,0,0,0-2.22-.34c-1.78,0-2.61.7-2.61,2.07,0,1.53.91,2.07,2.23,2.07s2.6-.83,2.6-1.84Z"/><path class="b" d="M189.39,98.94a10.2,10.2,0,0,1-4.91-1.09l.42-3.3a9.79,9.79,0,0,0,4.47,1.11c1.6,0,2.27-.65,2.27-1.58,0-2.51-7.26-1.06-7.26-6.54,0-2.81,1.91-4.83,5.94-4.83a11.93,11.93,0,0,1,4.45.85l-.34,3.28a12.17,12.17,0,0,0-4.18-.8c-1.32,0-2.05.52-2.05,1.32,0,2.38,7.16,1,7.16,6.36C195.36,96.84,193.63,98.94,189.39,98.94Z"/><path class="b" d="M203.24,86v8c0,1.21.62,1.73,1.87,1.73a4.33,4.33,0,0,0,1.24-.18l.23,2.92a7.67,7.67,0,0,1-2.69.44c-3.13,0-4.65-1.81-4.65-4.78V86h-1.76V83h1.94l.67-3.54,3.15-.28V83h3.49v3Z"/><path class="b" d="M214.49,98.94a10.2,10.2,0,0,1-4.91-1.09l.41-3.3a9.79,9.79,0,0,0,4.47,1.11c1.6,0,2.27-.65,2.27-1.58,0-2.51-7.26-1.06-7.26-6.54,0-2.81,1.91-4.83,5.95-4.83a12,12,0,0,1,4.44.85l-.33,3.28a12.27,12.27,0,0,0-4.19-.8c-1.32,0-2,.52-2,1.32,0,2.38,7.16,1,7.16,6.36C220.45,96.84,218.72,98.94,214.49,98.94Z"/><path class="b" d="M234.05,86.79a8.29,8.29,0,0,0-2.66-.49c-2.92,0-3.88,1.22-3.88,4.52s1.37,4.68,3.8,4.68a6.77,6.77,0,0,0,2.84-.6l.28,3.13a7.74,7.74,0,0,1-4,.91c-4.62,0-7.08-2.64-7.08-8.12,0-5.19,2.15-8.11,7.16-8.11a11,11,0,0,1,3.77.67Z"/><path class="b" d="M247.25,98.63v-10a2.17,2.17,0,0,0-1.86-2.44,2.29,2.29,0,0,0-.64,0,3.36,3.36,0,0,0-2.66,1.19V98.63h-4V78.52l4-.2v3.56L242,84h.08a6,6,0,0,1,3.9-1.34c3.31,0,5.25,2.22,5.25,6v10Z"/><path class="b" d="M255.47,98.63V83.07l3.21-.15.36,2.61h.07a4.72,4.72,0,0,1,4.29-2.82,5.83,5.83,0,0,1,1.71.23l-.26,4a5.74,5.74,0,0,0-1.7-.26c-2.1,0-3.65,1.52-3.65,4.13v7.86Z"/><path class="b" d="M271,81.29c-1.55,0-2.3-.44-2.3-1.71,0-1.11.75-1.73,2.3-1.73s2.28.6,2.28,1.73S272.58,81.29,271,81.29Zm-2.06,17.34V83.07l4.1-.18V98.63Z"/><path class="b" d="M278.81,98.63V85.94h-2V83h2v-.7c0-2.35,1.62-4.29,5.37-4.29a9.81,9.81,0,0,1,2.53.33l-.23,2.59a6.89,6.89,0,0,0-1.5-.16c-1.57,0-2.17.62-2.17,1.63V83h3.34v3h-3.34V98.63Z"/><path class="b" d="M294.36,86v8c0,1.21.62,1.73,1.86,1.73a4.33,4.33,0,0,0,1.24-.18l.24,2.92a7.67,7.67,0,0,1-2.69.44c-3.13,0-4.65-1.81-4.65-4.78V86H288.6V83h1.94l.67-3.54,3.15-.28V83h3.49v3Z"/><path class="c" d="M81.89,35,64,21.53,46.06,8.07a2.83,2.83,0,0,0-4,.5l0,.06-15.77,21a2.93,2.93,0,0,0,.55,4l10.68,8L52,52.51l10.68,8a2.83,2.83,0,0,0,3.13.17,2.63,2.63,0,0,0,.9-.76l15.77-21A2.82,2.82,0,0,0,81.89,35ZM44.9,9.67l10.67,8h0l7.21,5.41L70,28.53h0l10.67,8a.91.91,0,0,1,.2,1.27h0L78.3,41.36,66.22,32.28,53.13,22.45,41.05,13.37l2.56-3.52A.93.93,0,0,1,44.9,9.67ZM65.09,58.83a.86.86,0,0,1-1.21.13h0L53.14,50.9,38.78,40.11,28,32a1,1,0,0,1-.35-.59.89.89,0,0,1,.15-.61l2.92-3.9S34,22.79,36.8,19l12.08,9.08L62,37.94l12,9.06c-2.82,3.75-6,7.91-6,7.91Z"/><path class="b" d="M85.11,67.09l27-36.14,2.76-3.64.08-.11a.59.59,0,0,0-.09-.82h0l-7.65-5.54a.59.59,0,0,0-.82.15l-.08.11-1,1.32L71.9,67.09H35.14L21.36,112.5h92l-13-45.41Zm-61.25,43.6L36.45,68.9h34.1l-2.94,3.93-4.23,5.85-.48.86-.45,1L62,81.68l-.47,1.2-.46,1.31-.45,1.28-.42,1.29L59.78,88l-.37,1.21-.35,1.11-.31,1-.23.81-.18.62-.14.38a1.62,1.62,0,0,1-.1.18c-.09.12-.6.59-1,.28s-.36-1.36-.32-1.87c.13-1.54.25-3.09.38-4.64a.69.69,0,0,0-.71-.69.67.67,0,0,0-.34.09,11.84,11.84,0,0,0-4,3.9c.09-.35.19-.7.28-1a43.39,43.39,0,0,0,1.28-4.89c.13-.93-.1-2-1.2-2.22s-2,1.08-2.63,1.94c-1.84,2.56-3,5.84-5.22,8.06a3,3,0,0,1-3,1.11c-1.42-.4-2,1.27.53,1.5s4.29-2.38,5.41-4.2c.82-1.32,1.53-2.7,2.32-4,.38-.64.77-1.28,1.21-1.88.19-.26.54-1,.88-1s.32.13.3.48a13.18,13.18,0,0,1-.6,2.32L51,88.94q-.72,2.64-1.43,5.27a.7.7,0,0,0,1.27.54c1.76-2.5,2.63-4.62,4.79-6.29,0,.55-.09,1.1-.13,1.65a18.47,18.47,0,0,0-.19,2.78c.11,1.48,1.23,2.51,2.64,1.86a4.94,4.94,0,0,0,1.26-.86l.09-.06.29-.22.55-.36.73-.51.82-.61.91-.64,1.06-.75,1.08-.8,1.08-.79,1.08-.8,1.06-.8,1-.74.91-.75.8-.62.63-.59.5-.47h0l3.36-4,8.6-11.49H99l11.87,41.79Z"/><path class="b" d="M118.36,29l-1-.76a.46.46,0,0,0-.64.09L103.86,45.44a.47.47,0,0,0,.09.65l1,.76a.46.46,0,0,0,.64-.09l12.85-17.1a.47.47,0,0,0-.06-.65Z"/><polygon class="b" points="66.76 101.8 92.32 101.8 91.78 99.77 66.76 99.77 41.74 99.77 41.2 101.8 66.76 101.8"/></svg>