<svg xmlns="http://www.w3.org/2000/svg" width="128" height="64" fill="none"><rect width="128" height="64" fill="#fff" rx="6"/><path fill="#005DA0" d="M66.424 35.397a11.007 11.007 0 0 1-5.252-1.256l.497-3.26a9.81 9.81 0 0 0 4.674 1.236c1.842 0 2.653-.675 2.653-1.842 0-2.654-7.755-1.53-7.755-7.17 0-2.855 1.842-5.17 6.112-5.17a13.039 13.039 0 0 1 4.725.877l-.472 3.19a13.672 13.672 0 0 0-4.068-.718c-2.088 0-2.653.719-2.653 1.615 0 2.626 7.755 1.414 7.755 7.122.012 3.332-2.302 5.376-6.216 5.376ZM87.266 31.782v3.304H75.803v-16.86h11.463v3.349h-7.675v3.352h6.22v3.01H79.6v3.845h7.667ZM96.665 29.584h-2.25v5.502h-3.797v-16.86h6.06c4.673 0 6.583 1.846 6.583 5.776-.012 3.563-1.898 5.582-6.596 5.582Zm0-8.203h-2.25v5.17h2.25c1.866 0 2.674-.473 2.674-2.585 0-2.02-.719-2.57-2.674-2.57v-.015ZM114.83 31.802h-6.116l-.941 3.284h-4.003l5.821-16.86h4.52L120 35.086h-4.225l-.945-3.284Zm-3.506-8.947-1.681 5.78h4.29l-1.616-5.78-.456-1.753h-.065l-.472 1.753ZM66.27 46.024l-.044 1.587h-4.957v-7.828h1.774v6.241h3.227ZM71.008 47.005h-.032a2.178 2.178 0 0 1-1.725.711c-1.212 0-1.959-.678-1.959-2.1 0-1.167.808-1.971 2.254-1.971.41-.004.82.056 1.212.178v-.368c0-.634-.332-.929-1.212-.929a4.104 4.104 0 0 0-1.741.347l-.137-1.296a5.566 5.566 0 0 1 2.173-.404c1.866 0 2.516.808 2.516 2.536v3.914h-1.244l-.105-.617Zm-.242-2.108a2.508 2.508 0 0 0-.897-.137c-.719 0-1.054.282-1.054.836 0 .618.367.836.9.836.534 0 1.05-.335 1.05-.743v-.792ZM75.871 47.737a4.12 4.12 0 0 1-1.983-.44l.17-1.333c.557.29 1.176.444 1.805.448.647 0 .917-.263.917-.638 0-1.014-2.932-.428-2.932-2.642 0-1.135.771-1.951 2.399-1.951a4.82 4.82 0 0 1 1.797.343l-.137 1.325a4.917 4.917 0 0 0-1.688-.323c-.533 0-.828.21-.828.533 0 .962 2.892.404 2.892 2.57 0 1.26-.7 2.108-2.412 2.108ZM81.466 42.51v3.231c0 .49.25.7.755.7.17 0 .338-.025.5-.074l.094 1.18a3.099 3.099 0 0 1-1.087.178c-1.264 0-1.878-.731-1.878-1.931V42.51h-.711v-1.212h.784l.27-1.43 1.273-.113v1.543h1.41v1.212h-1.41ZM86.01 47.737a4.12 4.12 0 0 1-1.984-.44l.166-1.333c.558.29 1.177.444 1.806.448.646 0 .916-.263.916-.638 0-1.014-2.932-.428-2.932-2.642 0-1.135.772-1.951 2.403-1.951.615 0 1.223.116 1.794.343l-.133 1.325a4.954 4.954 0 0 0-1.693-.323c-.533 0-.808.21-.808.533 0 .962 2.892.404 2.892 2.57-.02 1.26-.719 2.108-2.427 2.108ZM93.91 42.829a3.35 3.35 0 0 0-1.074-.198c-1.18 0-1.567.493-1.567 1.826 0 1.333.553 1.89 1.535 1.89.395.003.787-.08 1.147-.242l.113 1.264a3.127 3.127 0 0 1-1.616.368c-1.866 0-2.86-1.067-2.86-3.28 0-2.096.869-3.276 2.893-3.276.52 0 1.035.092 1.522.27l-.093 1.378ZM99.242 47.611v-4.039a.876.876 0 0 0-.751-.985.925.925 0 0 0-.258 0 1.355 1.355 0 0 0-1.075.48v4.544h-1.616V39.49l1.616-.081v1.438l-.036.856h.032a2.423 2.423 0 0 1 1.575-.541c1.337 0 2.121.896 2.121 2.423v4.04l-1.608-.013ZM102.563 47.611v-6.285l1.296-.06.146 1.054h.028a1.902 1.902 0 0 1 1.733-1.139c.233-.003.466.028.69.093l-.105 1.616a2.31 2.31 0 0 0-.686-.105c-.848 0-1.475.614-1.475 1.668v3.175l-1.627-.017ZM108.836 40.607c-.627 0-.93-.177-.93-.69 0-.449.303-.7.93-.7.626 0 .92.243.92.7 0 .456-.282.69-.92.69Zm-.833 7.004v-6.285l1.657-.072v6.357h-1.657ZM111.99 47.612v-5.126h-.808v-1.188h.808v-.282c0-.95.655-1.733 2.169-1.733.345 0 .689.044 1.022.133l-.093 1.046a2.785 2.785 0 0 0-.606-.065c-.634 0-.876.25-.876.659v.242h1.349v1.212h-1.349v5.102h-1.616ZM118.271 42.51v3.231c0 .49.251.7.751.7.17 0 .339-.025.501-.074l.097 1.18a3.093 3.093 0 0 1-1.086.178c-1.265 0-1.879-.731-1.879-1.931V42.51h-.71v-1.212h.783l.271-1.43 1.272-.113v1.543h1.41v1.212h-1.41Z"/><path fill="#AEB1BC" d="m32.45 21.91-7.227-5.441-7.246-5.437a1.144 1.144 0 0 0-1.616.202v.024l-6.37 8.483a1.184 1.184 0 0 0 .223 1.615l4.313 3.232 5.85 4.394 4.313 3.232a1.145 1.145 0 0 0 1.264.069c.143-.074.268-.179.364-.308l6.37-8.482a1.139 1.139 0 0 0-.239-1.583ZM17.508 11.678l4.31 3.232 2.912 2.185 2.917 2.201 4.31 3.232a.367.367 0 0 1 .08.513L31 24.479 26.12 20.81l-5.287-3.97-4.88-3.668 1.034-1.422a.376.376 0 0 1 .521-.073Zm8.156 19.857a.347.347 0 0 1-.49.053l-4.337-3.256-5.8-4.358-4.355-3.276a.404.404 0 0 1-.141-.238.36.36 0 0 1 .06-.247l1.18-1.575s1.325-1.66 2.456-3.191l4.879 3.668 5.3 3.982 4.847 3.66c-1.14 1.514-2.424 3.195-2.424 3.195l-1.175 1.583Z"/><path fill="#005DA0" d="m33.75 34.872 10.906-14.598 1.115-1.47.032-.045a.238.238 0 0 0-.036-.331l-3.09-2.238a.239.239 0 0 0-.331.06l-.033.045-.404.533-13.495 18.044H13.566L8 53.214h37.161L39.91 34.872h-6.16ZM9.01 52.482l5.085-16.88H27.87l-1.188 1.588-1.708 2.363-.194.348-.182.403-.181.46-.19.486-.186.529-.182.517-.17.52-.17.502-.149.488-.141.449-.125.404-.093.327-.073.25-.056.154a.67.67 0 0 1-.04.072c-.037.049-.243.239-.405.114-.161-.126-.145-.55-.129-.756.053-.622.101-1.248.154-1.874a.28.28 0 0 0-.287-.279.271.271 0 0 0-.138.037 4.781 4.781 0 0 0-1.615 1.575c.036-.141.076-.283.113-.404.21-.648.383-1.307.517-1.975.052-.376-.04-.808-.485-.897-.444-.089-.808.436-1.062.784-.744 1.034-1.212 2.359-2.109 3.255a1.212 1.212 0 0 1-1.212.449c-.573-.162-.807.513.215.606 1.021.093 1.732-.962 2.185-1.697.331-.533.618-1.09.937-1.615.153-.259.31-.517.489-.76.076-.105.218-.404.355-.404.137 0 .13.053.121.194a5.327 5.327 0 0 1-.242.937l-.27.945c-.195.711-.387 1.42-.578 2.129a.283.283 0 0 0 .513.218c.71-1.01 1.062-1.866 1.934-2.54 0 .222-.036.444-.052.666-.054.372-.08.747-.077 1.123.045.598.497 1.014 1.067.751.186-.089.358-.206.508-.347l.037-.025.117-.088.222-.146.295-.206.331-.246.368-.259.428-.303.436-.323.437-.319.436-.323.428-.323.404-.299.367-.303.323-.25.255-.239.202-.19 1.357-1.615 3.474-4.641h6.156l4.794 16.88-35.145.004Z"/><path fill="#005DA0" d="m47.18 19.486-.403-.307a.186.186 0 0 0-.259.037l-5.194 6.91a.19.19 0 0 0 .036.263l.404.307a.186.186 0 0 0 .258-.036l5.19-6.907a.19.19 0 0 0-.023-.263l-.008-.004ZM26.338 48.892h10.324l-.218-.82H16.232l-.218.82h10.324Z"/></svg>