<svg xmlns="http://www.w3.org/2000/svg" xmlns:xlink="http://www.w3.org/1999/xlink" viewBox="0 0 320 120"><defs><style>.a{fill:none;}.b{fill-rule:evenodd;fill:url(#a);}</style><linearGradient id="a" x1="-794.59" y1="594.31" x2="-794.08" y2="593.34" gradientTransform="matrix(226.77, 0, 0, -77.46, 180293.51, 46056.52)" gradientUnits="userSpaceOnUse"><stop offset="0" stop-color="#6b195f"/><stop offset="1" stop-color="#4c255b"/></linearGradient></defs><rect class="a" width="320" height="120"/><path class="b" d="M207.94,40.52a9,9,0,1,0-9-9,9,9,0,0,0,9,9Zm-69,4.86A64.08,64.08,0,0,1,128.5,63.24V26.6l-18.87,3.73V96.74H128.5V76.22c5.46,8.19,8.16,20.52,8.16,20.52h22.59c-2.24-9.29-12-26.42-12-26.42a82.66,82.66,0,0,0,13.24-24.94Zm49.59-.69C171.6,45.23,163,52.81,163,67.88V96.74h18.43V73.21c0-9,1.18-12.89,11.89-13.26V45a25.67,25.67,0,0,0-4.85-.26ZM78,52.7c-2.31-.16-7.66-.5-7.66-5.32,0-5.81,7.7-5.81,10.59-5.81,5.08,0,11.66,1.5,16.35,2.91,0,0,2.62.92,4.85,1.87l.21,0V30.49l-.28-.08c-5.55-1.94-12-3.81-23.94-3.81-20.61,0-27.91,12-27.91,22.29,0,5.93,2.54,19.88,26.14,21.49,2,.12,7.31.43,7.31,5.4,0,4.11-4.35,6.53-11.66,6.53a57.3,57.3,0,0,1-20.5-4V94.72A95.67,95.67,0,0,0,75.87,97.5C96,97.5,105,86.14,105,74.89c0-12.77-10.1-21.06-27-22.19Zm120.8,44h18.28V45.44H198.8Zm52.71-66.87V96.74h18.28V26.6l-18.28,3.27Zm-26.68,0,18.26-3.27V96.74H224.83V29.87Z"/></svg>