<svg xmlns="http://www.w3.org/2000/svg" xmlns:xlink="http://www.w3.org/1999/xlink" viewBox="0 0 320 120"><defs><style>.a{fill:none;}.b{fill-rule:evenodd;fill:url(#a);}</style><linearGradient id="a" x1="-793.42" y1="-471.17" x2="-792.98" y2="-470.33" gradientTransform="translate(180032.52 36523.82) scale(226.77 77.46)" gradientUnits="userSpaceOnUse"><stop offset="0" stop-color="#6b195f"/><stop offset="1" stop-color="#4c255b"/></linearGradient></defs><rect class="a" width="320" height="120"/><path class="b" d="M201.55,43.12a7.8,7.8,0,1,0-7.8-7.8h0A7.8,7.8,0,0,0,201.55,43.12Zm-59.8,4.21a55.71,55.71,0,0,1-9.05,15.48V31.05l-16.36,3.23V91.85H132.7V74.06c4.73,7.1,7.07,17.79,7.07,17.79h19.58C157.41,83.79,149,69,149,69a71.49,71.49,0,0,0,11.47-21.62Zm43-.6c-14.68.47-22.13,7-22.13,20.1v25h16V71.45c0-7.8,1-11.17,10.31-11.49V47a21.88,21.88,0,0,0-4.2-.22ZM88.92,53.67c-2-.13-6.63-.43-6.63-4.61,0-5,6.67-5,9.17-5a55.08,55.08,0,0,1,14.18,2.52s2.27.8,4.2,1.62H110V34.42l-.24-.07c-4.81-1.68-10.4-3.3-20.75-3.3-17.87,0-24.19,10.4-24.19,19.32C64.84,55.51,67,67.6,87.49,69c1.74.1,6.34.37,6.34,4.68,0,3.56-3.77,5.66-10.11,5.66A49.58,49.58,0,0,1,66,75.87V90.1a83.4,83.4,0,0,0,21.12,2.41c17.45,0,25.25-9.85,25.25-19.6C112.33,61.84,103.57,54.65,88.92,53.67ZM193.63,91.81h15.85V47.38H193.63Zm45.69-58v58h15.84V31.05l-15.84,2.84Zm-23.13,0L232,31V91.85H216.19v-58Z"/></svg>