<svg xmlns="http://www.w3.org/2000/svg" width="128" height="64" fill="none"><rect width="128" height="64" fill="#fff" rx="6"/><path fill="url(#a)" fill-rule="evenodd" d="M81.468 24.897a3.278 3.278 0 1 0-3.279-3.278 3.277 3.277 0 0 0 3.279 3.278Zm-25.134 1.77a23.415 23.415 0 0 1-3.804 6.506V19.824l-6.876 1.358v24.196h6.876v-7.477c1.988 2.984 2.971 7.477 2.971 7.477h8.23c-.815-3.387-4.35-9.603-4.35-9.603a30.048 30.048 0 0 0 4.82-9.087l-7.867-.021Zm18.073-.253c-6.17.198-9.302 2.943-9.302 8.448V45.37h6.725v-8.566c0-3.278.42-4.694 4.334-4.829v-5.447a9.194 9.194 0 0 0-1.766-.092l.009-.021Zm-40.278 2.917c-.84-.054-2.786-.18-2.786-1.937 0-2.102 2.803-2.102 3.854-2.102 2.024.091 4.028.447 5.96 1.06 0 0 .954.336 1.765.68h.067v-5.791l-.1-.03c-2.022-.706-4.372-1.387-8.722-1.387-7.51 0-10.167 4.371-10.167 8.12.008 2.16.916 7.242 9.528 7.83.732.043 2.665.156 2.665 1.968 0 1.496-1.585 2.379-4.25 2.379a20.837 20.837 0 0 1-7.447-1.459v5.98a35.05 35.05 0 0 0 8.877 1.014c7.334 0 10.612-4.14 10.612-8.238-.017-4.653-3.698-7.675-9.856-8.087Zm44.01 16.03H84.8V26.689h-6.662v18.674Zm19.203-24.377v24.378H104V19.824l-6.658 1.194v-.034Zm-9.721 0 6.645-1.18v25.574H87.62V20.984Z" clip-rule="evenodd"/><defs><linearGradient id="a" x1="42.429" x2="48.471" y1="18.119" y2="51.888" gradientUnits="userSpaceOnUse"><stop stop-color="#6B195F"/><stop offset="1" stop-color="#4C255B"/></linearGradient></defs></svg>