<svg xmlns="http://www.w3.org/2000/svg" xmlns:xlink="http://www.w3.org/1999/xlink" viewBox="0 0 320 120"><defs><style>.a{fill:none;}.b{fill:url(#a);}</style><linearGradient id="a" x1="271.48" y1="320.07" x2="313.78" y2="272.36" gradientTransform="translate(-261 -235.91)" gradientUnits="userSpaceOnUse"><stop offset="0.08" stop-color="#9945ff"/><stop offset="0.3" stop-color="#8752f3"/><stop offset="0.5" stop-color="#5497d5"/><stop offset="0.6" stop-color="#43b4ca"/><stop offset="0.72" stop-color="#28e0b9"/><stop offset="0.97" stop-color="#19fb9b"/></linearGradient></defs><rect class="a" width="320" height="120"/><path class="b" d="M57.42,73.3l-8.51,9.12a1.94,1.94,0,0,1-.66.47,2,2,0,0,1-.8.17H7.1a1.11,1.11,0,0,1-.53-.17,1,1,0,0,1-.36-.44.94.94,0,0,1-.07-.55,1.05,1.05,0,0,1,.24-.51l8.51-9.12a1.94,1.94,0,0,1,.66-.47,2,2,0,0,1,.8-.17H56.7a1.11,1.11,0,0,1,.53.17,1,1,0,0,1,.36.44.94.94,0,0,1,.07.55A1,1,0,0,1,57.42,73.3ZM48.91,54.88a1.84,1.84,0,0,0-.66-.48,1.82,1.82,0,0,0-.8-.16H7.1a.93.93,0,0,0-.53.17,1.07,1.07,0,0,0-.36.43,1,1,0,0,0-.07.56,1,1,0,0,0,.24.5l8.51,9.22a1.84,1.84,0,0,0,.66.48,1.82,1.82,0,0,0,.8.16H56.7a.9.9,0,0,0,.53-.17.89.89,0,0,0,.36-.43,1,1,0,0,0-.17-1.06ZM7.1,48.37H47.45a2,2,0,0,0,.8-.17,1.94,1.94,0,0,0,.66-.47l8.51-9.12a1,1,0,0,0,.24-.51.94.94,0,0,0-.07-.55,1,1,0,0,0-.36-.44,1.11,1.11,0,0,0-.53-.17H16.35a2,2,0,0,0-.8.17,1.94,1.94,0,0,0-.66.47L6.38,46.7a1.09,1.09,0,0,0-.24.51,1,1,0,0,0,.07.56,1.07,1.07,0,0,0,.36.43A1.11,1.11,0,0,0,7.1,48.37Z"/><path d="M106.35,56.41H84.78V49.24h27.16V42.07H84.73A6.88,6.88,0,0,0,82,42.6a7.07,7.07,0,0,0-4.39,6.59v7.27a7.11,7.11,0,0,0,7.09,7.13h21.6v7.17H78.12v7.17H106.3a7.1,7.1,0,0,0,7.12-7.08V63.54A7.11,7.11,0,0,0,106.35,56.41Z"/><path d="M148.09,42.07H126.46a7.12,7.12,0,0,0-7.12,7.12h0V70.81a7.12,7.12,0,0,0,7.12,7.12h21.63a6.92,6.92,0,0,0,2.73-.53,7.09,7.09,0,0,0,4.39-6.54V49.19a7.23,7.23,0,0,0-7.12-7.12Zm0,28.69H126.57V49.24h21.52Z"/><path d="M223.9,42.07H202.79a6.88,6.88,0,0,0-2.73.53,7.11,7.11,0,0,0-4.4,6.59V77.93h7.18V66.15h21V77.93H231V49.19a7.12,7.12,0,0,0-7.12-7.12Zm0,16.91h-21V49.24h21Z"/><path d="M307.88,42.07H286.82a6.88,6.88,0,0,0-2.73.53,7.08,7.08,0,0,0-4.39,6.59V77.93h7.12V66.15h21V77.93H315V49.19a7.23,7.23,0,0,0-7.12-7.12Zm0,16.91H286.82V49.24h21Z"/><path d="M266.09,70.76h-2.87L253,45.14a4.76,4.76,0,0,0-1.74-2.24,4.69,4.69,0,0,0-2.71-.83h-6.38a4.73,4.73,0,0,0-4.74,4.72V77.93h7.17V49.24h2.87l10.25,25.62a4.71,4.71,0,0,0,4.43,3.07h6.38a4.57,4.57,0,0,0,1.82-.35,4.69,4.69,0,0,0,1.55-1,4.81,4.81,0,0,0,1.4-3.36V42.07h-7.18Z"/><path d="M168.76,42.07h-7.17V70.81a7.1,7.1,0,0,0,7.08,7.12h21.61V70.76H168.76Z"/></svg>