<svg xmlns="http://www.w3.org/2000/svg" width="128" height="64" fill="none"><rect width="128" height="64" fill="#fff" rx="6"/><path fill="url(#a)" d="m25.264 36.995-3.196 3.425a.751.751 0 0 1-.548.24H6.366a.417.417 0 0 1-.2-.063.376.376 0 0 1-.134-.166.353.353 0 0 1-.027-.206.395.395 0 0 1 .09-.192l3.196-3.425a.753.753 0 0 1 .548-.24h15.155c.07.004.139.026.198.063.06.041.108.099.136.166a.377.377 0 0 1-.064.398Zm-3.196-6.918a.691.691 0 0 0-.248-.18.685.685 0 0 0-.3-.06H6.366a.35.35 0 0 0-.2.064.375.375 0 0 0-.071.56l3.196 3.462c.068.078.153.14.248.18a.685.685 0 0 0 .3.06h15.155a.338.338 0 0 0 .198-.064.375.375 0 0 0 .071-.56l-3.195-3.462ZM6.366 27.632H21.52a.751.751 0 0 0 .548-.24l3.196-3.425a.377.377 0 0 0-.27-.627H9.84a.753.753 0 0 0-.549.24l-3.196 3.425a.375.375 0 0 0 .27.627Z"/><path fill="#000" d="M43.64 30.652h-8.1v-2.693h10.2v-2.693H35.52c-.351-.004-.7.064-1.025.2a2.655 2.655 0 0 0-1.649 2.474v2.73a2.67 2.67 0 0 0 2.663 2.678h8.112v2.693H33.038v2.693H43.62a2.666 2.666 0 0 0 2.674-2.66V33.33a2.67 2.67 0 0 0-2.655-2.677ZM59.316 25.266h-8.124a2.674 2.674 0 0 0-2.674 2.674v8.12a2.674 2.674 0 0 0 2.674 2.674h8.124a2.663 2.663 0 0 0 2.674-2.655V27.94a2.715 2.715 0 0 0-2.674-2.674Zm0 10.775h-8.082v-8.082h8.082v8.082ZM87.787 25.266h-7.928a2.67 2.67 0 0 0-2.678 2.674v10.794h2.696V34.31h7.887v4.424h2.69V27.94a2.674 2.674 0 0 0-2.675-2.674h.008Zm0 6.35H79.9V27.96h7.887v3.658ZM119.326 25.266h-7.909a2.657 2.657 0 0 0-2.674 2.674v10.794h2.674V34.31h7.887v4.424H122V27.94a2.718 2.718 0 0 0-2.674-2.674Zm0 6.35h-7.909V27.96h7.887l.022 3.658ZM103.632 36.04h-1.078l-3.838-9.62a1.762 1.762 0 0 0-1.671-1.153h-2.397a1.777 1.777 0 0 0-1.78 1.772v11.695h2.693V27.959h1.078l3.849 9.622a1.766 1.766 0 0 0 1.664 1.153h2.396c.234.003.467-.042.683-.132.217-.085.415-.213.583-.375.333-.336.522-.789.525-1.262V25.266h-2.696l-.011 10.775ZM67.078 25.266h-2.692V36.06a2.666 2.666 0 0 0 2.659 2.674h8.115V36.04h-8.082V25.266Z"/><defs><linearGradient id="a" x1="7.635" x2="23.521" y1="41.073" y2="23.156" gradientUnits="userSpaceOnUse"><stop offset=".08" stop-color="#9945FF"/><stop offset=".3" stop-color="#8752F3"/><stop offset=".5" stop-color="#5497D5"/><stop offset=".6" stop-color="#43B4CA"/><stop offset=".72" stop-color="#28E0B9"/><stop offset=".97" stop-color="#19FB9B"/></linearGradient></defs></svg>