<svg xmlns="http://www.w3.org/2000/svg" xmlns:xlink="http://www.w3.org/1999/xlink" viewBox="0 0 323.13 120.41"><defs><style>.a{fill:none;}.b{clip-path:url(#a);}.c{fill:url(#b);}</style><clipPath id="a"><rect class="a" x="6.56" y="37.15" width="310" height="46.12"/></clipPath><linearGradient id="b" x1="12.05" y1="37.64" x2="54.34" y2="85.34" gradientTransform="matrix(1, 0, 0, -1, 0, 122)" gradientUnits="userSpaceOnUse"><stop offset="0.08" stop-color="#9945ff"/><stop offset="0.3" stop-color="#8752f3"/><stop offset="0.5" stop-color="#5497d5"/><stop offset="0.6" stop-color="#43b4ca"/><stop offset="0.72" stop-color="#28e0b9"/><stop offset="0.97" stop-color="#19fb9b"/></linearGradient></defs><g class="b"><path class="c" d="M59,73.5l-8.5,9.12a1.88,1.88,0,0,1-.67.48,2,2,0,0,1-.79.16H8.67a.94.94,0,0,1-.54-.17,1,1,0,0,1-.42-1A.94.94,0,0,1,8,81.6l8.5-9.12a1.88,1.88,0,0,1,.67-.48,2,2,0,0,1,.79-.16H58.27a.93.93,0,0,1,.53.17,1,1,0,0,1,.36.43A1,1,0,0,1,59,73.5Zm-8.5-18.42A2,2,0,0,0,49,54.44H8.67a1.11,1.11,0,0,0-.54.17,1,1,0,0,0-.42,1,1,1,0,0,0,.24.51l8.5,9.22a2,2,0,0,0,1.46.64H58.27a1.11,1.11,0,0,0,.53-.17,1.07,1.07,0,0,0,.36-.43,1,1,0,0,0,.06-.56A1,1,0,0,0,59,64.3ZM8.67,48.57H49a2,2,0,0,0,.79-.16,1.88,1.88,0,0,0,.67-.48L59,38.81a1,1,0,0,0,.18-1.06,1.07,1.07,0,0,0-.36-.43.93.93,0,0,0-.53-.17H17.91a2,2,0,0,0-.79.16,2,2,0,0,0-.67.48L8,46.91a1,1,0,0,0-.24.5,1.06,1.06,0,0,0,.06.56,1,1,0,0,0,.36.43A.94.94,0,0,0,8.67,48.57Z"/><path d="M107.92,56.62H86.34V49.44H113.5V42.27H86.29a7.14,7.14,0,0,0-2.73.54,7.08,7.08,0,0,0-3.85,3.85,7.14,7.14,0,0,0-.54,2.73v7.28a7.11,7.11,0,0,0,.54,2.73,7.14,7.14,0,0,0,3.85,3.86,7.13,7.13,0,0,0,2.73.53h21.58V71H79.68v7.17h28.19A7.14,7.14,0,0,0,115,71V63.74a7.12,7.12,0,0,0-7.07-7.12Z"/><path d="M149.65,42.27H128a7.12,7.12,0,0,0-7.12,7.12V71A7.12,7.12,0,0,0,128,78.14h21.62a7.17,7.17,0,0,0,5-2.08,7.19,7.19,0,0,0,1.54-2.31,7,7,0,0,0,.53-2.73V49.39a7,7,0,0,0-.53-2.73,7.19,7.19,0,0,0-1.54-2.31,7.17,7.17,0,0,0-5-2.08Zm0,28.7H128.13V49.44h21.52Z"/><path d="M225.46,42.27H204.35a7.11,7.11,0,0,0-2.73.54,6.93,6.93,0,0,0-2.31,1.54,7.06,7.06,0,0,0-1.55,2.31,7.13,7.13,0,0,0-.53,2.73V78.14h7.17V66.35h21V78.14h7.17V49.39a7.12,7.12,0,0,0-7.12-7.12Zm0,16.91h-21V49.44h21Z"/><path d="M309.44,42.27H288.38a7.14,7.14,0,0,0-2.73.54,7.08,7.08,0,0,0-3.85,3.85,7.14,7.14,0,0,0-.54,2.73V78.14h7.12V66.35h21V78.14h7.17V49.39a7,7,0,0,0-.53-2.73,7.19,7.19,0,0,0-1.54-2.31,7.17,7.17,0,0,0-5.05-2.08Zm0,16.91H288.38V49.44h21Z"/><path d="M267.66,71h-2.87L254.54,45.35a4.75,4.75,0,0,0-4.46-3.08H243.7A4.75,4.75,0,0,0,239,47V78.14h7.18V49.44H249l10.25,25.62a4.76,4.76,0,0,0,4.44,3.08h6.37a5,5,0,0,0,1.83-.35,4.73,4.73,0,0,0,2.94-4.39V42.27h-7.17Z"/><path d="M170.33,42.27h-7.18V71a7.14,7.14,0,0,0,7.13,7.12h21.57V71H170.33Z"/></g><rect class="a" width="323.13" height="120.41"/></svg>