<svg xmlns="http://www.w3.org/2000/svg" width="128" height="64" fill="none"><rect width="128" height="64" fill="#fff" rx="6"/><path fill="#000" d="m39.373 22.775-3.556 1.813-17.179 8.75A10.229 10.229 0 0 1 33.776 23.08l2.037-1.037.303-.156a12.5 12.5 0 0 0-19.844 10.115c0 .317 0 .635.038.952a2.28 2.28 0 0 1-1.235 2.198L14 35.7v2.556l3.16-1.612 1.027-.537 1.007-.515 18.112-9.213 2.034-1.037 4.208-2.142v-2.552l-4.175 2.127ZM43.548 25.756 20.224 37.629l-2.037 1.041L14 40.804v2.549l4.16-2.116 3.556-1.813 17.198-8.765a10.232 10.232 0 0 1-15.153 10.265l-.123.067-2.209 1.12a12.5 12.5 0 0 0 19.847-10.109c0-.32 0-.642-.037-.962a2.272 2.272 0 0 1 1.235-2.198l1.075-.545v-2.541ZM78.68 27.525c-3.568 0-6.344 2.612-6.344 6.768 0 3.862 2.283 6.821 6.41 6.821 3.18 0 5.265-1.865 5.847-4.104h-2.272c-.56 1.287-1.627 2.16-3.567 2.16-1.94 0-3.96-1.35-4.03-4.183h10.048c.265-4.134-2.09-7.462-6.093-7.462Zm-3.934 5.597c.194-2.612 1.99-3.69 3.933-3.69 2.355 0 3.69 1.843 3.761 3.69h-7.694ZM58.91 30.708l-2.03-.463c-1.656-.373-2.876-1.142-2.876-2.694 0-1.966 2.373-2.57 3.731-2.57 1.75 0 3.784.7 4.37 2.715h2.402c-.705-3.376-3.5-4.806-6.675-4.806-2.84 0-6.343 1.433-6.343 4.806 0 2.91 2.399 4.273 4.828 4.806l2.194.463c2.21.508 3.787 1.235 3.787 3.105 0 1.75-1.492 2.962-4.104 2.962-2.742 0-4.396-1.26-4.85-3.69h-2.441c.459 3.5 3.082 5.776 7.231 5.776 3.5 0 6.717-1.843 6.717-5.265-.015-3.545-3.243-4.563-5.94-5.145ZM69.597 24.469h-2.239v3.276h-2.052v1.772h2.052v8.011c0 2.717.582 3.277 3.082 3.277h1.601v-1.866h-1.12c-1.26 0-1.358-.34-1.358-1.698v-7.724h2.474v-1.772h-2.44v-3.276ZM113.343 27.674c-1.724.07-3.033.873-3.686 2.35v-2.28h-2.161v13.06h2.209v-6.846c0-2.91 1.019-4 3.056-4 .415 0 .829.033 1.239.097v-2.359a6.4 6.4 0 0 0-.657-.022ZM105.369 35.88l.023-3.008c.026-3.732-1.526-5.388-5.194-5.388-2.523 0-5.049 1.574-5.224 4.391h2.283c.097-1.626 1.12-2.611 2.986-2.611 1.649 0 2.958.776 2.958 3.179v.313c-5.34.586-8.832 1.493-8.832 4.59 0 2.403 2.038 3.76 4.478 3.76 2.332 0 3.664-.745 4.478-2.107.018.6.074 1.2.168 1.794h2.238a22.242 22.242 0 0 1-.362-4.914Zm-2.015-.52c0 3.083-1.966 4.03-4.03 4.03-1.578 0-2.522-.824-2.522-2.063 0-1.799 2.545-2.403 6.552-2.791v.825ZM88.466 23.196h-2.209v17.609h2.21V23.196ZM92.884 23.196h-2.209v17.609h2.21V23.196Z"/></svg>