<svg xmlns="http://www.w3.org/2000/svg" viewBox="0 0 320 120"><defs><style>.a{fill:none;}</style></defs><rect class="a" width="320" height="120"/><path d="M94,35.27l-9.53,4.86L38.43,63.58A28.69,28.69,0,0,1,38.2,60,27.41,27.41,0,0,1,79,36.09l5.46-2.78.81-.42A33.5,33.5,0,0,0,32.09,60c0,.85,0,1.7.1,2.55a6.11,6.11,0,0,1-3.31,5.89L26,69.91v6.85l8.47-4.32h0L37.22,71l2.7-1.38h0L88.46,44.93l5.45-2.78,11.28-5.74V29.57Z"/><path d="M105.19,43.26,42.68,75.08l-5.46,2.79L26,83.59v6.83l11.15-5.67,9.53-4.86L92.77,56.4A27.42,27.42,0,0,1,52.16,83.91l-.33.18-5.92,3A33.5,33.5,0,0,0,99.1,60c0-.86,0-1.72-.1-2.58a6.09,6.09,0,0,1,3.31-5.89l2.88-1.46Z"/><path d="M199.34,48c-9.56,0-17,7-17,18.14,0,10.35,6.12,18.28,17.18,18.28,8.52,0,14.11-5,15.67-11H209.1c-1.5,3.45-4.36,5.79-9.56,5.79S188.93,75.59,188.74,68h26.93C216.38,56.92,210.07,48,199.34,48ZM188.8,63c.52-7,5.33-9.89,10.54-9.89,6.31,0,9.89,4.94,10.08,9.89Z"/><path d="M146.36,56.53l-5.44-1.24c-4.44-1-7.71-3.06-7.71-7.22,0-5.27,6.36-6.89,10-6.89,4.69,0,10.14,1.88,11.71,7.28h6.44c-1.89-9.05-9.38-12.88-17.89-12.88-7.61,0-17,3.84-17,12.88,0,7.8,6.43,11.45,12.94,12.88l5.88,1.24c5.92,1.36,10.15,3.31,10.15,8.32,0,4.69-4,7.94-11,7.94-7.35,0-11.78-3.38-13-9.89H124.9c1.23,9.38,8.26,15.48,19.38,15.48,9.38,0,18-4.94,18-14.11C162.24,60.82,153.59,58.09,146.36,56.53Z"/><path d="M175,39.81H169v8.78H163.5v4.75H169V74.81c0,7.28,1.56,8.78,8.26,8.78h4.29v-5h-3c-3.38,0-3.64-.91-3.64-4.55V53.34h6.63V48.59H175Z"/><path d="M292.24,48.4c-4.62.19-8.13,2.34-9.88,6.3V48.59h-5.79v35h5.92V65.24c0-7.8,2.73-10.72,8.19-10.72a21.74,21.74,0,0,1,3.32.26V48.46A17.15,17.15,0,0,0,292.24,48.4Z"/><path d="M270.87,70.39l.06-8.06c.07-10-4.09-14.44-13.92-14.44-6.76,0-13.53,4.22-14,11.77h6.12c.26-4.36,3-7,8-7,4.42,0,7.93,2.08,7.93,8.52v.84c-14.31,1.57-23.67,4-23.67,12.3,0,6.44,5.46,10.08,12,10.08,6.25,0,9.82-2,12-5.65a38.92,38.92,0,0,0,.45,4.81h6A59.49,59.49,0,0,1,270.87,70.39ZM265.47,69c0,8.26-5.27,10.8-10.8,10.8-4.23,0-6.76-2.21-6.76-5.53,0-4.82,6.82-6.44,17.56-7.48Z"/><rect x="219.65" y="36.4" width="5.92" height="47.19"/><rect x="231.49" y="36.4" width="5.92" height="47.19"/></svg>