<svg xmlns="http://www.w3.org/2000/svg" width="128" height="64" fill="none"><rect width="128" height="64" fill="#fff" rx="6"/><path fill="#4A4A49" d="M99.306 25.965c.913 0 1.688.117 2.324.35.636.233 1.133.448 1.491.646.305.161.484.376.538.646.053.268.008.556-.135.86l-.269.485c-.161.323-.367.511-.618.565-.25.054-.546.009-.886-.135a12.202 12.202 0 0 0-1.102-.444c-.43-.152-.931-.228-1.505-.228-.59 0-1.048.116-1.37.35-.322.233-.484.565-.484.995 0 .377.166.682.497.915.332.233.753.44 1.263.619l1.639.578c.583.207 1.129.471 1.639.794a4.15 4.15 0 0 1 1.263 1.238c.332.502.497 1.139.497 1.91 0 .61-.12 1.17-.362 1.682a3.843 3.843 0 0 1-1.048 1.332 5.112 5.112 0 0 1-1.653.888c-.645.215-1.361.323-2.15.323-1.11 0-2.046-.162-2.807-.484-.762-.323-1.348-.628-1.76-.915-.305-.18-.475-.404-.51-.673-.037-.27.044-.556.241-.861l.323-.484c.197-.287.416-.449.658-.485.242-.036.533.036.873.215.323.18.739.382 1.25.606.51.224 1.115.336 1.813.336.591 0 1.057-.125 1.398-.376.34-.252.51-.592.51-1.023 0-.377-.166-.677-.497-.901-.331-.225-.752-.43-1.263-.62l-1.639-.605a8.706 8.706 0 0 1-1.64-.807 4.16 4.16 0 0 1-1.262-1.238c-.331-.502-.497-1.148-.497-1.937 0-.664.139-1.256.416-1.776a3.73 3.73 0 0 1 1.129-1.291 5.291 5.291 0 0 1 1.666-.78 7.444 7.444 0 0 1 2.029-.27Zm-39.941 0c.913 0 1.688.117 2.324.35.636.233 1.133.448 1.491.646.305.161.484.376.538.646.053.268.009.556-.135.86l-.268.485c-.162.323-.368.511-.618.565-.251.054-.547.009-.887-.135a12.141 12.141 0 0 0-1.102-.444c-.43-.152-.931-.228-1.504-.228-.592 0-1.048.116-1.37.35-.323.233-.485.565-.485.995 0 .377.166.682.498.915.331.233.752.44 1.262.619l1.64.578c.582.207 1.128.471 1.639.794.51.323.931.736 1.263 1.238.33.502.497 1.139.497 1.91 0 .61-.121 1.17-.363 1.682a3.843 3.843 0 0 1-1.048 1.332 5.11 5.11 0 0 1-1.653.888c-.644.215-1.361.323-2.15.323-1.11 0-2.046-.162-2.807-.484-.761-.323-1.348-.628-1.76-.915-.305-.18-.475-.404-.51-.673-.036-.27.044-.556.241-.861l.323-.484c.197-.287.416-.449.658-.485.242-.036.533.036.873.215.323.18.74.382 1.25.606.51.224 1.115.336 1.814.336.59 0 1.056-.125 1.397-.376.34-.252.51-.592.51-1.023 0-.377-.166-.677-.497-.901-.331-.225-.752-.43-1.263-.62l-1.639-.605a8.703 8.703 0 0 1-1.639-.807 4.16 4.16 0 0 1-1.263-1.238c-.331-.502-.497-1.148-.497-1.937 0-.664.139-1.256.417-1.776a3.73 3.73 0 0 1 1.128-1.291 5.292 5.292 0 0 1 1.666-.78 7.444 7.444 0 0 1 2.029-.27Zm48.994-5.059c.753 0 1.129.377 1.129 1.13v5.543c0 .18-.005.337-.014.471a3.446 3.446 0 0 1-.04.364 2.327 2.327 0 0 0-.027.323h.054c.161-.323.39-.65.685-.982a5.367 5.367 0 0 1 2.419-1.547 5.449 5.449 0 0 1 1.652-.243c1.523 0 2.7.413 3.533 1.238.833.825 1.25 2.152 1.25 3.982v7.696c0 .753-.376 1.13-1.129 1.13h-1.155c-.752 0-1.129-.377-1.129-1.13v-6.996c0-.843-.143-1.52-.429-2.032-.287-.511-.86-.767-1.72-.767-.591 0-1.133.117-1.626.35a3.662 3.662 0 0 0-1.249.955 4.374 4.374 0 0 0-.793 1.44 5.595 5.595 0 0 0-.282 1.803v5.247c0 .753-.376 1.13-1.129 1.13h-1.155c-.752 0-1.129-.377-1.129-1.13V22.036c0-.753.377-1.13 1.129-1.13h1.155Zm-17.852 5.382c.734 0 1.101.377 1.101 1.13v11.463c0 .753-.367 1.13-1.101 1.13h-1.183c-.734 0-1.101-.377-1.101-1.13V27.418c0-.753.367-1.13 1.101-1.13h1.183Zm-22.8 0c.681 0 1.084.332 1.21.996l2.203 8.018c.036.197.067.377.094.538.027.162.058.314.094.458.036.161.063.314.08.457h.055c.017-.143.044-.296.08-.457.036-.144.067-.296.094-.458.027-.161.067-.34.121-.538l2.311-8.018c.125-.646.537-.97 1.236-.97h1.021c.663 0 1.075.324 1.236.97l2.284 8.018c.054.197.094.377.12.538.028.162.06.314.095.458.036.161.063.314.08.457h.054c.018-.143.045-.296.08-.457a5.85 5.85 0 0 0 .095-.458c.027-.161.067-.34.12-.538l2.177-8.018c.162-.664.574-.996 1.236-.996h1.236c.412 0 .699.117.86.35.162.233.188.538.08.915l-3.52 11.516c-.178.628-.6.942-1.262.942h-1.8c-.681 0-1.102-.323-1.263-.969l-2.07-6.861a5.915 5.915 0 0 1-.134-.538c-.035-.18-.071-.341-.107-.485a4.949 4.949 0 0 1-.08-.457h-.054a17.97 17.97 0 0 0-.108.457c-.036.144-.072.305-.107.485-.036.179-.08.358-.135.538l-2.069 6.861c-.16.646-.573.969-1.236.969H70.26c-.645 0-1.057-.314-1.236-.942l-3.547-11.516c-.107-.377-.076-.682.094-.915.17-.233.453-.35.847-.35h1.29Z"/><path fill="url(#a)" fill-rule="evenodd" d="M19.102 48.03c7.136 3.413 15.942 1.724 21.262-4.614 6.306-7.514 5.326-18.715-2.188-25.018l-4.995 5.951c5.87 4.925 6.636 13.676 1.71 19.546-3.929 4.68-10.396 6.243-15.789 4.136" clip-rule="evenodd"/><path fill="url(#b)" fill-rule="evenodd" d="M19.102 48.03c7.136 3.413 15.942 1.724 21.262-4.614a17.88 17.88 0 0 0 1.722-2.438c.84-5.221-1.008-10.74-5.354-14.385a15.552 15.552 0 0 0-3.55-2.243c5.87 4.925 6.634 13.675 1.708 19.545-3.928 4.68-10.396 6.243-15.788 4.136Z" clip-rule="evenodd"/><path fill="url(#c)" fill-rule="evenodd" d="M34.418 15.97c-7.135-3.414-15.941-1.725-21.261 4.614C6.85 28.098 7.83 39.3 15.344 45.602l4.995-5.951c-5.87-4.925-6.635-13.676-1.709-19.546 3.928-4.68 10.396-6.243 15.788-4.136" clip-rule="evenodd"/><path fill="url(#d)" fill-rule="evenodd" d="M34.418 15.97c-7.135-3.414-15.941-1.725-21.262 4.614a17.88 17.88 0 0 0-1.722 2.438c-.84 5.22 1.008 10.74 5.354 14.385 1.104.927 2.3 1.673 3.55 2.243-5.87-4.925-6.634-13.675-1.708-19.545 3.928-4.68 10.396-6.243 15.788-4.136" clip-rule="evenodd"/><defs><linearGradient id="a" x1="39.644" x2="32.098" y1="37.101" y2="22.069" gradientUnits="userSpaceOnUse"><stop stop-color="#EF2131"/><stop offset="1" stop-color="#FECF2C"/></linearGradient><linearGradient id="b" x1="32.737" x2="19.508" y1="24.35" y2="47.251" gradientUnits="userSpaceOnUse"><stop stop-color="#FBC52C"/><stop offset=".264" stop-color="#F87130"/><stop offset=".561" stop-color="#EF52E2"/><stop offset="1" stop-color="#661EEC"/></linearGradient><linearGradient id="c" x1="14.228" x2="21.461" y1="27.104" y2="41.813" gradientUnits="userSpaceOnUse"><stop stop-color="#78F6D8"/><stop offset=".266" stop-color="#77D1F6"/><stop offset=".554" stop-color="#70A4F3"/><stop offset="1" stop-color="#661EEC"/></linearGradient><linearGradient id="d" x1="21.075" x2="34.2" y1="39.65" y2="16.828" gradientUnits="userSpaceOnUse"><stop stop-color="#536EED"/><stop offset=".247" stop-color="#54C3EC"/><stop offset=".564" stop-color="#64D769"/><stop offset="1" stop-color="#FECF2C"/></linearGradient></defs></svg>