<svg xmlns="http://www.w3.org/2000/svg" width="128" height="64" fill="none"><rect width="128" height="64" fill="#000" rx="6"/><path fill="#fff" d="M40.039 40.337c0 .471-.34 1.055-.746 1.28l-14.528 8.325c-.407.247-1.085.247-1.491 0L8.746 41.616C8.339 41.37 8 40.808 8 40.337V23.663c0-.471.339-1.055.746-1.28l14.528-8.325c.406-.247 1.084-.247 1.491 0l14.528 8.326c.407.247.746.808.746 1.279v16.674ZM120 24.567h-13.052v3.04h4.668v13.046h3.694V27.606H120v-3.039ZM60.724 24.567H47.672v3.04h4.69v13.046h3.694V27.606h4.668v-3.039ZM98.496 24.057c-4.1 0-6.39 2.574-6.39 6.279v10.317h3.649V30.247c0-1.62.974-2.862 2.787-2.862 1.79 0 2.764 1.464 2.764 2.862v10.406h3.648V30.336c0-3.705-2.356-6.28-6.458-6.28ZM84.697 24.567v16.086h3.67V24.567h-3.67ZM72.325 30.957l.136.71 3.422 8.986h1.495l4.668-16.086h-3.603L76.2 33.021l-.113.909-.182-.909-2.991-8.454h-1.178l-2.969 8.454-.18.909-.137-.909-2.22-8.454h-3.603l4.668 16.086h1.495l3.422-8.986.113-.71Z"/><path fill="url(#a)" d="m30.767 31.686-3.727 5.319-1.92-2.854 2.21-3.2c.402-.562 1.294-2.14.268-4.28-.826-1.73-2.611-2.573-4.174-2.573-1.562 0-3.28.779-4.173 2.573-1.027 2.054-.134 3.675.245 4.216 0 0 1.228 1.75 2.255 3.22l1.673 2.336 2.5 3.696c.022.022.424.606 1.116.606.67 0 1.071-.584 1.138-.649l5.87-8.41h-3.281Zm-7.343.13s-.982-1.448-1.607-2.443c-.692-1.08.09-2.68 1.607-2.68 1.54 0 2.3 1.6 1.607 2.68-.625 1.016-1.607 2.443-1.607 2.443Z"/><path fill="url(#b)" d="m19.809 36.832-3.683-4.994s-.982-1.449-1.607-2.443c-.691-1.081.09-2.68 1.607-2.68.201 0 .38.02.536.064l1.294-2.291a5.024 5.024 0 0 0-1.83-.368c-1.562 0-3.28.778-4.173 2.573-1.027 2.053-.134 3.675.245 4.215l6.428 9.231c.044.087.468.67 1.138.67.692 0 1.071-.561 1.138-.648l1.942-2.854-1.674-2.378-1.361 1.903Z"/><defs><radialGradient id="a" cx="0" cy="0" r="1" gradientTransform="translate(541.24 102.151) scale(2645.44)" gradientUnits="userSpaceOnUse"><stop stop-color="#FC0"/><stop offset=".092" stop-color="#FFC800"/><stop offset=".174" stop-color="#FFBD00"/><stop offset=".253" stop-color="#FFAB00"/><stop offset=".33" stop-color="#FF9100"/><stop offset=".405" stop-color="#FF7000"/><stop offset=".479" stop-color="#FF4700"/><stop offset=".55" stop-color="#FF1800"/><stop offset=".582" stop-color="red"/><stop offset="1" stop-color="red"/></radialGradient><radialGradient id="b" cx="0" cy="0" r="1" gradientTransform="matrix(2425.66 0 0 2425.67 55.864 119.278)" gradientUnits="userSpaceOnUse"><stop stop-color="#00B4E6"/><stop offset=".201" stop-color="#00B0E3"/><stop offset=".39" stop-color="#01A5DB"/><stop offset=".574" stop-color="#0292CD"/><stop offset=".755" stop-color="#0377BA"/><stop offset=".932" stop-color="#0455A1"/><stop offset="1" stop-color="#054696"/></radialGradient></defs></svg>