<svg xmlns="http://www.w3.org/2000/svg" width="128" height="64" fill="none"><rect width="128" height="64" fill="#fff" rx="6"/><path fill="#4F008C" d="M56.58 34.342v-5.464h2.723V26.09H56.58v-3.402h-3.447v3.402h-1.89v2.788h1.89v5.91c0 2.788 1.612 4.014 4.114 4.014.944 0 1.778-.167 2.223-.39v-3.067c-.39.28-1 .447-1.5.447-.834-.056-1.39-.502-1.39-1.45ZM64.028 26.09h-3.446l3.78 12.434h3.168l2.056-7.64 2.057 7.64h3.168l3.78-12.434h-3.335l-2.224 7.917-2.112-7.917h-2.612l-2.057 7.917-2.223-7.917ZM80.425 26.09h3.446v12.49h-3.446V26.09ZM93.376 31.164l-2.557-.614c-.778-.223-1.112-.502-1.112-1.003 0-.781.834-1.171 1.668-1.171 1.167 0 1.723.557 1.945 1.226h3.28c-.445-2.341-2.168-3.847-5.28-3.847-2.78 0-4.948 1.617-4.948 4.07 0 2.12 1.334 3.067 3.224 3.513l2.501.558c.89.223 1.279.502 1.279 1.06 0 .835-.723 1.226-1.779 1.226s-1.834-.502-2.112-1.394h-3.446c.389 2.565 2.5 4.014 5.558 4.014 2.89 0 5.114-1.505 5.114-4.07 0-1.84-1.168-3.067-3.335-3.568ZM103.214 34.342v-5.464h2.723V26.09h-2.723v-3.402h-3.446v3.402h-1.89v2.788h1.89v5.91c0 2.788 1.612 4.014 4.113 4.014.945 0 1.779-.167 2.223-.39v-3.067c-.389.28-1 .447-1.501.447-.889-.056-1.389-.502-1.389-1.45ZM113.497 25.81a6.486 6.486 0 0 0-6.503 6.525 6.486 6.486 0 0 0 6.503 6.523c3.613 0 6.503-2.9 6.503-6.523a6.486 6.486 0 0 0-6.503-6.524Zm0 9.647c-1.723 0-3.168-1.45-3.168-3.178 0-1.729 1.445-3.178 3.168-3.178s3.168 1.45 3.168 3.178-1.445 3.178-3.168 3.178ZM82.148 24.417c.952 0 1.723-.774 1.723-1.729 0-.954-.771-1.728-1.723-1.728-.952 0-1.723.774-1.723 1.728 0 .955.771 1.729 1.723 1.729ZM19.117 26.424v22.303h11.116V15.273H8v11.151h11.117Z"/><path fill="#009D4E" d="M30.233 15.273c0 6.189 5.003 11.151 11.117 11.151V15.273H30.233Z"/><path fill="url(#a)" d="M30.233 15.273c0 6.189 5.003 11.151 11.117 11.151V15.273H30.233Z"/><defs><linearGradient id="a" x1="31.862" x2="43.013" y1="13.639" y2="24.756" gradientUnits="userSpaceOnUse"><stop stop-color="#82BC00" stop-opacity="0"/><stop offset="1" stop-color="#82BC00"/></linearGradient></defs></svg>