<svg xmlns="http://www.w3.org/2000/svg" width="128" height="64" fill="none"><rect width="128" height="64" fill="#fff" rx="6"/><path fill="#E21836" d="M34.825 2h23.94c3.343 0 5.421 2.724 4.642 6.077L52.26 55.932C51.474 59.274 48.127 62 44.782 62H20.845c-3.337 0-5.42-2.726-4.641-6.068l11.15-47.855C28.135 4.724 31.48 2 34.825 2Z"/><path fill="#00447C" d="M56.774 2h27.531c3.342 0 1.835 2.724 1.049 6.077L74.209 55.932C73.427 59.274 73.671 62 70.323 62H42.791c-3.348 0-5.42-2.726-4.633-6.068L49.3 8.077C50.093 4.724 53.43 2 56.774 2Z"/><path fill="#007B84" d="M83.213 2h23.941c3.347 0 5.426 2.724 4.64 6.077l-11.145 47.855C99.862 59.274 96.514 62 93.168 62h-23.93c-3.348 0-5.425-2.726-4.64-6.068L75.742 8.077C76.523 4.724 79.865 2 83.213 2Z"/><path fill="#FEFEFE" d="M41.077 17.336c-2.462.025-3.189 0-3.421-.055-.09.425-1.75 8.088-1.755 8.095-.358 1.55-.618 2.655-1.502 3.37-.502.414-1.088.614-1.767.614-1.092 0-1.728-.542-1.835-1.57l-.02-.353s.332-2.077.332-2.089c0 0 1.744-6.984 2.056-7.907a.667.667 0 0 0 .025-.105c-3.394.03-3.995 0-4.037-.055-.023.076-.107.509-.107.509l-1.78 7.871-.153.668-.296 2.183c0 .648.128 1.177.38 1.624.812 1.417 3.126 1.63 4.434 1.63 1.687 0 3.269-.359 4.338-1.013 1.856-1.096 2.341-2.81 2.774-4.333l.2-.782s1.797-7.253 2.102-8.197c.012-.052.017-.08.032-.105Zm6.112 5.852c-.433 0-1.225.105-1.935.453-.258.133-.502.285-.76.438l.233-.839-.128-.141c-1.507.305-1.844.346-3.236.542l-.117.078c-.162 1.34-.305 2.348-.905 4.982-.228.972-.465 1.952-.702 2.92l.064.124a34.588 34.588 0 0 1 3.1-.055l.1-.11c.158-.806.178-.995.527-2.63.164-.775.506-2.478.675-3.084.31-.143.615-.285.907-.285.695 0 .61.607.584.848-.03.406-.283 1.73-.543 2.868l-.173.734c-.121.542-.254 1.069-.375 1.606l.053.108a33.313 33.313 0 0 1 3.036-.055l.141-.11c.218-1.26.281-1.597.666-3.432l.194-.843c.376-1.65.565-2.488.28-3.17-.3-.763-1.023-.947-1.686-.947Zm6.827 1.728c-.748.143-1.225.239-1.698.3-.47.076-.928.144-1.65.244l-.058.052-.053.042c-.075.538-.127 1.003-.227 1.55a28.388 28.388 0 0 1-.427 2.13c-.164.707-.248.954-.342 1.202-.09.249-.191.49-.375 1.186l.043.064.036.059c.675-.032 1.117-.055 1.57-.06.454-.016.924 0 1.651.005l.064-.052.068-.057c.105-.627.12-.796.185-1.101.064-.328.173-.782.442-1.995.128-.57.27-1.137.401-1.718.137-.58.28-1.15.417-1.72l-.02-.068-.027-.063Zm.016-2.33c-.68-.401-1.872-.274-2.674.28-.8.543-.891 1.313-.214 1.719.667.39 1.864.274 2.66-.285.798-.554.897-1.317.227-1.714Zm4.107 9.284c1.375 0 2.783-.378 3.844-1.502.815-.912 1.19-2.268 1.319-2.826.422-1.851.093-2.716-.32-3.242-.626-.802-1.733-1.06-2.883-1.06-.69 0-2.336.069-3.622 1.254-.923.855-1.35 2.015-1.607 3.127-.26 1.133-.558 3.173 1.318 3.932.579.249 1.413.317 1.951.317Zm-.107-4.165c.317-1.401.69-2.577 1.646-2.577.748 0 .802.875.47 2.281-.06.312-.333 1.473-.703 1.967-.258.365-.563.586-.9.586-.1 0-.697 0-.707-.886-.004-.438.085-.885.194-1.37Zm8.705 3.985.108-.11c.152-.806.177-.996.514-2.63.169-.775.518-2.477.682-3.084.31-.144.61-.285.912-.285.69 0 .606.606.579.848-.025.406-.278 1.73-.543 2.867l-.164.734c-.125.543-.262 1.07-.383 1.607l.053.108a33.237 33.237 0 0 1 3.031-.055l.146-.11c.212-1.26.27-1.597.666-3.432l.19-.844c.377-1.65.569-2.486.289-3.168-.31-.764-1.037-.948-1.691-.948-.434 0-1.23.104-1.936.453-.253.133-.506.285-.755.438l.217-.839-.116-.141c-1.507.305-1.851.346-3.242.542l-.107.078c-.168 1.34-.305 2.347-.905 4.983-.228.97-.465 1.951-.702 2.92l.064.123a34.515 34.515 0 0 1 3.093-.055Zm10.367.055c.089-.433.616-3 .62-3 0 0 .45-1.883.477-1.951 0 0 .141-.196.282-.274h.208c1.96 0 4.173 0 5.908-1.276 1.18-.875 1.988-2.168 2.348-3.739a5.65 5.65 0 0 0 .162-1.301c0-.602-.12-1.197-.47-1.662-.884-1.238-2.646-1.26-4.68-1.27l-1.002.01c-2.603.032-3.647.022-4.076-.03-.036.19-.105.527-.105.527s-.932 4.321-.932 4.328l-2.337 9.622c2.273-.028 3.205-.028 3.597.016Zm1.728-7.678s.992-4.313.987-4.296l.032-.221.014-.169.396.04 2.093.181c.807.312 1.14 1.117.907 2.168-.212.96-.834 1.767-1.634 2.156-.66.33-1.466.358-2.298.358h-.538l.041-.216Zm6.173 3.718c-.262 1.117-.563 3.157 1.304 3.884a3.643 3.643 0 0 0 1.67.302c.573-.031 1.103-.318 1.595-.732l-.133.51.084.11c1.343-.057 1.76-.057 3.214-.046l.132-.1c.213-1.25.413-2.462.965-4.85.269-1.145.537-2.278.813-3.418l-.043-.125a60.602 60.602 0 0 1-3.348.542l-.11.09c-.014.116-.03.227-.044.339a2.065 2.065 0 0 0-1.052-.866c-.643-.253-2.152.073-3.45 1.254-.91.843-1.348 1.998-1.597 3.106Zm3.155.069c.321-1.377.69-2.542 1.648-2.542.605 0 .923.559.859 1.511a48.35 48.35 0 0 1-.173.771c-.096.41-.2.815-.3 1.22-.103.279-.223.54-.354.715-.246.349-.832.566-1.17.566-.095 0-.686 0-.706-.871-.005-.434.084-.88.196-1.37Zm16.473-4.546-.116-.132c-1.486.301-1.755.349-3.12.533l-.101.1c-.004.017-.009.042-.016.065l-.004-.023c-1.017 2.345-.987 1.84-1.814 3.686-.005-.084-.005-.137-.01-.226l-.207-4.003-.13-.132c-1.557.301-1.594.349-3.032.533l-.112.1c-.015.049-.015.101-.025.158l.01.02c.18.92.136.714.316 2.164.084.711.197 1.427.28 2.13.142 1.175.222 1.754.395 3.548-.971 1.603-1.2 2.21-2.136 3.615l.007.014-.659 1.041c-.075.11-.143.185-.239.218-.105.052-.241.06-.431.06h-.365l-.542 1.804 1.86.032c1.092-.005 1.778-.515 2.147-1.202l1.17-2.003h-.019l.123-.142c.787-1.693 6.77-11.958 6.77-11.958ZM85.005 46.99h-.789l2.92-9.658h.969l.307-.995.03 1.106c-.036.684.502 1.29 1.915 1.19h1.635l.562-1.86h-.615c-.353 0-.517-.089-.497-.28l-.03-1.126h-3.027v.006c-.978.02-3.9.094-4.492.251-.716.185-1.47.727-1.47.727l.296-.996h-2.832l-.59 1.977-2.959 9.806h-.574l-.563 1.846h5.64l-.19.616h2.78l.184-.616h.78l.61-1.994Zm-2.314-7.696c-.453.126-1.297.506-1.297.506l.75-2.468h2.25l-.543 1.798s-.695.041-1.16.164Zm.043 3.527s-.706.088-1.171.193c-.458.14-1.317.577-1.317.577l.775-2.569h2.26l-.547 1.799Zm-1.26 4.192h-2.257l.655-2.168h2.25l-.648 2.168Zm5.434-5.99h3.253l-.467 1.513h-3.296l-.495 1.655h2.884l-2.184 3.075a.899.899 0 0 1-.442.369c-.153.078-.354.169-.586.169h-.8l-.55 1.812h2.093c1.088 0 1.73-.495 2.204-1.144l1.498-2.05.321 2.081c.069.39.349.618.538.707.21.105.426.285.732.312.328.014.565.025.722.025h1.029l.617-2.028h-.405c-.233 0-.634-.04-.702-.112-.069-.089-.069-.225-.106-.433l-.326-2.086h-1.335l.585-.697h3.29l.506-1.655H92.44l.475-1.514h3.036l.563-1.867h-9.052l-.554 1.867Zm-27.472 6.411.76-2.525h3.12l.57-1.879h-3.123l.476-1.554h3.052l.566-1.82H57.22l-.553 1.82H58.4l-.462 1.554h-1.74l-.576 1.91h1.734l-1.012 3.342c-.136.443.064.611.191.817.13.2.262.332.559.408.306.068.515.109.8.109h3.518l.626-2.081-1.559.214c-.301 0-1.135-.036-1.044-.315Zm.358-12.09-.79 1.43c-.17.311-.322.505-.46.594-.12.076-.36.107-.706.107h-.413l-.551 1.828h1.37c.659 0 1.165-.241 1.407-.362.26-.139.327-.06.528-.253l.463-.401h4.279l.567-1.904h-3.132l.547-1.039h-3.109Zm6.317 12.127c-.073-.105-.02-.29.09-.675l1.17-3.87h4.16a27.992 27.992 0 0 0 1.329-.037c.306-.032.638-.141 1-.337.375-.206.566-.422.728-.67.18-.249.47-.791.718-1.628l1.47-4.898-4.317.025s-1.33.196-1.915.412c-.59.242-1.434.916-1.434.916l.39-1.342h-2.667l-3.734 12.382c-.132.48-.22.83-.241 1.04-.007.225.285.448.474.617.223.169.553.141.87.169.334.025.807.04 1.462.04h2.049l.629-2.123-1.835.173a.483.483 0 0 1-.397-.194Zm2.014-7.16h4.37l-.278.87c-.039.021-.132-.043-.577.01h-3.784l.27-.88Zm.876-2.92h4.406l-.317 1.049s-2.077-.02-2.41.04c-1.463.254-2.318 1.036-2.318 1.036l.639-2.125Zm3.314 6.706a.466.466 0 0 1-.173.27c-.089.056-.232.077-.447.077h-.622l.037-1.06h-2.59l-.105 5.183c-.004.374.032.59.305.764.274.216 1.117.244 2.252.244h1.623l.586-1.94-1.413.077-.47.028c-.064-.028-.125-.053-.193-.121-.06-.06-.16-.023-.144-.397l.011-1.329 1.482-.06c.8 0 1.142-.261 1.434-.51.278-.237.37-.51.474-.88l.249-1.176h-2.036l-.26.83Z"/></svg>