<svg xmlns="http://www.w3.org/2000/svg" width="128" height="64" fill="none"><rect width="128" height="64" fill="#fff" rx="6"/><path fill="#1434CB" d="M53.675 19.929 43.532 44.135h-6.619L31.92 24.817c-.302-1.19-.567-1.624-1.487-2.116a26.151 26.151 0 0 0-6.175-2.058l.148-.704h10.651a2.92 2.92 0 0 1 2.873 2.455l2.645 14.01 6.519-16.475h6.582Zm25.925 16.3c.027-6.385-8.83-6.74-8.772-9.591 0-.868.846-1.794 2.645-2.032 2.119-.2 4.252.174 6.175 1.084l1.1-5.132a16.888 16.888 0 0 0-5.857-1.058c-6.19 0-10.544 3.291-10.582 8.005-.037 3.482 3.112 5.429 5.482 6.582 2.37 1.153 3.275 1.947 3.264 3.005 0 1.625-1.947 2.339-3.746 2.37-2.238.047-4.45-.48-6.428-1.528l-1.138 5.29c2.22.858 4.583 1.29 6.963 1.276 6.577 0 10.884-3.249 10.9-8.28m16.343 7.904h5.794l-5.058-24.206h-5.318a2.858 2.858 0 0 0-2.645 1.778l-9.44 22.439h6.572l1.307-3.62h8.032l.756 3.609Zm-6.984-8.566 3.296-9.09 1.895 9.09h-5.19Zm-26.343-15.63-5.18 24.207h-6.26l5.18-24.206h6.26Z"/></svg>