<svg xmlns="http://www.w3.org/2000/svg" width="128" height="64" fill="none"><rect width="128" height="64" fill="#fff" rx="6"/><path fill="#1AAD19" d="M18.506 36.023a1.141 1.141 0 0 1-1.516-.465l-.075-.164-3.132-6.867a.577.577 0 0 1 .52-.816.554.554 0 0 1 .34.113l3.694 2.62a1.713 1.713 0 0 0 1.527.175l17.37-7.72c-3.113-3.67-8.232-6.065-14.044-6.065C13.697 16.834 6 23.247 6 31.158c0 4.318 2.316 8.202 5.938 10.83a1.145 1.145 0 0 1 .483.935 1.26 1.26 0 0 1-.06.374c-.292 1.081-.748 2.81-.774 2.889-.048.131-.08.268-.094.407a.576.576 0 0 0 .573.573.658.658 0 0 0 .333-.105l3.764-2.174c.275-.168.59-.258.913-.262.171 0 .341.026.505.075 1.832.52 3.728.779 5.632.77 9.474 0 17.213-6.398 17.213-14.312a12.382 12.382 0 0 0-2.002-6.642L18.629 35.948l-.123.075Z"/><path fill="#4E4E4E" d="m58.907 33.265-.228.812c-.19.677-.374 1.272-.505 1.87a51.808 51.808 0 0 0-.674-2.701l-1.53-5.778-.026-.1h-1.007l-1.71 5.915c-.31 1.003-.58 1.905-.77 2.695-.147-.625-.326-1.321-.51-2.051l-1.661-6.459-.03-.1H49.1l2.784 10.54.026.105h.988l1.788-6.04c.333-1.036.55-1.844.708-2.555.153.748.374 1.568.628 2.54l1.55 5.943.025.105H58.6l3.14-10.478.052-.18h-1.16l-1.725 5.917ZM63.15 33.302c.281-1.583 1.322-2.152 2.212-2.152a1.808 1.808 0 0 1 1.351.506c.397.457.618 1.04.621 1.646h-4.183Zm2.306-3.173c-2.085 0-3.484 1.669-3.484 4.153 0 2.313 1.448 3.866 3.603 3.866a4.954 4.954 0 0 0 2.395-.498l.165-.093-.49-.846-.113.052c-.584.273-1.226.401-1.87.375-1.58 0-2.515-1.04-2.583-2.852h5.34l.038-.157c.03-.16.04-.323.033-.486a4.529 4.529 0 0 0-.553-2.145 2.707 2.707 0 0 0-2.481-1.37M77.097 36.711a5.485 5.485 0 0 1-2.16.423c-2.585 0-4.115-1.635-4.115-4.374 0-2.844 1.59-4.543 4.254-4.543a4.818 4.818 0 0 1 1.972.374l.116.056.52-.902-.157-.086a5.24 5.24 0 0 0-2.47-.482c-3.225 0-5.395 2.245-5.395 5.553 0 3.996 2.72 5.414 5.047 5.414a6.83 6.83 0 0 0 2.837-.531l.172-.086-.509-.88-.112.064ZM82.358 30.129a2.9 2.9 0 0 0-1.575.453 2.74 2.74 0 0 0-.719.61v-4h-1.122v10.814h1.122V33.35a1.977 1.977 0 0 1 .079-.663 2.218 2.218 0 0 1 2.017-1.496c1.571 0 1.803 1.444 1.803 2.309v4.49h1.123v-4.577c0-3.117-2.28-3.274-2.736-3.274M95.181 28.67H94.06v1.71h-1.246v.924h1.231v4.404c0 .876.165 1.497.498 1.871a1.707 1.707 0 0 0 1.403.595c.377.01.751-.059 1.1-.202l.183-.079-.475-.82h-.1c-.203.042-.409.06-.615.057-.606 0-.864-.374-.864-1.302v-4.524h2.08v-.924h-2.08l.007-1.71ZM103.373 28.381a7.66 7.66 0 0 1 1.242-.09c1.654 0 2.597.783 2.597 2.14 0 1.468-.995 2.31-2.732 2.31a4.714 4.714 0 0 1-1.122-.101l.015-4.259Zm1.276-1.096c-.753 0-1.504.067-2.245.198l-.165.03v10.474h1.122V33.68c.347.052.698.075 1.048.067 1.355 0 2.477-.426 3.158-1.205a3.11 3.11 0 0 0 .749-2.185 2.85 2.85 0 0 0-.85-2.151c-.617-.603-1.601-.921-2.843-.921M120.788 30.308l-1.826 4.865c-.146.374-.277.748-.375 1.081a17.725 17.725 0 0 0-.374-1.04l-1.916-4.77-.048-.128h-1.209l2.818 7.039a.43.43 0 0 1 0 .486 5.522 5.522 0 0 1-1.172 1.774 3.52 3.52 0 0 1-1.208.748l-.202.079.849.879a4.573 4.573 0 0 0 1.059-.77c.973-.847 1.587-2.134 2.518-4.529l2.219-5.519.079-.19-1.212-.005ZM87.918 34.814c.494-.48 1.415-.719 2.747-.719h.135v1.37c0 .128-.023.254-.068.374a1.975 1.975 0 0 1-1.968 1.325 1.21 1.21 0 0 1-1.257-1.318 1.364 1.364 0 0 1 .408-1.032m4.015 1.257v-2.855c0-2.013-.943-3.076-2.724-3.076a4.265 4.265 0 0 0-2.246.655l-.134.082.49.85.123-.083c.501-.322 1.085-.49 1.68-.482h.027a1.588 1.588 0 0 1 1.16.4 2.069 2.069 0 0 1 .483 1.538c-1.747 0-2.994.374-3.742 1.122a2.378 2.378 0 0 0-.708 1.763 2.188 2.188 0 0 0 2.343 2.208 2.993 2.993 0 0 0 2.245-.954l.075.774h1.063l-.038-.232a10.796 10.796 0 0 1-.1-1.703M113.068 35.465a.996.996 0 0 1-.067.374 1.992 1.992 0 0 1-1.969 1.325 1.21 1.21 0 0 1-1.257-1.318 1.372 1.372 0 0 1 .408-1.032c.494-.48 1.414-.719 2.743-.719h.138l.004 1.37Zm1.123.606v-2.855c0-2.013-.943-3.076-2.725-3.076a4.316 4.316 0 0 0-2.162.602l-.116.072.486.842.12-.079a3.108 3.108 0 0 1 1.598-.427h.026a1.587 1.587 0 0 1 1.16.4 2.099 2.099 0 0 1 .482 1.539c-1.746 0-2.993.374-3.741 1.122a2.382 2.382 0 0 0-.708 1.762 2.184 2.184 0 0 0 .688 1.618 2.193 2.193 0 0 0 1.655.59 2.99 2.99 0 0 0 2.223-.942l.074.774h1.089l-.037-.232a10.317 10.317 0 0 1-.105-1.703"/></svg>