<svg xmlns="http://www.w3.org/2000/svg" viewBox="0 0 320 120"><defs><style>.a{fill:none;}.b{fill:#1aad19;}.c{fill:#4e4e4e;}</style></defs><rect class="a" width="320" height="120"/><path class="b" d="M38.42,70.75a3.05,3.05,0,0,1-4.05-1.24l-.2-.44L25.8,50.72a1.62,1.62,0,0,1-.14-.65,1.54,1.54,0,0,1,1.53-1.53,1.48,1.48,0,0,1,.91.3l9.87,7a4.58,4.58,0,0,0,2.51.75,4.4,4.4,0,0,0,1.57-.28L88.47,35.68c-8.32-9.81-22-16.21-37.53-16.21C25.57,19.47,5,36.61,5,57.75c0,11.54,6.19,21.92,15.87,28.94a3.06,3.06,0,0,1,1.29,2.5,3.37,3.37,0,0,1-.16,1c-.78,2.89-2,7.51-2.07,7.72A4.54,4.54,0,0,0,19.68,99a1.54,1.54,0,0,0,1.53,1.53,1.76,1.76,0,0,0,.89-.28l10.06-5.81a4.8,4.8,0,0,1,2.44-.7,4.74,4.74,0,0,1,1.35.2A54.39,54.39,0,0,0,51,96C76.32,96,97,78.9,97,57.75A33.09,33.09,0,0,0,91.65,40L38.75,70.55Z"/><path class="c" d="M146.39,63.38l-.61,2.17c-.51,1.81-1,3.4-1.35,5-.49-2.33-1.18-4.92-1.8-7.22l-4.09-15.44-.07-.27h-2.69l-4.57,15.81c-.83,2.68-1.55,5.09-2.06,7.2-.39-1.67-.87-3.53-1.36-5.48l-4.44-17.26-.08-.27h-3.09l7.44,28.17.07.28h2.64l4.78-16.14C136,57.16,136.58,55,137,53.1c.41,2,1,4.19,1.68,6.79l4.14,15.88.07.28h2.68l8.39-28,.14-.48H151Z"/><path class="c" d="M157.73,63.48c.75-4.23,3.53-5.75,5.91-5.75a4.83,4.83,0,0,1,3.61,1.35,6.77,6.77,0,0,1,1.66,4.4ZM163.89,55c-5.57,0-9.31,4.46-9.31,11.1,0,6.18,3.87,10.33,9.63,10.33a13.24,13.24,0,0,0,6.4-1.33l.44-.25-1.31-2.26-.3.14a10.78,10.78,0,0,1-5,1c-4.22,0-6.72-2.78-6.9-7.62h14.27l.1-.42a5.65,5.65,0,0,0,.09-1.3,12.1,12.1,0,0,0-1.48-5.73A7.23,7.23,0,0,0,163.89,55"/><path class="c" d="M195,72.59h0a14.66,14.66,0,0,1-5.77,1.13c-6.91,0-11-4.37-11-11.69,0-7.6,4.25-12.14,11.37-12.14a12.88,12.88,0,0,1,5.27,1l.31.15,1.39-2.41-.42-.23a14,14,0,0,0-6.6-1.29c-8.62,0-14.42,6-14.42,14.84,0,10.68,7.27,14.47,13.49,14.47A18.25,18.25,0,0,0,196.2,75l.46-.23-1.36-2.35Z"/><path class="c" d="M209.06,55a7.75,7.75,0,0,0-4.21,1.21,7.33,7.33,0,0,0-1.92,1.63V47.15h-3v28.9h3V63.61a5.28,5.28,0,0,1,.21-1.77,5.93,5.93,0,0,1,5.39-4c4.2,0,4.82,3.86,4.82,6.17v12h3V63.78c0-8.33-6.09-8.75-7.31-8.75"/><path class="c" d="M243.33,51.1h-3v4.57H237v2.47h3.29V69.91c0,2.34.44,4,1.33,5a4.56,4.56,0,0,0,3.75,1.59,7.21,7.21,0,0,0,2.94-.54l.49-.21-1.27-2.19h-.27a7.53,7.53,0,0,1-1.64.15c-1.62,0-2.31-1-2.31-3.48V58.14h5.56V55.67h-5.56Z"/><path class="c" d="M265.22,50.33a20.52,20.52,0,0,1,3.32-.24c4.42,0,6.94,2.09,6.94,5.72,0,3.92-2.66,6.17-7.3,6.17a12.6,12.6,0,0,1-3-.27Zm3.41-2.93a34.49,34.49,0,0,0-6,.53l-.44.08V76h3V64.49a16.4,16.4,0,0,0,2.8.18c3.62,0,6.62-1.14,8.44-3.22a8.31,8.31,0,0,0,2-5.84,7.64,7.64,0,0,0-2.27-5.75c-1.65-1.61-4.28-2.46-7.6-2.46"/><path class="c" d="M311.76,55.48l-4.88,13c-.39,1-.74,2-1,2.89-.31-.94-.65-1.91-1-2.78l-5.12-12.75-.13-.34H296.4l7.53,18.81a1.14,1.14,0,0,1,0,1.3,14.77,14.77,0,0,1-3.13,4.74,9.42,9.42,0,0,1-3.23,2l-.54.21,2.27,2.35a12.22,12.22,0,0,0,2.83-2.06c2.6-2.26,4.24-5.7,6.73-12.1L314.79,56l.21-.51Z"/><path class="c" d="M223.92,67.52c1.32-1.28,3.78-1.92,7.34-1.92h.36v3.66a2.85,2.85,0,0,1-.18,1,5.28,5.28,0,0,1-5.26,3.54,3.23,3.23,0,0,1-3.36-3.52,3.65,3.65,0,0,1,1.09-2.76m10.73,3.36V63.25c0-5.38-2.52-8.22-7.28-8.22a11.4,11.4,0,0,0-6,1.75L221,57l1.31,2.27.33-.22a8.12,8.12,0,0,1,4.49-1.29h.07a4.24,4.24,0,0,1,3.1,1.07,5.53,5.53,0,0,1,1.29,4.11q-7,0-10,3a6.36,6.36,0,0,0-1.89,4.71,5.85,5.85,0,0,0,6.26,5.9,8,8,0,0,0,6-2.55l.2,2.07H235l-.1-.62a28.88,28.88,0,0,1-.27-4.55"/><path class="c" d="M291.13,69.26a2.64,2.64,0,0,1-.18,1,5.32,5.32,0,0,1-5.26,3.54,3.23,3.23,0,0,1-3.36-3.52,3.65,3.65,0,0,1,1.09-2.76c1.32-1.28,3.78-1.92,7.33-1.92h.37Zm3,1.62V63.25c0-5.38-2.52-8.22-7.28-8.22a11.54,11.54,0,0,0-5.78,1.61l-.31.19,1.3,2.25.32-.21a8.31,8.31,0,0,1,4.27-1.14h.07a4.24,4.24,0,0,1,3.1,1.07,5.62,5.62,0,0,1,1.29,4.11q-7,0-10,3a6.36,6.36,0,0,0-1.89,4.71,5.85,5.85,0,0,0,6.26,5.9A8,8,0,0,0,291.42,74l.2,2.07h2.91l-.1-.62a27.74,27.74,0,0,1-.28-4.55"/></svg>