<svg width="128" height="64" viewBox="0 0 128 64" fill="none" xmlns="http://www.w3.org/2000/svg">
<rect width="128" height="64" rx="6" fill="#FFF48D"/>
<path d="M90.326 32.0195C90.326 26.0003 94.6552 20.514 102.144 20.514C109.658 20.514 114 26.0003 114 32.0195C114 38.0387 109.671 43.525 102.144 43.525C94.6552 43.525 90.326 38.0387 90.326 32.0195ZM107.422 32.0195C107.422 29.1204 105.485 26.4423 102.157 26.4423C98.8544 26.4423 96.8913 29.1204 96.8913 32.0195C96.8913 34.9186 98.8544 37.5967 102.157 37.5967C105.485 37.5967 107.422 34.9186 107.422 32.0195Z" fill="#1D1C1C"/>
<path d="M85.7109 36.2967C88.207 34.8926 89.702 32.2145 89.702 29.2504C89.702 24.8562 86.4909 21.1121 81.4987 21.1121H71.0203V42.9529H77.5075V37.3757H78.7296L82.4347 42.9529H90.079L85.7109 36.2967ZM80.1986 32.3315H77.5205V26.1563H80.2376C81.9797 26.1563 83.1107 27.5603 83.1107 29.2504C83.0977 30.9275 81.9407 32.3315 80.1986 32.3315Z" fill="#1D1C1C"/>
<path d="M41.4051 21.073L37.5049 34.0865L33.7088 21.073H28.5476L24.7124 34.0865L20.8513 21.073H14L21.8523 42.8749H27.4815L31.1217 31.0054L34.7358 42.8749H40.4041L48.2564 21.073H41.4051Z" fill="#1D1C1C"/>
<path d="M58.0717 37.5447H58.0587C55.6276 37.5447 53.9246 36.1017 53.1965 34.1776H69.6032H69.6812C69.8112 33.4496 69.8762 32.7215 69.8762 31.9675C69.8762 25.9613 65.56 20.488 58.0587 20.475V26.3903C60.5028 26.4033 62.1799 27.8463 62.9079 29.7574H46.4493C46.3193 30.4854 46.2543 31.2135 46.2543 31.9675C46.2543 37.9737 50.5834 43.46 58.0587 43.46H58.0717V37.5447Z" fill="#1D1C1C"/>
<path d="M58.0587 43.46C58.3187 43.46 58.5657 43.447 58.8127 43.447C60.3338 43.369 61.7118 43.07 62.9339 42.576C64.1559 42.082 65.248 41.406 66.158 40.5869C67.068 39.7679 67.8351 38.8059 68.4201 37.7528C68.9531 36.7908 69.3431 35.7507 69.5901 34.6717H62.7129C62.5699 34.9577 62.4138 35.2437 62.2188 35.5037C61.9588 35.8547 61.6598 36.1798 61.3218 36.4528C60.9838 36.7258 60.5938 36.9598 60.1778 37.1418C59.7617 37.3238 59.2937 37.4538 58.7997 37.5188C58.5527 37.5448 58.3057 37.5708 58.0457 37.5708C56.4986 37.5708 55.2506 36.9858 54.3535 36.0627L49.8813 40.5349C51.8834 42.316 54.6395 43.46 58.0587 43.46Z" fill="url(#paint0_linear_2401_2)"/>
<path d="M58.0588 20.488C51.7146 20.488 47.6454 24.4272 46.5533 29.2894H53.4046C54.2237 27.6123 55.8357 26.4033 58.0588 26.4033C59.8269 26.4033 61.2049 27.1573 62.102 28.3014L66.6001 23.7902C64.5981 21.7751 61.699 20.488 58.0588 20.488Z" fill="url(#paint1_linear_2401_2)"/>
<defs>
<linearGradient id="paint0_linear_2401_2" x1="66.1308" y1="30.6166" x2="56.0206" y2="43.1412" gradientUnits="userSpaceOnUse">
<stop offset="0.0243" stop-color="#1D1C1C" stop-opacity="0"/>
<stop offset="0.676" stop-color="#1D1C1C"/>
</linearGradient>
<linearGradient id="paint1_linear_2401_2" x1="48.4396" y1="33.4216" x2="58.8285" y2="23.0327" gradientUnits="userSpaceOnUse">
<stop offset="0.0243" stop-color="#1D1C1C" stop-opacity="0"/>
<stop offset="0.676" stop-color="#1D1C1C"/>
</linearGradient>
</defs>
</svg>
