<svg xmlns="http://www.w3.org/2000/svg" viewBox="0 0 320 120"><defs><style>.a{fill:none;}.b{fill:#23292f;}</style></defs><rect class="a" width="320" height="120"/><path class="b" d="M272,39.75h0a13.44,13.44,0,0,1,5.15,1.08,13.26,13.26,0,0,1,4.27,2.68,12.23,12.23,0,0,1,2.88,4,11.76,11.76,0,0,1-.06,9.8,12.57,12.57,0,0,1-2.93,4A14.28,14.28,0,0,1,277,64.12h0a14.19,14.19,0,0,1-5.27,1H256.11V81.5h-5.5V39.75ZM271.74,60a8.26,8.26,0,0,0,3.13-.6,8.08,8.08,0,0,0,2.62-1.64,7.54,7.54,0,0,0,1.76-2.43,6.94,6.94,0,0,0,.64-3,6.79,6.79,0,0,0-.64-2.91A7.73,7.73,0,0,0,277.49,47a8.08,8.08,0,0,0-2.62-1.64,8.45,8.45,0,0,0-3.13-.59H256.11V60Z"/><path class="b" d="M210.66,65.19a9.38,9.38,0,0,1,7.1,3.16L229.11,81.5h7.08L220.65,63.28a9.36,9.36,0,0,0-7.13-3.21H202.76V44.87h15.63a8.48,8.48,0,0,1,5.75,2.24h0a7,7,0,0,1,1.74,2.37,6.94,6.94,0,0,1,.64,3,7.07,7.07,0,0,1-.64,3,7.55,7.55,0,0,1-.94,1.5l3.58,4,.13-.14A12.37,12.37,0,0,0,231.11,57a11.1,11.1,0,0,0,.92-4.51,11.68,11.68,0,0,0-1-4.85,12.38,12.38,0,0,0-2.88-4,14.44,14.44,0,0,0-4.27-2.73,13.45,13.45,0,0,0-5.16-1.08H200a2.78,2.78,0,0,0-2,.79,2.37,2.37,0,0,0-.79,1.77V81.5h5.5V65.19Z"/><path class="b" d="M177.65,39.75h7.16L169.9,54.81a13.69,13.69,0,0,1-19.53,0l-14.9-15.06h7.17L154,51.19a8.67,8.67,0,0,0,12.27.1l.1-.1Zm-35.1,41.89h-7.17l15-15.16a13.71,13.71,0,0,1,19.53,0l15,15.16h-7.16L166.33,70.11a8.69,8.69,0,0,0-12.28-.1l-.09.1Z"/><path class="b" d="M77.12,17.5A42.5,42.5,0,1,0,119.62,60,42.5,42.5,0,0,0,77.12,17.5ZM57.72,36.19l12.54,13a9.45,9.45,0,0,0,13.7,0l12.55-13h7.93L87.93,53.31a14.9,14.9,0,0,1-21.63,0L49.79,36.19ZM96.63,83.81,84,70.69a9.46,9.46,0,0,0-13.71,0L57.62,83.81H49.69L66.3,66.57a14.93,14.93,0,0,1,21.64,0l16.62,17.24Z"/></svg>