<svg xmlns="http://www.w3.org/2000/svg" width="128" height="64" fill="none"><rect width="128" height="64" fill="#fff" rx="6"/><path fill="#23292F" d="M104.211 24.73a4.823 4.823 0 0 1 1.849.389c.568.22 1.088.546 1.533.962.438.403.79.892 1.034 1.435a4.226 4.226 0 0 1-.022 3.518 4.509 4.509 0 0 1-1.052 1.436c-.45.427-.974.77-1.547 1.009a5.093 5.093 0 0 1-1.891.359h-5.608v5.88h-1.974V24.73h7.678Zm-.093 7.27c.385.002.767-.071 1.124-.215.348-.134.668-.334.94-.59.267-.245.482-.541.632-.872a2.5 2.5 0 0 0 .23-1.076 2.448 2.448 0 0 0-.23-1.045 2.78 2.78 0 0 0-.632-.869 3.038 3.038 0 0 0-2.064-.8h-5.61V32h5.61ZM82.192 33.863a3.367 3.367 0 0 1 2.55 1.134l4.073 4.72h2.542l-5.578-6.54a3.36 3.36 0 0 0-2.56-1.152h-3.862V26.57h5.61c.765 0 1.502.286 2.064.804.266.236.48.526.625.85.156.338.234.706.23 1.078a2.54 2.54 0 0 1-.23 1.076 2.711 2.711 0 0 1-.338.539l1.286 1.436.046-.05c.377-.401.677-.869.883-1.379.222-.51.335-1.062.33-1.619a4.192 4.192 0 0 0-.358-1.74 4.444 4.444 0 0 0-1.034-1.437 5.183 5.183 0 0 0-1.533-.98 4.83 4.83 0 0 0-1.852-.387h-6.72a.997.997 0 0 0-.718.283.85.85 0 0 0-.284.636v14.039h1.975v-5.855h2.853ZM70.343 24.73h2.57l-5.352 5.407a4.915 4.915 0 0 1-7.01 0L55.2 24.73h2.575l4.077 4.106a3.112 3.112 0 0 0 4.405.036l.036-.036 4.049-4.106Zm-12.6 15.038H55.17l5.385-5.442a4.921 4.921 0 0 1 7.01 0l5.385 5.442h-2.57l-4.1-4.139a3.12 3.12 0 0 0-4.408-.036l-.032.036-4.096 4.139ZM34.256 16.744a15.256 15.256 0 1 0 0 30.512 15.256 15.256 0 0 0 0-30.512Zm-6.964 6.709 4.502 4.666a3.391 3.391 0 0 0 4.917 0l4.506-4.666h2.846l-5.927 6.146a5.348 5.348 0 0 1-7.764 0l-5.927-6.146h2.847ZM41.26 40.547l-4.534-4.71a3.397 3.397 0 0 0-4.922 0l-4.548 4.71H24.41l5.962-6.189a5.358 5.358 0 0 1 7.768 0l5.966 6.189H41.26Z"/></svg>